<svg width="16" height="16" viewBox="0 0 16 16" fill="none" xmlns="http://www.w3.org/2000/svg">
<path fill-rule="evenodd" clip-rule="evenodd" d="M2.75 8C2.75 5.10051 5.10051 2.75 8 2.75C10.8995 2.75 13.25 5.10051 13.25 8C13.25 10.8995 10.8995 13.25 8 13.25C5.10051 13.25 2.75 10.8995 2.75 8ZM8 1.25C4.27208 1.25 1.25 4.27208 1.25 8C1.25 11.7279 4.27208 14.75 8 14.75C11.7279 14.75 14.75 11.7279 14.75 8C14.75 4.27208 11.7279 1.25 8 1.25ZM5 7.25C4.58579 7.25 4.25 7.58579 4.25 8C4.25 8.41421 4.58579 8.75 5 8.75L11 8.75C11.4142 8.75 11.75 8.41421 11.75 8C11.75 7.58579 11.4142 7.25 11 7.25L5 7.25Z" fill="#9DA9BB"/>
</svg>
