<svg width="24" height="24" viewBox="0 0 24 24" fill="none" xmlns="http://www.w3.org/2000/svg">
    <path fill-rule="evenodd" clip-rule="evenodd"
          d="M12 22.1291C17.5941 22.1291 22.1291 17.5941 22.1291 12C22.1291 6.40585 17.5941 1.8709 12 1.8709C6.40585 1.8709 1.8709 6.40585 1.8709 12C1.8709 17.5941 6.40585 22.1291 12 22.1291ZM12 23C18.0751 23 23 18.0751 23 12C23 5.92487 18.0751 1 12 1C5.92487 1 1 5.92487 1 12C1 18.0751 5.92487 23 12 23Z"
          fill="black"/>
    <path fill-rule="evenodd" clip-rule="evenodd"
          d="M12 22.1291C17.5941 22.1291 22.1291 17.5941 22.1291 12C22.1291 6.40585 17.5941 1.8709 12 1.8709C6.40585 1.8709 1.8709 6.40585 1.8709 12C1.8709 17.5941 6.40585 22.1291 12 22.1291ZM12 23C18.0751 23 23 18.0751 23 12C23 5.92487 18.0751 1 12 1C5.92487 1 1 5.92487 1 12C1 18.0751 5.92487 23 12 23Z"
          fill="url(#paint0_linear_5048_54630)"/>
    <path d="M7.46425 6.67023C7.1271 6.61967 6.83729 6.90948 6.88785 7.24663C6.99232 7.94328 6.93069 8.71833 6.85994 9.55216L6.85533 9.60645C6.788 10.399 6.7157 11.25 6.83155 12.0239C6.95339 12.8378 7.288 13.6043 8.06209 14.1708C8.81672 14.7231 9.93282 15.0431 11.5284 15.1108C11.781 15.1215 11.9945 14.9254 12.0053 14.6727C12.016 14.42 11.8198 14.2065 11.5672 14.1958C10.0552 14.1317 9.14861 13.8311 8.60293 13.4318C8.07669 13.0467 7.83336 12.5304 7.73723 11.8883C7.63777 11.2239 7.70142 10.4667 7.77244 9.62957L7.77282 9.62512C7.82728 8.98327 7.88567 8.29503 7.84634 7.62872C8.51264 7.66805 9.20087 7.60966 9.84271 7.5552L9.84719 7.55482C10.6844 7.4838 11.4415 7.42015 12.1059 7.51961C12.748 7.61573 13.2643 7.85907 13.6494 8.38531C14.0488 8.93099 14.3493 9.83761 14.4134 11.3496C14.4242 11.6022 14.6377 11.7984 14.8903 11.7876C15.143 11.7769 15.3391 11.5634 15.3284 11.3108C15.2607 9.7152 14.9407 8.5991 14.3884 7.84446C13.8219 7.07038 13.0554 6.73577 12.2415 6.61393C11.4676 6.49808 10.6166 6.57038 9.82409 6.63771L9.76978 6.64232C8.93595 6.71307 8.1609 6.7747 7.46425 6.67023Z"
          fill="url(#paint1_linear_5048_54630)"/>
    <path fill-rule="evenodd" clip-rule="evenodd"
          d="M9.88641 16.6555C9.40643 17.1355 9.40643 17.9137 9.88641 18.3937C10.3664 18.8736 11.1446 18.8736 11.6246 18.3937C11.7856 18.2326 11.8926 18.0377 11.9456 17.8321C13.5626 17.6413 14.8463 16.1425 14.5893 14.3717C16.3601 14.6287 17.859 13.3449 18.0497 11.7279C18.2554 11.675 18.4502 11.568 18.6113 11.4069C19.0913 10.9269 19.0913 10.1487 18.6113 9.66875C18.1313 9.18877 17.3531 9.18877 16.8731 9.66875C16.3932 10.1487 16.3932 10.9269 16.8731 11.4069C16.9928 11.5266 17.1313 11.6165 17.279 11.6765C17.0992 13.0043 15.7335 14.0204 14.2082 13.4867C13.8956 13.3773 13.5949 13.6779 13.7043 13.9905C14.2381 15.5158 13.2219 16.8816 11.8942 17.0613C11.8341 16.9136 11.7442 16.7751 11.6246 16.6555C11.1446 16.1755 10.3664 16.1755 9.88641 16.6555ZM10.4317 17.8484C10.2529 17.6695 10.2529 17.3796 10.4317 17.2008C10.6105 17.022 10.9005 17.022 11.0793 17.2008C11.1609 17.2824 11.205 17.3863 11.2123 17.4931C11.221 17.6214 11.1766 17.751 11.0793 17.8484C10.9005 18.0272 10.6105 18.0272 10.4317 17.8484ZM17.4185 10.8616C17.2396 10.6828 17.2396 10.3929 17.4185 10.2141C17.5973 10.0352 17.8872 10.0352 18.066 10.2141C18.2448 10.3929 18.2448 10.6828 18.066 10.8616C17.9687 10.9589 17.839 11.0034 17.7108 10.9947C17.604 10.9874 17.5001 10.9433 17.4185 10.8616Z"
          fill="url(#paint2_linear_5048_54630)"/>
    <path d="M11.334 12.0034C11.5769 12.2464 11.5769 12.6402 11.334 12.8832C11.091 13.1261 10.6972 13.1261 10.4542 12.8832C10.2113 12.6402 10.2113 12.2464 10.4542 12.0034C10.6972 11.7605 11.091 11.7605 11.334 12.0034Z"
          fill="url(#paint3_linear_5048_54630)"/>
    <path d="M13.1009 11.1163C13.3438 10.8733 13.3438 10.4795 13.1009 10.2366C12.8579 9.99362 12.4641 9.99362 12.2211 10.2366C11.9782 10.4795 11.9782 10.8733 12.2211 11.1163C12.4641 11.3592 12.8579 11.3592 13.1009 11.1163Z"
          fill="url(#paint4_linear_5048_54630)"/>
    <defs>
        <linearGradient id="paint0_linear_5048_54630" x1="20.4748" y1="4.61135" x2="3.96899" y2="20.001"
                        gradientUnits="userSpaceOnUse">
            <stop stop-color="#FCC812"/>
            <stop offset="0.484375" stop-color="#D32491"/>
            <stop offset="1" stop-color="#7C00DD"/>
        </linearGradient>
        <linearGradient id="paint1_linear_5048_54630" x1="11.2432" y1="5.99768" x2="11.2432" y2="19.6004"
                        gradientUnits="userSpaceOnUse">
            <stop stop-color="#FCC812"/>
            <stop offset="0.484375" stop-color="#D32491"/>
            <stop offset="1" stop-color="#7C00DD"/>
        </linearGradient>
        <linearGradient id="paint2_linear_5048_54630" x1="11.2432" y1="5.99768" x2="11.2432" y2="19.6004"
                        gradientUnits="userSpaceOnUse">
            <stop stop-color="#FCC812"/>
            <stop offset="0.484375" stop-color="#D32491"/>
            <stop offset="1" stop-color="#7C00DD"/>
        </linearGradient>
        <linearGradient id="paint3_linear_5048_54630" x1="11.2432" y1="5.99768" x2="11.2432" y2="19.6004"
                        gradientUnits="userSpaceOnUse">
            <stop stop-color="#FCC812"/>
            <stop offset="0.484375" stop-color="#D32491"/>
            <stop offset="1" stop-color="#7C00DD"/>
        </linearGradient>
        <linearGradient id="paint4_linear_5048_54630" x1="11.2432" y1="5.99768" x2="11.2432" y2="19.6004"
                        gradientUnits="userSpaceOnUse">
            <stop stop-color="#FCC812"/>
            <stop offset="0.484375" stop-color="#D32491"/>
            <stop offset="1" stop-color="#7C00DD"/>
        </linearGradient>
    </defs>
</svg>
