<svg width="24" height="24" viewBox="0 0 24 24" fill="none" xmlns="http://www.w3.org/2000/svg">
    <path d="M5.17323 7.0662L12.3029 2.79455C12.549 2.64693 12.8515 2.64693 13.0976 2.79455L17.5881 5.48454C18.0396 5.75401 18.1209 6.39605 17.7529 6.78033L16.2312 8.36902C15.9784 8.6338 15.5833 8.68769 15.2717 8.50024L13.1044 7.20211C12.8538 7.05214 12.5445 7.05214 12.2939 7.20211L4.77588 11.7526V7.78087C4.77588 7.48563 4.92714 7.21382 5.17323 7.0662Z"
          fill="#FA8C16"/>
    <path d="M17.6039 18.5037L13.0953 21.2054C12.8493 21.353 12.5467 21.353 12.3029 21.2054L5.17323 16.9338C4.92714 16.7861 4.77588 16.5143 4.77588 16.2191V12.6176L8.44909 10.408V14.0188C8.44909 14.3141 8.60035 14.5859 8.84643 14.7312L12.3029 16.8025C12.549 16.9502 12.8515 16.9502 13.0953 16.8025L15.283 15.4927C15.5946 15.3052 15.9874 15.3591 16.2403 15.6239L17.7664 17.2079C18.1367 17.5899 18.0554 18.2342 17.6039 18.5037Z"
          fill="#1F1F1F"/>
</svg>
