<svg width="24" height="24" viewBox="0 0 24 24" fill="none" xmlns="http://www.w3.org/2000/svg">
<path d="M21.1098 18.5738V16.1024L16.8755 11.8282H14.3254L21.1098 18.5738Z" fill="#1C1C26"/>
<path d="M2.89038 5.63379V8.10549L7.12468 12.3793H9.67479L2.89038 5.63379Z" fill="#1C1C26"/>
<path d="M5.11426 2.99426H7.58564L11.8598 7.22857L16.096 2.99426H18.6785L11.8598 9.77868L5.11426 2.99426Z" fill="#1C1C26"/>
<path d="M5.53027 21.0057H8.00165L12.2755 16.7714L16.5111 21.0057H19.0936L12.2755 14.2213L5.53027 21.0057Z" fill="#1C1C26"/>
<path d="M12.021 13.164C12.6472 13.164 13.1548 12.6564 13.1548 12.0302C13.1548 11.404 12.6472 10.8964 12.021 10.8964C11.3948 10.8964 10.8872 11.404 10.8872 12.0302C10.8872 12.6564 11.3948 13.164 12.021 13.164Z" fill="#E6007A"/>
</svg>
