<svg width="24" height="24" viewBox="0 0 24 24" fill="none" xmlns="http://www.w3.org/2000/svg">
    <path fill-rule="evenodd" clip-rule="evenodd"
          d="M8.62552 2.04049C7.07304 2.57673 5.71803 3.4218 4.57334 4.56767C3.74259 5.39928 3.08781 6.31274 2.57182 7.35993C1.98833 8.54408 1.64273 9.79508 1.5273 11.1409C1.50119 11.4452 1.49104 12.2415 1.50918 12.561C1.65811 15.1835 2.73665 17.5944 4.58586 19.4384C6.24736 21.0952 8.40438 22.1461 10.724 22.4288C11.1258 22.4777 11.3542 22.4918 11.854 22.4983C12.4729 22.5064 12.8368 22.4869 13.3771 22.4168C17.1535 21.9273 20.3909 19.3932 21.7893 15.8324C21.8663 15.6362 22 15.2634 22 15.2447C22 15.2409 21.9303 15.3432 21.8451 15.4718C20.5217 17.4699 18.5021 18.906 16.1931 19.4907C14.6707 19.8762 13.0461 19.881 11.5199 19.5045C9.47387 18.9999 7.65034 17.832 6.32296 16.1761C4.68749 14.1359 3.96054 11.5326 4.29724 8.92175C4.50846 7.284 5.14306 5.73069 6.14449 4.4003C6.4353 4.01393 6.64288 3.77465 7.00175 3.41209C7.48535 2.9235 7.95662 2.53493 8.52161 2.15889C8.65367 2.07099 8.75684 1.9995 8.7509 2C8.74495 2.00051 8.68853 2.01872 8.62552 2.04049ZM13.3771 2.22347C13.3473 2.22595 13.2523 2.2336 13.1661 2.24045C12.332 2.30673 11.4448 2.52912 10.6588 2.86899C9.53692 3.35407 8.51573 4.11943 7.71607 5.07449C6.17747 6.91207 5.55273 9.36498 6.02204 11.7258C6.04182 11.8253 6.08757 12.0228 6.12371 12.1648C6.15984 12.3068 6.18941 12.4248 6.18941 12.4271C6.18941 12.4294 6.19409 12.4313 6.19981 12.4313C6.20552 12.4313 6.21392 12.395 6.21846 12.3506C6.25697 11.9748 6.44391 11.2927 6.62937 10.8514C7.23854 9.40193 8.34727 8.1958 9.73884 7.4688C10.8238 6.90198 12.1214 6.64276 13.1795 6.78146C14.3825 6.93917 15.3342 7.61791 15.8051 8.65402C15.9397 8.95017 16.0404 9.31575 16.0617 9.58507C16.0699 9.68876 16.0817 9.72979 16.1034 9.72979C16.1231 9.72979 16.635 9.98166 16.8867 10.1151C17.5225 10.4524 18.2321 10.8783 18.3163 10.9732L18.3398 10.9997L18.2554 10.9918C17.7374 10.9434 17.2092 10.9578 16.7422 11.033C15.46 11.2394 14.5501 11.8505 14.0763 12.8233C13.8985 13.1883 13.7873 13.5595 13.7327 13.9704C13.7103 14.1394 13.707 14.5101 13.7266 14.6685C13.8297 15.5042 14.2572 16.2024 14.9496 16.6664C15.2763 16.8854 15.6468 17.0317 16.0665 17.1077C16.2262 17.1366 16.2697 17.1394 16.567 17.14C16.9153 17.1406 17.0076 17.1314 17.2966 17.0671C17.4726 17.0279 17.779 16.9269 17.9659 16.8463C18.5364 16.6005 19.1063 16.1809 19.6255 15.6246C20.8705 14.2902 21.5873 12.686 21.761 10.8454C21.786 10.5804 21.7822 9.69484 21.755 9.43432C21.6465 8.39643 21.3842 7.48385 20.9389 6.59437C20.1785 5.07573 18.9118 3.81226 17.3871 3.05146C16.5105 2.61407 15.5915 2.35104 14.5711 2.24549C14.3954 2.22732 13.5237 2.21123 13.3771 2.22347ZM13.8173 8.19021C13.7377 8.21651 13.6895 8.24615 13.6207 8.31119C13.502 8.42343 13.4433 8.59345 13.4713 8.74398C13.4924 8.85738 13.5471 8.95727 13.6302 9.0342C13.7313 9.12776 13.8072 9.15571 13.962 9.15634C14.1181 9.15699 14.192 9.12924 14.2978 9.03028C14.3769 8.95631 14.4184 8.88746 14.4457 8.78503C14.5045 8.56405 14.3903 8.32533 14.1752 8.21939C14.1058 8.18524 14.0831 8.18035 13.9811 8.1775C13.9092 8.1755 13.8473 8.1803 13.8173 8.19021Z"
          fill="url(#paint0_linear_5860_39131)"/>
    <defs>
        <linearGradient id="paint0_linear_5860_39131" x1="1.5" y1="2" x2="22.0268" y2="22.526"
                        gradientUnits="userSpaceOnUse">
            <stop stop-color="#00D2D3"/>
            <stop offset="1" stop-color="#C70CBA"/>
        </linearGradient>
    </defs>
</svg>
