<svg width="231" height="64" viewBox="0 0 231 64" fill="none" xmlns="http://www.w3.org/2000/svg">
    <path d="M11.2442 23.022L6.17039 27.4915C5.64503 27.9541 4.96141 28.2115 4.25165 28.214L2.73936 28.2175L2.7342 23.0225H0V37.869H1.49115C2.32518 37.869 3.10299 37.4405 3.51098 36.7365C3.51459 36.7315 3.51614 36.7265 3.51923 36.7235C3.79002 36.252 3.92567 35.3205 3.89937 34.6845C3.84057 33.2305 3.59918 32.8525 3.59918 32.8525C3.54863 33.849 2.47476 33.903 2.47476 33.903C3.23864 33.196 2.8224 32.661 2.8224 32.661C1.47 33.5945 1.13216 32.598 1.10637 32.5075C1.14866 32.5425 1.53344 32.854 2.26483 31.8825C3.038 30.856 4.06906 29.1445 4.72515 28.7045C5.38226 28.263 6.00585 28.2995 6.00585 28.2995C6.00585 28.2995 6.36484 27.828 7.31441 27.436C8.26346 27.0465 8.8721 27.618 8.8721 27.618C7.90138 28.377 6.58354 29.6235 6.50978 31.41C6.45098 32.8555 9.66538 35.336 9.10059 39C9.43843 38.168 9.57408 37.3345 9.45803 36.303C9.36519 35.4705 8.81175 33.732 8.81175 33.732L11.8987 37.867H15.3122L8.64051 28.982L15.3122 23.022H11.2442Z"
          fill="white"/>
    <path d="M11.2442 23.022L6.17039 27.4915C5.64503 27.9541 4.96141 28.2115 4.25165 28.214L2.73936 28.2175L2.7342 23.0225H0V37.869H1.49115C2.32518 37.869 3.10299 37.4405 3.51098 36.7365C3.51459 36.7315 3.51614 36.7265 3.51923 36.7235C3.79002 36.252 3.92567 35.3205 3.89937 34.6845C3.84057 33.2305 3.59918 32.8525 3.59918 32.8525C3.54863 33.849 2.47476 33.903 2.47476 33.903C3.23864 33.196 2.8224 32.661 2.8224 32.661C1.47 33.5945 1.13216 32.598 1.10637 32.5075C1.14866 32.5425 1.53344 32.854 2.26483 31.8825C3.038 30.856 4.06906 29.1445 4.72515 28.7045C5.38226 28.263 6.00585 28.2995 6.00585 28.2995C6.00585 28.2995 6.36484 27.828 7.31441 27.436C8.26346 27.0465 8.8721 27.618 8.8721 27.618C7.90138 28.377 6.58354 29.6235 6.50978 31.41C6.45098 32.8555 9.66538 35.336 9.10059 39C9.43843 38.168 9.57408 37.3345 9.45803 36.303C9.36519 35.4705 8.81175 33.732 8.81175 33.732L11.8987 37.867H15.3122L8.64051 28.982L15.3122 23.022H11.2442Z"
          fill="url(#paint0_linear_4999_35572)"/>
    <path d="M5.02793 29.415C4.81233 29.7615 4.81233 29.8675 4.81233 29.8675C4.81233 29.8675 5.5659 29.744 5.77015 28.8755C5.7717 28.8755 5.28944 28.9955 5.02793 29.415Z"
          fill="white"/>
    <path d="M5.02793 29.415C4.81233 29.7615 4.81233 29.8675 4.81233 29.8675C4.81233 29.8675 5.5659 29.744 5.77015 28.8755C5.7717 28.8755 5.28944 28.9955 5.02793 29.415Z"
          fill="url(#paint1_linear_4999_35572)"/>
    <path d="M24.4624 23L18.0439 35.2145L16.6425 37.869H19.7099L21.1113 35.214L24.4624 28.8405L27.815 35.2145L29.2169 37.869H32.2838L30.8808 35.214L24.4624 23Z"
          fill="white"/>
    <path d="M24.4624 23L18.0439 35.2145L16.6425 37.869H19.7099L21.1113 35.214L24.4624 28.8405L27.815 35.2145L29.2169 37.869H32.2838L30.8808 35.214L24.4624 23Z"
          fill="url(#paint2_linear_4999_35572)"/>
    <path d="M47.3768 27.0355C47.3768 25.9315 46.9167 24.933 46.1709 24.1895C45.7883 23.8185 45.3339 23.5244 44.8339 23.3241C44.3338 23.1237 43.7978 23.0211 43.2567 23.022H33.5743V37.891H36.3116V31.051H39.0494C40.0346 31.051 40.8897 31.56 41.3704 32.326L41.4359 32.454L44.3058 37.8915H47.3732L45.9718 35.2365L43.7807 31.0095C44.1906 30.9685 44.5904 30.861 44.9634 30.6915C45.6836 30.3687 46.2934 29.853 46.7211 29.2052C47.1487 28.5574 47.3762 27.8046 47.3768 27.0355ZM43.8266 28.268C43.6495 28.3531 43.4544 28.3969 43.2567 28.396L36.3131 28.4165V25.6765H43.2567C43.7384 25.6765 44.068 25.8885 44.2424 26.0595C44.3955 26.2085 44.6586 26.5485 44.6586 27.037C44.6583 27.2984 44.5793 27.554 44.4315 27.7727C44.2836 27.9913 44.0738 28.1634 43.8266 28.268Z"
          fill="white"/>
    <path d="M47.3768 27.0355C47.3768 25.9315 46.9167 24.933 46.1709 24.1895C45.7883 23.8185 45.3339 23.5244 44.8339 23.3241C44.3338 23.1237 43.7978 23.0211 43.2567 23.022H33.5743V37.891H36.3116V31.051H39.0494C40.0346 31.051 40.8897 31.56 41.3704 32.326L41.4359 32.454L44.3058 37.8915H47.3732L45.9718 35.2365L43.7807 31.0095C44.1906 30.9685 44.5904 30.861 44.9634 30.6915C45.6836 30.3687 46.2934 29.853 46.7211 29.2052C47.1487 28.5574 47.3762 27.8046 47.3768 27.0355ZM43.8266 28.268C43.6495 28.3531 43.4544 28.3969 43.2567 28.396L36.3131 28.4165V25.6765H43.2567C43.7384 25.6765 44.068 25.8885 44.2424 26.0595C44.3955 26.2085 44.6586 26.5485 44.6586 27.037C44.6583 27.2984 44.5793 27.554 44.4315 27.7727C44.2836 27.9913 44.0738 28.1634 43.8266 28.268Z"
          fill="url(#paint3_linear_4999_35572)"/>
    <path d="M62.1851 30.4335C62.1851 33.0675 59.9724 35.213 57.2563 35.213C54.5396 35.213 52.3269 33.068 52.3269 30.4335V23H49.5896V30.4335C49.5896 34.5325 53.0288 37.8675 57.2563 37.8675C61.4831 37.8675 64.9229 34.5325 64.9229 30.4335V23H62.1851V30.4335Z"
          fill="white"/>
    <path d="M62.1851 30.4335C62.1851 33.0675 59.9724 35.213 57.2563 35.213C54.5396 35.213 52.3269 33.068 52.3269 30.4335V23H49.5896V30.4335C49.5896 34.5325 53.0288 37.8675 57.2563 37.8675C61.4831 37.8675 64.9229 34.5325 64.9229 30.4335V23H62.1851V30.4335Z"
          fill="url(#paint4_linear_4999_35572)"/>
    <path d="M80.8938 27.0355C80.8938 25.9315 80.4337 24.933 79.6879 24.1895C79.3055 23.8184 78.8513 23.5242 78.3512 23.3239C77.8512 23.1235 77.3153 23.0209 76.7742 23.022H67.0908V37.891H69.8301V31.051H72.568C73.5536 31.051 74.4083 31.56 74.8895 32.326L74.955 32.454L77.8249 37.8915H80.8923L79.4909 35.2365L77.2993 31.0095C77.7093 30.9685 78.1093 30.861 78.4825 30.6915C79.2024 30.3686 79.8119 29.8528 80.2391 29.2049C80.6664 28.5571 80.8936 27.8044 80.8938 27.0355ZM77.3452 28.268C77.1709 28.353 76.9733 28.396 76.7758 28.396L69.8301 28.4165V25.6765H76.7742C77.2555 25.6765 77.585 25.8885 77.7594 26.0595C77.9131 26.2085 78.1756 26.5485 78.1756 27.037C78.1753 27.2981 78.0966 27.5536 77.9492 27.7722C77.8017 27.9907 77.5919 28.163 77.3452 28.268Z"
          fill="white"/>
    <path d="M80.8938 27.0355C80.8938 25.9315 80.4337 24.933 79.6879 24.1895C79.3055 23.8184 78.8513 23.5242 78.3512 23.3239C77.8512 23.1235 77.3153 23.0209 76.7742 23.022H67.0908V37.891H69.8301V31.051H72.568C73.5536 31.051 74.4083 31.56 74.8895 32.326L74.955 32.454L77.8249 37.8915H80.8923L79.4909 35.2365L77.2993 31.0095C77.7093 30.9685 78.1093 30.861 78.4825 30.6915C79.2024 30.3686 79.8119 29.8528 80.2391 29.2049C80.6664 28.5571 80.8936 27.8044 80.8938 27.0355ZM77.3452 28.268C77.1709 28.353 76.9733 28.396 76.7758 28.396L69.8301 28.4165V25.6765H76.7742C77.2555 25.6765 77.585 25.8885 77.7594 26.0595C77.9131 26.2085 78.1756 26.5485 78.1756 27.037C78.1753 27.2981 78.0966 27.5536 77.9492 27.7722C77.8017 27.9907 77.5919 28.163 77.3452 28.268Z"
          fill="url(#paint5_linear_4999_35572)"/>
    <path d="M96.4923 35.2145L90.0739 23L83.6538 35.2145L82.2524 37.869H85.3198L86.7212 35.214L90.0739 28.8405L93.425 35.2145L94.8269 37.869H97.8943L96.4923 35.2145Z"
          fill="white"/>
    <path d="M96.4923 35.2145L90.0739 23L83.6538 35.2145L82.2524 37.869H85.3198L86.7212 35.214L90.0739 28.8405L93.425 35.2145L94.8269 37.869H97.8943L96.4923 35.2145Z"
          fill="url(#paint6_linear_4999_35572)"/>
    <path d="M114 25V37" stroke="#E0E4EB"/>
    <path d="M138.896 24.224H141.264V28.768C140.656 29.2267 139.952 29.5787 139.152 29.824C138.352 30.0693 137.547 30.192 136.736 30.192C135.573 30.192 134.528 29.9467 133.6 29.456C132.672 28.9547 131.941 28.2667 131.408 27.392C130.885 26.5067 130.624 25.5093 130.624 24.4C130.624 23.2907 130.885 22.2987 131.408 21.424C131.941 20.5387 132.677 19.8507 133.616 19.36C134.555 18.8587 135.611 18.608 136.784 18.608C137.765 18.608 138.656 18.7733 139.456 19.104C140.256 19.4347 140.928 19.9147 141.472 20.544L139.808 22.08C139.008 21.2373 138.043 20.816 136.912 20.816C136.197 20.816 135.563 20.9653 135.008 21.264C134.453 21.5627 134.021 21.984 133.712 22.528C133.403 23.072 133.248 23.696 133.248 24.4C133.248 25.0933 133.403 25.712 133.712 26.256C134.021 26.8 134.448 27.2267 134.992 27.536C135.547 27.8347 136.176 27.984 136.88 27.984C137.627 27.984 138.299 27.824 138.896 27.504V24.224ZM147.592 30.128C146.685 30.128 145.869 29.9413 145.144 29.568C144.429 29.184 143.869 28.656 143.464 27.984C143.058 27.312 142.856 26.5493 142.856 25.696C142.856 24.8427 143.058 24.08 143.464 23.408C143.869 22.736 144.429 22.2133 145.144 21.84C145.869 21.456 146.685 21.264 147.592 21.264C148.498 21.264 149.309 21.456 150.024 21.84C150.738 22.2133 151.298 22.736 151.704 23.408C152.109 24.08 152.312 24.8427 152.312 25.696C152.312 26.5493 152.109 27.312 151.704 27.984C151.298 28.656 150.738 29.184 150.024 29.568C149.309 29.9413 148.498 30.128 147.592 30.128ZM147.592 28.08C148.232 28.08 148.754 27.8667 149.16 27.44C149.576 27.0027 149.784 26.4213 149.784 25.696C149.784 24.9707 149.576 24.3947 149.16 23.968C148.754 23.5307 148.232 23.312 147.592 23.312C146.952 23.312 146.424 23.5307 146.008 23.968C145.592 24.3947 145.384 24.9707 145.384 25.696C145.384 26.4213 145.592 27.0027 146.008 27.44C146.424 27.8667 146.952 28.08 147.592 28.08ZM162.29 21.392L158.658 30H156.082L152.466 21.392H155.042L157.426 27.248L159.89 21.392H162.29ZM171.506 25.728C171.506 25.76 171.49 25.984 171.458 26.4H164.946C165.063 26.9333 165.341 27.3547 165.778 27.664C166.215 27.9733 166.759 28.128 167.41 28.128C167.858 28.128 168.253 28.064 168.594 27.936C168.946 27.7973 169.271 27.584 169.57 27.296L170.898 28.736C170.087 29.664 168.903 30.128 167.346 30.128C166.375 30.128 165.517 29.9413 164.77 29.568C164.023 29.184 163.447 28.656 163.042 27.984C162.637 27.312 162.434 26.5493 162.434 25.696C162.434 24.8533 162.631 24.096 163.026 23.424C163.431 22.7413 163.981 22.2133 164.674 21.84C165.378 21.456 166.162 21.264 167.026 21.264C167.869 21.264 168.631 21.4453 169.314 21.808C169.997 22.1707 170.53 22.6933 170.914 23.376C171.309 24.048 171.506 24.832 171.506 25.728ZM167.042 23.152C166.477 23.152 166.002 23.312 165.618 23.632C165.234 23.952 164.999 24.3893 164.914 24.944H169.154C169.069 24.4 168.834 23.968 168.45 23.648C168.066 23.3173 167.597 23.152 167.042 23.152ZM175.552 22.528C175.85 22.112 176.25 21.7973 176.752 21.584C177.264 21.3707 177.85 21.264 178.512 21.264V23.568C178.234 23.5467 178.048 23.536 177.952 23.536C177.237 23.536 176.677 23.7387 176.272 24.144C175.866 24.5387 175.664 25.136 175.664 25.936V30H173.168V21.392H175.552V22.528ZM185.228 21.264C186.294 21.264 187.153 21.584 187.804 22.224C188.465 22.864 188.796 23.8133 188.796 25.072V30H186.3V25.456C186.3 24.7733 186.15 24.2667 185.852 23.936C185.553 23.5947 185.121 23.424 184.556 23.424C183.926 23.424 183.425 23.6213 183.052 24.016C182.678 24.4 182.492 24.976 182.492 25.744V30H179.996V21.392H182.38V22.4C182.71 22.0373 183.121 21.76 183.612 21.568C184.102 21.3653 184.641 21.264 185.228 21.264ZM194.53 21.264C195.864 21.264 196.888 21.584 197.602 22.224C198.317 22.8533 198.674 23.808 198.674 25.088V30H196.338V28.928C195.869 29.728 194.994 30.128 193.714 30.128C193.053 30.128 192.477 30.016 191.986 29.792C191.506 29.568 191.138 29.2587 190.882 28.864C190.626 28.4693 190.498 28.0213 190.498 27.52C190.498 26.72 190.797 26.0907 191.394 25.632C192.002 25.1733 192.936 24.944 194.194 24.944H196.178C196.178 24.4 196.013 23.984 195.682 23.696C195.352 23.3973 194.856 23.248 194.194 23.248C193.736 23.248 193.282 23.3227 192.834 23.472C192.397 23.6107 192.024 23.8027 191.714 24.048L190.818 22.304C191.288 21.9733 191.848 21.7173 192.498 21.536C193.16 21.3547 193.837 21.264 194.53 21.264ZM194.338 28.448C194.765 28.448 195.144 28.352 195.474 28.16C195.805 27.9573 196.04 27.664 196.178 27.28V26.4H194.466C193.442 26.4 192.93 26.736 192.93 27.408C192.93 27.728 193.053 27.984 193.298 28.176C193.554 28.3573 193.901 28.448 194.338 28.448ZM206.165 21.264C207.232 21.264 208.091 21.584 208.741 22.224C209.403 22.864 209.733 23.8133 209.733 25.072V30H207.237V25.456C207.237 24.7733 207.088 24.2667 206.789 23.936C206.491 23.5947 206.059 23.424 205.493 23.424C204.864 23.424 204.363 23.6213 203.989 24.016C203.616 24.4 203.429 24.976 203.429 25.744V30H200.933V21.392H203.317V22.4C203.648 22.0373 204.059 21.76 204.549 21.568C205.04 21.3653 205.579 21.264 206.165 21.264ZM216.25 30.128C215.332 30.128 214.506 29.9413 213.77 29.568C213.044 29.184 212.474 28.656 212.058 27.984C211.652 27.312 211.45 26.5493 211.45 25.696C211.45 24.8427 211.652 24.08 212.058 23.408C212.474 22.736 213.044 22.2133 213.77 21.84C214.506 21.456 215.332 21.264 216.25 21.264C217.156 21.264 217.946 21.456 218.618 21.84C219.3 22.2133 219.796 22.752 220.106 23.456L218.17 24.496C217.722 23.7067 217.076 23.312 216.234 23.312C215.583 23.312 215.044 23.5253 214.618 23.952C214.191 24.3787 213.978 24.96 213.978 25.696C213.978 26.432 214.191 27.0133 214.618 27.44C215.044 27.8667 215.583 28.08 216.234 28.08C217.087 28.08 217.732 27.6853 218.17 26.896L220.106 27.952C219.796 28.6347 219.3 29.168 218.618 29.552C217.946 29.936 217.156 30.128 216.25 30.128ZM229.865 25.728C229.865 25.76 229.849 25.984 229.817 26.4H223.305C223.423 26.9333 223.7 27.3547 224.137 27.664C224.575 27.9733 225.119 28.128 225.769 28.128C226.217 28.128 226.612 28.064 226.953 27.936C227.305 27.7973 227.631 27.584 227.929 27.296L229.257 28.736C228.447 29.664 227.263 30.128 225.705 30.128C224.735 30.128 223.876 29.9413 223.129 29.568C222.383 29.184 221.807 28.656 221.401 27.984C220.996 27.312 220.793 26.5493 220.793 25.696C220.793 24.8533 220.991 24.096 221.385 23.424C221.791 22.7413 222.34 22.2133 223.033 21.84C223.737 21.456 224.521 21.264 225.385 21.264C226.228 21.264 226.991 21.4453 227.673 21.808C228.356 22.1707 228.889 22.6933 229.273 23.376C229.668 24.048 229.865 24.832 229.865 25.728ZM225.401 23.152C224.836 23.152 224.361 23.312 223.977 23.632C223.593 23.952 223.359 24.3893 223.273 24.944H227.513C227.428 24.4 227.193 23.968 226.809 23.648C226.425 23.3173 225.956 23.152 225.401 23.152Z"
          fill="#1E2134"/>
    <path d="M134.858 39.5455C134.815 39.1856 134.643 38.9062 134.339 38.7074C134.036 38.5085 133.665 38.4091 133.224 38.4091C132.902 38.4091 132.621 38.4612 132.379 38.5653C132.14 38.6695 131.953 38.8127 131.818 38.995C131.686 39.1773 131.619 39.3845 131.619 39.6165C131.619 39.8106 131.665 39.9775 131.758 40.1172C131.853 40.2545 131.973 40.3693 132.12 40.4616C132.267 40.5516 132.421 40.6262 132.582 40.6854C132.743 40.7422 132.891 40.7884 133.026 40.8239L133.764 41.0227C133.954 41.0724 134.164 41.1411 134.396 41.2287C134.631 41.3163 134.854 41.4358 135.067 41.5874C135.283 41.7365 135.46 41.9283 135.6 42.1626C135.74 42.397 135.81 42.6847 135.81 43.0256C135.81 43.4186 135.707 43.7737 135.501 44.0909C135.297 44.4081 134.999 44.6603 134.606 44.8473C134.215 45.0343 133.741 45.1278 133.182 45.1278C132.661 45.1278 132.21 45.0438 131.829 44.8757C131.45 44.7076 131.152 44.4732 130.934 44.1726C130.719 43.8719 130.597 43.5227 130.568 43.125H131.477C131.501 43.3996 131.593 43.6269 131.754 43.8068C131.918 43.9844 132.124 44.117 132.372 44.2045C132.623 44.2898 132.893 44.3324 133.182 44.3324C133.518 44.3324 133.82 44.2779 134.087 44.169C134.355 44.0578 134.567 43.9039 134.723 43.7074C134.879 43.5085 134.957 43.2765 134.957 43.0114C134.957 42.7699 134.89 42.5734 134.755 42.4219C134.62 42.2704 134.442 42.1473 134.222 42.0526C134.002 41.9579 133.764 41.875 133.509 41.804L132.614 41.5483C132.045 41.3849 131.596 41.1518 131.264 40.8487C130.933 40.5457 130.767 40.1491 130.767 39.6591C130.767 39.2519 130.877 38.8968 131.097 38.5938C131.32 38.2884 131.618 38.0516 131.992 37.8835C132.369 37.7131 132.789 37.6278 133.253 37.6278C133.722 37.6278 134.138 37.7119 134.503 37.88C134.867 38.0457 135.156 38.273 135.369 38.5618C135.585 38.8506 135.698 39.1785 135.71 39.5455H134.858ZM140.581 42.7699V39.5455H141.42V45H140.581V44.0767H140.525C140.397 44.3537 140.198 44.5893 139.928 44.7834C139.658 44.9751 139.317 45.071 138.905 45.071C138.564 45.071 138.261 44.9964 137.996 44.8473C137.731 44.6958 137.523 44.4685 137.371 44.1655C137.22 43.8601 137.144 43.4754 137.144 43.0114V39.5455H137.982V42.9545C137.982 43.3523 138.093 43.6695 138.316 43.9062C138.541 44.143 138.827 44.2614 139.175 44.2614C139.384 44.2614 139.595 44.2081 139.811 44.1016C140.029 43.995 140.211 43.8317 140.358 43.6115C140.507 43.3913 140.581 43.1108 140.581 42.7699ZM143.068 45V37.7273H143.906V40.4119H143.977C144.039 40.3172 144.124 40.1965 144.233 40.0497C144.344 39.9006 144.503 39.768 144.709 39.652C144.917 39.5336 145.199 39.4744 145.554 39.4744C146.013 39.4744 146.418 39.5893 146.768 39.8189C147.119 40.0485 147.392 40.3741 147.589 40.7955C147.785 41.2169 147.884 41.714 147.884 42.2869C147.884 42.8646 147.785 43.3653 147.589 43.7891C147.392 44.2105 147.12 44.5372 146.772 44.7692C146.424 44.9988 146.023 45.1136 145.568 45.1136C145.218 45.1136 144.937 45.0556 144.727 44.9396C144.516 44.8213 144.354 44.6875 144.24 44.5384C144.126 44.3868 144.039 44.2614 143.977 44.1619H143.878V45H143.068ZM143.892 42.2727C143.892 42.6847 143.952 43.0481 144.073 43.3629C144.194 43.6754 144.37 43.9205 144.602 44.098C144.834 44.2732 145.118 44.3608 145.455 44.3608C145.805 44.3608 146.097 44.2685 146.332 44.0838C146.568 43.8968 146.746 43.6458 146.864 43.331C146.985 43.0137 147.045 42.661 147.045 42.2727C147.045 41.8892 146.986 41.5436 146.868 41.2358C146.752 40.9257 146.576 40.6806 146.339 40.5007C146.104 40.3184 145.81 40.2273 145.455 40.2273C145.114 40.2273 144.827 40.3137 144.595 40.4865C144.363 40.657 144.188 40.8961 144.07 41.2038C143.951 41.5092 143.892 41.8655 143.892 42.2727ZM153.256 39.5455C153.214 39.1856 153.041 38.9062 152.738 38.7074C152.435 38.5085 152.063 38.4091 151.623 38.4091C151.301 38.4091 151.019 38.4612 150.778 38.5653C150.539 38.6695 150.352 38.8127 150.217 38.995C150.084 39.1773 150.018 39.3845 150.018 39.6165C150.018 39.8106 150.064 39.9775 150.156 40.1172C150.251 40.2545 150.372 40.3693 150.518 40.4616C150.665 40.5516 150.819 40.6262 150.98 40.6854C151.141 40.7422 151.289 40.7884 151.424 40.8239L152.163 41.0227C152.352 41.0724 152.563 41.1411 152.795 41.2287C153.029 41.3163 153.253 41.4358 153.466 41.5874C153.681 41.7365 153.859 41.9283 153.999 42.1626C154.138 42.397 154.208 42.6847 154.208 43.0256C154.208 43.4186 154.105 43.7737 153.899 44.0909C153.696 44.4081 153.397 44.6603 153.004 44.8473C152.614 45.0343 152.139 45.1278 151.58 45.1278C151.059 45.1278 150.608 45.0438 150.227 44.8757C149.848 44.7076 149.55 44.4732 149.332 44.1726C149.117 43.8719 148.995 43.5227 148.967 43.125H149.876C149.899 43.3996 149.992 43.6269 150.153 43.8068C150.316 43.9844 150.522 44.117 150.771 44.2045C151.022 44.2898 151.291 44.3324 151.58 44.3324C151.916 44.3324 152.218 44.2779 152.486 44.169C152.753 44.0578 152.965 43.9039 153.121 43.7074C153.278 43.5085 153.356 43.2765 153.356 43.0114C153.356 42.7699 153.288 42.5734 153.153 42.4219C153.018 42.2704 152.841 42.1473 152.621 42.0526C152.401 41.9579 152.163 41.875 151.907 41.804L151.012 41.5483C150.444 41.3849 149.994 41.1518 149.663 40.8487C149.331 40.5457 149.165 40.1491 149.165 39.6591C149.165 39.2519 149.276 38.8968 149.496 38.5938C149.718 38.2884 150.017 38.0516 150.391 37.8835C150.767 37.7131 151.187 37.6278 151.651 37.6278C152.12 37.6278 152.537 37.7119 152.901 37.88C153.266 38.0457 153.555 38.273 153.768 38.5618C153.983 38.8506 154.097 39.1785 154.109 39.5455H153.256ZM159.264 47.0455V44.1619H159.193C159.131 44.2614 159.044 44.3868 158.93 44.5384C158.817 44.6875 158.654 44.8213 158.444 44.9396C158.233 45.0556 157.952 45.1136 157.602 45.1136C157.148 45.1136 156.746 44.9988 156.398 44.7692C156.05 44.5372 155.778 44.2105 155.581 43.7891C155.385 43.3653 155.287 42.8646 155.287 42.2869C155.287 41.714 155.385 41.2169 155.581 40.7955C155.778 40.3741 156.051 40.0485 156.402 39.8189C156.752 39.5893 157.157 39.4744 157.616 39.4744C157.971 39.4744 158.252 39.5336 158.458 39.652C158.666 39.768 158.825 39.9006 158.934 40.0497C159.045 40.1965 159.131 40.3172 159.193 40.4119H159.292V39.5455H160.102V47.0455H159.264ZM157.716 44.3608C158.052 44.3608 158.336 44.2732 158.568 44.098C158.8 43.9205 158.976 43.6754 159.097 43.3629C159.218 43.0481 159.278 42.6847 159.278 42.2727C159.278 41.8655 159.219 41.5092 159.101 41.2038C158.982 40.8961 158.807 40.657 158.575 40.4865C158.343 40.3137 158.057 40.2273 157.716 40.2273C157.361 40.2273 157.065 40.3184 156.828 40.5007C156.594 40.6806 156.417 40.9257 156.299 41.2358C156.183 41.5436 156.125 41.8892 156.125 42.2727C156.125 42.661 156.184 43.0137 156.302 43.331C156.423 43.6458 156.601 43.8968 156.835 44.0838C157.072 44.2685 157.365 44.3608 157.716 44.3608ZM165.074 42.7699V39.5455H165.912V45H165.074V44.0767H165.017C164.889 44.3537 164.69 44.5893 164.42 44.7834C164.15 44.9751 163.809 45.071 163.398 45.071C163.057 45.071 162.754 44.9964 162.488 44.8473C162.223 44.6958 162.015 44.4685 161.863 44.1655C161.712 43.8601 161.636 43.4754 161.636 43.0114V39.5455H162.474V42.9545C162.474 43.3523 162.586 43.6695 162.808 43.9062C163.033 44.143 163.319 44.2614 163.667 44.2614C163.876 44.2614 164.088 44.2081 164.303 44.1016C164.521 43.995 164.703 43.8317 164.85 43.6115C164.999 43.3913 165.074 43.1108 165.074 42.7699ZM169.052 45.1278C168.706 45.1278 168.393 45.0627 168.111 44.9325C167.829 44.8 167.605 44.6094 167.44 44.3608C167.274 44.1098 167.191 43.8068 167.191 43.4517C167.191 43.1392 167.253 42.8859 167.376 42.6918C167.499 42.4953 167.663 42.3414 167.869 42.2301C168.075 42.1188 168.303 42.036 168.551 41.9815C168.802 41.9247 169.054 41.8797 169.308 41.8466C169.639 41.804 169.908 41.772 170.114 41.7507C170.322 41.727 170.473 41.688 170.568 41.6335C170.665 41.5791 170.714 41.4844 170.714 41.3494V41.321C170.714 40.9706 170.618 40.6984 170.426 40.5043C170.237 40.3101 169.949 40.2131 169.563 40.2131C169.163 40.2131 168.849 40.3007 168.622 40.4759C168.395 40.651 168.235 40.8381 168.143 41.0369L167.347 40.7528C167.489 40.4214 167.679 40.1634 167.915 39.9787C168.155 39.7917 168.415 39.6615 168.697 39.5881C168.981 39.5123 169.26 39.4744 169.535 39.4744C169.71 39.4744 169.911 39.4957 170.138 39.5384C170.368 39.5786 170.589 39.6626 170.803 39.7905C171.018 39.9183 171.197 40.1113 171.339 40.3693C171.481 40.6274 171.552 40.973 171.552 41.4062V45H170.714V44.2614H170.671C170.614 44.3797 170.52 44.5064 170.387 44.6413C170.254 44.7763 170.078 44.8911 169.858 44.9858C169.638 45.0805 169.369 45.1278 169.052 45.1278ZM169.18 44.375C169.511 44.375 169.79 44.3099 170.018 44.1797C170.247 44.0495 170.42 43.8814 170.536 43.6754C170.655 43.4695 170.714 43.2528 170.714 43.0256V42.2585C170.678 42.3011 170.6 42.3402 170.479 42.3757C170.361 42.4089 170.224 42.4384 170.067 42.4645C169.914 42.4882 169.763 42.5095 169.616 42.5284C169.472 42.545 169.355 42.5592 169.265 42.571C169.047 42.5994 168.844 42.6456 168.654 42.7095C168.467 42.7711 168.316 42.8646 168.2 42.9901C168.086 43.1132 168.029 43.2812 168.029 43.4943C168.029 43.7855 168.137 44.0057 168.352 44.1548C168.57 44.3016 168.846 44.375 169.18 44.375ZM173.081 45V39.5455H173.891V40.3693H173.948C174.047 40.0994 174.227 39.8804 174.488 39.7124C174.748 39.5443 175.042 39.4602 175.368 39.4602C175.43 39.4602 175.507 39.4614 175.599 39.4638C175.692 39.4661 175.761 39.4697 175.809 39.4744V40.3267C175.78 40.3196 175.715 40.3089 175.613 40.2947C175.514 40.2782 175.409 40.2699 175.297 40.2699C175.032 40.2699 174.796 40.3255 174.587 40.4368C174.381 40.5457 174.218 40.6972 174.097 40.8913C173.979 41.0831 173.92 41.3021 173.92 41.5483V45H173.081ZM178.923 45.1136C178.398 45.1136 177.944 44.9976 177.563 44.7656C177.184 44.5312 176.892 44.2045 176.686 43.7855C176.482 43.3641 176.381 42.8741 176.381 42.3153C176.381 41.7566 176.482 41.2642 176.686 40.8381C176.892 40.4096 177.178 40.0758 177.545 39.8366C177.915 39.5952 178.345 39.4744 178.838 39.4744C179.122 39.4744 179.403 39.5218 179.68 39.6165C179.956 39.7112 180.209 39.8651 180.436 40.0781C180.663 40.2888 180.844 40.5682 180.979 40.9162C181.114 41.2642 181.182 41.6927 181.182 42.2017V42.5568H176.977V41.8324H180.329C180.329 41.5246 180.268 41.25 180.145 41.0085C180.024 40.767 179.851 40.5765 179.626 40.4368C179.404 40.2971 179.141 40.2273 178.838 40.2273C178.504 40.2273 178.215 40.3101 177.971 40.4759C177.73 40.6392 177.544 40.8523 177.414 41.1151C177.284 41.3778 177.219 41.6596 177.219 41.9602V42.4432C177.219 42.8551 177.29 43.2043 177.432 43.4908C177.576 43.7749 177.776 43.9915 178.032 44.1406C178.287 44.2874 178.585 44.3608 178.923 44.3608C179.143 44.3608 179.342 44.33 179.52 44.2685C179.7 44.2045 179.855 44.1098 179.985 43.9844C180.115 43.8565 180.216 43.6979 180.287 43.5085L181.096 43.7358C181.011 44.0104 180.868 44.2519 180.667 44.4602C180.465 44.6662 180.217 44.8272 179.921 44.9432C179.625 45.0568 179.292 45.1136 178.923 45.1136Z"
          fill="#9DA9BB"/>
    <defs>
        <linearGradient id="paint0_linear_4999_35572" x1="106.117" y1="42.4219" x2="94.1524" y2="15.3835"
                        gradientUnits="userSpaceOnUse">
            <stop stop-color="#E40C5B"/>
            <stop offset="1" stop-color="#FF4C3B"/>
        </linearGradient>
        <linearGradient id="paint1_linear_4999_35572" x1="106.117" y1="42.4219" x2="94.1524" y2="15.3835"
                        gradientUnits="userSpaceOnUse">
            <stop stop-color="#E40C5B"/>
            <stop offset="1" stop-color="#FF4C3B"/>
        </linearGradient>
        <linearGradient id="paint2_linear_4999_35572" x1="106.117" y1="42.4219" x2="94.1524" y2="15.3835"
                        gradientUnits="userSpaceOnUse">
            <stop stop-color="#E40C5B"/>
            <stop offset="1" stop-color="#FF4C3B"/>
        </linearGradient>
        <linearGradient id="paint3_linear_4999_35572" x1="106.117" y1="42.4219" x2="94.1524" y2="15.3835"
                        gradientUnits="userSpaceOnUse">
            <stop stop-color="#E40C5B"/>
            <stop offset="1" stop-color="#FF4C3B"/>
        </linearGradient>
        <linearGradient id="paint4_linear_4999_35572" x1="106.117" y1="42.4219" x2="94.1524" y2="15.3835"
                        gradientUnits="userSpaceOnUse">
            <stop stop-color="#E40C5B"/>
            <stop offset="1" stop-color="#FF4C3B"/>
        </linearGradient>
        <linearGradient id="paint5_linear_4999_35572" x1="106.117" y1="42.4219" x2="94.1524" y2="15.3835"
                        gradientUnits="userSpaceOnUse">
            <stop stop-color="#E40C5B"/>
            <stop offset="1" stop-color="#FF4C3B"/>
        </linearGradient>
        <linearGradient id="paint6_linear_4999_35572" x1="106.117" y1="42.4219" x2="94.1524" y2="15.3835"
                        gradientUnits="userSpaceOnUse">
            <stop stop-color="#E40C5B"/>
            <stop offset="1" stop-color="#FF4C3B"/>
        </linearGradient>
    </defs>
</svg>
