<svg width="253" height="64" viewBox="0 0 253 64" fill="none" xmlns="http://www.w3.org/2000/svg">
    <g clip-path="url(#clip0_6008_45958)">
        <path d="M24.59 39.8595V36.5134L18.907 30.7266H15.4844L24.59 39.8595Z" fill="#1C1C26"/>
        <path d="M0.136719 22.3398V25.6863L5.81975 31.4727H9.24236L0.136719 22.3398Z" fill="#1C1C26"/>
        <path d="M3.12109 18.7666H6.43804L12.1746 24.4995L17.8602 18.7666H21.3263L12.1746 27.9521L3.12109 18.7666Z"
              fill="#1C1C26"/>
        <path d="M3.67969 43.1523H6.99663L12.7327 37.4194L18.4175 43.1523H21.8836L12.7327 33.9668L3.67969 43.1523Z"
              fill="#1C1C26"/>
        <path d="M12.3909 32.535C13.2313 32.535 13.9126 31.8477 13.9126 30.9999C13.9126 30.1521 13.2313 29.4648 12.3909 29.4648C11.5504 29.4648 10.8691 30.1521 10.8691 30.9999C10.8691 31.8477 11.5504 32.535 12.3909 32.535Z"
              fill="#E6007A"/>
        <path d="M118.092 33.8008C118.351 33.7881 118.608 33.8371 118.844 33.9439C119.079 34.0505 119.287 34.2119 119.449 34.4148C119.611 34.6228 119.723 34.8653 119.777 35.1238C119.831 35.3823 119.826 35.6499 119.762 35.9061C119.632 36.499 119.3 37.027 118.823 37.3973C118.371 37.7704 117.806 37.9749 117.223 37.9762C116.97 37.991 116.718 37.9464 116.486 37.8459C116.253 37.7454 116.047 37.5918 115.884 37.3973C115.725 37.1877 115.619 36.943 115.574 36.6836C115.528 36.4242 115.545 36.1576 115.623 35.9061C115.739 35.3207 116.052 34.7938 116.51 34.4148C116.944 34.021 117.508 33.8025 118.092 33.8008Z"
              fill="#E6007A"/>
        <path d="M37.3256 33.7024H36.4178C36.2607 33.7172 36.1024 33.6924 35.9571 33.6303C35.8119 33.5681 35.6842 33.4705 35.5856 33.3463C35.5021 33.2255 35.4472 33.087 35.4254 32.9414C35.4035 32.7958 35.4152 32.647 35.4595 32.5068C35.5232 32.1951 35.6872 31.9134 35.9261 31.7055C36.1891 31.4585 36.5378 31.326 36.8969 31.3366H37.8047L38.7378 27.012C38.8024 26.6517 39.0056 26.3317 39.303 26.1217C39.5711 25.926 39.8926 25.8188 40.2234 25.8147C40.4975 25.8103 40.7631 25.9102 40.9674 26.0945C41.0781 26.2156 41.1542 26.3647 41.1875 26.526C41.2208 26.6873 41.2101 26.8546 41.1565 27.0103L40.2234 31.3349H41.1313C41.5632 31.3398 41.9904 31.2441 42.3795 31.055C42.7511 30.8731 43.0917 30.6327 43.3882 30.3427C43.683 30.0536 43.93 29.7187 44.1195 29.3506C44.3087 28.9896 44.4487 28.6045 44.5356 28.2059C44.6021 27.8454 44.6234 27.4779 44.5987 27.112C44.5782 26.7753 44.4882 26.4465 44.3339 26.1471C44.1821 25.8584 43.9556 25.6166 43.6782 25.4476C43.3486 25.2582 42.973 25.1656 42.5939 25.1805H37.7795C37.4451 25.182 37.1114 25.216 36.7834 25.2822C36.4396 25.3498 36.1079 25.4699 35.8 25.6384C35.4944 25.8036 35.2209 26.0234 34.993 26.287C34.7573 26.5681 34.5967 26.9052 34.5265 27.2664C34.4387 27.6262 34.4836 28.0059 34.6526 28.3349C34.8077 28.6365 34.9847 28.9262 35.1821 29.2015C35.3009 29.3233 35.3864 29.4739 35.4306 29.6388C35.4748 29.8036 35.4761 29.9772 35.4343 30.1427C35.36 30.4595 35.1878 30.7443 34.9426 30.9559C34.7005 31.186 34.38 31.3135 34.0474 31.312C33.7623 31.3126 33.4858 31.2138 33.2648 31.0322C32.7905 30.5851 32.4353 30.025 32.2317 29.4033C32.0104 28.7127 31.9753 27.9752 32.13 27.2664C32.2691 26.5817 32.553 25.9353 32.9621 25.3713C33.3617 24.8238 33.8523 24.3505 34.4121 23.9721C34.9813 23.5878 35.6067 23.2959 36.2656 23.1072C36.9211 22.9146 37.6003 22.8161 38.283 22.8147H42.9482C43.7039 22.7871 44.4543 22.9531 45.1295 23.2971C45.6782 23.5895 46.1395 24.0242 46.4661 24.5563C46.7813 25.0865 46.9713 25.6828 47.0208 26.2989C47.0791 26.9539 47.0408 27.6139 46.9074 28.2577C46.7491 28.9554 46.4947 29.6274 46.1517 30.2542C45.8026 30.9017 45.3552 31.4901 44.8256 31.998C44.2839 32.515 43.6565 32.9325 42.9721 33.2318C42.2401 33.5509 41.4496 33.7112 40.6521 33.7024H39.7465L39.4943 34.898C39.3976 35.3102 39.2581 35.7109 39.0782 36.0936C38.9085 36.457 38.6782 36.7883 38.3974 37.073C38.109 37.3601 37.7658 37.5851 37.3887 37.7344C36.9418 37.9048 36.4667 37.9868 35.9891 37.9761C35.6005 37.9682 35.2147 37.9083 34.8417 37.798C34.6239 37.7344 34.4222 37.6242 34.2503 37.4749C34.0784 37.3257 33.9404 37.1409 33.8456 36.9331C33.6999 36.7077 33.6457 36.4345 33.6943 36.1699C33.7766 35.8334 33.9728 35.5365 34.2491 35.3305C34.5143 35.1173 34.8431 35.0007 35.1821 34.9998C35.3341 34.9971 35.4849 35.0276 35.6241 35.0891C35.7634 35.1505 35.8878 35.2415 35.9891 35.3559C36.0407 35.4359 36.1117 35.5013 36.1954 35.5458C36.2792 35.5903 36.3727 35.6125 36.4674 35.6103C36.5555 35.6064 36.6407 35.5767 36.7124 35.5247C36.784 35.4727 36.8391 35.4008 36.8708 35.3178C37.0311 34.9289 37.1494 34.5238 37.2239 34.1094L37.3256 33.7024ZM46.4039 32.9647C46.5556 32.2686 46.8287 31.6053 47.2108 31.0059C47.5921 30.4016 48.0643 29.861 48.6104 29.4033C49.1556 28.946 49.7682 28.5769 50.4261 28.3094C51.07 28.042 51.7595 27.9038 52.4561 27.9024C53.1091 27.8907 53.756 28.03 54.3474 28.3094C54.8795 28.5624 55.3456 28.9369 55.7091 29.4033C56.0687 29.8755 56.3187 30.4232 56.4404 31.0059C56.5747 31.6528 56.566 32.3215 56.4152 32.9647C56.2652 33.6572 55.9917 34.3166 55.6082 34.9107C55.2247 35.5094 54.7526 36.0455 54.2087 36.5006C53.6643 36.9572 53.0504 37.3222 52.3908 37.5818C51.7365 37.8429 51.0391 37.9769 50.3356 37.9765C49.6921 37.9862 49.0547 37.8514 48.4695 37.5818C47.9365 37.3363 47.4695 36.9656 47.1078 36.5006C46.75 36.0321 46.5 35.489 46.3765 34.9107C46.243 34.268 46.2526 33.6034 46.4039 32.9647ZM54.07 32.9647C54.1534 32.6144 54.1621 32.2502 54.0952 31.8963C54.0347 31.5729 53.9008 31.2681 53.7039 31.0059C53.5104 30.7513 53.2595 30.5464 52.9726 30.4081C52.6613 30.2601 52.3204 30.1862 51.9765 30.1919C51.6047 30.1923 51.2361 30.2657 50.8921 30.4081C50.5382 30.5527 50.2104 30.7546 49.9213 31.0059C49.6256 31.262 49.3704 31.5623 49.1647 31.8963C48.9591 32.2248 48.81 32.586 48.7234 32.9647C48.6313 33.2927 48.6152 33.6376 48.6765 33.9729C48.7378 34.3081 48.8747 34.6247 49.0765 34.898C49.2821 35.1606 49.5478 35.3695 49.8504 35.5069C50.153 35.6443 50.4843 35.7063 50.8156 35.6875C51.1874 35.687 51.5561 35.6136 51.9 35.4713C52.2517 35.3279 52.5791 35.1306 52.8708 34.8862C53.166 34.6392 53.4213 34.3474 53.6274 34.0213C53.8347 33.6978 53.9847 33.3402 54.07 32.9647ZM62.8204 23.3243C62.77 23.3243 62.7321 23.3752 62.7069 23.477L62.62 23.8331L60.2987 34.8726C60.2652 35.0082 60.2313 35.1481 60.1978 35.2923C60.1721 35.4091 60.1387 35.5238 60.0969 35.6357C60.2347 35.487 60.4021 35.3699 60.5887 35.2923C60.7378 35.2354 60.8956 35.2057 61.0552 35.2046C61.1865 35.2005 61.3174 35.2244 61.4391 35.2749C61.5608 35.3253 61.6704 35.401 61.7613 35.4971C61.8534 35.6003 61.9165 35.7269 61.943 35.8633C61.9695 35.9997 61.9591 36.1409 61.9126 36.2717C61.8591 36.5487 61.7278 36.8045 61.5343 37.0085C61.2587 37.355 60.8978 37.6228 60.4878 37.7853C60.1521 37.9078 59.7982 37.9724 59.4413 37.9761C59.1652 38.0045 58.8865 37.9622 58.6308 37.8533C58.3752 37.7444 58.1508 37.5723 57.9787 37.3528C57.693 36.9373 57.6417 36.2547 57.8256 35.305L60.2465 23.9085C60.3326 23.3986 60.4852 22.9025 60.7004 22.4331C60.8552 22.1007 61.0739 21.8026 61.3434 21.5559C61.5895 21.3427 61.8843 21.1941 62.2008 21.1234C62.5695 21.0428 62.946 21.0044 63.323 21.009H63.5247C63.6613 21.0022 63.7974 21.0314 63.9195 21.0939C64.0413 21.1564 64.1452 21.2498 64.2204 21.3651C64.2987 21.4787 64.3517 21.6082 64.3756 21.7445C64.3995 21.8808 64.3939 22.0207 64.3591 22.1546C64.2878 22.4626 64.12 22.7394 63.8808 22.9441C63.6556 23.1795 63.3478 23.3164 63.0234 23.3256L62.8204 23.3243ZM67.5108 35.7884C67.343 35.4608 67.1995 35.121 67.0821 34.7717C66.9482 34.3878 66.9217 33.974 67.0065 33.5761C67.0921 33.2343 67.2926 32.9331 67.5739 32.7239C67.9139 32.4641 68.2721 32.2296 68.6456 32.0221C68.9747 31.8381 69.2691 31.597 69.5152 31.3099C69.7087 31.0997 69.8508 30.8472 69.9313 30.5721C69.9817 30.3177 69.7882 30.1906 69.3513 30.1906C69.0052 30.1925 68.6626 30.2616 68.3426 30.3941C67.9891 30.5413 67.6678 30.7574 67.3969 31.03C67.0787 31.3502 66.8069 31.7142 66.59 32.1112C66.3291 32.5917 66.146 33.1113 66.0478 33.6502L65.3908 36.8331C65.3604 37.0085 65.2947 37.1756 65.1973 37.3242C65.1004 37.4727 64.9734 37.5994 64.8256 37.6963C64.56 37.8741 64.2491 37.9712 63.93 37.9761C63.7978 37.9797 63.666 37.9568 63.543 37.9088C63.4195 37.8607 63.3069 37.7885 63.2113 37.6963C63.1108 37.5798 63.0426 37.4386 63.0139 37.287C62.9852 37.1353 62.9965 36.9787 63.0473 36.8331L65.7456 24.012C65.833 23.4984 65.9856 22.9983 66.1995 22.5239C66.3521 22.1864 66.5708 21.8835 66.8426 21.6335C67.0852 21.4222 67.3752 21.2737 67.6874 21.2011C68.0517 21.12 68.4239 21.0815 68.7969 21.0866H69.0239C69.1608 21.0762 69.2978 21.104 69.42 21.1668C69.5421 21.2296 69.6452 21.325 69.7173 21.4427C69.8604 21.679 69.91 21.9608 69.856 22.2322C69.7739 22.5279 69.613 22.7953 69.3908 23.0055C69.2826 23.1218 69.1517 23.2146 69.0065 23.278C68.8608 23.3415 68.7043 23.3742 68.546 23.3743H68.3191C68.2687 23.3743 68.2308 23.4252 68.2056 23.527C68.1804 23.6287 68.1513 23.7559 68.1187 23.9085L66.956 29.327C67.433 28.9039 67.9682 28.5526 68.5447 28.284C69.0247 28.0476 69.5491 27.9175 70.083 27.9024C70.416 27.8862 70.7486 27.9386 71.0608 28.0564C71.373 28.1742 71.6578 28.3549 71.8987 28.5875C72.1243 28.822 72.283 29.1135 72.3586 29.4313C72.4339 29.749 72.423 30.0815 72.3273 30.3936C72.1569 31.1416 71.7865 31.828 71.2556 32.3778C70.7217 32.9688 70.0621 33.4302 69.3265 33.7278C69.3769 33.8126 69.4526 33.961 69.5534 34.173C69.6543 34.385 69.7595 34.6012 69.8691 34.8217C69.9665 35.0211 70.0804 35.2119 70.2095 35.3919C70.3273 35.553 70.4365 35.6335 70.5373 35.6335C70.6817 35.5257 70.833 35.4283 70.9908 35.3419C71.153 35.2506 71.3356 35.2028 71.5213 35.2033C71.6513 35.1981 71.7808 35.2215 71.9013 35.272C72.0213 35.3226 72.1291 35.3989 72.2169 35.4958C72.3056 35.6013 72.3652 35.7287 72.3895 35.8649C72.4139 36.0012 72.4021 36.1415 72.3556 36.2717C72.3039 36.5459 72.1721 36.7984 71.9773 36.9967C71.7817 37.203 71.5604 37.3826 71.3187 37.5309C71.0969 37.6687 70.86 37.7797 70.6126 37.8616C70.426 37.9288 70.2304 37.9673 70.0326 37.9761C69.7195 37.9847 69.4087 37.9194 69.1247 37.7853C68.8752 37.6601 68.6491 37.4923 68.4565 37.2892C68.2574 37.0776 68.0834 36.8428 67.9395 36.5897C67.7882 36.3268 67.6452 36.0597 67.5108 35.7884ZM81.8847 34.8471C81.8513 34.9998 81.8134 35.1566 81.7713 35.3178C81.7439 35.4355 81.706 35.5504 81.6578 35.6612L81.7839 35.5594C82.033 35.3524 82.3439 35.236 82.6665 35.2287C82.7943 35.223 82.9221 35.2463 83.04 35.2969C83.1578 35.3475 83.263 35.4242 83.3473 35.5213C83.4317 35.6242 83.4895 35.7465 83.516 35.8774C83.5426 36.0083 83.5365 36.1437 83.4987 36.2717C83.42 36.5654 83.273 36.836 83.07 37.0612C82.7747 37.3555 82.4286 37.5926 82.0486 37.7607C81.7339 37.8985 81.3956 37.972 81.0526 37.977C80.0943 37.977 79.5395 37.5445 79.3882 36.6796C78.9586 37.0646 78.4743 37.3819 77.9508 37.6208C77.4278 37.8586 76.8604 37.9801 76.2865 37.977C75.7408 37.9981 75.1987 37.88 74.7104 37.6335C74.3147 37.4204 73.9865 37.0984 73.7647 36.705C73.5391 36.2902 73.41 35.8293 73.3865 35.3568C73.3565 34.8095 73.4073 34.2608 73.5378 33.7287C73.686 33.0108 73.9321 32.317 74.2691 31.6673C74.616 30.9806 75.0578 30.3469 75.5804 29.7849C76.0921 29.233 76.6934 28.7732 77.3582 28.4252C78.0156 28.0792 78.7469 27.9002 79.4886 27.9037C80.0691 27.8828 80.636 28.0825 81.0773 28.4634C81.2195 28.2841 81.4008 28.1405 81.6069 28.0436C81.796 27.9532 82.0026 27.9054 82.2121 27.9037C82.3452 27.9004 82.4778 27.9246 82.6017 27.9749C82.7252 28.0252 82.8373 28.1006 82.9308 28.1963C83.0313 28.3156 83.0991 28.4592 83.1278 28.613C83.1565 28.7667 83.1452 28.9254 83.0947 29.0735L81.8847 34.8471ZM79.01 30.1919C78.6104 30.1906 78.2195 30.3102 77.8878 30.5353C77.5343 30.7728 77.22 31.0647 76.956 31.4002C76.6782 31.7469 76.4447 32.1272 76.2604 32.5322C76.0865 32.9049 75.9595 33.298 75.8821 33.7024C75.833 33.9452 75.8073 34.1923 75.8065 34.4401C75.8026 34.6588 75.8456 34.8757 75.9326 35.0761C76.013 35.2584 76.1443 35.4131 76.3108 35.5213C76.5087 35.6394 76.7365 35.6969 76.9665 35.6866C77.3413 35.6853 77.71 35.5891 78.0382 35.4068C78.386 35.2178 78.6978 34.968 78.9587 34.6691C79.2352 34.3538 79.4691 34.0031 79.6543 33.6261C79.8439 33.2474 79.9834 32.8455 80.0704 32.4305C80.2073 31.9162 80.1943 31.3729 80.0326 30.866C79.9634 30.653 79.8247 30.4702 79.6386 30.3476C79.453 30.225 79.2308 30.1701 79.01 30.1919ZM93.3082 34.8726C93.2747 35.0082 93.2408 35.1481 93.2073 35.2923C93.1817 35.4091 93.1482 35.5238 93.1065 35.6357C93.2604 35.5019 93.4352 35.3945 93.6234 35.3178C93.7726 35.2608 93.9304 35.2311 94.09 35.23C94.2178 35.2243 94.3456 35.2476 94.4634 35.2982C94.5813 35.3488 94.6865 35.4255 94.7708 35.5226C94.8552 35.6255 94.913 35.7478 94.9395 35.8787C94.966 36.0096 94.96 36.145 94.9221 36.273C94.8391 36.5598 94.7021 36.8278 94.5186 37.0625C94.2321 37.3847 93.8734 37.6333 93.4721 37.7875C93.1534 37.9059 92.8173 37.9696 92.4778 37.9761C92.0295 38.0049 91.5865 37.8694 91.2295 37.5945C91.0743 37.4477 90.9508 37.2703 90.866 37.0735C90.7817 36.8766 90.7378 36.6643 90.7378 36.4498C90.296 36.8987 89.7852 37.2724 89.2247 37.5563C88.6691 37.8364 88.0556 37.9802 87.4343 37.9761C86.8847 37.9962 86.3386 37.8781 85.8456 37.6327C85.4465 37.4244 85.1173 37.1012 84.9 36.7042C84.6821 36.2869 84.5573 35.8268 84.5343 35.3559C84.5043 34.8086 84.5552 34.2599 84.6856 33.7278C84.8347 33.0084 85.0852 32.3142 85.4295 31.6664C85.7817 30.9838 86.2221 30.3511 86.7386 29.7849C87.2443 29.2314 87.8413 28.7713 88.5039 28.4252C89.1534 28.0812 89.876 27.9022 90.6095 27.9037C90.9347 27.8837 91.2595 27.9537 91.5482 28.1061C91.8373 28.2585 92.0795 28.4876 92.2487 28.7686L93.7113 21.8493C93.7765 21.5054 93.9708 21.2002 94.2534 20.9971C94.506 20.8104 94.81 20.7081 95.123 20.7046C95.2621 20.7004 95.4004 20.7241 95.5304 20.7743C95.6604 20.8245 95.7791 20.9002 95.8795 20.9971C95.9826 21.1097 96.0539 21.2485 96.0847 21.3986C96.116 21.5487 96.106 21.7045 96.056 21.8493L93.3082 34.8726ZM90.13 30.1919C89.7304 30.1906 89.3395 30.3102 89.0078 30.5353C88.6539 30.7727 88.3391 31.0645 88.0747 31.4002C87.7969 31.7469 87.5634 32.1272 87.3791 32.5322C87.2052 32.9049 87.0782 33.298 87.0008 33.7024C86.9517 33.9452 86.926 34.1923 86.9252 34.4401C86.9213 34.6588 86.9643 34.8757 87.0513 35.0761C87.1317 35.2584 87.263 35.4131 87.4295 35.5213C87.636 35.6414 87.8726 35.6988 88.1104 35.6866C88.4913 35.6881 88.8656 35.5872 89.1947 35.3941C89.5378 35.1932 89.8447 34.9352 90.1026 34.6309C90.3743 34.3145 90.6043 33.9637 90.7865 33.5875C90.9669 33.2195 91.1021 32.8308 91.19 32.43C91.3269 31.9157 91.3139 31.3724 91.1521 30.8656C91.083 30.6527 90.9443 30.47 90.7582 30.3476C90.5726 30.2251 90.3508 30.1702 90.13 30.1919ZM99.7134 37.9761C99.0778 37.9914 98.4473 37.8562 97.8726 37.5813C97.3691 37.3335 96.9352 36.9617 96.6117 36.5002C96.2839 36.0211 96.0682 35.4731 95.9813 34.8976C95.8817 34.2543 95.9073 33.5976 96.0569 32.9642C96.2043 32.2628 96.4595 31.589 96.8134 30.9673C97.1526 30.3658 97.5869 29.8244 98.0995 29.3647C98.6104 28.9113 99.1947 28.5498 99.8269 28.2963C100.489 28.0305 101.195 27.8964 101.907 27.9015C102.509 27.8834 103.108 27.9827 103.673 28.1941C104.1 28.3589 104.483 28.6199 104.795 28.9572C105.066 29.2574 105.249 29.6271 105.324 30.0256C105.4 30.4252 105.396 30.836 105.312 31.234C105.22 31.6446 105.058 32.0362 104.833 32.3914C104.595 32.7762 104.297 33.1198 103.951 33.409C103.578 33.7169 103.156 33.9578 102.703 34.1213C102.206 34.3024 101.68 34.3929 101.152 34.3884C100.937 34.3876 100.722 34.3749 100.509 34.3502C100.296 34.3285 100.089 34.2771 99.8908 34.1976C99.7139 34.128 99.5639 34.0032 99.4621 33.8414C99.3547 33.634 99.3278 33.3937 99.3865 33.1673C99.4652 32.859 99.6317 32.5805 99.8647 32.366C99.98 32.2482 100.117 32.1549 100.269 32.0916C100.421 32.0282 100.583 31.9961 100.747 31.9971C100.913 31.993 101.076 32.0278 101.226 32.0989C101.402 32.1714 101.59 32.2061 101.78 32.2006C101.933 32.206 102.085 32.1806 102.228 32.126C102.371 32.0714 102.502 31.9887 102.613 31.8827C102.796 31.7274 102.929 31.5186 102.991 31.2849C103.015 31.1485 103.004 31.0081 102.96 30.877C102.916 30.7458 102.84 30.628 102.739 30.5344C102.369 30.2585 101.909 30.1356 101.453 30.191C101.083 30.1854 100.717 30.2546 100.375 30.3944C100.033 30.5342 99.7217 30.7419 99.4604 31.005C98.913 31.5341 98.5356 32.2163 98.376 32.9638C98.1939 33.6117 98.2708 34.3058 98.5904 34.8971C98.7517 35.1602 98.9817 35.3731 99.2556 35.5124C99.5291 35.6517 99.8356 35.712 100.141 35.6866C100.531 35.6942 100.919 35.634 101.289 35.5085C101.677 35.3546 102.039 35.14 102.36 34.8726C102.603 34.652 102.916 34.5258 103.243 34.5164C103.377 34.5131 103.51 34.5399 103.632 34.5949C103.754 34.6499 103.862 34.7317 103.949 34.8344C104.041 34.9432 104.106 35.0731 104.136 35.2129C104.167 35.3526 104.163 35.4978 104.126 35.6357C104.087 35.7834 104.027 35.9248 103.949 36.0555C103.858 36.2088 103.748 36.3499 103.621 36.4752C103.096 36.9999 102.457 37.396 101.756 37.6327C101.098 37.8564 100.408 37.9724 99.7134 37.9761ZM111.692 32.7866L113.558 36.1199C113.634 36.2195 113.682 36.3382 113.696 36.4634C113.704 36.5792 113.692 36.6955 113.659 36.8068C113.58 37.1306 113.393 37.4175 113.13 37.6199C112.887 37.8405 112.574 37.9667 112.247 37.9761C112.097 37.9763 111.949 37.9369 111.819 37.8616C111.684 37.7855 111.572 37.676 111.491 37.5436L109.852 34.6927L107.078 37.5436C106.946 37.6991 106.776 37.817 106.585 37.8857C106.435 37.9397 106.278 37.9693 106.119 37.9735C105.981 37.9753 105.846 37.9438 105.723 37.8819C105.6 37.8199 105.493 37.7292 105.413 37.6173C105.323 37.5048 105.26 37.3727 105.229 37.2313C105.198 37.09 105.201 36.9435 105.236 36.8033C105.267 36.6909 105.305 36.5805 105.35 36.4726C105.415 36.3383 105.505 36.2175 105.614 36.1164L108.842 32.8094L107.153 29.8077C107.069 29.5888 107.051 29.3497 107.102 29.1208C107.175 28.7901 107.363 28.4967 107.632 28.2941C107.878 28.0802 108.19 27.9589 108.514 27.9506C108.66 27.9537 108.803 27.993 108.93 28.0651C109.07 28.1384 109.188 28.2482 109.271 28.3831L110.683 30.9015L113.154 28.3831C113.288 28.2479 113.446 28.1399 113.621 28.0651C113.767 27.9959 113.926 27.957 114.087 27.9506C114.231 27.9481 114.374 27.9803 114.503 28.0444C114.633 28.1085 114.745 28.2028 114.831 28.3195C114.925 28.4327 114.99 28.5666 115.023 28.7102C115.056 28.8538 115.055 29.0031 115.02 29.1463C114.95 29.4005 114.81 29.6296 114.617 29.8077L111.692 32.7866Z"
              fill="#1C1C26"/>
    </g>
    <path d="M136 25V37" stroke="#E0E4EB"/>
    <path d="M160.896 24.224H163.264V28.768C162.656 29.2267 161.952 29.5787 161.152 29.824C160.352 30.0693 159.547 30.192 158.736 30.192C157.573 30.192 156.528 29.9467 155.6 29.456C154.672 28.9547 153.941 28.2667 153.408 27.392C152.885 26.5067 152.624 25.5093 152.624 24.4C152.624 23.2907 152.885 22.2987 153.408 21.424C153.941 20.5387 154.677 19.8507 155.616 19.36C156.555 18.8587 157.611 18.608 158.784 18.608C159.765 18.608 160.656 18.7733 161.456 19.104C162.256 19.4347 162.928 19.9147 163.472 20.544L161.808 22.08C161.008 21.2373 160.043 20.816 158.912 20.816C158.197 20.816 157.563 20.9653 157.008 21.264C156.453 21.5627 156.021 21.984 155.712 22.528C155.403 23.072 155.248 23.696 155.248 24.4C155.248 25.0933 155.403 25.712 155.712 26.256C156.021 26.8 156.448 27.2267 156.992 27.536C157.547 27.8347 158.176 27.984 158.88 27.984C159.627 27.984 160.299 27.824 160.896 27.504V24.224ZM169.592 30.128C168.685 30.128 167.869 29.9413 167.144 29.568C166.429 29.184 165.869 28.656 165.464 27.984C165.058 27.312 164.856 26.5493 164.856 25.696C164.856 24.8427 165.058 24.08 165.464 23.408C165.869 22.736 166.429 22.2133 167.144 21.84C167.869 21.456 168.685 21.264 169.592 21.264C170.498 21.264 171.309 21.456 172.024 21.84C172.738 22.2133 173.298 22.736 173.704 23.408C174.109 24.08 174.312 24.8427 174.312 25.696C174.312 26.5493 174.109 27.312 173.704 27.984C173.298 28.656 172.738 29.184 172.024 29.568C171.309 29.9413 170.498 30.128 169.592 30.128ZM169.592 28.08C170.232 28.08 170.754 27.8667 171.16 27.44C171.576 27.0027 171.784 26.4213 171.784 25.696C171.784 24.9707 171.576 24.3947 171.16 23.968C170.754 23.5307 170.232 23.312 169.592 23.312C168.952 23.312 168.424 23.5307 168.008 23.968C167.592 24.3947 167.384 24.9707 167.384 25.696C167.384 26.4213 167.592 27.0027 168.008 27.44C168.424 27.8667 168.952 28.08 169.592 28.08ZM184.29 21.392L180.658 30H178.082L174.466 21.392H177.042L179.426 27.248L181.89 21.392H184.29ZM193.506 25.728C193.506 25.76 193.49 25.984 193.458 26.4H186.946C187.063 26.9333 187.341 27.3547 187.778 27.664C188.215 27.9733 188.759 28.128 189.41 28.128C189.858 28.128 190.253 28.064 190.594 27.936C190.946 27.7973 191.271 27.584 191.57 27.296L192.898 28.736C192.087 29.664 190.903 30.128 189.346 30.128C188.375 30.128 187.517 29.9413 186.77 29.568C186.023 29.184 185.447 28.656 185.042 27.984C184.637 27.312 184.434 26.5493 184.434 25.696C184.434 24.8533 184.631 24.096 185.026 23.424C185.431 22.7413 185.981 22.2133 186.674 21.84C187.378 21.456 188.162 21.264 189.026 21.264C189.869 21.264 190.631 21.4453 191.314 21.808C191.997 22.1707 192.53 22.6933 192.914 23.376C193.309 24.048 193.506 24.832 193.506 25.728ZM189.042 23.152C188.477 23.152 188.002 23.312 187.618 23.632C187.234 23.952 186.999 24.3893 186.914 24.944H191.154C191.069 24.4 190.834 23.968 190.45 23.648C190.066 23.3173 189.597 23.152 189.042 23.152ZM197.552 22.528C197.85 22.112 198.25 21.7973 198.752 21.584C199.264 21.3707 199.85 21.264 200.512 21.264V23.568C200.234 23.5467 200.048 23.536 199.952 23.536C199.237 23.536 198.677 23.7387 198.272 24.144C197.866 24.5387 197.664 25.136 197.664 25.936V30H195.168V21.392H197.552V22.528ZM207.228 21.264C208.294 21.264 209.153 21.584 209.804 22.224C210.465 22.864 210.796 23.8133 210.796 25.072V30H208.3V25.456C208.3 24.7733 208.15 24.2667 207.852 23.936C207.553 23.5947 207.121 23.424 206.556 23.424C205.926 23.424 205.425 23.6213 205.052 24.016C204.678 24.4 204.492 24.976 204.492 25.744V30H201.996V21.392H204.38V22.4C204.71 22.0373 205.121 21.76 205.612 21.568C206.102 21.3653 206.641 21.264 207.228 21.264ZM216.53 21.264C217.864 21.264 218.888 21.584 219.602 22.224C220.317 22.8533 220.674 23.808 220.674 25.088V30H218.338V28.928C217.869 29.728 216.994 30.128 215.714 30.128C215.053 30.128 214.477 30.016 213.986 29.792C213.506 29.568 213.138 29.2587 212.882 28.864C212.626 28.4693 212.498 28.0213 212.498 27.52C212.498 26.72 212.797 26.0907 213.394 25.632C214.002 25.1733 214.936 24.944 216.194 24.944H218.178C218.178 24.4 218.013 23.984 217.682 23.696C217.352 23.3973 216.856 23.248 216.194 23.248C215.736 23.248 215.282 23.3227 214.834 23.472C214.397 23.6107 214.024 23.8027 213.714 24.048L212.818 22.304C213.288 21.9733 213.848 21.7173 214.498 21.536C215.16 21.3547 215.837 21.264 216.53 21.264ZM216.338 28.448C216.765 28.448 217.144 28.352 217.474 28.16C217.805 27.9573 218.04 27.664 218.178 27.28V26.4H216.466C215.442 26.4 214.93 26.736 214.93 27.408C214.93 27.728 215.053 27.984 215.298 28.176C215.554 28.3573 215.901 28.448 216.338 28.448ZM228.165 21.264C229.232 21.264 230.091 21.584 230.741 22.224C231.403 22.864 231.733 23.8133 231.733 25.072V30H229.237V25.456C229.237 24.7733 229.088 24.2667 228.789 23.936C228.491 23.5947 228.059 23.424 227.493 23.424C226.864 23.424 226.363 23.6213 225.989 24.016C225.616 24.4 225.429 24.976 225.429 25.744V30H222.933V21.392H225.317V22.4C225.648 22.0373 226.059 21.76 226.549 21.568C227.04 21.3653 227.579 21.264 228.165 21.264ZM238.25 30.128C237.332 30.128 236.506 29.9413 235.77 29.568C235.044 29.184 234.474 28.656 234.058 27.984C233.652 27.312 233.45 26.5493 233.45 25.696C233.45 24.8427 233.652 24.08 234.058 23.408C234.474 22.736 235.044 22.2133 235.77 21.84C236.506 21.456 237.332 21.264 238.25 21.264C239.156 21.264 239.946 21.456 240.618 21.84C241.3 22.2133 241.796 22.752 242.106 23.456L240.17 24.496C239.722 23.7067 239.076 23.312 238.234 23.312C237.583 23.312 237.044 23.5253 236.618 23.952C236.191 24.3787 235.978 24.96 235.978 25.696C235.978 26.432 236.191 27.0133 236.618 27.44C237.044 27.8667 237.583 28.08 238.234 28.08C239.087 28.08 239.732 27.6853 240.17 26.896L242.106 27.952C241.796 28.6347 241.3 29.168 240.618 29.552C239.946 29.936 239.156 30.128 238.25 30.128ZM251.865 25.728C251.865 25.76 251.849 25.984 251.817 26.4H245.305C245.423 26.9333 245.7 27.3547 246.137 27.664C246.575 27.9733 247.119 28.128 247.769 28.128C248.217 28.128 248.612 28.064 248.953 27.936C249.305 27.7973 249.631 27.584 249.929 27.296L251.257 28.736C250.447 29.664 249.263 30.128 247.705 30.128C246.735 30.128 245.876 29.9413 245.129 29.568C244.383 29.184 243.807 28.656 243.401 27.984C242.996 27.312 242.793 26.5493 242.793 25.696C242.793 24.8533 242.991 24.096 243.385 23.424C243.791 22.7413 244.34 22.2133 245.033 21.84C245.737 21.456 246.521 21.264 247.385 21.264C248.228 21.264 248.991 21.4453 249.673 21.808C250.356 22.1707 250.889 22.6933 251.273 23.376C251.668 24.048 251.865 24.832 251.865 25.728ZM247.401 23.152C246.836 23.152 246.361 23.312 245.977 23.632C245.593 23.952 245.359 24.3893 245.273 24.944H249.513C249.428 24.4 249.193 23.968 248.809 23.648C248.425 23.3173 247.956 23.152 247.401 23.152Z"
          fill="#1E2134"/>
    <path d="M156.858 39.5455C156.815 39.1856 156.643 38.9062 156.339 38.7074C156.036 38.5085 155.665 38.4091 155.224 38.4091C154.902 38.4091 154.621 38.4612 154.379 38.5653C154.14 38.6695 153.953 38.8127 153.818 38.995C153.686 39.1773 153.619 39.3845 153.619 39.6165C153.619 39.8106 153.665 39.9775 153.758 40.1172C153.853 40.2545 153.973 40.3693 154.12 40.4616C154.267 40.5516 154.421 40.6262 154.582 40.6854C154.743 40.7422 154.891 40.7884 155.026 40.8239L155.764 41.0227C155.954 41.0724 156.164 41.1411 156.396 41.2287C156.631 41.3163 156.854 41.4358 157.067 41.5874C157.283 41.7365 157.46 41.9283 157.6 42.1626C157.74 42.397 157.81 42.6847 157.81 43.0256C157.81 43.4186 157.707 43.7737 157.501 44.0909C157.297 44.4081 156.999 44.6603 156.606 44.8473C156.215 45.0343 155.741 45.1278 155.182 45.1278C154.661 45.1278 154.21 45.0438 153.829 44.8757C153.45 44.7076 153.152 44.4732 152.934 44.1726C152.719 43.8719 152.597 43.5227 152.568 43.125H153.477C153.501 43.3996 153.593 43.6269 153.754 43.8068C153.918 43.9844 154.124 44.117 154.372 44.2045C154.623 44.2898 154.893 44.3324 155.182 44.3324C155.518 44.3324 155.82 44.2779 156.087 44.169C156.355 44.0578 156.567 43.9039 156.723 43.7074C156.879 43.5085 156.957 43.2765 156.957 43.0114C156.957 42.7699 156.89 42.5734 156.755 42.4219C156.62 42.2704 156.442 42.1473 156.222 42.0526C156.002 41.9579 155.764 41.875 155.509 41.804L154.614 41.5483C154.045 41.3849 153.596 41.1518 153.264 40.8487C152.933 40.5457 152.767 40.1491 152.767 39.6591C152.767 39.2519 152.877 38.8968 153.097 38.5938C153.32 38.2884 153.618 38.0516 153.992 37.8835C154.369 37.7131 154.789 37.6278 155.253 37.6278C155.722 37.6278 156.138 37.7119 156.503 37.88C156.867 38.0457 157.156 38.273 157.369 38.5618C157.585 38.8506 157.698 39.1785 157.71 39.5455H156.858ZM162.581 42.7699V39.5455H163.42V45H162.581V44.0767H162.525C162.397 44.3537 162.198 44.5893 161.928 44.7834C161.658 44.9751 161.317 45.071 160.905 45.071C160.564 45.071 160.261 44.9964 159.996 44.8473C159.731 44.6958 159.523 44.4685 159.371 44.1655C159.22 43.8601 159.144 43.4754 159.144 43.0114V39.5455H159.982V42.9545C159.982 43.3523 160.093 43.6695 160.316 43.9062C160.541 44.143 160.827 44.2614 161.175 44.2614C161.384 44.2614 161.595 44.2081 161.811 44.1016C162.029 43.995 162.211 43.8317 162.358 43.6115C162.507 43.3913 162.581 43.1108 162.581 42.7699ZM165.068 45V37.7273H165.906V40.4119H165.977C166.039 40.3172 166.124 40.1965 166.233 40.0497C166.344 39.9006 166.503 39.768 166.709 39.652C166.917 39.5336 167.199 39.4744 167.554 39.4744C168.013 39.4744 168.418 39.5893 168.768 39.8189C169.119 40.0485 169.392 40.3741 169.589 40.7955C169.785 41.2169 169.884 41.714 169.884 42.2869C169.884 42.8646 169.785 43.3653 169.589 43.7891C169.392 44.2105 169.12 44.5372 168.772 44.7692C168.424 44.9988 168.023 45.1136 167.568 45.1136C167.218 45.1136 166.937 45.0556 166.727 44.9396C166.516 44.8213 166.354 44.6875 166.24 44.5384C166.126 44.3868 166.039 44.2614 165.977 44.1619H165.878V45H165.068ZM165.892 42.2727C165.892 42.6847 165.952 43.0481 166.073 43.3629C166.194 43.6754 166.37 43.9205 166.602 44.098C166.834 44.2732 167.118 44.3608 167.455 44.3608C167.805 44.3608 168.097 44.2685 168.332 44.0838C168.568 43.8968 168.746 43.6458 168.864 43.331C168.985 43.0137 169.045 42.661 169.045 42.2727C169.045 41.8892 168.986 41.5436 168.868 41.2358C168.752 40.9257 168.576 40.6806 168.339 40.5007C168.104 40.3184 167.81 40.2273 167.455 40.2273C167.114 40.2273 166.827 40.3137 166.595 40.4865C166.363 40.657 166.188 40.8961 166.07 41.2038C165.951 41.5092 165.892 41.8655 165.892 42.2727ZM175.256 39.5455C175.214 39.1856 175.041 38.9062 174.738 38.7074C174.435 38.5085 174.063 38.4091 173.623 38.4091C173.301 38.4091 173.019 38.4612 172.778 38.5653C172.539 38.6695 172.352 38.8127 172.217 38.995C172.084 39.1773 172.018 39.3845 172.018 39.6165C172.018 39.8106 172.064 39.9775 172.156 40.1172C172.251 40.2545 172.372 40.3693 172.518 40.4616C172.665 40.5516 172.819 40.6262 172.98 40.6854C173.141 40.7422 173.289 40.7884 173.424 40.8239L174.163 41.0227C174.352 41.0724 174.563 41.1411 174.795 41.2287C175.029 41.3163 175.253 41.4358 175.466 41.5874C175.681 41.7365 175.859 41.9283 175.999 42.1626C176.138 42.397 176.208 42.6847 176.208 43.0256C176.208 43.4186 176.105 43.7737 175.899 44.0909C175.696 44.4081 175.397 44.6603 175.004 44.8473C174.614 45.0343 174.139 45.1278 173.58 45.1278C173.059 45.1278 172.608 45.0438 172.227 44.8757C171.848 44.7076 171.55 44.4732 171.332 44.1726C171.117 43.8719 170.995 43.5227 170.967 43.125H171.876C171.899 43.3996 171.992 43.6269 172.153 43.8068C172.316 43.9844 172.522 44.117 172.771 44.2045C173.022 44.2898 173.291 44.3324 173.58 44.3324C173.916 44.3324 174.218 44.2779 174.486 44.169C174.753 44.0578 174.965 43.9039 175.121 43.7074C175.278 43.5085 175.356 43.2765 175.356 43.0114C175.356 42.7699 175.288 42.5734 175.153 42.4219C175.018 42.2704 174.841 42.1473 174.621 42.0526C174.401 41.9579 174.163 41.875 173.907 41.804L173.012 41.5483C172.444 41.3849 171.994 41.1518 171.663 40.8487C171.331 40.5457 171.165 40.1491 171.165 39.6591C171.165 39.2519 171.276 38.8968 171.496 38.5938C171.718 38.2884 172.017 38.0516 172.391 37.8835C172.767 37.7131 173.187 37.6278 173.651 37.6278C174.12 37.6278 174.537 37.7119 174.901 37.88C175.266 38.0457 175.555 38.273 175.768 38.5618C175.983 38.8506 176.097 39.1785 176.109 39.5455H175.256ZM181.264 47.0455V44.1619H181.193C181.131 44.2614 181.044 44.3868 180.93 44.5384C180.817 44.6875 180.654 44.8213 180.444 44.9396C180.233 45.0556 179.952 45.1136 179.602 45.1136C179.148 45.1136 178.746 44.9988 178.398 44.7692C178.05 44.5372 177.778 44.2105 177.581 43.7891C177.385 43.3653 177.287 42.8646 177.287 42.2869C177.287 41.714 177.385 41.2169 177.581 40.7955C177.778 40.3741 178.051 40.0485 178.402 39.8189C178.752 39.5893 179.157 39.4744 179.616 39.4744C179.971 39.4744 180.252 39.5336 180.458 39.652C180.666 39.768 180.825 39.9006 180.934 40.0497C181.045 40.1965 181.131 40.3172 181.193 40.4119H181.292V39.5455H182.102V47.0455H181.264ZM179.716 44.3608C180.052 44.3608 180.336 44.2732 180.568 44.098C180.8 43.9205 180.976 43.6754 181.097 43.3629C181.218 43.0481 181.278 42.6847 181.278 42.2727C181.278 41.8655 181.219 41.5092 181.101 41.2038C180.982 40.8961 180.807 40.657 180.575 40.4865C180.343 40.3137 180.057 40.2273 179.716 40.2273C179.361 40.2273 179.065 40.3184 178.828 40.5007C178.594 40.6806 178.417 40.9257 178.299 41.2358C178.183 41.5436 178.125 41.8892 178.125 42.2727C178.125 42.661 178.184 43.0137 178.302 43.331C178.423 43.6458 178.601 43.8968 178.835 44.0838C179.072 44.2685 179.365 44.3608 179.716 44.3608ZM187.074 42.7699V39.5455H187.912V45H187.074V44.0767H187.017C186.889 44.3537 186.69 44.5893 186.42 44.7834C186.15 44.9751 185.809 45.071 185.398 45.071C185.057 45.071 184.754 44.9964 184.488 44.8473C184.223 44.6958 184.015 44.4685 183.863 44.1655C183.712 43.8601 183.636 43.4754 183.636 43.0114V39.5455H184.474V42.9545C184.474 43.3523 184.586 43.6695 184.808 43.9062C185.033 44.143 185.319 44.2614 185.667 44.2614C185.876 44.2614 186.088 44.2081 186.303 44.1016C186.521 43.995 186.703 43.8317 186.85 43.6115C186.999 43.3913 187.074 43.1108 187.074 42.7699ZM191.052 45.1278C190.706 45.1278 190.393 45.0627 190.111 44.9325C189.829 44.8 189.605 44.6094 189.44 44.3608C189.274 44.1098 189.191 43.8068 189.191 43.4517C189.191 43.1392 189.253 42.8859 189.376 42.6918C189.499 42.4953 189.663 42.3414 189.869 42.2301C190.075 42.1188 190.303 42.036 190.551 41.9815C190.802 41.9247 191.054 41.8797 191.308 41.8466C191.639 41.804 191.908 41.772 192.114 41.7507C192.322 41.727 192.473 41.688 192.568 41.6335C192.665 41.5791 192.714 41.4844 192.714 41.3494V41.321C192.714 40.9706 192.618 40.6984 192.426 40.5043C192.237 40.3101 191.949 40.2131 191.563 40.2131C191.163 40.2131 190.849 40.3007 190.622 40.4759C190.395 40.651 190.235 40.8381 190.143 41.0369L189.347 40.7528C189.489 40.4214 189.679 40.1634 189.915 39.9787C190.155 39.7917 190.415 39.6615 190.697 39.5881C190.981 39.5123 191.26 39.4744 191.535 39.4744C191.71 39.4744 191.911 39.4957 192.138 39.5384C192.368 39.5786 192.589 39.6626 192.803 39.7905C193.018 39.9183 193.197 40.1113 193.339 40.3693C193.481 40.6274 193.552 40.973 193.552 41.4062V45H192.714V44.2614H192.671C192.614 44.3797 192.52 44.5064 192.387 44.6413C192.254 44.7763 192.078 44.8911 191.858 44.9858C191.638 45.0805 191.369 45.1278 191.052 45.1278ZM191.18 44.375C191.511 44.375 191.79 44.3099 192.018 44.1797C192.247 44.0495 192.42 43.8814 192.536 43.6754C192.655 43.4695 192.714 43.2528 192.714 43.0256V42.2585C192.678 42.3011 192.6 42.3402 192.479 42.3757C192.361 42.4089 192.224 42.4384 192.067 42.4645C191.914 42.4882 191.763 42.5095 191.616 42.5284C191.472 42.545 191.355 42.5592 191.265 42.571C191.047 42.5994 190.844 42.6456 190.654 42.7095C190.467 42.7711 190.316 42.8646 190.2 42.9901C190.086 43.1132 190.029 43.2812 190.029 43.4943C190.029 43.7855 190.137 44.0057 190.352 44.1548C190.57 44.3016 190.846 44.375 191.18 44.375ZM195.081 45V39.5455H195.891V40.3693H195.948C196.047 40.0994 196.227 39.8804 196.488 39.7124C196.748 39.5443 197.042 39.4602 197.368 39.4602C197.43 39.4602 197.507 39.4614 197.599 39.4638C197.692 39.4661 197.761 39.4697 197.809 39.4744V40.3267C197.78 40.3196 197.715 40.3089 197.613 40.2947C197.514 40.2782 197.409 40.2699 197.297 40.2699C197.032 40.2699 196.796 40.3255 196.587 40.4368C196.381 40.5457 196.218 40.6972 196.097 40.8913C195.979 41.0831 195.92 41.3021 195.92 41.5483V45H195.081ZM200.923 45.1136C200.398 45.1136 199.944 44.9976 199.563 44.7656C199.184 44.5312 198.892 44.2045 198.686 43.7855C198.482 43.3641 198.381 42.8741 198.381 42.3153C198.381 41.7566 198.482 41.2642 198.686 40.8381C198.892 40.4096 199.178 40.0758 199.545 39.8366C199.915 39.5952 200.345 39.4744 200.838 39.4744C201.122 39.4744 201.403 39.5218 201.68 39.6165C201.956 39.7112 202.209 39.8651 202.436 40.0781C202.663 40.2888 202.844 40.5682 202.979 40.9162C203.114 41.2642 203.182 41.6927 203.182 42.2017V42.5568H198.977V41.8324H202.329C202.329 41.5246 202.268 41.25 202.145 41.0085C202.024 40.767 201.851 40.5765 201.626 40.4368C201.404 40.2971 201.141 40.2273 200.838 40.2273C200.504 40.2273 200.215 40.3101 199.971 40.4759C199.73 40.6392 199.544 40.8523 199.414 41.1151C199.284 41.3778 199.219 41.6596 199.219 41.9602V42.4432C199.219 42.8551 199.29 43.2043 199.432 43.4908C199.576 43.7749 199.776 43.9915 200.032 44.1406C200.287 44.2874 200.585 44.3608 200.923 44.3608C201.143 44.3608 201.342 44.33 201.52 44.2685C201.7 44.2045 201.855 44.1098 201.985 43.9844C202.115 43.8565 202.216 43.6979 202.287 43.5085L203.096 43.7358C203.011 44.0104 202.868 44.2519 202.667 44.4602C202.465 44.6662 202.217 44.8272 201.921 44.9432C201.625 45.0568 201.292 45.1136 200.923 45.1136Z"
          fill="#9DA9BB"/>
    <defs>
        <clipPath id="clip0_6008_45958">
            <rect width="120" height="25" fill="white" transform="translate(0 18.5)"/>
        </clipPath>
    </defs>
</svg>
