<svg width="20" height="20" viewBox="0 0 20 20" fill="none" xmlns="http://www.w3.org/2000/svg">
    <path d="M15.8806 8.64002C15.8806 11.3181 16.402 12.8299 16.8394 13.6266C16.9438 13.8162 16.9992 14.0317 17 14.2513C17.0008 14.4708 16.947 14.6868 16.844 14.8772C16.741 15.0677 16.5925 15.2259 16.4134 15.336C16.2343 15.446 16.0311 15.504 15.8241 15.504H4.17588C3.96892 15.504 3.76563 15.446 3.58655 15.3359C3.40746 15.2258 3.25893 15.0676 3.15594 14.8771C3.05295 14.6866 2.99917 14.4706 3.00001 14.251C3.00085 14.0314 3.0563 13.8159 3.16074 13.6263C3.59832 12.8297 4.11996 11.3178 4.11996 8.64002V8.01602C4.11989 -0.0604131 15.8806 0.0266063 15.8806 8.08656V8.64002Z" fill="#506176"/>
    <path d="M7.64263 16.752H12.3469C12.5029 16.752 12.6524 16.8177 12.7627 16.9348C12.873 17.0518 12.9349 17.2105 12.9349 17.376C12.9349 17.5415 12.873 17.7002 12.7627 17.8172C12.6524 17.9343 12.5029 18 12.3469 18H7.64263C7.48668 18 7.33711 17.9343 7.22683 17.8172C7.11655 17.7002 7.0546 17.5415 7.0546 17.376C7.0546 17.2105 7.11655 17.0518 7.22683 16.9348C7.33711 16.8177 7.48668 16.752 7.64263 16.752Z" fill="#506176"/>
</svg>
