<svg width="14" height="14" viewBox="0 0 14 14" fill="none" xmlns="http://www.w3.org/2000/svg">
<path d="M13.5248 6.82232C13.5056 6.77912 13.0425 5.75175 12.0125 4.72171C10.6407 3.34977 8.90737 2.62457 6.99999 2.62457C5.0926 2.62457 3.35926 3.34977 1.98748 4.72171C0.957497 5.75175 0.494417 6.77911 0.475191 6.82232C0.45034 6.87826 0.4375 6.93879 0.4375 7C0.4375 7.06121 0.45034 7.12174 0.475191 7.17768C0.494417 7.22094 0.957552 8.24804 1.98754 9.27792C3.35932 10.6495 5.0926 11.3746 6.99999 11.3746C8.90737 11.3746 10.6407 10.6495 12.0124 9.27792C13.0424 8.24804 13.5056 7.22094 13.5248 7.17768C13.5496 7.12174 13.5625 7.06121 13.5625 7C13.5625 6.93879 13.5496 6.87826 13.5248 6.82232ZM6.99999 5.0313C7.38937 5.0313 7.77001 5.14677 8.09377 5.3631C8.41753 5.57943 8.66986 5.8869 8.81887 6.24665C8.96788 6.60639 9.00687 7.00224 8.93091 7.38414C8.85494 7.76604 8.66744 8.11684 8.3921 8.39217C8.11677 8.6675 7.76597 8.85501 7.38407 8.93097C7.00217 9.00694 6.60632 8.96795 6.24658 8.81894C5.88684 8.66993 5.57936 8.41759 5.36303 8.09383C5.1467 7.77007 5.03124 7.38944 5.03124 7.00005C5.03182 6.47809 5.23943 5.97767 5.60852 5.60859C5.9776 5.2395 6.47802 5.03189 6.99999 5.0313Z" />
</svg>
