<svg width="94" height="16" viewBox="0 0 94 16" fill="none" xmlns="http://www.w3.org/2000/svg">
    <path d="M18.2419 8L14.6395 6L18.9624 3.6L24.9063 6.9V9.1L18.9624 12.4L14.6395 10L18.2419 8Z" fill="#9DA9BB"/>
    <path d="M10.3167 10L6.71431 8L10.3167 6L5.99383 3.6L0.0499268 6.9V9.1L5.99383 12.4L10.3167 10Z" fill="#9DA9BB"/>
    <path d="M12.4781 12L16.0805 14L12.4781 16L8.87573 14L12.4781 12Z" fill="#9DA9BB"/>
    <path d="M16.0805 2L12.4781 0L8.87573 2L12.4781 4L16.0805 2Z" fill="#9DA9BB"/>
    <path d="M35.7898 11.296C35.0778 11.296 34.4356 11.1488 33.8633 10.8544C33.2909 10.5536 32.8417 10.1408 32.5157 9.616C32.1896 9.0848 32.0265 8.4928 32.0265 7.84C32.0265 7.1872 32.1896 6.5984 32.5157 6.0736C32.8417 5.5424 33.2909 5.1296 33.8633 4.8352C34.4356 4.5344 35.0778 4.384 35.7898 4.384C36.5019 4.384 37.1441 4.5344 37.7164 4.8352C38.2887 5.1296 38.738 5.5392 39.064 6.064C39.3901 6.5888 39.5532 7.1808 39.5532 7.84C39.5532 8.4992 39.3901 9.0912 39.064 9.616C38.738 10.1408 38.2887 10.5536 37.7164 10.8544C37.1441 11.1488 36.5019 11.296 35.7898 11.296ZM35.7898 10.2016C36.2557 10.2016 36.6749 10.1024 37.0476 9.904C37.4203 9.6992 37.7131 9.4176 37.9261 9.0592C38.139 8.6944 38.2455 8.288 38.2455 7.84C38.2455 7.392 38.139 6.9888 37.9261 6.6304C37.7131 6.2656 37.4203 5.984 37.0476 5.7856C36.6749 5.5808 36.2557 5.4784 35.7898 5.4784C35.324 5.4784 34.9047 5.5808 34.5321 5.7856C34.1594 5.984 33.8666 6.2656 33.6536 6.6304C33.4407 6.9888 33.3342 7.392 33.3342 7.84C33.3342 8.288 33.4407 8.6944 33.6536 9.0592C33.8666 9.4176 34.1594 9.6992 34.5321 9.904C34.9047 10.1024 35.324 10.2016 35.7898 10.2016Z" fill="#9DA9BB"/>
    <path d="M43.564 6.016C44.0831 6.016 44.5456 6.1248 44.9516 6.3424C45.3642 6.56 45.6869 6.8672 45.9199 7.264C46.1528 7.6608 46.2692 8.1184 46.2692 8.6368C46.2692 9.1552 46.1528 9.616 45.9199 10.0192C45.6869 10.416 45.3642 10.7232 44.9516 10.9408C44.5456 11.1584 44.0831 11.2672 43.564 11.2672C42.8453 11.2672 42.2763 11.0368 41.8571 10.576V13.0624H40.6093V6.0736H41.7972V6.7456C42.0035 6.5024 42.2563 6.32 42.5558 6.1984C42.8619 6.0768 43.198 6.016 43.564 6.016ZM43.4243 10.24C43.8835 10.24 44.2595 10.0928 44.5523 9.7984C44.8517 9.504 45.0015 9.1168 45.0015 8.6368C45.0015 8.1568 44.8517 7.7696 44.5523 7.4752C44.2595 7.1808 43.8835 7.0336 43.4243 7.0336C43.1248 7.0336 42.8553 7.1008 42.6157 7.2352C42.3761 7.3632 42.1865 7.5488 42.0467 7.792C41.907 8.0352 41.8371 8.3168 41.8371 8.6368C41.8371 8.9568 41.907 9.2384 42.0467 9.4816C42.1865 9.7248 42.3761 9.9136 42.6157 10.048C42.8553 10.176 43.1248 10.24 43.4243 10.24Z" fill="#9DA9BB"/>
    <path d="M52.2641 8.6656C52.2641 8.7488 52.2574 8.8672 52.2441 9.0208H48.0615C48.1347 9.3984 48.3244 9.6992 48.6305 9.9232C48.9433 10.1408 49.3293 10.2496 49.7885 10.2496C50.3741 10.2496 50.8566 10.064 51.2359 9.6928L51.9047 10.432C51.6651 10.7072 51.3623 10.9152 50.9963 11.056C50.6303 11.1968 50.2177 11.2672 49.7585 11.2672C49.1729 11.2672 48.6571 11.1552 48.2113 10.9312C47.7654 10.7072 47.4193 10.3968 47.1731 10C46.9335 9.5968 46.8137 9.1424 46.8137 8.6368C46.8137 8.1376 46.9302 7.6896 47.1631 7.2928C47.4027 6.8896 47.7321 6.576 48.1514 6.352C48.5706 6.128 49.0431 6.016 49.5689 6.016C50.0879 6.016 50.5504 6.128 50.9564 6.352C51.369 6.5696 51.6884 6.88 51.9147 7.2832C52.1476 7.68 52.2641 8.1408 52.2641 8.6656ZM49.5689 6.976C49.1696 6.976 48.8302 7.0912 48.5507 7.3216C48.2778 7.5456 48.1114 7.8464 48.0515 8.224H51.0762C51.0229 7.8528 50.8599 7.552 50.587 7.3216C50.3142 7.0912 49.9748 6.976 49.5689 6.976Z" fill="#9DA9BB"/>
    <path d="M56.2876 6.016C56.9598 6.016 57.4988 6.2048 57.9048 6.5824C58.3107 6.96 58.5137 7.52 58.5137 8.2624V11.2H57.2659V8.416C57.2659 7.968 57.1561 7.632 56.9365 7.408C56.7169 7.1776 56.4041 7.0624 55.9982 7.0624C55.539 7.0624 55.1763 7.1968 54.9101 7.4656C54.6439 7.728 54.5108 8.1088 54.5108 8.608V11.2H53.263V6.0736H54.4509V6.736C54.6572 6.4992 54.9167 6.32 55.2295 6.1984C55.5423 6.0768 55.895 6.016 56.2876 6.016Z" fill="#9DA9BB"/>
    <path d="M62.1829 11.296C61.6438 11.296 61.1214 11.2224 60.6157 11.0752C60.1166 10.928 59.7206 10.7328 59.4278 10.4896L59.877 9.52C60.1631 9.7376 60.5125 9.9168 60.9251 10.0576C61.3444 10.192 61.7636 10.2592 62.1829 10.2592C62.702 10.2592 63.088 10.1792 63.3408 10.0192C63.6004 9.8592 63.7301 9.648 63.7301 9.3856C63.7301 9.1936 63.6569 9.0368 63.5105 8.9152C63.3708 8.7872 63.1911 8.688 62.9715 8.6176C62.7519 8.5472 62.4524 8.4672 62.0731 8.3776C61.5407 8.256 61.1081 8.1344 60.7754 8.0128C60.4493 7.8912 60.1665 7.7024 59.9269 7.4464C59.694 7.184 59.5775 6.832 59.5775 6.3904C59.5775 6.0192 59.6807 5.6832 59.887 5.3824C60.0999 5.0752 60.416 4.832 60.8353 4.6528C61.2612 4.4736 61.7803 4.384 62.3925 4.384C62.8184 4.384 63.2377 4.4352 63.6503 4.5376C64.0629 4.64 64.4189 4.7872 64.7184 4.9792L64.3091 5.9488C64.003 5.776 63.6836 5.6448 63.3508 5.5552C63.0181 5.4656 62.6953 5.4208 62.3825 5.4208C61.8701 5.4208 61.4875 5.504 61.2346 5.6704C60.9883 5.8368 60.8652 6.0576 60.8652 6.3328C60.8652 6.5248 60.9351 6.6816 61.0749 6.8032C61.2213 6.9248 61.4043 7.0208 61.6239 7.0912C61.8435 7.1616 62.143 7.2416 62.5223 7.3312C63.0414 7.4464 63.4673 7.568 63.8 7.696C64.1328 7.8176 64.4156 8.0064 64.6485 8.2624C64.8881 8.5184 65.0079 8.864 65.0079 9.2992C65.0079 9.6704 64.9014 10.0064 64.6884 10.3072C64.4821 10.608 64.166 10.848 63.7401 11.0272C63.3142 11.2064 62.7951 11.296 62.1829 11.296Z" fill="#9DA9BB"/>
    <path d="M71.186 6.0736V13.0624H69.9382V10.576C69.5189 11.0368 68.95 11.2672 68.2312 11.2672C67.7121 11.2672 67.2463 11.1584 66.8337 10.9408C66.4278 10.7232 66.1083 10.416 65.8754 10.0192C65.6491 9.6224 65.536 9.1616 65.536 8.6368C65.536 8.1184 65.6525 7.6608 65.8854 7.264C66.1183 6.8672 66.4377 6.56 66.8437 6.3424C67.2496 6.1248 67.7121 6.016 68.2312 6.016C68.5972 6.016 68.93 6.0768 69.2295 6.1984C69.5356 6.32 69.7918 6.5024 69.9981 6.7456V6.0736H71.186ZM68.371 10.24C68.8302 10.24 69.2095 10.0928 69.509 9.7984C69.8084 9.504 69.9582 9.1168 69.9582 8.6368C69.9582 8.1568 69.8084 7.7696 69.509 7.4752C69.2095 7.1808 68.8302 7.0336 68.371 7.0336C67.9118 7.0336 67.5325 7.1808 67.233 7.4752C66.9402 7.7696 66.7938 8.1568 66.7938 8.6368C66.7938 9.1168 66.9402 9.504 67.233 9.7984C67.5325 10.0928 67.9118 10.24 68.371 10.24Z" fill="#9DA9BB"/>
    <path d="M77.7798 6.0736V11.2H76.5919V10.5472C76.3922 10.7776 76.1427 10.9568 75.8432 11.0848C75.5437 11.2064 75.221 11.2672 74.8749 11.2672C74.1628 11.2672 73.6005 11.0784 73.1879 10.7008C72.782 10.3168 72.579 9.7504 72.579 9.0016V6.0736H73.8268V8.8384C73.8268 9.2992 73.9333 9.6448 74.1462 9.8752C74.3658 10.0992 74.6753 10.2112 75.0746 10.2112C75.5204 10.2112 75.8731 10.08 76.1327 9.8176C76.3989 9.5488 76.532 9.1648 76.532 8.6656V6.0736H77.7798Z" fill="#9DA9BB"/>
    <path d="M81.2503 6.016C82.0355 6.016 82.6345 6.1984 83.0471 6.5632C83.4663 6.9216 83.6759 7.4656 83.6759 8.1952V11.2H82.498V10.576C82.345 10.8 82.1254 10.9728 81.8392 11.0944C81.5597 11.2096 81.2203 11.2672 80.821 11.2672C80.4217 11.2672 80.0723 11.2032 79.7729 11.0752C79.4734 10.9408 79.2405 10.7584 79.0741 10.528C78.9144 10.2912 78.8345 10.0256 78.8345 9.7312C78.8345 9.2704 79.0109 8.9024 79.3636 8.6272C79.723 8.3456 80.2853 8.2048 81.0506 8.2048H82.4282V8.128C82.4282 7.7696 82.315 7.4944 82.0888 7.3024C81.8692 7.1104 81.5397 7.0144 81.1005 7.0144C80.801 7.0144 80.5049 7.0592 80.2121 7.1488C79.9259 7.2384 79.683 7.3632 79.4834 7.5232L78.9943 6.6496C79.2738 6.4448 79.6098 6.288 80.0025 6.1792C80.3951 6.0704 80.811 6.016 81.2503 6.016ZM81.0806 10.3936C81.3933 10.3936 81.6695 10.3264 81.9091 10.192C82.1553 10.0512 82.3283 9.8528 82.4282 9.5968V9.0016H81.1404C80.4217 9.0016 80.0624 9.2288 80.0624 9.6832C80.0624 9.9008 80.1522 10.0736 80.3319 10.2016C80.5116 10.3296 80.7611 10.3936 81.0806 10.3936Z" fill="#9DA9BB"/>
    <path d="M86.2656 6.8224C86.6249 6.2848 87.2572 6.016 88.1622 6.016V7.1584C88.0557 7.1392 87.9592 7.1296 87.8727 7.1296C87.3869 7.1296 87.0076 7.2672 86.7347 7.5424C86.4619 7.8112 86.3255 8.2016 86.3255 8.7136V11.2H85.0777V6.0736H86.2656V6.8224Z" fill="#9DA9BB"/>
    <path d="M93.9835 8.6656C93.9835 8.7488 93.9768 8.8672 93.9635 9.0208H89.7809C89.8541 9.3984 90.0438 9.6992 90.3499 9.9232C90.6627 10.1408 91.0487 10.2496 91.5078 10.2496C92.0935 10.2496 92.576 10.064 92.9553 9.6928L93.6241 10.432C93.3845 10.7072 93.0817 10.9152 92.7157 11.056C92.3497 11.1968 91.9371 11.2672 91.4779 11.2672C90.8923 11.2672 90.3765 11.1552 89.9306 10.9312C89.4848 10.7072 89.1387 10.3968 88.8925 10C88.6529 9.5968 88.5331 9.1424 88.5331 8.6368C88.5331 8.1376 88.6496 7.6896 88.8825 7.2928C89.1221 6.8896 89.4515 6.576 89.8707 6.352C90.29 6.128 90.7625 6.016 91.2882 6.016C91.8073 6.016 92.2698 6.128 92.6758 6.352C93.0884 6.5696 93.4078 6.88 93.6341 7.2832C93.867 7.68 93.9835 8.1408 93.9835 8.6656ZM91.2882 6.976C90.8889 6.976 90.5495 7.0912 90.27 7.3216C89.9972 7.5456 89.8308 7.8464 89.7709 8.224H92.7956C92.7423 7.8528 92.5793 7.552 92.3064 7.3216C92.0336 7.0912 91.6942 6.976 91.2882 6.976Z" fill="#9DA9BB"/>
</svg>
