<svg width="108" height="18" viewBox="0 0 108 18" fill="none" xmlns="http://www.w3.org/2000/svg">
    <path d="M20.9603 9L16.8214 6.75L21.7881 4.05L28.6172 7.7625V10.2375L21.7881 13.95L16.8214 11.25L20.9603 9Z" fill="#9DA9BB"/>
    <path d="M11.8547 11.25L7.71584 9L11.8547 6.75L6.88807 4.05L0.0588989 7.7625V10.2375L6.88807 13.95L11.8547 11.25Z" fill="#9DA9BB"/>
    <path d="M14.3381 13.5L18.477 15.75L14.3381 18L10.1992 15.75L14.3381 13.5Z" fill="#9DA9BB"/>
    <path d="M18.477 2.25L14.3381 0L10.1992 2.25L14.3381 4.5L18.477 2.25Z" fill="#9DA9BB"/>
    <path d="M41.1203 12.7076C40.3021 12.7076 39.5643 12.542 38.9067 12.2108C38.2492 11.8724 37.7331 11.408 37.3584 10.8176C36.9838 10.22 36.7964 9.55404 36.7964 8.81964C36.7964 8.08524 36.9838 7.42284 37.3584 6.83244C37.7331 6.23484 38.2492 5.77044 38.9067 5.43924C39.5643 5.10084 40.3021 4.93164 41.1203 4.93164C41.9384 4.93164 42.6762 5.10084 43.3338 5.43924C43.9913 5.77044 44.5075 6.23124 44.8821 6.82164C45.2568 7.41204 45.4441 8.07804 45.4441 8.81964C45.4441 9.56124 45.2568 10.2272 44.8821 10.8176C44.5075 11.408 43.9913 11.8724 43.3338 12.2108C42.6762 12.542 41.9384 12.7076 41.1203 12.7076ZM41.1203 11.4764C41.6555 11.4764 42.1372 11.3648 42.5654 11.1416C42.9935 10.9112 43.33 10.5944 43.5746 10.1912C43.8193 9.78084 43.9416 9.32364 43.9416 8.81964C43.9416 8.31564 43.8193 7.86204 43.5746 7.45884C43.33 7.04844 42.9935 6.73164 42.5654 6.50844C42.1372 6.27804 41.6555 6.16284 41.1203 6.16284C40.585 6.16284 40.1033 6.27804 39.6752 6.50844C39.247 6.73164 38.9106 7.04844 38.6659 7.45884C38.4212 7.86204 38.2989 8.31564 38.2989 8.81964C38.2989 9.32364 38.4212 9.78084 38.6659 10.1912C38.9106 10.5944 39.247 10.9112 39.6752 11.1416C40.1033 11.3648 40.585 11.4764 41.1203 11.4764Z" fill="#9DA9BB"/>
    <path d="M50.0523 6.76764C50.6487 6.76764 51.1801 6.89004 51.6465 7.13484C52.1206 7.37964 52.4914 7.72524 52.759 8.17164C53.0266 8.61804 53.1604 9.13284 53.1604 9.71604C53.1604 10.2992 53.0266 10.8176 52.759 11.2712C52.4914 11.7176 52.1206 12.0632 51.6465 12.308C51.1801 12.5528 50.6487 12.6752 50.0523 12.6752C49.2265 12.6752 48.5728 12.416 48.0911 11.8976V14.6948H46.6575V6.83244H48.0223V7.58844C48.2593 7.31484 48.5499 7.10964 48.8939 6.97284C49.2457 6.83604 49.6318 6.76764 50.0523 6.76764ZM49.8917 11.5196C50.4193 11.5196 50.8513 11.354 51.1877 11.0228C51.5318 10.6916 51.7038 10.256 51.7038 9.71604C51.7038 9.17604 51.5318 8.74044 51.1877 8.40924C50.8513 8.07804 50.4193 7.91244 49.8917 7.91244C49.5477 7.91244 49.238 7.98804 48.9628 8.13924C48.6875 8.28324 48.4696 8.49204 48.309 8.76564C48.1485 9.03924 48.0682 9.35604 48.0682 9.71604C48.0682 10.076 48.1485 10.3928 48.309 10.6664C48.4696 10.94 48.6875 11.1524 48.9628 11.3036C49.238 11.4476 49.5477 11.5196 49.8917 11.5196Z" fill="#9DA9BB"/>
    <path d="M60.0481 9.74844C60.0481 9.84204 60.0405 9.97524 60.0252 10.148H55.2196C55.3037 10.5728 55.5217 10.9112 55.8734 11.1632C56.2327 11.408 56.6762 11.5304 57.2038 11.5304C57.8766 11.5304 58.431 11.3216 58.8668 10.904L59.6352 11.7356C59.36 12.0452 59.0121 12.2792 58.5915 12.4376C58.171 12.596 57.697 12.6752 57.1694 12.6752C56.4965 12.6752 55.904 12.5492 55.3917 12.2972C54.8794 12.0452 54.4818 11.696 54.1989 11.2496C53.9236 10.796 53.786 10.2848 53.786 9.71604C53.786 9.15444 53.9198 8.65044 54.1874 8.20404C54.4627 7.75044 54.8412 7.39764 55.3229 7.14564C55.8046 6.89364 56.3474 6.76764 56.9515 6.76764C57.5479 6.76764 58.0793 6.89364 58.5457 7.14564C59.0197 7.39044 59.3867 7.73964 59.6467 8.19324C59.9143 8.63964 60.0481 9.15804 60.0481 9.74844ZM56.9515 7.84764C56.4927 7.84764 56.1028 7.97724 55.7816 8.23644C55.4681 8.48844 55.277 8.82684 55.2082 9.25164H58.6833C58.6221 8.83404 58.4348 8.49564 58.1213 8.23644C57.8078 7.97724 57.4179 7.84764 56.9515 7.84764Z" fill="#9DA9BB"/>
    <path d="M64.6709 6.76764C65.4432 6.76764 66.0625 6.98004 66.5289 7.40484C66.9953 7.82964 67.2285 8.45964 67.2285 9.29484V12.5996H65.7949V9.46764C65.7949 8.96364 65.6687 8.58564 65.4164 8.33364C65.1641 8.07444 64.8047 7.94484 64.3383 7.94484C63.8107 7.94484 63.394 8.09604 63.0882 8.39844C62.7824 8.69364 62.6294 9.12204 62.6294 9.68364V12.5996H61.1958V6.83244H62.5606V7.57764C62.7977 7.31124 63.0958 7.10964 63.4552 6.97284C63.8146 6.83604 64.2198 6.76764 64.6709 6.76764Z" fill="#9DA9BB"/>
    <path d="M71.4442 12.7076C70.8249 12.7076 70.2247 12.6248 69.6436 12.4592C69.0701 12.2936 68.6152 12.074 68.2787 11.8004L68.7948 10.7096C69.1236 10.9544 69.525 11.156 69.9991 11.3144C70.4808 11.4656 70.9625 11.5412 71.4442 11.5412C72.0406 11.5412 72.484 11.4512 72.7746 11.2712C73.0728 11.0912 73.2219 10.8536 73.2219 10.5584C73.2219 10.3424 73.1378 10.166 72.9696 10.0292C72.809 9.88524 72.6026 9.77364 72.3502 9.69444C72.0979 9.61524 71.7539 9.52524 71.318 9.42444C70.7063 9.28764 70.2094 9.15084 69.8271 9.01404C69.4524 8.87724 69.1274 8.66484 68.8522 8.37684C68.5846 8.08164 68.4508 7.68564 68.4508 7.18884C68.4508 6.77124 68.5693 6.39324 68.8063 6.05484C69.051 5.70924 69.4142 5.43564 69.8959 5.23404C70.3852 5.03244 70.9816 4.93164 71.685 4.93164C72.1744 4.93164 72.6561 4.98924 73.1301 5.10444C73.6042 5.21964 74.0132 5.38524 74.3573 5.60124L73.8871 6.69204C73.5354 6.49764 73.1684 6.35004 72.7861 6.24924C72.4038 6.14844 72.0329 6.09804 71.6736 6.09804C71.0848 6.09804 70.6452 6.19164 70.3546 6.37884C70.0717 6.56604 69.9303 6.81444 69.9303 7.12404C69.9303 7.34004 70.0106 7.51644 70.1711 7.65324C70.3393 7.79004 70.5496 7.89804 70.8019 7.97724C71.0542 8.05644 71.3983 8.14644 71.8341 8.24724C72.4305 8.37684 72.9199 8.51364 73.3022 8.65764C73.6845 8.79444 74.0094 9.00684 74.277 9.29484C74.5523 9.58284 74.6899 9.97164 74.6899 10.4612C74.6899 10.8788 74.5676 11.2568 74.3229 11.5952C74.0859 11.9336 73.7227 12.2036 73.2334 12.4052C72.744 12.6068 72.1476 12.7076 71.4442 12.7076Z" fill="#9DA9BB"/>
    <path d="M81.7882 6.83244V14.6948H80.3545V11.8976C79.8728 12.416 79.2191 12.6752 78.3933 12.6752C77.797 12.6752 77.2617 12.5528 76.7877 12.308C76.3213 12.0632 75.9543 11.7176 75.6866 11.2712C75.4267 10.8248 75.2967 10.3064 75.2967 9.71604C75.2967 9.13284 75.4305 8.61804 75.6981 8.17164C75.9657 7.72524 76.3327 7.37964 76.7991 7.13484C77.2656 6.89004 77.797 6.76764 78.3933 6.76764C78.8139 6.76764 79.1962 6.83604 79.5402 6.97284C79.892 7.10964 80.1863 7.31484 80.4234 7.58844V6.83244H81.7882ZM78.5539 11.5196C79.0815 11.5196 79.5173 11.354 79.8614 11.0228C80.2054 10.6916 80.3775 10.256 80.3775 9.71604C80.3775 9.17604 80.2054 8.74044 79.8614 8.40924C79.5173 8.07804 79.0815 7.91244 78.5539 7.91244C78.0263 7.91244 77.5905 8.07804 77.2464 8.40924C76.91 8.74044 76.7418 9.17604 76.7418 9.71604C76.7418 10.256 76.91 10.6916 77.2464 11.0228C77.5905 11.354 78.0263 11.5196 78.5539 11.5196Z" fill="#9DA9BB"/>
    <path d="M89.364 6.83244V12.5996H87.9992V11.8652C87.7698 12.1244 87.4831 12.326 87.139 12.47C86.7949 12.6068 86.4241 12.6752 86.0265 12.6752C85.2084 12.6752 84.5623 12.4628 84.0882 12.038C83.6218 11.606 83.3886 10.9688 83.3886 10.1264V6.83244H84.8223V9.94284C84.8223 10.4612 84.9446 10.85 85.1893 11.1092C85.4416 11.3612 85.7971 11.4872 86.2559 11.4872C86.7682 11.4872 87.1734 11.3396 87.4716 11.0444C87.7775 10.742 87.9304 10.31 87.9304 9.74844V6.83244H89.364Z" fill="#9DA9BB"/>
    <path d="M93.3514 6.76764C94.2536 6.76764 94.9417 6.97284 95.4158 7.38324C95.8975 7.78644 96.1383 8.39844 96.1383 9.21924V12.5996H94.785V11.8976C94.6091 12.1496 94.3568 12.344 94.028 12.4808C93.7069 12.6104 93.317 12.6752 92.8582 12.6752C92.3994 12.6752 91.998 12.6032 91.6539 12.4592C91.3099 12.308 91.0423 12.1028 90.8511 11.8436C90.6676 11.5772 90.5759 11.2784 90.5759 10.9472C90.5759 10.4288 90.7785 10.0148 91.1837 9.70524C91.5966 9.38844 92.2427 9.23004 93.122 9.23004H94.7047V9.14364C94.7047 8.74044 94.5747 8.43084 94.3148 8.21484C94.0624 7.99884 93.684 7.89084 93.1793 7.89084C92.8353 7.89084 92.495 7.94124 92.1586 8.04204C91.8298 8.14284 91.5507 8.28324 91.3214 8.46324L90.7594 7.48044C91.0805 7.25004 91.4666 7.07364 91.9177 6.95124C92.3689 6.82884 92.8467 6.76764 93.3514 6.76764ZM93.1564 11.6924C93.5158 11.6924 93.8331 11.6168 94.1083 11.4656C94.3912 11.3072 94.59 11.084 94.7047 10.796V10.1264H93.2252C92.3994 10.1264 91.9866 10.382 91.9866 10.8932C91.9866 11.138 92.0898 11.3324 92.2962 11.4764C92.5027 11.6204 92.7894 11.6924 93.1564 11.6924Z" fill="#9DA9BB"/>
    <path d="M99.1137 7.67484C99.5265 7.07004 100.253 6.76764 101.293 6.76764V8.05284C101.17 8.03124 101.06 8.02044 100.96 8.02044C100.402 8.02044 99.9662 8.17524 99.6527 8.48484C99.3392 8.78724 99.1825 9.22644 99.1825 9.80244V12.5996H97.7488V6.83244H99.1137V7.67484Z" fill="#9DA9BB"/>
    <path d="M107.981 9.74844C107.981 9.84204 107.973 9.97524 107.958 10.148H103.153C103.237 10.5728 103.455 10.9112 103.806 11.1632C104.166 11.408 104.609 11.5304 105.137 11.5304C105.81 11.5304 106.364 11.3216 106.8 10.904L107.568 11.7356C107.293 12.0452 106.945 12.2792 106.524 12.4376C106.104 12.596 105.63 12.6752 105.102 12.6752C104.429 12.6752 103.837 12.5492 103.325 12.2972C102.812 12.0452 102.415 11.696 102.132 11.2496C101.857 10.796 101.719 10.2848 101.719 9.71604C101.719 9.15444 101.853 8.65044 102.12 8.20404C102.396 7.75044 102.774 7.39764 103.256 7.14564C103.737 6.89364 104.28 6.76764 104.884 6.76764C105.481 6.76764 106.012 6.89364 106.479 7.14564C106.953 7.39044 107.32 7.73964 107.58 8.19324C107.847 8.63964 107.981 9.15804 107.981 9.74844ZM104.884 7.84764C104.426 7.84764 104.036 7.97724 103.715 8.23644C103.401 8.48844 103.21 8.82684 103.141 9.25164H106.616C106.555 8.83404 106.368 8.49564 106.054 8.23644C105.741 7.97724 105.351 7.84764 104.884 7.84764Z" fill="#9DA9BB"/>
</svg>
