<svg width="20" height="20" viewBox="0 0 20 20" fill="none" xmlns="http://www.w3.org/2000/svg">
<path d="M7.24134 14.9597C7.24134 15.0269 7.16406 15.0806 7.06661 15.0806C6.95573 15.0907 6.87844 15.037 6.87844 14.9597C6.87844 14.8925 6.95573 14.8387 7.05317 14.8387C7.15398 14.8286 7.24134 14.8824 7.24134 14.9597ZM6.19632 14.8085C6.1728 14.8757 6.24 14.953 6.34081 14.9731C6.42817 15.0067 6.52898 14.9731 6.54914 14.9059C6.5693 14.8387 6.50546 14.7614 6.40465 14.7312C6.31729 14.7077 6.21984 14.7413 6.19632 14.8085ZM7.68153 14.7513C7.58409 14.7749 7.51688 14.8387 7.52696 14.916C7.53704 14.9832 7.62441 15.0269 7.72522 15.0034C7.82266 14.9798 7.88987 14.916 7.87979 14.8488C7.86971 14.7849 7.77898 14.7413 7.68153 14.7513ZM9.89256 1.875C5.23194 1.875 1.66675 5.41331 1.66675 10.0739C1.66675 13.8004 4.01218 16.9892 7.36231 18.1116C7.79242 18.1888 7.94363 17.9234 7.94363 17.705C7.94363 17.4966 7.93355 16.3474 7.93355 15.6418C7.93355 15.6418 5.5814 16.1458 5.08745 14.6405C5.08745 14.6405 4.70438 13.6626 4.15331 13.4106C4.15331 13.4106 3.38382 12.8831 4.20707 12.8931C4.20707 12.8931 5.04376 12.9604 5.50411 13.7601C6.24 15.0571 7.4732 14.6841 7.95371 14.4624C8.031 13.9247 8.24941 13.5517 8.49135 13.33C6.61299 13.1216 4.71782 12.8495 4.71782 9.61694C4.71782 8.69288 4.9732 8.22917 5.51083 7.63777C5.42347 7.41935 5.13785 6.51882 5.5982 5.35618C6.30048 5.13777 7.91675 6.26344 7.91675 6.26344C8.58879 6.07527 9.31124 5.97782 10.027 5.97782C10.7427 5.97782 11.4651 6.07527 12.1372 6.26344C12.1372 6.26344 13.7534 5.13441 14.4557 5.35618C14.9161 6.52218 14.6305 7.41935 14.5431 7.63777C15.0807 8.23253 15.41 8.69624 15.41 9.61694C15.41 12.8595 13.4309 13.1183 11.5525 13.33C11.8616 13.5954 12.1237 14.0995 12.1237 14.8891C12.1237 16.0215 12.1137 17.4227 12.1137 17.6983C12.1137 17.9167 12.2682 18.1821 12.695 18.1048C16.0552 16.9892 18.3334 13.8004 18.3334 10.0739C18.3334 5.41331 14.5532 1.875 9.89256 1.875ZM4.93288 13.4644C4.88919 13.498 4.89928 13.5753 4.9564 13.6391C5.01016 13.6929 5.08745 13.7164 5.13113 13.6727C5.17481 13.6391 5.16473 13.5618 5.10761 13.498C5.05384 13.4442 4.97656 13.4207 4.93288 13.4644ZM4.56997 13.1922C4.54645 13.2359 4.58005 13.2897 4.64726 13.3233C4.70102 13.3569 4.76823 13.3468 4.79175 13.2997C4.81527 13.256 4.78167 13.2023 4.71446 13.1687C4.64726 13.1485 4.5935 13.1586 4.56997 13.1922ZM5.65868 14.3884C5.60492 14.4321 5.62508 14.5329 5.70237 14.5968C5.77965 14.6741 5.8771 14.6841 5.92078 14.6304C5.96446 14.5867 5.9443 14.4859 5.8771 14.422C5.80317 14.3448 5.70237 14.3347 5.65868 14.3884ZM5.27562 13.8945C5.22186 13.9281 5.22186 14.0155 5.27562 14.0927C5.32938 14.17 5.42011 14.2036 5.46379 14.17C5.51755 14.1263 5.51755 14.039 5.46379 13.9617C5.41675 13.8844 5.32938 13.8508 5.27562 13.8945Z" fill="black"/>
</svg>
