<svg width="24" height="24" viewBox="0 0 24 24" fill="none" xmlns="http://www.w3.org/2000/svg">
<path d="M16.2185 3L10.2537 8.37693C9.63612 8.9346 8.83249 9.24294 7.99819 9.24674L6.22025 9.25056L6.2145 3H3V20.8628H4.75301C5.73309 20.8628 6.64795 20.3471 7.12744 19.5C7.13128 19.4944 7.13319 19.4886 7.13704 19.4847C7.45541 18.9175 7.6146 17.7965 7.58391 17.0314C7.51486 15.2823 7.23101 14.8273 7.23101 14.8273C7.17155 16.0264 5.90954 16.0912 5.90954 16.0912C6.80714 15.2404 6.31805 14.597 6.31805 14.597C4.72807 15.7201 4.33106 14.5208 4.30038 14.4124C4.35025 14.4543 4.80288 14.8292 5.66211 13.6606C6.57123 12.4253 7.78338 10.3659 8.55439 9.83678C9.32734 9.30574 10.06 9.34953 10.06 9.34953C10.06 9.34953 10.4819 8.78233 11.5982 8.31031C12.7144 7.84208 13.4298 8.52919 13.4298 8.52919C12.2887 9.4428 10.7389 10.9426 10.6526 13.0914C10.5836 14.8311 14.3619 17.8156 13.6984 22.2237C14.0954 21.2225 14.2546 20.2194 14.1184 18.9785C14.0091 17.9773 13.3588 15.8856 13.3588 15.8856L16.9876 20.8609H21L13.1575 10.1699L21 3H16.2185Z" fill="url(#paint0_linear)"/>
<defs>
<linearGradient id="paint0_linear" x1="30.4629" y1="28.11" x2="13.7991" y2="-5.40782" gradientUnits="userSpaceOnUse">
<stop stop-color="#E40C5B"/>
<stop offset="1" stop-color="#FF4C3B"/>
</linearGradient>
</defs>
</svg>
