<svg width="24" height="24" viewBox="0 0 24 24" fill="none" xmlns="http://www.w3.org/2000/svg">
<path d="M2.65126 17.1296V17.3361C2.65126 17.3361 10.7027 14.3562 12.268 15.1258L11.3238 15.3863C11.4065 15.3863 12.9366 15.4801 12.9366 15.4801C12.9725 15.7762 13.078 16.061 13.2456 16.3142C13.4132 16.5674 13.6387 16.7826 13.9058 16.9442C14.8274 17.5144 14.8449 17.8241 14.8449 17.8241C14.8449 17.8241 14.3666 18.0071 14.3666 18.2394C14.8114 18.1201 15.2714 18.0578 15.734 18.054C16.1513 18.068 16.5651 18.1302 16.9661 18.2394C16.9661 18.2394 16.9185 18.0048 16.2749 17.8241C15.6313 17.6434 15.0102 17.0052 14.6972 16.6509C14.5094 16.4245 14.3877 16.1562 14.3438 15.8724C14.2999 15.5887 14.3354 15.2991 14.4467 15.032C14.6696 14.497 15.4485 14.199 17.0287 13.4295C18.9045 12.5214 19.3327 11.841 19.5957 11.3178C19.8586 10.7945 20.2543 9.74574 20.4722 9.25302C20.6534 8.79248 20.965 8.38689 21.3738 8.07986C21.6518 7.88043 22.919 7.43228 22.919 7.43228C22.919 7.43228 21.9523 6.66035 21.6367 6.42806C21.2423 6.07811 20.7436 5.84896 20.2067 5.7711C19.5356 5.68897 18.8544 6.10662 18.3936 6.38583C17.9328 6.66504 17.0412 7.48156 16.6806 7.71619C16.32 7.95082 15.3959 8.18545 13.9258 9.02777C12.4558 9.8701 6.62066 13.3591 6.62066 13.3591L8.12327 13.3731L1.37907 16.6509H2.05275L1.08105 17.3548C1.61923 17.4703 2.18412 17.3897 2.6613 17.1296H2.65126Z" fill="black"/>
</svg>
