<svg width="16" height="16" viewBox="0 0 16 16" fill="none" xmlns="http://www.w3.org/2000/svg">
<path d="M1.89282 7.99972C1.89282 7.58551 1.55704 7.24972 1.14282 7.24972C0.728609 7.24972 0.392822 7.58551 0.392822 7.99972H1.89282ZM7.99996 0.392578C7.58575 0.392578 7.24996 0.728365 7.24996 1.14258C7.24996 1.55679 7.58575 1.89258 7.99996 1.89258V0.392578ZM14.1071 7.99972C14.1071 11.3726 11.3728 14.1069 7.99996 14.1069V15.6069C12.2013 15.6069 15.6071 12.201 15.6071 7.99972H14.1071ZM7.99996 14.1069C4.62708 14.1069 1.89282 11.3726 1.89282 7.99972H0.392822C0.392822 12.201 3.79866 15.6069 7.99996 15.6069V14.1069ZM7.99996 1.89258C11.3728 1.89258 14.1071 4.62684 14.1071 7.99972H15.6071C15.6071 3.79841 12.2013 0.392578 7.99996 0.392578V1.89258Z" fill="#D7DEE8"/>
</svg>
