<svg width="15" height="14" viewBox="0 0 15 14" fill="none" xmlns="http://www.w3.org/2000/svg">
<g clip-path="url(#clip0_4093_475480)">
<path fill-rule="evenodd" clip-rule="evenodd" d="M8.86616 0.134045C10.2243 0.403631 11.472 1.06969 12.4516 2.04803C13.7633 3.36244 14.5 5.14332 14.5 7C14.5 8.85668 13.7633 10.6376 12.4516 11.952C11.472 12.9303 10.2243 13.5964 8.86616 13.866C7.50801 14.1355 6.10039 13.9965 4.82124 13.4666C3.5421 12.9366 2.44885 12.0393 1.6797 10.8883C0.910549 9.73733 0.500027 8.3842 0.500027 7C0.500027 5.6158 0.910549 4.26267 1.6797 3.11167C2.44885 1.96066 3.5421 1.06345 4.82124 0.53345C6.10039 0.00345114 7.50801 -0.13554 8.86616 0.134045ZM8.25005 4.1999C8.25005 3.78569 7.91426 3.4499 7.50005 3.4499C7.08583 3.4499 6.75005 3.78569 6.75005 4.1999V6.24999H4.69996C4.28575 6.24999 3.94996 6.58578 3.94996 6.99999C3.94996 7.4142 4.28575 7.74999 4.69996 7.74999H6.75005L6.75005 9.80008C6.75005 10.2143 7.08583 10.5501 7.50005 10.5501C7.91426 10.5501 8.25005 10.2143 8.25005 9.80008V7.74999H10.3001C10.7143 7.74999 11.0501 7.4142 11.0501 6.99999C11.0501 6.58578 10.7143 6.24999 10.3001 6.24999H8.25005V4.1999Z" fill="white"/>
</g>
<defs>
<clipPath id="clip0_4093_475480">
<rect width="14" height="14" fill="white" transform="translate(0.5)"/>
</clipPath>
</defs>
</svg>
