<svg width="20" height="20" viewBox="0 0 20 20" fill="none" xmlns="http://www.w3.org/2000/svg">
<path d="M7.50001 17.5H12.5M4.39087 8.12501C4.38984 7.38377 4.53552 6.64965 4.81953 5.96497C5.10354 5.2803 5.52025 4.6586 6.04565 4.13573C6.57105 3.61285 7.19474 3.19914 7.88078 2.91843C8.56681 2.63772 9.30162 2.49557 10.0429 2.50017C13.1358 2.52316 15.6098 5.09402 15.6098 8.19563V8.75001C15.6098 11.5481 16.1952 13.1718 16.7108 14.0592C16.7663 14.1541 16.7959 14.2619 16.7965 14.3718C16.7971 14.4816 16.7687 14.5897 16.7141 14.6852C16.6596 14.7806 16.5809 14.8599 16.4859 14.9152C16.3909 14.9705 16.2831 14.9997 16.1732 15H3.82686C3.71695 14.9997 3.60906 14.9705 3.51408 14.9152C3.41909 14.8599 3.34037 14.7805 3.28585 14.6851C3.23133 14.5897 3.20294 14.4815 3.20355 14.3716C3.20415 14.2617 3.23373 14.1539 3.28931 14.0591C3.80519 13.1716 4.39087 11.548 4.39087 8.75001L4.39087 8.12501Z" stroke="#1E2134" stroke-width="1.5" stroke-linecap="round" stroke-linejoin="round"/>
</svg>
