<svg width="20" height="20" viewBox="0 0 20 20" fill="none" xmlns="http://www.w3.org/2000/svg">
<path d="M16.7691 16.1813C15.8031 17.239 14.6028 18.0557 13.2642 18.5658C11.9257 19.0759 10.4862 19.2652 9.06129 19.1185C7.63638 18.9718 6.26568 18.4932 5.05913 17.7211C3.85258 16.949 2.84377 15.9049 2.11362 14.6725C1.38346 13.4401 0.95229 12.0538 0.854681 10.6246C0.757071 9.19552 0.995743 7.76342 1.55155 6.4432C2.10736 5.12299 2.96484 3.9514 4.0552 3.02242C5.14556 2.09344 6.43846 1.43292 7.8302 1.09385L8.12129 2.28866C6.91627 2.58225 5.79682 3.15415 4.85273 3.9585C3.90865 4.76286 3.16621 5.77727 2.68497 6.92037C2.20372 8.06347 1.99707 9.30345 2.08158 10.5408C2.1661 11.7782 2.53943 12.9786 3.17163 14.0456C3.80383 15.1127 4.6773 16.0167 5.72198 16.6853C6.76666 17.3538 7.95348 17.7682 9.18723 17.8952C10.421 18.0222 11.6673 17.8583 12.8263 17.4166C13.9853 16.975 15.0246 16.2679 15.861 15.352L16.7691 16.1813Z" fill="#FF4DA0"/>
<path d="M16.7691 16.1813C15.2883 17.8029 13.2745 18.839 11.0942 19.1011C8.91388 19.3633 6.71192 18.8339 4.88896 17.6095C3.06599 16.3851 1.74316 14.5469 1.16116 12.4294C0.579163 10.3119 0.776669 8.05587 1.71774 6.07173L2.82886 6.59873C2.01404 8.31669 1.84303 10.2701 2.34695 12.1035C2.85087 13.9369 3.99623 15.5285 5.57464 16.5886C7.15304 17.6488 9.0596 18.1071 10.9474 17.8802C12.8352 17.6532 14.5788 16.7561 15.861 15.352L16.7691 16.1813Z" fill="#E5007A"/>
<path d="M10.0002 17.3333C8.76749 17.3333 7.55466 17.0225 6.47382 16.4298C5.39299 15.837 4.47902 14.9813 3.8164 13.9418C3.15378 12.9023 2.76389 11.7126 2.68277 10.4826C2.60164 9.25251 2.83191 8.02186 3.35227 6.90436C3.87263 5.78685 4.66631 4.81856 5.65993 4.08897C6.65356 3.35938 7.81507 2.89204 9.03711 2.73014C10.2591 2.56825 11.5023 2.71703 12.6516 3.16272C13.8009 3.60842 14.8194 4.33665 15.6128 5.2801L14.5931 6.13757C13.9439 5.36551 13.1104 4.76957 12.1699 4.40485C11.2294 4.04012 10.2121 3.91838 9.21207 4.05086C8.21204 4.18334 7.26155 4.56578 6.44843 5.16282C5.63532 5.75987 4.98584 6.55225 4.56001 7.46674C4.13418 8.38122 3.94575 9.3883 4.01213 10.3949C4.07852 11.4015 4.39758 12.3751 4.93982 13.2257C5.48206 14.0763 6.22998 14.7766 7.11446 15.2617C7.99894 15.7467 8.99143 16.001 10.0002 16.001V17.3333Z" fill="#FF88C9"/>
<path d="M10.0002 17.3333C8.45722 17.3333 6.95355 16.8466 5.70321 15.9425C4.45286 15.0384 3.51955 13.7629 3.03611 12.2976C2.55267 10.8323 2.54373 9.25187 3.01057 7.78121C3.47741 6.31055 4.39624 5.0246 5.63628 4.10641L6.42908 5.17709C5.41432 5.92848 4.66242 6.98081 4.28039 8.18429C3.89836 9.38778 3.90567 10.6811 4.30128 11.8802C4.6969 13.0793 5.46065 14.123 6.48385 14.8629C7.50704 15.6028 8.73754 16.001 10.0002 16.001V17.3333Z" fill="#E5007A"/>
<path d="M10.0002 17.3333C8.44263 17.3333 6.9255 16.8374 5.66867 15.9174C4.41183 14.9974 3.48057 13.7011 3.00982 12.2163L4.27977 11.8137C4.665 13.0287 5.42708 14.0895 6.45558 14.8423C7.48409 15.5952 8.72559 16.001 10.0002 16.001V17.3333Z" fill="#E5007A"/>
<path d="M16.7691 16.1813C15.6858 17.3675 14.3099 18.2482 12.7791 18.7353C11.2483 19.2223 9.61635 19.2984 8.04683 18.9562C6.4773 18.6139 5.02529 17.8651 3.83626 16.785C2.64723 15.7048 1.76294 14.3311 1.27198 12.8016L2.4429 12.4257C2.868 13.7501 3.63365 14.9395 4.66317 15.8747C5.69268 16.81 6.9499 17.4583 8.30886 17.7546C9.66782 18.051 11.0808 17.9851 12.4062 17.5634C13.7317 17.1417 14.9231 16.3791 15.861 15.352L16.7691 16.1813Z" fill="#FF88C9"/>
<path d="M13.4451 14.2873C12.6988 14.887 11.8089 15.2815 10.8634 15.4317C9.91784 15.582 8.94947 15.4829 8.05401 15.1442C7.15855 14.8054 6.36703 14.2388 5.75771 13.5003C5.14839 12.7619 4.74238 11.8772 4.57984 10.9337C4.4173 9.99019 4.50386 9.02062 4.83095 8.12084C5.15804 7.22106 5.71434 6.42225 6.44483 5.8034C7.17532 5.18456 8.0547 4.76711 8.996 4.59234C9.93729 4.41757 10.9079 4.49154 11.8119 4.80693L11.359 6.1048C10.681 5.86823 9.95297 5.81275 9.24692 5.94384C8.54088 6.07493 7.88128 6.38804 7.33336 6.85223C6.78544 7.31641 6.36818 7.91558 6.12284 8.59047C5.87749 9.26537 5.81257 9.99262 5.93449 10.7003C6.0564 11.408 6.36093 12.0716 6.81797 12.6255C7.275 13.1794 7.86871 13.6044 8.54036 13.8585C9.21202 14.1126 9.93837 14.1869 10.6476 14.0742C11.3568 13.9615 12.0243 13.6656 12.5841 13.2158L13.4451 14.2873Z" fill="#FF88C9"/>
<path d="M8.73628 4.64707C9.75465 4.40665 10.8205 4.46172 11.8086 4.80581L11.3566 6.10396C10.6154 5.84586 9.81597 5.80456 9.05212 5.98489L8.73628 4.64707Z" fill="#E5007A"/>
<path d="M13.4451 14.2873C12.5937 14.9714 11.558 15.3865 10.4699 15.4798C9.38173 15.5731 8.29044 15.3404 7.33507 14.8112L8.00111 13.6087C8.71771 14.0056 9.53625 14.1802 10.3524 14.1102C11.1686 14.0403 11.9455 13.7289 12.5841 13.2158L13.4451 14.2873Z" fill="#E5007A"/>
</svg>
