<svg width="24" height="24" viewBox="0 0 24 24" fill="none" xmlns="http://www.w3.org/2000/svg">
<path d="M12.4834 18.7512C11.8747 18.6242 11.2659 19.005 11.1406 19.6396C11.0152 20.2561 11.3912 20.8726 12.0179 20.9996C12.6266 21.1265 13.2354 20.7457 13.3607 20.1111C13.4861 19.4765 13.1101 18.8781 12.4834 18.7512Z" fill="#F22279"/>
<path d="M12 2.97616C8.27587 2.97616 5.23212 6.04051 5.23212 9.83015C5.23212 10.5917 5.35745 11.3351 5.59021 12.0604C5.75135 12.55 6.28848 12.822 6.7898 12.6588C7.27322 12.4956 7.54179 11.9516 7.38065 11.4439C7.1837 10.8818 7.09418 10.2835 7.11208 9.6851C7.1837 7.12845 9.22481 5.0251 11.7493 4.89818C14.5603 4.75312 16.8879 7.01965 16.8879 9.83015C16.8879 12.4593 14.8468 14.6171 12.2865 14.7621C12.2865 14.7621 11.3375 14.8165 10.872 14.8891C10.6393 14.9253 10.4602 14.9616 10.3349 14.9797C10.2812 14.9978 10.2275 14.9435 10.2454 14.8891L10.4065 14.0912L11.2838 9.99335C11.3912 9.48564 11.069 8.97794 10.5676 8.86914C10.0663 8.76035 9.56499 9.08673 9.45756 9.59443C9.45756 9.59443 7.34484 19.5672 7.32694 19.676C7.21951 20.1837 7.54179 20.6914 8.04311 20.8002C8.54444 20.909 9.04576 20.5826 9.15319 20.0749C9.17109 19.9661 9.45756 18.6424 9.45756 18.6424C9.67242 17.627 10.496 16.8836 11.4629 16.7567C11.6777 16.7204 12.5192 16.666 12.5192 16.666C16.0106 16.394 18.7679 13.4385 18.7679 9.83015C18.7679 6.04051 15.7241 2.97616 12 2.97616Z" fill="black"/>
</svg>
