<svg width="24" height="24" viewBox="0 0 24 24" fill="none" xmlns="http://www.w3.org/2000/svg">
<path d="M3.5 14.8332C3.5 14.2073 4.00741 13.6999 4.63332 13.6999H5.76665C6.39257 13.6999 6.89997 14.2073 6.89997 14.8332V19.3665C6.89997 19.9925 6.39257 20.4999 5.76665 20.4999H4.63332C4.00741 20.4999 3.5 19.9925 3.5 19.3665V14.8332Z" fill="#4CAF50"/>
<path d="M10.2998 9.73327C10.2998 9.10735 10.8072 8.59995 11.4331 8.59995H12.5665C13.1924 8.59995 13.6998 9.10735 13.6998 9.73327V19.3665C13.6998 19.9924 13.1924 20.4998 12.5665 20.4998H11.4331C10.8072 20.4998 10.2998 19.9924 10.2998 19.3665V9.73327Z" fill="#4CAF50"/>
<path d="M17.1 4.63332C17.1 4.00741 17.6074 3.5 18.2333 3.5H19.3666C19.9925 3.5 20.4999 4.00741 20.4999 4.63332V19.3665C20.4999 19.9925 19.9925 20.4999 19.3666 20.4999H18.2333C17.6074 20.4999 17.1 19.9925 17.1 19.3665V4.63332Z" fill="#4CAF50"/>
</svg>
