<svg width="14" height="14" viewBox="0 0 14 14" fill="none" xmlns="http://www.w3.org/2000/svg">
<path d="M2.04536 5.94511H3.53175V12.0308H2.04536C1.91395 12.0308 1.78793 11.9774 1.69501 11.8823C1.6021 11.7872 1.5499 11.6582 1.5499 11.5237V6.45225C1.5499 6.31775 1.6021 6.18875 1.69501 6.09364C1.78793 5.99854 1.91395 5.94511 2.04536 5.94511ZM4.66785 5.28937L7.83882 2.04364C7.88096 2.00038 7.93695 1.97415 7.99648 1.96977C8.05602 1.96539 8.11509 1.98316 8.16285 2.01981L8.58548 2.34438C8.70285 2.43457 8.79151 2.55832 8.84027 2.70002C8.88903 2.84172 8.89571 2.99502 8.85947 3.1406L8.2882 5.43796H11.4592C11.722 5.43796 11.974 5.54482 12.1599 5.73504C12.3457 5.92526 12.4501 6.18324 12.4501 6.45225V7.51928C12.4502 7.65183 12.425 7.78312 12.3758 7.90573L10.8423 11.7169C10.8049 11.8098 10.7414 11.8893 10.6598 11.9452C10.5782 12.0011 10.4822 12.0309 10.384 12.0308H5.01814C4.88674 12.0308 4.76071 11.9774 4.6678 11.8823C4.57488 11.7872 4.52268 11.6582 4.52268 11.5237V5.64792C4.52271 5.51343 4.57492 5.38445 4.66785 5.28937Z" fill="#1E2134"/>
</svg>
