<svg width="12" height="12" viewBox="0 0 12 12" fill="none" xmlns="http://www.w3.org/2000/svg">
<path fill-rule="evenodd" clip-rule="evenodd" d="M6 12C9.31371 12 12 9.31371 12 6C12 2.68629 9.31371 0 6 0C2.68629 0 0 2.68629 0 6C0 9.31371 2.68629 12 6 12ZM5.61925 2.38849C5.51827 2.48947 5.46154 2.62643 5.46154 2.76924V6.53847C5.46154 6.68128 5.51827 6.81824 5.61925 6.91922C5.72023 7.0202 5.85719 7.07693 6 7.07693C6.14281 7.07693 6.27977 7.0202 6.38075 6.91922C6.48173 6.81824 6.53846 6.68128 6.53846 6.53847V2.76924C6.53846 2.62643 6.48173 2.48947 6.38075 2.38849C6.27977 2.2875 6.14281 2.23077 6 2.23077C5.85719 2.23077 5.72023 2.2875 5.61925 2.38849ZM5.55127 9.63311C5.68409 9.72187 5.84025 9.76924 6 9.76924C6.21421 9.76923 6.41964 9.68413 6.57111 9.53266C6.72258 9.38119 6.80768 9.17575 6.80769 8.96154C6.80769 8.8018 6.76032 8.64564 6.67157 8.51281C6.58282 8.37999 6.45668 8.27647 6.30909 8.21533C6.1615 8.1542 5.9991 8.13821 5.84243 8.16937C5.68575 8.20054 5.54183 8.27746 5.42887 8.39042C5.31592 8.50338 5.23899 8.64729 5.20783 8.80397C5.17666 8.96065 5.19266 9.12305 5.25379 9.27063C5.31492 9.41822 5.41845 9.54436 5.55127 9.63311Z" fill="#F44336"/>
</svg>
