<svg width="20" height="20" viewBox="0 0 20 20" fill="none" xmlns="http://www.w3.org/2000/svg">
<path d="M18.3334 4.92321C17.7301 5.2239 17.0514 5.37425 16.3726 5.44943C17.0514 4.99838 17.5793 4.32181 17.8809 3.57006C17.2022 3.94593 16.448 4.24664 15.6939 4.39699C14.4118 3.04384 12.2248 2.96867 10.8674 4.24664C9.96238 5.07356 9.58529 6.27635 9.88695 7.47915C7.17202 7.3288 4.60793 6.05082 2.87339 3.94593C1.96841 5.5246 2.4209 7.47914 3.92919 8.45641C3.40129 8.45641 2.87338 8.30607 2.34548 8.00537C2.34548 8.00537 2.34548 8.00536 2.34548 8.08053C2.34548 9.73437 3.4767 11.0875 5.06041 11.3882C4.53251 11.5386 4.00461 11.5386 3.55212 11.4634C4.00461 12.8165 5.28667 13.7938 6.71955 13.7938C5.51291 14.7711 4.00461 15.2221 2.49632 15.2221C2.19466 15.2221 1.96841 15.2221 1.66675 15.1469C6.19163 18.0036 12.1494 16.7256 15.0152 12.2151C15.9956 10.6365 16.5235 8.83228 16.5235 7.0281C16.5235 6.87775 16.5235 6.72739 16.5235 6.57704C17.2776 6.20117 17.8809 5.59978 18.3334 4.92321Z" fill="#00A2F5"/>
</svg>
