<svg width="20" height="20" viewBox="0 0 20 20" fill="none" xmlns="http://www.w3.org/2000/svg">
<path d="M18.125 7.50003C18.1246 7.16863 17.9928 6.8509 17.7585 6.61657C17.5241 6.38223 17.2064 6.25041 16.875 6.25003H14.375V3.75003C14.3746 3.41863 14.2428 3.1009 14.0085 2.86657C13.7741 2.63223 13.4564 2.50041 13.125 2.50003H3.125C2.7936 2.50041 2.47587 2.63223 2.24154 2.86657C2.0072 3.1009 1.87538 3.41863 1.875 3.75003V13.75C1.875 13.868 1.9084 13.9836 1.97134 14.0834C2.03429 14.1832 2.12421 14.2632 2.23069 14.314C2.33718 14.3649 2.45588 14.3845 2.57307 14.3707C2.69026 14.3569 2.80115 14.3102 2.89291 14.2361L5.625 12.0274L5.62508 14.375C5.62546 14.7064 5.75728 15.0242 5.99161 15.2585C6.22595 15.4928 6.54367 15.6247 6.87508 15.625H14.1866L17.1072 17.9861C17.1989 18.0602 17.3098 18.1069 17.427 18.1207C17.5442 18.1345 17.6629 18.1149 17.7694 18.064C17.8759 18.0132 17.9658 17.9332 18.0287 17.8334C18.0917 17.7336 18.1251 17.618 18.1251 17.5L18.125 7.50003ZM14.8006 14.514C14.6894 14.4241 14.5507 14.375 14.4077 14.375H6.87508L6.875 11.875H13.125C13.4564 11.8747 13.7741 11.7428 14.0085 11.5085C14.2428 11.2742 14.3746 10.9564 14.375 10.625V7.50003H16.875L16.8751 16.1911L14.8006 14.514Z" fill="#1E2134"/>
</svg>
