<svg width="20" height="20" viewBox="0 0 20 20" fill="none" xmlns="http://www.w3.org/2000/svg">
<path fill-rule="evenodd" clip-rule="evenodd" d="M11.1454 1.32414C11.5359 0.933619 12.1691 0.933619 12.5596 1.32414L17.8396 6.60421C18.2302 6.99473 18.2302 7.6279 17.8396 8.01842L12.4581 13.4H15.6321C16.0408 13.4 16.429 13.5786 16.695 13.8889L19.1726 16.7794C19.6174 17.2983 19.2486 18.1 18.5652 18.1H1.43485C0.751364 18.1 0.382636 17.2983 0.827441 16.7794L3.30499 13.8889C3.57097 13.5786 3.95926 13.4 4.36795 13.4H6.52381L3.50377 10.38C3.11325 9.98943 3.11325 9.35626 3.50377 8.96574L11.1454 1.32414ZM7.72381 14.6H4.36795C4.30957 14.6 4.2541 14.6255 4.2161 14.6698L2.30453 16.9H17.6955L15.7839 14.6698C15.7459 14.6255 15.6904 14.6 15.6321 14.6H11.2581L10.1981 15.66C9.80753 16.0505 9.17436 16.0505 8.78384 15.66L7.72381 14.6ZM14.3534 6.29788C14.6463 6.59078 14.6463 7.06565 14.3534 7.35854L10.8959 10.8161C10.4077 11.3043 9.61626 11.3043 9.1281 10.8161L7.41506 9.10307C7.12217 8.81018 7.12217 8.33531 7.41506 8.04241C7.70796 7.74952 8.18283 7.74952 8.47572 8.04241L10.012 9.57868L13.2928 6.29788C13.5857 6.00499 14.0605 6.00499 14.3534 6.29788Z" fill="#1E2134"/>
</svg>
