<svg width="20" height="20" viewBox="0 0 20 20" fill="none" xmlns="http://www.w3.org/2000/svg">
<path d="M15.7452 4.25477C14.6092 3.11971 13.1621 2.34695 11.5869 2.03418C10.0117 1.72141 8.37913 1.88267 6.89558 2.49757C5.41202 3.11247 4.14408 4.1534 3.25202 5.48879C2.35995 6.82418 1.88383 8.39407 1.88383 10C1.88383 11.6059 2.35995 13.1758 3.25202 14.5112C4.14408 15.8466 5.41202 16.8875 6.89558 17.5024C8.37913 18.1173 10.0117 18.2786 11.5869 17.9658C13.1621 17.6531 14.6092 16.8803 15.7452 15.7452C17.2666 14.2203 18.121 12.1541 18.121 10C18.121 7.8459 17.2666 5.77974 15.7452 4.25477ZM9.81689 10.4419L7.31689 12.9419C7.19965 13.0589 7.04076 13.1246 6.87514 13.1245C6.70951 13.1244 6.55069 13.0585 6.43357 12.9414C6.31646 12.8243 6.25062 12.6655 6.25054 12.4999C6.25045 12.3342 6.31611 12.1754 6.4331 12.0581L8.49121 10L6.4331 7.9419C6.31611 7.82466 6.25045 7.66577 6.25054 7.50014C6.25062 7.33451 6.31646 7.1757 6.43357 7.05858C6.55069 6.94146 6.70951 6.87563 6.87514 6.87554C7.04076 6.87545 7.19965 6.94112 7.31689 7.05811L9.81689 9.55811C9.87494 9.61613 9.92099 9.68502 9.95241 9.76084C9.98383 9.83666 10 9.91793 10 10C10 10.0821 9.98383 10.1633 9.95241 10.2392C9.92099 10.315 9.87494 10.3839 9.81689 10.4419ZM14.1919 10.4419L11.6919 12.9419C11.5747 13.0589 11.4158 13.1246 11.2501 13.1245C11.0845 13.1244 10.9257 13.0585 10.8086 12.9414C10.6915 12.8243 10.6256 12.6655 10.6255 12.4999C10.6254 12.3342 10.6911 12.1754 10.8081 12.0581L12.8662 10L10.8081 7.9419C10.6911 7.82466 10.6254 7.66577 10.6255 7.50014C10.6256 7.33451 10.6915 7.1757 10.8086 7.05858C10.9257 6.94146 11.0845 6.87563 11.2501 6.87554C11.4158 6.87545 11.5747 6.94112 11.6919 7.05811L14.1919 9.55811C14.2499 9.61613 14.296 9.68502 14.3274 9.76084C14.3588 9.83666 14.375 9.91793 14.375 10C14.375 10.0821 14.3588 10.1633 14.3274 10.2392C14.296 10.315 14.2499 10.3839 14.1919 10.4419Z" fill="#1E2134"/>
</svg>
