<svg width="20" height="20" viewBox="0 0 20 20" fill="none" xmlns="http://www.w3.org/2000/svg">
    <path d="M15.7452 4.25501C14.6091 3.11995 13.162 2.3472 11.5868 2.03442C10.0116 1.72165 8.37909 1.88291 6.89554 2.49781C5.41198 3.11271 4.14403 4.15365 3.25197 5.48903C2.35991 6.82442 1.88379 8.39431 1.88379 10.0002C1.88379 11.6062 2.35991 13.1761 3.25197 14.5115C4.14403 15.8469 5.41198 16.8878 6.89554 17.5027C8.37909 18.1176 10.0116 18.2788 11.5868 17.9661C13.162 17.6533 14.6091 16.8805 15.7452 15.7455C17.2666 14.2205 18.121 12.1544 18.121 10.0002C18.121 7.84614 17.2666 5.77998 15.7452 4.25501ZM9.81685 10.4421L7.31685 12.9421C7.19961 13.0591 7.04072 13.1248 6.87509 13.1247C6.70947 13.1246 6.55065 13.0588 6.43353 12.9417C6.31642 12.8246 6.25058 12.6657 6.25049 12.5001C6.25041 12.3345 6.31607 12.1756 6.43306 12.0584L8.49117 10.0002L6.43306 7.94214C6.31607 7.8249 6.25041 7.66601 6.25049 7.50039C6.25058 7.33476 6.31642 7.17594 6.43353 7.05882C6.55065 6.94171 6.70947 6.87587 6.87509 6.87579C7.04072 6.8757 7.19961 6.94136 7.31685 7.05835L9.81685 9.55835C9.8749 9.61637 9.92095 9.68526 9.95237 9.76108C9.98379 9.83691 9.99996 9.91817 9.99996 10.0002C9.99996 10.0823 9.98379 10.1636 9.95237 10.2394C9.92095 10.3152 9.8749 10.3841 9.81685 10.4421ZM14.1919 10.4421L11.6919 12.9421C11.5746 13.0591 11.4157 13.1248 11.2501 13.1247C11.0845 13.1246 10.9256 13.0588 10.8085 12.9417C10.6914 12.8246 10.6256 12.6657 10.6255 12.5001C10.6254 12.3345 10.6911 12.1756 10.8081 12.0584L12.8662 10.0002L10.8081 7.94214C10.6911 7.8249 10.6254 7.66601 10.6255 7.50039C10.6256 7.33476 10.6914 7.17594 10.8085 7.05882C10.9256 6.94171 11.0845 6.87587 11.2501 6.87579C11.4157 6.8757 11.5746 6.94136 11.6919 7.05835L14.1919 9.55835C14.2499 9.61637 14.296 9.68526 14.3274 9.76108C14.3588 9.83691 14.375 9.91817 14.375 10.0002C14.375 10.0823 14.3588 10.1636 14.3274 10.2394C14.296 10.3152 14.2499 10.3841 14.1919 10.4421Z" fill="#506176"/>
</svg>
