<svg width="20" height="20" viewBox="0 0 20 20" fill="none" xmlns="http://www.w3.org/2000/svg">
<path d="M16.692 5.18307L13.567 2.05807C13.4498 1.94085 13.2908 1.875 13.125 1.875H6.875C6.5436 1.87538 6.22587 2.0072 5.99154 2.24154C5.7572 2.47587 5.62538 2.7936 5.625 3.125V4.375H4.375C4.0436 4.37538 3.72587 4.5072 3.49154 4.74154C3.2572 4.97587 3.12538 5.2936 3.125 5.625V16.875C3.12538 17.2064 3.2572 17.5241 3.49154 17.7585C3.72587 17.9928 4.0436 18.1246 4.375 18.125H13.125C13.4564 18.1246 13.7741 17.9928 14.0085 17.7585C14.2428 17.5241 14.3746 17.2064 14.375 16.875V15.625H15.625C15.9564 15.6246 16.2741 15.4928 16.5085 15.2585C16.7428 15.0241 16.8746 14.7064 16.875 14.375V5.625C16.875 5.45925 16.8092 5.30028 16.692 5.18307ZM10.625 15H6.875C6.70924 15 6.55027 14.9342 6.43306 14.8169C6.31585 14.6997 6.25 14.5408 6.25 14.375C6.25 14.2092 6.31585 14.0503 6.43306 13.9331C6.55027 13.8158 6.70924 13.75 6.875 13.75H10.625C10.7908 13.75 10.9497 13.8158 11.0669 13.9331C11.1842 14.0503 11.25 14.2092 11.25 14.375C11.25 14.5408 11.1842 14.6997 11.0669 14.8169C10.9497 14.9342 10.7908 15 10.625 15ZM10.625 12.5H6.875C6.70924 12.5 6.55027 12.4342 6.43306 12.3169C6.31585 12.1997 6.25 12.0408 6.25 11.875C6.25 11.7092 6.31585 11.5503 6.43306 11.4331C6.55027 11.3158 6.70924 11.25 6.875 11.25H10.625C10.7908 11.25 10.9497 11.3158 11.0669 11.4331C11.1842 11.5503 11.25 11.7092 11.25 11.875C11.25 12.0408 11.1842 12.1997 11.0669 12.3169C10.9497 12.4342 10.7908 12.5 10.625 12.5ZM15.625 14.375H14.375V8.125C14.375 7.95925 14.3092 7.80028 14.192 7.68307L11.067 4.55807C10.9498 4.44085 10.7908 4.375 10.625 4.375H6.875V3.125H12.8661L15.625 5.88391V14.375Z" fill="#1E2134"/>
</svg>
