<svg width="20" height="20" viewBox="0 0 20 20" fill="none" xmlns="http://www.w3.org/2000/svg">
    <path d="M13.5962 9.34615C13.5962 11.3323 11.9861 12.9423 10 12.9423C8.0139 12.9423 6.40384 11.3323 6.40384 9.34615C6.40384 7.36005 8.0139 5.75 10 5.75C11.9861 5.75 13.5962 7.36005 13.5962 9.34615Z" fill="#6848FF"/>
    <path fill-rule="evenodd" clip-rule="evenodd" d="M5.27766 2.93251C6.67547 1.99852 8.31886 1.5 10 1.5C12.2536 1.50255 14.4141 2.3989 16.0076 3.99241C17.6011 5.58591 18.4974 7.74644 18.5 10C18.5 11.6811 18.0015 13.3245 17.0675 14.7223C16.1335 16.1202 14.806 17.2096 13.2528 17.853C11.6996 18.4963 9.99057 18.6646 8.34173 18.3367C6.6929 18.0087 5.17834 17.1991 3.9896 16.0104C2.80085 14.8217 1.9913 13.3071 1.66333 11.6583C1.33535 10.0094 1.50368 8.30036 2.14703 6.74719C2.79037 5.19402 3.87984 3.8665 5.27766 2.93251ZM13.3777 12.8962C14.1689 13.3734 14.8496 14.0135 15.3745 14.7739C16.296 13.7377 16.8983 12.4572 17.1089 11.0866C17.3195 9.71602 17.1294 8.31377 16.5615 7.04871C15.9936 5.78366 15.072 4.70975 13.9079 3.9563C12.7438 3.20285 11.3867 2.80199 9.99999 2.80199C8.61331 2.80199 7.25619 3.20285 6.09206 3.9563C4.92793 4.70975 4.00643 5.78366 3.43852 7.04871C2.87061 8.31377 2.68051 9.71602 2.8911 11.0866C3.1017 12.4572 3.70402 13.7377 4.62553 14.7739C5.15042 14.0135 5.83107 13.3734 6.6223 12.8962C7.53214 13.7651 8.74187 14.25 10 14.25C11.2581 14.25 12.4679 13.7651 13.3777 12.8962Z" fill="#6848FF"/>
</svg>
