<svg width="75" height="10" viewBox="0 0 75 10" fill="none" xmlns="http://www.w3.org/2000/svg">
<path d="M4.98496 0.5C2.50798 0.5 0.5 2.51472 0.5 5H2.74248C2.74248 3.75736 3.74647 2.75 4.98496 2.75C6.22344 2.75 7.22743 3.75736 7.22743 5V5.60202C6.56776 5.21914 5.80186 5 4.98496 5C2.50798 5 0.5 7.01472 0.5 9.5H2.74248C2.74248 8.25736 3.74647 7.25 4.98496 7.25C6.22344 7.25 7.22743 8.25736 7.22743 9.5H9.46991V5C9.46991 2.51472 7.46193 0.5 4.98496 0.5Z" fill="#9DA9BB"/>
<path d="M14.7985 9.16571L16.8734 1.24571H19.467L21.5419 9.16571H20.0083L19.5798 7.42331H16.7607L16.3321 9.16571H14.7985ZM17.1102 6.04297H19.2302L18.2717 2.1848H18.0687L17.1102 6.04297Z" fill="#9DA9BB"/>
<path d="M25.1592 9.32411C24.618 9.32411 24.1256 9.21097 23.682 8.98468C23.246 8.7584 22.9002 8.43028 22.6446 8.00034C22.389 7.5704 22.2612 7.04994 22.2612 6.43897V6.28057C22.2612 5.6696 22.389 5.14914 22.6446 4.7192C22.9002 4.28925 23.246 3.96114 23.682 3.73485C24.1256 3.50857 24.618 3.39542 25.1592 3.39542C25.693 3.39542 26.1516 3.48971 26.535 3.67828C26.9184 3.86685 27.2266 4.12708 27.4596 4.45897C27.7002 4.78331 27.8581 5.15291 27.9332 5.56777L26.5575 5.86194C26.5274 5.63565 26.4598 5.432 26.3545 5.25097C26.2493 5.06994 26.0989 4.92662 25.9035 4.82102C25.7155 4.71542 25.4787 4.66262 25.1931 4.66262C24.9074 4.66262 24.648 4.72674 24.415 4.85497C24.1895 4.97565 24.009 5.16045 23.8737 5.40937C23.7459 5.65074 23.682 5.94868 23.682 6.3032V6.41634C23.682 6.77085 23.7459 7.07257 23.8737 7.32148C24.009 7.56285 24.1895 7.74765 24.415 7.87588C24.648 7.99657 24.9074 8.05691 25.1931 8.05691C25.6216 8.05691 25.9448 7.94754 26.1628 7.7288C26.3884 7.50251 26.5312 7.20834 26.5913 6.84628L27.9671 7.1744C27.8693 7.57417 27.7002 7.94 27.4596 8.27188C27.2266 8.59622 26.9184 8.85268 26.535 9.04125C26.1516 9.22983 25.693 9.32411 25.1592 9.32411Z" fill="#9DA9BB"/>
<path d="M29.1391 9.16571V1.24571H30.56V4.244H30.7629C30.8231 4.12331 30.917 4.00262 31.0448 3.88194C31.1726 3.76125 31.3418 3.6632 31.5523 3.58777C31.7703 3.5048 32.0447 3.46331 32.3755 3.46331C32.8115 3.46331 33.1911 3.56514 33.5144 3.7688C33.8452 3.96491 34.1008 4.24022 34.2812 4.59474C34.4616 4.94171 34.5518 5.34902 34.5518 5.81668V9.16571H33.131V5.92982C33.131 5.50742 33.0257 5.19062 32.8153 4.97942C32.6123 4.76822 32.3191 4.66262 31.9357 4.66262C31.4997 4.66262 31.1614 4.80971 30.9208 5.10388C30.6802 5.39051 30.56 5.79405 30.56 6.31451V9.16571H29.1391Z" fill="#9DA9BB"/>
<path d="M37.8244 9.32411C37.4259 9.32411 37.0689 9.25623 36.7531 9.12045C36.4374 8.97714 36.1855 8.77348 35.9976 8.50948C35.8172 8.23794 35.727 7.90982 35.727 7.52514C35.727 7.14045 35.8172 6.81988 35.9976 6.56342C36.1855 6.29942 36.4411 6.10331 36.7644 5.97508C37.0952 5.83931 37.471 5.77143 37.892 5.77143H39.4256V5.45462C39.4256 5.19062 39.3429 4.97565 39.1775 4.80971C39.0122 4.63622 38.749 4.54948 38.3882 4.54948C38.0349 4.54948 37.7718 4.63245 37.5988 4.7984C37.4259 4.9568 37.3132 5.16422 37.2606 5.42068L35.9525 4.97942C36.0427 4.6928 36.1855 4.43257 36.381 4.19874C36.584 3.95737 36.8508 3.76502 37.1816 3.62171C37.5199 3.47085 37.9296 3.39542 38.4108 3.39542C39.1475 3.39542 39.7301 3.58022 40.1586 3.94982C40.5871 4.31942 40.8014 4.85497 40.8014 5.55645V7.6496C40.8014 7.87588 40.9066 7.98903 41.1171 7.98903H41.5682V9.16571H40.6209C40.3428 9.16571 40.1135 9.09782 39.9331 8.96205C39.7527 8.82628 39.6624 8.64525 39.6624 8.41897V8.40765H39.4482C39.4181 8.49817 39.3505 8.61885 39.2452 8.76971C39.14 8.91302 38.9746 9.04125 38.749 9.1544C38.5235 9.26754 38.2153 9.32411 37.8244 9.32411ZM38.0725 8.17005C38.4709 8.17005 38.7942 8.06068 39.0422 7.84194C39.2978 7.61565 39.4256 7.31771 39.4256 6.94811V6.83497H37.9935C37.7304 6.83497 37.5237 6.89154 37.3733 7.00468C37.223 7.11783 37.1478 7.27623 37.1478 7.47988C37.1478 7.68354 37.2267 7.84948 37.3846 7.97771C37.5425 8.10594 37.7718 8.17005 38.0725 8.17005Z" fill="#9DA9BB"/>
<path d="M42.607 9.16571V3.55382H44.0278V9.16571H42.607ZM43.3174 2.8976C43.0618 2.8976 42.8438 2.81462 42.6634 2.64868C42.4905 2.48274 42.404 2.264 42.404 1.99245C42.404 1.72091 42.4905 1.50217 42.6634 1.33622C42.8438 1.17028 43.0618 1.08731 43.3174 1.08731C43.5805 1.08731 43.7985 1.17028 43.9715 1.33622C44.1444 1.50217 44.2308 1.72091 44.2308 1.99245C44.2308 2.264 44.1444 2.48274 43.9715 2.64868C43.7985 2.81462 43.5805 2.8976 43.3174 2.8976Z" fill="#9DA9BB"/>
<path d="M45.6023 9.16571V3.55382H47.0006V4.28925H47.2036C47.2938 4.09314 47.4629 3.90834 47.711 3.73485C47.9591 3.55382 48.335 3.46331 48.8387 3.46331C49.2747 3.46331 49.6543 3.56514 49.9776 3.7688C50.3084 3.96491 50.564 4.24022 50.7444 4.59474C50.9248 4.94171 51.015 5.34902 51.015 5.81668V9.16571H49.5942V5.92982C49.5942 5.50742 49.4889 5.19062 49.2784 4.97942C49.0755 4.76822 48.7823 4.66262 48.3989 4.66262C47.9629 4.66262 47.6246 4.80971 47.384 5.10388C47.1434 5.39051 47.0231 5.79405 47.0231 6.31451V9.16571H45.6023Z" fill="#9DA9BB"/>
<path d="M54.2876 9.32411C53.8891 9.32411 53.532 9.25623 53.2163 9.12045C52.9006 8.97714 52.6487 8.77348 52.4608 8.50948C52.2804 8.23794 52.1901 7.90982 52.1901 7.52514C52.1901 7.14045 52.2804 6.81988 52.4608 6.56342C52.6487 6.29942 52.9043 6.10331 53.2276 5.97508C53.5583 5.83931 53.9342 5.77143 54.3552 5.77143H55.8888V5.45462C55.8888 5.19062 55.8061 4.97565 55.6407 4.80971C55.4753 4.63622 55.2122 4.54948 54.8514 4.54948C54.4981 4.54948 54.2349 4.63245 54.062 4.7984C53.8891 4.9568 53.7764 5.16422 53.7237 5.42068L52.4157 4.97942C52.5059 4.6928 52.6487 4.43257 52.8442 4.19874C53.0472 3.95737 53.314 3.76502 53.6448 3.62171C53.9831 3.47085 54.3928 3.39542 54.8739 3.39542C55.6107 3.39542 56.1933 3.58022 56.6218 3.94982C57.0503 4.31942 57.2645 4.85497 57.2645 5.55645V7.6496C57.2645 7.87588 57.3698 7.98903 57.5803 7.98903H58.0313V9.16571H57.0841C56.806 9.16571 56.5767 9.09782 56.3963 8.96205C56.2158 8.82628 56.1256 8.64525 56.1256 8.41897V8.40765H55.9114C55.8813 8.49817 55.8136 8.61885 55.7084 8.76971C55.6032 8.91302 55.4378 9.04125 55.2122 9.1544C54.9867 9.26754 54.6785 9.32411 54.2876 9.32411ZM54.5356 8.17005C54.9341 8.17005 55.2573 8.06068 55.5054 7.84194C55.761 7.61565 55.8888 7.31771 55.8888 6.94811V6.83497H54.4567C54.1936 6.83497 53.9869 6.89154 53.8365 7.00468C53.6862 7.11783 53.611 7.27623 53.611 7.47988C53.611 7.68354 53.6899 7.84948 53.8478 7.97771C54.0057 8.10594 54.2349 8.17005 54.5356 8.17005Z" fill="#9DA9BB"/>
<path d="M62.4306 9.32411C61.9269 9.32411 61.5397 9.23737 61.2691 9.06388C60.9985 8.8904 60.7992 8.69805 60.6714 8.48685H60.4685V9.16571H59.0702V1.24571H60.491V4.19874H60.694C60.7767 4.06297 60.8857 3.93474 61.021 3.81405C61.1639 3.69337 61.348 3.59531 61.5736 3.51988C61.8066 3.43691 62.0923 3.39542 62.4306 3.39542C62.8816 3.39542 63.2989 3.50857 63.6823 3.73485C64.0657 3.9536 64.3739 4.27794 64.6069 4.70788C64.84 5.13782 64.9565 5.65828 64.9565 6.26925V6.45028C64.9565 7.06125 64.84 7.58171 64.6069 8.01165C64.3739 8.4416 64.0657 8.76971 63.6823 8.996C63.2989 9.21474 62.8816 9.32411 62.4306 9.32411ZM62.0021 8.07954C62.4381 8.07954 62.8027 7.94 63.0959 7.66091C63.3891 7.37428 63.5357 6.95942 63.5357 6.41634V6.3032C63.5357 5.76011 63.3891 5.34902 63.0959 5.06994C62.8102 4.78331 62.4456 4.64 62.0021 4.64C61.566 4.64 61.2014 4.78331 60.9083 5.06994C60.6151 5.34902 60.4685 5.76011 60.4685 6.3032V6.41634C60.4685 6.95942 60.6151 7.37428 60.9083 7.66091C61.2014 7.94 61.566 8.07954 62.0021 8.07954Z" fill="#9DA9BB"/>
<path d="M66.2611 9.16571V1.24571H67.682V9.16571H66.2611Z" fill="#9DA9BB"/>
<path d="M71.8049 9.32411C71.2486 9.32411 70.7562 9.2072 70.3277 8.97337C69.9067 8.732 69.5759 8.39634 69.3354 7.9664C69.1023 7.52891 68.9858 7.016 68.9858 6.42765V6.29188C68.9858 5.70354 69.1023 5.1944 69.3354 4.76445C69.5684 4.32697 69.8954 3.99131 70.3164 3.75748C70.7374 3.51611 71.2261 3.39542 71.7824 3.39542C72.3312 3.39542 72.8085 3.51988 73.2145 3.7688C73.6204 4.01017 73.9362 4.3496 74.1617 4.78708C74.3872 5.21702 74.5 5.71862 74.5 6.29188V6.7784H70.4292C70.4442 7.16308 70.5871 7.47611 70.8577 7.71748C71.1283 7.95885 71.4591 8.07954 71.85 8.07954C72.2485 8.07954 72.5417 7.9928 72.7296 7.81931C72.9175 7.64582 73.0604 7.45348 73.1581 7.24228L74.3196 7.85325C74.2143 8.04937 74.0602 8.26434 73.8572 8.49817C73.6618 8.72445 73.3987 8.92057 73.0679 9.08651C72.7371 9.24491 72.3161 9.32411 71.8049 9.32411ZM70.4405 5.71485H73.0566C73.0266 5.39051 72.895 5.13028 72.6619 4.93417C72.4364 4.73805 72.1395 4.64 71.7711 4.64C71.3877 4.64 71.0832 4.73805 70.8577 4.93417C70.6322 5.13028 70.4931 5.39051 70.4405 5.71485Z" fill="#9DA9BB"/>
</svg>
