<svg width="14" height="14" viewBox="0 0 14 14" fill="none" xmlns="http://www.w3.org/2000/svg">
<path fill-rule="evenodd" clip-rule="evenodd" d="M7 13C10.3137 13 13 10.3137 13 7C13 3.68629 10.3137 1 7 1C3.68629 1 1 3.68629 1 7C1 10.3137 3.68629 13 7 13ZM6.57083 9.20553L10.4006 5.55019C10.5006 5.45439 10.5585 5.32281 10.5615 5.18435C10.5646 5.04588 10.5126 4.91187 10.4169 4.81173C10.3212 4.7116 10.1897 4.65353 10.0513 4.65029C9.91282 4.64705 9.77873 4.6989 9.67847 4.79445L6.20978 8.10556L4.65647 6.62211C4.55621 6.52656 4.42213 6.47472 4.28367 6.47796C4.14521 6.4812 4.0137 6.53926 3.91803 6.6394C3.82235 6.73954 3.77033 6.87355 3.7734 7.01201C3.77646 7.15048 3.83436 7.28206 3.93438 7.37786L5.84874 9.20553C5.94611 9.29818 6.07537 9.34985 6.20978 9.34985C6.34419 9.34985 6.47345 9.29818 6.57083 9.20553Z" fill="#4CAF50"/>
</svg>
