<svg width="24" height="24" viewBox="0 0 24 24" fill="none" xmlns="http://www.w3.org/2000/svg">
    <path d="M12 22C17.5228 22 22 17.5228 22 12C22 6.47715 17.5228 2 12 2C6.47715 2 2 6.47715 2 12C2 17.5228 6.47715 22 12 22Z"
          fill="url(#paint0_linear_5900_39388)"/>
    <path d="M17.7919 7.94697C18.1638 7.94697 18.4654 8.25647 18.4654 8.63826C18.4654 9.02005 18.1638 9.32955 17.7919 9.32955L17.8153 9.32891L16.9923 10.596L16.9833 10.6097C16.7949 10.8899 16.4841 11.0578 16.1516 11.0578L15.1542 11.0577C15.2476 11.2771 15.3195 11.5085 15.367 11.7489L17.4879 11.7491L17.4988 11.7489C17.6073 11.7453 17.7077 11.6882 17.7682 11.5951L18.5605 10.3752C18.5001 10.2716 18.4654 10.1504 18.4654 10.0208C18.4654 9.63905 18.767 9.32955 19.139 9.32955C19.5109 9.32955 19.8125 9.63905 19.8125 10.0208C19.8125 10.4026 19.5109 10.7121 19.139 10.7121L19.1514 10.7117L18.3286 11.9786L18.3196 11.9922C18.1312 12.2725 17.8204 12.4403 17.4879 12.4403H15.4344C15.4344 12.6771 15.4112 12.9083 15.3671 13.1317L17.4879 13.1316C17.8204 13.1316 18.1312 13.2994 18.3196 13.5797L18.3286 13.5934L19.1514 14.8602L19.1716 14.8606C19.5284 14.8781 19.8125 15.1806 19.8125 15.5511C19.8125 15.9329 19.5109 16.2424 19.139 16.2424C18.767 16.2424 18.4654 15.9329 18.4654 15.5511C18.4654 15.4216 18.5001 15.3005 18.5605 15.1969L17.7682 13.9768C17.7077 13.8838 17.6073 13.8267 17.4988 13.8231L17.4879 13.8229L15.1542 13.8229C15.0492 14.0697 14.9168 14.3015 14.7611 14.5142L16.1408 14.5142C16.4733 14.5142 16.7841 14.682 16.9725 14.9623L16.9815 14.976L17.8042 16.2427L17.8245 16.2432C18.1813 16.2607 18.4654 16.5632 18.4654 16.9337C18.4654 17.3155 18.1638 17.625 17.7919 17.625C17.4199 17.625 17.1183 17.3155 17.1183 16.9337C17.1183 16.8042 17.153 16.683 17.2134 16.5794L16.4211 15.3594C16.3606 15.2664 16.2602 15.2093 16.1517 15.2057L16.1408 15.2055L14.0875 15.2056C13.5246 15.6396 12.8249 15.8968 12.0667 15.8968C11.3085 15.8968 10.6088 15.6396 10.046 15.2057L8.01541 15.2055L8.00454 15.2057C7.89607 15.2093 7.79564 15.2664 7.73519 15.3594L6.94285 16.5794C7.00324 16.683 7.03795 16.8042 7.03795 16.9337C7.03795 17.3155 6.73639 17.625 6.3644 17.625C5.99241 17.625 5.69085 17.3155 5.69085 16.9337C5.69085 16.5519 5.99241 16.2424 6.3644 16.2424L6.35187 16.2427L7.17477 14.976L7.18379 14.9623C7.37217 14.682 7.68297 14.5142 8.01541 14.5142L9.37224 14.5142C9.21655 14.3015 9.08421 14.0697 8.97915 13.8229L6.66831 13.8229L6.65744 13.8231C6.54897 13.8267 6.44854 13.8838 6.3881 13.9768L5.5958 15.1969C5.65616 15.3005 5.69085 15.4216 5.69085 15.5511C5.69085 15.9329 5.38929 16.2424 5.0173 16.2424C4.64531 16.2424 4.34375 15.9329 4.34375 15.5511C4.34375 15.1693 4.64531 14.8598 5.0173 14.8598L5.00469 14.8602L5.82767 13.5934L5.83669 13.5797C6.02507 13.2994 6.33587 13.1316 6.66831 13.1316L8.76632 13.1317C8.72213 12.9083 8.69894 12.6771 8.69894 12.4403H6.66831C6.33587 12.4403 6.02507 12.2725 5.83669 11.9922L5.82767 11.9786L5.00469 10.7117L4.98467 10.7113C4.62783 10.6939 4.34375 10.3914 4.34375 10.0208C4.34375 9.63905 4.64531 9.32955 5.0173 9.32955C5.38929 9.32955 5.69085 9.63905 5.69085 10.0208C5.69085 10.1504 5.65614 10.2716 5.59575 10.3752L6.3881 11.5951C6.44854 11.6882 6.54897 11.7453 6.65744 11.7489L6.66831 11.7491L8.76633 11.7489C8.81389 11.5085 8.88577 11.2771 8.9792 11.0577L8.00461 11.0578C7.67217 11.0578 7.36137 10.8899 7.17299 10.6097L7.16397 10.596L6.34078 9.32891L6.33176 9.32875C5.97493 9.31128 5.69085 9.00882 5.69085 8.63826C5.69085 8.25647 5.99241 7.94697 6.3644 7.94697C6.73639 7.94697 7.03795 8.25647 7.03795 8.63826C7.03795 8.77138 7.00128 8.89572 6.93775 9.00121L7.7244 10.2126C7.78485 10.3056 7.88527 10.3627 7.99374 10.3663L8.00461 10.3665L9.37224 10.3665C9.98666 9.52694 10.9649 8.9839 12.0667 8.9839C13.1685 8.9839 14.1467 9.52694 14.7611 10.3665L16.1516 10.3665L16.1625 10.3663C16.271 10.3627 16.3714 10.3056 16.4318 10.2126L17.2185 9.00121C17.155 8.89572 17.1183 8.77138 17.1183 8.63826C17.1183 8.25647 17.4199 7.94697 17.7919 7.94697ZM12.0667 9.67519C10.5787 9.67519 9.37249 10.9132 9.37249 12.4403C9.37249 13.9675 10.5787 15.2055 12.0667 15.2055C13.5546 15.2055 14.7609 13.9675 14.7609 12.4403C14.7609 10.9132 13.5546 9.67519 12.0667 9.67519ZM12.0667 10.3665C13.1827 10.3665 14.0873 11.295 14.0873 12.4403C14.0873 13.5857 13.1827 14.5142 12.0667 14.5142C10.9507 14.5142 10.046 13.5857 10.046 12.4403C10.046 11.295 10.9507 10.3665 12.0667 10.3665ZM14.4241 6.21875L14.4638 6.21934C15.1894 6.2409 15.7712 6.85139 15.7712 7.60133C15.7712 8.3649 15.1681 8.9839 14.4241 8.9839C13.6801 8.9839 13.077 8.3649 13.077 7.60133C13.077 7.21954 13.2278 6.87389 13.4716 6.6237L14.4241 7.60133V6.21875ZM9.70926 6.21875V7.60133L10.4566 6.45084C10.8182 6.69876 11.0564 7.1215 11.0564 7.60133C11.0564 8.3649 10.4532 8.9839 9.70926 8.9839C8.96528 8.9839 8.36216 8.3649 8.36216 7.60133C8.36216 6.83775 8.96528 6.21875 9.70926 6.21875Z"
          fill="white"/>
    <defs>
        <linearGradient id="paint0_linear_5900_39388" x1="22" y1="22" x2="2" y2="2" gradientUnits="userSpaceOnUse">
            <stop stop-color="#FF0050"/>
            <stop offset="0.714448" stop-color="#7000FF"/>
            <stop offset="1" stop-color="#0027FF"/>
        </linearGradient>
    </defs>
</svg>
