<svg width="24" height="24" viewBox="0 0 24 24" fill="none" xmlns="http://www.w3.org/2000/svg">
    <path fill-rule="evenodd" clip-rule="evenodd" d="M9.3405 3.64C9.3405 3.0104 9.85089 2.5 10.4805 2.5C14.6779 2.5 18.0805 5.90264 18.0805 10.1C18.0805 10.7296 17.5701 11.24 16.9405 11.24C16.3109 11.24 15.8005 10.7296 15.8005 10.1C15.8005 7.16183 13.4187 4.78 10.4805 4.78C9.85089 4.78 9.3405 4.2696 9.3405 3.64Z" fill="#D7DEE8"/>
    <path fill-rule="evenodd" clip-rule="evenodd" d="M14.6595 20.36C14.6595 20.9896 14.1491 21.5 13.5195 21.5C9.32216 21.5 5.91951 18.0974 5.91951 13.9C5.91951 13.2704 6.4299 12.76 7.05951 12.76C7.68911 12.76 8.19951 13.2704 8.19951 13.9C8.19951 16.8381 10.5814 19.22 13.5195 19.22C14.1491 19.22 14.6595 19.7304 14.6595 20.36Z" fill="#D7DEE8"/>
    <path fill-rule="evenodd" clip-rule="evenodd" d="M3.64 14.66C3.0104 14.66 2.5 14.1496 2.5 13.52C2.5 9.32266 5.90264 5.92003 10.1 5.92003C10.7296 5.92003 11.24 6.43044 11.24 7.06004C11.24 7.68965 10.7296 8.20004 10.1 8.20004C7.16186 8.20004 4.78 10.5819 4.78 13.52C4.78 14.1496 4.2696 14.66 3.64 14.66Z" fill="#D7DEE8"/>
    <path fill-rule="evenodd" clip-rule="evenodd" d="M20.36 9.33996C20.9896 9.33996 21.5 9.85036 21.5 10.48C21.5 14.6773 18.0974 18.08 13.9 18.08C13.2704 18.08 12.76 17.5696 12.76 16.94C12.76 16.3104 13.2704 15.8 13.9 15.8C16.8381 15.8 19.22 13.4181 19.22 10.48C19.22 9.85036 19.7304 9.33996 20.36 9.33996Z" fill="#D7DEE8"/>
</svg>
