<svg width="14" height="14" viewBox="0 0 14 14" fill="none" xmlns="http://www.w3.org/2000/svg">
<path d="M13.5248 6.82278C13.5056 6.77957 13.0425 5.75226 12.0125 4.72217C10.6408 3.35023 8.90743 2.62503 7.00004 2.62503C6.59707 2.62458 6.19476 2.65738 5.79718 2.72309C5.71965 2.73603 5.64703 2.76962 5.58697 2.82034C5.5269 2.87105 5.48161 2.93701 5.45586 3.01128C5.4301 3.08555 5.42483 3.16539 5.44061 3.2424C5.45638 3.31942 5.4926 3.39075 5.54548 3.44892L11.0848 9.5422C11.1625 9.62763 11.2708 9.67889 11.3862 9.68481C11.5015 9.69072 11.6145 9.6508 11.7005 9.57376C12.9481 8.4563 13.5019 7.22984 13.5248 7.17814C13.5497 7.1222 13.5625 7.06167 13.5625 7.00046C13.5625 6.93925 13.5497 6.87872 13.5248 6.82278Z" />
<path d="M2.94878 1.89321C2.87072 1.80735 2.76175 1.75601 2.64584 1.7505C2.52993 1.74498 2.41658 1.78573 2.33071 1.86379C2.24485 1.94185 2.19351 2.05082 2.18799 2.16673C2.18248 2.28264 2.22323 2.39599 2.30129 2.48185L3.35354 3.63931C1.36724 4.85835 0.513275 6.73725 0.475237 6.82278C0.450386 6.87872 0.437546 6.93925 0.437546 7.00046C0.437546 7.06167 0.450386 7.1222 0.475237 7.17814C0.494463 7.2214 0.957598 8.2485 1.98758 9.27837C3.35936 10.65 5.09265 11.375 7.00003 11.375C7.98033 11.3807 8.95072 11.1788 9.84737 10.7825L11.0513 12.1068C11.1293 12.1927 11.2383 12.244 11.3542 12.2496C11.4701 12.2551 11.5835 12.2143 11.6694 12.1363C11.7552 12.0582 11.8066 11.9492 11.8121 11.8333C11.8176 11.7174 11.7768 11.6041 11.6988 11.5182L2.94878 1.89321ZM7.00003 8.96881C6.6402 8.96895 6.28721 8.87043 5.97946 8.68396C5.6717 8.4975 5.42097 8.23022 5.25451 7.9112C5.08805 7.59218 5.01225 7.23363 5.03534 6.87454C5.05843 6.51544 5.17954 6.16955 5.38548 5.87448L7.96698 8.71412C7.67216 8.88133 7.33897 8.96909 7.00003 8.96881Z" />
</svg>
