<svg width="20" height="20" viewBox="0 0 20 20" fill="none" xmlns="http://www.w3.org/2000/svg">
<path d="M2.92665 15.3557L3.66166 16.6346C3.81439 16.9038 4.03394 17.1153 4.29167 17.2692L6.91672 12.6923H1.66663C1.66663 12.9903 1.74299 13.2884 1.89572 13.5576L2.92665 15.3557Z" fill="#0066DA"/>
<path d="M9.99996 7.30764L7.37491 2.73071C7.11718 2.88456 6.89763 3.0961 6.7449 3.36533L1.89572 11.8269C1.7458 12.0903 1.66683 12.3886 1.66663 12.6923H6.91672L9.99996 7.30764Z" fill="#00AC47"/>
<path d="M15.7083 17.2692C15.966 17.1153 16.1856 16.9038 16.3383 16.6346L16.6438 16.1057L18.1043 13.5576C18.257 13.2884 18.3334 12.9903 18.3334 12.6923H13.0829L14.2001 14.9038L15.7083 17.2692Z" fill="#EA4335"/>
<path d="M9.99993 7.30769L12.625 2.73077C12.3672 2.57692 12.0713 2.5 11.7659 2.5H8.23399C7.92852 2.5 7.63261 2.58654 7.37488 2.73077L9.99993 7.30769Z" fill="#00832D"/>
<path d="M13.0831 12.6923H6.91667L4.29163 17.2692C4.54936 17.423 4.84527 17.5 5.15073 17.5H14.8491C15.1546 17.5 15.4505 17.4134 15.7082 17.2692L13.0831 12.6923Z" fill="#2684FC"/>
<path d="M15.6796 7.5961L13.2551 3.36533C13.1023 3.0961 12.8828 2.88456 12.625 2.73071L10 7.30764L13.0832 12.6923H18.3238C18.3238 12.3942 18.2474 12.0961 18.0947 11.8269L15.6796 7.5961Z" fill="#FFBA00"/>
</svg>
