<svg width="24" height="24" viewBox="0 0 24 24" fill="none" xmlns="http://www.w3.org/2000/svg">
<path d="M15.7498 4L10.4477 8.75495C9.89878 9.24812 9.18444 9.52079 8.44284 9.52415L6.86245 9.52753L6.85733 4H4V19.7965H5.55823C6.42941 19.7965 7.24262 19.3404 7.66883 18.5913C7.67225 18.5864 7.67395 18.5813 7.67736 18.5779C7.96036 18.0763 8.10187 17.0849 8.07459 16.4083C8.01321 14.8615 7.76089 14.4592 7.76089 14.4592C7.70805 15.5195 6.58626 15.5768 6.58626 15.5768C7.38413 14.8245 6.94938 14.2555 6.94938 14.2555C5.53606 15.2487 5.18317 14.1881 5.15589 14.0923C5.20022 14.1293 5.60256 14.4609 6.36632 13.4274C7.17443 12.335 8.25189 10.5139 8.93724 10.0459C9.6243 9.57633 10.2755 9.61505 10.2755 9.61505C10.2755 9.61505 10.6506 9.11346 11.6428 8.69604C12.635 8.28197 13.2709 8.8896 13.2709 8.8896C12.2566 9.69753 10.8791 11.0239 10.8023 12.9241C10.741 14.4626 14.0995 17.1018 13.5096 21C13.8626 20.1146 14.0041 19.2275 13.883 18.1301C13.7859 17.2448 13.2078 15.395 13.2078 15.395L16.4334 19.7948H20L13.0289 10.3405L20 4H15.7498Z" fill="url(#paint0_linear)"/>
<defs>
<linearGradient id="paint0_linear" x1="28.4115" y1="26.2054" x2="13.7211" y2="-3.49553" gradientUnits="userSpaceOnUse">
<stop stop-color="#E40C5B"/>
<stop offset="1" stop-color="#FF4C3B"/>
</linearGradient>
</defs>
</svg>
