<svg width="14" height="14" viewBox="0 0 14 14" fill="none" xmlns="http://www.w3.org/2000/svg">
<path d="M4.6 2.8V1M9.4 13V11.2M2.8 4.6H1M13 9.4H11.2M2.72725 7.03013L1.87872 7.87866C1.31638 8.44133 1.00055 9.2043 1.00067 9.9998C1.00079 10.7953 1.31685 11.5582 1.87935 12.1207C2.44185 12.6832 3.20473 12.9992 4.00022 12.9994C4.79572 12.9995 5.55869 12.6836 6.12136 12.1213L6.96989 11.2728M11.2728 6.96988L12.1214 6.12135C12.6837 5.55868 12.9995 4.79571 12.9994 4.00022C12.9993 3.20472 12.6832 2.44184 12.1207 1.87934C11.5582 1.31684 10.7953 1.00078 9.99985 1.00067C9.20436 1.00055 8.44138 1.31638 7.87872 1.87871L7.03019 2.72724" stroke="#1E2134" stroke-width="1.25" stroke-linecap="round" stroke-linejoin="round"/>
</svg>
