<svg width="14" height="14" viewBox="0 0 14 14" fill="none" xmlns="http://www.w3.org/2000/svg">
<path d="M1.75 7C1.75 6.58579 1.41421 6.25 1 6.25C0.585786 6.25 0.25 6.58579 0.25 7H1.75ZM7 0.25C6.58579 0.25 6.25 0.585786 6.25 1C6.25 1.41421 6.58579 1.75 7 1.75V0.25ZM12.25 7C12.25 9.8995 9.8995 12.25 7 12.25V13.75C10.7279 13.75 13.75 10.7279 13.75 7H12.25ZM7 12.25C4.10051 12.25 1.75 9.8995 1.75 7H0.25C0.25 10.7279 3.27208 13.75 7 13.75V12.25ZM7 1.75C9.8995 1.75 12.25 4.10051 12.25 7H13.75C13.75 3.27208 10.7279 0.25 7 0.25V1.75Z" fill="#D7DEE8"/>
</svg>
