<svg width="20" height="20" viewBox="0 0 20 20" fill="none" xmlns="http://www.w3.org/2000/svg">
<path d="M4.1 10C4.1 9.66863 3.83137 9.4 3.5 9.4C3.16863 9.4 2.9 9.66863 2.9 10H4.1ZM10 2.9C9.66863 2.9 9.4 3.16863 9.4 3.5C9.4 3.83137 9.66863 4.1 10 4.1V2.9ZM15.9 10C15.9 13.2585 13.2585 15.9 10 15.9V17.1C13.9212 17.1 17.1 13.9212 17.1 10H15.9ZM10 15.9C6.74152 15.9 4.1 13.2585 4.1 10H2.9C2.9 13.9212 6.07878 17.1 10 17.1V15.9ZM10 4.1C13.2585 4.1 15.9 6.74152 15.9 10H17.1C17.1 6.07878 13.9212 2.9 10 2.9V4.1Z" fill="#1E2134"/>
</svg>
