<svg width="24" height="24" viewBox="0 0 24 24" fill="none" xmlns="http://www.w3.org/2000/svg">
    <path d="M12 12.875L3 7.415V6.75C3 5.77875 3.801 5 4.8 5H19.2C19.6774 5 20.1352 5.18437 20.4728 5.51256C20.8104 5.84075 21 6.28587 21 6.75V7.40625L12 12.875ZM21 17.25C21 17.7141 20.8104 18.1592 20.4728 18.4874C20.1352 18.8156 19.6774 19 19.2 19H4.8C4.32261 19 3.86477 18.8156 3.52721 18.4874C3.18964 18.1592 3 17.7141 3 17.25V9.47125L4.8 10.565V17.25H19.2V10.565L21 9.47125V17.25Z" fill="#D7DEE8"/>
</svg>
