<svg xmlns="http://www.w3.org/2000/svg" width="14" height="14" viewBox="0 0 14 14" fill="none">
    <path fill-rule="evenodd" clip-rule="evenodd" d="M8.36617 0.134045C9.72432 0.403631 10.972 1.06969 11.9516 2.04803C13.2633 3.36244 14 5.14332 14 7C14 8.85668 13.2633 10.6376 11.9516 11.952C10.972 12.9303 9.72432 13.5964 8.36617 13.866C7.00801 14.1355 5.6004 13.9965 4.32125 13.4666C3.0421 12.9366 1.94885 12.0393 1.1797 10.8883C0.410553 9.73733 3.05176e-05 8.3842 3.05176e-05 7C3.05176e-05 5.6158 0.410553 4.26267 1.1797 3.11167C1.94885 1.96066 3.0421 1.06345 4.32125 0.53345C5.6004 0.00345114 7.00801 -0.13554 8.36617 0.134045ZM7.75005 4.1999C7.75005 3.78569 7.41426 3.4499 7.00005 3.4499C6.58584 3.4499 6.25005 3.78569 6.25005 4.1999V6.24999H4.19997C3.78575 6.24999 3.44997 6.58578 3.44997 6.99999C3.44997 7.4142 3.78575 7.74999 4.19997 7.74999H6.25005L6.25005 9.80008C6.25005 10.2143 6.58584 10.5501 7.00005 10.5501C7.41426 10.5501 7.75005 10.2143 7.75005 9.80008V7.74999H9.80014C10.2143 7.74999 10.5501 7.4142 10.5501 6.99999C10.5501 6.58578 10.2143 6.24999 9.80014 6.24999H7.75005V4.1999Z" fill="#6848FF"/>
</svg>
