<svg width="20" height="20" viewBox="0 0 20 20" fill="none" xmlns="http://www.w3.org/2000/svg">
<path d="M16.875 12.812H15.221C15.0865 12.3606 14.8098 11.9647 14.4321 11.6831C14.0545 11.4016 13.596 11.2495 13.125 11.2495C12.6539 11.2495 12.1954 11.4016 11.8178 11.6831C11.4401 11.9647 11.1634 12.3606 11.0289 12.812H3.12496C2.9592 12.812 2.80023 12.8779 2.68302 12.9951C2.56581 13.1123 2.49996 13.2713 2.49996 13.437C2.49996 13.6028 2.56581 13.7618 2.68302 13.879C2.80023 13.9962 2.9592 14.062 3.12496 14.062H11.0289C11.1634 14.5135 11.4401 14.9094 11.8178 15.1909C12.1954 15.4724 12.6539 15.6245 13.125 15.6245C13.596 15.6245 14.0545 15.4724 14.4321 15.1909C14.8098 14.9094 15.0865 14.5135 15.221 14.062H16.875C17.0407 14.062 17.1997 13.9962 17.3169 13.879C17.4341 13.7618 17.5 13.6028 17.5 13.437C17.5 13.2713 17.4341 13.1123 17.3169 12.9951C17.1997 12.8779 17.0407 12.812 16.875 12.812Z" fill="#1E2134"/>
<path d="M3.12492 7.18693L6.02889 7.18701C6.16343 7.63844 6.44011 8.03438 6.81778 8.31591C7.19544 8.59744 7.6539 8.74951 8.12496 8.74951C8.59601 8.74951 9.05447 8.59744 9.43214 8.31591C9.8098 8.03438 10.0865 7.63844 10.221 7.18701L16.875 7.18693C17.0407 7.18693 17.1997 7.12109 17.3169 7.00388C17.4341 6.88667 17.5 6.72769 17.5 6.56193C17.5 6.39617 17.4341 6.2372 17.3169 6.11999C17.1997 6.00278 17.0407 5.93693 16.875 5.93693L10.221 5.93701C10.0865 5.48558 9.8098 5.08965 9.43214 4.80812C9.05447 4.52659 8.59601 4.37451 8.12496 4.37451C7.6539 4.37451 7.19544 4.52659 6.81778 4.80812C6.44011 5.08965 6.16343 5.48558 6.02889 5.93701L3.125 5.93693C2.95924 5.93693 2.80022 6.00277 2.68301 6.11998C2.5658 6.23719 2.49994 6.39615 2.49994 6.56191C2.49993 6.72768 2.56578 6.88665 2.68298 7.00386C2.80019 7.12108 2.95916 7.18693 3.12492 7.18693Z" fill="#1E2134"/>
</svg>
