<svg width="20" height="20" viewBox="0 0 20 20" fill="none" xmlns="http://www.w3.org/2000/svg">
<path d="M16.8756 3.125H5.00061C4.83485 3.125 4.67588 3.19085 4.55867 3.30806C4.44146 3.42527 4.37561 3.58424 4.37561 3.75C4.37561 3.91576 4.44146 4.07473 4.55867 4.19194C4.67588 4.30915 4.83485 4.375 5.00061 4.375H16.8756V13.75C16.8756 13.9158 16.9415 14.0747 17.0587 14.1919C17.1759 14.3092 17.3348 14.375 17.5006 14.375C17.6664 14.375 17.8253 14.3092 17.9425 14.1919C18.0598 14.0747 18.1256 13.9158 18.1256 13.75V4.375C18.1252 4.0436 17.9934 3.72587 17.7591 3.49154C17.5247 3.2572 17.207 3.12538 16.8756 3.125Z" fill="#506176"/>
<path fill-rule="evenodd" clip-rule="evenodd" d="M14.3756 5.625H3.12561C2.43525 5.625 1.87561 6.18464 1.87561 6.875V15.625C1.87561 16.3154 2.43525 16.875 3.12561 16.875H14.3756C15.066 16.875 15.6256 16.3154 15.6256 15.625V6.875C15.6256 6.18464 15.066 5.625 14.3756 5.625ZM6.87561 13.125H10.6256C10.7914 13.125 10.9503 13.0592 11.0676 12.9419C11.1848 12.8247 11.2506 12.6658 11.2506 12.5C11.2506 12.3342 11.1848 12.1753 11.0676 12.0581C10.9503 11.9408 10.7914 11.875 10.6256 11.875H6.87561C6.70985 11.875 6.55088 11.9408 6.43367 12.0581C6.31646 12.1753 6.25061 12.3342 6.25061 12.5C6.25061 12.6658 6.31646 12.8247 6.43367 12.9419C6.55088 13.0592 6.70985 13.125 6.87561 13.125ZM6.87561 10.625H10.6256C10.7914 10.625 10.9503 10.5592 11.0676 10.4419C11.1848 10.3247 11.2506 10.1658 11.2506 10C11.2506 9.83424 11.1848 9.67527 11.0676 9.55806C10.9503 9.44085 10.7914 9.375 10.6256 9.375H6.87561C6.70985 9.375 6.55088 9.44085 6.43367 9.55806C6.31646 9.67527 6.25061 9.83424 6.25061 10C6.25061 10.1658 6.31646 10.3247 6.43367 10.4419C6.55088 10.5592 6.70985 10.625 6.87561 10.625Z" fill="#506176"/>
</svg>
