<svg width="20" height="20" viewBox="0 0 20 20" fill="none" xmlns="http://www.w3.org/2000/svg">
<path fill-rule="evenodd" clip-rule="evenodd" d="M13.567 2.05807L16.692 5.18307C16.8092 5.30028 16.875 5.45925 16.875 5.625V14.375C16.8746 14.7064 16.7428 15.0241 16.5085 15.2585C16.2741 15.4928 15.9564 15.6246 15.625 15.625H14.375V16.875C14.3746 17.2064 14.2428 17.5241 14.0085 17.7585C13.7741 17.9928 13.4564 18.1246 13.125 18.125H4.375C4.0436 18.1246 3.72587 17.9928 3.49154 17.7585C3.2572 17.5241 3.12538 17.2064 3.125 16.875V5.625C3.12538 5.2936 3.2572 4.97587 3.49154 4.74154C3.72587 4.5072 4.0436 4.37538 4.375 4.375H5.625V3.125C5.62538 2.7936 5.7572 2.47587 5.99154 2.24154C6.22587 2.0072 6.5436 1.87538 6.875 1.875H13.125C13.2908 1.875 13.4498 1.94085 13.567 2.05807ZM14.375 14.375H15.625V5.88391L12.8661 3.125H6.875V4.375H10.625C10.7908 4.375 10.9498 4.44085 11.067 4.55807L14.192 7.68307C14.3092 7.80028 14.375 7.95925 14.375 8.125V14.375ZM7.7833 11.6216C8.04036 11.3912 8.06199 10.9961 7.83162 10.739C7.60125 10.482 7.20612 10.4604 6.94906 10.6907L4.87333 12.551C4.74104 12.6695 4.66545 12.8388 4.66545 13.0164C4.66545 13.194 4.74104 13.3633 4.87333 13.4818L6.94906 15.3421C7.20612 15.5724 7.60125 15.5508 7.83162 15.2938C8.06199 15.0367 8.04036 14.6416 7.7833 14.4112L6.22693 13.0164L7.7833 11.6216ZM10.5509 10.6907C10.2939 10.4604 9.89875 10.482 9.66838 10.739C9.43801 10.9961 9.45964 11.3912 9.7167 11.6216L11.2731 13.0164L9.7167 14.4112C9.45964 14.6416 9.43801 15.0367 9.66838 15.2938C9.89875 15.5508 10.2939 15.5724 10.5509 15.3421L12.6267 13.4818C12.759 13.3633 12.8345 13.194 12.8345 13.0164C12.8345 12.8388 12.759 12.6695 12.6267 12.551L10.5509 10.6907Z" fill="#1E2134"/>
</svg>
