<svg xmlns="http://www.w3.org/2000/svg" width="600" height="600" fill="none" xmlns:v="https://vecta.io/nano"><path opacity=".8" d="M599.99 325.105v-1.17l-14.68 8.639c-10.6 6.56-18.569 12.56-24.679 19.09-5.58 5.95-12.44 10.06-22.42 14.15-1.45.6-2.96 1.2-4.83 1.9l-4.75 1.82c-9.78 3.75-14.8 6.27-18.98 10.1-4.229 3.88-9.649 6.6-16.769 8.84-1.95.6-3.99 1.169-6.47 1.799l-6.14 1.53c-5.29 1.35-8.3 2.37-10.54 3.78-3.08 1.92-6.63 3.26-12.74 5.03l-4.82 1.36-5.169 1.52a110.06 110.06 0 0 0-11.2 4.05c-2.7 1.15-5.5 3.93-8.78 8.4a157.8 157.8 0 0 0-6.15 9.2c-5.75 9.07-7.58 11.74-10.24 14.51-1.445 1.499-2.982 2.908-4.6 4.22-2.33 1.9-10.39 7.539-11.81 8.739-1.475 1.138-2.721 2.547-3.67 4.15-1.239 2.3-1.899 4.57-2.779 8.87-2.17 10.61-3.52 14.81-8.2 22.1-4.07 6.33-6.8 9.88-9.83 12.99-.47.48-.95.96-1.5 1.48l-3.75 3.56a133.42 133.42 0 0 0-4.86 4.899 42.45 42.45 0 0 0-9.89 16.94c-2.5 8.13-2.72 15.47-1.76 27.22.47 5.82.51 6.36.51 8.18 0 10.509.12 17.529.63 25.779.24 4.05.56 7.8.97 11.22h.9c-1.13-9.58-1.5-21.83-1.5-36.999 0-1.86-.04-2.4-.52-8.26-.94-11.63-.72-18.87 1.73-26.85 1.88-6.194 5.185-11.862 9.65-16.55 1.67-1.759 3.18-3.269 4.83-4.849l3.75-3.57 1.52-1.5c3.09-3.16 5.86-6.76 9.96-13.15 4.77-7.42 6.15-11.71 8.34-22.44.86-4.21 1.499-6.4 2.679-8.6.68-1.25 1.79-2.48 3.43-3.86 1.38-1.15 9.43-6.799 11.8-8.719 1.71-1.4 3.26-2.81 4.7-4.3 2.72-2.85 4.56-5.54 10.36-14.67 1.926-3.12 3.96-6.172 6.1-9.15 3.2-4.33 5.9-7.01 8.37-8.07 3.5-1.5 7.06-2.77 11.1-4.02 2.52-.776 5.054-1.509 7.599-2.2l2.38-.67c6.19-1.79 9.81-3.16 12.98-5.15 2.14-1.33 5.08-2.33 10.27-3.65l6.14-1.53c2.5-.63 4.55-1.199 6.52-1.819 7.24-2.27 12.79-5.06 17.149-9.05 4.05-3.72 9-6.2 18.66-9.9l4.75-1.82 4.85-1.91c10.1-4.15 17.07-8.32 22.76-14.4 6.05-6.45 13.949-12.4 24.489-18.92 1.56-.96 7.82-4.599 14.15-8.329v-64.579c-4 8.15-8.52 14.849-12.7 17.899-2.51 1.82-5.38 4.02-9.04 6.92l-6.23 4.98-1.27 1.02-4.869 3.9c-7.55 6-12.9 10.05-17.61 13.19-3.1 2.06-3.86 2.78-8.06 7.13-5.84 6.07-11.72 8.62-29.15 10.95-11.299 1.5-20.039 4.909-30.749 11.069l-6.97 4.1c-2.7 1.58-4.69 2.69-6.64 3.66-5.63 2.8-10.47 4.17-15.71 4.17-17.129 0-41.439 11.51-51.629 22.83-12.049 13.4-31.419 27.699-45.249 31.159-7.4 1.85-11.85 7.05-14.04 14.69-1.26 4.4-1.58 8.28-1.58 13.82 0 .82.01.98.24 3.63.45 5.18.35 8.72-.77 13.26-1.53 6.199-4.89 12.599-10.589 19.429-13.87 16.65-22.88 46.579-22.88 71.679l.06 8.75c.12 10.8.1 15.8-.22 21.949-.56 11.18-2.09 20.73-5 29.3h-1.05c2.94-8.56 4.49-18.12 5.05-29.349.31-6.13.34-11.1.22-21.9l-.06-8.75c0-25.32 9.07-55.469 23.12-72.319 5.599-6.72 8.879-12.99 10.379-19.029 1.09-4.4 1.18-7.85.74-12.93-.23-2.7-.24-2.86-.24-3.72 0-5.62.32-9.57 1.62-14.1 2.28-7.95 6.97-13.44 14.76-15.39 13.6-3.4 32.82-17.589 44.749-30.839 10.37-11.53 34.95-23.17 52.369-23.17 5.07 0 9.77-1.33 15.26-4.07 1.93-.96 3.9-2.05 6.58-3.62-.3.18 5.33-3.16 6.98-4.11 10.82-6.209 19.66-9.669 31.109-11.199 17.23-2.3 22.9-4.75 28.57-10.64 4.25-4.41 5.04-5.16 8.22-7.28 4.68-3.11 10.01-7.14 17.55-13.14l4.859-3.89 1.28-1.02 6.23-4.98c3.67-2.9 6.55-5.12 9.07-6.95 4.37-3.19 9.16-10.559 13.29-19.399v66.899zm0-116.228c-.62.01-1.27.06-1.95.13-6.13.629-13.83 3.449-21.83 7.449-3.64 1.82-8.459 2.67-14.169 2.71-4.7.04-9.72-.47-14.73-1.33-1.7-.3-3.26-.61-4.67-.93-1.172-.257-2.357-.447-3.55-.57a274.16 274.16 0 0 0-16.66-.88c-10.42-.16-17.199.74-17.969 2.73-.38.97.6 2.55 3.03 4.87 1.01.97 2.22 2.03 4.039 3.55l4.79 4.02c1.39 1.2 3.1 1.92 5.5 2.5.7.16.86.2 2.64.54 3.53.7 5.03 1.25 6.15 2.63 1.41 1.76 1.4 4.54-.15 8.88-2.44 6.83-5.72 10.05-10.19 10.33-3.63.23-7.6-1.29-14.519-5.06-4.53-2.47-6.82-7.3-8.32-15.26-.17-.87-.32-1.78-.5-2.86l-.43-2.76c-1.05-6.58-1.9-9.2-3.73-10.11-.81-.4-1.59-.74-2.36-1-2.27-.77-4.6-1.02-8.1-.92-2.29.07-14.7 1-13.77.93-20.549 1.37-28.799 5.05-37.089 14.99a131.94 131.94 0 0 0-4.25 5.44l-2.3 3.09-2.51 3.32c-4.1 5.36-7.06 8.48-10.39 11.12-.65.52-1.33 1.04-2.13 1.62l-4.11 2.94c-1.76 1.277-3.481 2.607-5.16 3.99-4.55 3.74-9.74 8.599-16.249 15.379-8.25 8.58-11.78 13.54-11.7 15.95.07 1.65 1.64 2.11 6.79 2.38l2.98.2c2.95.24 5.09.73 6.809 1.68 7.48 4.15 11.63 7.26 13.95 11.58 3.3 6.15.8 12.88-8.89 20.259-8.279 6.3-11.099 10.37-11.309 14.96-.06 1.17 0 1.93.26 4.43.69 6.47.25 10.65-2.8 17.42a44.27 44.27 0 0 1-4.16 7.53c-2.82 3.97-5.47 5.74-10.6 7.69l-4.27 1.59c-1.8.68-3.38 1.36-5.01 2.14-4.18 2-8.4 4.599-13.1 8.239-8.44 6.51-13.23 14.56-15.979 25.06-1.1 4.2-1.55 6.81-2.8 15.21-1.26 8.6-2.17 12.64-4.08 16.549-2.1 4.28-11.93 26.59-12.97 28.88-2.037 4.511-4.16 8.981-6.37 13.41-4.07 8.11-7.61 14.07-10.73 17.809-5.38 6.46-8.98 14.37-13.77 28.42l-1.89 5.6c-1.8 5.35-2.96 8.6-4.26 11.85-6.129 15.319-25.429 26.309-46.459 26.309-11.2 0-20.579-2.74-31.019-8.55-5.6-3.13-4.55-2.42-22.26-14.539-14.33-9.8-17.7-10.73-20.47-6.9-.37.5-1.809 2.74-1.829 2.77-1.5 2.085-3.151 4.057-4.94 5.9l-6.97 7.449c-2.38 2.6-4.3 4.81-5.98 6.93-1.947 2.376-3.649 4.942-5.08 7.66-1.29 2.57-1.9 5.25-2.66 10.6l-.46 3.18h-1l.47-3.32c.77-5.45 1.4-8.2 2.75-10.9a46.53 46.53 0 0 1 5.2-7.84c1.7-2.14 3.63-4.38 6.03-6.979l6.96-7.46c1.752-1.806 3.369-3.738 4.84-5.78l1.86-2.8c3.249-4.5 7.079-3.44 21.839 6.67 17.67 12.079 16.62 11.379 22.19 14.479 10.3 5.73 19.499 8.43 30.529 8.43 20.65 0 39.57-10.77 45.54-25.689a219.18 219.18 0 0 0 4.239-11.8l1.88-5.6c4.83-14.16 8.47-22.14 13.96-28.73 3.05-3.659 6.56-9.569 10.6-17.609 1.97-3.93 4.04-8.31 6.35-13.38l12.98-28.91c1.85-3.789 2.75-7.759 4-16.249 1.24-8.44 1.7-11.07 2.81-15.32 2.799-10.7 7.709-18.94 16.329-25.6a73.19 73.19 0 0 1 13.29-8.349c1.66-.8 3.27-1.48 5.08-2.18l4.28-1.59c4.95-1.88 7.44-3.55 10.14-7.33 1.35-1.9 2.68-4.3 4.06-7.37 2.97-6.58 3.39-10.59 2.72-16.9-.22-1.516-.31-3.048-.27-4.58.22-4.94 3.21-9.24 11.699-15.7 9.33-7.109 11.66-13.339 8.62-18.999-2.2-4.09-6.25-7.12-13.549-11.17-1.57-.88-3.6-1.33-6.42-1.57-.8-.07-1.34-.1-2.95-.19-5.77-.3-7.63-.85-7.72-3.34-.1-2.81 3.5-7.87 11.97-16.69 6.53-6.8 11.749-11.689 16.329-15.449a119.89 119.89 0 0 1 5.2-4.03l4.12-2.94a66.44 66.44 0 0 0 2.1-1.59c3.26-2.6 6.16-5.65 10.21-10.94l2.5-3.32 2.31-3.09c1.8-2.39 3.04-4 4.29-5.48 8.47-10.17 16.98-13.96 37.269-15.3-.44.02 12-.9 14.32-.98 3.62-.1 6.05.16 8.46.98a20.15 20.15 0 0 1 2.47 1.04c2.27 1.14 3.17 3.87 4.27 10.85l.44 2.76c.17 1.07.33 1.97.5 2.83 1.44 7.69 3.62 12.29 7.8 14.57 6.759 3.68 10.599 5.15 13.989 4.94 4-.25 6.99-3.17 9.3-9.67 1.45-4.04 1.46-6.49.32-7.92-.9-1.12-2.28-1.62-5.57-2.27-.894-.161-1.784-.345-2.67-.55-2.54-.6-4.39-1.4-5.93-2.71l-4.78-4.01c-1.398-1.156-2.759-2.356-4.079-3.6-2.73-2.6-3.86-4.43-3.28-5.95 1.02-2.64 7.819-3.54 18.929-3.37a230.74 230.74 0 0 1 16.73.88c2.76.39 3.2.49 3.68.6 1.4.3 2.95.62 4.62.91 4.805.868 9.677 1.31 14.56 1.32 5.56-.04 10.239-.86 13.729-2.6 8.1-4.05 15.89-6.899 22.17-7.559a30.09 30.09 0 0 1 2.05-.13v1zm0-100.939v1.5c-8.62 16.05-17.27 29.55-23.65 35.92-3.19 3.2-7.619 4.899-13.539 5.559-4.45.48-8.28.4-19.18-.2-9.91-.55-15.32-.44-20.52.78-4.926 1.154-9.946 1.86-14.999 2.11l-2.25.14c-12.49.75-19.37 1.78-32.72 5.74-4.5 1.33-9.27 2.49-14.3 3.48a246.2 246.2 0 0 1-32.599 3.97c-7.56.45-13.21.57-20.24.57-5.4 0-11.9 1.61-17.999 5.18-8.3 4.87-15.06 12.87-19.53 24.5a68.7 68.7 0 0 1-4.56 9.8c-3.6 6.199-6.92 8.989-13.38 12.179l-4.03 1.96c-5.515 2.679-10.619 6.13-15.16 10.25-8.199 7.33-13.719 16.63-22.539 35.6l-2.08 4.489c-7.3 15.7-11.5 23.3-17.35 29.87-7.7 8.66-20.249 14.42-40.309 20.08l-19.24 5.13c-6.92 1.87-11.68 3.339-15.63 4.919-10.549 4.22-18.709 10.52-36.379 26.52l-1.7 1.54c-8.58 7.76-13.41 11.9-18.81 15.88-3.95 2.9-7.999 5.67-12.969 8.91l-12.33 7.939c-11.52 7.5-18.53 13.04-24.62 20.08-2.403 2.754-4.558 5.716-6.44 8.85-4.13 6.91-6.27 13.15-9.199 25.11l-1.54 6.259c-.6 2.45-1.15 4.54-1.72 6.58-2.97 10.7-6.9 17.36-14.78 26.91l-4.1 4.96c-1.437 1.734-2.834 3.502-4.19 5.3-1.456 1.908-2.615 4.025-3.44 6.28-1.16 3.23-1.52 5.9-1.87 11.939-.58 10.05-1.42 15.04-4.63 22.67l-6.41 15.8a73.48 73.48 0 0 1-3.57 7.4c-2.88 5.14-6.71 10.12-13.12 16.949-5.96 6.36-8.87 10.9-10.61 16-.531 1.586-.991 3.194-1.38 4.82l-.46 1.84h-1.03l.52-2.08c.52-2.09.92-3.49 1.4-4.9 1.8-5.25 4.78-9.9 10.84-16.36 6.35-6.78 10.13-11.699 12.97-16.769 1.308-2.363 2.483-4.797 3.52-7.29.75-1.76 4.84-12.06 6.4-15.8 3.17-7.5 3.99-12.4 4.56-22.33.35-6.14.72-8.879 1.93-12.229a24.89 24.89 0 0 1 3.58-6.54c1.27-1.7 2.6-3.37 4.22-5.34l4.11-4.95c7.8-9.46 11.66-16 14.59-26.54l1.71-6.56 1.53-6.259c2.96-12.04 5.13-18.36 9.319-25.39 1.84-3.08 4-6.05 6.54-8.99 6.17-7.12 13.24-12.7 24.83-20.26l12.33-7.939c4.96-3.22 8.999-5.98 12.919-8.87 5.37-3.95 10.19-8.08 18.74-15.82l1.7-1.54c17.76-16.09 25.98-22.43 36.669-26.699 4-1.6 8.8-3.09 15.75-4.96.21-.06 14.87-3.9 19.22-5.13 19.9-5.61 32.319-11.31 39.849-19.78 5.76-6.48 9.93-14.02 17.18-29.64l2.09-4.499c8.87-19.07 14.44-28.46 22.769-35.9a65.53 65.53 0 0 1 15.38-10.4l4.04-1.97c6.3-3.1 9.47-5.77 12.96-11.769 1.745-3.101 3.243-6.334 4.48-9.67 4.56-11.84 11.47-20.02 19.97-25 6.249-3.66 12.929-5.32 18.499-5.32 7.01 0 12.65-.12 20.17-.57a245.27 245.27 0 0 0 32.469-3.96c5-.98 9.75-2.13 14.22-3.45 13.43-3.98 20.38-5.02 32.94-5.78l2.24-.14c5.759-.37 9.799-.9 14.849-2.09 5.31-1.25 10.79-1.349 22.6-.7 9.04.5 12.84.58 17.21.1 5.71-.619 9.939-2.259 12.949-5.259 6.44-6.45 15.3-20.37 24.35-36.72h-.01zm0 450.203c-1.28-4.6-2.2-10.55-3.33-20.25l-.24-2.04-.23-2.03c-1.82-15.7-3.07-21.98-5.55-24.469-2.46-2.46-3.04-5.03-2.52-8.64.1-.6.18-1.1.39-2.15.69-3.54.77-5.04.08-6.84-.91-2.38-3.31-4.41-7.79-6.26-5.08-2.09-6.52-4.84-4.89-8.44.66-1.45 1.79-3.02 3.52-5.01 1.04-1.2 5.48-5.96 5.08-5.53 6.15-6.7 8.98-11.34 8.98-16.48-.07-2.518.488-5.015 1.622-7.265a15.2 15.2 0 0 1 4.878-5.624v1.26c-1.769 1.367-3.19 3.133-4.146 5.154a14.17 14.17 0 0 0-1.354 6.475c0 5.47-2.93 10.29-9.24 17.16a434.84 434.84 0 0 0-5.07 5.5c-1.67 1.93-2.75 3.43-3.36 4.77-1.37 3.04-.23 5.22 4.36 7.1 4.71 1.95 7.32 4.16 8.34 6.83.78 2.04.7 3.67-.03 7.4-.2 1.03-.3 1.51-.38 2.09-.48 3.33.03 5.59 2.23 7.8 2.74 2.739 3.98 8.959 5.84 25.059l.24 2.03.23 2.04c.82 7.01 1.53 12.06 2.34 16.03v4.33zm0-62.159l-4.95-11.17c-1.02-2.53-1.25-3.8-.91-5.18.2-.84 2.05-4.68 2.32-5.33a70.85 70.85 0 0 0 3.54-11.2v3.99a62.73 62.73 0 0 1-2.62 7.6c-.31.75-2.09 4.46-2.27 5.18-.28 1.12-.08 2.22.87 4.57.41 1.02 2.5 5.7 4.02 9.09v2.45zm0-85.089c-1.65 1.66-3.66 2.9-6.4 4.13-.25.1-13.97 5.47-20.4 8.43-9.349 4.32-16.699 5.9-23.029 5.25-5.08-.53-9.02-2.25-14.77-5.92l-3.2-2.07c-1.768-1.164-3.583-2.255-5.44-3.27-4.05-2.18-3.25-5.8 1.47-10.47 3.71-3.68 9.6-7.93 18.73-13.8l4.46-2.819c17.949-11.33 18.219-11.5 22.269-14.74 11.25-9 19.69-14.02 26.31-15.1v1.02c-6.37 1.1-14.62 6-25.69 14.86-4.1 3.28-4.339 3.44-22.359 14.799l-4.45 2.83c-9.07 5.83-14.92 10.05-18.57 13.66-4.31 4.28-4.95 7.13-1.7 8.88 1.7.91 3.29 1.88 5.5 3.3l3.2 2.08c5.64 3.59 9.45 5.25 14.34 5.76 6.13.64 13.32-.9 22.519-5.15 6.46-2.98 20.18-8.35 20.4-8.44 3.04-1.37 5.1-2.71 6.81-4.69v1.47zm0-41.369v1c-6.56.26-12.11 3.13-19.71 9.08l-4.63 3.68c-1.411 1.122-2.879 2.17-4.4 3.14-.82.52-5.509 3.329-6.219 3.759a251.03 251.03 0 0 0-8.87 5.6c-2.807 1.851-5.53 3.826-8.16 5.92-4.61 3.72-7.4 6.9-7.97 9.35-.63 2.67 1.48 4.53 7.05 5.46 10.7 1.78 20.919-.05 30.449-4.65 6.353-3.064 12.136-7.189 17.1-12.2a41.79 41.79 0 0 0 5.36-7.42v1.92a38.89 38.89 0 0 1-4.64 6.19 62.91 62.91 0 0 1-17.39 12.41c-9.7 4.68-20.129 6.55-31.049 4.73-6.06-1-8.65-3.29-7.85-6.67.64-2.74 3.53-6.05 8.31-9.9 2.35-1.9 5.1-3.88 8.24-5.97 2.73-1.82 5.58-3.61 8.9-5.62l6.219-3.749c1.26-.8 2.6-1.76 4.3-3.09l4.63-3.67c7.77-6.1 13.49-9.04 20.33-9.3zm0-154.598v1c-1.75-.24-4.3.23-7.82 1.55-10.01 3.75-13.8 5.07-19.15 6.76l-3.87 1.24c-1.48.5-3.159.76-6.739 1.16l-2.64.3c-7.8.94-11.28 2.47-11.28 6.07 0 4.45 2.89 13.18 7.96 25.81a57.38 57.38 0 0 1 2.33 7.6l.84 3.46c1.86 7.619 3.17 10.709 5.56 11.669 2.21.88 4.699.6 7.469-.72 3.48-1.69 7.22-4.94 11.2-9.47 1.52-1.699 2.97-3.489 4.59-5.569l3.16-4.1c2.59-3.23 6.07-12.21 8.39-20.23v3.45c-2.29 7.2-5.27 14.5-7.61 17.41-.44.55-2.67 3.46-3.15 4.09-1.63 2.1-3.1 3.899-4.62 5.619-4.08 4.61-7.9 7.94-11.53 9.7-2.989 1.44-5.769 1.75-8.279.74-2.84-1.13-4.2-4.34-6.15-12.35l-.84-3.459c-.8-3.2-1.47-5.45-2.28-7.46-5.14-12.8-8.04-21.55-8.04-26.19 0-4.37 3.84-6.06 12.16-7.07l2.65-.3c3.5-.39 5.15-.64 6.53-1.1l3.879-1.26c5.34-1.68 9.11-3 19.1-6.74 3.53-1.32 6.22-1.84 8.18-1.61zM0 292.005c10.13-11.31 18.13-23.199 23.07-35.389 3.3-8.14 6.09-16.12 10.81-30.55l1.59-4.84c6.53-19.939 10.11-29.819 14.77-39.559 6.07-12.72 12.55-21.18 20.27-25.54 6.66-3.76 10.2-7.859 12.22-13.149a46.6 46.6 0 0 0 1.86-6.58c1.23-5.2 2.05-7.59 3.93-10.36 2.45-3.62 6.27-6.53 12.099-8.96 15.78-6.58 16.73-7.04 18.05-9.01.65-.98.83-2.15.74-4.51-.03-.73-.23-3.82-.24-4-.111-1.848-.168-3.699-.17-5.55 0-10.04.18-11.37 2.37-13.15.52-.42 1.13-.8 2.07-1.3l2.84-1.48c3.19-1.712 6.24-3.675 9.12-5.87 2.06-1.54 2.64-2.14 8.01-7.93 3.78-4.09 6.209-6.36 8.959-8.12 3.64-2.33 7.2-3.12 10.9-2.11 4.4 1.2 10.81 2 18.78 2.46 6.9.4 12.9.5 21.95.5 4.87 0 8.969.47 15.399 1.57 7.77 1.33 9.3 1.54 12.38 1.54 4.05 0 7.43-.88 10.68-2.95 5.06-3.22 8.11-4.67 11.2-5.2 3.62-.64 4.77-.46 16.549 2.06 17.26 3.7 30.85 1.36 41.06-9.7 5.1-5.53 5.48-8.9 3.48-14.8-.83-2.42-1.03-3.1-1.17-4.3-.29-2.52.5-4.71 2.71-6.93 2.65-2.65 4.72-9.17 6.22-18.29h2.03c-1.56 9.71-3.77 16.65-6.83 19.7-1.79 1.8-2.36 3.39-2.14 5.28.11 1 .3 1.63 1.07 3.9 2.22 6.53 1.76 10.66-3.9 16.8-10.77 11.66-25.07 14.13-42.949 10.3-11.42-2.45-12.55-2.62-15.78-2.06-2.77.48-5.62 1.84-10.47 4.92a20.93 20.93 0 0 1-11.76 3.27c-3.25 0-4.81-.22-12.73-1.57-6.31-1.08-10.319-1.54-15.049-1.54-9.1 0-15.11-.1-22.07-.5-8.09-.47-14.62-1.29-19.2-2.54-5.62-1.53-10.17 1.38-17.849 9.66-5.5 5.94-6.08 6.53-8.28 8.18-2.962 2.255-6.099 4.271-9.38 6.03-.68.37-2.58 1.35-2.84 1.49-.84.44-1.35.76-1.75 1.08-1.47 1.2-1.63 2.4-1.63 11.6 0 1.85.06 3.54.17 5.44 0 .17.2 3.28.24 4.03.1 2.75-.13 4.29-1.08 5.71-1.67 2.5-2.27 2.8-18.95 9.74-5.48 2.29-8.99 4.96-11.199 8.24-1.71 2.51-2.47 4.73-3.64 9.7-.83 3.5-1.21 4.92-1.94 6.83-2.18 5.73-6.05 10.189-13.1 14.179-7.3 4.12-13.55 12.28-19.46 24.66-4.6 9.64-8.17 19.46-14.67 39.319l-1.58 4.84c-4.75 14.47-7.54 22.48-10.86 30.69-5.28 13.01-13.95 25.649-24.93 37.599v-2.97-.01zm0 77.999v-.5l1-.01c6.32 0 7.47 5.2 4.6 13.36-1.467 3.951-3.344 7.739-5.6 11.299v-1.92a57.78 57.78 0 0 0 4.65-9.719c2.69-7.6 1.71-12.02-3.65-12.02-.34 0-.67 0-1 .02v-46.589a341.11 341.11 0 0 0 13.71-8.34c13.66-9.46 29.789-37.6 29.789-53.589 0-18.1 21.57-72.639 32.229-79.419 12.71-8.09 32.239-27.96 35.799-37.749 1.93-5.3 5.5-7.27 14.42-9.37 6.15-1.44 8.64-2.42 10.67-4.79 1.5-1.74 2.72-4.79 4.33-10.3l2.43-8.46c3.62-12.08 7.299-18.49 13.469-20.389 2.5-.76 3.03-.98 9.74-3.7 7.49-3.03 11.97-4.43 17.12-4.92 6.75-.65 13.13.75 19.55 4.67 5.43 3.32 12.189 4.72 20.169 4.56 6.03-.12 12.2-1.07 19.83-2.8 1.82-.4 7.38-1.74 8.26-1.94 2.69-.6 4.34-.89 5.48-.89 4.97 0 8.93-.05 14.199-.27 7.9-.32 15.56-.92 22.75-1.88 8.5-1.14 15.9-2.73 21.88-4.82 18.899-6.62 32.639-18.3 33.669-27.59.29-2.56.4-2.96 2.79-11.11 2.33-7.95 3.21-12.93 2.72-18.23-.2-2.24-.69-4.38-1.48-6.42-1.5-3.92-2.63-9.4-3.43-16.18h.9c.77 6.47 1.89 11.72 3.47 15.82a24.93 24.93 0 0 1 1.54 6.69c.5 5.46-.4 10.54-2.77 18.6-2.36 8.06-2.47 8.47-2.74 10.95-1.09 9.75-15.1 21.68-34.329 28.41-6.06 2.12-13.52 3.72-22.09 4.87-7.22.96-14.92 1.57-22.83 1.89-5.299.21-9.269.27-14.249.27-1.04 0-2.64.27-5.26.87l-8.26 1.94c-7.68 1.73-13.92 2.7-20.03 2.82-8.15.17-15.099-1.27-20.709-4.7-6.23-3.81-12.4-5.16-18.93-4.54-5.04.48-9.44 1.86-16.84 4.86-6.75 2.74-7.29 2.95-9.82 3.73-5.73 1.76-9.279 7.96-12.809 19.719l-2.43 8.46c-1.66 5.65-2.91 8.78-4.53 10.67-2.22 2.58-4.84 3.62-12.01 5.3-7.8 1.83-11.13 3.66-12.9 8.54-3.65 10.039-23.32 30.059-36.199 38.249-10.33 6.59-31.769 60.789-31.769 78.589 0 16.339-16.3 44.779-30.219 54.409-2.14 1.48-8.24 5.12-14.28 8.68v-1.16 46.089-.02zm0-173.697v-1.11c7.42-3.82 14.55-10.23 21.84-18.98 3.8-4.56 14.21-18.78 15.79-20.55 1.8-2.04 4.06-3.96 7.42-6.449l5.49-3.99c9.36-6.85 14-11.96 15.98-19.36.8-2.98 1.54-6.78 2.46-12.3l2.56-15.79c2.87-16.77 5.73-26.79 10.07-32.1 10.85-13.24 19.889-27.539 19.889-32.669 0-2.54.34-3.35 6.05-15.71l1.77-3.93c2.5-5.75 3.9-10.04 4.14-13.36h1c-.23 3.48-1.66 7.87-4.23 13.76l-1.78 3.95c-5.54 12.01-5.95 12.99-5.95 15.29 0 5.47-9.09 19.84-20.109 33.31-4.2 5.12-7.03 15.06-9.86 31.64l-2.57 15.78c-.92 5.56-1.67 9.38-2.48 12.4-2.05 7.68-6.82 12.93-16.35 19.91l-5.49 3.979c-3.3 2.45-5.51 4.34-7.27 6.31-1.53 1.73-11.94 15.93-15.76 20.53-7.52 9.02-14.88 15.6-22.61 19.46v-.02zm0 361.824v-4.33c.48 2.36 1 4.35 1.6 6.15 2 6.03 4.6 8.26 8.19 6.59 18.97-8.85 33.709-24.14 33.709-39.54 0-16.2 6.37-31.989 17.1-46.299 1.88-2.5 3.66-4.4 5.53-6 .73-.62 1.45-1.18 2.3-1.8l2-1.43c3.68-2.68 5.32-5.28 7.08-12.59.75-3.07 1.38-5.02 4.2-13.259l.63-1.88c3.24-9.58 4.56-14.97 4.17-18.65-.48-4.43-3.8-5.23-11.3-1.64a81.2 81.2 0 0 1-9.15 3.7c-13.89 4.67-26.96 5.8-42.659 5.42l-1.95-.05-1.45-.02a39.79 39.79 0 0 0-15.05 2.96c-1.771.747-3.435 1.726-4.95 2.91v-1.26a23.53 23.53 0 0 1 4.55-2.57c5.361-2.198 11.129-3.227 16.92-3.02l1.95.05c15.6.38 28.57-.75 42.319-5.37a80.12 80.12 0 0 0 9.04-3.65c8.04-3.84 12.16-2.85 12.72 2.43.42 3.89-.92 9.34-4.21 19.08l-.64 1.88c-2.8 8.199-3.43 10.149-4.16 13.179-1.82 7.52-3.59 10.34-7.47 13.16l-2 1.43c-.84.6-1.54 1.15-2.25 1.75a35.48 35.48 0 0 0-5.37 5.84c-10.61 14.15-16.9 29.739-16.9 45.699 0 15.88-15 31.45-34.289 40.45-4.3 2.01-7.39-.66-9.56-7.18a45.11 45.11 0 0 1-.65-2.13v-.01zm0-62.159v-2.45l1.46 3.27c2.1 4.8 3.46 10.33 4.26 16.769.66 5.3.84 9.3 1.04 18.5.2 9.32.5 12.75 1.63 15.05 1.28 2.6 3.67 2.35 8.29-1.5 17.14-14.3 21.82-22.9 21.82-38.619 0-7.17 1.1-12.39 3.7-17.68 2.27-4.67 3.65-6.62 13.4-19.62a69.84 69.84 0 0 1 7.6-8.79 44.87 44.87 0 0 1 3.54-3.06 20.48 20.48 0 0 0 .89-.74c1.094-.916 1.989-2.045 2.63-3.32.928-1.909 1.684-3.896 2.26-5.939l.37-1.2.36-1.15.66-2.16c.45-1.53.74-2.68.91-3.66.38-2.2.12-3.49-.85-4.15-2.35-1.61-9.28-.24-23.8 4.94-9.54 3.4-16.12 4.17-27.85 4.26-7.71.06-10.43.4-13.25 2.12-3.48 2.12-5.84 6.399-7.58 14.259-.5 2.2-.99 4.19-1.49 5.98v-3.98l.51-2.22c1.8-8.1 4.28-12.599 8.04-14.899 3.04-1.85 5.86-2.2 13.77-2.26 11.61-.09 18.1-.84 27.51-4.2 14.93-5.32 21.95-6.71 24.7-4.83 1.38.94 1.71 2.6 1.28 5.15-.24 1.277-.554 2.539-.94 3.78l-.66 2.17-.36 1.15-.37 1.2a36.62 36.62 0 0 1-2.33 6.099 11.41 11.41 0 0 1-2.86 3.61l-.92.77-1.02.83a43.64 43.64 0 0 0-2.47 2.18 68.85 68.85 0 0 0-7.48 8.66c-9.7 12.93-11.07 14.87-13.31 19.46-2.52 5.15-3.59 10.22-3.59 17.24 0 16.039-4.82 24.909-22.18 39.379-5.04 4.2-8.18 4.55-9.83 1.18-1.22-2.5-1.52-5.94-1.73-15.47-.2-9.16-.38-13.15-1.03-18.4-.79-6.339-2.12-11.799-4.19-16.489l-.54-1.21v-.01zM379.264.01h1.04l1.5 5.26c3.28 11.56 4.89 19.33 5.26 27.799.49 11.01-1.52 21.26-6.63 31.17-7.8 15.13-20.47 26.5-36.22 34.099-12.38 5.96-26.119 9.17-36.219 9.17-6.84 0-17.24 1.38-37.27 4.62l-2.269.37c-24.5 3.99-31.65 5-37.46 5-3.49 0-4.08-.08-19.54-2.8l-8.999-1.5c-20.23-2.96-31-1.2-31.96 7.86l-.29 2.81-.27 2.73c-1.1 10.9-2.02 15.73-4.31 19.96-2.9 5.339-7.77 7.949-15.63 7.949-10.199 0-12.919.6-15.499 3.17.52-.51-5.03 5.85-8.16 8.7-2.75 2.5-14.32 12.55-15.77 13.83l-6.54 5.92c-6.97 6.49-11.809 11.76-14.6 16.15-5.92 9.299-10.48 18.039-11.69 24.079-1.66 8.3 3.67 9.54 19.02 1.21a626.36 626.36 0 0 1 44.54-21.899l15.679-6.95c5.05-2.25 8.3-3.8 10.78-5.15l1.95-1.07 2.18-1.18c1.76-.94 3.38-1.76 5-2.55 18.1-8.72 34.479-10.46 50.329-1.2 22.89 13.34 38.28 37.019 38.28 56.439 0 19.12-.73 25.13-5.18 33.199a45.36 45.36 0 0 1-4.94 7.12c-6.47 7.77-11.81 16.2-12.76 21.27-1.2 6.34 4.69 7.03 20.17-.05 13.309-6.08 22.399-14.95 28.499-26.32a80.54 80.54 0 0 0 6.1-15.129c.9-2.98 3.17-11.65 3.41-12.48.439-1.659 1.025-3.275 1.75-4.83 7.47-14.93 21.09-30.5 36.249-37.24 7.61-3.379 13-9.649 19.4-20.789l5.14-9.17c3.52-6.1 6.22-9.7 9.37-11.98 10.15-7.4 28.699-11.1 50.289-11.1 7.52 0 16.54-1.24 27.509-3.58a418.34 418.34 0 0 0 14.96-3.52c-1.3.33 15.54-3.979 19.42-4.889 14.15-3.33 41.069-5.01 64.109-5.01 17.36 0 27.819-9.23 38.529-38.67 6.62-18.209 6.62-26.369 2.69-34.349l-1.18-2.37c-.993-1.885-1.521-3.98-1.54-6.11 0-4.03 0-4.01 2.5-24.56l1.12-9.64c.9-8.45 1.38-15.2 1.38-20.8l-.04-3h1l.04 3c0 5.65-.48 12.43-1.39 20.9l-1.11 9.66c-2.5 20.45-2.5 20.47-2.5 24.44 0 1.97.45 3.57 1.45 5.68a140.83 140.83 0 0 0 1.17 2.36c4.06 8.24 4.06 16.68-2.65 35.129-10.84 29.8-21.629 39.33-39.469 39.33-22.96 0-49.829 1.68-63.889 4.99-3.86.9-20.69 5.199-19.4 4.879-4.974 1.268-9.972 2.445-14.99 3.53-11.039 2.35-20.109 3.6-27.719 3.6-21.4 0-39.759 3.67-49.699 10.9-3 2.19-5.64 5.7-9.1 11.68l-5.14 9.17c-6.49 11.3-12 17.71-19.86 21.199-14.899 6.63-28.379 22.03-35.749 36.77a28.15 28.15 0 0 0-1.69 4.67l-3.4 12.5c-1.54 5.296-3.614 10.422-6.19 15.299-6.2 11.56-15.44 20.58-28.959 26.76-16.1 7.36-23 6.55-21.58-1.04 1-5.29 6.4-13.83 12.99-21.73 1.825-2.161 3.439-4.491 4.82-6.96 4.35-7.879 5.06-13.769 5.06-32.719 0-19.04-15.19-42.399-37.72-55.549-15.57-9.08-31.619-7.38-49.449 1.21a132.23 132.23 0 0 0-7.14 3.71l-1.95 1.07a159.3 159.3 0 0 1-10.85 5.19l-15.689 6.95c-15.103 6.696-29.934 13.988-44.46 21.859-15.95 8.66-22.37 7.16-20.48-2.29 1.24-6.2 5.83-15.02 11.82-24.419 2.85-4.48 7.74-9.8 14.769-16.34 1.98-1.85 4.12-3.79 6.56-5.94l15.75-13.82c3.09-2.8 8.6-9.14 8.14-8.67 2.82-2.82 5.75-3.46 16.199-3.46 7.5 0 12.04-2.43 14.75-7.419 2.2-4.07 3.11-8.84 4.2-19.59l.26-2.73.3-2.81c.56-5.42 4.47-8.5 11.23-9.6 5.44-.88 12.51-.51 21.86.86 2.7.4 5.47.86 9.039 1.49 15.33 2.7 15.96 2.8 19.36 2.8 5.73 0 12.9-1.03 37.3-5l2.269-.36c20.1-3.26 30.52-4.64 37.43-4.64 9.95 0 23.539-3.18 35.779-9.08 15.57-7.5 28.09-18.73 35.78-33.649 5.02-9.75 7-19.82 6.51-30.669-.37-8.37-1.96-16.08-5.23-27.569l-1.57-5.53zm13.679 0h1.02c.78 3.9 1.92 8.7 3.51 14.88 3.63 14.05 3.06 27.03-.75 38.769a61 61 0 0 1-11.349 20.68c-5.815 6.87-12.285 13.156-19.32 18.77-11.32 9.02-23.36 15.49-35.95 18.39-7.459 1.69-14.989 3.048-22.569 4.07l-10.3 1.32-9.39 1.12c-11.53 1.41-17.45 2.55-21.639 4.46-9.28 4.21-28.35 6.04-49.21 6.04-1.37 0-2.8-.12-4.3-.35-2.62-.41-4.999-1.03-9.139-2.29-7.34-2.21-9.63-2.75-12.63-2.56-3.9.23-6.63 2.29-8.47 6.89-1.86 4.66-2.42 7.53-3.34 14.98-1.1 8.979-2.87 12.119-9.97 14.299-2.343.678-4.619 1.569-6.8 2.66a23.67 23.67 0 0 0-1.76 1.02l-1.34.86c-1.9 1.14-3.86 1.49-9.25 1.49-3.199 0-8.829-.55-9.509-.39-1.22.28-.75-.14-7.14 6.24-1.5 1.5-3.49 3.18-6.32 5.37l-7.94 6.03c-4.96 3.78-8.33 6.6-11.06 9.38-4.88 4.98-6.85 9.15-5.56 12.7 1.34 3.67 4.07 4.419 8.9 2.82a55.85 55.85 0 0 0 7.77-3.48l9.37-4.96a116.73 116.73 0 0 1 12.31-5.68c3.738-1.476 7.421-3.091 11.039-4.84l13-6.22c4.41-2.1 8.1-3.78 11.65-5.29 17.14-7.3 29.32-9.9 37.669-6.65l5.43 2.1 6.02 2.38c4.45 1.791 8.811 3.793 13.07 6 18.34 9.63 30.349 22.13 34.789 39.869 6.96 27.85 3.6 45.53-8.079 62.399-3.97 5.75-3.52 9.2.06 8.97 4.14-.28 10.209-4.95 15.109-12.52 3.1-4.8 5.1-10.449 8.05-21.529l1.69-6.35 1.83-6.5c4.93-16.56 11-27.28 21.56-34.76 7.15-5.059 23.729-15.499 25.479-16.749 6.74-4.81 10.53-9.44 14.34-18 7.74-17.44 21.09-24.34 44.469-24.34 9.36 0 17.91-1.13 29.53-3.489l6.2-1.28 5.66-1.13c4.03-.74 7.04-1.1 9.61-1.1 4.439 0 9.389-1 31.389-5.99l2.95-.66c16.34-3.67 25.64-5.35 31.659-5.35 1.54 0 2.4.01 6.4.1 7.8.15 12.27.13 17.33-.2 16.41-1.06 26.73-5.36 29.8-14.56 1.021-3.006 2.206-5.953 3.549-8.83-.15.31 2.29-4.96 2.9-6.38 5.38-12.3 5.57-21.919-1.44-39.439a86.37 86.37 0 0 1-5.259-20.72c-1.61-11.98-1.38-23.14.1-40.349l.2-2.12h1l-.2 2.2c-1.48 17.15-1.7 28.24-.11 40.139.879 7.012 2.626 13.888 5.199 20.47 7.1 17.78 6.91 27.67 1.43 40.219-.62 1.43-3.06 6.72-2.91 6.4-1.331 2.844-2.506 5.758-3.52 8.73-3.229 9.72-13.899 14.15-30.679 15.24-5.1.33-9.58.35-17.42.2l-6.37-.1c-5.909 0-15.179 1.67-31.439 5.32l-2.95.67c-22.16 5.02-27.05 6.01-31.609 6.01-2.5 0-5.45.36-9.43 1.09l-5.64 1.11-6.2 1.29c-11.68 2.369-20.3 3.509-29.73 3.509-23.019 0-35.999 6.71-43.529 23.66-3.9 8.8-7.82 13.58-14.7 18.5-1.78 1.27-18.359 11.7-25.479 16.749-10.34 7.32-16.3 17.87-21.19 34.23l-1.82 6.47-1.69 6.35c-2.98 11.18-5 16.899-8.17 21.809-5.05 7.81-11.37 12.68-15.889 12.98-4.7.31-5.3-4.23-.94-10.53 11.519-16.639 14.819-34.029 7.919-61.599-4.349-17.419-16.159-29.719-34.269-39.219-4-2.1-8.2-4-12.99-5.97l-6-2.38-5.43-2.08c-8.029-3.12-20.019-.58-36.919 6.63-3.52 1.5-7.21 3.19-11.61 5.27l-13 6.22c-4.709 2.22-8.159 3.75-11.109 4.88-4.176 1.638-8.253 3.518-12.21 5.63l-9.37 4.96a56.63 56.63 0 0 1-7.9 3.54c-5.3 1.749-8.62.849-10.17-3.43-1.46-4.02.66-8.5 5.8-13.74 2.75-2.82 6.16-5.66 11.15-9.48l7.94-6.02a67.02 67.02 0 0 0 6.23-5.28c6.74-6.74 6.1-6.16 7.61-6.51.87-.2 6.69.36 9.739.36 5.22 0 7.03-.32 8.74-1.35l1.31-.84c.62-.4 1.18-.72 1.84-1.07 2.233-1.116 4.562-2.026 6.96-2.72 6.64-2.04 8.22-4.84 9.28-13.469.93-7.53 1.5-10.47 3.4-15.24 1.99-4.95 5.04-7.26 9.34-7.51 3.17-.2 5.5.35 12.97 2.6 2.947.973 5.962 1.728 9.019 2.26 1.45.22 2.83.34 4.14.34 20.71 0 39.7-1.82 48.8-5.96 4.319-1.96 10.289-3.1 21.929-4.53l9.4-1.12 10.27-1.32c8.16-1.14 15.4-2.43 22.49-4.06 12.419-2.86 24.329-9.26 35.549-18.199 6.984-5.575 13.408-11.818 19.18-18.64 5.001-5.984 8.788-12.886 11.149-20.32 3.76-11.57 4.32-24.36.75-38.229-1.327-5.006-2.517-10.048-3.57-15.12zm113.749 0h1.26l-1.17 1.51c-3.95 4.96-6.9 7.92-9.82 9.57a10.02 10.02 0 0 1-4.97 1.42c-2.38 0-4.24.67-6.71 2.21l-2.65 1.71c-4.38 2.8-8.01 4.08-13.64 4.08-5.6 0-9.99-1.26-16.08-4.05l-2.3-1.06-2.179-.98c-1.6-.7-2.92-1.17-4.17-1.48a13.43 13.43 0 0 0-3.27-.43c-2.3 0-4.3-.68-11-3.37l-1.56-.62c-5-1.97-8.1-2.82-10.52-2.66-2.93.2-4.42 2.03-4.42 6.15 0 20.76-5.21 50.419-12.15 57.349-7.58 7.59-26.549 23.7-34.059 29.06-13.16 9.4-31.17 20.2-44.109 25.06-4.348 1.631-8.797 2.977-13.32 4.03-3.28.78-6.6 1.43-11.25 2.24-.53.1-8.8 1.5-11.5 1.99-4.86.87-9.3 1.74-14 2.76-20.619 4.48-25.069 5.01-38.109 5.01-2.49 0-2.9-.07-14.05-2l-6.15-1c-8.109-1.19-13.829-1.36-17.639-.2-4.54 1.4-5.93 4.65-3.7 10.52 2.02 5.279 4.84 8.609 8.84 10.739 3.26 1.74 6.75 2.6 13.819 3.71 9.42 1.48 10.94 1.75 15.5 2.92 6.497 1.649 12.755 4.126 18.62 7.37 8.3 4.58 14.58 11.5 19.979 20.89 2.73 4.73 9.46 19.329 10.54 21.189 3.4 5.85 6.26 6.63 10.89 2 4.95-4.94 10.35-8.369 21.13-14.059l2.12-1.12c7.98-4.21 11.92-6.51 15.869-9.54 5.11-3.9 8.66-8.1 10.77-13.11 8.52-20.24 20.75-33.309 32.46-33.309l5.5.03c10.529.08 17.349.02 24.899-.31 13.66-.62 23.78-2.09 29.39-4.67 5.85-2.7 13.42-5.49 24.179-9.02l12.7-4.1 15.17-4.9 11.33-3.72c3.67-1.2 5.96-2 8.03-2.78 2.277-.844 4.501-1.826 6.659-2.94 1.87-.98 3.76-2.1 5.86-3.5 3.48-2.33 6.15-3.13 12.04-4.13l1.15-.2c5.71-1.01 9-2.3 12.76-5.63 7.82-6.96 8.58-23.18 3.84-44.519-1.7-7.67-2.1-19.28-1.57-35.469l.82-18.64h1l-.15 3.06-.68 15.62c-.51 16.1-.12 27.65 1.56 35.209 4.82 21.68 4.04 38.199-4.16 45.479-3.91 3.48-7.37 4.84-13.24 5.87l-1.16.2c-5.76.99-8.32 1.75-11.65 3.98-1.92 1.294-3.91 2.483-5.96 3.56a60.73 60.73 0 0 1-6.769 2.99c-2.09.79-4.39 1.58-8.07 2.79l-11.32 3.71-15.18 4.92-12.7 4.08c-10.729 3.53-18.269 6.3-24.069 8.98-5.76 2.66-15.97 4.14-29.77 4.77-7.56.33-14.4.39-24.949.31l-5.49-.03c-11.19 0-23.16 12.789-31.54 32.699-2.19 5.19-5.84 9.52-11.08 13.52-4.019 3.07-7.989 5.39-16.009 9.62l-2.12 1.12c-10.7 5.65-16.04 9.039-20.9 13.899-5.14 5.14-8.75 4.15-12.45-2.22-1.12-1.92-7.85-16.499-10.54-21.199-5.329-9.24-11.479-16.02-19.599-20.5-5.796-3.206-11.98-5.652-18.4-7.28-4.5-1.17-6.02-1.43-15.4-2.9-7.169-1.12-10.739-2-14.129-3.81-4.22-2.25-7.2-5.77-9.3-11.269-2.43-6.39-.78-10.26 4.34-11.83 4-1.22 9.82-1.05 18.079.17a241.35 241.35 0 0 1 6.17 1c11.02 1.9 11.48 1.98 13.88 1.98 12.96 0 17.35-.52 37.899-4.99 4.71-1.02 9.16-1.9 14.03-2.77l11.5-1.98c4.64-.81 7.95-1.46 11.2-2.23a106.41 106.41 0 0 0 13.2-4c12.829-4.81 30.789-15.59 43.879-24.94 7.47-5.33 26.399-21.4 33.939-28.939 6.65-6.67 11.85-36.159 11.85-56.649 0-4.61 1.86-6.9 5.35-7.15 2.63-.18 5.8.7 10.96 2.73l1.56.62c6.53 2.62 8.53 3.3 10.63 3.3 1.14 0 2.3.16 3.5.46 1.32.33 2.68.82 4.34 1.53 1.123.484 2.236.991 3.339 1.52l1.15.54c5.98 2.73 10.23 3.95 15.67 3.95 5.41 0 8.87-1.21 13.1-3.92l2.66-1.72c2.62-1.63 4.64-2.36 7.24-2.36 1.47 0 2.94-.43 4.47-1.3 2.78-1.56 5.67-4.45 9.54-9.31l.7-.89h-.01zM324.535 600h-2.03c.49-2.96.91-6.2 1.28-9.66.44-4.1.76-8.25.98-12.21.08-1.39.14-2.65-.35-7.289-.47-1.94-.93-4.14-1.36-6.54-2.01-11.26-2.66-22.9-1.14-33.78a60.76 60.76 0 0 1 5.18-17.95 70.77 70.77 0 0 1 12.599-18.219c3.38-3.6 5.53-5.5 11.83-10.79 4.5-3.78 6.35-5.56 7.52-7.5.64-1.07.95-2.06.95-3.06 0-1.75 0-1.74-.75-9.23-.36-3.7-.57-6.3-.68-8.96-.5-12.099 1.62-19.599 8.11-21.759 15.9-5.3 25.889-12.1 33.449-25.54 9.47-16.86 25.72-31.509 35.87-31.509 12.36 0 19.999-1.96 29.409-8.8 6.76-4.92 9.5-6.6 12.47-7.46 2.22-.64 3.8-.74 9.12-.74 1.86 0 3.53-.83 5.57-2.62 1.08-.96 5.11-5.12 5.6-5.6 6.04-5.85 11.979-8.78 20.829-8.78 2.45 0 4.54.04 7.32.12 7.51.23 8.87.17 11.27-.7 3.03-1.1 5.53-3.03 14.75-11.17 8-7.059 10.72-8.919 22.869-16.469l3.69-2.37c3.365-2.221 6.531-4.73 9.46-7.5 4.12-3.88 8.02-7.85 11.64-11.9v2.98a201.49 201.49 0 0 1-10.27 10.38c-3.18 3-6.2 5.35-9.72 7.7-1.12.76-2.28 1.5-3.75 2.4-12.049 7.5-14.709 9.32-22.599 16.279-9.46 8.35-12.01 10.32-15.39 11.55-2.74 1-4.19 1.06-12.01.82l-7.26-.12c-8.27 0-13.749 2.7-19.429 8.22-.44.43-4.52 4.64-5.68 5.66-2.37 2.09-4.46 3.12-6.89 3.12-5.1 0-6.6.1-8.56.66-2.67.78-5.29 2.37-11.85 7.15-9.8 7.13-17.849 9.19-30.589 9.19-9.22 0-24.96 14.199-34.13 30.489-7.84 13.94-18.239 21.02-34.549 26.46-5.31 1.77-7.21 8.51-6.75 19.779.1 2.6.31 5.19.68 8.84.75 7.62.75 7.58.75 9.43 0 1.38-.42 2.73-1.24 4.09-1.33 2.2-3.26 4.07-7.94 8-6.25 5.24-8.36 7.12-11.67 10.63-4.987 5.223-9.121 11.2-12.249 17.709-2.551 5.495-4.238 11.351-5 17.36-1.49 10.66-.85 22.09 1.13 33.15a127.39 127.39 0 0 0 1.33 6.439c.16.66.3 1.25.6 4.06-.216 5.385-.606 10.761-1.17 16.12-.37 3.37-.78 6.53-1.25 9.44zm-13.4 0h-1.05l.12-.28c3.07-7.16 4.29-11.83 4.29-18.72 0-3.57-.07-4.93-.76-15.649-.77-12.04-1-19.64-.55-28.3.58-11.5 2.4-22.1 5.81-32.159 1.3-3.8 2.8-7.5 4.55-11.1 3.46-7.14 6.829-12.39 10.419-16.6a59.27 59.27 0 0 1 4.35-4.56l3.67-3.45c5.72-5.6 7.51-11.52 7.51-29.179 0-18.84 2.9-23.77 15.82-28.24l2.77-.98a51.26 51.26 0 0 0 6.1-2.7c4.95-2.6 9.64-6.22 14.44-11.42 25.499-27.629 37.149-35.159 56.369-35.159 8.279 0 14.539-1.95 21.999-6.3 1.78-1.03 13.82-8.82 18.16-11.27 2.83-1.59 5.66-3.03 8.63-4.39 7.92-3.6 13.97-4.45 26.599-4.8 7.53-.2 10.7-.49 14.26-1.58 4.55-1.4 8.06-3.999 10.93-8.429 2.2-3.41 6.85-7.08 14.66-12.06l5.65-3.5c9.529-5.85 11.559-7.13 14.809-9.57 5.34-4 9.3-8.37 13.68-14.77 1.947-2.868 3.821-5.786 5.62-8.75v1.9c-1.97 3.17-3.4 5.38-4.8 7.42-4.42 6.48-8.46 10.92-13.9 15-3.29 2.46-5.32 3.75-14.889 9.61l-5.63 3.5c-7.7 4.9-12.26 8.52-14.36 11.76-3 4.629-6.7 7.389-11.48 8.849-3.68 1.12-6.9 1.42-14.53 1.63-12.5.34-18.439 1.18-26.199 4.7-2.915 1.326-5.771 2.778-8.56 4.35-4.3 2.43-16.34 10.22-18.15 11.27-7.6 4.43-14.03 6.43-22.499 6.43-18.87 0-30.3 7.4-55.63 34.839-4.879 5.28-9.669 8.97-14.699 11.62-2 1.05-4 1.92-6.23 2.75-.86.32-1.7.62-5.37 1.87-5.08 1.76-7.44 3.25-9.28 6.37-2.23 3.78-3.29 9.94-3.29 20.05 0 17.899-1.87 24.069-7.8 29.889-.69.67-3.27 3.06-3.69 3.46a58.17 58.17 0 0 0-4.28 4.49c-3.53 4.14-6.859 9.32-10.279 16.38a94.87 94.87 0 0 0-4.5 10.99c-3.38 9.969-5.18 20.479-5.76 31.899-.44 8.6-.22 16.17.55 28.17.69 10.759.76 12.119.76 15.719 0 6.35-1.02 10.87-4.35 19h-.01zm25.079 0h-1c-.04-4.73.06-9.39.28-15.02.26-6.41-.4-11.79-2.53-24.369l-.31-1.86c-2.12-12.55-2.76-19.35-1.97-26.47 1.03-9.25 4.75-16.68 12-22.67 22.04-18.199 29.81-30.179 29.81-44.609 0-2.6-.3-4.81-.98-8.17-.97-4.79-1.1-5.68-.97-7.569.2-2.56 1.27-4.7 3.56-6.72 2.67-2.35 7.05-4.6 13.72-7.01 9.719-3.5 15.519-9.18 24.299-21.57l1.78-2.5c4.48-6.33 7.1-9.63 10.43-12.78 4.31-4.07 8.98-6.77 14.54-8.169 13.299-3.32 20.369-5.47 25.339-7.64a49.59 49.59 0 0 0 5.28-2.7c1.1-.65 1.75-1.04 4.24-2.6 2.7-1.68 5.22-2.08 11.38-2.28 5.44-.18 7.9-.43 10.97-1.41 3.682-1.177 6.978-3.326 9.54-6.22 4.869-5.3 10.029-7.61 17.789-8.9 1.07-.18 1.88-.3 3.86-.58 6.9-.97 9.94-1.69 13.48-3.62 4.5-2.45 6.79-4.44 23.46-19.68l3.14-2.85c9.649-8.709 16.119-13.829 21.419-16.479 4.25-2.12 7.6-4.69 11.22-8.6v1.45c-3.42 3.57-6.69 6-10.78 8.05-5.18 2.59-11.61 7.67-21.199 16.319l-3.12 2.85c-16.8 15.35-19.05 17.3-23.66 19.82-3.68 2-6.8 2.75-13.82 3.73l-3.84.57c-7.56 1.26-12.52 3.48-17.209 8.6-2.679 3.023-6.123 5.269-9.97 6.5-3.2 1-5.72 1.27-11.25 1.45-5.98.2-8.39.57-10.89 2.13-1.401.894-2.818 1.764-4.25 2.61a50.58 50.58 0 0 1-5.39 2.75c-5.04 2.2-12.15 4.37-25.499 7.699-9.74 2.44-15.26 7.65-24.4 20.56l-1.77 2.5c-8.9 12.54-14.82 18.34-24.779 21.93-6.57 2.36-10.85 4.57-13.4 6.82-2.1 1.86-3.05 3.74-3.22 6.039-.13 1.76 0 2.63.95 7.3.7 3.42 1 5.7 1 8.37 0 14.79-7.93 27-30.18 45.39-7.03 5.799-10.64 12.999-11.64 21.999-.78 7-.14 13.73 1.96 26.2l.32 1.85c2.15 12.649 2.8 18.069 2.54 24.579-.22 5.57-.32 10.2-.28 14.98zm-240.316 0h-2.04c.68-3.82 1.14-8.8 1.61-15.98l.39-5.6c1.3-17.539 4.04-27.139 11.5-33.199 4.65-3.77 7.22-8.92 8.67-16 .51-2.52.7-3.87 1.33-9.17.66-5.5 1.16-8.06 2.24-10.359 1.45-3.09 3.82-4.69 7.39-4.69 14.28 0 38.479 9.119 53.599 20.199 8.66 6.35 21.26 13.32 31.739 17.11 13.03 4.71 21.89 4.41 24.75-1.73l2.65-5.77c2.93-6.67 4.69-12.2 5.25-17.5.23-2.17.24-4.23.02-6.2-.32-2.749-1.42-4.549-4.08-7.349l-1.32-1.37a30.74 30.74 0 0 1-2.41-2.79c-.939-1.289-1.775-2.65-2.5-4.07l-1.13-2.14c-1.62-3.1-2.68-4.6-4.12-5.56-5.26-3.5-14.8-5.5-28.549-6.83-3.009-.287-6.023-.524-9.04-.71l-2.18-.17c-9.57-.73-15.12-1.56-19.06-3.2-14.04-5.85-34.609-26.42-34.609-36.919 0-5.34 1.74-9.53 5.47-14.13 1.98-2.44 11.119-11.71 12.789-13.54 4.52-4.97 10.16-9.54 17.68-14.66 2.8-1.9 14.78-9.599 17.49-11.489 2.259-1.632 4.38-3.449 6.34-5.43 1.53-1.5 6.96-7.13 7.12-7.3 7.179-7.3 12.699-11.56 19.739-14.38 3.36-1.34 8.13-2.79 17.45-5.38l11.78-3.28 12.67-3.7c20.399-6.24 33.999-12.08 40.789-18.439 8.74-8.2 11.78-13.84 15.73-26.02 2.02-6.22 3.09-9.04 5.07-12.72 9.539-17.71 28.709-39.369 43.499-45.449 14.15-5.83 19.38-11.74 19.38-18.08 0-2.89 2.729-8.4 6.829-13.73 4.76-6.199 10.65-11.359 16.75-14.179 12.5-5.77 33.5-10.09 47.419-10.09 5.32 0 9.83-1.5 16.42-4.89 9.2-4.71 10.1-5.11 13.58-5.11 10.42 0 32.059-2.55 45.759-5.97l3.88-.98 3.47-.89 5.93-1.43c3.9-.86 6.76-1.23 9.58-1.17 2.74.06 5.47.52 8.67 1.48 4.559 1.37 13.709-.9 22.869-5.68a68.01 68.01 0 0 0 9.84-6.2v2.4c-11.09 8.14-25.76 13.66-33.289 11.4-2.632-.842-5.368-1.313-8.13-1.4-2.63-.05-5.36.3-9.11 1.12a239.02 239.02 0 0 0-9.33 2.3l-3.9.99c-13.86 3.46-35.659 6.03-46.239 6.03-2.99 0-3.91.4-12.67 4.89-6.85 3.51-11.61 5.11-17.33 5.11-13.649 0-34.349 4.26-46.579 9.9-5.78 2.67-11.42 7.62-16 13.579-3.85 5.02-6.42 10.2-6.42 12.52 0 7.27-5.799 13.82-20.619 19.92-14.27 5.88-33.16 27.209-42.499 44.549-1.9 3.55-2.95 6.28-4.93 12.4-4.05 12.47-7.23 18.39-16.27 26.86-7.08 6.639-20.87 12.569-41.569 18.889l-12.7 3.71-11.8 3.28c-9.24 2.58-13.97 4.01-17.24 5.32-6.73 2.69-12.05 6.8-19.049 13.92l-7.15 7.32a52.57 52.57 0 0 1-6.6 5.65c-2.74 1.92-14.75 9.629-17.5 11.499-7.4 5.04-12.94 9.52-17.33 14.35-1.72 1.9-10.799 11.11-12.709 13.46-3.47 4.26-5.03 8.03-5.03 12.87 0 9.5 19.999 29.499 33.379 35.079 3.67 1.53 9.1 2.34 18.45 3.05l4.34.32 6.93.55c14.079 1.37 23.819 3.4 29.449 7.17 1.82 1.2 3.02 2.91 4.8 6.29l1.11 2.13c.679 1.329 1.462 2.603 2.34 3.81.62.83 1.3 1.6 2.26 2.61l1.32 1.37c2.93 3.09 4.24 5.23 4.61 8.499.24 2.12.23 4.33-.01 6.64-.59 5.55-2.4 11.25-5.41 18.1l-2.66 5.8c-3.49 7.47-13.33 7.8-27.25 2.77-10.669-3.86-23.429-10.92-32.249-17.38-14.79-10.85-38.589-19.809-52.409-19.809-5 0-6.4 3.019-7.64 13.289a99.08 99.08 0 0 1-1.36 9.33c-1.53 7.5-4.3 13.04-9.37 17.16-6.87 5.58-9.5 14.78-10.77 31.799l-.38 5.57c-.46 7.01-.91 11.99-1.57 15.85h-.01zm8.05 0h-1.02l.9-4.59 1.05-5.62c2.5-13.3 4.2-19.92 6.68-24.049 1.7-2.84 3.68-5.5 8.05-11.03 8.21-10.36 10.88-14.55 10.88-18.71l-.02-1.69c-.02-1.78-.02-2.7.02-3.77.21-5.05 1.47-8.2 4.64-9.4 3.92-1.5 10.39.44 20.119 6.43l25.91 15.66 17.67 10.45 6.42 3.9c13.819 8.5 38.939 5.05 46.299-7.83 3.6-6.28 4.54-8.52 7.78-17.32a80.88 80.88 0 0 1 1.18-3.07c1.088-2.679 2.449-5.239 4.06-7.64 9.329-13.979 14.919-26.099 14.919-36.719 0-3.66.75-6.62 3.36-14.85l1.15-3.73c3.64-12.23 3.04-19.119-4.29-23.999-2.986-2.022-6.403-3.317-9.979-3.78-7.2-.93-14.49 1.17-23.91 5.88l-7.6 3.93a63.05 63.05 0 0 0-4.14 2.299l-4.4 2.66c-11.62 6.92-20.399 9.18-32.809 6.08-3.32-.84-6.24-1.4-13.1-2.64-13.25-2.39-18.7-3.75-23.33-6.459-6.23-3.67-7.46-9.02-2.88-16.65 4.027-6.688 8.878-12.843 14.44-18.32 2.681-2.652 5.456-5.207 8.32-7.66-.07.05 6.16-5.3 7.82-6.77 2.277-1.993 4.447-4.106 6.5-6.33 7.7-8.459 12.78-13.359 20.079-18.569 9.94-7.1 21.4-12.36 35.18-15.58 37.029-8.64 50.999-12.7 58.829-17.93 8.6-5.73 21.299-24.769 36.839-54.809 5.22-10.1 12.27-18.399 21.13-25.709 5.13-4.24 9.56-7.25 17.55-12.23 7.419-4.62 9.619-6.14 11.379-8.16 1.199-1.483 2.191-3.121 2.95-4.87.61-1.3 2.87-6.47 3-6.77 1.36-3 2.56-5.4 3.95-7.73 6.53-10.97 16.03-17.999 31.4-20.799 12.729-2.3 19.849-2.7 29.679-2.3 3.25.13 4.13.16 5.6.14 5.15-.07 9.71-1.04 16.61-3.8 20.74-8.3 38.749-12.04 59.189-12.04 3.05 0 6.03.15 10.48.48l2.09.16c12.449.96 18.079.96 25.339-.63 4.947-1.087 9.699-2.925 14.09-5.45v1.15c-4.341 2.434-9.018 4.213-13.88 5.28-7.38 1.61-13.08 1.61-25.629.65l-2.08-.16c-4.43-.33-7.39-.48-10.41-.48-20.3 0-38.199 3.72-58.809 11.96-7.01 2.8-11.7 3.8-16.97 3.88-1.5.02-2.39-.01-5.66-.14-9.76-.4-16.8-.01-29.469 2.3-15.06 2.73-24.32 9.579-30.71 20.309-1.448 2.465-2.751 5.012-3.9 7.63l-3.01 6.79a21.97 21.97 0 0 1-3.1 5.1c-1.86 2.13-4.07 3.66-11.599 8.35-7.95 4.96-12.35 7.95-17.44 12.15-8.76 7.229-15.73 15.429-20.89 25.399-15.61 30.2-28.359 49.319-37.159 55.189-7.98 5.32-21.97 9.39-59.169 18.07-13.65 3.18-24.98 8.39-34.82 15.42-7.219 5.16-12.269 10.01-19.919 18.429-2.075 2.249-4.268 4.385-6.57 6.4l-7.84 6.77c-3.27 2.84-5.8 5.16-8.26 7.62-5.498 5.421-10.292 11.512-14.27 18.13-4.3 7.16-3.22 11.89 2.53 15.259 4.47 2.63 9.88 3.99 23.24 6.39 4.336.714 8.645 1.581 12.92 2.6 12.11 3.03 20.639.84 32.059-5.96l4.4-2.65c1.66-.999 2.96-1.729 4.2-2.349l7.6-3.92c9.59-4.8 17.04-6.94 24.49-5.98 3.725.481 7.286 1.827 10.399 3.93 7.82 5.21 8.45 12.519 4.7 25.129l-1.16 3.74c-2.57 8.12-3.31 11.04-3.31 14.55 0 10.88-5.66 23.14-15.079 37.279-1.575 2.345-2.906 4.844-3.97 7.46-.37.9-.73 1.82-1.18 3.04-3.25 8.85-4.21 11.13-7.84 17.47-7.67 13.42-33.43 16.95-47.699 8.18l-6.4-3.89-17.67-10.45-25.92-15.66c-9.499-5.85-15.699-7.7-19.239-6.36-2.68 1.02-3.8 3.82-4 8.51a60.71 60.71 0 0 0-.02 3.72l.02 1.7c0 4.5-2.69 8.73-11.52 19.87-3.92 4.95-5.87 7.59-7.55 10.39-2.39 3.97-4.08 10.559-6.56 23.719l-1.05 5.62-.86 4.4h-.02zm10.5 0h-1c.03-.34.04-.68.04-1 0-12.39 8.48-33.569 19.16-43.369a26.18 26.18 0 0 0 3.67-4.17c1.088-1.555 2.051-3.193 2.88-4.9.36-.72 1.75-3.66 2.1-4.36 3.22-6.29 6.84-6.54 16.969.39l6.4 4.38 6.7 4.56c5.03 3.39 9.37 6.2 13.51 8.7 14.33 8.669 25.489 13.269 34.109 13.269 16.86 0 32.71-5.949 39.6-14.799 1.59-2.04 3.2-5.17 5.06-9.63.8-1.92 1.64-4.06 2.67-6.8l2.74-7.33c4.659-12.44 7.759-19.06 11.559-23.27 7.9-8.789 14.87-35.999 14.87-52.669 0-1.9.17-3.11 1.02-8.27.37-2.199.58-3.599.74-5.069.63-5.51.21-9.46-1.68-12.39-4.6-7.1-19.7-9.23-38.459-4.78-6.507 1.467-12.851 3.577-18.94 6.3-5.17 2.37-17.11 9.74-16.5 9.4-6.72 3.64-12.969 4.15-24.799 1.3-29.55-7.14-30.43-8.62-15.26-26.81 17.44-20.93 47.119-46.179 56.379-46.179 9.92 0 53.839-11.98 65.779-17.95 9.46-4.73 24.32-21.18 36.819-37.849.71-.95 13.5-21.6 19.2-29.6 9.35-13.13 18.22-22.549 26.95-27.529 7.289-4.17 13.159-10.28 18.799-18.73 1.93-2.9 10.52-17.65 12.73-20.41 1.54-1.93 3-3.21 4.52-3.89 14.07-6.25 24.22-9.039 39.199-9.039h29c4.05 0 7.36-.4 22.929-2.5l4.3-.57c9.92-1.3 16.57-1.93 21.77-1.93l6.03.04c18.61.19 28.549-.48 44.859-4.03 3.1-.67 6.13-1.78 9.11-3.31v1.12a37.97 37.97 0 0 1-8.9 3.17c-16.4 3.56-26.399 4.24-45.079 4.05l-6.02-.04c-5.15 0-11.76.63-21.64 1.92l-4.3.58c-15.639 2.11-18.939 2.5-23.059 2.5h-29c-14.809 0-24.839 2.749-38.799 8.959-1.34.6-2.69 1.78-4.14 3.6-2.16 2.68-10.72 17.39-12.68 20.33-5.72 8.57-11.7 14.8-19.129 19.04-8.57 4.9-17.36 14.229-26.63 27.239-5.68 7.97-18.47 28.64-19.22 29.63-12.599 16.799-27.519 33.319-37.179 38.149-12.06 6.03-56.139 18.05-66.219 18.05-8.82 0-38.389 25.149-55.619 45.819-14.6 17.52-14.19 18.21 14.74 25.2 11.6 2.8 17.599 2.3 24.089-1.2-.67.35 11.31-7.03 16.56-9.44 5.41-2.48 11.6-4.59 19.11-6.37 19.129-4.53 34.649-2.35 39.539 5.22 2.05 3.17 2.48 7.32 1.84 13.04-.204 1.716-.454 3.427-.75 5.129-.84 5.08-1.01 6.29-1.01 8.1 0 16.9-7.03 44.33-15.13 53.329-3.68 4.09-6.76 10.65-11.37 22.96l-2.729 7.33-2.68 6.84c-1.9 4.53-3.55 7.73-5.2 9.85-7.1 9.13-23.25 15.189-40.39 15.189-8.86 0-20.149-4.649-34.629-13.419-4.15-2.51-8.5-5.32-13.55-8.72l-6.71-4.56-6.4-4.39c-9.679-6.63-12.609-6.42-15.499-.75-.35.68-1.74 3.62-2.1 4.35a36.88 36.88 0 0 1-2.96 5.03 27.88 27.88 0 0 1-3.81 4.33c-10.47 9.6-18.84 30.509-18.84 42.629l-.03 1h-.01zm-29.649 0h-1.1c1.17-2.52 1.79-5.2 1.79-8 0-20 4.83-42.039 12.15-49.349 5.17-5.18 7.77-8.38 9.9-12.74 2.64-5.41 3.95-12 3.95-20.909 0-6.82 1.14-11.59 3.37-15.07 1.74-2.7 3.6-4.21 8.91-7.52 1.369-.83 2.672-1.763 3.9-2.79 4.61-3.96 6.58-6.2 7.72-9.41 1.43-4.02.93-9.04-1.86-16.02a69.11 69.11 0 0 0-3.99-8.07l-.93-1.699c-.942-1.634-1.823-3.301-2.64-5-5.16-10.71-3.77-18.9 7.68-29.78a204.06 204.06 0 0 1 26.809-21.55c3.96-2.689 16.8-10.799 19.24-12.499 1.99-1.4 4.33-3.3 7.77-6.3a962.17 962.17 0 0 1 9.47-8.3c4.97-4.26 9.09-7.5 13.05-10.15 4.719-3.15 8.969-5.28 12.869-6.32l21.77-5.97c12.55-3.64 21.96-6.9 28.139-10 2.404-1.146 4.903-2.08 7.47-2.789 8.66-2.66 12.02-4.1 16.97-8.1 6.78-5.46 13.07-14.25 19.33-27.87 15.969-34.769 19.079-39.389 32.149-49.189 3.14-2.36 6.37-4.1 11.43-6.4l2.33-1.04c11.93-5.35 16.87-8.93 21.1-17.38 1.88-3.77 2.48-6.29 3.37-12.269.78-5.19 1.48-7.56 3.529-10.25 2.57-3.4 7.03-6.27 14.36-9.01 3.37-1.26 7.36-2.5 12.05-3.73 16.33-4.3 25.28-5.36 39.599-5.81 6.9-.22 9.5-.56 12.66-2 1.19-.54 2.36-1.23 3.58-2.11 3.7-2.7 8.14-4.54 13.24-5.67 5.71-1.27 10.69-1.54 18.7-1.45l2.35.02c2.819 0 6.799-1 19.699-4.69 10.83-3.08 15.95-4.31 19.3-4.31.82 0 1.9.13 3.55.41l5.01.9c9.82 1.68 17.439 1.89 25.149-.21 7.98-2.18 14.8-6.77 20.29-14.239v1.64c-5.47 7.039-12.21 11.419-20.03 13.549-7.88 2.15-15.629 1.94-25.579.23l-5-.9c-1.6-.26-2.64-.39-3.39-.39-3.2 0-8.32 1.22-19.74 4.48-12.35 3.53-16.3 4.52-19.259 4.52l-2.36-.02c-7.94-.1-12.85.17-18.47 1.42-4.97 1.11-9.3 2.9-12.88 5.5-1.171.866-2.428 1.61-3.75 2.22-3.32 1.5-6 1.87-13.04 2.09-14.249.44-23.129 1.5-39.369 5.77-4.042 1.034-8.03 2.269-11.95 3.7-7.17 2.7-11.49 5.46-13.93 8.68-1.9 2.52-2.579 4.76-3.329 9.8-.9 6.079-1.53 8.679-3.47 12.559a30.6 30.6 0 0 1-9.66 11.45c-3.12 2.26-5.95 3.73-11.93 6.4l-2.31 1.04c-5.01 2.27-8.18 3.99-11.25 6.29-12.9 9.68-15.93 14.17-31.849 48.799-6.31 13.76-12.7 22.68-19.6 28.25-5.08 4.1-8.53 5.57-17.3 8.269a44.75 44.75 0 0 0-7.33 2.73c-6.239 3.12-15.699 6.4-28.299 10.06l-21.8 5.97c-3.77 1.01-7.93 3.1-12.56 6.19-4.513 3.096-8.837 6.458-12.949 10.07l-9.48 8.3c-2.502 2.256-5.119 4.382-7.84 6.37-2.46 1.72-15.32 9.829-19.26 12.499a203.03 203.03 0 0 0-26.689 21.45c-11.13 10.58-12.43 18.3-7.47 28.63a74.71 74.71 0 0 0 2.62 4.95l.94 1.7a69.72 69.72 0 0 1 4.03 8.169c2.88 7.2 3.4 12.46 1.89 16.73-1.22 3.43-3.28 5.77-8.02 9.84-1.14.97-2.32 1.8-5.3 3.67-3.92 2.45-5.69 3.89-7.31 6.42-2.13 3.3-3.22 7.89-3.22 14.53 0 9.049-1.34 15.789-4.05 21.339-2.19 4.49-4.85 7.77-10.1 13.01-7.07 7.07-11.85 28.899-11.85 48.649a19.54 19.54 0 0 1-1.7 8l.01.01zm282.535 0h-1.01l-1.1-5.8c-3.08-16.26-4.05-26.199-2.74-37.259.7-5.8.77-9.68.55-15.3-.18-4.45-.17-5.68.19-7.63.78-4.3 3.44-8.53 10.39-16.34 9.07-10.199 12.26-15.409 19.799-30.149 1.35-2.64 2.33-4.47 3.38-6.3.9-1.58 1.82-3.06 2.77-4.5 3.14-4.7 7.03-8.42 16.84-16.81 11.22-9.6 15.5-13.859 18.13-19.129.7-1.4 1.3-2.8 1.93-4.4l1.49-4.05c3.63-9.94 8.01-13.93 22.899-17.81l21.38-5.34c16.19-4.1 25.33-7.36 33.479-12.6 5.86-3.77 5.84-3.76 27.66-16.529l2.6-1.52c10.23-6 17.1-10.2 22.73-13.95 3.008-1.993 5.943-4.094 8.799-6.3l6.37-5.08c4.984-3.993 10.39-7.43 16.12-10.25v1.12a85.83 85.83 0 0 0-15.49 9.9c.18-.14-4.76 3.84-6.38 5.1a150.36 150.36 0 0 1-8.849 6.35c-5.65 3.76-12.53 7.96-22.78 13.97l-2.6 1.53-27.63 16.499c-8.269 5.32-17.489 8.61-33.779 12.73l-21.36 5.33c-8.03 2.1-13.149 4.5-16.449 7.5-2.66 2.42-4 4.86-5.77 9.7l-1.5 4.07a51.28 51.28 0 0 1-1.96 4.47c-2.72 5.45-7.04 9.749-18.38 19.449-9.73 8.32-13.6 12.02-16.65 16.6a77.39 77.39 0 0 0-2.74 4.45c-1.05 1.81-2.01 3.63-3.35 6.25-7.579 14.81-10.819 20.08-19.959 30.359-6.83 7.7-9.4 11.78-10.15 15.86-.34 1.85-.34 3.04-.17 7.4.22 5.68.14 9.6-.55 15.47-1.3 10.92-.34 20.789 2.73 36.949l1.12 5.99h-.01zm-76.589 0h-2.1l1.39-4.3c1.04-3.3 1.93-6.78 2.68-10.4 2.65-12.73 3.27-23.629 3.27-41.299 0-5.71-1.86-9.75-4.13-9.75-2.94 0-6.96 5.61-10.93 17.08C271.135 579.68 258.296 593 237.996 593c-22.42 0-29.259-1.35-48.419-10.09a87.66 87.66 0 0 1-9.42-5.04c-2.95-1.8-12.78-8.569-14.84-9.719-4.2-2.36-7-2.71-9.72-.99-.63.4-1.26.91-1.9 1.55-1.371 1.357-2.809 2.646-4.309 3.859l-3.06 2.44-1 .8c-8.32 6.62-11.33 11.37-11.33 21.19 0 1.02-.02 2.01-.07 3h-2c.05-.99.07-1.98.07-3 0-10.52 3.33-15.78 12.09-22.76l2-1.6 2.03-1.609a55.97 55.97 0 0 0 4.169-3.74c.74-.73 1.48-1.34 2.24-1.82 3.47-2.2 7-1.75 11.77.93 2.15 1.21 12.03 7.999 14.9 9.759 2.97 1.83 6.049 3.476 9.22 4.93 18.87 8.61 25.429 9.91 47.579 9.91 19.25 0 31.49-12.7 41.059-40.329 4.24-12.25 8.66-18.42 12.81-18.42 3.8 0 6.13 5.06 6.13 11.75 0 17.8-.63 28.799-3.3 41.699-.77 3.7-1.68 7.23-2.75 10.6l-1.19 3.7h-.01zm-149.247 0l.5-.94c2.379-4.317 4.558-8.742 6.53-13.26 2.729-6.29 5.779-9.64 9.239-10.52 3.74-.95 7.15.74 12.56 5.13 5.43 4.4 6.07 4.86 7.73 5.1 1.6.22 4.28 1.14 8.86 2.95l13.85 5.55c3.07 1.2 5.85 2.25 8.49 3.18 3.099 1.1 5.979 2.04 8.649 2.81h-3.45c-1.76-.56-3.6-1.18-5.539-1.87-2.854-1.017-5.691-2.081-8.51-3.19l-13.86-5.55c-4.5-1.78-7.15-2.68-8.63-2.9-1.94-.27-2.53-.7-8.22-5.3-5.17-4.2-8.36-5.78-11.69-4.94-3.1.78-5.94 3.92-8.559 9.95-2.052 4.706-4.328 9.311-6.82 13.8h-1.13zm112.888 0c4.162-1.258 8.006-3.396 11.27-6.27 1.55-1.36 3.32-3.46 5.339-6.29 1.05-1.46 2.15-3.1 3.41-5.04l2.5-3.9.47-.75.93-1.47a89.33 89.33 0 0 1 3.25-4.86c1.05-1.43 1.82-2.229 2.44-2.459 1.02-.37 1.49.48 1.49 2.039l.01 2.11c.05 6.91-.08 11.32-.7 16.33-.396 3.598-1.194 7.14-2.38 10.56h-1.07a46.44 46.44 0 0 0 2.45-10.68c.62-4.96.75-9.33.7-16.2l-.01-2.12c0-.97-.08-1.119-.15-1.099-.36.14-1.05.849-1.97 2.099-1.125 1.571-2.199 3.179-3.22 4.82l-.92 1.46-.48.75-2.5 3.92a127.66 127.66 0 0 1-3.44 5.08c-2.06 2.88-3.869 5.04-5.499 6.45-2.643 2.337-5.667 4.204-8.94 5.52h-2.98zm-183.717 0h-1.37c3.37-3.43 5.19-8.33 5.19-15 0-18.599-.04-17.349 1.02-20.769.6-1.93 1.5-3.74 3.27-6.63.42-.7 4.92-7.8 6.78-10.86 3.04-4.97 11.04-16.5 12.21-18.56 3.48-6.08 4.72-12.06 4.72-24.179 0-7.85 2.5-14.2 8.1-23.44l2.84-4.63c.881-1.437 1.711-2.905 2.49-4.4 1.62-3.15 2.48-5.78 2.62-8.28.2-3.78-1.3-7.29-4.9-10.9-5.13-5.119-8.6-5.429-11.2-1.85-2.12 2.92-3.48 7.74-5.06 16.47l-.82 4.57c-.83 4.67-1.4 7.33-2.1 9.6-1.35 4.42-3.7 7.61-8.36 12.26l-3.26 3.2c-6.38 6.39-9.68 11.51-11.36 19.499l-1.16 5.52c-.87 4.1-1.56 7.04-2.33 9.94-3.67 13.74-9.65 25.97-22.59 44.719-7.68 11.14-11.05 18.87-10.92 23.72h-1c-.12-5.16 3.35-13.05 11.1-24.28 12.87-18.669 18.8-30.799 22.44-44.419.77-2.88 1.45-5.8 2.32-9.89l1.16-5.51c1.73-8.219 5.13-13.499 11.64-19.999l3.25-3.21c4.57-4.54 6.82-7.62 8.12-11.84.878-3.116 1.569-6.282 2.07-9.48l.81-4.57c1.62-8.9 3-13.8 5.24-16.889 3-4.15 7.2-3.78 12.71 1.739 3.8 3.8 5.42 7.58 5.2 11.66-.15 2.66-1.05 5.41-2.73 8.68a73.18 73.18 0 0 1-2.52 4.46l-2.84 4.63c-5.52 9.1-7.96 15.3-7.96 22.92 0 12.279-1.28 18.429-4.85 24.679-1.2 2.1-9.21 13.65-12.22 18.58l-6.78 10.86c-1.73 2.82-2.6 4.57-3.17 6.4-1.02 3.28-.98 2.1-.98 20.479 0 6.52-1.7 11.44-4.82 15zM310.085.01h1.06l-1.2 2.82c-3.9 9.06-5.45 15.15-5.45 25.18 0 7.64-2.1 11.6-6.64 13.05-3.46 1.1-5.72.98-17.57-.43-11.549-1.36-19.169-1.58-28.159-.14-6.24 2.49-25.91 7.02-32.13 7.02-11.149 0-36.759-2.88-54.119-7.01a22.08 22.08 0 0 0-8.725-.471 22.07 22.07 0 0 0-8.224 2.951c-4.05 2.33-7.09 5.03-13.9 11.97-6.28 6.39-9.53 9.23-13.8 11.5-7.09 3.79-11.22 7.65-13.4 12.27-1.82 3.85-2.33 7.84-2.33 15.29 0 4.4-2.65 6.69-9.45 9.74a343.62 343.62 0 0 0-3.84 1.71c-8.78 4.06-12.71 8.29-12.71 16.55 0 12.52-4.86 19.22-17.34 27.959l-4.56 3.14a178.13 178.13 0 0 0-4.67 3.3l-2.62 2c-7.16 5.62-11 14.54-15.56 33.28l-4.07 17.14a350.43 350.43 0 0 1-5.2 19.329l-4.96 16.53c-1.05 3.4-1.64 4.94-2.46 6.32-.82 1.4-6.85 9.08-12.64 18.27L0 277.985v-1.9l4.58-7.349a270.6 270.6 0 0 1 12.61-18.23c-.3.5 1.35-2.8 2.38-6.12l4.95-16.53c1.83-6.03 3.44-12.09 5.19-19.269l4.06-17.14c4.62-18.95 8.52-28.02 15.92-33.83.84-.67 1.72-1.33 2.65-2.01 1.38-1.02 2.8-2.01 4.7-3.32l4.54-3.139c12.25-8.57 16.92-15.01 16.92-27.14 0-8.74 4.2-13.26 13.29-17.45l3.85-1.73c6.46-2.9 8.86-4.97 8.86-8.82 0-7.6.53-11.7 2.42-15.71 2.29-4.84 6.57-8.85 13.84-12.73 4.15-2.21 7.35-5 14.15-11.93 6.28-6.4 9.36-9.13 13.52-11.53 2.627-1.587 5.546-2.633 8.583-3.078a23.07 23.07 0 0 1 9.106.488c17.27 4.12 42.8 6.99 53.879 6.99 6.1 0 25.73-4.53 31.92-7 9.12-1.46 16.83-1.25 28.489.13 11.63 1.38 13.9 1.5 17.15.47 4.06-1.3 5.94-4.85 5.94-12.1 0-10.1 1.56-16.3 6.6-28h-.01zm25.119 0h1c.05 5.62.26 11.48.65 19.4.47 9.7.64 14.57.64 21.6 0 9.81-4.68 17.46-13.099 23.16-6.53 4.43-14.94 7.46-24.33 9.33-3.74.54-9.42.56-22.68.23l-12.389-.22c-2.77 0-4.97.43-7.63 1.36-.88.3-4.55 1.74-5.58 2.11-6.55 2.35-13.59 3.53-24.79 3.53-8.1 0-13.58-1.38-22.459-4.9l-3.18-1.25c-12.55-4.87-21.27-5.15-37.18 1.12-11.15 4.39-18.129 9.2-22.279 14.81-3.15 4.26-4.33 7.8-5.94 15.799-1.22 6.09-1.93 8.74-3.5 12.13-1.65 3.53-3.97 5.81-7.07 7.22-2.33 1.07-4.35 1.5-9.32 2.19-9.04 1.27-12.77 3.09-15.61 9.58-3.71 8.48-7.719 13.869-14.219 19.759-2.4 2.18-13.14 11.02-15.91 13.42-8.2 7.1-13.85 17.37-18.7 31.97-1.167 3.542-2.257 7.11-3.27 10.699-.01.05-2.26 7.97-2.88 10.1-8.49 28.85-17.88 52.949-26.129 61.199-2.8 2.8-5.06 5.64-10.4 12.96-3.4 4.68-6.23 8.25-8.95 11.1v-1.55c2.74-2.98 5.73-6.82 9.48-11.97 4.03-5.52 6.32-8.4 9.17-11.24 8.07-8.08 17.44-32.139 25.87-60.799l2.88-10.08c1.21-4.239 2.21-7.529 3.28-10.739 4.9-14.75 10.63-25.16 19-32.4 2.78-2.42 13.5-11.25 15.89-13.4 6.4-5.8 10.32-11.089 13.97-19.429 1.68-3.83 4.05-6.31 7.2-7.86 2.4-1.17 4.64-1.67 9.53-2.36 4.54-.63 6.5-1.05 8.7-2.06 2.89-1.31 5.03-3.42 6.58-6.73 1.53-3.3 2.23-5.9 3.43-11.9 1.64-8.14 2.85-11.79 6.11-16.199 4.28-5.79 11.409-10.7 22.729-15.16 16.15-6.36 25.13-6.07 37.9-1.11l3.19 1.26c8.769 3.47 14.129 4.82 22.089 4.82 11.09 0 18.02-1.16 24.46-3.47 1-.36 4.68-1.8 5.58-2.11 2.545-.95 5.242-1.431 7.96-1.42 3.05 0 5.669.05 14.069.26 11.53.29 17.2.27 20.83-.25 9.25-1.85 17.54-4.83 23.94-9.17 8.159-5.54 12.659-12.88 12.659-22.34 0-7-.17-11.86-.7-22.7-.35-7.26-.55-12.83-.59-18.3zM93.868.01h2.04c-.7 4-1.61 6.82-3.03 9.47-2.33 4.38-2.85 5.75-5.26 13.03-.534 1.718-1.182 3.398-1.94 5.03-2.24 4.66-5.92 8.8-13.07 14.26-8.01 6.13-14.27 16.55-20.03 31.549-2.4 6.23-8.75 25.63-9.64 28.009-2.69 7.16-6.56 12.7-15.63 23.68l-2.68 3.24c-6.02 7.34-9.35 12.07-11.72 17.15-2.3 4.939-7.12 9.899-12.91 14.149v-2.4c5.14-3.94 9.1-8.299 11.1-12.599 2.46-5.27 5.87-10.1 11.98-17.56l2.68-3.26c8.94-10.8 12.72-16.22 15.3-23.1.88-2.33 7.24-21.739 9.65-28.029 5.89-15.31 12.3-26 20.68-32.409 6.92-5.3 10.4-9.2 12.48-13.55.65-1.35 1.16-2.7 1.85-4.79 2.45-7.4 3-8.83 5.4-13.34a27.68 27.68 0 0 0 2.75-8.53zm9.07 0h1.02c-1.66 8.3-2.91 12.67-4.54 15.26-1.577 2.626-2.948 5.371-4.1 8.21-1.27 3-2.44 6.2-3.5 9.4-.38 1.12-.7 2.16-2.41 5.39-4.431 4.275-8.704 8.711-12.81 13.3-3.48 3.96-5.95 7.27-7.15 9.66-.95 1.9-2.06 5.99-3.61 12.97l-4.51 21.07c-3.63 16.45-6.63 26.69-9.9 32-7.66 12.45-10.64 15.71-37.079 41.099A69.76 69.76 0 0 1 0 179.217v-1.15c4.964-2.895 9.549-6.395 13.65-10.42 26.4-25.329 29.319-28.549 36.919-40.899 3.2-5.18 6.18-15.37 9.78-31.7l4.51-21.06c1.57-7.09 2.7-11.2 3.7-13.2 1.24-2.5 3.76-5.86 7.29-9.89a149.22 149.22 0 0 1 2.86-3.18c2.4-2.6 4.96-5.22 7.53-7.76.9-.88 1.73-1.7 3.37-3.4 1.343-4.571 2.939-9.065 4.78-13.46 1.178-2.888 2.579-5.679 4.19-8.35 1.52-2.44 2.74-6.71 4.36-14.74zm-19.229 0h1.1c-2.09 4.74-6.03 8.92-11.42 12.3-7.2 4.52-16.5 7.2-24.39 7.2-8.9 0-11.8 7-11.74 21.52 0 1.7.04 3.17.12 5.99l.12 5.99c0 5.73-.76 11.3-2.01 16.5a66.66 66.66 0 0 1-2.15 6.97l-7 15.86-19.9 43.87a54.69 54.69 0 0 1-6.44 10.8v-1.65c2.168-2.995 4.027-6.202 5.55-9.57L30.7 79.979c.53-1.2.99-2.23 2.44-5.9 2.202-6.807 3.335-13.915 3.36-21.07 0-1.52-.03-2.66-.12-5.95l-.12-6.01c-.03-6.79.53-11.62 2.07-15.34 1.94-4.68 5.39-7.19 10.67-7.19 7.7 0 16.81-2.63 23.86-7.05 5.07-3.19 8.8-7.08 10.84-11.46h.01zm282.625 0h1.01c1.86 10.02 2.18 12.67 2.32 18.3 1.172 9.233 1.296 18.569.37 27.83-.96 8.78-3.1 16.01-6.63 21.15-11.34 16.5-39.799 29.219-66.409 29.219-5.09 0-10.47.28-16.31.83-8.152.812-16.279 1.866-24.369 3.16-21.56 3.26-27.66 4.01-36.32 4.01-6.92 0-12.199-1.05-21.689-3.9l-2.78-.83-3.65-1.02c-8-2.05-14.22-2.04-21.7.72a16.32 16.32 0 0 0-9.17 8.18c-1.6 3.05-2.5 6.06-4.02 12.83-1.5 6.64-2.34 9.52-3.99 12.64-.978 1.996-2.358 3.768-4.053 5.207a16.17 16.17 0 0 1-5.796 3.153c-3.22.986-6.39 2.128-9.5 3.42-6.55 2.8-10.1 5.569-13.8 10.469-1.33 1.75-1.03 1.3-5.43 7.9-1.98 2.97-4.66 5.8-8.48 9.14-2.01 1.76-10.71 8.83-12.88 10.7-7.37 6.35-12.58 12.14-16.63 19.14-4.22 7.299-7.8 18.299-11.28 33.259a447.02 447.02 0 0 0-2.64 12.14l-1.18 5.8-1.09 5.45c-1.8 8.96-2.77 13.279-3.77 16.259-6.8 20.44-17.26 42.16-27.13 51.2-5.11 4.699-8.1 7.069-11.1 8.859-.9.54-1.84 1.04-2.92 1.57-.44.22-9.6 4.4-14.1 6.66l-1.22.62v-1.13l.78-.39c4.52-2.26 13.67-6.44 14.1-6.65.966-.476 1.914-.989 2.84-1.54 2.94-1.75 5.88-4.089 10.94-8.729 9.71-8.9 20.1-30.51 26.87-50.79.97-2.92 1.94-7.219 3.73-16.129l1.1-5.46c1.161-6.01 2.435-11.998 3.82-17.96 3.5-15.06 7.1-26.139 11.39-33.539 4.11-7.11 9.4-12.98 16.83-19.4 2.19-1.88 10.88-8.95 12.88-10.7 3.77-3.28 6.39-6.05 8.3-8.93l5.47-7.96c3.8-5.03 7.5-7.909 14.21-10.779 2.61-1.12 5.74-2.24 9.59-3.46a15.19 15.19 0 0 0 5.456-2.961 15.17 15.17 0 0 0 3.813-4.899c1.59-3.02 2.42-5.85 4.03-12.99 1.41-6.27 2.32-9.33 3.98-12.48a17.31 17.31 0 0 1 9.7-8.66c7.7-2.83 14.1-2.84 22.3-.75 1.12.29 2.28.61 3.68 1.03l3.73 1.11c8.47 2.54 13.659 3.58 20.459 3.58 8.59 0 14.67-.75 36.18-4a414.61 414.61 0 0 1 24.409-3.17c5.88-.54 11.29-.83 16.41-.83 26.3 0 54.449-12.58 65.589-28.779 3.42-4.98 5.5-12.06 6.46-20.7.84-7.74.73-16.02.02-23.9a137.39 137.39 0 0 0-.57-5.12c0-4.47-.3-6.94-2.16-17zM18.88.01h1.03c-1.91 7.57-2.76 10.18-5.45 16.2-1.95 4.37-2.67 9.19-2.42 14.89.2 4.33.71 7.7 2.28 16.13 1.09 5.88 1.57 8.77 1.94 12.2.96 8.9.24 16.08-2.8 22.79A463.49 463.49 0 0 1 0 109.438v-2.12a464.91 464.91 0 0 0 12.54-25.519c2.97-6.52 3.67-13.53 2.72-22.27-.36-3.4-.84-6.26-1.93-12.12-1.57-8.47-2.1-11.88-2.29-16.27-.26-5.84.48-10.81 2.5-15.33 2.64-5.9 3.48-8.47 5.34-15.8zm280.465 0a70.73 70.73 0 0 1-4.91 11.24c-2.56 4.7-4.01 8.45-4.86 11.98l-.4 1.8-.28 1.45c-.099.734-.351 1.439-.74 2.07-.74 1.03-1.93 1.28-5.13 1.25.92 0-9.85-.29-15.029-.29-10.2 0-18.45.82-29.46 2.56-16.87 2.66-17.73 2.77-23.66 2.52-2.695-.109-5.373-.474-7.999-1.09-17.7-4.16-46.18-5.86-54.72-3.01-2.719.9-5.879 2.8-9.519 5.59a112.28 112.28 0 0 0-6.54 5.48l-10.78 9.84c-1.45 1.2-8.18 7.42-8.85 8.02a114.61 114.61 0 0 1-4.55 3.9c-4.99 4.03-8.9 6.2-11.92 6.2-3.52.05-4.32 0-5.14-.4-1.13-.56-1.5-1.72-1.13-3.57.74-3.63 4.47-10.84 12.84-24.8 5.69-9.48 9.42-18 11.78-26.199 1.45-5.04 1.94-7.4 2.97-14.54h1.01c-1.05 7.3-1.54 9.7-3.01 14.82-2.39 8.28-6.16 16.89-11.9 26.44-8.3 13.84-12 21.01-12.7 24.48-.3 1.45-.08 2.14.59 2.47.6.3 1.35.35 3.48.3 3.92 0 7.69-2.1 12.5-5.98 1.4-1.13 2.87-2.39 4.51-3.86l8.88-8.05c1.59-1.33 9.34-8.55 10.75-9.82 2.4-2.15 4.55-3.96 6.6-5.53 3.72-2.85 6.97-4.8 9.809-5.74 8.76-2.92 37.41-1.22 55.27 2.99 2.57.6 5.139.95 7.809 1.06 5.84.25 6.7.14 23.47-2.51 11.05-1.75 19.36-2.57 29.6-2.57 5.199 0 15.989.3 15.049.29 2.87.03 3.84-.17 4.3-.83.23-.32.4-.8.58-1.7l.28-1.43.4-1.85c.88-3.6 2.36-7.44 4.96-12.22 1.87-3.43 3.44-7 4.73-10.76h1.06zm-8.59 0c-5.91 17.94-9.55 22-19.76 22-4.499 0-10.219.32-28.689 1.5l-1.53.1c-15.6.99-23.47 1.4-28.78 1.4-5.349 0-13.239-.96-28.859-3.28l-1.54-.23c-18.42-2.74-24.13-3.49-28.6-3.49-4.449 0-7.299 1.01-10.959 3.34-.1.06-1.8 1.17-2.3 1.47-2.43 1.5-4.32 2.19-6.74 2.19-2.8 0-4.11-1.46-4.11-4.22 0-1.04.16-2.29.5-4.1l1.07-5.32c.8-4.11 1.3-7.68 1.47-11.36h2c-.17 3.82-.68 7.5-1.5 11.75l-1.07 5.31c-.267 1.223-.425 2.468-.47 3.72 0 1.7.46 2.22 2.11 2.22 1.99 0 3.55-.57 5.7-1.9.47-.28 2.15-1.37 2.26-1.44 3.96-2.52 7.16-3.66 12.039-3.66 4.62 0 10.3.74 28.9 3.51l1.53.23c15.5 2.3 23.37 3.26 28.569 3.26 5.25 0 13.11-.41 28.65-1.4l1.54-.1 28.809-1.5c8.95 0 12.15-3.4 17.66-20h2.1zm-149.247 0h1.13c-2.06 3.86-2.63 5.1-2.77 6.19-.15 1.12.42 1.64 2.32 1.96 1.8.3 3.85.35 10.809.35 6.02 0 13 .56 21.35 1.62 3.95.5 8.03 1.1 13.13 1.89 23.999 3.7 22.499 3.49 26.829 3.49 24.02 0 51.83-2.24 60.449-6.94 2.88-1.57 5.05-4.49 6.6-8.56h1.07c-1.64 4.47-3.98 7.69-7.2 9.44-8.829 4.82-36.669 7.06-60.919 7.06-4.41 0-2.84.22-26.979-3.5l-13.1-1.88c-8.31-1.06-15.26-1.62-21.23-1.62-7.039 0-9.099-.05-10.969-.37-2.38-.4-3.38-1.32-3.15-3.07.16-1.22.69-2.41 2.63-6.06zm76.398 0c5.69 1.64 10.37 2.5 14.09 2.5 9.59 0 16.7-.71 22.4-2.5h2.98c-6.26 2.53-14.18 3.5-25.38 3.5-4.5 0-10.32-1.21-17.53-3.5h3.45-.01zM70.689.01c-2.87 3.27-6.95 5.39-12.02 6.53-3.98.89-7.5 1.08-12.92 1l-1.75-.03c-5.37 0-8.86-1.24-10.1-4.97-.259-.819-.394-1.671-.4-2.53h.99c.02.82.14 1.56.36 2.22 1.06 3.17 4.17 4.28 9.15 4.28l1.76.02c5.35.09 8.8-.1 12.69-.97 4.5-1.01 8.18-2.81 10.85-5.55h1.37.02zM0 207.877c7.31-.16 11.5 3.329 11.5 11.129 0 11.41-5.05 28.35-11.5 41.5v-2.3c5.93-12.72 10.5-28.47 10.5-39.2 0-7.18-3.7-10.299-10.5-10.129v-1zm0 7.049c1.23.14 2.18.58 2.87 1.31 1.4 1.48 1.6 3.72 1.16 7.58l-.16 1.3a28.94 28.94 0 0 0-.37 3.89c0 3.2-1.48 9.52-3.5 15.9v-3.45c1.49-5.13 2.5-9.87 2.5-12.45 0-.98.08-1.75.37-4.02l.16-1.29c.42-3.56.24-5.59-.88-6.77-.5-.53-1.21-.87-2.15-1v-1zm0 195.977v-1.47c1.188-1.432 2.186-3.012 2.97-4.7 1.32-2.7 2.68-6.28 4.56-11.89 7.85-23.549 7.83-26.599.25-30.399-2.25-1.12-4.8-1.43-7.78-.91v-1.02c2.78-.552 5.665-.187 8.22 1.04 8.24 4.12 8.26 7.6.25 31.599-1.88 5.66-3.25 9.27-4.6 12.02a20.81 20.81 0 0 1-3.87 5.73zm33.639 41.099c1.68 0 3.04-.23 8.34-1.31l2.38-.47c8.26-1.569 12.72-1.299 14.53 2.33 1.38 2.75-.47 5.86-4.75 9.68-1.634 1.429-3.329 2.787-5.08 4.07l-5.79 4.27c-1.86 1.4-2.97 2.37-3.47 3.03-1.257 1.663-2.234 3.521-2.89 5.5.07-.2-4.02 13.65-6.96 22.22-2.7 7.85-5.56 10.719-8.82 8.59-2.11-1.4-3.66-4.24-6.6-11.03-1.98-4.62-2.5-5.76-3.4-7.4-4.55-8.18-3.9-23.9-.05-32.87a9.6 9.6 0 0 1 2.732-3.868c1.219-1.041 2.68-1.76 4.248-2.092 2.59-.66 4.86-.75 11.78-.67l3.8.02zm0 2c-1.13 0-2.09 0-3.82-.02-12.07-.13-14.83.57-16.9 5.41-3.63 8.47-4.26 23.55-.05 31.12.96 1.73 1.48 2.88 3.5 7.58 2.72 6.3 4.24 9.08 5.86 10.14 1.64 1.08 3.5-.8 5.82-7.55a682.95 682.95 0 0 0 6.97-22.24c.724-2.173 1.798-4.213 3.18-6.04.65-.87 1.85-1.9 3.86-3.43.92-.7 4.87-3.57 5.8-4.27 2.02-1.5 3.6-2.77 4.95-3.97 3.63-3.23 5.09-5.7 4.3-7.28-1.21-2.42-5.07-2.65-12.38-1.27l-2.35.47c-5.49 1.11-6.86 1.35-8.74 1.35zM379.264 600c-3.45-12.26-3.77-14.13-3.77-19 0-3.33-.13-6.27-.43-11.34-.63-10.329-.65-13.499.26-17.069 1.21-4.74 4.21-7.1 9.67-7.1h25.999c4.08 0 5.19 1.85 5.93 7.11.1.79.13.97.19 1.32.84 5.35 2.8 7.58 8.88 7.58 3.64 0 5.54.4 6.43 1.37.76.83.76 1.44.36 3.93-.85 5.259.5 8.849 7.5 13.799 6.32 4.45 11.629 5.36 16.549 3.37 3.8-1.54 6.73-4.16 11.92-10l1.1-1.23 1.09-1.23a75.13 75.13 0 0 1 2.7-2.859c2.8-2.753 6.033-5.027 9.57-6.73 1.52-.76 1.72-.86 5.66-2.63 6.1-2.73 9.01-4.5 11.74-7.62 2.63-3 4.67-4.85 6.7-6.04 3.179-1.85 5.459-2.13 13.679-2.13 5.98 0 10.56-4.32 18-14.99l2.82-4.03a99.33 99.33 0 0 1 2.79-3.79c7.87-10.12 19.38-10.399 30.739.96 5.54 5.53 10.17 19.43 13.64 38.51 2.5 13.749 4.18 29.459 4.47 39.839h-1c-.3-10.32-1.96-25.97-4.45-39.659-3.43-18.87-8.02-32.65-13.36-37.99-10.949-10.95-21.759-10.68-29.259-1.04a101.01 101.01 0 0 0-2.75 3.75l-2.81 4.02c-7.65 10.95-12.38 15.42-18.83 15.42-8.04 0-10.21.26-13.169 2-1.92 1.12-3.9 2.9-6.45 5.83-2.86 3.26-5.87 5.09-12.09 7.88-1.899.81-3.773 1.677-5.62 2.6-3.444 1.654-6.593 3.863-9.32 6.539-1.299 1.304-2.55 2.655-3.75 4.05l-1.1 1.24c-5.28 5.95-8.29 8.64-12.28 10.25-5.26 2.13-10.919 1.17-17.499-3.48-7.33-5.17-8.82-9.15-7.92-14.769.34-2.12.34-2.6-.1-3.1-.64-.69-2.34-1.04-5.7-1.04-6.63 0-8.96-2.63-9.87-8.42l-.2-1.34c-.67-4.82-1.53-6.24-4.93-6.24h-25.999c-5 0-7.6 2.04-8.7 6.34-.88 3.43-.85 6.57-.23 16.759a177.02 177.02 0 0 1 .43 11.4c0 4.78.32 6.63 3.81 19h-1.04zm13.679 0c-1.31-6.58-1.61-10.71-1.36-14.84a86.66 86.66 0 0 1 .18-2.38l.23-2.56c.34-3.81.5-6.97.5-11.219 0-4.94 1.46-7.76 4.21-8.42 2.38-.58 5.56.54 9.2 3 6.64 4.52 13.99 13.069 16.55 19.229 4.77 11.44 14.12 15.69 33.539 15.69 8.6 0 14.32-2.35 20.67-7.88 1.45-1.26 15.06-15 21-20 7.21-6.069 11.769-7.589 20.619-8.319 5.52-.45 7.98-.9 11.44-2.36 4.58-1.95 9.36-5.48 14.9-11.29 7.43-7.76 13.25-8.92 17.47-4.3 3.32 3.63 5.46 10.58 6.819 20.24.73 5.17.94 7.739 1.58 17.379.25 3.75.17 5.32-.919 18.03h-1c1.09-12.7 1.169-14.28.919-17.97-.639-9.6-.849-12.16-1.569-17.299-1.33-9.47-3.43-16.27-6.56-19.7-3.76-4.11-8.93-3.08-16 4.32-5.65 5.9-10.54 9.5-15.25 11.5-3.58 1.53-6.13 1.99-11.6 2.44-8.799.72-13.169 2.18-20.199 8.099-5.9 4.96-19.5 18.7-21 19.99-6.52 5.68-12.47 8.12-21.32 8.12-19.779 0-29.499-4.42-34.459-16.3-2.49-5.97-9.71-14.38-16.2-18.789-3.42-2.32-6.36-3.35-8.4-2.86-2.2.53-3.44 2.92-3.44 7.45 0 4.279-.16 7.469-.5 11.309l-.23 2.56c-.09.93-.14 1.65-.19 2.35-.24 4.08.06 8.18 1.39 14.78h-1.02zm113.749 0l10.899-14.3c5.48-6.98 13.05-12.38 19.4-13.94 7.01-1.709 11.5 1.45 11.5 9.24 0 4.02-.04 5.16-.74 19h-1l.74-19c0-7.12-3.86-9.83-10.26-8.26-6.11 1.5-13.5 6.77-18.85 13.57-1.86 2.36-7.65 10.07-10.429 13.69h-1.26zm-9.86-338.954c3.44 2.71 7 5.1 11.44 7.75l10.349 6.099c11.27 7 15 13.35 12.35 25.33-1.45 6.52-4.53 11.1-9.39 14.44-3.83 2.63-8.07 4.26-16.079 6.56-11.97 3.45-13.68 3.99-18.82 6.28a60.1 60.1 0 0 0-7.81 4.179c-11.11 7.07-19.1 7.7-27.96 3.28-3.559-1.77-17.199-10.999-17.199-11.009-1.703-1.075-3.437-2.099-5.2-3.07-16.04-8.83-34.27-24.16-34.52-31.85-.11-3.46 1.99-6.57 6.28-10.26 1.03-.9 2.18-1.81 3.68-2.95l3.94-3c4.47-3.399 7.18-5.789 9.32-8.449 11.12-13.82 26.55-28.68 34.359-32.28 12.06-5.54 19.84-5.77 27.37.12 3.25 2.54 5.65 6.54 8.58 13.35.29.65 2.3 5.45 2.88 6.74 1.62 3.65 2.9 5.8 4.24 6.94l2.2 1.8h-.01zm-3.49-.28c-1.63-1.39-3.03-3.74-4.77-7.65-.58-1.3-2.6-6.12-2.88-6.76-2.81-6.5-5.08-10.3-7.98-12.56-6.83-5.35-13.85-5.15-25.3.12-7.449 3.42-22.699 18.12-33.639 31.72-2.27 2.82-5.08 5.3-9.67 8.789l-3.94 2.98a80.75 80.75 0 0 0-3.59 2.88c-3.87 3.33-5.67 6-5.58 8.69.21 6.64 18.14 21.72 33.48 30.15 1.76.97 3.5 2 5.3 3.13.12.08 13.61 9.219 17.029 10.919 8.22 4.1 15.46 3.52 26-3.18a62.19 62.19 0 0 1 8.07-4.309c5.25-2.35 7-2.9 19.08-6.38 7.799-2.24 11.899-3.82 15.499-6.3 4.44-3.04 7.23-7.18 8.56-13.22 2.44-11.02-.83-16.6-11.45-23.2-1.9-1.18-9.229-5.42-10.319-6.08-4.5-2.689-8.13-5.119-11.64-7.899-.77-.6-1.52-1.21-2.26-1.84zm-405.623-19.16c4.3-2.98 7.88-5 12.14-6.95.84-.4 1.73-.78 2.78-1.24l4.37-1.88c6.089-2.626 12.013-5.618 17.74-8.96a320.81 320.81 0 0 1 27.869-14.499l21.17-9.52c19.17-8.62 28.1-6.93 49.499 8.05 7.91 5.539 13.24 13.249 16.45 22.659 3.02 8.83 3.76 16.51 3.76 27.75 0 8.32-.66 12.95-3.68 18.969-4.18 8.36-12.3 16.14-25.58 23.47-24.449 13.49-38.829 27.55-52.829 47.839-8.83 12.8-47.759 44.209-65.159 54.149-21.21 12.11-47.359 22.06-65.249 22.06-10.05 0-14.67-4.78-14.76-13.37-.07-6.32 2.06-13.73 6.3-24.319 2.95-7.37 2.02-12.9-2.16-22.29-3.19-7.17-3.88-9.14-3.88-12.52 0-3.35 1.87-6.9 5.52-11.07 2.61-3 3.5-3.83 11.9-11.499 5.09-4.66 8.08-7.6 10.7-10.75 9.46-11.36 12.62-19.47 17.9-44.78 3.12-15.049 6.63-20.279 15.12-25.249l4.7-2.68c1.839-1.052 3.634-2.18 5.38-3.38v.01zm.56.82c-1.765 1.218-3.58 2.362-5.44 3.43l-4.7 2.67c-8.23 4.82-11.57 9.81-14.65 24.599-5.3 25.45-8.51 33.7-18.1 45.21-2.66 3.19-5.68 6.16-10.8 10.84-8.36 7.639-9.24 8.479-11.82 11.419-3.5 4.01-5.27 7.36-5.27 10.42 0 3.18.68 5.1 3.8 12.12 4.27 9.6 5.24 15.37 2.16 23.07-4.18 10.469-6.29 17.779-6.22 23.929.08 8.06 4.26 12.38 13.76 12.38 17.67 0 43.679-9.9 64.749-21.93 17.28-9.88 56.099-41.199 64.839-53.849 14.08-20.419 28.57-34.589 53.169-48.159 13.12-7.23 21.09-14.87 25.17-23.03 2.92-5.859 3.57-10.349 3.57-18.529 0-11.13-.74-18.73-3.7-27.43-3.15-9.22-8.36-16.75-16.09-22.159-21.129-14.8-29.699-16.42-48.499-7.95.7-.32-16.96 7.56-21.17 9.5l-4.859 2.299a319.96 319.96 0 0 0-22.93 12.17c-5.763 3.361-11.724 6.37-17.85 9.01l-4.37 1.88-2.76 1.23c-4.2 1.911-8.214 4.207-11.99 6.86zm-7.6 12.2c7.7-6.25 12.3-8.17 23.679-11.27 6.12-1.67 9.12-2.95 12.31-5.72 3.8-3.3 7.47-4.52 15.86-6.1l5.06-1.02c5.48-1.24 9.48-2.93 13.099-5.89 10.42-8.53 25.4-14.11 36.31-14.11 5.33 0 16.77 7.58 25.739 17.16 10.73 11.46 15.96 23.27 12.73 32.5-3.18 9.1-11.39 18.569-23.029 27.859-8.44 6.73-18.36 13-25.22 16.43-3.72 1.86-6.59 4.88-9.77 9.99-.69 1.1-11.1 20.249-16.03 27.829-5.619 8.65-15.399 17.36-30.229 27.96l-9.2 6.42-8.6 5.89c-6.47 4.46-10.35 7.35-13.05 9.829-11.64 10.67-37.139 15.54-43.699 8.98-1.96-1.96-2.2-4.06-1.95-10.52.37-9.419-.5-14.499-4.95-20.509a34.09 34.09 0 0 0-7.04-6.92c-3.93-2.95-6.07-6.11-6.56-9.49-.97-6.61 3.87-13.06 14.17-21.69l7.09-5.779c1.858-1.46 3.606-3.054 5.23-4.77 4.1-4.63 5.85-9.55 7.8-20.07l.8-4.37.88-4.73c.74-3.78 1.5-7.18 2.4-10.63 1-3.78 1.38-5.5 2.36-10.37.6-3.019.93-4.209 1.56-5.469 1.22-2.45 1.27-2.5 12.25-11.42zm.64.78c-10.77 8.74-10.88 8.84-12 11.08-.58 1.16-.88 2.3-1.47 5.219-.98 4.89-1.36 6.63-2.37 10.44-.9 3.43-1.65 6.8-2.39 10.56l-1.29 6.95-.39 2.15c-1.98 10.68-3.77 15.74-8.04 20.54a48.91 48.91 0 0 1-5.34 4.88l-7.07 5.779c-10.04 8.4-14.72 14.65-13.83 20.78.45 3.1 2.44 6.03 6.17 8.83 3 2.25 5.39 4.62 7.24 7.12 4.63 6.24 5.52 11.52 5.15 21.149-.25 6.14-.01 8.1 1.66 9.78 6.1 6.1 31.02 1.33 42.309-9.02 2.75-2.519 6.66-5.429 13.159-9.919l8.6-5.89 9.19-6.4c14.73-10.54 24.44-19.18 29.969-27.7 4.9-7.54 15.31-26.679 16.02-27.799 3.27-5.26 6.26-8.41 10.18-10.37 6.79-3.4 16.65-9.63 25.03-16.32 11.519-9.18 19.609-18.529 22.719-27.399 3.07-8.78-2.02-20.27-12.52-31.49-8.799-9.4-20.039-16.84-25.009-16.84-10.67 0-25.43 5.5-35.68 13.89-3.759 3.07-7.899 4.81-13.499 6.09-1.41.32-2.35.5-5.11 1.02-8.21 1.55-11.76 2.73-15.38 5.88-3.34 2.9-6.45 4.22-12.7 5.92-11.26 3.07-15.749 4.94-23.309 11.09zm130.677-3.55c0 7.56-.6 10.92-2.6 14.3-1.099 1.84-7.659 10.049-8.599 11.299-5.96 7.94-9.33 10.28-17.26 13.76-1.34.58-2.2 1-3.03 1.5-.55.33-1.2.66-2 1.02-.71.33-4.46 1.9-5.52 2.39-6.05 2.78-8.99 5.8-8.99 10.73 0 10.97-18.949 36.119-34.509 44.869-8.18 4.6-21.3 9.36-32.78 11.86-13.33 2.9-22.49 2.48-24.62-2.32-1.32-2.97-4.4-4.26-11.98-5.81l-.6-.12c-4.84-.99-6.94-1.55-9.03-2.64-2.92-1.5-4.48-3.7-4.48-6.84 0-2.74 1.08-5.77 3.25-9.67.85-1.53 1.82-3.13 3.23-5.35-.16.25 2.83-4.399 3.67-5.759 6.69-10.7 9.85-18.5 9.85-27.22 0-18.41 11.22-33.369 27.499-42.859 5.22-3.05 9.23-3.31 15.2-2.12 5.04 1 6.05.9 7.43-1.52 4.5-7.85 7.04-9.5 15.87-9.5 3.93 0 6.97-.98 10.47-3.16 1.56-.97 8.669-6.17 10.989-7.68 9.2-5.98 11.34-7 25.2-11.95 6.95-2.48 15.18 1.28 22.33 9.12 6.55 7.19 11.009 16.61 11.009 23.67zm-2 0c0-6.5-4.249-15.48-10.489-22.32-6.67-7.32-14.16-10.74-20.17-8.59-13.73 4.9-15.73 5.85-24.8 11.75-2.24 1.46-9.369 6.68-11.009 7.7-3.8 2.36-7.2 3.46-11.53 3.46-8.08 0-9.98 1.23-14.13 8.5-1.1 1.91-2.51 2.88-4.35 3.09-1.3.14-1.9.05-5.22-.61-5.53-1.1-9.07-.88-13.8 1.88-15.72 9.17-26.499 23.549-26.499 41.139 0 9.2-3.28 17.29-10.15 28.28l-3.68 5.769c-1.39 2.19-2.35 3.77-3.17 5.25-2.02 3.63-3 6.38-3 8.7 0 4.19 2.87 5.67 11.9 7.52l.61.12c8.27 1.7 11.7 3.13 13.4 6.95 3.17 7.14 35.999 0 54.599-10.46 14.98-8.43 33.489-32.989 33.489-43.129 0-5.9 3.47-9.48 10.16-12.55 1.1-.5 4.85-2.08 5.52-2.38.74-.34 1.32-.64 1.8-.93.92-.55 1.85-1 3.25-1.62 7.65-3.35 10.75-5.5 16.47-13.12 1.02-1.36 7.47-9.419 8.47-11.109 1.79-3.01 2.329-6.06 2.329-13.3v.01zm-37.179-22.4c.15-.1 2.4-1.51 2.95-1.84.96-.57 1.7-.94 2.43-1.17 2.57-.83 5.06-.1 11.04 3.12 14.86 8 19.43 22.87 9.18 38.71-4.04 6.239-9.37 8.999-18.72 11.109-.85.2-1.2.27-3.13.68-6.04 1.29-8.78 2.08-11.6 3.65-3.63 2.02-6.09 4.98-7.5 9.44-7.869 24.93-19.719 43.339-36.279 50.309-16.45 6.93-21.13 8.53-27.98 8.89-4.94.25-9.8-.65-15.4-2.89-1.938-.734-3.823-1.603-5.64-2.6-4.02-2.33-5.14-4.74-4.5-9.31.3-2.13 3.77-15.529 4.84-20.649.63-3.05 1.19-6.14 1.75-9.69l1.35-8.9c1.42-9.41 2.5-14.27 4.49-18.65 2.46-5.43 6.13-9.03 11.72-11.129 6.59-2.47 10.54-3.1 18.03-3.53 4.75-.27 6.68-.64 9-2.05a13.35 13.35 0 0 0 1.82-1.33c1.21-1.044 2.337-2.181 3.37-3.4.59-.69 2.38-2.9 2.63-3.19 3.36-4 6.3-5.53 12.33-5.53 3.94 0 5.9-.92 8.18-3.36-.17.18 2.749-3.14 3.849-4.22 2.025-1.969 4.31-3.651 6.79-5a48.59 48.59 0 0 1 4.99-2.38c3.478-1.407 6.827-3.114 10.01-5.1v.01zm-14.52 8.34a29.95 29.95 0 0 0-6.57 4.84c-1.307 1.369-2.58 2.769-3.819 4.2-2.46 2.63-4.68 3.67-8.91 3.67-5.72 0-8.39 1.39-11.57 5.17l-2.63 3.2c-1.063 1.258-2.224 2.432-3.47 3.51-.65.55-1.3 1.03-1.96 1.43-2.5 1.51-4.55 1.9-9.47 2.19-7.39.42-11.25 1.04-17.719 3.47-5.34 1.999-8.82 5.399-11.17 10.599-1.93 4.27-3 9.07-4.41 18.39l-.65 4.34-.7 4.57c-.57 3.56-1.12 6.67-1.76 9.73-1.08 5.18-4.54 18.529-4.83 20.589-.59 4.17.35 6.18 4.01 8.3 1.35.77 3.1 1.58 5.52 2.55 5.46 2.18 10.18 3.05 14.97 2.8 6.69-.34 11.32-1.93 27.65-8.8 16.21-6.83 27.92-25.009 35.709-49.699 1.49-4.7 4.12-7.86 7.97-10 2.93-1.63 5.74-2.45 11.87-3.76l3.12-.68c9.12-2.06 14.24-4.7 18.1-10.669 9.92-15.34 5.55-29.55-8.82-37.29-5.75-3.1-8.03-3.76-10.25-3.05-.65.2-1.33.54-2.23 1.08-.55.32-2.77 1.72-2.93 1.82a65.88 65.88 0 0 1-10.16 5.17c-1.8.75-3.42 1.52-4.89 2.33zm-42.389 32.72c16.15-2.87 26.36-.97 32.47 6.159 5.079 5.93 1.13 21.42-5.93 35.55-4.79 9.58-10.6 16.21-23.16 25.189-14.15 10.1-35.499 12.2-40.709 3.85-1.86-2.97-2.1-8.14-1.06-15.729.78-5.68 1.86-10.71 4.73-22.98l.12-.51 3.14-14.14c1.45-7.25 3.74-11.47 7.26-13.74 2.81-1.8 5.53-2.28 12.33-2.62 5.33-.27 7.56-.46 10.81-1.029zm.18.979c-3.3.59-5.56.78-10.94 1.05-6.62.33-9.23.78-11.84 2.46-3.25 2.1-5.42 6.09-6.82 13.1-.77 3.84-1.56 7.35-3.15 14.17l-.12.5c-2.86 12.24-3.93 17.26-4.7 22.9-1.03 7.359-.79 12.359.9 15.069 4.82 7.7 25.539 5.67 39.289-4.15 12.43-8.879 18.13-15.389 22.84-24.809 6.86-13.72 10.749-29 6.07-34.45-5.84-6.81-15.7-8.649-31.53-5.84zm15.91 5.01c7.12 0 10.66 3.08 11.25 8.7.42 4.02-.43 8.14-2.77 15.94-2.56 8.52-18.36 25.38-27.2 31.279-7.01 4.67-20.02 5.67-26.569.99-3.99-2.85-3.53-12.079.02-26.459a231.52 231.52 0 0 1 2.37-8.76l3.05-10.14.37-1.2c1.48-4.8 5.1-7.75 10.73-9.27 4.4-1.2 9.54-1.5 17.48-1.33l3.89.1 7.38.15zm0 1c-1.97 0-3.53-.04-7.41-.15l-3.88-.1c-7.85-.17-12.92.13-17.2 1.3-5.32 1.43-8.67 4.16-10.03 8.6l-1.6 5.21-1.82 6.1a229.95 229.95 0 0 0-2.36 8.73c-3.43 13.88-3.87 22.929-.4 25.399 6.17 4.42 18.73 3.45 25.42-1 8.66-5.779 24.33-22.489 26.8-30.729 2.3-7.67 3.14-11.71 2.73-15.56-.53-5.1-3.64-7.8-10.25-7.8zm-17.79 7c2.908.066 5.792.538 8.57 1.4 5.42 1.78 8.72 5.03 8.72 10.1 0 9.59-9.51 17.2-22.34 21.47-9.82 3.28-13.62-1.79-11.66-16.54.84-6.28 3.82-10.67 8.24-13.46 2.568-1.607 5.461-2.621 8.47-2.97zm-.6 1.08a19.4 19.4 0 0 0-7.34 2.73c-4.18 2.64-6.98 6.78-7.77 12.76-1.89 14.11 1.36 18.45 10.34 15.46 12.46-4.16 21.66-11.53 21.66-20.53 0-4.56-2.98-7.5-8.03-9.15-2.651-.854-5.415-1.309-8.2-1.35-.13 0-.35.03-.66.08zm80.869-23.449c-2.72 9.799-14.93 9.859-26.72 3.3-10.17-5.64-13.8-17.98-5-22.87 1.528-.841 3.023-1.742 4.48-2.7l2.03-1.3a50.21 50.21 0 0 1 3.92-2.3c4.73-2.43 8.82-2.8 14-.72 9.16 3.66 10.98 13.33 7.3 26.6l-.01-.01zm-20.83-24.98c-1.313.692-2.594 1.443-3.84 2.25l-2.03 1.3-2.16 1.35a62.86 62.86 0 0 1-2.38 1.39c-7.94 4.4-4.59 15.8 5 21.12 11.31 6.289 22.8 6.229 25.28-2.7 3.57-12.83 1.85-21.97-6.7-25.4-4.9-1.95-8.69-1.62-13.17.7v-.01zm17.85 12.15c0 5.7-2.44 9-6.64 9.96-3.3.76-7.56-.05-11.08-1.81l-1.89-.94c-.67-.34-1.18-.62-1.63-.88-4.07-2.38-4.13-4.97.34-10.93 6.8-9.06 20.9-7.16 20.9 4.6zm-1 0c0-5.3-2.87-8.55-7.32-9.16-4.23-.57-8.99 1.44-11.78 5.16-4.15 5.54-4.1 7.44-.64 9.47.44.25.93.51 1.59.85l1.87.93c3.34 1.67 7.36 2.44 10.42 1.74 3.73-.86 5.86-3.74 5.86-9v.01zm196.497 280.995c0-12.8 2.44-16.74 18.479-29.769a56.78 56.78 0 0 1 7.61-5.2c2.6-1.5 5.33-2.82 8.5-4.18l4.1-1.7 3.92-1.57c9.4-3.83 13.74-6.7 16.62-12.05 1.2-2.22 2.21-4.4 3.229-6.83l1.54-3.84.3-.74.56-1.44c3.2-8.02 6.05-12.08 12.7-16.499 1.771-1.181 3.431-2.52 4.96-4 1.381-1.348 2.677-2.781 3.88-4.29l3.2-3.98c3.48-4.15 6.51-5.9 11.51-5.9 3.08 0 5.62-.63 9.57-2.1 5.42-2.02 6.53-2.34 8.96-2.2 2.53.13 4.849 1.26 7.179 3.59 1.3 1.3 5.55 5.83 6.52 6.78 5.06 5 9.44 6.92 17.77 6.92 4.03.026 8.059.176 12.08.45 15.93.87 21.939.57 25.279-2.21 6.91-5.77 11.64-2.73 11.64 7.76 0 10.729-8.6 19.999-18.999 19.999-4.8 0-8.32 1.43-9.34 3.67-1.12 2.48.68 6.15 5.98 10.57 13.599 11.33 11.239 20.76-7.64 20.76-5.343-.093-10.535 1.771-14.6 5.24-3.28 2.71-5.8 5.859-9.85 11.819l-1.52 2.25c-3.1 4.57-5.01 7.1-7.32 9.4-6.21 6.21-9.3 7.64-13.05 6.89l-1-.23c-.867-.233-1.761-.358-2.659-.37-1.6 0-2.41.67-8.18 6.22-4.85 4.67-8.07 6.78-11.82 6.78-1.33 0-3.46 1.15-6.45 3.45-1.27.98-2.68 2.14-4.5 3.7l-4.92 4.29a181.85 181.85 0 0 1-4.54 3.82c-9.33 7.559-15.63 10.199-20.209 6.519-2.7-2.149-4.14-4.509-4.63-7.259-.37-2.04-.26-3.63.29-7.3.87-5.85.65-8.42-1.83-11.6-2.32-2.98-2.96-3.22-3.77-2.39-.25.26-1.35 1.63-1.61 1.94-2.21 2.5-4.85 3.57-9 2.82-4.6-.84-5.57-4.11-4.72-10.09l.24-1.56c.6-3.66.68-4.93.25-5.8-.44-.86-1.9-.94-5.23.4l-.74.29c-13.78 5.54-15.26 6.09-19.43 6.67-6.03.84-9.309-1.6-9.309-7.9zm2 0c0 5 2.139 6.6 7.039 5.92 3.91-.55 5.43-1.1 18.95-6.55l.75-.3c4.17-1.66 6.7-1.54 7.76.58.71 1.43.62 2.76-.06 7l-.24 1.53c-.72 5.04-.06 7.27 3.09 7.84 3.43.62 5.38-.17 7.15-2.18.2-.23 1.34-1.66 1.68-2 1.9-1.96 3.82-1.25 6.78 2.55 2.9 3.74 3.17 6.77 2.22 13.12-1 6.75-.52 9.4 3.62 12.71 3.489 2.799 9.099.449 17.699-6.51 1.35-1.1 2.75-2.28 4.49-3.78l4.93-4.3c1.84-1.58 3.27-2.76 4.58-3.77 3.34-2.56 5.74-3.86 7.67-3.86 3.04 0 5.95-1.9 10.43-6.22l2.46-2.39c.94-.89 1.67-1.56 2.37-2.13 1.81-1.49 3.3-2.26 4.74-2.26 1.03 0 1.809.13 3.099.42.7.16.71.17.96.21 2.96.6 5.45-.55 11.23-6.33 2.2-2.2 4.06-4.65 7.09-9.11l1.52-2.25c4.15-6.11 6.76-9.369 10.22-12.239 4.424-3.768 10.07-5.794 15.88-5.7 16.869 0 18.619-7.01 6.36-17.23-5.9-4.92-8.12-9.41-6.52-12.93 1.42-3.12 5.67-4.84 11.16-4.84 9.249 0 16.999-8.34 16.999-17.999 0-8.94-2.88-10.79-8.36-6.23-3.94 3.28-9.979 3.59-26.669 2.68l-1.02-.06c-5.09-.27-7.99-.39-10.95-.39-8.88 0-13.76-2.14-19.18-7.5-1-.98-5.26-5.53-6.53-6.79-1.989-1.99-3.859-2.9-5.869-3-2.03-.12-3.06.18-8.15 2.07-4.15 1.55-6.9 2.22-10.27 2.22-4.33 0-6.84 1.46-9.98 5.2-.63.74-2.89 3.6-3.18 3.95a48.48 48.48 0 0 1-4.04 4.46c-1.615 1.565-3.369 2.981-5.24 4.23-6.26 4.169-8.9 7.909-11.95 15.579l-.57 1.43-.28.74-1.56 3.88a77.56 77.56 0 0 1-3.319 7c-3.16 5.88-7.82 8.97-17.63 12.96l-3.92 1.58-4.05 1.67a79.07 79.07 0 0 0-8.3 4.08c-2.582 1.471-5.04 3.15-7.35 5.02-15.62 12.699-17.739 16.129-17.739 28.229v-.01zm133.217-79.759c3.06 1.53 6.54 2.02 10.68 1.7 2.53-.2 4.91-.62 8.8-1.49 5.36-1.189 6.33-1.379 8.33-1.539 2.78-.23 4.82.169 6.29 1.399 1.58 1.31 1.96 2.72 1.26 4.22-.66 1.38-1.05 1.74-5.05 5.07-3.53 2.93-5.03 4.83-5.03 7.09 0 7.3 1.29 10.02 7.83 15.62 3.86 3.3 5.93 6.84 5.28 9.62-.75 3.25-4.96 5.02-12.61 5.02-7.18 0-12.7 4.61-20.03 14.679l-4.94 6.87c-1.398 1.977-2.979 3.818-4.72 5.5-1.06.98-2.09 1.7-3.1 2.15-2.85 1.26-5.05 1.57-9.829 1.74-7.66.27-10.87 1.45-14.98 7.1-1.58 2.17-3.11 4-4.68 5.6a42.89 42.89 0 0 1-8.65 6.69c-.15.08-10.69 6.19-14.8 8.83-3.76 2.42-6.45 2.04-8.22-.77-1.28-2.03-1.9-4.54-2.87-10.35-.84-5.08-1.27-7.08-2.06-8.93-.969-2.3-2.209-3.24-4.019-2.88-6.2 1.24-8.95 1.39-10.98.2-2.37-1.4-3.13-4.62-2.62-10.73.16-1.96-1.04-2.87-3.76-3.04-2.24-.13-4.9.2-9.94 1.12l-.69.12c-7.97 1.45-10.72 1.72-12.72.73-2.91-1.43-1.6-5.27 4.23-12.209 5.48-6.53 10.6-10.81 15.76-13.53 3.74-1.97 5.94-2.65 12.16-4.1 7.29-1.72 10.4-3.51 14.039-9.31 2.96-4.75 10.74-18.62 12.14-20.84 3.59-5.67 6.8-9.1 11.05-11.34 2.6-1.379 4.72-2.819 9.17-6.069l1.38-1.01c7.85-5.72 12.3-7.98 17.68-7.98 4.22 0 6.49 1.36 9.129 4.77a185.54 185.54 0 0 1 2 2.67c.85 1.09 1.6 1.98 2.45 2.83 1.928 1.957 4.173 3.573 6.64 4.779zm-.44.9c-2.8-1.399-5-3.029-6.92-4.969-.87-.9-1.65-1.81-2.51-2.93l-2.01-2.67c-2.469-3.18-4.459-4.38-8.339-4.38-5.09 0-9.4 2.2-17.09 7.78l-1.38 1.01c-4.49 3.29-6.63 4.739-9.3 6.149-4.06 2.15-7.16 5.45-10.66 11-1.39 2.19-9.16 16.05-12.15 20.82-3.789 6.07-7.129 7.98-14.659 9.75-6.13 1.45-8.27 2.1-11.92 4.02-5.04 2.66-10.05 6.86-15.46 13.3-5.43 6.459-6.53 9.689-4.55 10.659 1.7.84 4.48.57 12.1-.81l.7-.13c5.12-.93 7.82-1.27 10.17-1.12 3.21.2 4.92 1.48 4.7 4.11-.48 5.76.2 8.64 2.13 9.78 1.73 1.02 4.34.88 10.27-.31 2.35-.47 4 .78 5.139 3.47.83 1.95 1.27 4 2.07 8.8l.06.36c.94 5.65 1.55 8.11 2.72 9.98 1.46 2.3 3.52 2.6 6.84.46 4.14-2.66 14.69-8.77 14.81-8.85 3.088-1.81 5.931-4.008 8.46-6.54 1.668-1.709 3.205-3.541 4.6-5.48 4.32-5.95 7.81-7.23 15.74-7.5 4.659-.17 6.759-.47 9.459-1.67.9-.4 1.85-1.06 2.84-1.96a37.9 37.9 0 0 0 4.6-5.36l4.93-6.87c7.5-10.309 13.22-15.089 20.83-15.089 7.24 0 11.02-1.6 11.64-4.24.54-2.32-1.36-5.55-4.97-8.64-6.75-5.79-8.17-8.79-8.17-16.38 0-2.67 1.64-4.74 5.39-7.86 3.8-3.17 4.23-3.56 4.78-4.73.5-1.06.25-1.99-.99-3.03-2.23-1.849-4.72-1.649-13.76.36-3.93.87-6.35 1.3-8.94 1.5-4.3.34-7.97-.18-11.2-1.8v.01zm-27.999-3.899c5.65-2.82 8.96-2.2 12.9 1.37.56.5 2.6 2.469 3.02 2.869 4.199 3.89 8.069 5.71 14.299 5.71 11.37 0 14 1.41 16.1 8.09.26.83 1.35 4.6 1.66 5.62.8 2.63 1.64 5.03 2.7 7.6 2.13 5.17 2.64 8.32 1.72 10.24-.77 1.61-2.1 2.18-5.37 2.79-2.32.43-2.8.53-3.85.85-1.85.58-3.35 1.4-4.6 2.66-1 1-2.02 2.13-3.31 3.66l-3.46 4.14c-7.2 8.539-12.43 12.349-19.589 12.349-3.76 0-6.95 1.28-10.59 4-1.84 1.37-11.62 10.31-15.22 13.06-2.836 2.176-5.827 4.142-8.95 5.88-4.58 2.54-7.35 3.22-8.98 2.23-1.32-.8-1.65-2.07-1.94-5.5-.043-.604-.096-1.208-.16-1.81-.54-4.73-2.24-6.86-7.16-6.86-7.109 0-8.849-1.23-9.729-5.41-.96-4.61-2.1-6.7-6.55-9.67-3.97-2.649-4.31-5.419-1.52-8.219 2-2 4.63-3.5 11.35-6.87 6.609-3.3 9.199-4.8 11.099-6.68 1.994-1.964 3.771-4.137 5.3-6.48.98-1.5 1.83-3.04 2.88-5.13l2.12-4.3a124.76 124.76 0 0 1 2.61-4.98c5.74-10.32 10.37-14.78 23.22-21.199v-.01zm-22.34 21.699c-.89 1.59-1.69 3.12-2.6 4.94l-2.11 4.3a52.79 52.79 0 0 1-2.94 5.23c-1.571 2.398-3.394 4.621-5.44 6.63-2 2-4.62 3.51-11.349 6.87-6.6 3.3-9.2 4.8-11.1 6.69-2.33 2.34-2.08 4.37 1.38 6.669 4.7 3.14 5.96 5.46 6.97 10.3.78 3.7 2.09 4.62 8.749 4.62 5.5 0 7.57 2.57 8.15 7.75a38.95 38.95 0 0 1 .17 1.84c.25 3.06.55 4.17 1.46 4.72 1.2.74 3.69.13 7.98-2.25a72.06 72.06 0 0 0 8.82-5.8c3.55-2.7 13.34-11.65 15.24-13.07 3.79-2.83 7.18-4.19 11.18-4.19 6.769 0 11.799-3.67 18.829-11.999l3.45-4.13a59.65 59.65 0 0 1 3.37-3.72c1.4-1.374 3.123-2.375 5.01-2.91 1.1-.34 1.6-.45 3.97-.89 2.95-.55 4.07-1.02 4.65-2.23.76-1.59.28-4.5-1.74-9.43-1.037-2.518-1.951-5.084-2.74-7.69l-1.66-5.61c-1.95-6.2-4.16-7.39-15.14-7.39-6.5 0-10.61-1.93-14.98-5.98-.439-.4-2.459-2.37-3.009-2.86-3.65-3.299-6.52-3.849-11.79-1.209-12.67 6.329-17.15 10.649-22.78 20.799zm55.859 11.93c-2.98 6.45-16.78 15.26-26.739 15.26-5.33 0-7.56-2.98-7.11-7.86.32-3.48 2.1-7.91 3.93-10.61l1.52-2.32a44.41 44.41 0 0 1 1.88-2.7c3.66-4.8 7.85-7.45 13.619-7.45 9.06 0 15.75 9.52 12.9 15.68zm-.9-.42c2.52-5.47-3.65-14.26-12-14.26-5.399 0-9.329 2.48-12.819 7.06a47.83 47.83 0 0 0-1.85 2.64l-1.52 2.33c-1.74 2.57-3.46 6.85-3.77 10.14-.4 4.33 1.43 6.77 6.12 6.77 9.569 0 23.019-8.58 25.829-14.68h.01zm-69.669 20.74c2.08.18 4.44.81 5.88 1.8 2.12 1.47 2.2 3.6-.26 6.05-5.14 5.149-12.85 4.339-12.85-1.35 0-4.66 3.14-6.84 7.23-6.5zm-.09 1c-3.56-.3-6.14 1.5-6.14 5.5 0 4.579 6.53 5.259 11.15.65 2.03-2.04 1.98-3.43.4-4.52-1.27-.88-3.48-1.47-5.4-1.63h-.01zm29.59-225.947c4.64 2.35 17.27 8.24 19.39 9.43 2.683 1.42 5.075 3.334 7.049 5.64a44.94 44.94 0 0 1 3.75 5.2c2.4 3.78.04 7.66-6.2 11.63-4.969 3.16-12.179 6.3-21.949 9.82-4.84 1.74-19.63 6.68-21.1 7.2-6.59 2.33-14.85.1-25.139-5.86-3.93-2.27-8-5-12.94-8.54l-10.7-7.85c-2.753-2.081-5.635-3.985-8.63-5.7-4.82-2.6-4.45-6.64.17-12.13 3.27-3.88 4.17-4.67 18.1-16.329 3.029-2.504 5.993-5.085 8.89-7.74a95.6 95.6 0 0 0 4.72-4.66c5.08-5.43 9.799-6.49 14.969-3.92 2.24 1.1 4.53 2.85 7.43 5.52 1.48 1.37 6.94 6.72 7.98 7.7 5.2 4.91 9.46 8.199 14.2 10.599l.01-.01zm-.46.9c-4.85-2.45-9.18-5.79-14.44-10.759l-7.97-7.69c-2.83-2.61-5.06-4.3-7.2-5.37-4.75-2.36-8.999-1.4-13.799 3.71-1.532 1.624-3.119 3.195-4.76 4.71-2.48 2.3-5.16 4.62-8.92 7.77-13.86 11.599-14.77 12.399-17.98 16.209-4.28 5.08-4.58 8.4-.46 10.61 2.23 1.2 4.9 2.99 8.74 5.77l10.7 7.85c4.14 3.041 8.428 5.875 12.85 8.49 10.059 5.82 18.069 7.98 24.299 5.78l21.1-7.2c9.7-3.5 16.86-6.61 21.749-9.72 5.84-3.71 7.9-7.1 5.9-10.26a43.98 43.98 0 0 0-3.67-5.08 23.15 23.15 0 0 0-6.779-5.42c-2.08-1.16-14.68-7.05-19.36-9.4zm-38.829 8.05c3.109-.37 5.699-.13 8.399.7 2.15.66 2.74.93 8.64 3.77 4.75 2.29 8.39 3.86 13.19 5.56 8.38 2.97 11.32 6.23 8.83 9.76-2.08 2.94-8.04 5.92-17.84 9.18-8.45 2.82-15.48 2.35-21.429-.9-4.65-2.55-8.33-6.5-12.15-12.3-2.9-4.41-2.73-8.2.16-11.06 2.48-2.45 6.87-4.07 12.2-4.7v-.01zm.12 1c-5.13.6-9.33 2.16-11.62 4.42-2.53 2.5-2.68 5.77-.02 9.8 3.73 5.68 7.3 9.51 11.8 11.97 5.699 3.11 12.429 3.57 20.619.84 9.59-3.2 15.44-6.12 17.34-8.82 1.94-2.75-.5-5.45-8.35-8.24-4.84-1.72-8.5-3.3-13.28-5.6-5.84-2.81-6.42-3.07-8.5-3.71a18.42 18.42 0 0 0-7.999-.66h.01zM202.497 500.382c0 4.78-1.45 7.56-4.43 8.93-2.29 1.049-4.55 1.229-10.79 1.199l-1.78-.01c-9.19 0-17-7.649-17-15.499 0-7.59 10.6-10.51 19.74-5.44 2.78 1.55 4.21 1.94 8.57 2.75 4.44.83 5.69 2.27 5.69 8.07zm-1 0c0-5.3-.9-6.34-4.88-7.08-4.45-.83-5.96-1.25-8.86-2.86-8.57-4.76-18.26-2.1-18.26 4.56 0 7.3 7.36 14.5 16 14.5h1.79c6.06.04 8.26-.14 10.36-1.1 2.6-1.2 3.85-3.6 3.85-8.02zm33.329-117.848c3.71-1.31 8.7-2.7 16.1-4.55l20.559-5.05c19.59-4.93 31.55-8.9 38.23-13.35 14.93-9.95 36.869-33.879 43.829-47.799 2.25-4.5 4.65-6.38 7.68-6.25 1.26.06 2.61.45 4.32 1.2 1.201.521 2.382 1.088 3.54 1.7l1.26.63c4.78 2.34 8.38 3.44 12.65 3.44 7.199 0 10.009 3.07 8.349 7.91-1.4 4.06-5.919 8.91-11.099 12.019-8.3 4.98-11.75 17.3-11.75 33.57 0 3.59-1.37 6.28-3.98 8.36-1.98 1.58-4.2 2.6-8.47 4.16l-1.02.37c-4.85 1.75-6.98 2.77-8.68 4.46-5.09 5.1-12.54 7.149-20.349 7.149-1.38 0-2.47.92-3.99 3.1-.29.41-1.32 1.95-1.47 2.18-2.68 3.92-4.93 5.72-8.54 5.72-7.84 0-10.74.93-21.76 6.94-5.18 2.82-8.8 3.58-14.66 3.68-.26 0-.47 0-.92.02-4.819.06-7.119.3-10.509 1.34a73.34 73.34 0 0 0-8.89 3.56l-10.23 4.87c-7.79 3.7-13.32 5.98-18.9 7.57-12.41 3.55-18.579 2.24-27.419-4.07-2.58-1.85-2.72-4.43-.83-7.62 1.45-2.45 3.9-5.09 8.08-8.97l1.78-1.64 5.899-5.53c2.32-2.32 3.12-3.5 5.48-7.63 1.93-3.36 3.37-5.109 6.27-7.059 2.3-1.54 5.34-2.98 9.44-4.43zm.34.94c-4.03 1.42-7 2.83-9.22 4.32-2.75 1.85-4.1 3.489-5.96 6.729-2.4 4.2-3.24 5.44-5.64 7.83-1.43 1.44-2 1.96-5.939 5.57l-1.77 1.63c-4.1 3.82-6.52 6.41-7.9 8.75-1.65 2.79-1.54 4.8.55 6.3 8.6 6.14 14.459 7.38 26.569 3.92 5.5-1.57 11-3.84 18.74-7.51-.3.14 8.06-3.88 10.24-4.88 2.921-1.395 5.931-2.597 9.01-3.6 3.51-1.09 5.889-1.33 10.799-1.4h.91c5.72-.1 9.18-.83 14.2-3.57 11.16-6.08 14.2-7.06 22.24-7.06 3.19 0 5.2-1.6 7.71-5.28l1.48-2.2c1.7-2.43 3-3.519 4.81-3.519 7.569 0 14.779-2 19.649-6.85 1.83-1.84 4.04-2.9 9.04-4.7l1.02-.37c8.6-3.13 11.79-5.67 11.79-11.58 0-16.6 3.53-29.2 12.24-34.43 5-2.999 9.35-7.669 10.659-11.479 1.42-4.13-.83-6.59-7.399-6.59-4.45 0-8.19-1.14-13.09-3.54-7.52-3.67-6.78-3.34-8.72-3.43-2.58-.1-4.65 1.52-6.74 5.7-7.04 14.07-29.099 38.139-44.169 48.189-6.81 4.54-18.84 8.52-38.55 13.48l-20.559 5.05c-7.37 1.84-12.33 3.23-16 4.52zm16.83 4.03c2.08 0 4-.2 7.25-.69 5.22-.77 6.64-.9 8.46-.5 2.519.56 3.789 2.35 3.789 5.689 0 4.05-2.269 7.29-6.619 10.11-3.24 2.1-6.53 3.53-14.15 6.4l-.27.1-2.28.86c-3.04 1.16-5.27 2.52-9.33 5.43l-.8.57c-8.19 5.88-13.35 8.03-23.05 8.03-4.98 0-6.879-2.03-5.749-5.62.869-2.81 3.579-6.56 7.799-11.13 1.26-1.37 2.64-2.8 4.15-4.3 3.17-3.14 11.25-10.61 11.45-10.8a14.59 14.59 0 0 1 1.4-1.259c3.38-2.71 5.77-3.08 14.18-2.93l3.77.04zm0 1a192.55 192.55 0 0 1-3.79-.04c-8.18-.14-10.4.2-13.54 2.709-.44.35-.88.74-1.32 1.18-.2.21-8.3 7.69-11.45 10.82a135.71 135.71 0 0 0-4.12 4.26c-4.12 4.47-6.76 8.12-7.58 10.75-.899 2.88.45 4.32 4.8 4.32 9.46 0 14.44-2.07 22.46-7.84l.8-.57c4.13-2.96 6.42-4.36 9.56-5.56l2.3-.86.25-.1c7.55-2.84 10.8-4.25 13.97-6.3 4.08-2.65 6.159-5.6 6.159-9.27 0-2.889-.969-4.259-2.999-4.699-1.65-.37-3.05-.25-8.1.5-3.3.5-5.26.7-7.4.7zm112.468-45.34c-1.88 5.44-1.98 6.76-.98 12.76 1.18 7.06-1.38 16.58-5.49 16.58a16.92 16.92 0 0 0-1.51.07l-.64.04c-2.86.18-4.83.17-6.94-.17-6.55-1.06-10.41-5.14-10.41-13.44 0-13.9 2.14-19.69 8.13-26.33a21.86 21.86 0 0 0 2.52-3.749c.59-1.03 2.78-5.13 2.72-5.01 4.44-8.14 7.71-11.53 12.25-10.4 1.17.3 2.2.77 3.58 1.59l1.39.84a20.06 20.06 0 0 0 3.1 1.6c.7.27 1.8.32 4.75.26l.72-.01c3.16-.05 4.78.08 5.83.66 1.61.89 1.2 2.56-1.14 4.9l-3.86 3.76c-10.6 10.099-12.75 12.399-14.02 16.049zm-.94-.32c1.34-3.9 3.46-6.17 14.27-16.459l3.85-3.73c1.94-1.95 2.17-2.88 1.35-3.33s-2.37-.58-5.32-.53l-.72.01c-3.14.06-4.26.02-5.14-.34-1.06-.41-1.97-.9-3.25-1.67l-1.38-.83c-1.023-.654-2.139-1.149-3.31-1.47-3.88-.97-6.92 2.17-11.13 9.9.07-.13-2.14 3.98-2.73 5.02a22.63 22.63 0 0 1-2.65 3.919c-5.81 6.47-7.87 12-7.87 25.67 0 7.79 3.48 11.47 9.57 12.45 2.01.33 3.92.34 6.71.16l1.23-.07c.42-.03.73-.04.99-.04 3.2 0 5.6-8.9 4.5-15.42-1.02-6.16-.91-7.64 1.03-13.24zm-9.26 12.42c.58.52 2.5 1.9 2.55 1.93 1.96 1.57 2.04 3.31.01 6.36-3.74 5.64-8.83 3.09-8.83-4.55 0-3.81.51-5.67 2.07-6.02 1.18-.26 2 .3 4.2 2.28zm-1.34 1.48c-1.5-1.35-2.23-1.85-2.43-1.8-.17.03-.5 1.23-.5 4.06 0 5.87 2.67 7.21 5.17 3.45 1.5-2.26 1.47-2.84.4-3.7.03.03-1.95-1.4-2.64-2v-.01zM575.82 226.556c2.2-1.1 3.67-1.66 5.88-2.36l.28-.09c3.038-.896 5.982-2.085 8.79-3.55 4.17-2.08 6.35-1.88 6.96.84.44 2 .2 4.01-1.25 12.7-2.27 13.62-9.16 26.14-21.17 36.3-4.3 3.629-7.409 4.389-9.749 2.439-1.88-1.57-3.1-4.569-4.61-10.479l-1.72-6.96c-.774-3.11-1.678-6.186-2.71-9.22-2.4-6.82-3.03-10.78-2.1-12.94.77-1.83 2.08-2.24 5.6-2.45 1.49-.09 2.09-.14 2.97-.28l1.95-.33 1.68-.29c1.1-.2 1.92-.38 2.71-.6 1.699-.49 3.419-1.2 6.489-2.73zm.44.9c-3.11 1.54-4.88 2.29-6.65 2.79-.839.23-1.689.42-2.809.63a107.23 107.23 0 0 1-3.81.63c-.77.13-1.39.19-2.92.28-3.13.18-4.17.51-4.74 1.85-.78 1.84-.2 5.62 2.13 12.2a115.3 115.3 0 0 1 2.74 9.31l1.72 6.96c1.46 5.7 2.62 8.579 4.28 9.959 1.87 1.56 4.489.93 8.469-2.439 11.82-10 18.6-22.3 20.83-35.7 1.4-8.45 1.65-10.51 1.25-12.31-.41-1.87-1.86-2-5.54-.16a49.85 49.85 0 0 1-8.93 3.6l-.28.1a35.52 35.52 0 0 0-5.74 2.3zm-4.5 6.58c1.37-.32 2.5-.75 3.9-1.42l3.32-1.67c1.5-.71 2.97-1.31 4.7-1.89 2.7-.9 4.64-.77 5.88.4.98.94 1.34 2.26 1.41 4.18.02.4.02.7.02 1.37 0 5.63-4.63 16.88-11.34 22.75-4.34 3.8-7.31 4.67-9.92 2.52-2.059-1.7-3.499-4.65-6.669-12.91-1.86-4.83-2.05-8.1-.68-10.2 1.12-1.7 2.9-2.36 5.829-2.7l1.26-.12c1.19-.12 1.75-.19 2.3-.31h-.01zm-2.1 2.3l-1.219.12c-2.4.27-3.7.76-4.39 1.81-.93 1.43-.78 4.1.87 8.38 3.02 7.84 4.41 10.71 6.079 12.09 1.63 1.34 3.64.75 7.33-2.48 6.26-5.48 10.66-16.17 10.66-21.25 0-.64 0-.93-.02-1.29-.05-1.44-.3-2.33-.79-2.8-.6-.57-1.8-.65-3.87.04-1.526.505-3.019 1.106-4.47 1.8-.72.34-2.93 1.47-3.32 1.66a19.51 19.51 0 0 1-4.3 1.56c-.66.16-1.28.24-2.56.36zm-227.726-88.978c-1.59 4.299-3.54 7.249-7.14 11.399l-2.6 2.97c-.909 1.049-1.787 2.127-2.629 3.23a46.33 46.33 0 0 0-4.68 7.5c-2.85 5.7-7.14 10.18-12.85 13.89-4.25 2.76-8.25 4.62-15.67 7.59-11.01 4.4-16.43 1.26-27.219-16.4-2.86-4.69-8.8-8.63-17.98-12.66-3-1.33-12.88-5.24-14.43-5.92-4.96-2.18-7.04-3.72-6.42-5.85.67-2.32 5.3-4.049 15.48-6.079 16.63-3.32 26.929-3.82 39.929-3.02 7.9.49 9.67.5 12.74-.26 1.99-.48 3.92-1.3 6-2.6l2.79-1.71c9.86-6.14 12.94-7.96 17.3-9.9 6.029-2.71 10.569-3.32 13.939-1.4 7.2 4.12 7.68 7.7 3.44 19.22zm-1.88-.7c3.95-10.7 3.6-13.26-2.56-16.78-2.66-1.52-6.62-.99-12.119 1.48-4.24 1.9-7.3 3.7-17.07 9.77l-2.79 1.73c-2.025 1.289-4.243 2.248-6.57 2.84-3.36.81-5.22.8-13.34.3-12.84-.78-22.969-.29-39.409 3-4.9.969-8.45 1.879-10.79 2.749-2.03.76-3.04 1.45-3.17 1.91-.16.57 1.48 1.79 5.3 3.46 1.5.67 11.39 4.58 14.44 5.93 9.52 4.19 15.74 8.3 18.869 13.44 10.35 16.93 14.87 19.56 24.78 15.6 7.3-2.93 11.21-4.75 15.33-7.42 5.42-3.53 9.47-7.75 12.15-13.1a47.74 47.74 0 0 1 4.86-7.82c.871-1.138 1.778-2.248 2.719-3.33l2.6-2.97c3.46-3.99 5.28-6.75 6.77-10.789zm-6.64-.39c-7.939 12.799-18.529 21.749-33.299 25.229-7.82 1.83-12.47-.79-13.12-5.93-.55-4.45 2.29-9.06 6-9.06 3.02 0 5.6-1.68 15.38-9.159l3.66-2.74c4.4-3.2 7.77-5.17 10.82-6.08 5.57-1.67 9.329-2.15 11.349-1.22 2.5 1.14 2.22 4.13-.79 8.96zm-.84-.52c2.72-4.4 2.94-6.74 1.21-7.53-1.71-.79-5.319-.33-10.649 1.27-2.9.87-6.2 2.79-10.51 5.92l-3.65 2.74c-10.08 7.719-12.62 9.359-15.98 9.359-3.02 0-5.5 4.02-5 7.94.56 4.5 4.62 6.78 11.89 5.07 14.48-3.4 24.86-12.18 32.689-24.769zM461.162 33.539c13.88 4.96 20.75 4.96 31.62.01 3.02-1.37 5.47-2.94 11-6.82 5.57-3.92 8.049-5.51 11.139-6.92 4.14-1.88 7.78-2.38 11.22-1.28 3.92 1.26 6.2 12.3 6.78 28.45.5 14.2-.52 28.929-2.46 34.199-1.82 4.93-5.86 8.17-11.51 10.02-4.197 1.285-8.571 1.899-12.959 1.82-5.79 0-9 2.4-12.2 7.639-.37.59-1.55 2.6-1.71 2.87-1.75 2.9-3.05 4.33-4.93 4.95-.94.32-2.07.83-3.87 1.74l-2.43 1.23c-1.03.53-1.87.94-2.7 1.34-6.43 3.1-11.73 4.72-17.16 4.72-5.71 0-10.04 2.09-14.019 5.92-1.16 1.11-4.2 4.53-4.63 4.94-2.54 2.44-5.93 4.24-10.85 6.1l-6.25 2.22-2.06.78c-.89.36-1.78.63-2.7.81-5.55 1.14-11.14-.54-17.98-4.42l-5.76-3.42c-2.05-1.16-4.12-1.53-9.089-1.9l-1.73-.15c-4.78-.4-7.68-1.14-10.22-2.97-5-3.61-6.77-7.76-5.65-12.33 1.33-5.42 6.5-11.02 14.85-17.28 2.13-1.587 4.297-3.125 6.499-4.61a591.93 591.93 0 0 0 5.3-3.6c2.73-1.91 4.8-3.9 12.75-12.04l1.09-1.1c3.49-3.56 5.89-5.89 8.12-7.83 2.9-2.5 4.72-5.95 7.5-13.05l.63-1.61c2.7-6.92 4.28-10 6.87-12.33 1.42-1.28 6.68-6.54 7.93-7.5 3.98-3 8.01-2.73 19.569 1.4zm-.34.94c-11.26-4.02-14.999-4.28-18.619-1.53-1.19.9-6.4 6.11-7.88 7.43-2.42 2.18-3.96 5.19-6.6 11.95l-.63 1.61c-2.83 7.26-4.72 10.8-7.77 13.45-3.185 2.818-6.241 5.777-9.16 8.87-8.02 8.2-10.08 10.2-12.88 12.16l-5.31 3.6c-2.499 1.71-4.519 3.13-6.469 4.59-8.17 6.13-13.23 11.6-14.48 16.72-1.02 4.15.58 7.9 5.26 11.27 2.36 1.7 5.11 2.4 9.72 2.8l1.73.13c5.119.4 7.279.78 9.499 2.05.65.36 4.5 2.7 5.76 3.4 6.66 3.78 12.04 5.4 17.29 4.32.86-.17 1.7-.42 2.52-.75a65.68 65.68 0 0 1 2.1-.8l6.24-2.22c4.8-1.8 8.08-3.56 10.5-5.88.4-.38 3.44-3.8 4.63-4.94 4.159-4 8.719-6.2 14.719-6.2 5.25 0 10.42-1.59 16.73-4.62l2.68-1.33 2.43-1.23c1.84-.93 3-1.46 4-1.8 1.6-.52 2.76-1.82 4.39-4.52l1.7-2.88c3.39-5.5 6.87-8.109 13.07-8.109 4.449 0 8.729-.49 12.639-1.77 5.4-1.76 9.2-4.8 10.9-9.41 1.87-5.11 2.9-19.75 2.39-33.829-.56-15.53-2.81-26.479-6.08-27.519-3.18-1.02-6.57-.55-10.5 1.23-3.02 1.37-5.47 2.94-10.999 6.83-5.57 3.92-8.05 5.5-11.14 6.92-11.13 5.05-18.26 5.05-32.38.01zm14.17 20.53c5.38 0 7.55-.21 9.72-.96 1.26-.43 9.95-4.8 14.88-6.96 1.9-.82 3.56-2.44 6.6-6.04 2.56-3.04 3.19-3.75 4.399-4.84 3.7-3.35 7.07-3.28 10.22 1.23 6.23 8.9 5.61 15.94.07 27.02a71.45 71.45 0 0 0-2.5 5.48c-.32.8-1 2.7-1.09 2.9a8.52 8.52 0 0 1-.54 1.17c-.63 1.14-1.56 2.21-4.05 4.7-2.399 2.4-5.159 3.27-11.679 4.33l-3 .51c-6.02 1.1-9.6 2.69-12.24 6.07-3.57 4.59-7.9 7.48-14.98 10.74l-1.8.8-1.78.8a60.11 60.11 0 0 0-7.7 3.9c-2.57 1.6-4.79 2.35-9.42 3.46-8.579 2.06-12.279 3.76-17.369 9.36-5.12 5.64-10.17 7.64-16.63 6.7-5.36-.79-10.63-3.01-23.56-9.48-6.299-3.15-6.429-7.78-1.5-13.56 3.38-3.94 3.52-4.06 19.4-16.439 8.12-6.33 12.97-10.57 16.63-14.88 2.53-2.98 4.2-5.73 4.96-8.3 5.5-18.3 12.5-21.98 22.779-15.56 1.95 1.22 6.61 4.55 7.18 4.9 3.36 2.15 6.52 2.95 13 2.95zm0 2c-6.84 0-10.37-.89-14.08-3.26-.63-.4-5.27-3.71-7.16-4.9-9.049-5.65-14.659-2.7-19.799 14.45-.86 2.87-2.67 5.85-5.35 9.01-3.78 4.45-8.7 8.75-16.94 15.17-15.66 12.21-15.86 12.38-19.1 16.16-4.169 4.9-4.089 8 .88 10.48 12.71 6.35 17.89 8.54 22.94 9.28 5.78.84 10.18-.9 14.87-6.06 5.42-5.96 9.45-7.82 18.38-9.96 4.429-1.07 6.499-1.76 8.829-3.22 2.547-1.529 5.2-2.873 7.94-4.02l1.78-.8 1.78-.8c6.82-3.13 10.91-5.87 14.24-10.14 3-3.87 7-5.64 13.46-6.82l3.04-.51c6.1-1 8.6-1.78 10.579-3.77 2.36-2.36 3.21-3.34 3.72-4.26a7.67 7.67 0 0 0 .44-.94c.06-.15.75-2.06 1.09-2.9.64-1.6 1.45-3.4 2.57-5.64 5.24-10.49 5.8-16.8.07-24.979-2.4-3.44-4.37-3.48-7.24-.89-1.11 1-1.73 1.7-4.219 4.65-3.24 3.85-5.04 5.59-7.32 6.59-4.82 2.1-13.62 6.53-15.03 7.01-2.44.84-4.79 1.07-10.37 1.07zm-12.7 8.6c5.47 3.9 10.34 3.72 18.23.88 5.39-1.94 5.92-2.1 7.7-2.1 2.5-.01 4.21 1.36 5.24 4.46 1.66 4.98-2.32 8.52-12.3 12.68-2.7 1.13-16.25 6.18-20 7.73-7.86 3.24-13.929 6.42-18.869 10.15-13.02 9.84-18.36 11.93-23.71 9.68-1.26-.558-2.471-1.22-3.62-1.98l-1.99-1.28-2.24-1.4c-3.33-2-2.82-4.28.85-7.34 1.35-1.13 10.66-7.61 13.53-9.91 7.1-5.69 11.91-11.47 14.41-18.34 3.07-8.45 4.89-12.1 6.8-13.39 1.73-1.16 3.36-.53 6.179 1.9l4.11 3.7c1.93 1.7 3.71 3.15 5.67 4.55l.01.01zm-.6.8c-1.98-1.42-3.79-2.88-5.74-4.6-.73-.64-3.48-3.16-4.1-3.7-2.5-2.16-3.749-2.65-4.969-1.83-1.66 1.11-3.44 4.7-6.42 12.9-2.57 7.07-7.5 12.99-14.72 18.78-2.91 2.33-12.21 8.8-13.52 9.9-3.22 2.68-3.56 4.17-.97 5.72l2.26 1.4 1.99 1.28c1.47.93 2.48 1.5 3.47 1.91 4.9 2.07 9.96.07 22.72-9.56 5.02-3.79 11.149-7 19.099-10.28 3.76-1.55 17.3-6.6 20-7.72 9.5-3.97 13.14-7.2 11.73-11.44-.9-2.71-2.25-3.8-4.3-3.79-1.6 0-2.15.17-7.36 2.05-8.17 2.94-13.34 3.14-19.16-1.01l-.01-.01z" fill="#282b3b" fill-opacity=".5"/></svg>