<svg width="12" height="12" viewBox="0 0 12 12" fill="none" xmlns="http://www.w3.org/2000/svg">
<g clip-path="url(#clip0_13865_74975)">
<path d="M12 11.3462C12 11.4686 11.9514 11.586 11.8648 11.6726C11.7783 11.7591 11.6609 11.8078 11.5385 11.8078H0.461538C0.339131 11.8078 0.221737 11.7591 0.135181 11.6726C0.0486262 11.586 0 11.4686 0 11.3462C0 11.2238 0.0486262 11.1064 0.135181 11.0199C0.221737 10.9333 0.339131 10.8847 0.461538 10.8847H0.923077V6.19238C0.923077 6.06998 0.971703 5.95258 1.05826 5.86603C1.14481 5.77947 1.26221 5.73084 1.38462 5.73084H2.76923C2.89164 5.73084 3.00903 5.77947 3.09559 5.86603C3.18214 5.95258 3.23077 6.06998 3.23077 6.19238V10.8847H4.15385V3.42315C4.15385 3.30074 4.20247 3.18335 4.28903 3.0968C4.37558 3.01024 4.49298 2.96161 4.61538 2.96161H6.46154C6.58395 2.96161 6.70134 3.01024 6.7879 3.0968C6.87445 3.18335 6.92308 3.30074 6.92308 3.42315V10.8847H7.84615V0.653921C7.84615 0.531514 7.89478 0.41412 7.98134 0.327564C8.06789 0.241009 8.18528 0.192383 8.30769 0.192383H10.6154C10.7378 0.192383 10.8552 0.241009 10.9417 0.327564C11.0283 0.41412 11.0769 0.531514 11.0769 0.653921V10.8847H11.5385C11.6609 10.8847 11.7783 10.9333 11.8648 11.0199C11.9514 11.1064 12 11.2238 12 11.3462Z" fill="#6848FF"/>
</g>
<defs>
<clipPath id="clip0_13865_74975">
<rect width="12" height="12" fill="white"/>
</clipPath>
</defs>
</svg>
