<svg xmlns="http://www.w3.org/2000/svg" viewBox="0 0 1080 1080">
  <g id="hollar-logo-for-web" transform="translate(-0.001 0.001)">
    <circle id="Ellipse_891" data-name="Ellipse 891" cx="540" cy="540" r="540"
      transform="translate(0.001 -0.001)" fill="#b3cf92" />
    <path id="Path_148002" data-name="Path 148002"
      d="M841.844,285.587h12.045V245.44H615.624v40.147h12.043c26.537,0,41.39,2.529,48.095,8.27,5.38,4.576,7.467,13.73,7.467,32.558l-.12,154.039H379.246V326.415c0-31.354,0-40.828,54.879-40.828h12.043V245.44H208.586v40.147h12.043c58.894,0,58.894,9.474,58.894,40.828v142a12.044,12.044,0,0,1-12.044,12.043h-46.85v29.627h46.85a12.044,12.044,0,0,1,12.044,12.043v18.267H220.629v29.627h46.85a12.043,12.043,0,0,1,12.044,12.043v142c0,31.354,0,40.828-58.894,40.828H208.586v40.146H446.168V764.886H434.125c-54.879,0-54.879-9.474-54.879-40.828v-142a12.043,12.043,0,0,1,12.043-12.043h279.9a12.043,12.043,0,0,1,12.044,12.043v142c0,18.868-2.087,27.982-7.467,32.558-6.7,5.7-21.558,8.27-48.095,8.27H615.624v40.146H853.889V764.886H841.844c-59.576,0-59.576-10.277-59.576-40.828v-142a12.043,12.043,0,0,1,12.044-12.043h47.533V540.391H782.268V522.124a12.044,12.044,0,0,1,12.044-12.043h47.533V480.454H794.312a12.044,12.044,0,0,1-12.044-12.043v-142C782.268,295.864,782.268,285.587,841.844,285.587ZM683.229,540.351H379.246v-30.31H683.109v14.492l.16,12.044v3.733a.041.041,0,0,1-.04.041Z"
      transform="translate(10.999 13.401)" fill="#fff" />
  </g>
</svg>
