<svg width="16" height="16" viewBox="0 0 16 16" fill="none" xmlns="http://www.w3.org/2000/svg">
<path d="M14.6489 13.1249C13.792 11.621 12.4539 10.4491 10.8502 9.79805C11.6477 9.19988 12.2368 8.36594 12.5341 7.41434C12.8313 6.46275 12.8217 5.44175 12.5064 4.49597C12.1911 3.55018 11.5863 2.72757 10.7775 2.14465C9.96876 1.56172 8.99709 1.24805 8.00015 1.24805C7.00321 1.24805 6.03154 1.56172 5.22278 2.14465C4.41401 2.72757 3.80916 3.55018 3.4939 4.49597C3.17864 5.44175 3.16895 6.46275 3.46621 7.41434C3.76347 8.36594 4.3526 9.19988 5.15015 9.79805C3.54635 10.4491 2.2083 11.621 1.3514 13.1249C1.2983 13.2103 1.26291 13.3055 1.24734 13.4048C1.23176 13.5041 1.23631 13.6056 1.26073 13.7031C1.28514 13.8006 1.32891 13.8923 1.38944 13.9725C1.44997 14.0528 1.52603 14.1201 1.61308 14.1704C1.70014 14.2207 1.79642 14.253 1.8962 14.2653C1.99598 14.2777 2.09722 14.2698 2.19391 14.2423C2.2906 14.2147 2.38076 14.168 2.45903 14.1049C2.5373 14.0418 2.60208 13.9636 2.64952 13.8749C3.78202 11.9174 5.78202 10.7499 8.00015 10.7499C10.2183 10.7499 12.2183 11.918 13.3508 13.8749C13.4536 14.0403 13.6167 14.1591 13.8056 14.2064C13.9944 14.2537 14.1943 14.2256 14.3629 14.1282C14.5314 14.0308 14.6555 13.8717 14.7089 13.6845C14.7623 13.4972 14.7408 13.2966 14.6489 13.1249ZM4.75015 5.99992C4.75015 5.35713 4.94076 4.72878 5.29787 4.19432C5.65499 3.65986 6.16257 3.2433 6.75643 2.99731C7.35029 2.75133 8.00376 2.68697 8.63419 2.81237C9.26463 2.93777 9.84373 3.2473 10.2982 3.70182C10.7528 4.15635 11.0623 4.73544 11.1877 5.36588C11.3131 5.99632 11.2487 6.64978 11.0028 7.24364C10.7568 7.8375 10.3402 8.34508 9.80575 8.7022C9.27129 9.05931 8.64294 9.24992 8.00015 9.24992C7.1385 9.24893 6.31243 8.9062 5.70315 8.29692C5.09387 7.68764 4.75114 6.86157 4.75015 5.99992Z" fill="#9DA9BB"/>
</svg>
