<svg width="14" height="14" viewBox="0 0 14 14" fill="none" xmlns="http://www.w3.org/2000/svg">
    <path d="M4.81614 9.18351L9.18383 4.81582M8.09176 10.2759L6.27189 12.0958C5.69266 12.6748 4.90716 13.0001 4.08816 13C3.26915 12.9999 2.4837 12.6745 1.90458 12.0954C1.32545 11.5163 1.00007 10.7309 1 9.91185C0.99993 9.09284 1.32518 8.30734 1.9042 7.72811L3.72407 5.90825M10.2759 8.09175L12.0958 6.27189C12.6748 5.69266 13.0001 4.90716 13 4.08815C12.9999 3.26915 12.6745 2.4837 12.0954 1.90458C11.5163 1.32545 10.7308 1.00007 9.91184 1C9.09283 0.99993 8.30733 1.32518 7.7281 1.9042L5.90823 3.72407"
          stroke="#506176" stroke-width="1.25" stroke-linecap="round" stroke-linejoin="round"/>
</svg>
