<svg width="16" height="16" viewBox="0 0 16 16" fill="none" xmlns="http://www.w3.org/2000/svg">
<g clip-path="url(#clip0_10825_55495)">
<path d="M4.4 13.5C4.72926 12.8257 5.2413 12.2574 5.87778 11.8599C6.51426 11.4624 7.24959 11.2516 8 11.2516C8.75041 11.2516 9.48574 11.4624 10.1222 11.8599C10.7587 12.2574 11.2707 12.8257 11.6 13.5M12.7812 7.2875C13.7653 7.42909 14.653 7.95501 15.25 8.75M10.4438 4.3875C10.589 4.08443 10.8082 3.82284 11.0812 3.62688C11.3542 3.43093 11.6722 3.30692 12.0058 3.26633C12.3394 3.22573 12.6779 3.26985 12.9899 3.39461C13.3019 3.51937 13.5775 3.72075 13.7912 3.98014C14.0048 4.23954 14.1497 4.54859 14.2123 4.87876C14.275 5.20893 14.2535 5.54956 14.1497 5.8692C14.0459 6.18884 13.8633 6.47718 13.6187 6.70759C13.374 6.938 13.0753 7.10305 12.75 7.1875M3.25 7.1875C2.92472 7.10305 2.62597 6.938 2.38134 6.70759C2.1367 6.47718 1.95407 6.18884 1.85031 5.8692C1.74655 5.54956 1.725 5.20893 1.78766 4.87876C1.85032 4.54859 1.99517 4.23954 2.20883 3.98014C2.42248 3.72075 2.69806 3.51937 3.0101 3.39461C3.32214 3.26985 3.66059 3.22573 3.99419 3.26633C4.32779 3.30692 4.64578 3.43093 4.91879 3.62688C5.19181 3.82284 5.41104 4.08443 5.55625 4.3875M0.75 8.75C1.34695 7.95501 2.23472 7.42909 3.21875 7.2875M10.5 8.75C10.5 10.1307 9.38071 11.25 8 11.25C6.61929 11.25 5.5 10.1307 5.5 8.75C5.5 7.36929 6.61929 6.25 8 6.25C9.38071 6.25 10.5 7.36929 10.5 8.75Z" stroke="#9DA9BB" stroke-width="1.25" stroke-linecap="round" stroke-linejoin="round"/>
</g>
<defs>
<clipPath id="clip0_10825_55495">
<rect width="16" height="16" fill="white"/>
</clipPath>
</defs>
</svg>
