<svg width="20" height="20" viewBox="0 0 20 20" fill="none" xmlns="http://www.w3.org/2000/svg">
<g clip-path="url(#clip0_9625_1618)">
<path d="M18.125 11.25C18.1235 12.5756 17.5963 13.8465 16.6589 14.7839C15.7215 15.7212 14.4506 16.2485 13.125 16.25H6.25002C6.08426 16.25 5.92529 16.1842 5.80808 16.067C5.69087 15.9497 5.62502 15.7908 5.62502 15.625C5.62502 15.4592 5.69087 15.3003 5.80808 15.1831C5.92529 15.0659 6.08426 15 6.25002 15H13.125C14.1196 15 15.0734 14.6049 15.7767 13.9017C16.4799 13.1984 16.875 12.2446 16.875 11.25C16.875 10.2554 16.4799 9.30162 15.7767 8.59836C15.0734 7.8951 14.1196 7.50001 13.125 7.50001H6.87502V10.625C6.87502 10.7486 6.83836 10.8695 6.76968 10.9722C6.701 11.075 6.60339 11.1551 6.48918 11.2024C6.37497 11.2497 6.2493 11.2621 6.12806 11.238C6.00682 11.2139 5.89546 11.1544 5.80805 11.0669L2.05805 7.31694C1.94084 7.19973 1.875 7.04077 1.875 6.87501C1.875 6.70925 1.94084 6.55029 2.05805 6.43308L5.80805 2.68308C5.89546 2.59566 6.00682 2.53613 6.12806 2.51201C6.2493 2.48789 6.37497 2.50027 6.48918 2.54757C6.60339 2.59488 6.70101 2.67499 6.76969 2.77777C6.83836 2.88055 6.87502 3.00139 6.87502 3.12501V6.25001H13.125C14.4506 6.2515 15.7215 6.77876 16.6589 7.71612C17.5963 8.65348 18.1235 9.92438 18.125 11.25Z" fill="#506176"/>
</g>
<defs>
<clipPath id="clip0_9625_1618">
<rect width="20" height="20" fill="white"/>
</clipPath>
</defs>
</svg>

