<svg width="12" height="12" viewBox="0 0 12 12" fill="none" xmlns="http://www.w3.org/2000/svg">
<path fill-rule="evenodd" clip-rule="evenodd" d="M0 6C0 2.68629 2.68629 0 6 0C9.31368 0 12 2.68629 12 6C12 9.31368 9.31368 12 6 12C2.68629 12 0 9.31368 0 6ZM3.77477 4.28847C3.77477 3.07041 4.78197 2.10254 5.99997 2.10254C7.21798 2.10254 8.22517 3.07041 8.22517 4.28847C8.22517 5.33493 7.48178 6.19672 6.49997 6.41877V7.43778C6.49997 7.71392 6.27611 7.93778 5.99997 7.93778C5.72383 7.93778 5.49997 7.71392 5.49997 7.43778V5.97439C5.49997 5.69825 5.72383 5.47439 5.99997 5.47439C6.68754 5.47439 7.22517 4.93265 7.22517 4.28847C7.22517 3.64429 6.68754 3.10254 5.99997 3.10254C5.31241 3.10254 4.77477 3.64429 4.77477 4.28847C4.77477 4.56461 4.55091 4.78847 4.27477 4.78847C3.99863 4.78847 3.77477 4.56461 3.77477 4.28847ZM6.00017 9.75759C6.33077 9.75759 6.59878 9.48957 6.59878 9.15897C6.59878 8.82837 6.33077 8.56036 6.00017 8.56036C5.66956 8.56036 5.40155 8.82837 5.40155 9.15897C5.40155 9.48957 5.66956 9.75759 6.00017 9.75759Z" fill="#D7DEE8"/>
</svg>
