<svg width="14" height="14" viewBox="0 0 14 14" fill="none" xmlns="http://www.w3.org/2000/svg">
<path fill-rule="evenodd" clip-rule="evenodd" d="M7 13C10.3137 13 13 10.3137 13 7C13 3.68629 10.3137 1 7 1C3.68629 1 1 3.68629 1 7C1 10.3137 3.68629 13 7 13ZM6.61925 3.38849C6.51827 3.48947 6.46154 3.62643 6.46154 3.76924V7.53847C6.46154 7.68128 6.51827 7.81824 6.61925 7.91922C6.72023 8.0202 6.85719 8.07693 7 8.07693C7.14281 8.07693 7.27977 8.0202 7.38075 7.91922C7.48173 7.81824 7.53846 7.68128 7.53846 7.53847V3.76924C7.53846 3.62643 7.48173 3.48947 7.38075 3.38849C7.27977 3.2875 7.14281 3.23077 7 3.23077C6.85719 3.23077 6.72023 3.2875 6.61925 3.38849ZM6.55127 10.6331C6.68409 10.7219 6.84025 10.7692 7 10.7692C7.21421 10.7692 7.41964 10.6841 7.57111 10.5327C7.72258 10.3812 7.80768 10.1758 7.80769 9.96154C7.80769 9.8018 7.76032 9.64564 7.67157 9.51281C7.58282 9.37999 7.45668 9.27647 7.30909 9.21533C7.1615 9.1542 6.9991 9.13821 6.84243 9.16937C6.68575 9.20054 6.54183 9.27746 6.42887 9.39042C6.31592 9.50338 6.23899 9.64729 6.20783 9.80397C6.17666 9.96065 6.19266 10.123 6.25379 10.2706C6.31492 10.4182 6.41845 10.5444 6.55127 10.6331Z" fill="#FF9800"/>
</svg>
