<svg width="16" height="16" viewBox="0 0 16 16" fill="none" xmlns="http://www.w3.org/2000/svg">
<path d="M6.25003 6.40049H10M6.25003 9.20049H10M8.25001 13.5H2.97917C2.85208 13.5 2.73021 13.4495 2.64034 13.3597C2.55048 13.2698 2.5 13.1479 2.5 13.0208V7.74999C2.5 6.99489 2.64873 6.24718 2.93769 5.54956C3.22666 4.85194 3.6502 4.21807 4.18413 3.68413C4.71807 3.1502 5.35194 2.72666 6.04956 2.43769C6.74718 2.14873 7.49489 2 8.24999 2C9.00509 2 9.75281 2.14873 10.4504 2.43769C11.1481 2.72666 11.7819 3.1502 12.3159 3.68414C12.8498 4.21807 13.2733 4.85195 13.5623 5.54957C13.8513 6.24719 14 6.9949 14 7.75C14 9.27499 13.3942 10.7375 12.3159 11.8159C11.2375 12.8942 9.775 13.5 8.25001 13.5Z" stroke="#9DA9BB" stroke-width="1.5" stroke-linecap="round" stroke-linejoin="round"/>
</svg>
