<svg width="12" height="12" viewBox="0 0 12 12" fill="none" xmlns="http://www.w3.org/2000/svg">
<path d="M11.5 2.30769C11.5 2.4301 11.4517 2.54749 11.3658 2.63405C11.2798 2.7206 11.1632 2.76923 11.0417 2.76923H10.5833V11.0769C10.5833 11.3217 10.4868 11.5565 10.3148 11.7296C10.1429 11.9027 9.90978 12 9.66667 12H2.33333C2.09022 12 1.85706 11.9027 1.68515 11.7296C1.51324 11.5565 1.41667 11.3217 1.41667 11.0769V2.76923H0.958333C0.836776 2.76923 0.720197 2.7206 0.634243 2.63405C0.548289 2.54749 0.5 2.4301 0.5 2.30769C0.5 2.18528 0.548289 2.06789 0.634243 1.98134C0.720197 1.89478 0.836776 1.84615 0.958333 1.84615H11.0417C11.1632 1.84615 11.2798 1.89478 11.3658 1.98134C11.4517 2.06789 11.5 2.18528 11.5 2.30769ZM3.70833 0.923077H8.29167C8.41322 0.923077 8.5298 0.874451 8.61576 0.787895C8.70171 0.70134 8.75 0.583946 8.75 0.461538C8.75 0.339131 8.70171 0.221737 8.61576 0.135181C8.5298 0.0486262 8.41322 0 8.29167 0H3.70833C3.58678 0 3.4702 0.0486262 3.38424 0.135181C3.29829 0.221737 3.25 0.339131 3.25 0.461538C3.25 0.583946 3.29829 0.70134 3.38424 0.787895C3.4702 0.874451 3.58678 0.923077 3.70833 0.923077Z" fill="#9DA9BB"/>
</svg>
