<svg width="24" height="24" viewBox="0 0 24 24" fill="none" xmlns="http://www.w3.org/2000/svg">
<path d="M14.25 3V8.25H19.5" fill="#D7DEE8"/>
<path d="M14.25 3V8.25H19.5" stroke="#D7DEE8" stroke-width="1.8" stroke-linecap="round" stroke-linejoin="round"/>
<path d="M13.875 12L16.125 14.25L13.875 16.5" stroke="#D7DEE8" stroke-width="1.8" stroke-linecap="round" stroke-linejoin="round"/>
<path d="M10.125 12L7.875 14.25L10.125 16.5" stroke="#D7DEE8" stroke-width="1.8" stroke-linecap="round" stroke-linejoin="round"/>
<path d="M18.75 21C18.9489 21 19.1397 20.921 19.2803 20.7803C19.421 20.6397 19.5 20.4489 19.5 20.25V8.25L14.25 3H5.25C5.05109 3 4.86032 3.07902 4.71967 3.21967C4.57902 3.36032 4.5 3.55109 4.5 3.75V20.25C4.5 20.4489 4.57902 20.6397 4.71967 20.7803C4.86032 20.921 5.05109 21 5.25 21H18.75Z" stroke="#D7DEE8" stroke-width="1.8" stroke-linecap="round" stroke-linejoin="round"/>
</svg>
