<svg width="21" height="20" viewBox="0 0 21 20" fill="none" xmlns="http://www.w3.org/2000/svg">
    <path d="M18 5.63116L16.3334 7.29783V3.33366H8.83335V7.50033H4.66669V16.667H16.3334V14.3695L18 12.7028V17.507C17.9998 17.7263 17.9125 17.9366 17.7574 18.0916C17.6022 18.2466 17.3918 18.3337 17.1725 18.3337H3.82752C3.71808 18.3329 3.60987 18.3106 3.50906 18.268C3.40825 18.2254 3.31681 18.1634 3.23997 18.0855C3.16313 18.0075 3.10239 17.9152 3.06122 17.8138C3.02005 17.7124 2.99925 17.6039 3.00002 17.4945V6.66699L8.00252 1.66699H17.165C17.625 1.66699 18 2.04616 18 2.49366V5.63116ZM18.6484 7.33949L19.8267 8.51866L13.345 15.0003L12.165 14.9987L12.1667 13.822L18.6484 7.34033V7.33949Z" fill="#506176"/>
</svg>
