<svg width="14" height="14" viewBox="0 0 14 14" fill="none" xmlns="http://www.w3.org/2000/svg">
<path d="M9.95852 12.5L9.34213 12.6034C9.39264 12.9045 9.65325 13.125 9.95852 13.125V12.5ZM4.04148 12.5V13.125C4.34675 13.125 4.60736 12.9045 4.65786 12.6034L4.04148 12.5ZM8.375 8C8.375 8.75939 7.75939 9.375 7 9.375V10.625C8.44975 10.625 9.625 9.44975 9.625 8H8.375ZM7 9.375C6.24061 9.375 5.625 8.75939 5.625 8H4.375C4.375 9.44975 5.55025 10.625 7 10.625V9.375ZM5.625 8C5.625 7.24061 6.24061 6.625 7 6.625V5.375C5.55025 5.375 4.375 6.55025 4.375 8H5.625ZM7 6.625C7.75939 6.625 8.375 7.24061 8.375 8H9.625C9.625 6.55025 8.44975 5.375 7 5.375V6.625ZM2 2.125H12V0.875H2V2.125ZM12 2.125C11.9451 2.125 11.9072 2.09921 11.8911 2.08151C11.8759 2.0648 11.875 2.05197 11.875 2.05H13.125C13.125 1.45846 12.676 0.875 12 0.875V2.125ZM11.875 2.05V11.95H13.125V2.05H11.875ZM11.875 11.95C11.875 11.948 11.8759 11.9352 11.8911 11.9185C11.9072 11.9008 11.9451 11.875 12 11.875V13.125C12.676 13.125 13.125 12.5415 13.125 11.95H11.875ZM2 11.875C2.05494 11.875 2.09282 11.9008 2.10891 11.9185C2.12411 11.9352 2.125 11.948 2.125 11.95H0.875C0.875 12.5415 1.32396 13.125 2 13.125V11.875ZM2.125 11.95V2.05H0.875V11.95H2.125ZM2.125 2.05C2.125 2.05197 2.12411 2.06479 2.10891 2.08151C2.09282 2.09921 2.05494 2.125 2 2.125V0.875C1.32396 0.875 0.875 1.45846 0.875 2.05H2.125ZM7 10.625C8.17619 10.625 9.15377 11.4806 9.34213 12.6034L10.5749 12.3966C10.2872 10.6817 8.79681 9.375 7 9.375V10.625ZM12 11.875H9.95852V13.125H12V11.875ZM4.04148 11.875H2V13.125H4.04148V11.875ZM4.65786 12.6034C4.84623 11.4806 5.82381 10.625 7 10.625V9.375C5.20319 9.375 3.7128 10.6817 3.42509 12.3966L4.65786 12.6034Z" fill="#9DA9BB"/>
</svg>
