<svg width="20" height="20" viewBox="0 0 20 20" fill="none" xmlns="http://www.w3.org/2000/svg">
<g clip-path="url(#clip0_11471_3975)">
<path fill-rule="evenodd" clip-rule="evenodd" d="M10 18C14.4183 18 18 14.4183 18 10C18 5.58172 14.4183 2 10 2C5.58172 2 2 5.58172 2 10C2 14.4183 5.58172 18 10 18ZM8.40002 5.95C7.98581 5.95 7.65002 6.28579 7.65002 6.7C7.65002 7.11421 7.98581 7.45 8.40002 7.45H10.3664L9.20512 9.10895C9.04476 9.33804 9.02517 9.63733 9.1543 9.88538C9.28343 10.1334 9.53985 10.289 9.81949 10.289C10.023 10.2891 10.2233 10.3393 10.4027 10.4352C10.5822 10.5311 10.7352 10.6698 10.8482 10.839C10.9613 11.0082 11.0308 11.2026 11.0508 11.4051C11.0707 11.6076 11.0404 11.8119 10.9625 11.9999C10.8847 12.1879 10.7616 12.3538 10.6044 12.4828C10.4471 12.6119 10.2604 12.7002 10.0608 12.7399C9.86126 12.7796 9.65498 12.7695 9.46027 12.7104C9.26555 12.6514 9.08841 12.5452 8.94452 12.4013C8.65161 12.1085 8.17674 12.1085 7.88386 12.4014C7.59098 12.6943 7.59101 13.1692 7.88392 13.4621C8.20223 13.7803 8.59413 14.0152 9.02489 14.1459C9.45565 14.2765 9.91199 14.2989 10.3535 14.2111C10.795 14.1233 11.208 13.9279 11.556 13.6424C11.9039 13.3568 12.1761 12.9898 12.3484 12.5739C12.5206 12.1581 12.5877 11.7061 12.5436 11.2581C12.4994 10.8102 12.3455 10.38 12.0955 10.0057C11.8454 9.6314 11.5069 9.32456 11.1099 9.11234C11.0914 9.10244 11.0728 9.09276 11.0541 9.0833L12.4213 7.1301C12.5817 6.90099 12.6013 6.60169 12.4721 6.35364C12.343 6.10559 12.0865 5.95 11.8069 5.95H8.40002Z" fill="#506176"/>
</g>
<defs>
<clipPath id="clip0_11471_3975">
<rect width="20" height="20" fill="white"/>
</clipPath>
</defs>
</svg>
