<svg width="20" height="20" viewBox="0 0 20 20" fill="none" xmlns="http://www.w3.org/2000/svg">
<g clip-path="url(#clip0_11471_1231)">
<path fill-rule="evenodd" clip-rule="evenodd" d="M10 18C14.4183 18 18 14.4183 18 10C18 5.58172 14.4183 2 10 2C5.58172 2 2 5.58172 2 10C2 14.4183 5.58172 18 10 18ZM8.85732 5.84315C8.48936 5.84315 8.17574 6.1101 8.11696 6.47334L7.56334 9.89438C7.51136 10.2156 7.67242 10.5337 7.96208 10.6819C8.25174 10.8301 8.60393 10.7746 8.83401 10.5446C9.00706 10.3715 9.22753 10.2537 9.46755 10.206C9.70756 10.1582 9.95634 10.1827 10.1824 10.2764C10.4085 10.37 10.6018 10.5286 10.7377 10.7321C10.8737 10.9356 10.9462 11.1748 10.9462 11.4195C10.9462 11.6642 10.8737 11.9035 10.7377 12.1069C10.6018 12.3104 10.4085 12.469 10.1824 12.5627C9.95634 12.6563 9.70756 12.6808 9.46755 12.6331C9.22753 12.5854 9.00706 12.4675 8.83401 12.2945C8.54111 12.0016 8.06623 12.0016 7.77335 12.2945C7.48048 12.5875 7.4805 13.0623 7.77341 13.3552C8.15624 13.738 8.64399 13.9987 9.17497 14.1043C9.70595 14.2099 10.2563 14.1556 10.7565 13.9485C11.2567 13.7413 11.6842 13.3904 11.9849 12.9403C12.2857 12.4901 12.4462 11.9609 12.4462 11.4195C12.4462 10.8781 12.2857 10.3489 11.9849 9.89877C11.6842 9.44863 11.2567 9.09777 10.7565 8.89058C10.2872 8.69617 9.77362 8.63644 9.27338 8.71706L9.49571 7.34315H11.5664C11.9806 7.34315 12.3164 7.00736 12.3164 6.59315C12.3164 6.17893 11.9806 5.84315 11.5664 5.84315H8.85732Z" fill="#506176"/>
</g>
<defs>
<clipPath id="clip0_11471_1231">
<rect width="20" height="20" fill="white"/>
</clipPath>
</defs>
</svg>
