<svg width="20" height="20" viewBox="0 0 20 20" fill="none" xmlns="http://www.w3.org/2000/svg">
<g clip-path="url(#clip0_11471_990)">
<path fill-rule="evenodd" clip-rule="evenodd" d="M10 18C14.4183 18 18 14.4183 18 10C18 5.58172 14.4183 2 10 2C5.58172 2 2 5.58172 2 10C2 14.4183 5.58172 18 10 18ZM8.40002 5.95C7.98581 5.95 7.65002 6.28579 7.65002 6.7C7.65002 7.11421 7.98581 7.45 8.40002 7.45H10.7663L8.82413 13.2765C8.69314 13.6695 8.90551 14.0942 9.29847 14.2252C9.69143 14.3562 10.1162 14.1438 10.2472 13.7509L12.5184 6.93717C12.5946 6.70846 12.5563 6.45704 12.4153 6.26147C12.2743 6.06589 12.048 5.95 11.8069 5.95H8.40002Z" fill="#506176"/>
</g>
<defs>
<clipPath id="clip0_11471_990">
<rect width="20" height="20" fill="white"/>
</clipPath>
</defs>
</svg>
