<svg width="20" height="20" viewBox="0 0 20 20" fill="none" xmlns="http://www.w3.org/2000/svg">
<g clip-path="url(#clip0_11471_1863)">
<path fill-rule="evenodd" clip-rule="evenodd" d="M10 18C14.4183 18 18 14.4183 18 10C18 5.58172 14.4183 2 10 2C5.58172 2 2 5.58172 2 10C2 14.4183 5.58172 18 10 18ZM8.7627 8.58048C8.7627 7.89712 9.31667 7.34315 10 7.34315C10.6834 7.34315 11.2374 7.89712 11.2374 8.58048C11.2374 8.78655 11.187 8.98086 11.0979 9.15176C11.0894 9.16419 11.0813 9.17695 11.0735 9.19003L11.014 9.28981C10.7902 9.60908 10.4195 9.81781 10 9.81781C9.31667 9.81781 8.7627 9.26384 8.7627 8.58048ZM12.7374 8.58048C12.7374 9.1422 12.5682 9.66441 12.2779 10.0989L10.0764 13.791C9.86425 14.1467 9.40387 14.2632 9.0481 14.051C8.69234 13.8389 8.57591 13.3785 8.78805 13.0227L9.80862 11.3112C8.38614 11.213 7.2627 10.0279 7.2627 8.58048C7.2627 7.06869 8.48824 5.84315 10 5.84315C11.5118 5.84315 12.7374 7.06869 12.7374 8.58048Z" fill="#506176"/>
</g>
<defs>
<clipPath id="clip0_11471_1863">
<rect width="20" height="20" fill="white"/>
</clipPath>
</defs>
</svg>
