<svg width="20" height="20" viewBox="0 0 20 20" fill="none" xmlns="http://www.w3.org/2000/svg">
<g clip-path="url(#clip0_11471_1283)">
<path fill-rule="evenodd" clip-rule="evenodd" d="M10 18C14.4183 18 18 14.4183 18 10C18 5.58172 14.4183 2 10 2C5.58172 2 2 5.58172 2 10C2 14.4183 5.58172 18 10 18ZM11.2119 6.97726C11.424 6.6215 11.3076 6.16112 10.9518 5.94898C10.5961 5.73684 10.1357 5.85327 9.92354 6.20903L7.72199 9.90107C7.43178 10.3356 7.26257 10.8578 7.26257 11.4195C7.26257 12.9313 8.48812 14.1569 9.9999 14.1569C11.5117 14.1569 12.7372 12.9313 12.7372 11.4195C12.7372 9.97208 11.6138 8.78703 10.1913 8.68878L11.2119 6.97726ZM8.76257 11.4195C8.76257 11.2134 8.81295 11.0191 8.90206 10.8482C8.91052 10.8358 8.91865 10.8231 8.92645 10.81L8.98596 10.7102C9.20972 10.3909 9.58044 10.1822 9.9999 10.1822C10.6833 10.1822 11.2372 10.7362 11.2372 11.4195C11.2372 12.1029 10.6833 12.6569 9.9999 12.6569C9.31655 12.6569 8.76257 12.1029 8.76257 11.4195Z" fill="#506176"/>
</g>
<defs>
<clipPath id="clip0_11471_1283">
<rect width="20" height="20" fill="white"/>
</clipPath>
</defs>
</svg>
