<svg width="20" height="20" viewBox="0 0 20 20" fill="none" xmlns="http://www.w3.org/2000/svg">
<g clip-path="url(#clip0_11471_998)">
<path fill-rule="evenodd" clip-rule="evenodd" d="M10 18C14.4183 18 18 14.4183 18 10C18 5.58172 14.4183 2 10 2C5.58172 2 2 5.58172 2 10C2 14.4183 5.58172 18 10 18ZM9.55325 7.47814C9.7085 7.37488 9.89474 7.3286 10.0803 7.34716C10.2649 7.36562 10.4375 7.44716 10.569 7.57798C10.7203 7.73296 10.8056 7.94072 10.8067 8.15737C10.8049 8.34284 10.7393 8.52208 10.6209 8.66488C10.5018 8.80839 10.3368 8.90624 10.1537 8.94177C9.97066 8.9773 9.78096 8.94833 9.61687 8.85977C9.45277 8.77122 9.32442 8.62855 9.25365 8.45604C9.18288 8.28353 9.17405 8.09183 9.22867 7.91355C9.28329 7.73526 9.39799 7.5814 9.55325 7.47814ZM10.2296 5.8546C9.69905 5.80154 9.16652 5.93389 8.72256 6.22916C8.27861 6.52442 7.95065 6.96437 7.79447 7.47416C7.63829 7.98394 7.66353 8.5321 7.8659 9.02537C7.96048 9.25591 8.09102 9.46781 8.25115 9.65399C7.91004 9.96601 7.65675 10.3654 7.52092 10.8123C7.34671 11.3855 7.37648 12.0013 7.60518 12.555C7.83387 13.1087 8.24736 13.566 8.77527 13.8491C9.30318 14.1323 9.9129 14.2238 10.5007 14.108C11.0884 13.9923 11.6179 13.6764 11.999 13.2142C12.3801 12.752 12.5893 12.1721 12.591 11.573C12.5919 11.2312 12.5252 10.8926 12.3948 10.5767C12.2643 10.2608 12.0726 9.97377 11.8307 9.73227C11.8039 9.70554 11.7766 9.67945 11.7488 9.65401C11.7578 9.64361 11.7666 9.63311 11.7754 9.62253C12.1158 9.21216 12.3035 8.69654 12.3066 8.16337H12.3067L12.3067 8.15777C12.3057 7.54653 12.0651 6.96004 11.6365 6.52422L11.6365 6.52421L11.6325 6.52024C11.2559 6.14289 10.7601 5.90767 10.2296 5.8546ZM9.39392 10.6586C9.60368 10.5185 9.8555 10.4554 10.1065 10.48C10.3576 10.5047 10.5923 10.6155 10.7708 10.7937C10.8727 10.8954 10.9534 11.0163 11.0084 11.1493C11.0633 11.2823 11.0914 11.4249 11.091 11.5688C11.0903 11.8211 11.0022 12.0653 10.8417 12.2599C10.6813 12.4545 10.4583 12.5875 10.2108 12.6363C9.9633 12.685 9.70656 12.6465 9.48427 12.5273C9.26198 12.4081 9.08787 12.2155 8.99157 11.9823C8.89527 11.7492 8.88273 11.4899 8.95609 11.2485C9.02945 11.0072 9.18417 10.7987 9.39392 10.6586Z" fill="#506176"/>
</g>
<defs>
<clipPath id="clip0_11471_998">
<rect width="20" height="20" fill="white"/>
</clipPath>
</defs>
</svg>
