<svg width="20" height="20" viewBox="0 0 20 20" fill="none" xmlns="http://www.w3.org/2000/svg">
<g clip-path="url(#clip0_11471_1458)">
<path fill-rule="evenodd" clip-rule="evenodd" d="M10 18C14.4183 18 18 14.4183 18 10C18 5.58172 14.4183 2 10 2C5.58172 2 2 5.58172 2 10C2 14.4183 5.58172 18 10 18ZM10.4613 6.80363C10.5992 6.41303 10.3943 5.98463 10.0037 5.84677C9.61309 5.70891 9.18469 5.9138 9.04683 6.3044L7.39276 10.9909C7.31175 11.2205 7.34716 11.475 7.48775 11.6737C7.62833 11.8724 7.8566 11.9906 8.1 11.9906H10.6581V13.446C10.6581 13.8602 10.9939 14.196 11.4081 14.196C11.8224 14.196 12.1581 13.8602 12.1581 13.446V11.2406V9.03512C12.1581 8.62091 11.8224 8.28512 11.4081 8.28512C10.9939 8.28512 10.6581 8.62091 10.6581 9.03512V10.4906H9.16005L10.4613 6.80363Z" fill="#506176"/>
</g>
<defs>
<clipPath id="clip0_11471_1458">
<rect width="20" height="20" fill="white"/>
</clipPath>
</defs>
</svg>
