<svg width="20" height="20" viewBox="0 0 20 20" fill="none" xmlns="http://www.w3.org/2000/svg">
<g clip-path="url(#clip0_11471_1119)">
<path fill-rule="evenodd" clip-rule="evenodd" d="M10 18C14.4183 18 18 14.4183 18 10C18 5.58172 14.4183 2 10 2C5.58172 2 2 5.58172 2 10C2 14.4183 5.58172 18 10 18ZM9.56124 7.35866C9.75284 7.25755 9.97349 7.22572 10.1859 7.26857C10.3982 7.31141 10.5893 7.42629 10.7267 7.59378C10.9824 7.90539 11.0057 8.36653 10.7894 8.6953L7.70969 12.8063C7.53941 13.0336 7.51213 13.3376 7.63921 13.5916C7.76629 13.8456 8.02593 14.006 8.30994 14.006H11.69C12.1042 14.006 12.44 13.6702 12.44 13.256C12.44 12.8418 12.1042 12.506 11.69 12.506H9.80891L12.0015 9.57916C12.0082 9.57024 12.0147 9.56117 12.021 9.55196C12.6263 8.66409 12.561 7.46461 11.8863 6.64234C11.5296 6.20759 11.0337 5.90939 10.4825 5.79819C9.93124 5.68698 9.35851 5.7696 8.86116 6.03206C8.36381 6.29452 7.97239 6.72071 7.7531 7.23854C7.59158 7.61997 7.76985 8.06011 8.15127 8.22163C8.53269 8.38315 8.97284 8.20489 9.13436 7.82347C9.21884 7.62397 9.36964 7.45978 9.56124 7.35866Z" fill="#506176"/>
</g>
<defs>
<clipPath id="clip0_11471_1119">
<rect width="20" height="20" fill="white"/>
</clipPath>
</defs>
</svg>
