<svg width="20" height="20" viewBox="0 0 20 20" fill="none" xmlns="http://www.w3.org/2000/svg">
<g clip-path="url(#clip0_11471_982)">
<path fill-rule="evenodd" clip-rule="evenodd" d="M10 18C14.4183 18 18 14.4183 18 10C18 5.58172 14.4183 2 10 2C5.58172 2 2 5.58172 2 10C2 14.4183 5.58172 18 10 18ZM11.0625 6.55402C11.0625 6.27742 10.9103 6.02327 10.6664 5.89276C10.4225 5.76225 10.1266 5.77655 9.89647 5.92998L8.02147 7.17998C7.67683 7.40974 7.5837 7.87539 7.81346 8.22004C8.04323 8.56469 8.50888 8.65782 8.85353 8.42805L9.5625 7.9554V13.446C9.5625 13.8602 9.89829 14.196 10.3125 14.196C10.7267 14.196 11.0625 13.8602 11.0625 13.446V6.55402Z" fill="#506176"/>
</g>
<defs>
<clipPath id="clip0_11471_982">
<rect width="20" height="20" fill="white"/>
</clipPath>
</defs>
</svg>
