<svg width="100" height="18" viewBox="0 0 100 18" fill="none" xmlns="http://www.w3.org/2000/svg">
<path d="M16.8135 9L13.4935 7.125L17.4775 4.875L22.9556 7.96875V10.0313L17.4775 13.125L13.4935 10.875L16.8135 9Z" fill="#9DA9BB"/>
<path d="M9.50939 10.875L6.18934 9L9.50939 7.125L5.52533 4.875L0.0472412 7.96875V10.0313L5.52533 13.125L9.50939 10.875Z" fill="#9DA9BB"/>
<path d="M11.5014 12.75L14.8215 14.625L11.5014 16.5L8.18137 14.625L11.5014 12.75Z" fill="#9DA9BB"/>
<path d="M14.8215 3.375L11.5014 1.5L8.18137 3.375L11.5014 5.25L14.8215 3.375Z" fill="#9DA9BB"/>
<path d="M32.6431 12.6926C31.8189 12.6926 31.0756 12.51 30.4132 12.1449C29.7508 11.7718 29.2308 11.2599 28.8534 10.609C28.4759 9.95019 28.2872 9.21597 28.2872 8.40635C28.2872 7.59673 28.4759 6.86648 28.8534 6.21561C29.2308 5.5568 29.7508 5.04483 30.4132 4.67971C31.0756 4.30665 31.8189 4.12012 32.6431 4.12012C33.4673 4.12012 34.2106 4.30665 34.8731 4.67971C35.5355 5.04483 36.0555 5.55283 36.4329 6.2037C36.8103 6.85457 36.999 7.58879 36.999 8.40635C36.999 9.22391 36.8103 9.95812 36.4329 10.609C36.0555 11.2599 35.5355 11.7718 34.8731 12.1449C34.2106 12.51 33.4673 12.6926 32.6431 12.6926ZM32.6431 11.3353C33.1823 11.3353 33.6676 11.2122 34.099 10.9662C34.5303 10.7122 34.8692 10.3629 35.1157 9.91844C35.3622 9.466 35.4855 8.96197 35.4855 8.40635C35.4855 7.85073 35.3622 7.35067 35.1157 6.90617C34.8692 6.45373 34.5303 6.10448 34.099 5.85842C33.6676 5.60442 33.1823 5.47742 32.6431 5.47742C32.1039 5.47742 31.6187 5.60442 31.1873 5.85842C30.756 6.10448 30.417 6.45373 30.1706 6.90617C29.9241 7.35067 29.8008 7.85073 29.8008 8.40635C29.8008 8.96197 29.9241 9.466 30.1706 9.91844C30.417 10.3629 30.756 10.7122 31.1873 10.9662C31.6187 11.2122 32.1039 11.3353 32.6431 11.3353Z" fill="#9DA9BB"/>
<path d="M41.6415 6.14417C42.2423 6.14417 42.7776 6.27911 43.2475 6.54898C43.7251 6.81886 44.0986 7.19985 44.3682 7.69198C44.6378 8.1841 44.7726 8.75163 44.7726 9.39456C44.7726 10.0375 44.6378 10.609 44.3682 11.1091C44.0986 11.6012 43.7251 11.9822 43.2475 12.2521C42.7776 12.5219 42.2423 12.6569 41.6415 12.6569C40.8096 12.6569 40.151 12.3711 39.6657 11.7996V14.8833H38.2214V6.21561H39.5964V7.04904C39.8352 6.74742 40.1279 6.5212 40.4745 6.37039C40.8288 6.21958 41.2178 6.14417 41.6415 6.14417ZM41.4797 11.3829C42.0112 11.3829 42.4464 11.2003 42.7853 10.8352C43.1319 10.4701 43.3053 9.98987 43.3053 9.39456C43.3053 8.79925 43.1319 8.31904 42.7853 7.95391C42.4464 7.58879 42.0112 7.40623 41.4797 7.40623C41.1331 7.40623 40.8211 7.48957 40.5438 7.65626C40.2665 7.81501 40.047 8.04519 39.8852 8.34682C39.7235 8.64844 39.6426 8.99769 39.6426 9.39456C39.6426 9.79144 39.7235 10.1407 39.8852 10.4423C40.047 10.7439 40.2665 10.9781 40.5438 11.1448C40.8211 11.3035 41.1331 11.3829 41.4797 11.3829Z" fill="#9DA9BB"/>
<path d="M51.7114 9.43028C51.7114 9.53347 51.7037 9.68031 51.6883 9.87081H46.8471C46.9319 10.3391 47.1514 10.7122 47.5057 10.99C47.8677 11.2599 48.3145 11.3948 48.846 11.3948C49.5238 11.3948 50.0823 11.1646 50.5213 10.7042L51.2955 11.621C51.0182 11.9623 50.6677 12.2203 50.244 12.3949C49.8204 12.5695 49.3428 12.6569 48.8113 12.6569C48.1335 12.6569 47.5365 12.518 47.0204 12.2401C46.5044 11.9623 46.1038 11.5774 45.8188 11.0852C45.5415 10.5852 45.4029 10.0216 45.4029 9.39456C45.4029 8.77544 45.5377 8.21982 45.8073 7.7277C46.0846 7.22764 46.4658 6.8387 46.9511 6.56089C47.4364 6.28308 47.9833 6.14417 48.5918 6.14417C49.1926 6.14417 49.728 6.28308 50.1978 6.56089C50.6754 6.83076 51.0451 7.21573 51.307 7.71579C51.5766 8.20791 51.7114 8.77941 51.7114 9.43028ZM48.5918 7.33479C48.1296 7.33479 47.7368 7.47767 47.4133 7.76341C47.0975 8.04123 46.9049 8.41429 46.8356 8.8826H50.3365C50.2749 8.42222 50.0861 8.04916 49.7703 7.76341C49.4545 7.47767 49.0617 7.33479 48.5918 7.33479Z" fill="#9DA9BB"/>
<path d="M56.3685 6.14417C57.1465 6.14417 57.7704 6.37833 58.2403 6.84664C58.7102 7.31495 58.9451 8.00948 58.9451 8.93022V12.5735H57.5009V9.12072C57.5009 8.5651 57.3738 8.14838 57.1196 7.87057C56.8654 7.58482 56.5033 7.44195 56.0335 7.44195C55.502 7.44195 55.0822 7.60863 54.7741 7.94201C54.466 8.26744 54.3119 8.73972 54.3119 9.35884V12.5735H52.8676V6.21561H54.2426V7.03714C54.4814 6.74345 54.7818 6.5212 55.1438 6.37039C55.5058 6.21958 55.9141 6.14417 56.3685 6.14417Z" fill="#9DA9BB"/>
<path d="M63.1921 12.6926C62.5681 12.6926 61.9635 12.6013 61.3781 12.4187C60.8004 12.2362 60.3421 11.9941 60.0031 11.6925L60.5231 10.4899C60.8543 10.7598 61.2587 10.9821 61.7363 11.1567C62.2215 11.3234 62.7068 11.4067 63.1921 11.4067C63.7929 11.4067 64.2396 11.3075 64.5324 11.1091C64.8328 10.9106 64.983 10.6487 64.983 10.3232C64.983 10.0851 64.8982 9.89065 64.7288 9.73984C64.567 9.58109 64.359 9.45806 64.1048 9.37075C63.8507 9.28344 63.504 9.18422 63.065 9.0731C62.4488 8.92228 61.9481 8.77147 61.5629 8.62066C61.1855 8.46985 60.8581 8.23569 60.5808 7.91819C60.3112 7.59276 60.1764 7.1562 60.1764 6.60851C60.1764 6.14814 60.2958 5.73142 60.5346 5.35836C60.7811 4.97736 61.147 4.67574 61.6323 4.45349C62.1252 4.23124 62.7261 4.12012 63.4347 4.12012C63.9277 4.12012 64.413 4.18362 64.8905 4.31062C65.3681 4.43762 65.7802 4.62018 66.1268 4.8583L65.6531 6.06083C65.2988 5.84652 64.929 5.6838 64.5439 5.57267C64.1588 5.46155 63.7852 5.40599 63.4232 5.40599C62.83 5.40599 62.3871 5.50917 62.0944 5.71555C61.8094 5.92192 61.6669 6.19576 61.6669 6.53708C61.6669 6.7752 61.7478 6.96967 61.9096 7.12048C62.079 7.27129 62.2909 7.39035 62.545 7.47767C62.7992 7.56498 63.1459 7.6642 63.5849 7.77532C64.1857 7.91819 64.6787 8.06901 65.0638 8.22776C65.449 8.37857 65.7763 8.61272 66.0459 8.93022C66.3232 9.24772 66.4619 9.67634 66.4619 10.2161C66.4619 10.6765 66.3386 11.0932 66.0922 11.4662C65.8534 11.8393 65.4875 12.137 64.9945 12.3592C64.5015 12.5815 63.9007 12.6926 63.1921 12.6926Z" fill="#9DA9BB"/>
<path d="M73.6128 6.21561V14.8833H72.1685V11.7996C71.6833 12.3711 71.0247 12.6569 70.1928 12.6569C69.592 12.6569 69.0528 12.5219 68.5752 12.2521C68.1053 11.9822 67.7356 11.6012 67.466 11.1091C67.2041 10.6169 67.0732 10.0454 67.0732 9.39456C67.0732 8.75163 67.208 8.1841 67.4776 7.69198C67.7472 7.19985 68.1169 6.81886 68.5868 6.54898C69.0566 6.27911 69.592 6.14417 70.1928 6.14417C70.6164 6.14417 71.0016 6.21958 71.3482 6.37039C71.7025 6.5212 71.9991 6.74742 72.2379 7.04904V6.21561H73.6128ZM70.3545 11.3829C70.886 11.3829 71.3251 11.2003 71.6717 10.8352C72.0183 10.4701 72.1917 9.98987 72.1917 9.39456C72.1917 8.79925 72.0183 8.31904 71.6717 7.95391C71.3251 7.58879 70.886 7.40623 70.3545 7.40623C69.8231 7.40623 69.384 7.58879 69.0374 7.95391C68.6985 8.31904 68.529 8.79925 68.529 9.39456C68.529 9.98987 68.6985 10.4701 69.0374 10.8352C69.384 11.2003 69.8231 11.3829 70.3545 11.3829Z" fill="#9DA9BB"/>
<path d="M81.2449 6.21561V12.5735H79.8699V11.7639C79.6388 12.0496 79.35 12.2719 79.0034 12.4306C78.6567 12.5815 78.2831 12.6569 77.8826 12.6569C77.0584 12.6569 76.4075 12.4227 75.93 11.9544C75.4601 11.4781 75.2252 10.7757 75.2252 9.847V6.21561H76.6694V9.64459C76.6694 10.2161 76.7927 10.6447 77.0392 10.9305C77.2933 11.2083 77.6515 11.3472 78.1137 11.3472C78.6298 11.3472 79.038 11.1845 79.3384 10.859C79.6465 10.5257 79.8006 10.0494 79.8006 9.43028V6.21561H81.2449Z" fill="#9DA9BB"/>
<path d="M85.2618 6.14417C86.1707 6.14417 86.864 6.37039 87.3415 6.82282C87.8268 7.26732 88.0695 7.94201 88.0695 8.84688V12.5735H86.7061V11.7996C86.5289 12.0774 86.2747 12.2917 85.9435 12.4425C85.62 12.5854 85.2271 12.6569 84.765 12.6569C84.3028 12.6569 83.8984 12.5775 83.5518 12.4187C83.2052 12.2521 82.9356 12.0258 82.743 11.7401C82.5581 11.4464 82.4657 11.117 82.4657 10.7519C82.4657 10.1804 82.6698 9.72397 83.0781 9.38266C83.494 9.03341 84.1449 8.85878 85.0307 8.85878H86.6252V8.76353C86.6252 8.31904 86.4942 7.97773 86.2324 7.7396C85.9782 7.50148 85.5969 7.38242 85.0885 7.38242C84.7419 7.38242 84.3991 7.43798 84.0602 7.5491C83.729 7.66023 83.4478 7.81501 83.2167 8.01344L82.6506 6.92998C82.9741 6.67598 83.3631 6.48151 83.8175 6.34658C84.272 6.21164 84.7534 6.14417 85.2618 6.14417ZM85.0654 11.5734C85.4274 11.5734 85.7471 11.4901 86.0244 11.3234C86.3094 11.1487 86.5097 10.9027 86.6252 10.5852V9.847H85.1347C84.3028 9.847 83.8869 10.1288 83.8869 10.6923C83.8869 10.9622 83.9909 11.1765 84.1988 11.3353C84.4068 11.494 84.6957 11.5734 85.0654 11.5734Z" fill="#9DA9BB"/>
<path d="M91.0669 7.14429C91.4828 6.47754 92.2146 6.14417 93.2621 6.14417V7.56101C93.1389 7.5372 93.0272 7.52529 92.9271 7.52529C92.3648 7.52529 91.9257 7.69595 91.6099 8.03726C91.2941 8.37063 91.1362 8.85482 91.1362 9.48981V12.5735H89.6919V6.21561H91.0669V7.14429Z" fill="#9DA9BB"/>
<path d="M100 9.43028C100 9.53347 99.9923 9.68031 99.9769 9.87081H95.1357C95.2204 10.3391 95.44 10.7122 95.7943 10.99C96.1563 11.2599 96.6031 11.3948 97.1346 11.3948C97.8124 11.3948 98.3709 11.1646 98.8099 10.7042L99.5841 11.621C99.3068 11.9623 98.9563 12.2203 98.5326 12.3949C98.109 12.5695 97.6314 12.6569 97.0999 12.6569C96.4221 12.6569 95.8251 12.518 95.309 12.2401C94.7929 11.9623 94.3924 11.5774 94.1074 11.0852C93.8301 10.5852 93.6914 10.0216 93.6914 9.39456C93.6914 8.77544 93.8262 8.21982 94.0958 7.7277C94.3731 7.22764 94.7544 6.8387 95.2397 6.56089C95.725 6.28308 96.2719 6.14417 96.8804 6.14417C97.4812 6.14417 98.0165 6.28308 98.4864 6.56089C98.964 6.83076 99.3337 7.21573 99.5956 7.71579C99.8652 8.20791 100 8.77941 100 9.43028ZM96.8804 7.33479C96.4182 7.33479 96.0254 7.47767 95.7019 7.76341C95.386 8.04123 95.1935 8.41429 95.1242 8.8826H98.6251C98.5634 8.42222 98.3747 8.04916 98.0589 7.76341C97.7431 7.47767 97.3502 7.33479 96.8804 7.33479Z" fill="#9DA9BB"/>
</svg>
