<svg width="20" height="20" viewBox="0 0 20 20" fill="none" xmlns="http://www.w3.org/2000/svg">
<g clip-path="url(#clip0_12224_77911)">
<path d="M10 1.875C8.01215 1.87913 6.10689 2.67063 4.70126 4.07626C3.29563 5.48189 2.50413 7.38715 2.5 9.375V16.875C2.50248 16.9925 2.53767 17.1071 2.6016 17.2057C2.66553 17.3044 2.75569 17.3833 2.86196 17.4336C2.96823 17.4839 3.08641 17.5036 3.20325 17.4905C3.32009 17.4774 3.43096 17.432 3.52344 17.3594L5.41406 15.8047L7.3125 17.3594C7.42397 17.4501 7.56331 17.4996 7.70703 17.4996C7.85076 17.4996 7.99009 17.4501 8.10156 17.3594L10 15.8047L11.8984 17.3594C12.0099 17.4501 12.1492 17.4996 12.293 17.4996C12.4367 17.4996 12.576 17.4501 12.6875 17.3594L14.5859 15.8047L16.4766 17.3594C16.568 17.4348 16.6793 17.4823 16.7971 17.4962C16.9149 17.51 17.0341 17.4896 17.1406 17.4375C17.2482 17.3881 17.3392 17.3088 17.4029 17.209C17.4666 17.1093 17.5003 16.9933 17.5 16.875V9.375C17.4959 7.38715 16.7044 5.48189 15.2987 4.07626C13.8931 2.67063 11.9879 1.87913 10 1.875ZM7.8125 10C7.62708 10 7.44582 9.94502 7.29165 9.842C7.13748 9.73899 7.01732 9.59257 6.94636 9.42127C6.87541 9.24996 6.85684 9.06146 6.89301 8.8796C6.92919 8.69775 7.01848 8.5307 7.14959 8.39959C7.2807 8.26848 7.44775 8.17919 7.6296 8.14301C7.81146 8.10684 7.99996 8.12541 8.17127 8.19636C8.34257 8.26732 8.48899 8.38748 8.592 8.54165C8.69502 8.69582 8.75 8.87708 8.75 9.0625C8.75 9.31114 8.65123 9.5496 8.47541 9.72541C8.2996 9.90123 8.06114 10 7.8125 10ZM12.1875 10C12.0021 10 11.8208 9.94502 11.6667 9.842C11.5125 9.73899 11.3923 9.59257 11.3214 9.42127C11.2504 9.24996 11.2318 9.06146 11.268 8.8796C11.3042 8.69775 11.3935 8.5307 11.5246 8.39959C11.6557 8.26848 11.8227 8.17919 12.0046 8.14301C12.1865 8.10684 12.375 8.12541 12.5463 8.19636C12.7176 8.26732 12.864 8.38748 12.967 8.54165C13.07 8.69582 13.125 8.87708 13.125 9.0625C13.125 9.31114 13.0262 9.5496 12.8504 9.72541C12.6746 9.90123 12.4361 10 12.1875 10Z" fill="#506176"/>
</g>
<defs>
<clipPath id="clip0_12224_77911">
<rect width="20" height="20" fill="white"/>
</clipPath>
</defs>
</svg>
