<svg width="24" height="24" viewBox="0 0 24 24" fill="none" xmlns="http://www.w3.org/2000/svg">
<path d="M8.85504 17.6462C8.85504 17.7227 8.76694 17.7839 8.65585 17.7839C8.52944 17.7954 8.44133 17.7342 8.44133 17.6462C8.44133 17.5697 8.52944 17.5085 8.64052 17.5085C8.75544 17.497 8.85504 17.5582 8.85504 17.6462ZM7.66371 17.474C7.6369 17.5505 7.71351 17.6385 7.82843 17.6615C7.92802 17.6997 8.04294 17.6615 8.06593 17.585C8.08891 17.5085 8.01613 17.4205 7.90121 17.386C7.80161 17.3593 7.69052 17.3975 7.66371 17.474ZM9.35685 17.409C9.24577 17.4358 9.16915 17.5085 9.18064 17.5964C9.19214 17.673 9.29173 17.7227 9.40665 17.6959C9.51774 17.6691 9.59435 17.5964 9.58286 17.5199C9.57137 17.4473 9.46794 17.3975 9.35685 17.409ZM11.8774 2.75C6.56431 2.75 2.5 6.77816 2.5 12.084C2.5 16.3264 5.17379 19.9567 8.99294 21.2344C9.48327 21.3224 9.65565 21.0202 9.65565 20.7715C9.65565 20.5344 9.64415 19.2261 9.64415 18.4227C9.64415 18.4227 6.9627 18.9965 6.3996 17.2828C6.3996 17.2828 5.9629 16.1696 5.33468 15.8827C5.33468 15.8827 4.45746 15.2821 5.39597 15.2935C5.39597 15.2935 6.3498 15.3701 6.8746 16.2805C7.71351 17.7571 9.11936 17.3325 9.66714 17.08C9.75524 16.4679 10.0042 16.0433 10.28 15.7908C8.13871 15.5537 5.97823 15.2438 5.97823 11.5638C5.97823 10.5118 6.26936 9.98386 6.88226 9.31059C6.78266 9.06194 6.45706 8.03673 6.98185 6.71313C7.78246 6.46448 9.625 7.74599 9.625 7.74599C10.3911 7.53177 11.2147 7.42083 12.0306 7.42083C12.8466 7.42083 13.6702 7.53177 14.4363 7.74599C14.4363 7.74599 16.2788 6.46065 17.0794 6.71313C17.6042 8.04055 17.2786 9.06194 17.179 9.31059C17.7919 9.98769 18.1673 10.5156 18.1673 11.5638C18.1673 15.2553 15.9111 15.5498 13.7698 15.7908C14.1222 16.0931 14.421 16.6669 14.421 17.5658C14.421 18.855 14.4095 20.4502 14.4095 20.7639C14.4095 21.0125 14.5857 21.3147 15.0722 21.2268C18.9028 19.9567 21.5 16.3264 21.5 12.084C21.5 6.77816 17.1905 2.75 11.8774 2.75ZM6.22339 15.9439C6.17359 15.9821 6.18508 16.0701 6.2502 16.1428C6.31149 16.204 6.3996 16.2308 6.4494 16.181C6.49919 16.1428 6.4877 16.0548 6.42258 15.9821C6.36129 15.9209 6.27319 15.8941 6.22339 15.9439ZM5.80968 15.634C5.78286 15.6837 5.82117 15.7449 5.89778 15.7832C5.95907 15.8214 6.03569 15.81 6.0625 15.7564C6.08931 15.7067 6.05101 15.6455 5.9744 15.6072C5.89778 15.5843 5.83649 15.5957 5.80968 15.634ZM7.05081 16.9959C6.98952 17.0456 7.0125 17.1603 7.10061 17.233C7.18871 17.321 7.2998 17.3325 7.3496 17.2713C7.39939 17.2216 7.37641 17.1068 7.2998 17.0341C7.21552 16.9461 7.10061 16.9346 7.05081 16.9959ZM6.61411 16.4335C6.55282 16.4718 6.55282 16.5712 6.61411 16.6592C6.6754 16.7472 6.77883 16.7855 6.82863 16.7472C6.88992 16.6975 6.88992 16.598 6.82863 16.51C6.775 16.422 6.6754 16.3838 6.61411 16.4335Z" fill="#1E2134"/>
</svg>
