<svg width="20" height="20" viewBox="0 0 20 20" fill="none" xmlns="http://www.w3.org/2000/svg">
<path d="M11.5344 1.66666H5.09437C4.48904 1.66666 3.95837 2.19666 3.95837 2.80333V17.1973C3.95837 17.8033 4.48837 18.334 5.09504 18.334H14.9437C15.5497 18.334 16.0804 17.804 16.0804 17.1973V6.212L13.429 4.318L11.5344 1.66666Z" fill="#4285F4"/>
<path d="M6.9884 13.788H13.0491V13.0307H6.98907L6.9884 13.788ZM6.9884 15.3033H11.5337V14.546H6.9884V15.3033ZM6.9884 10V10.7573H13.0491V10H6.9884ZM6.9884 12.2727H13.0491V11.5153H6.98907L6.9884 12.2727Z" fill="#F1F1F1"/>
<path d="M11.5344 1.66666V5.07597C11.5344 5.68196 12.0644 6.21196 12.6704 6.21196H16.0798L11.5344 1.66666Z" fill="#A1C2FA"/>
</svg>
