<svg width="20" height="20" viewBox="0 0 20 20" fill="none" xmlns="http://www.w3.org/2000/svg">
    <path d="M14.1768 6.67155C13.7766 3.85982 11.3752 2.12112 7.28853 2.12112C3.14923 2.12112 0.421302 3.92937 0.431835 6.87026C0.421302 9.1554 1.94852 10.6358 5.10829 11.2319L7.90995 11.7585C9.32131 12.0267 9.96379 12.5136 9.98486 13.2786C9.96379 14.1827 8.92107 14.8285 7.35172 14.8285C5.75077 14.8285 4.68699 14.1827 4.41314 12.9408L0 13.1594C0.421302 16.0804 3.05444 17.8787 7.34119 17.8787C11.5331 17.8787 14.5349 15.8618 14.5455 12.8514C14.5349 10.6457 13.0077 9.3243 9.869 8.71824L6.94095 8.16186C5.4348 7.85386 4.87657 7.36703 4.8871 6.6318C4.87657 5.71775 5.97196 5.12162 7.36225 5.12162C8.92107 5.12162 9.84794 5.92639 10.0691 6.91L14.1768 6.67155Z"
          fill="#363A4D"/>
    <path d="M20 16.0607C20 17.0648 19.186 17.8789 18.1818 17.8789C17.1777 17.8789 16.3636 17.0648 16.3636 16.0607C16.3636 15.0565 17.1777 14.2425 18.1818 14.2425C19.186 14.2425 20 15.0565 20 16.0607Z"
          fill="#575C72"/>
</svg>
