<svg width="20" height="20" viewBox="0 0 20 20" fill="none" xmlns="http://www.w3.org/2000/svg">
<path d="M6.91177 4.70588C6.91177 3.48761 5.92416 2.5 4.70588 2.5C3.48761 2.5 2.5 3.48761 2.5 4.70588C2.5 5.92416 3.48761 6.91177 4.70588 6.91177C5.92416 6.91177 6.91177 5.92416 6.91177 4.70588Z" fill="#575C72"/>
<path d="M16.4286 2.5H14.1597C13.568 2.5 13.0883 2.9797 13.0883 3.57143V5.84034C13.0883 6.43207 13.568 6.91177 14.1597 6.91177H16.4286C17.0203 6.91177 17.5 6.43207 17.5 5.84034V3.57143C17.5 2.9797 17.0203 2.5 16.4286 2.5Z" fill="#363A4D"/>
<path d="M12.206 10.0001C12.206 8.7818 11.2184 7.79419 10.0001 7.79419C8.7818 7.79419 7.79419 8.7818 7.79419 10.0001C7.79419 11.2184 8.7818 12.206 10.0001 12.206C11.2184 12.206 12.206 11.2184 12.206 10.0001Z" fill="#575C72"/>
<path d="M5.84034 7.79419H3.57143C2.9797 7.79419 2.5 8.27389 2.5 8.86562V11.1345C2.5 11.7263 2.9797 12.206 3.57143 12.206H5.84034C6.43207 12.206 6.91177 11.7263 6.91177 11.1345V8.86562C6.91177 8.27389 6.43207 7.79419 5.84034 7.79419Z" fill="#363A4D"/>
<path d="M5.84034 13.0881H3.57143C2.9797 13.0881 2.5 13.5678 2.5 14.1596V16.4285C2.5 17.0202 2.9797 17.4999 3.57143 17.4999H5.84034C6.43207 17.4999 6.91177 17.0202 6.91177 16.4285V14.1596C6.91177 13.5678 6.43207 13.0881 5.84034 13.0881Z" fill="#363A4D"/>
<path d="M11.1345 13.0881H8.86562C8.27389 13.0881 7.79419 13.5678 7.79419 14.1596V16.4285C7.79419 17.0202 8.27389 17.4999 8.86562 17.4999H11.1345C11.7263 17.4999 12.206 17.0202 12.206 16.4285V14.1596C12.206 13.5678 11.7263 13.0881 11.1345 13.0881Z" fill="#363A4D"/>
<path d="M17.5 15.294C17.5 14.0757 16.5124 13.0881 15.2941 13.0881C14.0759 13.0881 13.0883 14.0757 13.0883 15.294C13.0883 16.5123 14.0759 17.4999 15.2941 17.4999C16.5124 17.4999 17.5 16.5123 17.5 15.294Z" fill="#575C72"/>
</svg>
