<svg width="20" height="20" viewBox="0 0 20 20" fill="none" xmlns="http://www.w3.org/2000/svg">
    <path d="M14.1768 6.67161C13.7766 3.85988 11.3752 2.12119 7.28853 2.12119C3.14923 2.12119 0.421302 3.92943 0.431835 6.87032C0.421302 9.15546 1.94852 10.6358 5.10829 11.232L7.90995 11.7585C9.32131 12.0268 9.96379 12.5136 9.98486 13.2787C9.96379 14.1828 8.92107 14.8286 7.35172 14.8286C5.75077 14.8286 4.68699 14.1828 4.41314 12.9409L0 13.1594C0.421302 16.0805 3.05444 17.8788 7.34119 17.8788C11.5331 17.8788 14.5349 15.8619 14.5455 12.8514C14.5349 10.6458 13.0077 9.32436 9.869 8.7183L6.94095 8.16192C5.4348 7.85392 4.87657 7.36709 4.8871 6.63187C4.87657 5.71781 5.97196 5.12168 7.36225 5.12168C8.92107 5.12168 9.84794 5.92645 10.0691 6.91006L14.1768 6.67161Z"
          fill="white"/>
    <path d="M20 16.0607C20 17.0649 19.186 17.8789 18.1818 17.8789C17.1777 17.8789 16.3636 17.0649 16.3636 16.0607C16.3636 15.0566 17.1777 14.2425 18.1818 14.2425C19.186 14.2425 20 15.0566 20 16.0607Z"
          fill="#E81F66"/>
</svg>
