<svg width="20" height="20" viewBox="0 0 20 20" fill="none" xmlns="http://www.w3.org/2000/svg">
<path fill-rule="evenodd" clip-rule="evenodd" d="M13.536 3.77588C13.8891 3.7758 14.2387 3.84527 14.5648 3.98033C14.891 4.11539 15.1874 4.3134 15.437 4.56303C15.6866 4.81266 15.8846 5.10903 16.0197 5.43521C16.1548 5.76138 16.2242 6.11097 16.2242 6.464C16.2241 6.81704 16.1544 7.1666 16.0192 7.49271C15.884 7.81882 15.6859 8.1151 15.4361 8.36461L15.4359 8.36486L13.2262 10.5746C12.9766 10.8241 12.6803 11.0221 12.3543 11.1571C12.0282 11.2922 11.6787 11.3617 11.3258 11.3617C10.9729 11.3617 10.6234 11.2922 10.2974 11.1571C9.9713 11.0221 9.67503 10.8241 9.42547 10.5746C9.13258 10.2817 8.6577 10.2817 8.36481 10.5746C8.07192 10.8675 8.07192 11.3423 8.36481 11.6352C8.75366 12.0241 9.21528 12.3325 9.72333 12.543C10.2314 12.7534 10.7759 12.8617 11.3258 12.8617C11.8757 12.8617 12.4203 12.7534 12.9283 12.543C13.4364 12.3325 13.898 12.0241 14.2868 11.6352L16.4963 9.42577L16.4965 9.42552C16.8856 9.03679 17.1942 8.57524 17.4048 8.06722C17.6155 7.55909 17.724 7.01443 17.7242 6.46435C17.7243 5.91428 17.616 5.36957 17.4056 4.86134C17.1951 4.35312 16.8866 3.89133 16.4977 3.50237C16.1087 3.11341 15.6469 2.80489 15.1387 2.59445C14.6305 2.384 14.0858 2.27575 13.5357 2.27588C12.9856 2.27601 12.441 2.38451 11.9328 2.59519C11.4248 2.80583 10.9632 3.11448 10.5745 3.5035L10.5743 3.50375L9.02772 5.0503C8.73483 5.34319 8.73483 5.81806 9.02772 6.11096C9.32062 6.40385 9.79549 6.40385 10.0884 6.11096L11.6352 4.56416L11.6354 4.56391C11.8849 4.31417 12.1812 4.11603 12.5073 3.98081C12.8334 3.8456 13.183 3.77596 13.536 3.77588ZM7.64575 8.84294C7.97182 8.70788 8.32129 8.63837 8.67421 8.63837C9.02714 8.63837 9.37661 8.70788 9.70268 8.84294C10.0287 8.978 10.325 9.17596 10.5746 9.42552C10.8675 9.71841 11.3423 9.71841 11.6352 9.42552C11.9281 9.13262 11.9281 8.65775 11.6352 8.36486C11.2464 7.97601 10.7848 7.66756 10.2767 7.45712C9.76865 7.24668 9.22412 7.13837 8.67421 7.13837C8.1243 7.13837 7.57978 7.24668 7.07173 7.45712C6.56368 7.66756 6.10205 7.97601 5.71321 8.36486L3.50375 10.5743L3.50368 10.5744L3.5035 10.5746C3.11447 10.9633 2.80583 11.4248 2.59519 11.9329C2.38451 12.441 2.27601 12.9857 2.27588 13.5357C2.27575 14.0858 2.384 14.6305 2.59445 15.1387C2.80489 15.647 3.11341 16.1088 3.50237 16.4977C3.89133 16.8867 4.35311 17.1952 4.86134 17.4056C5.36957 17.6161 5.91428 17.7243 6.46435 17.7242C7.01442 17.7241 7.55908 17.6156 8.06721 17.4049C8.57523 17.1943 9.03679 16.8856 9.42552 16.4966L9.42576 16.4963L10.9723 14.9498C11.2652 14.6569 11.2652 14.182 10.9723 13.8891C10.6794 13.5962 10.2045 13.5962 9.91165 13.8891L8.36485 15.4359L8.36461 15.4362C8.11509 15.6859 7.81881 15.8841 7.4927 16.0193C7.16659 16.1545 6.81703 16.2241 6.464 16.2242C6.11097 16.2243 5.76138 16.1548 5.4352 16.0198C5.10903 15.8847 4.81266 15.6867 4.56303 15.4371C4.3134 15.1874 4.11539 14.8911 3.98033 14.5649C3.84527 14.2387 3.7758 13.8891 3.77588 13.5361C3.77596 13.1831 3.8456 12.8335 3.98081 12.5074C4.11603 12.1813 4.31417 11.885 4.56391 11.6355L4.56416 11.6352L6.77387 9.42552C7.02342 9.17596 7.31969 8.978 7.64575 8.84294Z" fill="#1E2134"/>
</svg>
