<svg width="24" height="24" viewBox="0 0 20 20" fill="none" xmlns="http://www.w3.org/2000/svg">
    <path d="M17.317 10.4419L14.0366 13.7231C13.9492 13.8106 13.8379 13.8701 13.7166 13.8942C13.5954 13.9184 13.4697 13.906 13.3555 13.8587C13.2413 13.8114 13.1436 13.7313 13.0749 13.6285C13.0063 13.5257 12.9696 13.4049 12.9696 13.2812V10.625H8.125C7.95924 10.625 7.80027 10.5592 7.68306 10.4419C7.56585 10.3247 7.5 10.1658 7.5 10C7.5 9.83424 7.56585 9.67527 7.68306 9.55806C7.80027 9.44085 7.95924 9.375 8.125 9.375H12.9696V6.71875C12.9696 6.59512 13.0063 6.47427 13.0749 6.37148C13.1436 6.2687 13.2413 6.18858 13.3555 6.14128C13.4697 6.09398 13.5954 6.08162 13.7166 6.10575C13.8379 6.12988 13.9492 6.18943 14.0366 6.27686L17.317 9.55811C17.4342 9.67531 17.5 9.83426 17.5 10C17.5 10.1657 17.4342 10.3247 17.317 10.4419ZM8.125 16.25H3.75V3.75H8.125C8.29076 3.75 8.44973 3.68415 8.56694 3.56694C8.68415 3.44973 8.75 3.29076 8.75 3.125C8.75 2.95924 8.68415 2.80027 8.56694 2.68306C8.44973 2.56585 8.29076 2.5 8.125 2.5H3.75C3.4186 2.50038 3.10087 2.6322 2.86654 2.86654C2.6322 3.10087 2.50038 3.4186 2.5 3.75V16.25C2.50038 16.5814 2.6322 16.8991 2.86654 17.1335C3.10087 17.3678 3.4186 17.4996 3.75 17.5H8.125C8.29076 17.5 8.44973 17.4342 8.56694 17.3169C8.68415 17.1997 8.75 17.0408 8.75 16.875C8.75 16.7092 8.68415 16.5503 8.56694 16.4331C8.44973 16.3158 8.29076 16.25 8.125 16.25Z"
          fill="#506176"/>
</svg>
