<svg width="20" height="20" viewBox="0 0 20 20" fill="none" xmlns="http://www.w3.org/2000/svg">
<path d="M9.65694 12.4436C10.4955 11.8866 11.1325 11.0744 11.4736 10.1272C11.8147 9.18005 11.8417 8.14822 11.5508 7.18445C11.2599 6.22068 10.6664 5.37618 9.85822 4.77593C9.05002 4.17567 8.07004 3.85156 7.06332 3.85156C6.0566 3.85156 5.07662 4.17567 4.26842 4.77593C3.46022 5.37618 2.86675 6.22068 2.57582 7.18445C2.2849 8.14822 2.31198 9.18005 2.65307 10.1272C2.99416 11.0744 3.63113 11.8866 4.4697 12.4436C3.04018 12.971 1.80466 13.9203 0.926928 15.1658C0.861031 15.2594 0.822108 15.3693 0.814405 15.4835C0.806702 15.5977 0.830516 15.7119 0.883249 15.8135C0.935981 15.9151 1.01561 16.0003 1.11344 16.0597C1.21127 16.1192 1.32355 16.1506 1.43802 16.1506L12.6884 16.1502C12.8028 16.1502 12.9151 16.1187 13.0129 16.0593C13.1108 15.9998 13.1904 15.9146 13.2431 15.813C13.2958 15.7114 13.3196 15.5973 13.3119 15.483C13.3042 15.3688 13.2653 15.2589 13.1993 15.1653C12.3216 13.9201 11.0863 12.9709 9.65694 12.4436Z" fill="#506176"/>
<path d="M12.0042 5.23191C12.4771 5.09869 12.9729 5.06835 13.4585 5.14291C13.944 5.21748 14.4079 5.39522 14.819 5.66417C15.23 5.93313 15.5787 6.28704 15.8414 6.70208C16.1042 7.11712 16.2749 7.58365 16.3422 8.07024C16.4095 8.55683 16.3717 9.05219 16.2314 9.52295C16.0911 9.9937 15.8515 10.4289 15.5289 10.7993C15.2062 11.1697 14.8079 11.4666 14.3608 11.6701C13.9165 11.8724 13.4342 11.9776 12.9461 11.979C12.9429 11.979 12.9397 11.979 12.9366 11.979C12.5914 11.9792 12.3118 12.2593 12.312 12.6044C12.3122 12.9064 12.5265 13.1581 12.8112 13.2163C12.8378 13.2218 12.865 13.2255 12.8927 13.2274C12.9073 13.2285 12.9222 13.229 12.9371 13.229C12.9405 13.229 12.9438 13.229 12.9472 13.229C13.9467 13.2298 14.9315 13.4707 15.8187 13.9314C16.7087 14.3936 17.4742 15.0635 18.0505 15.8843C18.2488 16.1668 18.6386 16.2351 18.9211 16.0367C19.2036 15.8384 19.2719 15.4486 19.0735 15.1661C18.3819 14.1809 17.463 13.3769 16.3948 12.8221C16.1159 12.6773 15.8291 12.5506 15.5359 12.4424C15.882 12.2118 16.1968 11.9356 16.4714 11.6204C16.9114 11.1154 17.238 10.5219 17.4293 9.87996C17.6206 9.23804 17.6722 8.56257 17.5804 7.89906C17.4887 7.23555 17.2559 6.5994 16.8976 6.03346C16.5393 5.46751 16.0639 4.98492 15.5034 4.61818C14.9429 4.25144 14.3103 4.00907 13.6482 3.9074C12.9861 3.80572 12.31 3.8471 11.6653 4.02875C11.333 4.12236 11.1396 4.46758 11.2332 4.79982C11.3268 5.13207 11.672 5.32552 12.0042 5.23191Z" fill="#506176"/>
</svg>
