<svg width="24" height="24" viewBox="0 0 24 24" fill="none" xmlns="http://www.w3.org/2000/svg">
<path d="M20.5172 13.7953C20.4724 13.6508 20.3822 13.5246 20.2601 13.4353C20.138 13.346 19.9904 13.2985 19.8391 13.2997L19.6478 13.3345C18.4026 13.6782 17.0884 13.6854 15.8394 13.3554C14.5904 13.0255 13.4513 12.37 12.5383 11.456C11.6253 10.542 10.971 9.4022 10.6423 8.15278C10.3135 6.90336 10.322 5.58909 10.667 4.34404C10.684 4.29361 10.6928 4.24076 10.693 4.18753C10.7013 4.07532 10.6819 3.9628 10.6365 3.85986C10.5911 3.75692 10.5211 3.6667 10.4326 3.59715C10.3442 3.5276 10.24 3.48084 10.1293 3.46098C10.0186 3.44112 9.90465 3.44877 9.79756 3.48325C8.33594 3.89297 7.00706 4.67827 5.9431 5.76104C4.87914 6.8438 4.11718 8.18629 3.73303 9.65497C3.34887 11.1236 3.35591 12.6673 3.75344 14.1324C4.15096 15.5975 4.92512 16.933 5.99891 18.006C7.0727 19.0791 8.40868 19.8522 9.87398 20.2486C11.3393 20.645 12.8828 20.6507 14.351 20.2654C15.8192 19.88 17.161 19.1169 18.2428 18.0519C19.3246 16.987 20.1087 15.6573 20.5172 14.1952C20.5609 14.0655 20.5609 13.925 20.5172 13.7953Z" fill="#D7DEE8"/>
</svg>
