<svg width="24" height="24" viewBox="0 0 24 24" fill="none" xmlns="http://www.w3.org/2000/svg">
<path d="M20.5172 13.7953C20.4723 13.6508 20.3822 13.5246 20.2601 13.4353C20.1379 13.346 19.9903 13.2985 19.839 13.2997L19.6478 13.3345C18.4025 13.6782 17.0883 13.6854 15.8394 13.3554C14.5904 13.0255 13.4513 12.37 12.5383 11.456C11.6252 10.542 10.971 9.4022 10.6422 8.15278C10.3135 6.90336 10.322 5.58909 10.6669 4.34404C10.6839 4.29361 10.6927 4.24076 10.693 4.18753C10.7012 4.07532 10.6818 3.9628 10.6364 3.85986C10.591 3.75692 10.521 3.6667 10.4326 3.59715C10.3441 3.5276 10.24 3.48084 10.1292 3.46098C10.0185 3.44112 9.90459 3.44877 9.7975 3.48325C8.33588 3.89297 7.007 4.67827 5.94304 5.76104C4.87907 6.8438 4.11712 8.18629 3.73297 9.65497C3.34881 11.1236 3.35585 12.6673 3.75338 14.1324C4.1509 15.5975 4.92506 16.933 5.99885 18.006C7.07263 19.0791 8.40862 19.8522 9.87391 20.2486C11.3392 20.645 12.8827 20.6507 14.351 20.2654C15.8192 19.88 17.1609 19.1169 18.2427 18.0519C19.3245 16.987 20.1087 15.6573 20.5172 14.1952C20.5609 14.0655 20.5609 13.925 20.5172 13.7953Z" fill="white" fill-opacity="0.15"/>
</svg>
