<svg width="16" height="16" viewBox="0 0 16 16" fill="none" xmlns="http://www.w3.org/2000/svg">
<path d="M13.489 9.37245C12.7312 9.37245 12.1168 8.75807 12.1168 8.00019C12.1168 7.24231 12.7312 6.62793 13.489 6.62793C14.2469 6.62793 14.8613 7.24231 14.8613 8.00019C14.8613 8.75807 14.2469 9.37245 13.489 9.37245Z" fill="#9DA9BB"/>
<path d="M7.99999 9.37245C7.24211 9.37245 6.62772 8.75807 6.62772 8.00019C6.62772 7.24231 7.24211 6.62793 7.99999 6.62793C8.75787 6.62793 9.37225 7.24231 9.37225 8.00019C9.37225 8.75807 8.75787 9.37245 7.99999 9.37245Z" fill="#9DA9BB"/>
<path d="M2.51094 9.37245C1.75306 9.37245 1.13868 8.75807 1.13868 8.00019C1.13868 7.24231 1.75306 6.62793 2.51094 6.62793C3.26882 6.62793 3.8832 7.24231 3.8832 8.00019C3.8832 8.75807 3.26882 9.37245 2.51094 9.37245Z" fill="#9DA9BB"/>
</svg>
