<svg width="20" height="20" viewBox="0 0 20 20" fill="none" xmlns="http://www.w3.org/2000/svg">
    <path d="M9.375 5.9375C9.375 7.83598 7.83598 9.375 5.9375 9.375C4.03902 9.375 2.5 7.83598 2.5 5.9375C2.5 4.03902 4.03902 2.5 5.9375 2.5C7.83598 2.5 9.375 4.03902 9.375 5.9375Z"
          fill="#506176"/>
    <path d="M17.5 5.9375C17.5 7.83598 15.961 9.375 14.0625 9.375C12.164 9.375 10.625 7.83598 10.625 5.9375C10.625 4.03902 12.164 2.5 14.0625 2.5C15.961 2.5 17.5 4.03902 17.5 5.9375Z"
          fill="#506176"/>
    <path d="M5.9375 17.5C7.83598 17.5 9.375 15.961 9.375 14.0625C9.375 12.164 7.83598 10.625 5.9375 10.625C4.03902 10.625 2.5 12.164 2.5 14.0625C2.5 15.961 4.03902 17.5 5.9375 17.5Z"
          fill="#506176"/>
    <path d="M17.5 14.0625C17.5 15.961 15.961 17.5 14.0625 17.5C12.164 17.5 10.625 15.961 10.625 14.0625C10.625 12.164 12.164 10.625 14.0625 10.625C15.961 10.625 17.5 12.164 17.5 14.0625Z"
          fill="#506176"/>
</svg>
