<svg width="20" height="20" viewBox="0 0 20 20" fill="none" xmlns="http://www.w3.org/2000/svg">
    <g clip-path="url(#clip0_7232_15412)">
        <path fill-rule="evenodd" clip-rule="evenodd"
              d="M17.9023 16.2315C16.9273 17.2992 15.7156 18.1236 14.3645 18.6385C13.0133 19.1534 11.5603 19.3445 10.122 19.1964C8.68363 19.0483 7.30001 18.5652 6.0821 17.7858C4.86419 17.0065 3.84587 15.9525 3.10884 14.7085C2.37181 13.4645 1.93658 12.0651 1.83805 10.6225C1.73952 9.17997 1.98044 7.73438 2.54148 6.40173C3.10253 5.06907 3.96808 3.88645 5.06871 2.94872C6.16935 2.01099 7.47443 1.34425 8.87927 1.00198L9.17311 2.20805C7.95673 2.5044 6.82674 3.08169 5.87376 3.89362C4.92078 4.70555 4.17135 5.72952 3.68557 6.88339C3.1998 8.03725 2.9912 9.28891 3.07651 10.538C3.16182 11.787 3.53866 12.9987 4.17682 14.0758C4.81497 15.1529 5.69667 16.0654 6.75119 16.7403C7.80572 17.4151 9.00371 17.8334 10.2491 17.9616C11.4945 18.0898 12.7525 17.9243 13.9224 17.4785C15.0923 17.0327 16.1415 16.3189 16.9857 15.3944L17.9023 16.2315ZM11.0698 17.3944C9.82548 17.3944 8.60122 17.0807 7.51021 16.4823C6.41919 15.884 5.49661 15.0202 4.82775 13.971C4.15889 12.9217 3.76533 11.7207 3.68344 10.4791C3.60155 9.23747 3.83398 7.99523 4.35925 6.8672C4.88452 5.73917 5.68567 4.76176 6.68865 4.02529C7.69163 3.28883 8.86409 2.81709 10.0976 2.65367C11.3312 2.49025 12.586 2.64043 13.7462 3.09032C14.9063 3.54022 15.9344 4.27531 16.7352 5.22765L15.706 6.09319C15.0506 5.31386 14.2093 4.71231 13.26 4.34415C12.3106 3.97599 11.2837 3.8531 10.2743 3.98683C9.2648 4.12056 8.30535 4.5066 7.48458 5.10927C6.66381 5.71194 6.0082 6.51178 5.57836 7.43488C5.14852 8.35798 4.95832 9.37454 5.02533 10.3906C5.09234 11.4067 5.4144 12.3894 5.96175 13.2481C6.5091 14.1068 7.26407 14.8136 8.15688 15.3032C9.04969 15.7929 10.0515 16.0496 11.0698 16.0496V17.3944ZM11.9412 15.4749C12.8956 15.3232 13.7939 14.925 14.5472 14.3197L13.6781 13.2381C13.113 13.6921 12.4393 13.9908 11.7234 14.1046C11.0075 14.2184 10.2743 14.1433 9.5963 13.8868C8.91832 13.6304 8.31902 13.2014 7.85768 12.6422C7.39635 12.0831 7.08894 11.4133 6.96588 10.6989C6.84281 9.98457 6.90835 9.25046 7.156 8.56921C7.40366 7.88795 7.82485 7.28314 8.37793 6.81459C8.93101 6.34603 9.59682 6.02997 10.3095 5.89764C11.0222 5.76532 11.7571 5.82132 12.4415 6.06012L12.8986 4.75003C11.9862 4.43166 11.0064 4.357 10.0562 4.53341C9.10606 4.70983 8.2184 5.13121 7.48103 5.75589C6.74366 6.38056 6.18212 7.1869 5.85195 8.09515C5.52178 9.0034 5.43441 9.98211 5.59848 10.9345C5.76255 11.8869 6.17238 12.7799 6.78743 13.5253C7.40249 14.2707 8.20148 14.8427 9.10537 15.1846C10.0093 15.5266 10.9868 15.6266 11.9412 15.4749Z"
              fill="#506176"/>
    </g>
    <defs>
        <clipPath id="clip0_7232_15412">
            <rect width="20" height="20" fill="white"/>
        </clipPath>
    </defs>
</svg>
