<svg width="20" height="20" viewBox="0 0 20 20" fill="none" xmlns="http://www.w3.org/2000/svg">
<g clip-path="url(#clip0_5819_40169)">
<path d="M12.8453 3.07227C13.5598 3.07227 14.2201 3.45346 14.5773 4.07227L17.4226 9.00047C17.7799 9.61927 17.7799 10.3817 17.4226 11.0005L14.5773 15.9287C14.2201 16.5475 13.5598 16.9287 12.8453 16.9287L7.15468 16.9287C6.44015 16.9287 5.7799 16.5475 5.42263 15.9287L2.57733 11.0005C2.22007 10.3817 2.22007 9.61927 2.57733 9.00047L5.42263 4.07227C5.7799 3.45346 6.44015 3.07227 7.15468 3.07227L12.8453 3.07227Z" fill="#6848FF"/>
<path d="M11.927 11.9255C11.5459 12.3067 11.0603 12.5662 10.5317 12.6714C10.003 12.7765 9.45508 12.7226 8.95711 12.5163C8.45915 12.31 8.03353 11.9607 7.73408 11.5126C7.43463 11.0644 7.2748 10.5375 7.2748 9.99854C7.2748 9.45955 7.43463 8.93266 7.73408 8.4845C8.03353 8.03635 8.45915 7.68705 8.95711 7.48079C9.45508 7.27452 10.003 7.22056 10.5317 7.32571C11.0603 7.43086 11.5459 7.69041 11.927 8.07154" stroke="white" stroke-width="1.5" stroke-linecap="round" stroke-linejoin="round"/>
</g>
<defs>
<clipPath id="clip0_5819_40169">
<rect width="20" height="20" fill="white"/>
</clipPath>
</defs>
</svg>
