<svg width="20" height="20" viewBox="0 0 20 20" fill="none" xmlns="http://www.w3.org/2000/svg">
<g clip-path="url(#clip0_6396_1157972)">
<path fill-rule="evenodd" clip-rule="evenodd" d="M5.74988 7.5C5.74988 5.15279 7.65267 3.25 9.99988 3.25C12.3471 3.25 14.2499 5.15279 14.2499 7.5C14.2499 9.82562 12.3819 11.715 10.0645 11.7495C10.043 11.7494 10.0214 11.7493 9.99988 11.7493C9.97832 11.7493 9.95677 11.7494 9.93522 11.7495C7.61782 11.715 5.74988 9.82562 5.74988 7.5ZM6.82574 12.2953C5.27337 11.2656 4.24988 9.50234 4.24988 7.5C4.24988 4.32436 6.82424 1.75 9.99988 1.75C13.1755 1.75 15.7499 4.32436 15.7499 7.5C15.7499 9.50234 14.7264 11.2656 13.174 12.2953C13.7184 12.4882 14.2462 12.7312 14.7503 13.0223C16.1945 13.8562 17.3938 15.0557 18.2276 16.5001C18.4346 16.8588 18.3117 17.3175 17.9529 17.5245C17.5942 17.7316 17.1355 17.6087 16.9285 17.2499C16.2264 16.0336 15.2164 15.0235 14.0002 14.3213C12.8039 13.6305 11.4494 13.2615 10.0688 13.2496C10.0459 13.2499 10.0229 13.25 9.99988 13.25C9.97687 13.25 9.95388 13.2499 9.93093 13.2496C8.55034 13.2615 7.19588 13.6305 5.99956 14.3213C4.78333 15.0235 3.77341 16.0336 3.07131 17.2499C2.86424 17.6087 2.40555 17.7316 2.04682 17.5245C1.68808 17.3175 1.56513 16.8588 1.7722 16.5001C2.60594 15.0557 3.80523 13.8562 5.2495 13.0223C5.7536 12.7312 6.28135 12.4882 6.82574 12.2953Z" fill="#506176"/>
</g>
<defs>
<clipPath id="clip0_6396_1157972">
<rect width="20" height="20" fill="white"/>
</clipPath>
</defs>
</svg>
