<svg width="20" height="20" viewBox="0 0 20 20" fill="none" xmlns="http://www.w3.org/2000/svg">
<g clip-path="url(#clip0_11427_4207)">
<path d="M15.625 1.875C16.1428 1.875 16.5625 2.29473 16.5625 2.8125V3.08293L16.8186 2.99938C17.3108 2.83876 17.84 3.10757 18.0006 3.5998C18.1613 4.09202 17.8924 4.62125 17.4002 4.78187L17.1425 4.86598L17.3047 5.08866C17.6095 5.50717 17.5174 6.09357 17.0989 6.39841C16.6803 6.70325 16.0939 6.61111 15.7891 6.19259L15.625 5.96732L15.4609 6.19259C15.1561 6.61111 14.5697 6.70325 14.1512 6.39841C13.7327 6.09357 13.6405 5.50717 13.9454 5.08866L14.1075 4.86598L13.8498 4.78187C13.3576 4.62125 13.0888 4.09202 13.2494 3.5998C13.41 3.10757 13.9392 2.83876 14.4315 2.99938L14.6875 3.08293V2.8125C14.6875 2.29473 15.1072 1.875 15.625 1.875Z" fill="#506176"/>
<path d="M13.5962 9.34615C13.5962 11.3323 11.9861 12.9423 10 12.9423C8.0139 12.9423 6.40384 11.3323 6.40384 9.34615C6.40384 7.36005 8.0139 5.75 10 5.75C11.9861 5.75 13.5962 7.36005 13.5962 9.34615Z" fill="#506176"/>
<path d="M10 1.5C8.31886 1.5 6.67547 1.99852 5.27766 2.93251C3.87984 3.8665 2.79037 5.19402 2.14703 6.74719C1.50368 8.30036 1.33535 10.0094 1.66333 11.6583C1.9913 13.3071 2.80085 14.8217 3.9896 16.0104C5.17834 17.1991 6.6929 18.0087 8.34173 18.3367C9.99057 18.6646 11.6996 18.4963 13.2528 17.853C14.806 17.2096 16.1335 16.1202 17.0675 14.7223C18.0015 13.3245 18.5 11.6811 18.5 10C18.4996 9.64679 18.4772 9.29586 18.4337 8.94905C18.3932 8.62647 18.1108 8.39612 17.7857 8.39612C17.3897 8.39612 17.0974 8.76448 17.1435 9.15776C17.2182 9.79609 17.2075 10.4448 17.1089 11.0866C16.8983 12.4572 16.296 13.7377 15.3745 14.7739C14.8496 14.0135 14.1689 13.3734 13.3777 12.8962C12.4679 13.7651 11.2581 14.25 10 14.25C8.74187 14.25 7.53214 13.7651 6.6223 12.8962C5.83107 13.3734 5.15042 14.0135 4.62553 14.7739C3.70402 13.7377 3.1017 12.4572 2.8911 11.0866C2.68051 9.71602 2.87061 8.31377 3.43852 7.04871C4.00643 5.78366 4.92793 4.70975 6.09206 3.9563C7.25619 3.20285 8.61331 2.80199 9.99999 2.80199C10.228 2.80199 10.4552 2.81282 10.6809 2.83428C11.0504 2.86942 11.3898 2.59203 11.3898 2.22087C11.3898 1.87171 11.1375 1.57041 10.7899 1.53761C10.5284 1.51294 10.2648 1.5003 10 1.5Z" fill="#506176"/>
</g>
<defs>
<clipPath id="clip0_11427_4207">
<rect width="20" height="20" fill="white"/>
</clipPath>
</defs>
</svg>
