<svg width="20" height="20" viewBox="0 0 20 20" fill="none" xmlns="http://www.w3.org/2000/svg">
    <path d="M16.875 12.8125H15.2211C15.0865 12.3611 14.8099 11.9651 14.4322 11.6836C14.0545 11.4021 13.5961 11.25 13.125 11.25C12.654 11.25 12.1955 11.4021 11.8178 11.6836C11.4402 11.9651 11.1635 12.3611 11.029 12.8125H3.12502C2.95926 12.8125 2.80029 12.8784 2.68308 12.9956C2.56587 13.1128 2.50002 13.2718 2.50002 13.4375C2.50002 13.6033 2.56587 13.7622 2.68308 13.8795C2.80029 13.9967 2.95926 14.0625 3.12502 14.0625H11.029C11.1635 14.5139 11.4402 14.9099 11.8178 15.1914C12.1955 15.4729 12.654 15.625 13.125 15.625C13.5961 15.625 14.0545 15.4729 14.4322 15.1914C14.8099 14.9099 15.0865 14.5139 15.2211 14.0625H16.875C17.0408 14.0625 17.1997 13.9967 17.317 13.8795C17.4342 13.7622 17.5 13.6033 17.5 13.4375C17.5 13.2718 17.4342 13.1128 17.317 12.9956C17.1997 12.8784 17.0408 12.8125 16.875 12.8125Z"
          fill="#506176"/>
    <path d="M3.12498 7.18742L6.02896 7.1875C6.16349 7.63893 6.44017 8.03487 6.81784 8.31639C7.1955 8.59792 7.65397 8.75 8.12502 8.75C8.59607 8.75 9.05453 8.59792 9.4322 8.31639C9.80986 8.03487 10.0865 7.63893 10.2211 7.1875L16.875 7.18742C17.0408 7.18742 17.1997 7.12157 17.317 7.00436C17.4342 6.88715 17.5 6.72818 17.5 6.56242C17.5 6.39666 17.4342 6.23769 17.317 6.12048C17.1997 6.00327 17.0408 5.93742 16.875 5.93742L10.2211 5.9375C10.0865 5.48607 9.80986 5.09014 9.4322 4.80861C9.05453 4.52708 8.59607 4.375 8.12502 4.375C7.65397 4.375 7.1955 4.52708 6.81784 4.80861C6.44017 5.09014 6.16349 5.48607 6.02896 5.9375L3.12506 5.93742C2.9593 5.93742 2.80029 6.00326 2.68307 6.12047C2.56586 6.23767 2.50001 6.39664 2.5 6.5624C2.49999 6.72816 2.56584 6.88714 2.68304 7.00435C2.80025 7.12156 2.95922 7.18742 3.12498 7.18742Z"
          fill="#506176"/>
</svg>
