<svg width="20" height="20" viewBox="0 0 20 20" fill="none" xmlns="http://www.w3.org/2000/svg">
<path d="M13.4375 5.5625C13.4375 7.46098 11.8985 9 10 9C9.57572 9 9.1694 8.92313 8.79419 8.78257L7.20706 11.4807C7.75924 11.9665 8.15431 12.6266 8.30624 13.375H11.6938C12.0123 11.806 13.3995 10.625 15.0625 10.625C16.961 10.625 18.5 12.164 18.5 14.0625C18.5 15.961 16.961 17.5 15.0625 17.5C13.3556 17.5 11.9392 16.2559 11.6708 14.625H8.3292C8.06076 16.2559 6.64442 17.5 4.9375 17.5C3.03902 17.5 1.5 15.961 1.5 14.0625C1.5 12.164 3.03902 10.625 4.9375 10.625C5.35837 10.625 5.76158 10.7006 6.13426 10.8391L7.72317 8.13791C7.01131 7.50811 6.5625 6.58772 6.5625 5.5625C6.5625 3.66402 8.10152 2.125 10 2.125C11.8985 2.125 13.4375 3.66402 13.4375 5.5625Z" fill="#1E2134"/>
</svg>
