<svg width="16" height="16" viewBox="0 0 16 16" fill="none" xmlns="http://www.w3.org/2000/svg">
<path d="M12.5712 5.71425C13.8336 5.71425 14.857 4.6909 14.857 3.42854C14.857 2.16617 13.8336 1.14282 12.5712 1.14282C11.3089 1.14282 10.2855 2.16617 10.2855 3.42854C10.2855 3.61831 10.3087 3.80269 10.3522 3.979L5.19966 6.55529C4.78051 6.04198 4.14267 5.71425 3.42829 5.71425C2.16593 5.71425 1.14258 6.7376 1.14258 7.99996C1.14258 9.26233 2.16593 10.2857 3.42829 10.2857C4.14267 10.2857 4.78051 9.95795 5.19965 9.44464L10.3522 12.0209C10.3087 12.1972 10.2855 12.3816 10.2855 12.5714C10.2855 13.8338 11.3089 14.8571 12.5712 14.8571C13.8336 14.8571 14.857 13.8338 14.857 12.5714C14.857 11.309 13.8336 10.2857 12.5712 10.2857C11.8569 10.2857 11.219 10.6134 10.7999 11.1267L5.64729 8.55042C5.69088 8.37411 5.71401 8.18974 5.71401 7.99996C5.71401 7.81019 5.69088 7.62581 5.64729 7.44951L10.7999 4.87321C11.219 5.38652 11.8569 5.71425 12.5712 5.71425Z" fill="#9DA9BB"/>
</svg>
