<svg viewBox="0 0 664 102" xmlns="http://www.w3.org/2000/svg">
<path d="M198.735 80.8671C192.214 80.8671 186.501 79.8707 181.596 77.872C176.684 75.8792 172.84 72.9077 170.057 68.9692C167.274 65.0308 165.753 60.1549 165.5 54.3298C165.464 53.522 165.848 53.1211 166.655 53.1211H178.359C179.09 53.1211 179.497 53.4866 179.567 54.2177C179.933 57.5489 180.764 60.4615 182.067 62.9554C183.364 65.4494 185.381 67.3596 188.11 68.698C190.84 70.0364 194.49 70.7026 199.071 70.7026C202.661 70.7026 205.757 70.2722 208.357 69.4114C210.957 68.5506 212.991 67.2063 214.453 65.3727C215.915 63.5391 216.652 61.1454 216.652 58.1739C216.652 55.2024 215.756 53.1683 213.964 51.6059C212.166 50.0494 209.807 48.8407 206.877 47.9799C203.947 47.1191 200.716 46.388 197.178 45.7807C193.641 45.1794 190.109 44.4542 186.578 43.6111C183.04 42.768 179.809 41.6065 176.879 40.1207C173.949 38.635 171.584 36.5832 169.792 33.9713C167.994 31.3535 167.098 27.8986 167.098 23.6123C167.098 18.8484 168.271 14.7861 170.612 11.4137C172.952 8.04715 176.331 5.45297 180.747 3.64293C185.157 1.827 190.404 0.924927 196.489 0.924927C205.385 0.924927 212.596 2.77623 218.103 6.47295C223.615 10.1756 226.882 15.9948 227.908 23.9424C228.055 24.7855 227.689 25.2041 226.811 25.2041H215.108C214.377 25.2041 213.952 24.8209 213.846 24.0485C213.445 19.7976 211.729 16.5962 208.711 14.4383C205.692 12.2745 201.488 11.1955 196.105 11.1955C191.453 11.1955 187.662 12.0858 184.732 13.8605C181.802 15.641 180.34 18.4711 180.34 22.3505C180.34 24.9506 181.236 26.9729 183.028 28.4233C184.821 29.8737 187.197 31.0057 190.145 31.8311C193.092 32.6565 196.335 33.364 199.867 33.9477C203.398 34.5314 206.942 35.2448 210.497 36.0879C214.046 36.931 217.301 38.122 220.249 39.6608C223.197 41.1996 225.567 43.3045 227.365 45.9812C229.158 48.652 230.054 52.1542 230.054 56.4759C230.054 61.8234 228.757 66.3043 226.157 69.9125C223.556 73.5208 219.913 76.2506 215.226 78.096C210.538 79.9473 205.043 80.873 198.741 80.873L198.735 80.8671Z"/>
<path d="M256.143 80.6492C250.283 80.6492 245.625 78.739 242.158 74.9067C238.697 71.0802 236.97 65.5794 236.97 58.3982V46.8659L236.586 23.9545C236.586 23.1468 236.97 22.7458 237.742 22.7458H248.785C249.593 22.7458 249.994 23.1468 249.994 23.9545L249.722 46.8659V58.0739C249.722 62.2895 250.689 65.4615 252.635 67.6076C254.575 69.7478 257.045 70.8208 260.052 70.8208C262.287 70.8208 264.397 70.19 266.396 68.9282C268.395 67.6665 270.069 65.7504 271.425 63.1857C272.781 60.621 273.66 57.4018 274.061 53.5164V46.8718L273.842 23.9604C273.842 23.1527 274.226 22.7518 274.998 22.7518H286.206C287.014 22.7518 287.415 23.1527 287.415 23.9604L286.973 49.1771L287.25 78.1317C287.25 78.9394 286.849 79.3403 286.041 79.3403H275.658C274.851 79.3403 274.45 78.9217 274.45 78.0786L274.727 70.8267C273.518 72.619 272.009 74.2699 270.193 75.7733C268.377 77.2768 266.302 78.4678 263.955 79.3462C261.614 80.2247 259.008 80.6669 256.155 80.6669L256.143 80.6492Z"/>
<path d="M327.122 21.5903C332.358 21.5903 336.756 22.8874 340.306 25.4934C343.855 28.0934 346.543 31.6015 348.353 36.0116C350.164 40.4276 351.071 45.3801 351.071 50.8692C351.071 56.3583 350.11 61.2931 348.188 65.7563C346.266 70.2253 343.501 73.7865 339.893 76.4396C336.285 79.0927 331.957 80.4193 326.898 80.4193C319.316 80.4193 313.603 77.489 309.759 71.6285L309.977 78.0551C310.013 78.8628 309.629 79.2637 308.822 79.2637H297.779C297.012 79.2637 296.623 78.8805 296.623 78.114L297.065 38.7768L296.623 3.61966C296.623 2.81192 297.006 2.41101 297.779 2.41101H308.875C309.682 2.41101 310.083 2.81192 310.083 3.61966L309.865 30.5933C311.734 27.7751 314.11 25.57 317.005 23.9722C319.9 22.3803 323.267 21.5844 327.111 21.5844L327.122 21.5903ZM323.278 71.3102C326.497 71.3868 329.174 70.6027 331.297 68.9754C333.419 67.3481 335.011 65.037 336.078 62.0536C337.14 59.0703 337.67 55.5446 337.67 51.4765C337.67 47.1548 337.14 43.4404 336.078 40.3215C335.017 37.2084 333.443 34.8206 331.356 33.1521C329.269 31.4836 326.668 30.6699 323.555 30.7112C319.122 30.7112 315.679 32.3502 313.226 35.6283C310.773 38.9064 309.506 43.8236 309.435 50.3798C309.399 57.0775 310.579 62.2364 312.978 65.8447C315.378 69.453 318.809 71.2748 323.278 71.3102Z"/>
<path d="M359.645 79.3284C358.837 79.3284 358.454 78.9275 358.489 78.1198L358.931 58.0148L358.654 23.9544C358.654 23.1466 359.037 22.7457 359.81 22.7457H370.411C371.218 22.7457 371.601 23.1702 371.566 24.0074L371.295 31.2594C372.539 29.3196 373.966 27.6039 375.581 26.1241C377.191 24.6442 379.042 23.4886 381.129 22.6632C383.216 21.8378 385.557 21.425 388.163 21.425C392.19 21.425 395.58 22.3507 398.327 24.202C401.075 26.0533 403.085 28.901 404.371 32.7451C405.874 30.1097 407.501 27.9459 409.258 26.2597C411.015 24.5734 412.949 23.3471 415.054 22.5806C417.159 21.8083 419.458 21.425 421.946 21.425C427.553 21.425 431.928 23.2174 435.076 26.808C438.225 30.3986 439.799 36.0173 439.799 43.6761V58.0148L440.076 78.1198C440.076 78.9275 439.675 79.3284 438.868 79.3284H427.606C426.799 79.3284 426.415 78.9275 426.451 78.1198L426.893 58.0148V44.0062C426.893 39.5372 426.062 36.3003 424.393 34.2839C422.725 32.2676 420.502 31.2653 417.719 31.2653C416.251 31.2653 414.824 31.678 413.433 32.5034C412.041 33.3288 410.803 34.4903 409.724 35.9938C408.645 37.4972 407.767 39.2895 407.089 41.3767C406.411 43.4638 406.016 45.7927 405.91 48.3515V58.0207L406.346 78.1257C406.381 78.9334 405.98 79.3343 405.137 79.3343H393.876C393.068 79.3343 392.685 78.9334 392.72 78.1257L393.104 58.0207V44.0121C393.104 39.5431 392.278 36.3062 390.633 34.2898C388.982 32.2735 386.754 31.2711 383.93 31.2711C382.061 31.2711 380.274 31.9315 378.57 33.2522C376.866 34.5728 375.422 36.5185 374.231 39.1009C373.04 41.6833 372.262 44.8376 371.896 48.5755V58.0266L372.279 78.1316C372.315 78.9393 371.914 79.3402 371.071 79.3402H359.645V79.3284Z"/>
<path d="M475.069 80.6491C468.99 80.6491 463.861 79.3933 459.686 76.8875C455.512 74.3818 452.352 70.9091 450.212 66.4754C448.072 62.0476 446.999 56.9536 446.999 51.2051C446.999 45.4566 448.095 40.0619 450.294 35.5751C452.494 31.0884 455.66 27.6098 459.799 25.1394C463.937 22.669 468.884 21.4309 474.632 21.4309C483.347 21.4309 490.115 24.1489 494.932 29.5908C499.749 35.0268 502.231 42.5087 502.379 52.0305C502.379 52.8736 501.995 53.2922 501.223 53.2922H460.347C460.6 59.589 461.974 64.2408 464.468 67.2477C466.956 70.2487 470.547 71.7522 475.234 71.7522C478.677 71.7522 481.507 70.8678 483.724 69.0872C485.941 67.3126 487.468 64.6123 488.311 60.9863C488.423 60.2906 488.824 59.9428 489.52 59.9428H499.902C500.781 59.9428 501.182 60.2376 501.111 60.8213C500.563 64.5592 499.195 67.914 497.019 70.8973C494.838 73.8865 491.907 76.2566 488.228 78.0136C484.549 79.7706 480.163 80.6491 475.069 80.6491ZM460.73 44.7196H488.146C487.963 42.1608 487.368 39.773 486.359 37.5797C485.351 35.3805 483.877 33.6177 481.937 32.2793C479.998 30.941 477.58 30.2747 474.686 30.2747C470.659 30.2747 467.481 31.5188 465.152 34.0127C462.823 36.5067 461.349 40.0737 460.73 44.7255V44.7196Z"/>
<path d="M522.972 78.1197C522.972 78.9274 522.571 79.3284 521.764 79.3284H510.721C509.954 79.3284 509.565 78.9274 509.565 78.1197L510.007 50.7039L509.565 23.9484C509.565 23.1407 509.948 22.7398 510.721 22.7398H521.651C522.459 22.7398 522.842 23.1643 522.807 24.0015L522.424 32.9573C524.546 29.3667 527.359 26.6841 530.855 24.9095C534.351 23.1348 538.113 22.2445 542.146 22.2445C543.171 22.2445 544.121 22.3388 545.005 22.5216C545.701 22.6336 546.049 23.0699 546.049 23.8423V31.3713C546.049 32.1791 545.624 32.5446 544.787 32.4679C544.421 32.3972 544.038 32.35 543.631 32.3324C543.23 32.3147 542.806 32.3029 542.37 32.3029C538.856 32.3029 535.66 32.9927 532.783 34.3605C529.906 35.7343 527.571 37.7919 525.779 40.5453C523.98 43.2928 522.996 46.7714 522.813 50.981L522.978 78.1197H522.972Z"/>
<path d="M574.013 101.084C569.396 101.12 565.216 100.524 561.46 99.2978C557.705 98.0714 554.686 96.1376 552.398 93.5021C550.111 90.8667 548.778 87.5178 548.413 83.4497C548.301 82.6419 548.672 82.241 549.509 82.241H560.222C560.918 82.241 561.336 82.6066 561.484 83.3377C561.926 86.3033 563.288 88.5201 565.576 89.9823C567.863 91.4504 570.805 92.1815 574.396 92.1815C578.57 92.1815 581.913 90.9198 584.425 88.3904C586.93 85.8611 588.186 81.8519 588.186 76.3569V69.8774C586.429 72.731 584.118 74.9773 581.264 76.6045C578.405 78.2377 575.074 79.0513 571.265 79.0513C565.847 79.0513 561.295 77.8073 557.61 75.3133C553.931 72.8253 551.142 69.447 549.262 65.1784C547.375 60.9098 546.432 56.1223 546.432 50.8101C546.432 45.4979 547.393 40.5984 549.315 36.2237C551.237 31.849 554.014 28.3586 557.64 25.7586C561.266 23.1585 565.623 21.8555 570.717 21.8555C574.49 21.8555 577.809 22.6161 580.687 24.1372C583.564 25.6583 585.934 27.8103 587.803 30.5932L587.532 24.0016C587.496 23.1585 587.897 22.7398 588.74 22.7398H599.565C600.332 22.7398 600.721 23.1408 600.721 23.9485L600.391 48.2336L600.609 76.5279C600.721 84.222 598.492 90.2358 593.935 94.5752C589.377 98.9146 582.738 101.084 574.018 101.084H574.013ZM574.119 70.2665C578.476 70.2665 581.884 68.6923 584.336 65.5439C586.789 62.3955 588.033 57.6316 588.074 51.2582C588.145 44.6666 586.978 39.5844 584.56 36.0115C582.143 32.4386 578.682 30.6521 574.178 30.6521C571.029 30.5814 568.4 31.3302 566.295 32.9043C564.19 34.4844 562.586 36.7425 561.49 39.6905C560.393 42.6384 559.839 46.1819 559.839 50.3208C559.839 56.8062 561.053 61.7587 563.494 65.1842C565.929 68.6097 569.473 70.3019 574.125 70.2665H574.119Z"/>
<path d="M636.202 80.6491C630.123 80.6491 624.994 79.3933 620.82 76.8875C616.645 74.3818 613.485 70.9091 611.345 66.4754C609.205 62.0476 608.132 56.9536 608.132 51.2051C608.132 45.4566 609.228 40.0619 611.428 35.5751C613.627 31.0884 616.793 27.6098 620.932 25.1394C625.071 22.669 630.017 21.4309 635.766 21.4309C644.48 21.4309 651.248 24.1489 656.065 29.5908C660.882 35.0268 663.364 42.5087 663.512 52.0305C663.512 52.8736 663.129 53.2922 662.356 53.2922H621.48C621.734 59.589 623.107 64.2408 625.601 67.2477C628.089 70.2487 631.68 71.7522 636.367 71.7522C639.81 71.7522 642.64 70.8678 644.857 69.0872C647.074 67.3126 648.601 64.6123 649.444 60.9863C649.556 60.2906 649.957 59.9428 650.653 59.9428H661.035C661.914 59.9428 662.315 60.2376 662.244 60.8213C661.696 64.5592 660.328 67.914 658.152 70.8973C655.971 73.8865 653.041 76.2566 649.362 78.0136C645.683 79.7706 641.296 80.6491 636.202 80.6491ZM621.863 44.7196H649.279C649.096 42.1608 648.501 39.773 647.493 37.5797C646.484 35.3805 645.011 33.6177 643.071 32.2793C641.131 30.941 638.714 30.2747 635.819 30.2747C631.792 30.2747 628.614 31.5188 626.285 34.0127C623.956 36.5067 622.482 40.0737 621.863 44.7255V44.7196Z"/>
<path d="M125.455 46.276L136.085 40.1384C137.341 39.4132 137.659 37.7505 136.763 36.6067C132.329 30.9762 122.495 24.0367 107.101 25.7171C99.6427 26.5366 84.9796 30.3866 69.4617 34.4665C56.8917 37.7741 43.8913 41.1878 36.5568 42.4495C26.239 44.2242 19.9305 42.6795 16.7821 40.8989L65.3405 12.864L77.8869 20.2988C78.6239 20.735 79.5436 20.7409 80.2865 20.3105L93.0983 12.9112C94.6725 12.0033 94.6842 9.73924 93.1218 8.81359L82.0848 2.26916C81.3478 1.83287 80.428 1.82698 79.6852 2.25738L66.3251 9.96919L51.7446 1.32584C50.8307 0.783416 49.7046 0.777521 48.7849 1.30815L1.95394 28.3466C0.014202 29.4668 -0.00347841 32.2615 1.92447 33.4053L13.6749 40.3683L2.20746 46.9894C0.928058 47.7264 0.61559 49.4539 1.57662 50.5741C5.37946 55.0019 16.0392 63.5863 39.5048 59.5594C47.5821 58.1738 60.3585 54.8132 73.8836 51.258C87.4441 47.691 102.815 43.6523 108.994 42.9743C115.892 42.2196 119.848 44.3775 121.817 46.046L73.7834 73.7802L61.237 66.3455C60.5 65.9092 59.5802 65.9033 58.8373 66.3337L46.0256 73.733C44.4514 74.641 44.4396 76.905 46.002 77.8307L57.0391 84.3751C57.7761 84.8114 58.6958 84.8173 59.4387 84.3869L72.7988 76.6751L87.3793 85.3185C88.2931 85.8609 89.4193 85.8668 90.339 85.3361L137.17 58.2976C139.11 57.1774 139.127 54.3828 137.199 53.239L125.449 46.276H125.455Z"/>
</svg>
