<svg width="20" height="20" viewBox="0 0 20 20" fill="none" xmlns="http://www.w3.org/2000/svg">
<g clip-path="url(#clip0_9231_18010)">
<path d="M15 1.875H7.5C7.16848 1.875 6.85054 2.0067 6.61612 2.24112C6.3817 2.47554 6.25 2.79348 6.25 3.125V4.375H5C4.66848 4.375 4.35054 4.5067 4.11612 4.74112C3.8817 4.97554 3.75 5.29348 3.75 5.625V17.5C3.75 17.6658 3.81585 17.8247 3.93306 17.9419C4.05027 18.0592 4.20924 18.125 4.375 18.125C4.50652 18.1246 4.63472 18.0836 4.74219 18.0078L8.75 15.1406L12.7656 18.0078C12.8583 18.076 12.9683 18.1167 13.0831 18.1249C13.1978 18.1332 13.3126 18.1089 13.4141 18.0547C13.5149 18.0011 13.5993 17.9213 13.6585 17.8236C13.7176 17.726 13.7492 17.6142 13.75 17.5V14.4297L15.2656 15.5078C15.3697 15.5845 15.4957 15.6256 15.625 15.625C15.7908 15.625 15.9497 15.5592 16.0669 15.4419C16.1842 15.3247 16.25 15.1658 16.25 15V3.125C16.25 2.79348 16.1183 2.47554 15.8839 2.24112C15.6495 2.0067 15.3315 1.875 15 1.875ZM15 13.7891L13.75 12.8906V5.625C13.75 5.29348 13.6183 4.97554 13.3839 4.74112C13.1495 4.5067 12.8315 4.375 12.5 4.375H7.5V3.125H15V13.7891Z" fill="#506176"/>
</g>
<defs>
<clipPath id="clip0_9231_18010">
<rect width="20" height="20" fill="white"/>
</clipPath>
</defs>
</svg>
