<svg width="24" height="24" viewBox="0 0 24 24" fill="none" xmlns="http://www.w3.org/2000/svg">
<path fill-rule="evenodd" clip-rule="evenodd" d="M11.9999 1.2749C12.4141 1.2749 12.7499 1.61069 12.7499 2.0249V3.80615C12.7499 4.22037 12.4141 4.55615 11.9999 4.55615C11.5857 4.55615 11.2499 4.22037 11.2499 3.80615V2.0249C11.2499 1.61069 11.5857 1.2749 11.9999 1.2749ZM11.9999 17.3437C14.9512 17.3437 17.3437 14.9512 17.3437 11.9999C17.3437 9.04863 14.9512 6.65615 11.9999 6.65615C9.04863 6.65615 6.65615 9.04863 6.65615 11.9999C6.65615 14.9512 9.04863 17.3437 11.9999 17.3437ZM5.47648 4.41582C5.18359 4.12293 4.70872 4.12293 4.41582 4.41582C4.12293 4.70872 4.12293 5.18359 4.41582 5.47648L5.6716 6.73226C5.9645 7.02516 6.43937 7.02516 6.73226 6.73226C7.02516 6.43937 7.02516 5.9645 6.73226 5.6716L5.47648 4.41582ZM1.2749 11.9999C1.2749 11.5857 1.61069 11.2499 2.0249 11.2499H3.80615C4.22037 11.2499 4.55615 11.5857 4.55615 11.9999C4.55615 12.4141 4.22037 12.7499 3.80615 12.7499H2.0249C1.61069 12.7499 1.2749 12.4141 1.2749 11.9999ZM6.73226 18.3282C7.02516 18.0353 7.02516 17.5604 6.73226 17.2675C6.43937 16.9746 5.9645 16.9746 5.6716 17.2675L4.41582 18.5233C4.12293 18.8162 4.12293 19.2911 4.41582 19.584C4.70872 19.8769 5.18359 19.8769 5.47648 19.584L6.73226 18.3282ZM11.9999 19.4437C12.4141 19.4437 12.7499 19.7794 12.7499 20.1937V21.9749C12.7499 22.3891 12.4141 22.7249 11.9999 22.7249C11.5857 22.7249 11.2499 22.3891 11.2499 21.9749V20.1937C11.2499 19.7794 11.5857 19.4437 11.9999 19.4437ZM18.3282 17.2675C18.0353 16.9746 17.5604 16.9746 17.2675 17.2675C16.9746 17.5604 16.9746 18.0353 17.2675 18.3282L18.5233 19.584C18.8162 19.8769 19.2911 19.8769 19.584 19.584C19.8769 19.2911 19.8769 18.8162 19.584 18.5233L18.3282 17.2675ZM19.4437 11.9999C19.4437 11.5857 19.7794 11.2499 20.1937 11.2499H21.9749C22.3891 11.2499 22.7249 11.5857 22.7249 11.9999C22.7249 12.4141 22.3891 12.7499 21.9749 12.7499H20.1937C19.7794 12.7499 19.4437 12.4141 19.4437 11.9999ZM19.584 5.47648C19.8769 5.18359 19.8769 4.70872 19.584 4.41582C19.2911 4.12293 18.8162 4.12293 18.5233 4.41582L17.2675 5.6716C16.9746 5.9645 16.9746 6.43937 17.2675 6.73226C17.5604 7.02516 18.0353 7.02516 18.3282 6.73226L19.584 5.47648Z" fill="white" fill-opacity="0.15"/>
</svg>
