<svg width="16" height="16" viewBox="0 0 16 16" fill="none" xmlns="http://www.w3.org/2000/svg">
<g clip-path="url(#clip0_10825_55488)">
<path d="M8.00007 11.4286C9.26243 11.4286 10.2858 10.4052 10.2858 9.14287C10.2858 7.8805 9.26243 6.85715 8.00007 6.85715C6.7377 6.85715 5.71436 7.8805 5.71436 9.14287C5.71436 10.4052 6.7377 11.4286 8.00007 11.4286ZM8.00007 11.4286C9.69892 11.4286 11.1092 12.6642 11.3812 14.2857H13.7144C14.0299 14.2857 14.2858 14.0043 14.2858 13.6572V2.34287C14.2858 1.99572 14.0299 1.71429 13.7144 1.71429H2.28578C1.97019 1.71429 1.71436 1.99572 1.71436 2.34287V13.6572C1.71436 14.0043 1.97019 14.2857 2.28578 14.2857H4.6189C4.89095 12.6642 6.30121 11.4286 8.00007 11.4286Z" stroke="#9DA9BB" stroke-width="1.25" stroke-linecap="round" stroke-linejoin="round"/>
</g>
<defs>
<clipPath id="clip0_10825_55488">
<rect width="16" height="16" fill="white"/>
</clipPath>
</defs>
</svg>
