<svg width="14" height="14" viewBox="0 0 14 14" fill="none" xmlns="http://www.w3.org/2000/svg">
<path d="M0.837766 5.68823H2.68644V13.2572H0.837766C0.674333 13.2572 0.517594 13.1908 0.40203 13.0725C0.286466 12.9542 0.221542 12.7938 0.221542 12.6265V6.31898C0.221542 6.15169 0.286466 5.99126 0.40203 5.87297C0.517594 5.75468 0.674333 5.68823 0.837766 5.68823ZM4.09944 4.87266L8.04327 0.835856C8.09568 0.782049 8.16532 0.749422 8.23936 0.743976C8.31341 0.738529 8.38688 0.760629 8.44628 0.806211L8.97192 1.20989C9.1179 1.32207 9.22817 1.47598 9.28881 1.65221C9.34946 1.82844 9.35776 2.01911 9.31269 2.20017L8.60218 5.05748H12.546C12.8729 5.05748 13.1864 5.19038 13.4175 5.42696C13.6486 5.66354 13.7785 5.98441 13.7785 6.31898V7.64608C13.7786 7.81093 13.7472 7.97422 13.686 8.12671L11.7788 12.8668C11.7323 12.9824 11.6533 13.0812 11.5518 13.1507C11.4503 13.2202 11.3309 13.2573 11.2088 13.2572H4.53511C4.37167 13.2572 4.21494 13.1908 4.09937 13.0725C3.98381 12.9542 3.91888 12.7938 3.91888 12.6265V5.31861C3.91892 5.15133 3.98386 4.99093 4.09944 4.87266Z" fill="#506176"/>
</svg>
