<svg width="16" height="16" viewBox="0 0 16 16" fill="none" xmlns="http://www.w3.org/2000/svg">
<path fill-rule="evenodd" clip-rule="evenodd" d="M8 14.8569C11.7871 14.8569 14.8571 11.7868 14.8571 7.99972C14.8571 4.21263 11.7871 1.14258 8 1.14258C4.2129 1.14258 1.14285 4.21263 1.14285 7.99972C1.14285 11.7868 4.2129 14.8569 8 14.8569ZM7.50951 10.5203L11.8864 6.3428C12.0007 6.23331 12.0668 6.08293 12.0703 5.92469C12.0738 5.76645 12.0144 5.61328 11.905 5.49884C11.7957 5.3844 11.6454 5.31804 11.4872 5.31434C11.3289 5.31063 11.1757 5.36989 11.0611 5.47909L7.09689 9.26322L5.32167 7.56785C5.20709 7.45865 5.05386 7.3994 4.89562 7.4031C4.73738 7.40681 4.58708 7.47317 4.47774 7.58761C4.3684 7.70205 4.30895 7.85521 4.31245 8.01345C4.31595 8.17169 4.38212 8.32208 4.49642 8.43156L6.68426 10.5203C6.79555 10.6262 6.94328 10.6853 7.09689 10.6853C7.2505 10.6853 7.39823 10.6262 7.50951 10.5203Z" fill="#4CAF50"/>
<path fill-rule="evenodd" clip-rule="evenodd" d="M7.5095 10.5206L11.8863 6.34308C12.0006 6.23359 12.0668 6.08321 12.0703 5.92497C12.0738 5.76672 12.0144 5.61356 11.905 5.49912C11.7957 5.38468 11.6454 5.31832 11.4871 5.31462C11.3289 5.31091 11.1757 5.37017 11.0611 5.47937L7.09687 9.2635L5.32165 7.56813C5.20708 7.45893 5.05384 7.39968 4.8956 7.40338C4.73736 7.40708 4.58707 7.47345 4.47772 7.58789C4.36838 7.70233 4.30893 7.85549 4.31243 8.01373C4.31594 8.17197 4.38211 8.32235 4.49641 8.43184L6.68425 10.5206C6.79553 10.6265 6.94326 10.6855 7.09687 10.6855C7.25048 10.6855 7.39821 10.6265 7.5095 10.5206Z" fill="white"/>
</svg>
