<svg width="16" height="16" viewBox="0 0 16 16" fill="none" xmlns="http://www.w3.org/2000/svg">
<g clip-path="url(#clip0_6385_46659)">
<path d="M14.7963 11.748L9.2983 2.24805C9.1664 2.02053 8.97703 1.83168 8.74917 1.70039C8.5213 1.5691 8.26294 1.5 7.99996 1.5C7.73698 1.5 7.47861 1.5691 7.25075 1.70039C7.02288 1.83168 6.83352 2.02053 6.70162 2.24805L1.20357 11.748C1.07157 11.976 1.00193 12.2347 1.00168 12.4982C1.00142 12.7616 1.07056 13.0205 1.20212 13.2487C1.33368 13.4769 1.52303 13.6665 1.75112 13.7983C1.97921 13.9301 2.23799 13.9995 2.50142 13.9995H13.4985C13.7619 13.9995 14.0207 13.9301 14.2488 13.7983C14.4769 13.6665 14.6662 13.4769 14.7978 13.2487C14.9294 13.0205 14.9985 12.7616 14.9982 12.4982C14.998 12.2347 14.9283 11.976 14.7963 11.748ZM7.49947 6.5C7.49947 6.36739 7.55215 6.24021 7.64592 6.14644C7.73968 6.05268 7.86686 6 7.99947 6C8.13208 6 8.25925 6.05268 8.35302 6.14644C8.44679 6.24021 8.49947 6.36739 8.49947 6.5V9C8.49947 9.13261 8.44679 9.25978 8.35302 9.35355C8.25925 9.44732 8.13208 9.5 7.99947 9.5C7.86686 9.5 7.73968 9.44732 7.64592 9.35355C7.55215 9.25978 7.49947 9.13261 7.49947 9V6.5ZM7.99984 12.0002C7.8515 12.0002 7.70649 11.9562 7.58316 11.8738C7.45982 11.7914 7.36369 11.6742 7.30693 11.5372C7.25016 11.4001 7.23531 11.2493 7.26425 11.1039C7.29319 10.9584 7.36462 10.8247 7.46951 10.7198C7.5744 10.615 7.70803 10.5435 7.85352 10.5146C7.999 10.4857 8.1498 10.5005 8.28685 10.5573C8.42389 10.614 8.54103 10.7102 8.62344 10.8335C8.70585 10.9568 8.74984 11.1018 8.74984 11.2502C8.74983 11.4491 8.6708 11.6398 8.53016 11.7805C8.3895 11.9211 8.19875 12.0002 7.99984 12.0002Z" fill="#FF9800"/>
<path d="M7.49951 6.5C7.49951 6.36739 7.55219 6.24022 7.64596 6.14645C7.73973 6.05268 7.8669 6 7.99951 6C8.13212 6 8.2593 6.05268 8.35307 6.14645C8.44683 6.24022 8.49951 6.36739 8.49951 6.5V9C8.49951 9.13261 8.44683 9.25979 8.35307 9.35355C8.2593 9.44732 8.13212 9.5 7.99951 9.5C7.8669 9.5 7.73973 9.44732 7.64596 9.35355C7.55219 9.25979 7.49951 9.13261 7.49951 9V6.5ZM7.99988 12.0002C7.85154 12.0002 7.70654 11.9562 7.5832 11.8738C7.45986 11.7914 7.36373 11.6742 7.30697 11.5372C7.2502 11.4001 7.23535 11.2493 7.26429 11.1039C7.29323 10.9584 7.36466 10.8247 7.46955 10.7199C7.57444 10.615 7.70807 10.5435 7.85356 10.5146C7.99905 10.4857 8.14985 10.5005 8.28689 10.5573C8.42394 10.614 8.54107 10.7102 8.62348 10.8335C8.70589 10.9568 8.74988 11.1018 8.74988 11.2502C8.74987 11.4491 8.67085 11.6398 8.5302 11.7805C8.38955 11.9212 8.19879 12.0002 7.99988 12.0002Z" fill="white"/>
</g>
<defs>
<clipPath id="clip0_6385_46659">
<rect width="16" height="16" fill="white"/>
</clipPath>
</defs>
</svg>
