<svg width="16" height="16" viewBox="0 0 16 16" fill="none" xmlns="http://www.w3.org/2000/svg">
<path fill-rule="evenodd" clip-rule="evenodd" d="M8 14.8569C11.7871 14.8569 14.8571 11.7868 14.8571 7.99972C14.8571 4.21263 11.7871 1.14258 8 1.14258C4.2129 1.14258 1.14285 4.21263 1.14285 7.99972C1.14285 11.7868 4.2129 14.8569 8 14.8569ZM7.56485 3.87228C7.44945 3.98768 7.38461 4.14421 7.38461 4.30742V8.61511C7.38461 8.77832 7.44945 8.93485 7.56485 9.05026C7.68026 9.16566 7.83679 9.2305 8 9.2305C8.16321 9.2305 8.31973 9.16566 8.43514 9.05026C8.55055 8.93485 8.61538 8.77832 8.61538 8.61511V4.30742C8.61538 4.14421 8.55055 3.98768 8.43514 3.87228C8.31973 3.75687 8.16321 3.69203 8 3.69203C7.83679 3.69203 7.68026 3.75687 7.56485 3.87228ZM7.48716 12.1519C7.63896 12.2533 7.81743 12.3074 8 12.3074C8.24481 12.3074 8.47959 12.2102 8.6527 12.037C8.8258 11.8639 8.92306 11.6292 8.92307 11.3843C8.92307 11.2018 8.86893 11.0233 8.76751 10.8715C8.66608 10.7197 8.52191 10.6014 8.35324 10.5315C8.18457 10.4617 7.99897 10.4434 7.81991 10.479C7.64085 10.5146 7.47638 10.6025 7.34728 10.7316C7.21819 10.8607 7.13027 11.0252 7.09466 11.2043C7.05904 11.3833 7.07732 11.5689 7.14718 11.7376C7.21705 11.9063 7.33536 12.0504 7.48716 12.1519Z" fill="#F44336"/>
<path fill-rule="evenodd" clip-rule="evenodd" d="M7.56481 3.87262C7.4494 3.98803 7.38457 4.14456 7.38457 4.30777V8.61546C7.38457 8.77867 7.4494 8.9352 7.56481 9.0506C7.68022 9.16601 7.83674 9.23084 7.99995 9.23084C8.16316 9.23084 8.31969 9.16601 8.43509 9.0506C8.5505 8.9352 8.61534 8.77867 8.61534 8.61546V4.30777C8.61534 4.14456 8.5505 3.98803 8.43509 3.87262C8.31969 3.75722 8.16316 3.69238 7.99995 3.69238C7.83674 3.69238 7.68022 3.75722 7.56481 3.87262ZM7.48712 12.1522C7.63892 12.2536 7.81738 12.3078 7.99995 12.3078C8.24476 12.3078 8.47954 12.2105 8.65265 12.0374C8.82576 11.8643 8.92302 11.6295 8.92303 11.3847C8.92303 11.2021 8.86889 11.0237 8.76746 10.8719C8.66603 10.7201 8.52187 10.6017 8.3532 10.5319C8.18453 10.462 7.99893 10.4437 7.81987 10.4794C7.64081 10.515 7.47633 10.6029 7.34724 10.732C7.21814 10.8611 7.13023 11.0255 7.09461 11.2046C7.05899 11.3837 7.07727 11.5693 7.14714 11.7379C7.217 11.9066 7.33532 12.0508 7.48712 12.1522Z" fill="white"/>
</svg>
