<svg width="12" height="12" viewBox="0 0 12 12" fill="none" xmlns="http://www.w3.org/2000/svg">
<path fill-rule="evenodd" clip-rule="evenodd" d="M6 12C9.31371 12 12 9.31371 12 6C12 2.68629 9.31371 0 6 0C2.68629 0 0 2.68629 0 6C0 9.31371 2.68629 12 6 12ZM5.57083 8.20553L9.40057 4.55019C9.50058 4.45439 9.55848 4.32281 9.56154 4.18435C9.56461 4.04588 9.51259 3.91187 9.41692 3.81173C9.32124 3.7116 9.18973 3.65353 9.05127 3.65029C8.91282 3.64705 8.77873 3.6989 8.67847 3.79445L5.20978 7.10556L3.65647 5.62211C3.55621 5.52656 3.42213 5.47472 3.28367 5.47796C3.14521 5.4812 3.0137 5.53926 2.91803 5.6394C2.82235 5.73954 2.77033 5.87355 2.7734 6.01201C2.77646 6.15048 2.83436 6.28206 2.93438 6.37786L4.84874 8.20553C4.94611 8.29818 5.07537 8.34985 5.20978 8.34985C5.34419 8.34985 5.47345 8.29818 5.57083 8.20553Z" fill="#4CAF50"/>
</svg>
