<?xml version="1.0" encoding="UTF-8" standalone="no"?>
<!-- Created with Keyshape -->
<svg xmlns="http://www.w3.org/2000/svg" width="20" height="20" viewBox="0 0 22 22" fill="none">
    <style>
        @keyframes a0_t { 0% { transform: translate(11.000025px,11.00079px) rotate(0deg) translate(-11.000025px,-11.00079px); } 100% { transform: translate(11.000025px,11.00079px) rotate(360deg) translate(-11.000025px,-11.00079px); } }
    </style>
    <path d="M4.05005,11.0008C4.05005,10.5866,3.71426,10.2508,3.30005,10.2508C2.88584,10.2508,2.55005,10.5866,2.55005,11.0008L4.05005,11.0008ZM11,2.55078C10.5858,2.55078,10.25,2.88657,10.25,3.30078C10.25,3.71499,10.5858,4.05078,11,4.05078L11,2.55078ZM17.95,11.0008C17.95,14.8392,14.8384,17.9508,11,17.9508L11,19.4508C15.6669,19.4508,19.45,15.6676,19.45,11.0008L17.95,11.0008ZM11,17.9508C7.16167,17.9508,4.05005,14.8392,4.05005,11.0008L2.55005,11.0008C2.55005,15.6676,6.33324,19.4508,11,19.4508L11,17.9508ZM11,4.05078C14.8384,4.05078,17.95,7.1624,17.95,11.0008L19.45,11.0008C19.45,6.33398,15.6669,2.55078,11,2.55078L11,4.05078Z" fill="#D7DEE8" transform="translate(11,11.0008) translate(-11,-11.0008)" style="animation: 1s linear infinite both a0_t;"/>
</svg>
