<svg width="20" height="20" viewBox="0 0 20 20" fill="none" xmlns="http://www.w3.org/2000/svg">
<g clip-path="url(#clip0_9591_45552)">
<path fill-rule="evenodd" clip-rule="evenodd" d="M2.84091 3.125C2.27326 3.125 1.625 3.51481 1.625 4.20455V15.7955C1.625 16.4852 2.27326 16.875 2.84091 16.875H17.1591C17.7267 16.875 18.375 16.4852 18.375 15.7955V4.20455C18.375 3.51481 17.7267 3.125 17.1591 3.125H2.84091ZM8.02967 5.90124C8.27354 6.03176 8.42578 6.2859 8.42578 6.5625V13.4545C8.42578 13.8687 8.08999 14.2045 7.67578 14.2045C7.26157 14.2045 6.92578 13.8687 6.92578 13.4545V7.96389L6.21681 8.43654C5.87216 8.6663 5.40651 8.57317 5.17674 8.22853C4.94698 7.88388 5.04011 7.41823 5.38476 7.18846L7.25976 5.93846C7.4899 5.78503 7.78581 5.77073 8.02967 5.90124ZM11.8136 7.42116C12.0052 7.32005 12.2258 7.28822 12.4382 7.33107C12.6505 7.37391 12.8416 7.48879 12.979 7.65628C13.2347 7.96789 13.258 8.42903 13.0417 8.7578L9.96201 12.8688C9.79173 13.0961 9.76445 13.4001 9.89153 13.6541C10.0186 13.9081 10.2783 14.0685 10.5623 14.0685H13.9423C14.3565 14.0685 14.6923 13.7327 14.6923 13.3185C14.6923 12.9043 14.3565 12.5685 13.9423 12.5685H12.0612L14.2538 9.64166C14.2605 9.63274 14.267 9.62367 14.2733 9.61446C14.8786 8.72659 14.8133 7.52711 14.1387 6.70484C13.782 6.27009 13.2861 5.97189 12.7348 5.86069C12.1836 5.74948 11.6108 5.8321 11.1135 6.09456C10.6161 6.35702 10.2247 6.78321 10.0054 7.30104C9.8439 7.68247 10.0222 8.12261 10.4036 8.28413C10.785 8.44565 11.2252 8.26739 11.3867 7.88597C11.4712 7.68647 11.622 7.52228 11.8136 7.42116Z" fill="#1E2134"/>
</g>
<defs>
<clipPath id="clip0_9591_45552">
<rect width="20" height="20" fill="white"/>
</clipPath>
</defs>
</svg>
