<svg width="20" height="20" viewBox="0 0 20 20" fill="none" xmlns="http://www.w3.org/2000/svg">
<g clip-path="url(#clip0_9591_45558)">
<path fill-rule="evenodd" clip-rule="evenodd" d="M2.84091 3.125C2.27326 3.125 1.625 3.51481 1.625 4.20455V15.7955C1.625 16.4852 2.27326 16.875 2.84091 16.875H17.1591C17.7267 16.875 18.375 16.4852 18.375 15.7955V4.20455C18.375 3.51481 17.7267 3.125 17.1591 3.125H2.84091ZM4.81226 6.64077C4.81226 6.22656 5.14804 5.89077 5.56226 5.89077H8.96911C9.24876 5.89077 9.50519 6.04636 9.63434 6.29441C9.76349 6.54246 9.74391 6.84176 9.58353 7.07087L8.21629 9.02407C8.235 9.03353 8.25362 9.04321 8.27214 9.05311C8.66912 9.26533 9.00763 9.57217 9.2577 9.94646C9.50777 10.3207 9.66168 10.7509 9.70579 11.1989C9.7499 11.6469 9.68285 12.0988 9.51059 12.5147C9.33832 12.9306 9.06615 13.2976 8.71819 13.5831C8.37022 13.8687 7.95721 14.064 7.51572 14.1519C7.07422 14.2397 6.61789 14.2173 6.18712 14.0866C5.75636 13.956 5.36446 13.7211 5.04615 13.4028C4.75324 13.11 4.75322 12.6351 5.04609 12.3422C5.33897 12.0493 5.81385 12.0492 6.10675 12.3421C6.25064 12.486 6.42778 12.5921 6.6225 12.6512C6.81721 12.7103 7.02349 12.7204 7.22305 12.6807C7.42261 12.641 7.60931 12.5527 7.76659 12.4236C7.92388 12.2945 8.04691 12.1286 8.12477 11.9407C8.20264 11.7527 8.23295 11.5484 8.21301 11.3459C8.19307 11.1434 8.1235 10.9489 8.01047 10.7798C7.89743 10.6106 7.74441 10.4719 7.56497 10.3759C7.38553 10.28 7.1852 10.2298 6.98172 10.2298C6.70208 10.2298 6.44567 10.0742 6.31653 9.82615C6.1874 9.5781 6.20699 9.27881 6.36735 9.04972L7.52862 7.39077H5.56226C5.14804 7.39077 4.81226 7.05498 4.81226 6.64077ZM11.7301 9.94049C11.7301 9.12191 11.9332 8.41694 12.2222 7.94133C12.5194 7.45221 12.828 7.3125 13.0325 7.3125C13.237 7.3125 13.5456 7.45221 13.8428 7.94133C14.1318 8.41694 14.3349 9.12191 14.3349 9.94049C14.3349 10.7591 14.1318 11.464 13.8428 11.9396C13.5456 12.4288 13.237 12.5685 13.0325 12.5685C12.828 12.5685 12.5194 12.4288 12.2222 11.9396C11.9332 11.464 11.7301 10.7591 11.7301 9.94049ZM13.0325 5.8125C12.1035 5.8125 11.3859 6.42898 10.9403 7.16245C10.4864 7.90943 10.2301 8.89346 10.2301 9.94049C10.2301 10.9875 10.4864 11.9715 10.9403 12.7185C11.3859 13.452 12.1035 14.0685 13.0325 14.0685C13.9615 14.0685 14.6791 13.452 15.1247 12.7185C15.5786 11.9715 15.8349 10.9875 15.8349 9.94049C15.8349 8.89346 15.5786 7.90943 15.1247 7.16245C14.6791 6.42898 13.9615 5.8125 13.0325 5.8125Z" fill="#1E2134"/>
</g>
<defs>
<clipPath id="clip0_9591_45558">
<rect width="20" height="20" fill="white"/>
</clipPath>
</defs>
</svg>
