<svg width="20" height="20" viewBox="0 0 20 20" fill="none" xmlns="http://www.w3.org/2000/svg">
<g clip-path="url(#clip0_9591_45562)">
<path fill-rule="evenodd" clip-rule="evenodd" d="M2.84091 3.125C2.27326 3.125 1.625 3.51481 1.625 4.20455V15.7955C1.625 16.4852 2.27326 16.875 2.84091 16.875H17.1591C17.7267 16.875 18.375 16.4852 18.375 15.7955V4.20455C18.375 3.51481 17.7267 3.125 17.1591 3.125H2.84091ZM4.82642 6.63228C4.82642 6.21806 5.1622 5.88228 5.57642 5.88228H8.98327C9.26293 5.88228 9.51935 6.03787 9.6485 6.28592C9.77765 6.53397 9.75807 6.83327 9.59769 7.06238L8.23045 9.01558C8.24916 9.02504 8.26778 9.03472 8.2863 9.04462C8.68328 9.25683 9.02179 9.56368 9.27186 9.93797C9.52193 10.3123 9.67584 10.7424 9.71995 11.1904C9.76406 11.6384 9.69701 12.0903 9.52475 12.5062C9.35248 12.9221 9.08031 13.2891 8.73235 13.5746C8.38439 13.8602 7.97137 14.0555 7.52988 14.1434C7.08838 14.2312 6.63205 14.2088 6.20128 14.0781C5.77052 13.9475 5.37862 13.7126 5.06031 13.3943C4.7674 13.1015 4.76738 12.6266 5.06025 12.3337C5.35313 12.0408 5.82801 12.0407 6.12091 12.3336C6.2648 12.4775 6.44194 12.5837 6.63666 12.6427C6.83137 12.7018 7.03765 12.7119 7.23721 12.6722C7.43677 12.6325 7.62347 12.5442 7.78075 12.4151C7.93804 12.286 8.06107 12.1202 8.13893 11.9322C8.2168 11.7442 8.24711 11.5399 8.22717 11.3374C8.20723 11.1349 8.13766 10.9405 8.02463 10.7713C7.91159 10.6021 7.75857 10.4634 7.57913 10.3675C7.39969 10.2715 7.19936 10.2213 6.99588 10.2213C6.71624 10.2213 6.45983 10.0657 6.33069 9.81766C6.20156 9.56961 6.22115 9.27032 6.38151 9.04123L7.54278 7.38228H5.57642C5.1622 7.38228 4.82642 7.04649 4.82642 6.63228ZM13.4674 6.81212C13.6053 6.42152 13.4004 5.99312 13.0098 5.85526C12.6192 5.7174 12.1908 5.92229 12.0529 6.31288L10.3988 10.9994C10.3178 11.229 10.3532 11.4835 10.4938 11.6822C10.6344 11.8809 10.8627 11.999 11.1061 11.999H13.6642V13.4545C13.6642 13.8687 14 14.2045 14.4142 14.2045C14.8284 14.2045 15.1642 13.8687 15.1642 13.4545V11.249V9.04361C15.1642 8.6294 14.8284 8.29361 14.4142 8.29361C14 8.29361 13.6642 8.6294 13.6642 9.04361V10.499H12.1661L13.4674 6.81212Z" fill="#1E2134"/>
</g>
<defs>
<clipPath id="clip0_9591_45562">
<rect width="20" height="20" fill="white"/>
</clipPath>
</defs>
</svg>
