<svg width="20" height="20" viewBox="0 0 20 20" fill="none" xmlns="http://www.w3.org/2000/svg">
<g clip-path="url(#clip0_9591_45556)">
<path fill-rule="evenodd" clip-rule="evenodd" d="M2.84091 3.125C2.27326 3.125 1.625 3.51481 1.625 4.20455V15.7955C1.625 16.4852 2.27326 16.875 2.84091 16.875H17.1591C17.7267 16.875 18.375 16.4852 18.375 15.7955V4.20455C18.375 3.51481 17.7267 3.125 17.1591 3.125H2.84091ZM7.22004 7.33107C7.00767 7.28822 6.78702 7.32005 6.59542 7.42116C6.40382 7.52228 6.25302 7.68647 6.16854 7.88597C6.00702 8.26739 5.56687 8.44565 5.18545 8.28413C4.80403 8.12261 4.62576 7.68247 4.78728 7.30104C5.00657 6.78321 5.39799 6.35702 5.89534 6.09456C6.39269 5.8321 6.96542 5.74948 7.51667 5.86069C8.06791 5.97189 8.56383 6.27009 8.92052 6.70484C9.59516 7.52711 9.66044 8.72659 9.05515 9.61446C9.04887 9.62367 9.04239 9.63274 9.0357 9.64166L6.84309 12.5685H8.72417C9.13838 12.5685 9.47417 12.9043 9.47417 13.3185C9.47417 13.7327 9.13838 14.0685 8.72417 14.0685H5.34412C5.06011 14.0685 4.80047 13.9081 4.67339 13.6541C4.54631 13.4001 4.57359 13.0961 4.74387 12.8688L7.82361 8.7578C8.03984 8.42903 8.01654 7.96789 7.76088 7.65628C7.62346 7.48879 7.43241 7.37391 7.22004 7.33107ZM11.7301 9.94049C11.7301 9.12191 11.9332 8.41694 12.2222 7.94133C12.5194 7.45221 12.828 7.3125 13.0325 7.3125C13.237 7.3125 13.5456 7.45221 13.8428 7.94133C14.1318 8.41694 14.3349 9.12191 14.3349 9.94049C14.3349 10.7591 14.1318 11.464 13.8428 11.9396C13.5456 12.4288 13.237 12.5685 13.0325 12.5685C12.828 12.5685 12.5194 12.4288 12.2222 11.9396C11.9332 11.464 11.7301 10.7591 11.7301 9.94049ZM13.0325 5.8125C12.1035 5.8125 11.3859 6.42898 10.9403 7.16245C10.4864 7.90943 10.2301 8.89346 10.2301 9.94049C10.2301 10.9875 10.4864 11.9715 10.9403 12.7185C11.3859 13.452 12.1035 14.0685 13.0325 14.0685C13.9615 14.0685 14.6791 13.452 15.1247 12.7185C15.5786 11.9715 15.8349 10.9875 15.8349 9.94049C15.8349 8.89346 15.5786 7.90943 15.1247 7.16245C14.6791 6.42898 13.9615 5.8125 13.0325 5.8125Z" fill="#1E2134"/>
</g>
<defs>
<clipPath id="clip0_9591_45556">
<rect width="20" height="20" fill="white"/>
</clipPath>
</defs>
</svg>
