<svg width="20" height="20" viewBox="0 0 20 20" fill="none" xmlns="http://www.w3.org/2000/svg">
<g clip-path="url(#clip0_9591_45548)">
<path fill-rule="evenodd" clip-rule="evenodd" d="M1.625 4.20455C1.625 3.51481 2.27326 3.125 2.84091 3.125H17.1591C17.7267 3.125 18.375 3.51481 18.375 4.20455V15.7955C18.375 16.4852 17.7267 16.875 17.1591 16.875H2.84091C2.27326 16.875 1.625 16.4852 1.625 15.7955V4.20455ZM8.61938 10C8.61938 9.14798 8.83114 8.41271 9.13405 7.9151C9.44506 7.40421 9.7732 7.25 9.99996 7.25C10.2267 7.25 10.5549 7.40421 10.8659 7.9151C11.1688 8.41271 11.3805 9.14798 11.3805 10C11.3805 10.852 11.1688 11.5873 10.8659 12.0849C10.5549 12.5958 10.2267 12.75 9.99996 12.75C9.7732 12.75 9.44506 12.5958 9.13405 12.0849C8.83114 11.5873 8.61938 10.852 8.61938 10ZM9.99996 5.75C9.05003 5.75 8.31289 6.3793 7.85278 7.13515C7.38457 7.90429 7.11938 8.91902 7.11938 10C7.11938 11.081 7.38457 12.0957 7.85278 12.8649C8.31289 13.6207 9.05003 14.25 9.99996 14.25C10.9499 14.25 11.687 13.6207 12.1471 12.8649C12.6153 12.0957 12.8805 11.081 12.8805 10C12.8805 8.91902 12.6153 7.90429 12.1471 7.13515C11.687 6.3793 10.9499 5.75 9.99996 5.75Z" fill="#1E2134"/>
</g>
<defs>
<clipPath id="clip0_9591_45548">
<rect width="20" height="20" fill="white"/>
</clipPath>
</defs>
</svg>
