<svg width="20" height="20" viewBox="0 0 20 20" fill="none" xmlns="http://www.w3.org/2000/svg">
<g clip-path="url(#clip0_9591_45553)">
<path fill-rule="evenodd" clip-rule="evenodd" d="M2.84091 3.125C2.27326 3.125 1.625 3.51481 1.625 4.20455V15.7955C1.625 16.4852 2.27326 16.875 2.84091 16.875H17.1591C17.7267 16.875 18.375 16.4852 18.375 15.7955V4.20455C18.375 3.51481 17.7267 3.125 17.1591 3.125H2.84091ZM9.81226 6.64077C9.81226 6.22656 10.148 5.89077 10.5623 5.89077H13.9691C14.2488 5.89077 14.5052 6.04636 14.6343 6.29441C14.7635 6.54246 14.7439 6.84176 14.5835 7.07087L13.2163 9.02407C13.235 9.03353 13.2536 9.04321 13.2721 9.05311C13.6691 9.26533 14.0076 9.57217 14.2577 9.94646C14.5078 10.3207 14.6617 10.7509 14.7058 11.1989C14.7499 11.6469 14.6829 12.0988 14.5106 12.5147C14.3383 12.9306 14.0662 13.2976 13.7182 13.5831C13.3702 13.8687 12.9572 14.064 12.5157 14.1519C12.0742 14.2397 11.6179 14.2173 11.1871 14.0866C10.7564 13.956 10.3645 13.7211 10.0461 13.4028C9.75324 13.11 9.75322 12.6351 10.0461 12.3422C10.339 12.0493 10.8138 12.0492 11.1068 12.3421C11.2506 12.486 11.4278 12.5921 11.6225 12.6512C11.8172 12.7103 12.0235 12.7204 12.2231 12.6807C12.4226 12.641 12.6093 12.5527 12.7666 12.4236C12.9239 12.2945 13.0469 12.1286 13.1248 11.9407C13.2026 11.7527 13.2329 11.5484 13.213 11.3459C13.1931 11.1434 13.1235 10.9489 13.0105 10.7798C12.8974 10.6106 12.7444 10.4719 12.565 10.3759C12.3855 10.28 12.1852 10.2298 11.9817 10.2298C11.7021 10.2298 11.4457 10.0742 11.3165 9.82615C11.1874 9.5781 11.207 9.27881 11.3674 9.04972L12.5286 7.39077H10.5623C10.148 7.39077 9.81226 7.05498 9.81226 6.64077ZM8.42578 6.5625C8.42578 6.2859 8.27354 6.03176 8.02967 5.90124C7.78581 5.77073 7.4899 5.78503 7.25976 5.93846L5.38476 7.18846C5.04011 7.41823 4.94698 7.88388 5.17674 8.22853C5.40651 8.57317 5.87216 8.6663 6.21681 8.43654L6.92578 7.96389V13.4545C6.92578 13.8687 7.26157 14.2045 7.67578 14.2045C8.08999 14.2045 8.42578 13.8687 8.42578 13.4545V6.5625Z" fill="#1E2134"/>
</g>
<defs>
<clipPath id="clip0_9591_45553">
<rect width="20" height="20" fill="white"/>
</clipPath>
</defs>
</svg>
