<svg width="20" height="20" viewBox="0 0 20 20" fill="none" xmlns="http://www.w3.org/2000/svg">
<g clip-path="url(#clip0_9591_45554)">
<path fill-rule="evenodd" clip-rule="evenodd" d="M2.84091 3.125C2.27326 3.125 1.625 3.51481 1.625 4.20455V15.7955C1.625 16.4852 2.27326 16.875 2.84091 16.875H17.1591C17.7267 16.875 18.375 16.4852 18.375 15.7955V4.20455C18.375 3.51481 17.7267 3.125 17.1591 3.125H2.84091ZM8.02967 5.90124C8.27354 6.03176 8.42578 6.2859 8.42578 6.5625V13.4545C8.42578 13.8687 8.08999 14.2045 7.67578 14.2045C7.26157 14.2045 6.92578 13.8687 6.92578 13.4545V7.96389L6.21681 8.43654C5.87216 8.6663 5.40651 8.57317 5.17674 8.22853C4.94698 7.88388 5.04011 7.41823 5.38476 7.18846L7.25976 5.93846C7.4899 5.78503 7.78581 5.77073 8.02967 5.90124ZM12.5887 6.81212C12.7266 6.42152 12.5217 5.99312 12.1311 5.85526C11.7405 5.7174 11.3121 5.92229 11.1742 6.31288L9.52017 10.9994C9.43916 11.229 9.47458 11.4835 9.61516 11.6822C9.75575 11.8809 9.98401 11.999 10.2274 11.999H12.7856V13.4545C12.7856 13.8687 13.1214 14.2045 13.5356 14.2045C13.9498 14.2045 14.2856 13.8687 14.2856 13.4545V11.249V9.04361C14.2856 8.6294 13.9498 8.29361 13.5356 8.29361C13.1214 8.29361 12.7856 8.6294 12.7856 9.04361V10.499H11.2875L12.5887 6.81212Z" fill="#1E2134"/>
</g>
<defs>
<clipPath id="clip0_9591_45554">
<rect width="20" height="20" fill="white"/>
</clipPath>
</defs>
</svg>
