<svg width="20" height="20" viewBox="0 0 20 20" fill="none" xmlns="http://www.w3.org/2000/svg">
<g clip-path="url(#clip0_9591_45550)">
<path fill-rule="evenodd" clip-rule="evenodd" d="M2.84091 3.125C2.27326 3.125 1.625 3.51481 1.625 4.20455V15.7955C1.625 16.4852 2.27326 16.875 2.84091 16.875H17.1591C17.7267 16.875 18.375 16.4852 18.375 15.7955V4.20455C18.375 3.51481 17.7267 3.125 17.1591 3.125H2.84091ZM7.66639 5.90124C7.91026 6.03176 8.0625 6.2859 8.0625 6.5625V13.4545C8.0625 13.8687 7.72671 14.2045 7.3125 14.2045C6.89829 14.2045 6.5625 13.8687 6.5625 13.4545V7.96389L5.85353 8.43654C5.50888 8.6663 5.04323 8.57317 4.81346 8.22853C4.5837 7.88388 4.67683 7.41823 5.02147 7.18846L6.89647 5.93846C7.12662 5.78503 7.42253 5.77073 7.66639 5.90124ZM10.8223 10C10.8223 9.14798 11.034 8.41271 11.3369 7.9151C11.6479 7.40421 11.9761 7.25 12.2028 7.25C12.4296 7.25 12.7577 7.40421 13.0687 7.9151C13.3717 8.41271 13.5834 9.14798 13.5834 10C13.5834 10.852 13.3717 11.5873 13.0687 12.0849C12.7577 12.5958 12.4296 12.75 12.2028 12.75C11.9761 12.75 11.6479 12.5958 11.3369 12.0849C11.034 11.5873 10.8223 10.852 10.8223 10ZM12.2028 5.75C11.2529 5.75 10.5158 6.3793 10.0557 7.13515C9.58745 7.90429 9.32227 8.91902 9.32227 10C9.32227 11.081 9.58745 12.0957 10.0557 12.8649C10.5158 13.6207 11.2529 14.25 12.2028 14.25C13.1528 14.25 13.8899 13.6207 14.35 12.8649C14.8182 12.0957 15.0834 11.081 15.0834 10C15.0834 8.91902 14.8182 7.90429 14.35 7.13515C13.8899 6.3793 13.1528 5.75 12.2028 5.75Z" fill="#1E2134"/>
</g>
<defs>
<clipPath id="clip0_9591_45550">
<rect width="20" height="20" fill="white"/>
</clipPath>
</defs>
</svg>
