<svg width="20" height="20" viewBox="0 0 20 20" fill="none" xmlns="http://www.w3.org/2000/svg">
<g clip-path="url(#clip0_9591_45557)">
<path fill-rule="evenodd" clip-rule="evenodd" d="M2.84091 3.125C2.27326 3.125 1.625 3.51481 1.625 4.20455V15.7955C1.625 16.4852 2.27326 16.875 2.84091 16.875H17.1591C17.7267 16.875 18.375 16.4852 18.375 15.7955V4.20455C18.375 3.51481 17.7267 3.125 17.1591 3.125H2.84091ZM14.2064 5.90124C14.4503 6.03176 14.6025 6.2859 14.6025 6.5625V13.4545C14.6025 13.8687 14.2668 14.2045 13.8525 14.2045C13.4383 14.2045 13.1025 13.8687 13.1025 13.4545V7.96389L12.3936 8.43654C12.0489 8.6663 11.5833 8.57317 11.3535 8.22853C11.1237 7.88388 11.2169 7.41823 11.5615 7.18846L13.4365 5.93846C13.6667 5.78503 13.9626 5.77073 14.2064 5.90124ZM7.05208 7.42116C7.24369 7.32005 7.46434 7.28822 7.67671 7.33107C7.88907 7.37391 8.08013 7.48879 8.21754 7.65628C8.4732 7.96789 8.49651 8.42903 8.28028 8.7578L5.20054 12.8688C5.03026 13.0961 5.00297 13.4001 5.13005 13.6541C5.25713 13.9081 5.51678 14.0685 5.80078 14.0685H9.18084C9.59505 14.0685 9.93084 13.7327 9.93084 13.3185C9.93084 12.9043 9.59505 12.5685 9.18084 12.5685H7.29976L9.49237 9.64166C9.49905 9.63274 9.50554 9.62367 9.51182 9.61446C10.1171 8.72659 10.0518 7.52711 9.37719 6.70484C9.02049 6.27009 8.52458 5.97189 7.97333 5.86069C7.42209 5.74948 6.84935 5.8321 6.35201 6.09456C5.85466 6.35702 5.46324 6.78321 5.24395 7.30104C5.08243 7.68247 5.26069 8.12261 5.64211 8.28413C6.02354 8.44565 6.46368 8.26739 6.6252 7.88597C6.70968 7.68647 6.86048 7.52228 7.05208 7.42116Z" fill="#1E2134"/>
</g>
<defs>
<clipPath id="clip0_9591_45557">
<rect width="20" height="20" fill="white"/>
</clipPath>
</defs>
</svg>
