<svg width="20" height="20" viewBox="0 0 20 20" fill="none" xmlns="http://www.w3.org/2000/svg">
<g clip-path="url(#clip0_15485_74940)">
<path fill-rule="evenodd" clip-rule="evenodd" d="M1.625 4.20455C1.625 3.51481 2.27326 3.125 2.84091 3.125H17.1591C17.7267 3.125 18.375 3.51481 18.375 4.20455V15.7955C18.375 16.4852 17.7267 16.875 17.1591 16.875H2.84091C2.27326 16.875 1.625 16.4852 1.625 15.7955V4.20455ZM9.56136 7.35866C9.75297 7.25755 9.97361 7.22572 10.186 7.26857C10.3984 7.31141 10.5894 7.42629 10.7268 7.59378C10.9825 7.90539 11.0058 8.36653 10.7896 8.6953L7.70981 12.8063C7.53953 13.0336 7.51225 13.3376 7.63933 13.5916C7.76641 13.8456 8.02605 14.006 8.31006 14.006H11.6901C12.1043 14.006 12.4401 13.6702 12.4401 13.256C12.4401 12.8418 12.1043 12.506 11.6901 12.506H9.80903L12.0016 9.57916C12.0083 9.57024 12.0148 9.56117 12.0211 9.55196C12.6264 8.66409 12.5611 7.46461 11.8865 6.64234C11.5298 6.20759 11.0339 5.90939 10.4826 5.79819C9.93137 5.68698 9.35863 5.7696 8.86128 6.03206C8.36394 6.29452 7.97251 6.72071 7.75323 7.23854C7.5917 7.61997 7.76997 8.06011 8.15139 8.22163C8.53281 8.38315 8.97296 8.20489 9.13448 7.82347C9.21896 7.62397 9.36976 7.45978 9.56136 7.35866Z" fill="#1E2134"/>
</g>
<defs>
<clipPath id="clip0_15485_74940">
<rect width="20" height="20" fill="white"/>
</clipPath>
</defs>
</svg>
