<svg width="20" height="20" viewBox="0 0 20 20" fill="none" xmlns="http://www.w3.org/2000/svg">
<g clip-path="url(#clip0_9591_45561)">
<path fill-rule="evenodd" clip-rule="evenodd" d="M2.84091 3.125C2.27326 3.125 1.625 3.51481 1.625 4.20455V15.7955C1.625 16.4852 2.27326 16.875 2.84091 16.875H17.1591C17.7267 16.875 18.375 16.4852 18.375 15.7955V4.20455C18.375 3.51481 17.7267 3.125 17.1591 3.125H2.84091ZM4.82642 6.63228C4.82642 6.21806 5.1622 5.88228 5.57642 5.88228H8.98327C9.26293 5.88228 9.51935 6.03787 9.6485 6.28592C9.77765 6.53397 9.75807 6.83327 9.59769 7.06238L8.23045 9.01558C8.24916 9.02504 8.26778 9.03472 8.2863 9.04462C8.68328 9.25683 9.02179 9.56368 9.27186 9.93797C9.52193 10.3123 9.67584 10.7424 9.71995 11.1904C9.76406 11.6384 9.69701 12.0903 9.52475 12.5062C9.35248 12.9221 9.08031 13.2891 8.73235 13.5746C8.38439 13.8602 7.97137 14.0555 7.52988 14.1434C7.08838 14.2312 6.63205 14.2088 6.20128 14.0781C5.77052 13.9475 5.37862 13.7126 5.06031 13.3943C4.7674 13.1015 4.76738 12.6266 5.06025 12.3337C5.35313 12.0408 5.82801 12.0407 6.12091 12.3336C6.2648 12.4775 6.44194 12.5837 6.63666 12.6427C6.83137 12.7018 7.03765 12.7119 7.23721 12.6722C7.43677 12.6325 7.62347 12.5442 7.78075 12.4151C7.93804 12.286 8.06107 12.1202 8.13893 11.9322C8.2168 11.7442 8.24711 11.5399 8.22717 11.3374C8.20723 11.1349 8.13766 10.9405 8.02463 10.7713C7.91159 10.6021 7.75857 10.4634 7.57913 10.3675C7.39969 10.2715 7.19936 10.2213 6.99588 10.2213C6.71624 10.2213 6.45983 10.0657 6.33069 9.81766C6.20156 9.56961 6.22115 9.27032 6.38151 9.04123L7.54278 7.38228H5.57642C5.1622 7.38228 4.82642 7.04649 4.82642 6.63228ZM11.1467 5.88228C10.7325 5.88228 10.3967 6.21806 10.3967 6.63228C10.3967 7.04649 10.7325 7.38228 11.1467 7.38228H13.1131L11.9518 9.04123C11.7915 9.27032 11.7719 9.56961 11.901 9.81766C12.0301 10.0657 12.2865 10.2213 12.5662 10.2213C12.7697 10.2213 12.97 10.2715 13.1494 10.3675C13.3289 10.4634 13.4819 10.6021 13.5949 10.7713C13.708 10.9405 13.7775 11.1349 13.7975 11.3374C13.8174 11.5399 13.7871 11.7442 13.7092 11.9322C13.6314 12.1202 13.5084 12.286 13.3511 12.4151C13.1938 12.5442 13.0071 12.6325 12.8075 12.6722C12.608 12.7119 12.4017 12.7018 12.207 12.6427C12.0123 12.5837 11.8351 12.4775 11.6912 12.3336C11.3983 12.0407 10.9234 12.0408 10.6306 12.3337C10.3377 12.6266 10.3377 13.1015 10.6306 13.3943C10.9489 13.7126 11.3408 13.9475 11.7716 14.0781C12.2024 14.2088 12.6587 14.2312 13.1002 14.1434C13.5417 14.0555 13.9547 13.8602 14.3027 13.5746C14.6506 13.2891 14.9228 12.9221 15.0951 12.5062C15.2673 12.0903 15.3344 11.6384 15.2903 11.1904C15.2462 10.7424 15.0922 10.3123 14.8422 9.93797C14.5921 9.56368 14.2536 9.25683 13.8566 9.04462C13.8381 9.03472 13.8195 9.02504 13.8008 9.01558L15.168 7.06238C15.3284 6.83327 15.348 6.53397 15.2188 6.28592C15.0897 6.03787 14.8332 5.88228 14.5536 5.88228H11.1467Z" fill="#1E2134"/>
</g>
<defs>
<clipPath id="clip0_9591_45561">
<rect width="20" height="20" fill="white"/>
</clipPath>
</defs>
</svg>
