<svg width="20" height="20" viewBox="0 0 20 20" fill="none" xmlns="http://www.w3.org/2000/svg">
<g clip-path="url(#clip0_9591_45555)">
<path fill-rule="evenodd" clip-rule="evenodd" d="M2.84091 3.125C2.27326 3.125 1.625 3.51481 1.625 4.20455V15.7955C1.625 16.4852 2.27326 16.875 2.84091 16.875H17.1591C17.7267 16.875 18.375 16.4852 18.375 15.7955V4.20455C18.375 3.51481 17.7267 3.125 17.1591 3.125H2.84091ZM7.88075 5.90124C8.12462 6.03176 8.27686 6.2859 8.27686 6.5625V13.4545C8.27686 13.8687 7.94107 14.2045 7.52686 14.2045C7.11264 14.2045 6.77686 13.8687 6.77686 13.4545V7.96389L6.06788 8.43654C5.72323 8.6663 5.25758 8.57317 5.02782 8.22853C4.79805 7.88388 4.89118 7.41823 5.23583 7.18846L7.11083 5.93846C7.34097 5.78503 7.63688 5.77073 7.88075 5.90124ZM10.9876 5.89077C10.6196 5.89077 10.306 6.15772 10.2472 6.52096L9.69359 9.94201C9.64161 10.2632 9.80267 10.5813 10.0923 10.7295C10.382 10.8777 10.7342 10.8222 10.9643 10.5922C11.1373 10.4191 11.3578 10.3013 11.5978 10.2536C11.8378 10.2058 12.0866 10.2304 12.3127 10.324C12.5388 10.4177 12.732 10.5763 12.868 10.7797C13.0039 10.9832 13.0765 11.2224 13.0765 11.4671C13.0765 11.7119 13.0039 11.9511 12.868 12.1546C12.732 12.358 12.5388 12.5166 12.3127 12.6103C12.0866 12.7039 11.8378 12.7284 11.5978 12.6807C11.3578 12.633 11.1373 12.5151 10.9643 12.3421C10.6714 12.0492 10.1965 12.0493 9.9036 12.3422C9.61072 12.6351 9.61075 13.1099 9.90366 13.4028C10.2865 13.7856 10.7742 14.0463 11.3052 14.1519C11.8362 14.2575 12.3866 14.2033 12.8867 13.9961C13.3869 13.7889 13.8144 13.438 14.1152 12.9879C14.4159 12.5377 14.5765 12.0085 14.5765 11.4671C14.5765 10.9258 14.4159 10.3965 14.1152 9.94639C13.8144 9.49625 13.3869 9.1454 12.8867 8.93821C12.4174 8.74379 11.9039 8.68406 11.4036 8.76468L11.626 7.39077H13.6967C14.1109 7.39077 14.4467 7.05498 14.4467 6.64077C14.4467 6.22656 14.1109 5.89077 13.6967 5.89077H10.9876Z" fill="#1E2134"/>
</g>
<defs>
<clipPath id="clip0_9591_45555">
<rect width="20" height="20" fill="white"/>
</clipPath>
</defs>
</svg>
