<svg width="20" height="20" viewBox="0 0 20 20" fill="none" xmlns="http://www.w3.org/2000/svg">
<g clip-path="url(#clip0_9591_45560)">
<path fill-rule="evenodd" clip-rule="evenodd" d="M2.84091 3.125C2.27326 3.125 1.625 3.51481 1.625 4.20455V15.7955C1.625 16.4852 2.27326 16.875 2.84091 16.875H17.1591C17.7267 16.875 18.375 16.4852 18.375 15.7955V4.20455C18.375 3.51481 17.7267 3.125 17.1591 3.125H2.84091ZM13.036 7.32258C12.8236 7.27974 12.6029 7.31157 12.4113 7.41268C12.2197 7.51379 12.0689 7.67799 11.9845 7.87748C11.8229 8.25891 11.3828 8.43717 11.0014 8.27565C10.6199 8.11413 10.4417 7.67398 10.6032 7.29256C10.8225 6.77473 11.2139 6.34853 11.7113 6.08607C12.2086 5.82361 12.7813 5.741 13.3326 5.8522C13.8838 5.96341 14.3797 6.26161 14.7364 6.69636C15.4111 7.51863 15.4764 8.71811 14.8711 9.60597C14.8648 9.61518 14.8583 9.62425 14.8516 9.63318L12.659 12.56H14.5401C14.9543 12.56 15.2901 12.8958 15.2901 13.31C15.2901 13.7242 14.9543 14.06 14.5401 14.06H11.16C10.876 14.06 10.6164 13.8996 10.4893 13.6456C10.3622 13.3916 10.3895 13.0876 10.5598 12.8603L13.6395 8.74932C13.8558 8.42055 13.8325 7.9594 13.5768 7.6478C13.4394 7.48031 13.2483 7.36542 13.036 7.32258ZM5.57642 5.88228C5.1622 5.88228 4.82642 6.21806 4.82642 6.63228C4.82642 7.04649 5.1622 7.38228 5.57642 7.38228H7.54278L6.38151 9.04123C6.22115 9.27032 6.20156 9.56961 6.33069 9.81766C6.45983 10.0657 6.71624 10.2213 6.99588 10.2213C7.19936 10.2213 7.39969 10.2715 7.57913 10.3675C7.75857 10.4634 7.91159 10.6021 8.02463 10.7713C8.13766 10.9405 8.20723 11.1349 8.22717 11.3374C8.24711 11.5399 8.2168 11.7442 8.13893 11.9322C8.06107 12.1202 7.93804 12.286 7.78075 12.4151C7.62347 12.5442 7.43677 12.6325 7.23721 12.6722C7.03765 12.7119 6.83137 12.7018 6.63666 12.6427C6.44194 12.5837 6.2648 12.4775 6.12091 12.3336C5.82801 12.0407 5.35313 12.0408 5.06025 12.3337C4.76738 12.6266 4.7674 13.1015 5.06031 13.3943C5.37862 13.7126 5.77052 13.9475 6.20128 14.0781C6.63205 14.2088 7.08838 14.2312 7.52988 14.1434C7.97137 14.0555 8.38439 13.8602 8.73235 13.5746C9.08031 13.2891 9.35248 12.9221 9.52475 12.5062C9.69701 12.0903 9.76406 11.6384 9.71995 11.1904C9.67584 10.7424 9.52193 10.3123 9.27186 9.93797C9.02179 9.56368 8.68328 9.25683 8.2863 9.04462C8.26778 9.03472 8.24916 9.02504 8.23045 9.01558L9.59769 7.06238C9.75807 6.83327 9.77765 6.53397 9.6485 6.28592C9.51935 6.03787 9.26293 5.88228 8.98327 5.88228H5.57642Z" fill="#1E2134"/>
</g>
<defs>
<clipPath id="clip0_9591_45560">
<rect width="20" height="20" fill="white"/>
</clipPath>
</defs>
</svg>
