<svg width="20" height="20" viewBox="0 0 20 20" fill="none" xmlns="http://www.w3.org/2000/svg">
<g clip-path="url(#clip0_15485_74934)">
<path fill-rule="evenodd" clip-rule="evenodd" d="M1.625 4.20455C1.625 3.51481 2.27326 3.125 2.84091 3.125H17.1591C17.7267 3.125 18.375 3.51481 18.375 4.20455V15.7955C18.375 16.4852 17.7267 16.875 17.1591 16.875H2.84091C2.27326 16.875 1.625 16.4852 1.625 15.7955V4.20455ZM10.4613 6.80363C10.5992 6.41303 10.3943 5.98463 10.0037 5.84677C9.61307 5.70891 9.18467 5.9138 9.04681 6.3044L7.39273 10.9909C7.31172 11.2205 7.34714 11.475 7.48772 11.6737C7.6283 11.8724 7.85657 11.9906 8.09998 11.9906H10.6581V13.446C10.6581 13.8602 10.9939 14.196 11.4081 14.196C11.8223 14.196 12.1581 13.8602 12.1581 13.446V11.2406V9.03512C12.1581 8.62091 11.8223 8.28512 11.4081 8.28512C10.9939 8.28512 10.6581 8.62091 10.6581 9.03512V10.4906H9.16002L10.4613 6.80363Z" fill="#1E2134"/>
</g>
<defs>
<clipPath id="clip0_15485_74934">
<rect width="20" height="20" fill="white"/>
</clipPath>
</defs>
</svg>
