<svg width="20" height="20" viewBox="0 0 20 20" fill="none" xmlns="http://www.w3.org/2000/svg">
<g clip-path="url(#clip0_9591_45549)">
<path fill-rule="evenodd" clip-rule="evenodd" d="M1.625 4.20455C1.625 3.51481 2.27326 3.125 2.84091 3.125H17.1591C17.7267 3.125 18.375 3.51481 18.375 4.20455V15.7955C18.375 16.4852 17.7267 16.875 17.1591 16.875H2.84091C2.27326 16.875 1.625 16.4852 1.625 15.7955V4.20455ZM11.0625 6.55402C11.0625 6.27742 10.9103 6.02327 10.6664 5.89276C10.4225 5.76225 10.1266 5.77655 9.89647 5.92998L8.02147 7.17998C7.67683 7.40974 7.5837 7.87539 7.81346 8.22004C8.04323 8.56469 8.50888 8.65782 8.85353 8.42805L9.5625 7.9554V13.446C9.5625 13.8602 9.89829 14.196 10.3125 14.196C10.7267 14.196 11.0625 13.8602 11.0625 13.446V6.55402Z" fill="#1E2134"/>
</g>
<defs>
<clipPath id="clip0_9591_45549">
<rect width="20" height="20" fill="white"/>
</clipPath>
</defs>
</svg>
