<svg width="20" height="20" viewBox="0 0 20 20" fill="none" xmlns="http://www.w3.org/2000/svg">
<g clip-path="url(#clip0_9591_45559)">
<path fill-rule="evenodd" clip-rule="evenodd" d="M2.84091 3.125C2.27326 3.125 1.625 3.51481 1.625 4.20455V15.7955C1.625 16.4852 2.27326 16.875 2.84091 16.875H17.1591C17.7267 16.875 18.375 16.4852 18.375 15.7955V4.20455C18.375 3.51481 17.7267 3.125 17.1591 3.125H2.84091ZM14.0272 5.90124C14.2711 6.03176 14.4233 6.2859 14.4233 6.5625V13.4545C14.4233 13.8687 14.0876 14.2045 13.6733 14.2045C13.2591 14.2045 12.9233 13.8687 12.9233 13.4545V7.96389L12.2144 8.43654C11.8697 8.6663 11.4041 8.57317 11.1743 8.22853C10.9445 7.88388 11.0377 7.41823 11.3823 7.18846L13.2573 5.93846C13.4875 5.78503 13.7834 5.77073 14.0272 5.90124ZM5.98779 5.89077C5.57358 5.89077 5.23779 6.22656 5.23779 6.64077C5.23779 7.05498 5.57358 7.39077 5.98779 7.39077H7.95415L6.79289 9.04972C6.63252 9.27881 6.61293 9.5781 6.74207 9.82615C6.8712 10.0742 7.12761 10.2298 7.40726 10.2298C7.61073 10.2298 7.81106 10.28 7.99051 10.3759C8.16995 10.4719 8.32297 10.6106 8.436 10.7798C8.54904 10.9489 8.61861 11.1434 8.63855 11.3459C8.65849 11.5484 8.62818 11.7527 8.55031 11.9407C8.47244 12.1286 8.34942 12.2945 8.19213 12.4236C8.03484 12.5527 7.84815 12.641 7.64859 12.6807C7.44902 12.7204 7.24275 12.7103 7.04804 12.6512C6.85332 12.5921 6.67618 12.486 6.53229 12.3421C6.23938 12.0492 5.76451 12.0493 5.47163 12.3422C5.17875 12.6351 5.17878 13.11 5.47168 13.4028C5.79 13.7211 6.1819 13.956 6.61266 14.0866C7.04342 14.2173 7.49976 14.2397 7.94125 14.1519C8.38274 14.064 8.79576 13.8687 9.14373 13.5831C9.49169 13.2976 9.76386 12.9306 9.93612 12.5147C10.1084 12.0988 10.1754 11.6469 10.1313 11.1989C10.0872 10.7509 9.93331 10.3207 9.68324 9.94646C9.43317 9.57217 9.09466 9.26533 8.69768 9.05311C8.67916 9.04321 8.66054 9.03353 8.64183 9.02407L10.0091 7.07087C10.1694 6.84176 10.189 6.54246 10.0599 6.29441C9.93073 6.04636 9.6743 5.89077 9.39465 5.89077H5.98779Z" fill="#1E2134"/>
</g>
<defs>
<clipPath id="clip0_9591_45559">
<rect width="20" height="20" fill="white"/>
</clipPath>
</defs>
</svg>
