<svg width="20" height="20" viewBox="0 0 20 20" fill="none" xmlns="http://www.w3.org/2000/svg">
<g clip-path="url(#clip0_9591_45551)">
<path fill-rule="evenodd" clip-rule="evenodd" d="M2.84091 3.125C2.27326 3.125 1.625 3.51481 1.625 4.20455V15.7955C1.625 16.4852 2.27326 16.875 2.84091 16.875H17.1591C17.7267 16.875 18.375 16.4852 18.375 15.7955V4.20455C18.375 3.51481 17.7267 3.125 17.1591 3.125H2.84091ZM8.49525 5.90124C8.73912 6.03176 8.89136 6.2859 8.89136 6.5625V13.4545C8.89136 13.8687 8.55557 14.2045 8.14136 14.2045C7.72714 14.2045 7.39136 13.8687 7.39136 13.4545V7.96389L6.68238 8.43654C6.33774 8.6663 5.87208 8.57317 5.64232 8.22853C5.41256 7.88388 5.50569 7.41823 5.85033 7.18846L7.72533 5.93846C7.95547 5.78503 8.25138 5.77073 8.49525 5.90124ZM13.6675 6.5625C13.6675 6.2859 13.5152 6.03176 13.2714 5.90124C13.0275 5.77073 12.7316 5.78503 12.5015 5.93846L10.6265 7.18846C10.2818 7.41823 10.1887 7.88388 10.4184 8.22853C10.6482 8.57317 11.1139 8.6663 11.4585 8.43654L12.1675 7.96389V13.4545C12.1675 13.8687 12.5033 14.2045 12.9175 14.2045C13.3317 14.2045 13.6675 13.8687 13.6675 13.4545V6.5625Z" fill="#1E2134"/>
</g>
<defs>
<clipPath id="clip0_9591_45551">
<rect width="20" height="20" fill="white"/>
</clipPath>
</defs>
</svg>
