<svg width="20" height="20" viewBox="0 0 20 20" fill="none" xmlns="http://www.w3.org/2000/svg">
    <g clip-path="url(#clip0_101_556)">
        <path d="M16.875 3.75H4.375C4.04348 3.75 3.72554 3.8817 3.49112 4.11612C3.2567 4.35054 3.125 4.66848 3.125 5V14.375C3.125 14.5408 3.05915 14.6997 2.94194 14.8169C2.82473 14.9342 2.66576 15 2.5 15C2.33424 15 2.17527 14.9342 2.05806 14.8169C1.94085 14.6997 1.875 14.5408 1.875 14.375V6.875C1.875 6.70924 1.80915 6.55027 1.69194 6.43306C1.57473 6.31585 1.41576 6.25 1.25 6.25C1.08424 6.25 0.925268 6.31585 0.808058 6.43306C0.690848 6.55027 0.625 6.70924 0.625 6.875V14.375C0.625 14.8723 0.822544 15.3492 1.17417 15.7008C1.52581 16.0525 2.00272 16.25 2.5 16.25H16.25C16.7466 16.2479 17.2224 16.0497 17.5736 15.6986C17.9247 15.3474 18.1229 14.8716 18.125 14.375V5C18.125 4.66848 17.9933 4.35054 17.7589 4.11612C17.5245 3.8817 17.2065 3.75 16.875 3.75ZM13.75 11.875H7.5C7.33424 11.875 7.17527 11.8092 7.05806 11.6919C6.94085 11.5747 6.875 11.4158 6.875 11.25C6.875 11.0842 6.94085 10.9253 7.05806 10.8081C7.17527 10.6908 7.33424 10.625 7.5 10.625H13.75C13.9158 10.625 14.0747 10.6908 14.1919 10.8081C14.3092 10.9253 14.375 11.0842 14.375 11.25C14.375 11.4158 14.3092 11.5747 14.1919 11.6919C14.0747 11.8092 13.9158 11.875 13.75 11.875ZM13.75 9.375H7.5C7.33424 9.375 7.17527 9.30915 7.05806 9.19194C6.94085 9.07473 6.875 8.91576 6.875 8.75C6.875 8.58424 6.94085 8.42527 7.05806 8.30806C7.17527 8.19085 7.33424 8.125 7.5 8.125H13.75C13.9158 8.125 14.0747 8.19085 14.1919 8.30806C14.3092 8.42527 14.375 8.58424 14.375 8.75C14.375 8.91576 14.3092 9.07473 14.1919 9.19194C14.0747 9.30915 13.9158 9.375 13.75 9.375Z"
              fill="#506176"/>
    </g>
    <defs>
        <clipPath id="clip0_101_556">
            <rect width="20" height="20" fill="white"/>
        </clipPath>
    </defs>
</svg>
