<svg width="20" height="20" viewBox="0 0 20 20" fill="none" xmlns="http://www.w3.org/2000/svg">
<path fill-rule="evenodd" clip-rule="evenodd" d="M5.22109 4.72937C5.15111 4.83409 5.084 4.94042 5.0198 5.04826C4.11962 5.59401 3.34549 6.33207 2.75579 7.21455C1.96121 8.40361 1.53711 9.80148 1.53711 11.2314C1.53711 12.6614 1.96121 14.0593 2.75579 15.2483C3.55037 16.4374 4.67976 17.3643 6.0012 17.9118C7.32264 18.4593 8.7768 18.6029 10.1799 18.3244C11.5829 18.0459 12.8719 17.3578 13.8838 16.3472C14.2971 15.9331 14.6551 15.4742 14.9531 14.9819C15.467 14.6764 15.9437 14.307 16.3712 13.8801C17.729 12.5195 18.4915 10.6761 18.4915 8.75422C18.4915 6.83235 17.729 4.98895 16.3712 3.62839C15.3572 2.6157 14.0657 1.92626 12.6599 1.6472C11.254 1.36815 9.79699 1.51203 8.47294 2.06063C7.14888 2.60924 6.01725 3.53795 5.22109 4.72937ZM15.4927 4.50659C14.6527 3.66783 13.5827 3.09675 12.418 2.86557C11.253 2.63432 10.0456 2.75355 8.9484 3.20816C8.39352 3.43807 7.87943 3.74853 7.42148 4.12695C8.3287 3.95475 9.26514 3.95691 10.1799 4.13848C11.5829 4.41698 12.8719 5.10506 13.8838 6.11574C15.239 7.47362 16 9.31338 16 11.2314C16 11.6884 15.9568 12.1408 15.8727 12.5834C16.7589 11.5102 17.2494 10.1574 17.2494 8.75422C17.2494 7.16177 16.6177 5.63425 15.4927 4.50659ZM9.52961 14.4104C9.95001 14.2961 10.3092 14.0676 10.5867 13.7329C11.3541 12.8023 11.0602 11.4349 9.9745 10.839C9.66581 10.6642 9.33679 10.5301 9.00905 10.3965C8.97711 10.3834 8.94518 10.3704 8.91328 10.3574C8.70512 10.2717 8.50512 10.1696 8.32961 10.0308C7.98267 9.75329 8.05205 9.30839 8.45614 9.1288C8.57042 9.07982 8.69287 9.06349 8.81532 9.05533C9.28471 9.03084 9.73369 9.11655 10.1582 9.32063C10.3704 9.42268 10.4439 9.39002 10.5133 9.16961C10.5661 9.01103 10.6114 8.85054 10.6569 8.68946C10.6781 8.61422 10.6994 8.53886 10.7214 8.46349C10.7704 8.30431 10.7133 8.19819 10.5623 8.13288C10.2929 8.01451 10.0112 7.92472 9.71736 7.87982C9.33369 7.81859 9.33369 7.81451 9.33369 7.43084C9.33165 7.15941 9.33063 7.02369 9.26226 6.95584C9.19389 6.88798 9.05818 6.88798 8.78675 6.88798C8.76105 6.88798 8.7349 6.88754 8.7086 6.88708C8.65554 6.88617 8.60186 6.88525 8.55001 6.88798C8.29287 6.89615 8.25206 6.94104 8.24389 7.19819V7.54513C8.23986 7.87985 8.23981 7.87987 7.92485 7.99399L7.91328 7.99819C7.12144 8.2839 6.63573 8.82268 6.58267 9.6839C6.53369 10.4472 6.93369 10.9615 7.55818 11.337C7.82195 11.4941 8.10695 11.6088 8.39195 11.7235C8.52149 11.7756 8.65104 11.8278 8.77859 11.8839C8.93777 11.9533 9.08879 12.0349 9.22348 12.1451C9.61532 12.4717 9.54185 13.0104 9.07654 13.2145C8.82757 13.3247 8.56226 13.3492 8.29287 13.3166C7.87246 13.2635 7.47246 13.1533 7.09695 12.9574C6.87654 12.8431 6.81124 12.8717 6.73777 13.1125C6.67246 13.3206 6.61532 13.5288 6.55818 13.7369C6.48063 14.0186 6.5092 14.0839 6.7745 14.2145C7.11736 14.3819 7.48063 14.4676 7.85206 14.5247C8.14185 14.5696 8.15001 14.5819 8.1541 14.8839C8.1541 14.9533 8.15512 15.0217 8.15614 15.09C8.15716 15.1584 8.15818 15.2268 8.15818 15.2961C8.15818 15.4717 8.24389 15.5696 8.4194 15.5737C8.6194 15.5778 8.82348 15.5778 9.02348 15.5737C9.18675 15.5696 9.27246 15.4798 9.27246 15.3125C9.27246 15.2499 9.27337 15.1873 9.27428 15.1247C9.27609 14.9995 9.27791 14.8744 9.27246 14.7492C9.2643 14.5574 9.34593 14.4594 9.52961 14.4104Z" fill="#1E2134"/>
</svg>
