<svg width="24" height="24" viewBox="0 0 24 24" fill="none" xmlns="http://www.w3.org/2000/svg">
<path fill-rule="evenodd" clip-rule="evenodd" d="M7.40663 4.83932C7.92562 2.78467 9.77374 1.25 11.9998 1.25C14.6165 1.25 16.7392 3.36622 16.7498 5.98044C16.7499 5.98694 16.75 5.99346 16.75 6V9.25H18C19.5192 9.25 20.75 10.4808 20.75 12V19C20.75 20.5192 19.5192 21.75 18 21.75H6C4.48079 21.75 3.25 20.5192 3.25 19V12C3.25 10.4808 4.48079 9.25 6 9.25H15.25V6.01796C15.2499 6.01199 15.2498 6.006 15.2498 6C15.2498 4.20521 13.7946 2.75 11.9998 2.75C10.4858 2.75 9.21795 3.79333 8.86095 5.20668C8.75951 5.60828 8.35171 5.8516 7.95011 5.75016C7.54851 5.64872 7.30519 5.24092 7.40663 4.83932ZM16 10.75H6C5.30921 10.75 4.75 11.3092 4.75 12V19C4.75 19.6908 5.30921 20.25 6 20.25H18C18.6908 20.25 19.25 19.6908 19.25 19V12C19.25 11.3092 18.6908 10.75 18 10.75H16Z" fill="#1E2134"/>
</svg>
