<svg width="20" height="20" viewBox="0 0 20 20" fill="none" xmlns="http://www.w3.org/2000/svg">
<g clip-path="url(#clip0_6641_68413)">
<path fill-rule="evenodd" clip-rule="evenodd" d="M10 2.375C10.1017 2.375 10.1987 2.39524 10.2871 2.43191C10.3755 2.46851 10.4584 2.52276 10.5303 2.59467L13.8116 5.87592C14.1045 6.16881 14.1045 6.64369 13.8116 6.93658C13.5187 7.22947 13.0438 7.22947 12.7509 6.93658L10.75 4.93566V11.875C10.75 12.2892 10.4142 12.625 10 12.625C9.58579 12.625 9.25 12.2892 9.25 11.875V4.93566L7.24908 6.93658C6.95619 7.22947 6.48131 7.22947 6.18842 6.93658C5.89553 6.64369 5.89553 6.16881 6.18842 5.87592L9.46967 2.59467C9.54158 2.52276 9.62445 2.46851 9.71291 2.43191C9.80134 2.39524 9.89831 2.375 10 2.375ZM3.875 11.875C3.875 11.4608 3.53921 11.125 3.125 11.125C2.71079 11.125 2.375 11.4608 2.375 11.875V16.25C2.375 16.6147 2.51987 16.9644 2.77773 17.2223C3.03559 17.4801 3.38533 17.625 3.75 17.625H16.25C16.6147 17.625 16.9644 17.4801 17.2223 17.2223C17.4801 16.9644 17.625 16.6147 17.625 16.25V11.875C17.625 11.4608 17.2892 11.125 16.875 11.125C16.4608 11.125 16.125 11.4608 16.125 11.875V16.125H3.875V11.875Z" fill="#506176"/>
</g>
<defs>
<clipPath id="clip0_6641_68413">
<rect width="20" height="20" fill="white"/>
</clipPath>
</defs>
</svg>
