<svg width="17" height="16" viewBox="0 0 17 16" fill="none" xmlns="http://www.w3.org/2000/svg">
<g clip-path="url(#clip0_13047_236945)">
<path d="M15.2964 11.748L9.79833 2.24805C9.66643 2.02053 9.47706 1.83168 9.2492 1.70039C9.02133 1.5691 8.76297 1.5 8.49999 1.5C8.23701 1.5 7.97864 1.5691 7.75078 1.70039C7.52291 1.83168 7.33355 2.02053 7.20165 2.24805L1.7036 11.748C1.5716 11.976 1.50196 12.2347 1.50171 12.4982C1.50145 12.7616 1.57059 13.0205 1.70215 13.2487C1.83371 13.4769 2.02306 13.6665 2.25115 13.7983C2.47924 13.9301 2.73802 13.9995 3.00145 13.9995H13.9985C14.262 13.9995 14.5207 13.9301 14.7488 13.7983C14.9769 13.6665 15.1663 13.4769 15.2978 13.2487C15.4294 13.0205 15.4985 12.7616 15.4983 12.4982C15.498 12.2347 15.4284 11.976 15.2964 11.748ZM7.9995 6.5C7.9995 6.36739 8.05218 6.24021 8.14595 6.14644C8.23972 6.05268 8.36689 6 8.4995 6C8.63211 6 8.75929 6.05268 8.85305 6.14644C8.94682 6.24021 8.9995 6.36739 8.9995 6.5V9C8.9995 9.13261 8.94682 9.25978 8.85305 9.35355C8.75929 9.44732 8.63211 9.5 8.4995 9.5C8.36689 9.5 8.23972 9.44732 8.14595 9.35355C8.05218 9.25978 7.9995 9.13261 7.9995 9V6.5ZM8.49987 12.0002C8.35153 12.0002 8.20653 11.9562 8.08319 11.8738C7.95985 11.7914 7.86372 11.6742 7.80696 11.5372C7.75019 11.4001 7.73534 11.2493 7.76428 11.1039C7.79322 10.9584 7.86465 10.8247 7.96954 10.7198C8.07443 10.615 8.20806 10.5435 8.35355 10.5146C8.49903 10.4857 8.64983 10.5005 8.78688 10.5573C8.92392 10.614 9.04106 10.7102 9.12347 10.8335C9.20588 10.9568 9.24987 11.1018 9.24987 11.2502C9.24986 11.4491 9.17084 11.6398 9.03019 11.7805C8.88954 11.9211 8.69878 12.0002 8.49987 12.0002Z" fill="#FF9800"/>
<path d="M7.99939 6.5C7.99939 6.36739 8.05207 6.24022 8.14584 6.14645C8.23961 6.05268 8.36678 6 8.49939 6C8.632 6 8.75918 6.05268 8.85294 6.14645C8.94671 6.24022 8.99939 6.36739 8.99939 6.5V9C8.99939 9.13261 8.94671 9.25979 8.85294 9.35355C8.75918 9.44732 8.632 9.5 8.49939 9.5C8.36678 9.5 8.23961 9.44732 8.14584 9.35355C8.05207 9.25979 7.99939 9.13261 7.99939 9V6.5ZM8.49976 12.0002C8.35142 12.0002 8.20642 11.9562 8.08308 11.8738C7.95974 11.7914 7.86361 11.6742 7.80685 11.5372C7.75008 11.4001 7.73523 11.2493 7.76417 11.1039C7.79311 10.9584 7.86454 10.8247 7.96943 10.7199C8.07432 10.615 8.20795 10.5435 8.35344 10.5146C8.49892 10.4857 8.64972 10.5005 8.78677 10.5573C8.92381 10.614 9.04095 10.7102 9.12336 10.8335C9.20577 10.9568 9.24976 11.1018 9.24976 11.2502C9.24975 11.4491 9.17073 11.6398 9.03008 11.7805C8.88943 11.9212 8.69867 12.0002 8.49976 12.0002Z" fill="white"/>
</g>
<defs>
<clipPath id="clip0_13047_236945">
<rect width="16" height="16" fill="white" transform="translate(0.5)"/>
</clipPath>
</defs>
</svg>
