<svg width="20" height="20" viewBox="0 0 20 20" fill="none" xmlns="http://www.w3.org/2000/svg">
<path d="M18.2032 5.99215C18.006 5.27843 17.4286 4.71568 16.6963 4.52353C15.3584 4.16666 10.0068 4.16666 10.0068 4.16666C10.0068 4.16666 4.65514 4.16666 3.31724 4.5098C2.59899 4.70196 2.0075 5.27843 1.81033 5.99215C1.45825 7.29608 1.45825 10 1.45825 10C1.45825 10 1.45825 12.7176 1.81033 14.0078C2.0075 14.7216 2.58491 15.2843 3.31724 15.4765C4.66923 15.8333 10.0068 15.8333 10.0068 15.8333C10.0068 15.8333 15.3584 15.8333 16.6963 15.4902C17.4286 15.298 18.006 14.7353 18.2032 14.0216C18.5553 12.7176 18.5553 10.0137 18.5553 10.0137C18.5553 10.0137 18.5694 7.29608 18.2032 5.99215Z" fill="#FF0000"/>
<path d="M8.30273 12.4982L12.753 10.0001L8.30273 7.50208V12.4982Z" fill="white"/>
</svg>
