<svg width="16" height="16" viewBox="0 0 16 16" fill="none" xmlns="http://www.w3.org/2000/svg">
<g clip-path="url(#clip0)">
<path d="M13.9999 10V12H15.9999V13.3333H13.9999V15.3333H12.6666V13.3333H10.6666V12H12.6666V10H13.9999ZM14.0053 2C14.3706 2 14.6666 2.29667 14.6666 2.662V8.89467C14.2383 8.7434 13.7874 8.66629 13.3333 8.66667V3.33333H2.66659L2.66725 12.6667L8.86192 6.47133C8.97656 6.35632 9.12926 6.28715 9.29132 6.27684C9.45338 6.26653 9.61363 6.31578 9.74192 6.41533L9.80392 6.472L12.1679 8.83867C11.651 8.99618 11.1714 9.25674 10.7579 9.60464C10.3444 9.95254 10.0057 10.3806 9.76208 10.8629C9.51851 11.3453 9.37514 11.872 9.34062 12.4113C9.3061 12.9505 9.38116 13.4912 9.56125 14.0007L1.99459 14C1.81913 13.9998 1.65092 13.93 1.52691 13.8059C1.40291 13.6817 1.33325 13.5135 1.33325 13.338V2.662C1.33447 2.48692 1.40452 2.31934 1.52826 2.19548C1.652 2.07161 1.81951 2.0014 1.99459 2H14.0053ZM5.33325 4.66667C5.68687 4.66667 6.02601 4.80714 6.27606 5.05719C6.52611 5.30724 6.66658 5.64638 6.66658 6C6.66658 6.35362 6.52611 6.69276 6.27606 6.94281C6.02601 7.19286 5.68687 7.33333 5.33325 7.33333C4.97963 7.33333 4.64049 7.19286 4.39044 6.94281C4.14039 6.69276 3.99992 6.35362 3.99992 6C3.99992 5.64638 4.14039 5.30724 4.39044 5.05719C4.64049 4.80714 4.97963 4.66667 5.33325 4.66667V4.66667Z" fill="#696D73"/>
</g>
<defs>
<clipPath id="clip0">
<rect width="16" height="16" fill="white"/>
</clipPath>
</defs>
</svg>
