<svg width="14" height="14" viewBox="0 0 14 14" fill="none" xmlns="http://www.w3.org/2000/svg">
<path d="M11.3772 4.06134C11.3772 4.15877 11.3387 4.25221 11.2703 4.3211C11.2019 4.38999 11.1091 4.42869 11.0124 4.42869H10.6476V11.0409C10.6476 11.2358 10.5707 11.4227 10.4339 11.5604C10.2971 11.6982 10.1115 11.7756 9.91799 11.7756H4.08125C3.88775 11.7756 3.70218 11.6982 3.56535 11.5604C3.42853 11.4227 3.35166 11.2358 3.35166 11.0409V4.42869H2.98687C2.89012 4.42869 2.79733 4.38999 2.72892 4.3211C2.6605 4.25221 2.62207 4.15877 2.62207 4.06134C2.62207 3.96392 2.6605 3.87048 2.72892 3.80159C2.79733 3.7327 2.89012 3.694 2.98687 3.694H11.0124C11.1091 3.694 11.2019 3.7327 11.2703 3.80159C11.3387 3.87048 11.3772 3.96392 11.3772 4.06134ZM5.17564 2.9593H8.8236C8.92035 2.9593 9.01314 2.9206 9.08155 2.85171C9.14996 2.78282 9.1884 2.68938 9.1884 2.59196C9.1884 2.49453 9.14996 2.40109 9.08155 2.3322C9.01314 2.26331 8.92035 2.22461 8.8236 2.22461H5.17564C5.07889 2.22461 4.9861 2.26331 4.91769 2.3322C4.84928 2.40109 4.81085 2.49453 4.81085 2.59196C4.81085 2.68938 4.84928 2.78282 4.91769 2.85171C4.9861 2.9206 5.07889 2.9593 5.17564 2.9593V2.9593Z" fill="#506176"/>
</svg>
