<svg width="28" height="28" viewBox="0 0 28 28" fill="none" xmlns="http://www.w3.org/2000/svg">
<path fill-rule="evenodd" clip-rule="evenodd" d="M8.5835 9.66699C8.5835 9.25278 8.91928 8.91699 9.3335 8.91699L18.6668 8.91699C19.081 8.91699 19.4168 9.25278 19.4168 9.66699C19.4168 10.0812 19.081 10.417 18.6668 10.417L9.3335 10.417C8.91928 10.417 8.5835 10.0812 8.5835 9.66699ZM8.5835 14.0011C8.5835 13.5869 8.91928 13.2511 9.3335 13.2511H18.6668C19.081 13.2511 19.4168 13.5869 19.4168 14.0011C19.4168 14.4154 19.081 14.7511 18.6668 14.7511H9.3335C8.91928 14.7511 8.5835 14.4154 8.5835 14.0011ZM9.3335 17.5837C8.91928 17.5837 8.5835 17.9194 8.5835 18.3337C8.5835 18.7479 8.91928 19.0837 9.3335 19.0837H18.6668C19.081 19.0837 19.4168 18.7479 19.4168 18.3337C19.4168 17.9194 19.081 17.5837 18.6668 17.5837H9.3335Z" fill="#1E2134"/>
<rect x="0.5" y="0.5" width="27" height="27" rx="3.5" stroke="#E0E4EB"/>
</svg>
