<svg width="72" height="72" viewBox="0 0 72 72" fill="none" xmlns="http://www.w3.org/2000/svg">
<g clip-path="url(#clip0_9528_15080)">
<path d="M18.9899 51.8905C18.9975 51.8149 19.0611 51.7573 19.1371 51.7573H22.1193C22.1946 51.7573 22.2578 51.8139 22.2662 51.8887L22.5573 54.4755C22.566 54.5528 22.5131 54.6238 22.4364 54.6372C20.9752 54.892 20.1507 54.8767 18.8507 54.6378C18.7754 54.624 18.7235 54.5545 18.7311 54.4783L18.9899 51.8905Z" fill="#733E00"/>
<path fill-rule="evenodd" clip-rule="evenodd" d="M22.3704 54.6486C22.3922 54.6448 22.4143 54.641 22.4364 54.6372C22.5131 54.6238 22.566 54.5528 22.5573 54.4755L22.2663 51.8887C22.2579 51.8139 22.1946 51.7573 22.1193 51.7573H21.4623C21.3641 51.762 21.2973 51.8604 21.3353 51.9526C21.4327 52.1887 21.55 52.4191 21.6708 52.6562L21.6708 52.6562L21.6708 52.6562C21.9587 53.2214 22.2658 53.8244 22.3675 54.6326C22.3682 54.638 22.3691 54.6434 22.3704 54.6486Z" fill="#5A3100"/>
<path d="M20.4443 46.001C20.4996 45.8974 20.6473 45.8977 20.7017 46.0017C21.9339 48.3578 22.4676 50.3878 24.6935 51.7482C24.8054 51.8166 24.7874 51.9879 24.6607 52.022C22.0011 52.7374 18.5344 52.6964 16.4173 52.0179C16.303 51.9813 16.2841 51.8308 16.3812 51.7602C18.628 50.127 19.1963 48.3432 20.4443 46.001Z" fill="#328500"/>
<path fill-rule="evenodd" clip-rule="evenodd" d="M21.3547 52.5185C21.2939 52.5216 21.2377 52.4872 21.2137 52.4313C20.5089 50.7876 20.1914 48.4212 20.0837 46.7405C20.082 46.7142 20.0874 46.6883 20.0994 46.6647C20.2095 46.4484 20.3238 46.2272 20.4444 46.0008C20.4996 45.8972 20.6474 45.8976 20.7018 46.0016C20.9643 46.5036 21.1951 46.9907 21.4173 47.4597C22.2382 49.1923 22.9419 50.6776 24.6938 51.7482C24.8058 51.8166 24.7871 51.9879 24.6604 52.022C23.637 52.2972 22.4942 52.4605 21.3547 52.5185Z" fill="#286800"/>
<path d="M20.4426 43.8794C20.4965 43.771 20.6504 43.7713 20.7036 43.8801C21.85 46.2292 22.3523 48.2526 24.4323 49.6091C24.5394 49.6789 24.5212 49.8442 24.3983 49.8796C21.9096 50.5955 18.6649 50.5544 16.6842 49.8754C16.5741 49.8376 16.5553 49.693 16.6472 49.6216C18.7467 47.9922 19.2813 46.2132 20.4426 43.8794Z" fill="#328500"/>
<path fill-rule="evenodd" clip-rule="evenodd" d="M21.3138 50.3763C21.2515 50.3797 21.1941 50.3437 21.1709 50.2859C20.5123 48.6416 20.2157 46.2763 20.1151 44.5967C20.1136 44.5719 20.1185 44.5475 20.1292 44.525C20.2294 44.3145 20.3333 44.0994 20.4427 43.8794C20.4967 43.771 20.6504 43.7714 20.7035 43.8802C20.945 44.375 21.1579 44.8553 21.363 45.318C22.1316 47.0522 22.7904 48.5386 24.4326 49.6094C24.5397 49.6793 24.521 49.8446 24.3981 49.8799C23.4432 50.1546 22.3771 50.3178 21.3138 50.3763Z" fill="#286800"/>
<path d="M20.4375 42.5574C20.4911 42.4426 20.6559 42.4429 20.7091 42.558C21.6099 44.5077 22.3006 45.6401 23.6351 47.3799C23.7033 47.4687 23.6529 47.5982 23.5422 47.6147C21.6235 47.9011 19.1269 47.9033 17.588 47.6213C17.4816 47.6018 17.436 47.4775 17.501 47.3911C18.8302 45.6231 19.5326 44.4944 20.4375 42.5574Z" fill="#328500"/>
<path fill-rule="evenodd" clip-rule="evenodd" d="M21.314 47.8007C21.2555 47.8029 21.2014 47.7705 21.1768 47.7175C20.6907 46.6701 20.1926 44.8157 20.0242 43.4956C20.0205 43.4667 20.0257 43.4377 20.0388 43.4116C20.1732 43.1429 20.3094 42.8601 20.4506 42.5574C20.5042 42.4424 20.6689 42.4434 20.722 42.5586C21.6189 44.5027 22.3067 45.6322 23.6354 47.3673C23.7034 47.4561 23.6527 47.5855 23.5421 47.602C22.8506 47.7054 22.0837 47.7716 21.314 47.8007Z" fill="#286800"/>
<path d="M20.3993 41.4488C20.4511 41.3277 20.6242 41.328 20.6756 41.4493C21.3017 42.9293 21.7966 43.8182 22.7256 45.154C22.7872 45.2426 22.7374 45.3656 22.6309 45.3825C21.2717 45.5988 19.5296 45.6009 18.4287 45.3888C18.3266 45.3691 18.2815 45.2512 18.3401 45.1653C19.2666 43.8067 19.7697 42.92 20.3993 41.4488Z" fill="#328500"/>
<path fill-rule="evenodd" clip-rule="evenodd" d="M21.0956 45.5065C21.0353 45.5091 20.9795 45.4746 20.9561 45.4189C20.6074 44.589 20.2525 43.1452 20.1309 42.1123C20.1277 42.0855 20.1322 42.0587 20.1434 42.0342C20.2273 41.8513 20.3122 41.6602 20.3995 41.4578C20.4516 41.3373 20.6239 41.3377 20.6754 41.4585C21.3013 42.9254 21.796 43.8067 22.724 45.13C22.7861 45.2187 22.7361 45.3423 22.6292 45.3591C22.1505 45.4346 21.6244 45.4837 21.0956 45.5065Z" fill="#286800"/>
<path d="M43.2447 56.5443C43.2523 56.4687 43.3159 56.4111 43.3919 56.4111H45.6944C45.7697 56.4111 45.8329 56.4677 45.8414 56.5425L46.0651 58.5317C46.0739 58.6091 46.0209 58.6801 45.9442 58.6933C44.8171 58.8879 44.1689 58.8765 43.1656 58.694C43.0902 58.6803 43.0381 58.6108 43.0457 58.5345L43.2447 56.5443Z" fill="#733E00"/>
<path fill-rule="evenodd" clip-rule="evenodd" d="M45.6945 56.4111H45.2522C45.15 56.4111 45.0791 56.5121 45.1191 56.6061C45.1926 56.7787 45.2789 56.9481 45.3675 57.1221L45.3675 57.1221C45.5912 57.5612 45.8296 58.0293 45.9141 58.6517C45.9162 58.6675 45.9207 58.6825 45.927 58.6963C45.9327 58.6953 45.9385 58.6943 45.9442 58.6933C46.021 58.6801 46.0739 58.6091 46.0652 58.5317L45.8414 56.5425C45.833 56.4677 45.7698 56.4111 45.6945 56.4111Z" fill="#5A3100"/>
<path d="M44.3707 51.9102C44.4257 51.8064 44.5736 51.8067 44.6277 51.9109C45.5718 53.73 46.0031 55.2996 47.6948 56.365C47.8059 56.4349 47.7873 56.6063 47.6603 56.6394C45.5908 57.1792 42.9299 57.1485 41.2703 56.6352C41.1556 56.5998 41.1369 56.4491 41.2335 56.3778C42.9537 55.1079 43.4114 53.7204 44.3707 51.9102Z" fill="#328500"/>
<path fill-rule="evenodd" clip-rule="evenodd" d="M45.1386 57.0119C45.0779 57.0151 45.0215 56.9806 44.9977 56.9245C44.4474 55.6284 44.1983 53.7743 44.113 52.4524C44.1113 52.4261 44.1167 52.4002 44.1287 52.3766C44.2064 52.2241 44.2867 52.0685 44.3709 51.9096C44.4259 51.8058 44.5735 51.8062 44.6276 51.9104C44.8243 52.2895 44.9988 52.6577 45.167 53.0128C45.8062 54.362 46.3556 55.5215 47.6952 56.365C47.8062 56.4349 47.787 56.6062 47.66 56.6393C46.8756 56.8439 46.0062 56.9665 45.1386 57.0119Z" fill="#286800"/>
<path d="M44.369 50.2367C44.4227 50.1281 44.5766 50.1284 44.6294 50.2374C45.5065 52.0496 45.9128 53.6128 47.4933 54.6742C47.5995 54.7455 47.5808 54.9109 47.4576 54.9453C45.5209 55.4855 43.0302 55.4548 41.4774 54.9409C41.3669 54.9044 41.3482 54.7596 41.4397 54.6875C43.0466 53.4214 43.4776 52.0386 44.369 50.2367Z" fill="#328500"/>
<path fill-rule="evenodd" clip-rule="evenodd" d="M45.1067 55.3179C45.0444 55.3215 44.9869 55.2853 44.9639 55.2274C44.4499 53.9306 44.2173 52.0775 44.1377 50.7568C44.1362 50.732 44.1411 50.7075 44.1518 50.6851C44.2216 50.5384 44.2937 50.3889 44.3692 50.2364C44.4229 50.1279 44.5764 50.1283 44.6292 50.2373C44.8092 50.6092 44.9694 50.9706 45.124 51.3193C45.7227 52.6702 46.2372 53.8309 47.4937 54.6747C47.5998 54.7459 47.5805 54.9112 47.4573 54.9455C46.726 55.1495 45.9157 55.2721 45.1067 55.3179Z" fill="#286800"/>
<path d="M44.3635 49.1975C44.4174 49.0828 44.582 49.0831 44.6353 49.1981C45.3268 50.6872 45.8683 51.5741 46.889 52.9083C46.957 52.9972 46.9068 53.1269 46.7961 53.1429C45.3058 53.359 43.3935 53.3611 42.187 53.1492C42.0805 53.1306 42.0347 53.0059 42.0996 52.9194C43.1177 51.5624 43.6683 50.6778 44.3635 49.1975Z" fill="#328500"/>
<path fill-rule="evenodd" clip-rule="evenodd" d="M45.1056 53.2819C45.0472 53.2842 44.9929 53.2517 44.9685 53.1986C44.588 52.3697 44.2001 50.9233 44.0667 49.8877C44.063 49.8587 44.0682 49.8297 44.0812 49.8036C44.177 49.612 44.2739 49.4113 44.3739 49.1981C44.4277 49.0833 44.5923 49.0838 44.6457 49.1989C45.334 50.6835 45.8733 51.5682 46.8893 52.8986C46.9572 52.9875 46.9067 53.1171 46.7961 53.1332C46.2688 53.2097 45.6885 53.2593 45.1056 53.2819Z" fill="#286800"/>
<path d="M44.3325 48.3287C44.3846 48.2078 44.5581 48.2081 44.6098 48.3293C45.0851 49.4441 45.4715 50.1365 46.1739 51.1501C46.2354 51.2388 46.1853 51.3616 46.0787 51.378C45.0293 51.5387 43.7072 51.5406 42.8479 51.3837C42.7457 51.3651 42.7007 51.2472 42.7592 51.1613C43.4612 50.1292 43.854 49.4379 44.3325 48.3287Z" fill="#328500"/>
<path fill-rule="evenodd" clip-rule="evenodd" d="M44.9334 51.4677C44.873 51.4704 44.8173 51.436 44.7942 51.3802C44.5221 50.7234 44.2468 49.6016 44.1507 48.7934C44.1475 48.7666 44.1519 48.7397 44.1632 48.7152C44.2189 48.5936 44.2752 48.4673 44.3328 48.335C44.3851 48.2147 44.5577 48.2153 44.6095 48.3359C45.0846 49.4408 45.4708 50.1272 46.1724 51.1311C46.2344 51.2198 46.1842 51.3433 46.0772 51.3595C45.718 51.414 45.3269 51.4501 44.9334 51.4677Z" fill="#286800"/>
<path d="M31.145 59.015C31.1503 58.9618 31.195 58.9214 31.2484 58.9214H32.8697C32.9226 58.9214 32.967 58.9611 32.9729 59.0137L33.1305 60.4144C33.1366 60.4688 33.0994 60.5187 33.0455 60.528C32.2519 60.665 31.7955 60.6569 31.089 60.5285C31.0361 60.5188 30.9995 60.47 31.0048 60.4164L31.145 59.015Z" fill="#733E00"/>
<path fill-rule="evenodd" clip-rule="evenodd" d="M32.8697 58.9219H32.5579C32.4861 58.9219 32.4363 58.9928 32.4644 59.0589C32.5162 59.1805 32.5769 59.2998 32.6393 59.4224C32.7968 59.7316 32.9647 60.0611 33.0242 60.4994C33.0257 60.5105 33.0288 60.5209 33.0332 60.5306C33.0373 60.5299 33.0414 60.5292 33.0456 60.5285C33.0995 60.5192 33.1367 60.4693 33.1306 60.4149L32.973 59.0142C32.9671 58.9616 32.9226 58.9219 32.8697 58.9219Z" fill="#5A3100"/>
<path d="M31.9377 55.7527C31.9763 55.6798 32.0803 55.6799 32.1183 55.7532C32.783 57.0341 33.0866 58.1393 34.278 58.8894C34.3561 58.9385 34.343 59.0589 34.2538 59.0822C32.7967 59.4623 30.9229 59.4407 29.7545 59.0792C29.6739 59.0543 29.6608 58.9484 29.7286 58.8983C30.94 58.0042 31.2622 57.0273 31.9377 55.7527Z" fill="#328500"/>
<path fill-rule="evenodd" clip-rule="evenodd" d="M32.478 59.3445C32.4353 59.3468 32.3957 59.3225 32.379 59.2832C31.9915 58.3707 31.8161 57.0655 31.7561 56.1348C31.7549 56.1163 31.7587 56.098 31.7671 56.0815C31.8219 55.974 31.8785 55.8643 31.9379 55.7523C31.9765 55.6794 32.0802 55.6796 32.1182 55.7528C32.2568 56.0198 32.3797 56.2791 32.4981 56.5292C32.9482 57.4792 33.335 58.2956 34.2784 58.8894C34.3564 58.9385 34.3429 59.0588 34.2536 59.0821C33.7013 59.2262 33.089 59.3125 32.478 59.3445Z" fill="#286800"/>
<path d="M31.9364 54.5741C31.9741 54.4978 32.0823 54.498 32.1194 54.5746C32.7371 55.8507 33.023 56.9513 34.1361 57.6987C34.2107 57.7487 34.1976 57.8649 34.111 57.8891C32.7474 58.2696 30.9935 58.2479 29.9003 57.886C29.8226 57.8603 29.8095 57.7586 29.8738 57.708C31.0054 56.8165 31.3087 55.8429 31.9364 54.5741Z" fill="#328500"/>
<path fill-rule="evenodd" clip-rule="evenodd" d="M32.4554 58.1518C32.4116 58.1543 32.3712 58.1289 32.3551 58.0881C31.9931 57.1753 31.8294 55.8707 31.7734 54.9409C31.7723 54.9234 31.7757 54.9063 31.7833 54.8905C31.8325 54.7871 31.8834 54.6817 31.9366 54.5741C31.9743 54.4979 32.0822 54.4981 32.1193 54.5747C32.2461 54.8366 32.3589 55.0912 32.4678 55.3368C32.8893 56.2879 33.2515 57.1052 34.1364 57.6992C34.2109 57.7492 34.1974 57.8653 34.1108 57.8895C33.5958 58.0332 33.0251 58.1195 32.4554 58.1518Z" fill="#286800"/>
<path d="M31.9327 53.8424C31.9705 53.7618 32.0861 53.7621 32.1236 53.8429C32.6106 54.8915 32.9918 55.5159 33.7106 56.4555C33.7583 56.5179 33.7231 56.609 33.6453 56.6203C32.596 56.7725 31.2493 56.7739 30.3999 56.6248C30.3251 56.6116 30.2929 56.524 30.3385 56.4633C31.0554 55.5076 31.4431 54.8849 31.9327 53.8424Z" fill="#328500"/>
<path fill-rule="evenodd" clip-rule="evenodd" d="M32.4547 56.7184C32.4136 56.72 32.3755 56.6971 32.3584 56.6598C32.0905 56.0762 31.8173 55.0578 31.7235 54.3287C31.7209 54.3084 31.7245 54.288 31.7337 54.2696C31.8012 54.1346 31.8695 53.9932 31.9399 53.843C31.9777 53.7623 32.0933 53.7627 32.1308 53.8436C32.6155 54.8891 32.9952 55.5119 33.7107 56.4488C33.7584 56.5112 33.7229 56.6023 33.6452 56.6136C33.2739 56.6675 32.8652 56.7024 32.4547 56.7184Z" fill="#286800"/>
<path d="M31.9108 53.231C31.9474 53.146 32.0693 53.1462 32.1056 53.2314C32.4403 54.0165 32.7124 54.504 33.2071 55.2179C33.2503 55.2802 33.2151 55.3665 33.1402 55.378C32.4013 55.4912 31.4702 55.4926 30.8652 55.382C30.7934 55.3689 30.7618 55.2861 30.8028 55.2258C31.2973 54.4989 31.5738 54.0122 31.9108 53.231Z" fill="#328500"/>
<path fill-rule="evenodd" clip-rule="evenodd" d="M32.3335 55.4413C32.2911 55.4432 32.252 55.4191 32.2357 55.3798C32.0441 54.9175 31.8503 54.1276 31.7826 53.5585C31.7803 53.5396 31.7835 53.5207 31.7914 53.5035C31.8307 53.4178 31.8703 53.3288 31.9109 53.2355C31.9477 53.151 32.0689 53.1514 32.1054 53.2362C32.4399 54.0143 32.7118 54.4976 33.2059 55.2046C33.2495 55.267 33.2142 55.3537 33.1391 55.3651C32.8861 55.4035 32.6107 55.4289 32.3335 55.4413Z" fill="#286800"/>
<path d="M50.3643 45C50.9198 46.3461 51.3103 47.0539 52.1423 48.2364C51.0127 48.4435 49.4567 48.4435 48.5864 48.2364C49.4104 47.0388 49.8081 46.3344 50.3643 45Z" fill="#328500"/>
<path fill-rule="evenodd" clip-rule="evenodd" d="M51.7322 48.501C50.8774 48.6077 49.8855 48.6132 49.1369 48.5174C48.814 49.0193 48.448 49.5289 47.9846 50.1408C49.1896 50.4013 51.344 50.4013 52.9081 50.1408C52.4312 49.5249 52.0591 49.0114 51.7322 48.501Z" fill="#328500"/>
<path fill-rule="evenodd" clip-rule="evenodd" d="M48.7567 50.423C49.6918 50.5188 50.8683 50.5164 51.9303 50.416C52.3255 51.025 52.8235 51.5566 53.5646 51.9892C51.5498 52.6395 48.773 52.6005 47.2188 51.9892C47.8975 51.4907 48.3739 50.9753 48.7567 50.423Z" fill="#328500"/>
<path fill-rule="evenodd" clip-rule="evenodd" d="M48.5095 52.5039C49.6111 52.6848 50.9349 52.6878 52.1609 52.4941C52.5632 53.0313 53.0671 53.5034 53.7835 53.8946C51.6298 54.5449 48.6614 54.506 47 53.8946C47.6482 53.4493 48.1237 52.9905 48.5095 52.5039Z" fill="#328500"/>
<path fill-rule="evenodd" clip-rule="evenodd" d="M49.1621 54.4919L48.9692 55.8841C50.0566 56.0336 50.6989 56.044 51.9233 55.8841L51.7019 54.4634C50.8477 54.5508 49.9711 54.5587 49.1621 54.4919Z" fill="#733E00"/>
<path d="M26.3643 48C26.9198 49.3461 27.3103 50.0539 28.1423 51.2364C27.0127 51.4435 25.4567 51.4435 24.5864 51.2364C25.4104 50.0388 25.8081 49.3344 26.3643 48Z" fill="#328500"/>
<path fill-rule="evenodd" clip-rule="evenodd" d="M27.7322 51.501C26.8774 51.6077 25.8855 51.6132 25.1369 51.5174C24.814 52.0193 24.448 52.5289 23.9846 53.1408C25.1896 53.4013 27.344 53.4013 28.9081 53.1408C28.4312 52.5249 28.0591 52.0114 27.7322 51.501Z" fill="#328500"/>
<path fill-rule="evenodd" clip-rule="evenodd" d="M24.7567 53.423C25.6918 53.5188 26.8683 53.5164 27.9303 53.416C28.3255 54.025 28.8235 54.5566 29.5646 54.9892C27.5498 55.6395 24.773 55.6005 23.2188 54.9892C23.8975 54.4907 24.3739 53.9753 24.7567 53.423Z" fill="#328500"/>
<path fill-rule="evenodd" clip-rule="evenodd" d="M24.5095 55.5039C25.6111 55.6848 26.9349 55.6878 28.1609 55.4941C28.5632 56.0313 29.0671 56.5034 29.7835 56.8946C27.6298 57.5449 24.6614 57.506 23 56.8946C23.6482 56.4493 24.1237 55.9905 24.5095 55.5039Z" fill="#328500"/>
<path fill-rule="evenodd" clip-rule="evenodd" d="M25.1621 57.4919L24.9692 58.8841C26.0566 59.0336 26.6989 59.044 27.9233 58.8841L27.7019 57.4634C26.8477 57.5508 25.9711 57.5587 25.1621 57.4919Z" fill="#733E00"/>
<g filter="url(#filter0_ddd_9528_15080)">
<path fill-rule="evenodd" clip-rule="evenodd" d="M38.9537 20.9224C38.6676 20.8665 38.3623 20.8927 38.0738 21.0153C37.3049 21.342 36.9465 22.2303 37.2732 22.9991C37.6 23.768 38.4882 24.1264 39.2571 23.7997C40.026 23.4729 40.3844 22.5847 40.0576 21.8159C40.0547 21.8088 40.0516 21.8019 40.0486 21.7949C41.0041 21.562 42.1836 21.6545 42.9148 23.0767C43.3387 23.9014 43.4609 24.7473 43.4257 25.5252C43.082 25.7284 42.8763 25.8548 42.8648 25.8619L42.8641 25.8621C42.8641 25.8621 42.1942 26.7437 42.1283 28.0697C42.0974 28.6916 42.6687 29.1713 43.2765 29.0361C45.2124 28.6055 49.4783 27.4354 52.9069 24.919C53.3092 24.6236 53.4183 24.0693 53.1501 23.6484C52.8358 23.1554 52.3854 22.5189 51.9072 22.0728L51.907 22.0729C51.7422 22.018 51.5365 22.0021 51.2985 22.0185C50.0879 20.3666 48.0846 18.097 45.9215 17.5859C43.036 16.9042 40.0814 18.5629 38.9537 20.9224Z" fill="#F5F5F5"/>
</g>
<path d="M42.8642 25.8626C42.8642 25.8626 50.0316 21.4483 51.9073 22.0734L51.3929 23.7678C51.3929 23.7678 46.4595 26.2402 46.3913 26.2691C46.323 26.2982 42.8642 25.8626 42.8642 25.8626Z" fill="#EFEFEF"/>
<path d="M38.5029 22.4831C38.5029 22.4831 41.522 20.3681 42.9147 23.077C44.3074 25.7858 42.4435 28.7247 42.4435 28.7247C42.4435 28.7247 52.4423 26.3003 52.4855 23.8132C52.4855 23.8132 49.4115 18.4108 45.9214 17.5862C42.4313 16.7616 38.84 19.3612 38.5029 22.4831Z" fill="#E42525"/>
<path d="M42.1876 22.1559C42.5109 21.6985 42.81 21.2258 43.0766 20.7493C43.5967 19.8192 44.1914 18.5828 44.0577 17.4565C41.2504 17.7092 38.7796 19.9199 38.5029 22.4832C38.5029 22.4832 40.6782 20.96 42.1876 22.1559Z" fill="#EC4444"/>
<path d="M49.619 20.0081C49.6044 20.138 49.5858 20.2678 49.5622 20.3975C49.1999 22.3879 47.9613 24.0365 46.576 25.4496C45.7455 26.2966 44.8085 27.0547 43.7323 27.5677C43.4464 27.704 43.1515 27.8182 42.8513 27.919C42.6363 28.4208 42.4437 28.7248 42.4437 28.7248C42.4437 28.7248 52.4425 26.3003 52.4858 23.8132C52.4858 23.8132 51.3243 21.7725 49.619 20.0081Z" fill="#C32929"/>
<path d="M51.9073 22.073C51.9073 22.073 46.226 25.185 42.8642 25.8623C42.8642 25.8623 42.1943 26.7439 42.1284 28.0699C42.0975 28.6919 42.6688 29.1715 43.2767 29.0363C45.2125 28.6058 49.4785 27.4356 52.907 24.9192C53.3094 24.6238 53.4185 24.0696 53.1502 23.6487C52.836 23.1556 52.3856 22.5191 51.9073 22.073Z" fill="#F5F5F5"/>
<path d="M53.15 23.6492C52.9053 23.2653 52.5779 22.7947 52.2193 22.3944C52.345 23.1993 51.8575 23.9611 51.2655 24.5317C50.6628 25.1126 49.9209 25.5537 49.1831 25.9404C47.9174 26.6038 46.6174 27.1846 45.2153 27.493C44.2324 27.7092 43.1779 27.771 42.1627 27.7026C42.1464 27.8209 42.1346 27.9437 42.1282 28.0704C42.0973 28.6924 42.6686 29.172 43.2764 29.0368C45.2123 28.6063 49.4783 27.4362 52.9068 24.9198C53.3092 24.6244 53.4183 24.0702 53.15 23.6492Z" fill="#E7E7E7"/>
<path d="M37.2732 22.9996C37.5999 23.7685 38.4881 24.1269 39.257 23.8002C40.0259 23.4734 40.3843 22.5852 40.0575 21.8163C39.7308 21.0475 38.8427 20.689 38.0737 21.0158C37.3048 21.3425 36.9464 22.2307 37.2732 22.9996Z" fill="#F5F5F5"/>
<path d="M38.0737 21.0149C38.0274 21.0346 37.9827 21.0566 37.9395 21.0802C38.132 21.1202 38.3198 21.1835 38.4982 21.2744C39.1384 21.6003 39.6117 22.2692 39.5864 23.0038C39.5788 23.2214 39.532 23.4592 39.4522 23.6972C40.0833 23.3131 40.355 22.5155 40.0575 21.8155C39.7308 21.0466 38.8426 20.6882 38.0737 21.0149Z" fill="#DDDDDD"/>
</g>
<defs>
<filter id="filter0_ddd_9528_15080" x="15.1523" y="1.43164" width="60.1448" height="55.6274" filterUnits="userSpaceOnUse" color-interpolation-filters="sRGB">
<feFlood flood-opacity="0" result="BackgroundImageFix"/>
<feColorMatrix in="SourceAlpha" type="matrix" values="0 0 0 0 0 0 0 0 0 0 0 0 0 0 0 0 0 0 127 0" result="hardAlpha"/>
<feOffset dy="0.399006"/>
<feGaussianBlur stdDeviation="0.731511"/>
<feColorMatrix type="matrix" values="0 0 0 0 0.117647 0 0 0 0 0.129412 0 0 0 0 0.203922 0 0 0 0.0444282 0"/>
<feBlend mode="normal" in2="BackgroundImageFix" result="effect1_dropShadow_9528_15080"/>
<feColorMatrix in="SourceAlpha" type="matrix" values="0 0 0 0 0 0 0 0 0 0 0 0 0 0 0 0 0 0 127 0" result="hardAlpha"/>
<feOffset dy="1.34018"/>
<feGaussianBlur stdDeviation="2.45699"/>
<feColorMatrix type="matrix" values="0 0 0 0 0.117647 0 0 0 0 0.129412 0 0 0 0 0.203922 0 0 0 0.0655718 0"/>
<feBlend mode="normal" in2="effect1_dropShadow_9528_15080" result="effect2_dropShadow_9528_15080"/>
<feColorMatrix in="SourceAlpha" type="matrix" values="0 0 0 0 0 0 0 0 0 0 0 0 0 0 0 0 0 0 127 0" result="hardAlpha"/>
<feOffset dy="6"/>
<feGaussianBlur stdDeviation="11"/>
<feColorMatrix type="matrix" values="0 0 0 0 0.117647 0 0 0 0 0.129412 0 0 0 0 0.203922 0 0 0 0.11 0"/>
<feBlend mode="normal" in2="effect2_dropShadow_9528_15080" result="effect3_dropShadow_9528_15080"/>
<feBlend mode="normal" in="SourceGraphic" in2="effect3_dropShadow_9528_15080" result="shape"/>
</filter>
<clipPath id="clip0_9528_15080">
<rect width="72" height="72" fill="white"/>
</clipPath>
</defs>
</svg>
