<svg width="24" height="24" viewBox="0 0 24 24" fill="none" xmlns="http://www.w3.org/2000/svg">
    <path fill-rule="evenodd" clip-rule="evenodd"
          d="M3.64959 15.8521C3.10016 14.6759 2.79326 13.3636 2.79326 11.9797C2.79326 6.92048 6.8946 2.81916 11.9539 2.81916C14.7709 2.81916 17.2909 4.09085 18.9713 6.09137L19.9739 5.25018C18.0533 2.96385 15.1734 1.5105 11.9539 1.5105C6.17186 1.5105 1.48462 6.19774 1.48462 11.9797C1.48462 13.5614 1.83534 15.0611 2.46326 16.4052L3.64959 15.8521Z"
          fill="black"/>
    <path fill-rule="evenodd" clip-rule="evenodd"
          d="M11.9537 18.1959C8.52066 18.1959 5.73762 15.4127 5.73762 11.9797C5.73762 8.54667 8.52066 5.7636 11.9537 5.7636C13.8653 5.7636 15.575 6.62676 16.7153 7.98426L17.7181 7.14285C16.3378 5.49957 14.2677 4.45496 11.9537 4.45496C7.7979 4.45496 4.42896 7.8239 4.42896 11.9797C4.42896 16.1356 7.7979 19.5045 11.9537 19.5045V18.1959Z"
          fill="black"/>
    <path fill-rule="evenodd" clip-rule="evenodd"
          d="M14.2093 13.8722C13.6693 14.5152 12.8593 14.9241 11.9538 14.9241C10.3276 14.9241 9.00935 13.6058 9.00935 11.9796C9.00935 10.3534 10.3276 9.03511 11.9538 9.03511C12.8593 9.03511 13.6693 9.44398 14.2093 10.087L15.337 9.14071C14.5269 8.17617 13.3121 7.56287 11.9538 7.56287C9.51454 7.56287 7.53711 9.5403 7.53711 11.9796C7.53711 14.4188 9.51454 16.3963 11.9538 16.3963C13.1986 16.3963 14.3226 15.881 15.1254 15.0524L14.2093 13.8722Z"
          fill="black"/>
</svg>
