<svg width="24" height="24" viewBox="0 0 24 24" fill="none" xmlns="http://www.w3.org/2000/svg">
<path d="M5.96191 3.17064L8.82454 2.02805L11.015 3.35273L11.1046 11.4367L11.3777 20.9696L8.94579 22.0914L6.43355 20.8919L5.96191 3.17064Z" fill="#FFF85B"/>
<path d="M18.3154 15.8342L18.6517 18.8072L15.6793 20.1714L8.93711 16.2682L11.684 11.4664L18.3154 15.8342Z" fill="#FFF85B"/>
<path d="M15.7468 6.0558L18.5658 7.56111L18.5227 10.3049L10.9394 14.6249L8.94585 10.1545L15.7468 6.0558Z" fill="#FFF85B"/>
<path fill-rule="evenodd" clip-rule="evenodd" d="M18.9664 7.19939L15.9471 5.48123L11.764 7.91325L11.7673 3.1015L8.74806 1.38333L5.72824 3.13904L5.72504 7.95079L5.72389 10.1988L5.73155 12.3074L5.74327 13.4288L5.72389 16.1767L5.72327 18.3725L5.72355 20.9019L8.74091 22.6167L11.7607 20.861L11.7604 18.3316L15.9436 20.7094L15.9736 20.6919L18.9634 18.9537L18.9659 15.4831L14.7827 13.1053L18.9658 10.6732L18.9664 7.19939ZM11.004 3.54527L11.0008 8.357L9.12758 9.4461L9.13296 2.48259L11.004 3.54527ZM6.49084 3.57623L8.36407 2.48714L8.3607 13.8036L6.48752 14.8927L6.49084 3.57623ZM5.72327 18.3725L5.72424 15.3364L5.72395 17.4915L5.72327 18.3725ZM6.48752 14.8927L8.3607 13.8036L8.3611 18.9259L6.48792 20.015L6.48752 14.8927ZM11 20.4271L8.74348 21.7391L6.87053 20.6731L9.12707 19.3611V13.3364L10.9993 14.3078L11 20.4271ZM15.9429 19.8337L11.7597 17.4559L11.7599 15.3008L17.8161 18.7446L15.9429 19.8337ZM18.2026 15.9269L18.2005 18.0786L12.1443 14.6349L14.0175 13.5458L18.2026 15.9269ZM10.9993 14.3078L9.12707 13.3364L15.947 9.39296L17.8199 10.4589L10.9993 14.3078ZM15.9495 8.51528L15.9195 8.53276L8.36099 12.8793L8.36167 10.6508L15.9531 6.35828L18.2065 7.6412L18.2029 9.7982L15.9495 8.51528Z" fill="#151515"/>
</svg>
