<svg width="20" height="20" viewBox="0 0 20 20" fill="none" xmlns="http://www.w3.org/2000/svg">
<g clip-path="url(#clip0_33233_55645)">
<path fill-rule="evenodd" clip-rule="evenodd" d="M20.0001 10C20.0001 15.5229 15.5229 20.0001 10 20.0001C4.47717 20.0001 0 15.5229 0 10C0 4.47717 4.47717 0 10 0C15.5229 0 20.0001 4.47717 20.0001 10ZM10.5913 2.41661C10.2249 2.20506 9.77343 2.20506 9.40703 2.41661L3.53972 5.8041C3.30767 5.93807 3.16472 6.18567 3.16472 6.45362V13.2286C3.16472 13.6517 3.39044 14.0426 3.75684 14.2542L9.62414 17.6417C9.85619 17.7756 10.1421 17.7756 10.3741 17.6417L16.2414 14.2542C16.6078 14.0426 16.8336 13.6517 16.8336 13.2286V6.45362C16.8336 6.18567 16.6906 5.93807 16.4586 5.8041L10.5913 2.41661ZM5.41472 6.45362L9.99914 3.8068L14.5836 6.45361L12.4565 7.68167C11.8444 7.02375 10.9703 6.61099 9.99922 6.61099C9.02811 6.61099 8.15395 7.02377 7.54189 7.68173L5.41472 6.45362ZM13.2072 8.98032L15.3336 7.75265V13.0463L10.7492 15.6931L10.7492 13.2376C12.2413 12.897 13.3546 11.5617 13.3546 9.96638C13.3546 9.62378 13.3031 9.29251 13.2072 8.98032ZM9.24921 13.2376L9.24917 15.6931L4.66472 13.0463V7.75265L6.79124 8.9804C6.69538 9.29256 6.64383 9.62381 6.64383 9.96638C6.64383 11.5617 7.75714 12.897 9.24921 13.2376ZM8.39164 9.03914C8.71359 8.48266 9.31345 8.11099 9.99922 8.11099C10.685 8.11099 11.2848 8.48263 11.6068 9.03909C11.7642 9.31126 11.8546 9.62713 11.8546 9.96638C11.8546 10.9911 11.0239 11.8218 9.99922 11.8218C8.97451 11.8218 8.14383 10.9911 8.14383 9.96638C8.14383 9.62715 8.23418 9.3113 8.39164 9.03914Z" fill="#C2C8D4"/>
</g>
<defs>
<clipPath id="clip0_33233_55645">
<rect width="20" height="20" fill="white"/>
</clipPath>
</defs>
</svg>
