<svg
    width="706"
    height="46"
    viewBox="0 0 706 46"
    fill="none"
    xmlns="http://www.w3.org/2000/svg"
>
  <rect x="1" y="1" width="704" height="44" fill="white" />
  <path
      d="M313.995 27.6851L307.123 15.8101C306.958 15.5257 306.721 15.2896 306.436 15.1255C306.152 14.9614 305.829 14.875 305.5 14.875C305.171 14.875 304.848 14.9614 304.563 15.1255C304.279 15.2896 304.042 15.5257 303.877 15.8101L297.004 27.6851C296.839 27.97 296.752 28.2934 296.752 28.6227C296.752 28.952 296.838 29.2756 297.003 29.5609C297.167 29.8461 297.404 30.0831 297.689 30.2478C297.974 30.4126 298.297 30.4994 298.627 30.4994H312.373C312.702 30.4994 313.026 30.4126 313.311 30.2478C313.596 30.0831 313.833 29.8461 313.997 29.5609C314.162 29.2756 314.248 28.952 314.248 28.6227C314.247 28.2934 314.16 27.97 313.995 27.6851ZM304.874 21.125C304.874 20.9592 304.94 20.8003 305.057 20.6831C305.175 20.5658 305.334 20.5 305.499 20.5C305.665 20.5 305.824 20.5658 305.941 20.6831C306.058 20.8003 306.124 20.9592 306.124 21.125V24.25C306.124 24.4158 306.058 24.5747 305.941 24.6919C305.824 24.8091 305.665 24.875 305.499 24.875C305.334 24.875 305.175 24.8091 305.057 24.6919C304.94 24.5747 304.874 24.4158 304.874 24.25V21.125ZM305.5 28.0002C305.314 28.0002 305.133 27.9452 304.979 27.8422C304.825 27.7392 304.705 27.5928 304.634 27.4215C304.563 27.2502 304.544 27.0617 304.58 26.8798C304.616 26.698 304.706 26.5309 304.837 26.3998C304.968 26.2687 305.135 26.1794 305.317 26.1432C305.499 26.1071 305.687 26.1256 305.859 26.1966C306.03 26.2675 306.176 26.3877 306.279 26.5419C306.382 26.696 306.437 26.8773 306.437 27.0627C306.437 27.3114 306.338 27.5498 306.163 27.7256C305.987 27.9014 305.748 28.0002 305.5 28.0002Z"
      fill="#FF9800"
  />
  <path
      d="M325.966 17.8182H324.733V28H325.966V17.8182ZM329.452 23.4062C329.452 22.0739 330.278 21.3182 331.401 21.3182C332.49 21.3182 333.151 22.0291 333.151 23.2273V28H334.324V23.1477C334.324 21.1989 333.285 20.2642 331.739 20.2642C330.586 20.2642 329.87 20.7812 329.512 21.5568H329.412V20.3636H328.279V28H329.452V23.4062ZM342.439 20.3636H341.167L339.059 26.4489H338.979L336.871 20.3636H335.598L338.422 28H339.615L342.439 20.3636ZM346.003 28.179C347.335 28.179 348.031 27.4631 348.27 26.9659H348.329V28H349.503V22.9688C349.503 20.5426 347.653 20.2642 346.679 20.2642C345.525 20.2642 344.213 20.6619 343.616 22.054L344.73 22.4517C344.988 21.8949 345.6 21.2983 346.719 21.2983C347.797 21.2983 348.329 21.87 348.329 22.8494V22.8892C348.329 23.456 347.753 23.4062 346.361 23.5852C344.944 23.7692 343.398 24.0824 343.398 25.8324C343.398 27.3239 344.551 28.179 346.003 28.179ZM346.182 27.125C345.247 27.125 344.571 26.7074 344.571 25.892C344.571 24.9972 345.386 24.7188 346.301 24.5994C346.798 24.5398 348.131 24.4006 348.329 24.1619V25.2358C348.329 26.1903 347.574 27.125 346.182 27.125ZM352.817 17.8182H351.644V28H352.817V17.8182ZM354.966 28H356.14V20.3636H354.966V28ZM355.563 19.0909C356.02 19.0909 356.398 18.733 356.398 18.2955C356.398 17.858 356.02 17.5 355.563 17.5C355.106 17.5 354.728 17.858 354.728 18.2955C354.728 18.733 355.106 19.0909 355.563 19.0909ZM361.172 28.1591C362.644 28.1591 363.141 27.2443 363.4 26.8267H363.539V28H364.672V17.8182H363.499V21.5767H363.4C363.141 21.179 362.684 20.2642 361.192 20.2642C359.263 20.2642 357.931 21.7955 357.931 24.2017C357.931 26.6278 359.263 28.1591 361.172 28.1591ZM361.331 27.1051C359.86 27.1051 359.104 25.8125 359.104 24.1818C359.104 22.571 359.84 21.3182 361.331 21.3182C362.763 21.3182 363.519 22.4716 363.519 24.1818C363.519 25.9119 362.743 27.1051 361.331 27.1051ZM370.922 28H372.095V20.3636H370.922V28ZM371.518 19.0909C371.975 19.0909 372.353 18.733 372.353 18.2955C372.353 17.858 371.975 17.5 371.518 17.5C371.061 17.5 370.683 17.858 370.683 18.2955C370.683 18.733 371.061 19.0909 371.518 19.0909ZM374.244 28H375.417V23.2273C375.417 22.1087 376.232 21.3182 377.147 21.3182C378.037 21.3182 378.659 21.8999 378.659 22.7699V28H379.852V23.0284C379.852 22.044 380.468 21.3182 381.542 21.3182C382.377 21.3182 383.093 21.7607 383.093 22.8892V28H384.267V22.8892C384.267 21.0945 383.302 20.2642 381.94 20.2642C380.846 20.2642 380.046 20.7663 379.653 21.5568H379.573C379.195 20.7415 378.529 20.2642 377.525 20.2642C376.531 20.2642 375.795 20.7415 375.477 21.5568H375.377V20.3636H374.244V28ZM388.659 28.179C389.991 28.179 390.687 27.4631 390.926 26.9659H390.986V28H392.159V22.9688C392.159 20.5426 390.309 20.2642 389.335 20.2642C388.182 20.2642 386.869 20.6619 386.273 22.054L387.386 22.4517C387.645 21.8949 388.256 21.2983 389.375 21.2983C390.454 21.2983 390.986 21.87 390.986 22.8494V22.8892C390.986 23.456 390.409 23.4062 389.017 23.5852C387.6 23.7692 386.054 24.0824 386.054 25.8324C386.054 27.3239 387.207 28.179 388.659 28.179ZM388.838 27.125C387.903 27.125 387.227 26.7074 387.227 25.892C387.227 24.9972 388.042 24.7188 388.957 24.5994C389.454 24.5398 390.787 24.4006 390.986 24.1619V25.2358C390.986 26.1903 390.23 27.125 388.838 27.125ZM397.383 31.0227C399.212 31.0227 400.684 30.1875 400.684 28.2188V20.3636H399.55V21.5767H399.431C399.173 21.179 398.695 20.2642 397.204 20.2642C395.275 20.2642 393.942 21.7955 393.942 24.142C393.942 26.5284 395.335 27.8807 397.184 27.8807C398.675 27.8807 399.153 27.0057 399.411 26.5881H399.511V28.1392C399.511 29.4119 398.616 29.9886 397.383 29.9886C395.996 29.9886 395.509 29.2578 395.195 28.8352L394.261 29.4915C394.738 30.2919 395.678 31.0227 397.383 31.0227ZM397.343 26.8267C395.871 26.8267 395.116 25.7131 395.116 24.1222C395.116 22.571 395.852 21.3182 397.343 21.3182C398.775 21.3182 399.531 22.4716 399.531 24.1222C399.531 25.8125 398.755 26.8267 397.343 26.8267ZM406.033 28.1591C407.585 28.1591 408.718 27.3835 409.076 26.2301L407.942 25.9119C407.644 26.7074 406.953 27.1051 406.033 27.1051C404.656 27.1051 403.707 26.2152 403.652 24.5795H409.195V24.0824C409.195 21.2386 407.505 20.2642 405.914 20.2642C403.846 20.2642 402.474 21.8949 402.474 24.2415C402.474 26.5881 403.826 28.1591 406.033 28.1591ZM403.652 23.5653C403.732 22.3771 404.572 21.3182 405.914 21.3182C407.187 21.3182 408.002 22.2727 408.002 23.5653H403.652Z"
      fill="#1E2134"
  />
  <rect x="1" y="1" width="704" height="44" stroke="#EBEEF4" />
</svg>