<svg width="14" height="14" viewBox="0 0 14 14" fill="none" xmlns="http://www.w3.org/2000/svg">
  <path d="M12.9468 10.2794L8.13601 1.96689C8.0206 1.76781 7.8549 1.60256 7.65552 1.48769C7.45614 1.37281 7.23007 1.31235 6.99996 1.31235C6.76985 1.31235 6.54378 1.37281 6.3444 1.48769C6.14502 1.60256 5.97932 1.76781 5.86391 1.96689L1.05312 10.2794C0.937617 10.4789 0.876689 10.7052 0.876465 10.9357C0.876242 11.1662 0.936732 11.3927 1.05185 11.5924C1.16697 11.7921 1.33265 11.958 1.53223 12.0733C1.7318 12.1887 1.95824 12.2494 2.18874 12.2494H11.8112C12.0417 12.2494 12.2681 12.1887 12.4677 12.0733C12.6673 11.958 12.833 11.7921 12.9481 11.5924C13.0632 11.3927 13.1237 11.1662 13.1235 10.9357C13.1232 10.7052 13.0623 10.4789 12.9468 10.2794ZM6.56203 5.68735C6.56203 5.57131 6.60813 5.46003 6.69017 5.37799C6.77222 5.29594 6.8835 5.24985 6.99953 5.24985C7.11556 5.24985 7.22684 5.29594 7.30889 5.37799C7.39094 5.46003 7.43703 5.57131 7.43703 5.68735V7.87485C7.43703 7.99088 7.39094 8.10216 7.30889 8.1842C7.22684 8.26625 7.11556 8.31235 6.99953 8.31235C6.8835 8.31235 6.77222 8.26625 6.69017 8.1842C6.60813 8.10216 6.56203 7.99088 6.56203 7.87485V5.68735ZM6.99985 10.5C6.87006 10.5 6.74318 10.4615 6.63526 10.3894C6.52734 10.3173 6.44323 10.2148 6.39356 10.0949C6.34389 9.97497 6.33089 9.84303 6.35621 9.71572C6.38153 9.58842 6.44404 9.47149 6.53581 9.37971C6.62759 9.28794 6.74452 9.22543 6.87182 9.20011C6.99912 9.17479 7.13107 9.18779 7.25099 9.23746C7.3709 9.28713 7.47339 9.37124 7.5455 9.47916C7.61761 9.58708 7.6561 9.71396 7.6561 9.84375C7.65609 10.0178 7.58695 10.1847 7.46388 10.3078C7.34081 10.4309 7.1739 10.5 6.99985 10.5Z" fill="#FF9800"/>
</svg>
