<svg width="16" height="16" viewBox="0 0 16 16" fill="none" xmlns="http://www.w3.org/2000/svg">
<path fill-rule="evenodd" clip-rule="evenodd" d="M7.77494 3.27518C7.64246 3.41735 7.57033 3.6054 7.57376 3.7997C7.57719 3.994 7.6559 4.17938 7.79331 4.3168C7.93073 4.45421 8.11611 4.53292 8.31041 4.53635C8.50471 4.53978 8.69276 4.46766 8.83494 4.33518L10.0849 3.08518C10.2707 2.89936 10.4913 2.75195 10.7341 2.65139C10.9769 2.55082 11.2371 2.49906 11.4999 2.49906C11.7627 2.49906 12.0229 2.55082 12.2657 2.65139C12.5085 2.75195 12.7291 2.89936 12.9149 3.08518C13.1007 3.271 13.2481 3.4916 13.3487 3.73438C13.4492 3.97717 13.501 4.23739 13.501 4.50018C13.501 4.76297 13.4492 5.02318 13.3487 5.26597C13.2481 5.50875 13.1007 5.72935 12.9149 5.91518L10.4149 8.41518C10.2291 8.60113 10.0086 8.74865 9.76582 8.84929C9.52302 8.94994 9.26277 9.00175 8.99994 9.00175C8.7371 9.00175 8.47685 8.94994 8.23405 8.84929C7.99126 8.74865 7.77068 8.60113 7.58494 8.41518C7.44276 8.2827 7.25471 8.21057 7.06041 8.214C6.86611 8.21743 6.68073 8.29614 6.54331 8.43355C6.4059 8.57097 6.32719 8.75635 6.32376 8.95065C6.32033 9.14495 6.39246 9.333 6.52494 9.47518C6.84995 9.80022 7.2358 10.0581 7.66046 10.234C8.08512 10.4099 8.54028 10.5004 8.99994 10.5004C9.45959 10.5004 9.91475 10.4099 10.3394 10.234C10.764 10.0581 11.1499 9.80022 11.4749 9.47518L13.9749 6.97518C14.6313 6.31876 15.0001 5.42848 15.0001 4.50018C15.0001 3.57187 14.6313 2.68159 13.9749 2.02518C13.3185 1.36876 12.4282 1 11.4999 1C10.5716 1 9.68135 1.36876 9.02493 2.02518L7.77494 3.27518ZM3.08494 12.9152C2.89898 12.7294 2.75146 12.5089 2.65082 12.2661C2.55017 12.0233 2.49836 11.763 2.49836 11.5002C2.49836 11.2374 2.55017 10.9771 2.65082 10.7343C2.75146 10.4915 2.89898 10.2709 3.08494 10.0852L5.58494 7.58518C5.77068 7.39922 5.99126 7.2517 6.23405 7.15106C6.47685 7.05041 6.7371 6.9986 6.99994 6.9986C7.26277 6.9986 7.52302 7.05041 7.76582 7.15106C8.00861 7.2517 8.22919 7.39922 8.41494 7.58518C8.55711 7.71766 8.74516 7.78978 8.93946 7.78635C9.13376 7.78292 9.31914 7.70421 9.45656 7.5668C9.59397 7.42938 9.67268 7.244 9.67611 7.0497C9.67954 6.8554 9.60742 6.66735 9.47494 6.52518C9.14993 6.20013 8.76407 5.94229 8.33941 5.76638C7.91475 5.59047 7.45959 5.49992 6.99994 5.49992C6.54028 5.49992 6.08512 5.59047 5.66046 5.76638C5.2358 5.94229 4.84995 6.20013 4.52494 6.52518L2.02494 9.02517C1.36852 9.68159 0.999756 10.5719 0.999756 11.5002C0.999756 12.4285 1.36852 13.3188 2.02494 13.9752C2.68135 14.6316 3.57163 15.0004 4.49994 15.0004C5.42824 15.0004 6.31852 14.6316 6.97494 13.9752L8.22494 12.7252C8.35742 12.583 8.42954 12.395 8.42611 12.2007C8.42268 12.0064 8.34397 11.821 8.20656 11.6836C8.06914 11.5462 7.88376 11.4674 7.68946 11.464C7.49516 11.4606 7.30711 11.5327 7.16494 11.6652L5.91494 12.9152C5.72919 13.1011 5.50861 13.2487 5.26582 13.3493C5.02302 13.45 4.76277 13.5018 4.49994 13.5018C4.2371 13.5018 3.97685 13.45 3.73405 13.3493C3.49126 13.2487 3.27068 13.1011 3.08494 12.9152Z" fill="#696D73"/>
</svg>
