<svg width="229" height="64" viewBox="0 0 229 64" fill="none" xmlns="http://www.w3.org/2000/svg">
<path d="M15.7719 33.0236C15.1274 33.0236 14.5006 33.0778 13.8943 33.1813L14.828 31.5519C15.1433 31.531 15.4589 31.5204 15.7719 31.5204C16.5051 31.5204 17.2512 31.5814 17.9725 31.698L14.3467 25.3709L8.31074 35.9034L7.44812 34.3983L14.3331 22.3842L14.3472 22.409L14.3608 22.3852L22.6696 36.8838H20.9444L19.0024 33.4952C17.9907 33.1878 16.909 33.0236 15.7719 33.0236Z" fill="url(#paint0_linear_7032_48030)"/>
<path d="M23.2066 35.9288L15.1624 21.8918H16.8876L24.0692 34.4235L23.2066 35.9288Z" fill="url(#paint1_linear_7032_48030)"/>
<path d="M15.2226 28.8171L11.9194 34.5809C13.1013 34.2217 14.4926 34.0613 15.8051 34.0613C15.9112 34.0613 16.0176 34.0626 16.1241 34.0651C16.8698 34.0829 17.6231 34.1624 18.3448 34.2981L19.4469 36.2211C18.3188 35.8077 17.0978 35.5645 15.8051 35.5645C13.8934 35.5645 12.1377 36.0409 10.6087 36.8696L10.6328 36.8263L10.5997 36.8838H8.87457L14.36 27.3119L15.2226 28.8171Z" fill="url(#paint2_linear_7032_48030)"/>
<path fill-rule="evenodd" clip-rule="evenodd" d="M15.8815 44.3878C23.2206 44.3878 29.17 38.3939 29.17 31.0001C29.17 23.6062 23.2206 17.6123 15.8815 17.6123C8.5424 17.6123 2.5929 23.6062 2.5929 31.0001C2.5929 38.3939 8.5424 44.3878 15.8815 44.3878ZM15.9139 42.7552C22.3759 42.7552 27.6143 37.4776 27.6143 30.9674C27.6143 24.4572 22.3759 19.1797 15.9139 19.1797C9.45193 19.1797 4.21346 24.4572 4.21346 30.9674C4.21346 37.4776 9.45193 42.7552 15.9139 42.7552Z" fill="url(#paint3_linear_7032_48030)"/>
<path fill-rule="evenodd" clip-rule="evenodd" d="M15.8815 47C24.6526 47 31.763 39.8366 31.763 31C31.763 22.1634 24.6526 15 15.8815 15C7.11039 15 0 22.1634 0 31C0 39.8366 7.11039 47 15.8815 47ZM15.9463 45.498C23.894 45.498 30.3369 39.007 30.3369 31C30.3369 22.993 23.894 16.502 15.9463 16.502C7.99862 16.502 1.55574 22.993 1.55574 31C1.55574 39.007 7.99862 45.498 15.9463 45.498Z" fill="url(#paint4_linear_7032_48030)"/>
<path fill-rule="evenodd" clip-rule="evenodd" d="M40.8162 32.9742H44.7354L42.766 27.1831L40.8162 32.9742ZM46.3307 37.7304L45.4444 35.1234H40.0875L39.2011 37.7304H36.2667L41.1312 23.8H44.4203L49.2651 37.7304H46.3307Z" fill="url(#paint5_linear_7032_48030)"/>
<path fill-rule="evenodd" clip-rule="evenodd" d="M52.7115 36.3373C51.7135 35.3025 51.2147 33.9294 51.2147 32.218C51.2147 30.5065 51.7135 29.1333 52.7115 28.0986C53.7093 27.0637 55.0025 26.5464 56.5914 26.5464C57.9174 26.5464 59.0268 26.8715 59.9198 27.5214C60.8125 28.1716 61.4098 29.0937 61.7121 30.2875H58.7184C58.3638 29.3722 57.6549 28.9144 56.5914 28.9144C55.7903 28.9144 55.1636 29.2098 54.7105 29.8001C54.2576 30.3906 54.0311 31.1965 54.0311 32.218C54.0311 33.2396 54.2576 34.0457 54.7105 34.6358C55.1636 35.2263 55.7903 35.5214 56.5914 35.5214C57.6417 35.5214 58.3507 35.0571 58.7184 34.1284H61.7121C61.397 35.2826 60.7895 36.198 59.8904 36.8747C58.9908 37.5512 57.8913 37.8895 56.5914 37.8895C55.0025 37.8895 53.7093 37.3722 52.7115 36.3373Z" fill="url(#paint6_linear_7032_48030)"/>
<path fill-rule="evenodd" clip-rule="evenodd" d="M71.7648 34.596C72.3424 34.0189 72.6313 33.2263 72.6313 32.218C72.6313 31.2099 72.3424 30.417 71.7648 29.8398C71.1869 29.2628 70.5107 28.9742 69.7362 28.9742C68.9614 28.9742 68.2887 29.2596 67.7176 29.8299C67.1464 30.4005 66.8608 31.19 66.8608 32.198C66.8608 33.2064 67.1495 34.0025 67.7274 34.5861C68.305 35.17 68.9781 35.4617 69.746 35.4617C70.5143 35.4617 71.1869 35.1732 71.7648 34.596ZM65.5117 36.2875C64.5335 35.2198 64.0444 33.8566 64.0444 32.198C64.0444 30.5398 64.53 29.1831 65.5019 28.1284C66.4734 27.0736 67.7077 26.5463 69.2046 26.5463C70.7013 26.5463 71.8435 27.17 72.6313 28.417V26.7055H75.3884V37.7303H72.6313V35.8796C71.8042 37.2198 70.6551 37.8895 69.1847 37.8895C67.7141 37.8895 66.4897 37.3556 65.5117 36.2875Z" fill="url(#paint7_linear_7032_48030)"/>
<path fill-rule="evenodd" clip-rule="evenodd" d="M92.376 34.596C92.9542 34.0189 93.2429 33.2263 93.2429 32.218C93.2429 31.2099 92.9542 30.417 92.376 29.8398C91.7986 29.2628 91.1222 28.9742 90.3476 28.9742C89.5731 28.9742 88.9004 29.2596 88.3287 29.8299C87.7578 30.4005 87.472 31.19 87.472 32.198C87.472 33.2064 87.7607 34.0025 88.3389 34.5861C88.9164 35.17 89.5891 35.4617 90.3578 35.4617C91.1258 35.4617 91.7986 35.1732 92.376 34.596ZM86.1229 36.2875C85.1447 35.2198 84.656 33.8566 84.656 32.198C84.656 30.5398 85.1411 29.1831 86.1135 28.1284C87.0851 27.0736 88.3193 26.5463 89.816 26.5463C91.3127 26.5463 92.4553 27.17 93.2429 28.417V26.7055H96V37.7303H93.2429V35.8796C92.416 37.2198 91.2669 37.8895 89.7964 37.8895C88.3258 37.8895 87.1011 37.3556 86.1229 36.2875Z" fill="url(#paint8_linear_7032_48030)"/>
<path fill-rule="evenodd" clip-rule="evenodd" d="M78.9055 37.7302H81.6822V23.8207H78.9055V37.7302Z" fill="url(#paint9_linear_7032_48030)"/>
<path d="M112 25V37" stroke="#363A4D"/>
<path d="M136.896 24.224H139.264V28.768C138.656 29.2267 137.952 29.5787 137.152 29.824C136.352 30.0693 135.547 30.192 134.736 30.192C133.573 30.192 132.528 29.9467 131.6 29.456C130.672 28.9547 129.941 28.2667 129.408 27.392C128.885 26.5067 128.624 25.5093 128.624 24.4C128.624 23.2907 128.885 22.2987 129.408 21.424C129.941 20.5387 130.677 19.8507 131.616 19.36C132.555 18.8587 133.611 18.608 134.784 18.608C135.765 18.608 136.656 18.7733 137.456 19.104C138.256 19.4347 138.928 19.9147 139.472 20.544L137.808 22.08C137.008 21.2373 136.043 20.816 134.912 20.816C134.197 20.816 133.563 20.9653 133.008 21.264C132.453 21.5627 132.021 21.984 131.712 22.528C131.403 23.072 131.248 23.696 131.248 24.4C131.248 25.0933 131.403 25.712 131.712 26.256C132.021 26.8 132.448 27.2267 132.992 27.536C133.547 27.8347 134.176 27.984 134.88 27.984C135.627 27.984 136.299 27.824 136.896 27.504V24.224ZM145.592 30.128C144.685 30.128 143.869 29.9413 143.144 29.568C142.429 29.184 141.869 28.656 141.464 27.984C141.058 27.312 140.856 26.5493 140.856 25.696C140.856 24.8427 141.058 24.08 141.464 23.408C141.869 22.736 142.429 22.2133 143.144 21.84C143.869 21.456 144.685 21.264 145.592 21.264C146.498 21.264 147.309 21.456 148.024 21.84C148.738 22.2133 149.298 22.736 149.704 23.408C150.109 24.08 150.312 24.8427 150.312 25.696C150.312 26.5493 150.109 27.312 149.704 27.984C149.298 28.656 148.738 29.184 148.024 29.568C147.309 29.9413 146.498 30.128 145.592 30.128ZM145.592 28.08C146.232 28.08 146.754 27.8667 147.16 27.44C147.576 27.0027 147.784 26.4213 147.784 25.696C147.784 24.9707 147.576 24.3947 147.16 23.968C146.754 23.5307 146.232 23.312 145.592 23.312C144.952 23.312 144.424 23.5307 144.008 23.968C143.592 24.3947 143.384 24.9707 143.384 25.696C143.384 26.4213 143.592 27.0027 144.008 27.44C144.424 27.8667 144.952 28.08 145.592 28.08ZM160.29 21.392L156.658 30H154.082L150.466 21.392H153.042L155.426 27.248L157.89 21.392H160.29ZM169.506 25.728C169.506 25.76 169.49 25.984 169.458 26.4H162.946C163.063 26.9333 163.341 27.3547 163.778 27.664C164.215 27.9733 164.759 28.128 165.41 28.128C165.858 28.128 166.253 28.064 166.594 27.936C166.946 27.7973 167.271 27.584 167.57 27.296L168.898 28.736C168.087 29.664 166.903 30.128 165.346 30.128C164.375 30.128 163.517 29.9413 162.77 29.568C162.023 29.184 161.447 28.656 161.042 27.984C160.637 27.312 160.434 26.5493 160.434 25.696C160.434 24.8533 160.631 24.096 161.026 23.424C161.431 22.7413 161.981 22.2133 162.674 21.84C163.378 21.456 164.162 21.264 165.026 21.264C165.869 21.264 166.631 21.4453 167.314 21.808C167.997 22.1707 168.53 22.6933 168.914 23.376C169.309 24.048 169.506 24.832 169.506 25.728ZM165.042 23.152C164.477 23.152 164.002 23.312 163.618 23.632C163.234 23.952 162.999 24.3893 162.914 24.944H167.154C167.069 24.4 166.834 23.968 166.45 23.648C166.066 23.3173 165.597 23.152 165.042 23.152ZM173.552 22.528C173.85 22.112 174.25 21.7973 174.752 21.584C175.264 21.3707 175.85 21.264 176.512 21.264V23.568C176.234 23.5467 176.048 23.536 175.952 23.536C175.237 23.536 174.677 23.7387 174.272 24.144C173.866 24.5387 173.664 25.136 173.664 25.936V30H171.168V21.392H173.552V22.528ZM183.228 21.264C184.294 21.264 185.153 21.584 185.804 22.224C186.465 22.864 186.796 23.8133 186.796 25.072V30H184.3V25.456C184.3 24.7733 184.15 24.2667 183.852 23.936C183.553 23.5947 183.121 23.424 182.556 23.424C181.926 23.424 181.425 23.6213 181.052 24.016C180.678 24.4 180.492 24.976 180.492 25.744V30H177.996V21.392H180.38V22.4C180.71 22.0373 181.121 21.76 181.612 21.568C182.102 21.3653 182.641 21.264 183.228 21.264ZM192.53 21.264C193.864 21.264 194.888 21.584 195.602 22.224C196.317 22.8533 196.674 23.808 196.674 25.088V30H194.338V28.928C193.869 29.728 192.994 30.128 191.714 30.128C191.053 30.128 190.477 30.016 189.986 29.792C189.506 29.568 189.138 29.2587 188.882 28.864C188.626 28.4693 188.498 28.0213 188.498 27.52C188.498 26.72 188.797 26.0907 189.394 25.632C190.002 25.1733 190.936 24.944 192.194 24.944H194.178C194.178 24.4 194.013 23.984 193.682 23.696C193.352 23.3973 192.856 23.248 192.194 23.248C191.736 23.248 191.282 23.3227 190.834 23.472C190.397 23.6107 190.024 23.8027 189.714 24.048L188.818 22.304C189.288 21.9733 189.848 21.7173 190.498 21.536C191.16 21.3547 191.837 21.264 192.53 21.264ZM192.338 28.448C192.765 28.448 193.144 28.352 193.474 28.16C193.805 27.9573 194.04 27.664 194.178 27.28V26.4H192.466C191.442 26.4 190.93 26.736 190.93 27.408C190.93 27.728 191.053 27.984 191.298 28.176C191.554 28.3573 191.901 28.448 192.338 28.448ZM204.165 21.264C205.232 21.264 206.091 21.584 206.741 22.224C207.403 22.864 207.733 23.8133 207.733 25.072V30H205.237V25.456C205.237 24.7733 205.088 24.2667 204.789 23.936C204.491 23.5947 204.059 23.424 203.493 23.424C202.864 23.424 202.363 23.6213 201.989 24.016C201.616 24.4 201.429 24.976 201.429 25.744V30H198.933V21.392H201.317V22.4C201.648 22.0373 202.059 21.76 202.549 21.568C203.04 21.3653 203.579 21.264 204.165 21.264ZM214.25 30.128C213.332 30.128 212.506 29.9413 211.77 29.568C211.044 29.184 210.474 28.656 210.058 27.984C209.652 27.312 209.45 26.5493 209.45 25.696C209.45 24.8427 209.652 24.08 210.058 23.408C210.474 22.736 211.044 22.2133 211.77 21.84C212.506 21.456 213.332 21.264 214.25 21.264C215.156 21.264 215.946 21.456 216.618 21.84C217.3 22.2133 217.796 22.752 218.106 23.456L216.17 24.496C215.722 23.7067 215.076 23.312 214.234 23.312C213.583 23.312 213.044 23.5253 212.618 23.952C212.191 24.3787 211.978 24.96 211.978 25.696C211.978 26.432 212.191 27.0133 212.618 27.44C213.044 27.8667 213.583 28.08 214.234 28.08C215.087 28.08 215.732 27.6853 216.17 26.896L218.106 27.952C217.796 28.6347 217.3 29.168 216.618 29.552C215.946 29.936 215.156 30.128 214.25 30.128ZM227.865 25.728C227.865 25.76 227.849 25.984 227.817 26.4H221.305C221.423 26.9333 221.7 27.3547 222.137 27.664C222.575 27.9733 223.119 28.128 223.769 28.128C224.217 28.128 224.612 28.064 224.953 27.936C225.305 27.7973 225.631 27.584 225.929 27.296L227.257 28.736C226.447 29.664 225.263 30.128 223.705 30.128C222.735 30.128 221.876 29.9413 221.129 29.568C220.383 29.184 219.807 28.656 219.401 27.984C218.996 27.312 218.793 26.5493 218.793 25.696C218.793 24.8533 218.991 24.096 219.385 23.424C219.791 22.7413 220.34 22.2133 221.033 21.84C221.737 21.456 222.521 21.264 223.385 21.264C224.228 21.264 224.991 21.4453 225.673 21.808C226.356 22.1707 226.889 22.6933 227.273 23.376C227.668 24.048 227.865 24.832 227.865 25.728ZM223.401 23.152C222.836 23.152 222.361 23.312 221.977 23.632C221.593 23.952 221.359 24.3893 221.273 24.944H225.513C225.428 24.4 225.193 23.968 224.809 23.648C224.425 23.3173 223.956 23.152 223.401 23.152Z" fill="white"/>
<path d="M132.858 39.5455C132.815 39.1856 132.643 38.9062 132.339 38.7074C132.036 38.5085 131.665 38.4091 131.224 38.4091C130.902 38.4091 130.621 38.4612 130.379 38.5653C130.14 38.6695 129.953 38.8127 129.818 38.995C129.686 39.1773 129.619 39.3845 129.619 39.6165C129.619 39.8106 129.665 39.9775 129.758 40.1172C129.853 40.2545 129.973 40.3693 130.12 40.4616C130.267 40.5516 130.421 40.6262 130.582 40.6854C130.743 40.7422 130.891 40.7884 131.026 40.8239L131.764 41.0227C131.954 41.0724 132.164 41.1411 132.396 41.2287C132.631 41.3163 132.854 41.4358 133.067 41.5874C133.283 41.7365 133.46 41.9283 133.6 42.1626C133.74 42.397 133.81 42.6847 133.81 43.0256C133.81 43.4186 133.707 43.7737 133.501 44.0909C133.297 44.4081 132.999 44.6603 132.606 44.8473C132.215 45.0343 131.741 45.1278 131.182 45.1278C130.661 45.1278 130.21 45.0438 129.829 44.8757C129.45 44.7076 129.152 44.4732 128.934 44.1726C128.719 43.8719 128.597 43.5227 128.568 43.125H129.477C129.501 43.3996 129.593 43.6269 129.754 43.8068C129.918 43.9844 130.124 44.117 130.372 44.2045C130.623 44.2898 130.893 44.3324 131.182 44.3324C131.518 44.3324 131.82 44.2779 132.087 44.169C132.355 44.0578 132.567 43.9039 132.723 43.7074C132.879 43.5085 132.957 43.2765 132.957 43.0114C132.957 42.7699 132.89 42.5734 132.755 42.4219C132.62 42.2704 132.442 42.1473 132.222 42.0526C132.002 41.9579 131.764 41.875 131.509 41.804L130.614 41.5483C130.045 41.3849 129.596 41.1518 129.264 40.8487C128.933 40.5457 128.767 40.1491 128.767 39.6591C128.767 39.2519 128.877 38.8968 129.097 38.5938C129.32 38.2884 129.618 38.0516 129.992 37.8835C130.369 37.7131 130.789 37.6278 131.253 37.6278C131.722 37.6278 132.138 37.7119 132.503 37.88C132.867 38.0457 133.156 38.273 133.369 38.5618C133.585 38.8506 133.698 39.1785 133.71 39.5455H132.858ZM138.581 42.7699V39.5455H139.42V45H138.581V44.0767H138.525C138.397 44.3537 138.198 44.5893 137.928 44.7834C137.658 44.9751 137.317 45.071 136.905 45.071C136.564 45.071 136.261 44.9964 135.996 44.8473C135.731 44.6958 135.523 44.4685 135.371 44.1655C135.22 43.8601 135.144 43.4754 135.144 43.0114V39.5455H135.982V42.9545C135.982 43.3523 136.093 43.6695 136.316 43.9062C136.541 44.143 136.827 44.2614 137.175 44.2614C137.384 44.2614 137.595 44.2081 137.811 44.1016C138.029 43.995 138.211 43.8317 138.358 43.6115C138.507 43.3913 138.581 43.1108 138.581 42.7699ZM141.068 45V37.7273H141.906V40.4119H141.977C142.039 40.3172 142.124 40.1965 142.233 40.0497C142.344 39.9006 142.503 39.768 142.709 39.652C142.917 39.5336 143.199 39.4744 143.554 39.4744C144.013 39.4744 144.418 39.5893 144.768 39.8189C145.119 40.0485 145.392 40.3741 145.589 40.7955C145.785 41.2169 145.884 41.714 145.884 42.2869C145.884 42.8646 145.785 43.3653 145.589 43.7891C145.392 44.2105 145.12 44.5372 144.772 44.7692C144.424 44.9988 144.023 45.1136 143.568 45.1136C143.218 45.1136 142.937 45.0556 142.727 44.9396C142.516 44.8213 142.354 44.6875 142.24 44.5384C142.126 44.3868 142.039 44.2614 141.977 44.1619H141.878V45H141.068ZM141.892 42.2727C141.892 42.6847 141.952 43.0481 142.073 43.3629C142.194 43.6754 142.37 43.9205 142.602 44.098C142.834 44.2732 143.118 44.3608 143.455 44.3608C143.805 44.3608 144.097 44.2685 144.332 44.0838C144.568 43.8968 144.746 43.6458 144.864 43.331C144.985 43.0137 145.045 42.661 145.045 42.2727C145.045 41.8892 144.986 41.5436 144.868 41.2358C144.752 40.9257 144.576 40.6806 144.339 40.5007C144.104 40.3184 143.81 40.2273 143.455 40.2273C143.114 40.2273 142.827 40.3137 142.595 40.4865C142.363 40.657 142.188 40.8961 142.07 41.2038C141.951 41.5092 141.892 41.8655 141.892 42.2727ZM151.256 39.5455C151.214 39.1856 151.041 38.9062 150.738 38.7074C150.435 38.5085 150.063 38.4091 149.623 38.4091C149.301 38.4091 149.019 38.4612 148.778 38.5653C148.539 38.6695 148.352 38.8127 148.217 38.995C148.084 39.1773 148.018 39.3845 148.018 39.6165C148.018 39.8106 148.064 39.9775 148.156 40.1172C148.251 40.2545 148.372 40.3693 148.518 40.4616C148.665 40.5516 148.819 40.6262 148.98 40.6854C149.141 40.7422 149.289 40.7884 149.424 40.8239L150.163 41.0227C150.352 41.0724 150.563 41.1411 150.795 41.2287C151.029 41.3163 151.253 41.4358 151.466 41.5874C151.681 41.7365 151.859 41.9283 151.999 42.1626C152.138 42.397 152.208 42.6847 152.208 43.0256C152.208 43.4186 152.105 43.7737 151.899 44.0909C151.696 44.4081 151.397 44.6603 151.004 44.8473C150.614 45.0343 150.139 45.1278 149.58 45.1278C149.059 45.1278 148.608 45.0438 148.227 44.8757C147.848 44.7076 147.55 44.4732 147.332 44.1726C147.117 43.8719 146.995 43.5227 146.967 43.125H147.876C147.899 43.3996 147.992 43.6269 148.153 43.8068C148.316 43.9844 148.522 44.117 148.771 44.2045C149.022 44.2898 149.291 44.3324 149.58 44.3324C149.916 44.3324 150.218 44.2779 150.486 44.169C150.753 44.0578 150.965 43.9039 151.121 43.7074C151.278 43.5085 151.356 43.2765 151.356 43.0114C151.356 42.7699 151.288 42.5734 151.153 42.4219C151.018 42.2704 150.841 42.1473 150.621 42.0526C150.401 41.9579 150.163 41.875 149.907 41.804L149.012 41.5483C148.444 41.3849 147.994 41.1518 147.663 40.8487C147.331 40.5457 147.165 40.1491 147.165 39.6591C147.165 39.2519 147.276 38.8968 147.496 38.5938C147.718 38.2884 148.017 38.0516 148.391 37.8835C148.767 37.7131 149.187 37.6278 149.651 37.6278C150.12 37.6278 150.537 37.7119 150.901 37.88C151.266 38.0457 151.555 38.273 151.768 38.5618C151.983 38.8506 152.097 39.1785 152.109 39.5455H151.256ZM157.264 47.0455V44.1619H157.193C157.131 44.2614 157.044 44.3868 156.93 44.5384C156.817 44.6875 156.654 44.8213 156.444 44.9396C156.233 45.0556 155.952 45.1136 155.602 45.1136C155.148 45.1136 154.746 44.9988 154.398 44.7692C154.05 44.5372 153.778 44.2105 153.581 43.7891C153.385 43.3653 153.287 42.8646 153.287 42.2869C153.287 41.714 153.385 41.2169 153.581 40.7955C153.778 40.3741 154.051 40.0485 154.402 39.8189C154.752 39.5893 155.157 39.4744 155.616 39.4744C155.971 39.4744 156.252 39.5336 156.458 39.652C156.666 39.768 156.825 39.9006 156.934 40.0497C157.045 40.1965 157.131 40.3172 157.193 40.4119H157.292V39.5455H158.102V47.0455H157.264ZM155.716 44.3608C156.052 44.3608 156.336 44.2732 156.568 44.098C156.8 43.9205 156.976 43.6754 157.097 43.3629C157.218 43.0481 157.278 42.6847 157.278 42.2727C157.278 41.8655 157.219 41.5092 157.101 41.2038C156.982 40.8961 156.807 40.657 156.575 40.4865C156.343 40.3137 156.057 40.2273 155.716 40.2273C155.361 40.2273 155.065 40.3184 154.828 40.5007C154.594 40.6806 154.417 40.9257 154.299 41.2358C154.183 41.5436 154.125 41.8892 154.125 42.2727C154.125 42.661 154.184 43.0137 154.302 43.331C154.423 43.6458 154.601 43.8968 154.835 44.0838C155.072 44.2685 155.365 44.3608 155.716 44.3608ZM163.074 42.7699V39.5455H163.912V45H163.074V44.0767H163.017C162.889 44.3537 162.69 44.5893 162.42 44.7834C162.15 44.9751 161.809 45.071 161.398 45.071C161.057 45.071 160.754 44.9964 160.488 44.8473C160.223 44.6958 160.015 44.4685 159.863 44.1655C159.712 43.8601 159.636 43.4754 159.636 43.0114V39.5455H160.474V42.9545C160.474 43.3523 160.586 43.6695 160.808 43.9062C161.033 44.143 161.319 44.2614 161.667 44.2614C161.876 44.2614 162.088 44.2081 162.303 44.1016C162.521 43.995 162.703 43.8317 162.85 43.6115C162.999 43.3913 163.074 43.1108 163.074 42.7699ZM167.052 45.1278C166.706 45.1278 166.393 45.0627 166.111 44.9325C165.829 44.8 165.605 44.6094 165.44 44.3608C165.274 44.1098 165.191 43.8068 165.191 43.4517C165.191 43.1392 165.253 42.8859 165.376 42.6918C165.499 42.4953 165.663 42.3414 165.869 42.2301C166.075 42.1188 166.303 42.036 166.551 41.9815C166.802 41.9247 167.054 41.8797 167.308 41.8466C167.639 41.804 167.908 41.772 168.114 41.7507C168.322 41.727 168.473 41.688 168.568 41.6335C168.665 41.5791 168.714 41.4844 168.714 41.3494V41.321C168.714 40.9706 168.618 40.6984 168.426 40.5043C168.237 40.3101 167.949 40.2131 167.563 40.2131C167.163 40.2131 166.849 40.3007 166.622 40.4759C166.395 40.651 166.235 40.8381 166.143 41.0369L165.347 40.7528C165.489 40.4214 165.679 40.1634 165.915 39.9787C166.155 39.7917 166.415 39.6615 166.697 39.5881C166.981 39.5123 167.26 39.4744 167.535 39.4744C167.71 39.4744 167.911 39.4957 168.138 39.5384C168.368 39.5786 168.589 39.6626 168.803 39.7905C169.018 39.9183 169.197 40.1113 169.339 40.3693C169.481 40.6274 169.552 40.973 169.552 41.4062V45H168.714V44.2614H168.671C168.614 44.3797 168.52 44.5064 168.387 44.6413C168.254 44.7763 168.078 44.8911 167.858 44.9858C167.638 45.0805 167.369 45.1278 167.052 45.1278ZM167.18 44.375C167.511 44.375 167.79 44.3099 168.018 44.1797C168.247 44.0495 168.42 43.8814 168.536 43.6754C168.655 43.4695 168.714 43.2528 168.714 43.0256V42.2585C168.678 42.3011 168.6 42.3402 168.479 42.3757C168.361 42.4089 168.224 42.4384 168.067 42.4645C167.914 42.4882 167.763 42.5095 167.616 42.5284C167.472 42.545 167.355 42.5592 167.265 42.571C167.047 42.5994 166.844 42.6456 166.654 42.7095C166.467 42.7711 166.316 42.8646 166.2 42.9901C166.086 43.1132 166.029 43.2812 166.029 43.4943C166.029 43.7855 166.137 44.0057 166.352 44.1548C166.57 44.3016 166.846 44.375 167.18 44.375ZM171.081 45V39.5455H171.891V40.3693H171.948C172.047 40.0994 172.227 39.8804 172.488 39.7124C172.748 39.5443 173.042 39.4602 173.368 39.4602C173.43 39.4602 173.507 39.4614 173.599 39.4638C173.692 39.4661 173.761 39.4697 173.809 39.4744V40.3267C173.78 40.3196 173.715 40.3089 173.613 40.2947C173.514 40.2782 173.409 40.2699 173.297 40.2699C173.032 40.2699 172.796 40.3255 172.587 40.4368C172.381 40.5457 172.218 40.6972 172.097 40.8913C171.979 41.0831 171.92 41.3021 171.92 41.5483V45H171.081ZM176.923 45.1136C176.398 45.1136 175.944 44.9976 175.563 44.7656C175.184 44.5312 174.892 44.2045 174.686 43.7855C174.482 43.3641 174.381 42.8741 174.381 42.3153C174.381 41.7566 174.482 41.2642 174.686 40.8381C174.892 40.4096 175.178 40.0758 175.545 39.8366C175.915 39.5952 176.345 39.4744 176.838 39.4744C177.122 39.4744 177.403 39.5218 177.68 39.6165C177.956 39.7112 178.209 39.8651 178.436 40.0781C178.663 40.2888 178.844 40.5682 178.979 40.9162C179.114 41.2642 179.182 41.6927 179.182 42.2017V42.5568H174.977V41.8324H178.329C178.329 41.5246 178.268 41.25 178.145 41.0085C178.024 40.767 177.851 40.5765 177.626 40.4368C177.404 40.2971 177.141 40.2273 176.838 40.2273C176.504 40.2273 176.215 40.3101 175.971 40.4759C175.73 40.6392 175.544 40.8523 175.414 41.1151C175.284 41.3778 175.219 41.6596 175.219 41.9602V42.4432C175.219 42.8551 175.29 43.2043 175.432 43.4908C175.576 43.7749 175.776 43.9915 176.032 44.1406C176.287 44.2874 176.585 44.3608 176.923 44.3608C177.143 44.3608 177.342 44.33 177.52 44.2685C177.7 44.2045 177.855 44.1098 177.985 43.9844C178.115 43.8565 178.216 43.6979 178.287 43.5085L179.096 43.7358C179.011 44.0104 178.868 44.2519 178.667 44.4602C178.465 44.6662 178.217 44.8272 177.921 44.9432C177.625 45.0568 177.292 45.1136 176.923 45.1136Z" fill="white" fill-opacity="0.25"/>
<defs>
<linearGradient id="paint0_linear_7032_48030" x1="27.6791" y1="46.0531" x2="8.91328" y2="17.5114" gradientUnits="userSpaceOnUse">
<stop offset="0.0076157" stop-color="#645AFF"/>
<stop offset="0.484678" stop-color="#E40C5B"/>
<stop offset="1" stop-color="#FF4C3B"/>
</linearGradient>
<linearGradient id="paint1_linear_7032_48030" x1="27.6792" y1="46.0531" x2="8.91333" y2="17.5114" gradientUnits="userSpaceOnUse">
<stop offset="0.0076157" stop-color="#645AFF"/>
<stop offset="0.484678" stop-color="#E40C5B"/>
<stop offset="1" stop-color="#FF4C3B"/>
</linearGradient>
<linearGradient id="paint2_linear_7032_48030" x1="27.6792" y1="46.0531" x2="8.91333" y2="17.5114" gradientUnits="userSpaceOnUse">
<stop offset="0.0076157" stop-color="#645AFF"/>
<stop offset="0.484678" stop-color="#E40C5B"/>
<stop offset="1" stop-color="#FF4C3B"/>
</linearGradient>
<linearGradient id="paint3_linear_7032_48030" x1="27.6791" y1="46.0531" x2="8.91331" y2="17.5114" gradientUnits="userSpaceOnUse">
<stop offset="0.0076157" stop-color="#645AFF"/>
<stop offset="0.484678" stop-color="#E40C5B"/>
<stop offset="1" stop-color="#FF4C3B"/>
</linearGradient>
<linearGradient id="paint4_linear_7032_48030" x1="27.6791" y1="46.0531" x2="8.91331" y2="17.5114" gradientUnits="userSpaceOnUse">
<stop offset="0.0076157" stop-color="#645AFF"/>
<stop offset="0.484678" stop-color="#E40C5B"/>
<stop offset="1" stop-color="#FF4C3B"/>
</linearGradient>
<linearGradient id="paint5_linear_7032_48030" x1="92.6472" y1="37.8896" x2="88.4007" y2="15.496" gradientUnits="userSpaceOnUse">
<stop stop-color="#5A81FF"/>
<stop offset="0.5238" stop-color="#E40C5B"/>
<stop offset="1" stop-color="#FF4C3B"/>
</linearGradient>
<linearGradient id="paint6_linear_7032_48030" x1="92.6473" y1="37.8895" x2="88.4008" y2="15.4959" gradientUnits="userSpaceOnUse">
<stop stop-color="#5A81FF"/>
<stop offset="0.5238" stop-color="#E40C5B"/>
<stop offset="1" stop-color="#FF4C3B"/>
</linearGradient>
<linearGradient id="paint7_linear_7032_48030" x1="92.6473" y1="37.8895" x2="88.4007" y2="15.496" gradientUnits="userSpaceOnUse">
<stop stop-color="#5A81FF"/>
<stop offset="0.5238" stop-color="#E40C5B"/>
<stop offset="1" stop-color="#FF4C3B"/>
</linearGradient>
<linearGradient id="paint8_linear_7032_48030" x1="92.6473" y1="37.8895" x2="88.4007" y2="15.496" gradientUnits="userSpaceOnUse">
<stop stop-color="#5A81FF"/>
<stop offset="0.5238" stop-color="#E40C5B"/>
<stop offset="1" stop-color="#FF4C3B"/>
</linearGradient>
<linearGradient id="paint9_linear_7032_48030" x1="92.6473" y1="37.8895" x2="88.4007" y2="15.4959" gradientUnits="userSpaceOnUse">
<stop stop-color="#5A81FF"/>
<stop offset="0.5238" stop-color="#E40C5B"/>
<stop offset="1" stop-color="#FF4C3B"/>
</linearGradient>
</defs>
</svg>
