<svg width="186" height="64" viewBox="0 0 186 64" fill="none" xmlns="http://www.w3.org/2000/svg">
    <path d="M35.8881 22.9157C35.742 23.2956 29.6068 19.4821 24.0038 22.0838C19.9302 23.9754 18.2473 27.6426 18.2473 30.7695C18.2473 33.2334 19.1122 35.0949 20.0576 36.3079C21.5953 38.2809 23.0258 39.0231 24.2612 39.6827C26.2511 40.7451 29.6356 40.7805 30.6631 40.7278C32.5763 40.6295 34.8242 40.0822 36.7199 39.2069C37.4435 38.8728 38.6187 38.1479 39.6482 37.3371C41.4061 35.9527 43.0252 34.2112 42.997 34.346C42.9522 34.5597 42.9703 34.7287 42.0913 36.2547C39.4867 40.776 35.1565 42.7483 35.1565 42.7483C29.0562 45.9408 23.6427 44.2849 22.5904 43.8875C17.9713 42.1426 15.5623 38.8714 14.9994 37.8312C14.0815 36.1344 12.4359 29.9028 14.6408 24.9495C16.2748 21.2789 20.0629 19.4754 20.4812 19.3028C27.2308 16.5161 36.0208 22.5705 35.8881 22.9157Z"
          fill="url(#paint0_linear_8481_43287)"/>
    <path d="M36.0805 22.5993C35.8063 22.8507 33.836 20.5115 30.6726 18.8222C29.7682 18.3393 26.3177 16.6038 22.1034 16.6929C15.1172 16.8399 10.4745 21.9091 9.64666 22.8486C5.50873 27.544 3.56051 34.7742 5.88794 40.4005C8.91269 47.7118 19.0333 51.9171 18.2636 52L17.3783 51.72C16.3101 51.3033 3.20007 45.4633 2.73052 33.8259C2.4658 27.2684 4.59737 21.9579 5.88794 20.5082C8.14293 17.9753 9.95105 16.7558 11.4753 15.9504C14.5383 14.3331 20.2985 12.9473 24.5737 13.5839C29.3705 14.2985 32.3815 17.6107 33.8497 19.2259C35.1743 20.6826 36.3021 22.3961 36.0805 22.5993Z"
          fill="url(#paint1_linear_8481_43287)"/>
    <path d="M36.0463 22.9093C36.3704 22.767 35.9378 18.4126 33.0767 15.1013C31.923 13.7632 30.6542 12.5465 29.0967 11.695C22.6572 8.24461 14.7395 11.0193 13.0256 11.695C11.27 12.3869 7.52394 14.2775 4.37906 18.1567C0.834086 22.5298 0.309088 27.2214 0.107259 29.2751C-0.755208 38.0442 3.857 44.931 4.18528 44.8271C4.37659 44.7667 2.28414 40.3848 2.73102 33.8261C2.90126 31.3293 3.25094 26.756 6.45367 22.3664C8.39375 19.7776 10.6381 17.6226 13.566 16.1999C15.2602 15.3725 21.3222 12.7055 27.3929 14.8235C29.2425 15.4821 30.9455 16.4873 32.4079 17.7838C35.0507 20.1718 35.7812 23.026 36.0463 22.9093Z"
          fill="url(#paint2_linear_8481_43287)"/>
    <path d="M26.7195 47.472C26.5674 47.7277 16.0643 44.7646 12.1187 37.462C11.5248 36.3633 8.78246 30.5073 10.5816 25.9483C11.3341 24.0414 12.8155 21.9066 13.4138 21.2435C14.3803 20.1726 16.02 19.2098 18.102 18.3374C19.0375 17.9546 20.7466 17.5561 21.7506 17.4242C22.7459 17.303 24.2745 17.329 25.2725 17.4242C27.213 17.6091 29.8353 19.849 29.7615 19.849C29.7417 19.849 27.6803 19.1956 25.5487 19.0508C23.7818 18.9308 21.8653 19.3364 21.1857 19.5739C19.6859 20.0981 17.6303 21.2435 16.4417 22.6907C15.2532 24.1379 14.2386 26.1834 14.0225 28.9254C13.8641 30.9354 14.0815 33.8674 14.9628 36.1533C15.3853 37.2489 16.1129 38.6433 17.5114 40.4797C20.4882 44.3883 26.8294 47.2887 26.7195 47.472Z"
          fill="url(#paint3_linear_8481_43287)"/>
    <path d="M21.0288 16.5071C22.8509 16.2475 24.4104 16.1579 26.2171 16.5071C28.2904 16.9188 29.4372 17.3431 30.8494 18.0571C33.2612 19.2765 36.3138 22.4033 36.0812 22.8727C35.6672 23.7092 29.24 16.9872 20.4103 19.3006C17.9134 20.1431 16.3733 20.9299 14.7786 22.1315C12.0625 24.1782 10.7166 26.8704 10.2913 27.9713C9.56113 29.8615 9.36286 30.9251 9.27446 32.9366C9.27446 35.6449 9.78716 37.2158 10.4073 38.9378C11.2894 41.3888 12.9346 44.1906 12.6703 44.0092C9.64781 41.9334 7.75904 35.5289 7.55036 34.2016C7.34167 32.8742 6.45057 27.1247 10.2913 22.3373C13.7927 17.973 19.6707 16.7027 21.0288 16.5071Z"
          fill="url(#paint4_linear_8481_43287)"/>
    <path d="M29.7736 27.6339L29.6142 27.9806C29.245 27.6752 28.7666 27.5017 28.2294 27.5017C26.8446 27.5017 25.8542 28.4846 25.8542 29.8638C25.8542 31.2513 26.8446 32.2424 28.2294 32.2424C28.7582 32.2424 29.2281 32.0772 29.5973 31.7799L29.7316 32.0937H30.9402V27.6339H29.7736ZM28.4392 30.8879C27.8518 30.8879 27.4237 30.4501 27.4237 29.8638C27.4237 29.2857 27.8518 28.8562 28.4392 28.8562C29.0268 28.8562 29.4548 29.2857 29.4548 29.8638C29.4548 30.4501 29.0268 30.8879 28.4392 30.8879Z"
          fill="white"/>
    <path d="M32.4949 32.0938H34.0559V26.0234H32.4949V32.0938Z" fill="white"/>
    <path d="M38.2834 30.7553C37.956 30.7553 37.7546 30.5571 37.7546 30.2432V28.8227H38.8541V27.6334H37.7211V26.3367H37.3937L35.3628 28.4592V28.8227H36.1935V30.4992C36.1935 31.4904 36.8062 32.0932 37.805 32.0932H38.8792V30.7553H38.2834Z"
          fill="white"/>
    <path d="M44.2148 27.6339L44.0552 27.9806C43.686 27.6752 43.2076 27.5017 42.6705 27.5017C41.2857 27.5017 40.2954 28.4846 40.2954 29.8638C40.2954 31.2513 41.2857 32.2424 42.6705 32.2424C43.1991 32.2424 43.6691 32.0772 44.0385 31.7799L44.1728 32.0937H45.3813V27.6339H44.2148ZM42.8803 30.8879C42.2927 30.8879 41.8647 30.4501 41.8647 29.8638C41.8647 29.2857 42.2927 28.8562 42.8803 28.8562C43.4678 28.8562 43.8958 29.2857 43.8958 29.8638C43.8958 30.4501 43.4678 30.8879 42.8803 30.8879Z"
          fill="white"/>
    <path d="M46.9443 27.0801H48.4887V25.7751H46.9443V27.0801ZM46.936 32.0933H48.4969V27.6335H46.936V32.0933Z"
          fill="white"/>
    <path d="M52.5806 27.6169C52.0434 27.6169 51.6573 27.7657 51.3384 28.129L51.095 27.6335H50.0459V32.0933H51.607V29.8304C51.607 29.2605 51.842 29.021 52.3875 29.021H53.0002V27.6169H52.5806Z"
          fill="white"/>
    <path d="M69 25V37" stroke="white" stroke-opacity="0.2"/>
    <path d="M93.896 24.224H96.264V28.768C95.656 29.2267 94.952 29.5787 94.152 29.824C93.352 30.0693 92.5467 30.192 91.736 30.192C90.5733 30.192 89.528 29.9467 88.6 29.456C87.672 28.9547 86.9413 28.2667 86.408 27.392C85.8853 26.5067 85.624 25.5093 85.624 24.4C85.624 23.2907 85.8853 22.2987 86.408 21.424C86.9413 20.5387 87.6773 19.8507 88.616 19.36C89.5547 18.8587 90.6107 18.608 91.784 18.608C92.7653 18.608 93.656 18.7733 94.456 19.104C95.256 19.4347 95.928 19.9147 96.472 20.544L94.808 22.08C94.008 21.2373 93.0427 20.816 91.912 20.816C91.1973 20.816 90.5627 20.9653 90.008 21.264C89.4533 21.5627 89.0213 21.984 88.712 22.528C88.4027 23.072 88.248 23.696 88.248 24.4C88.248 25.0933 88.4027 25.712 88.712 26.256C89.0213 26.8 89.448 27.2267 89.992 27.536C90.5467 27.8347 91.176 27.984 91.88 27.984C92.6267 27.984 93.2987 27.824 93.896 27.504V24.224ZM102.592 30.128C101.685 30.128 100.869 29.9413 100.144 29.568C99.4291 29.184 98.8691 28.656 98.4638 27.984C98.0584 27.312 97.8558 26.5493 97.8558 25.696C97.8558 24.8427 98.0584 24.08 98.4638 23.408C98.8691 22.736 99.4291 22.2133 100.144 21.84C100.869 21.456 101.685 21.264 102.592 21.264C103.498 21.264 104.309 21.456 105.024 21.84C105.738 22.2133 106.298 22.736 106.704 23.408C107.109 24.08 107.312 24.8427 107.312 25.696C107.312 26.5493 107.109 27.312 106.704 27.984C106.298 28.656 105.738 29.184 105.024 29.568C104.309 29.9413 103.498 30.128 102.592 30.128ZM102.592 28.08C103.232 28.08 103.754 27.8667 104.16 27.44C104.576 27.0027 104.784 26.4213 104.784 25.696C104.784 24.9707 104.576 24.3947 104.16 23.968C103.754 23.5307 103.232 23.312 102.592 23.312C101.952 23.312 101.424 23.5307 101.008 23.968C100.592 24.3947 100.384 24.9707 100.384 25.696C100.384 26.4213 100.592 27.0027 101.008 27.44C101.424 27.8667 101.952 28.08 102.592 28.08ZM117.29 21.392L113.658 30H111.082L107.466 21.392H110.042L112.426 27.248L114.89 21.392H117.29ZM126.506 25.728C126.506 25.76 126.49 25.984 126.458 26.4H119.946C120.063 26.9333 120.341 27.3547 120.778 27.664C121.215 27.9733 121.759 28.128 122.41 28.128C122.858 28.128 123.253 28.064 123.594 27.936C123.946 27.7973 124.271 27.584 124.57 27.296L125.898 28.736C125.087 29.664 123.903 30.128 122.346 30.128C121.375 30.128 120.517 29.9413 119.77 29.568C119.023 29.184 118.447 28.656 118.042 27.984C117.637 27.312 117.434 26.5493 117.434 25.696C117.434 24.8533 117.631 24.096 118.026 23.424C118.431 22.7413 118.981 22.2133 119.674 21.84C120.378 21.456 121.162 21.264 122.026 21.264C122.869 21.264 123.631 21.4453 124.314 21.808C124.997 22.1707 125.53 22.6933 125.914 23.376C126.309 24.048 126.506 24.832 126.506 25.728ZM122.042 23.152C121.477 23.152 121.002 23.312 120.618 23.632C120.234 23.952 119.999 24.3893 119.914 24.944H124.154C124.069 24.4 123.834 23.968 123.45 23.648C123.066 23.3173 122.597 23.152 122.042 23.152ZM130.552 22.528C130.85 22.112 131.25 21.7973 131.752 21.584C132.264 21.3707 132.85 21.264 133.512 21.264V23.568C133.234 23.5467 133.048 23.536 132.952 23.536C132.237 23.536 131.677 23.7387 131.272 24.144C130.866 24.5387 130.664 25.136 130.664 25.936V30H128.168V21.392H130.552V22.528ZM140.228 21.264C141.294 21.264 142.153 21.584 142.804 22.224C143.465 22.864 143.796 23.8133 143.796 25.072V30H141.3V25.456C141.3 24.7733 141.15 24.2667 140.852 23.936C140.553 23.5947 140.121 23.424 139.556 23.424C138.926 23.424 138.425 23.6213 138.052 24.016C137.678 24.4 137.492 24.976 137.492 25.744V30H134.996V21.392H137.38V22.4C137.71 22.0373 138.121 21.76 138.612 21.568C139.102 21.3653 139.641 21.264 140.228 21.264ZM149.53 21.264C150.864 21.264 151.888 21.584 152.602 22.224C153.317 22.8533 153.674 23.808 153.674 25.088V30H151.338V28.928C150.869 29.728 149.994 30.128 148.714 30.128C148.053 30.128 147.477 30.016 146.986 29.792C146.506 29.568 146.138 29.2587 145.882 28.864C145.626 28.4693 145.498 28.0213 145.498 27.52C145.498 26.72 145.797 26.0907 146.394 25.632C147.002 25.1733 147.936 24.944 149.194 24.944H151.178C151.178 24.4 151.013 23.984 150.682 23.696C150.352 23.3973 149.856 23.248 149.194 23.248C148.736 23.248 148.282 23.3227 147.834 23.472C147.397 23.6107 147.024 23.8027 146.714 24.048L145.818 22.304C146.288 21.9733 146.848 21.7173 147.498 21.536C148.16 21.3547 148.837 21.264 149.53 21.264ZM149.338 28.448C149.765 28.448 150.144 28.352 150.474 28.16C150.805 27.9573 151.04 27.664 151.178 27.28V26.4H149.466C148.442 26.4 147.93 26.736 147.93 27.408C147.93 27.728 148.053 27.984 148.298 28.176C148.554 28.3573 148.901 28.448 149.338 28.448ZM161.165 21.264C162.232 21.264 163.091 21.584 163.741 22.224C164.403 22.864 164.733 23.8133 164.733 25.072V30H162.237V25.456C162.237 24.7733 162.088 24.2667 161.789 23.936C161.491 23.5947 161.059 23.424 160.493 23.424C159.864 23.424 159.363 23.6213 158.989 24.016C158.616 24.4 158.429 24.976 158.429 25.744V30H155.933V21.392H158.317V22.4C158.648 22.0373 159.059 21.76 159.549 21.568C160.04 21.3653 160.579 21.264 161.165 21.264ZM171.25 30.128C170.332 30.128 169.506 29.9413 168.77 29.568C168.044 29.184 167.474 28.656 167.058 27.984C166.652 27.312 166.45 26.5493 166.45 25.696C166.45 24.8427 166.652 24.08 167.058 23.408C167.474 22.736 168.044 22.2133 168.77 21.84C169.506 21.456 170.332 21.264 171.25 21.264C172.156 21.264 172.946 21.456 173.618 21.84C174.3 22.2133 174.796 22.752 175.106 23.456L173.17 24.496C172.722 23.7067 172.076 23.312 171.234 23.312C170.583 23.312 170.044 23.5253 169.618 23.952C169.191 24.3787 168.978 24.96 168.978 25.696C168.978 26.432 169.191 27.0133 169.618 27.44C170.044 27.8667 170.583 28.08 171.234 28.08C172.087 28.08 172.732 27.6853 173.17 26.896L175.106 27.952C174.796 28.6347 174.3 29.168 173.618 29.552C172.946 29.936 172.156 30.128 171.25 30.128ZM184.865 25.728C184.865 25.76 184.849 25.984 184.817 26.4H178.305C178.423 26.9333 178.7 27.3547 179.137 27.664C179.575 27.9733 180.119 28.128 180.769 28.128C181.217 28.128 181.612 28.064 181.953 27.936C182.305 27.7973 182.631 27.584 182.929 27.296L184.257 28.736C183.447 29.664 182.263 30.128 180.705 30.128C179.735 30.128 178.876 29.9413 178.129 29.568C177.383 29.184 176.807 28.656 176.401 27.984C175.996 27.312 175.793 26.5493 175.793 25.696C175.793 24.8533 175.991 24.096 176.385 23.424C176.791 22.7413 177.34 22.2133 178.033 21.84C178.737 21.456 179.521 21.264 180.385 21.264C181.228 21.264 181.991 21.4453 182.673 21.808C183.356 22.1707 183.889 22.6933 184.273 23.376C184.668 24.048 184.865 24.832 184.865 25.728ZM180.401 23.152C179.836 23.152 179.361 23.312 178.977 23.632C178.593 23.952 178.359 24.3893 178.273 24.944H182.513C182.428 24.4 182.193 23.968 181.809 23.648C181.425 23.3173 180.956 23.152 180.401 23.152Z"
          fill="white"/>
    <path d="M89.858 39.5455C89.8153 39.1856 89.6425 38.9062 89.3395 38.7074C89.0365 38.5085 88.6648 38.4091 88.2244 38.4091C87.9025 38.4091 87.6207 38.4612 87.3793 38.5653C87.1402 38.6695 86.9531 38.8127 86.8182 38.995C86.6856 39.1773 86.6193 39.3845 86.6193 39.6165C86.6193 39.8106 86.6655 39.9775 86.7578 40.1172C86.8525 40.2545 86.9732 40.3693 87.12 40.4616C87.2668 40.5516 87.4207 40.6262 87.5817 40.6854C87.7427 40.7422 87.8906 40.7884 88.0256 40.8239L88.7642 41.0227C88.9536 41.0724 89.1643 41.1411 89.3963 41.2287C89.6307 41.3163 89.8544 41.4358 90.0675 41.5874C90.2829 41.7365 90.4605 41.9283 90.6001 42.1626C90.7398 42.397 90.8097 42.6847 90.8097 43.0256C90.8097 43.4186 90.7067 43.7737 90.5007 44.0909C90.2971 44.4081 89.9988 44.6603 89.6058 44.8473C89.2152 45.0343 88.7405 45.1278 88.1818 45.1278C87.661 45.1278 87.21 45.0438 86.8288 44.8757C86.45 44.7076 86.1518 44.4732 85.9339 44.1726C85.7185 43.8719 85.5966 43.5227 85.5682 43.125H86.4773C86.5009 43.3996 86.5933 43.6269 86.7543 43.8068C86.9176 43.9844 87.1236 44.117 87.3722 44.2045C87.6231 44.2898 87.893 44.3324 88.1818 44.3324C88.518 44.3324 88.8198 44.2779 89.0874 44.169C89.3549 44.0578 89.5668 43.9039 89.723 43.7074C89.8793 43.5085 89.9574 43.2765 89.9574 43.0114C89.9574 42.7699 89.8899 42.5734 89.755 42.4219C89.62 42.2704 89.4425 42.1473 89.2223 42.0526C89.0021 41.9579 88.7642 41.875 88.5085 41.804L87.6136 41.5483C87.0455 41.3849 86.5956 41.1518 86.2642 40.8487C85.9328 40.5457 85.767 40.1491 85.767 39.6591C85.767 39.2519 85.8771 38.8968 86.0973 38.5938C86.3198 38.2884 86.6181 38.0516 86.9922 37.8835C87.3686 37.7131 87.7888 37.6278 88.2528 37.6278C88.7216 37.6278 89.1383 37.7119 89.5028 37.88C89.8674 38.0457 90.1563 38.273 90.3693 38.5618C90.5848 38.8506 90.6984 39.1785 90.7102 39.5455H89.858ZM95.5815 42.7699V39.5455H96.4196V45H95.5815V44.0767H95.5247C95.3968 44.3537 95.198 44.5893 94.9281 44.7834C94.6582 44.9751 94.3173 45.071 93.9054 45.071C93.5645 45.071 93.2614 44.9964 92.9963 44.8473C92.7311 44.6958 92.5228 44.4685 92.3713 44.1655C92.2198 43.8601 92.144 43.4754 92.144 43.0114V39.5455H92.9821V42.9545C92.9821 43.3523 93.0933 43.6695 93.3159 43.9062C93.5408 44.143 93.8272 44.2614 94.1752 44.2614C94.3836 44.2614 94.5955 44.2081 94.8109 44.1016C95.0287 43.995 95.211 43.8317 95.3578 43.6115C95.5069 43.3913 95.5815 43.1108 95.5815 42.7699ZM98.0682 45V37.7273H98.9062V40.4119H98.9773C99.0388 40.3172 99.1241 40.1965 99.233 40.0497C99.3442 39.9006 99.5028 39.768 99.7088 39.652C99.9171 39.5336 100.199 39.4744 100.554 39.4744C101.013 39.4744 101.418 39.5893 101.768 39.8189C102.119 40.0485 102.392 40.3741 102.589 40.7955C102.785 41.2169 102.884 41.714 102.884 42.2869C102.884 42.8646 102.785 43.3653 102.589 43.7891C102.392 44.2105 102.12 44.5372 101.772 44.7692C101.424 44.9988 101.023 45.1136 100.568 45.1136C100.218 45.1136 99.9373 45.0556 99.7266 44.9396C99.5159 44.8213 99.3537 44.6875 99.2401 44.5384C99.1264 44.3868 99.0388 44.2614 98.9773 44.1619H98.8778V45H98.0682ZM98.892 42.2727C98.892 42.6847 98.9524 43.0481 99.0732 43.3629C99.1939 43.6754 99.3703 43.9205 99.6023 44.098C99.8343 44.2732 100.118 44.3608 100.455 44.3608C100.805 44.3608 101.097 44.2685 101.332 44.0838C101.568 43.8968 101.746 43.6458 101.864 43.331C101.985 43.0137 102.045 42.661 102.045 42.2727C102.045 41.8892 101.986 41.5436 101.868 41.2358C101.752 40.9257 101.576 40.6806 101.339 40.5007C101.104 40.3184 100.81 40.2273 100.455 40.2273C100.114 40.2273 99.8272 40.3137 99.5952 40.4865C99.3632 40.657 99.188 40.8961 99.0696 41.2038C98.9512 41.5092 98.892 41.8655 98.892 42.2727ZM108.256 39.5455C108.214 39.1856 108.041 38.9062 107.738 38.7074C107.435 38.5085 107.063 38.4091 106.623 38.4091C106.301 38.4091 106.019 38.4612 105.778 38.5653C105.539 38.6695 105.352 38.8127 105.217 38.995C105.084 39.1773 105.018 39.3845 105.018 39.6165C105.018 39.8106 105.064 39.9775 105.156 40.1172C105.251 40.2545 105.372 40.3693 105.518 40.4616C105.665 40.5516 105.819 40.6262 105.98 40.6854C106.141 40.7422 106.289 40.7884 106.424 40.8239L107.163 41.0227C107.352 41.0724 107.563 41.1411 107.795 41.2287C108.029 41.3163 108.253 41.4358 108.466 41.5874C108.681 41.7365 108.859 41.9283 108.999 42.1626C109.138 42.397 109.208 42.6847 109.208 43.0256C109.208 43.4186 109.105 43.7737 108.899 44.0909C108.696 44.4081 108.397 44.6603 108.004 44.8473C107.614 45.0343 107.139 45.1278 106.58 45.1278C106.059 45.1278 105.608 45.0438 105.227 44.8757C104.848 44.7076 104.55 44.4732 104.332 44.1726C104.117 43.8719 103.995 43.5227 103.967 43.125H104.876C104.899 43.3996 104.992 43.6269 105.153 43.8068C105.316 43.9844 105.522 44.117 105.771 44.2045C106.022 44.2898 106.291 44.3324 106.58 44.3324C106.916 44.3324 107.218 44.2779 107.486 44.169C107.753 44.0578 107.965 43.9039 108.121 43.7074C108.278 43.5085 108.356 43.2765 108.356 43.0114C108.356 42.7699 108.288 42.5734 108.153 42.4219C108.018 42.2704 107.841 42.1473 107.621 42.0526C107.401 41.9579 107.163 41.875 106.907 41.804L106.012 41.5483C105.444 41.3849 104.994 41.1518 104.663 40.8487C104.331 40.5457 104.165 40.1491 104.165 39.6591C104.165 39.2519 104.276 38.8968 104.496 38.5938C104.718 38.2884 105.017 38.0516 105.391 37.8835C105.767 37.7131 106.187 37.6278 106.651 37.6278C107.12 37.6278 107.537 37.7119 107.901 37.88C108.266 38.0457 108.555 38.273 108.768 38.5618C108.983 38.8506 109.097 39.1785 109.109 39.5455H108.256ZM114.264 47.0455V44.1619H114.193C114.131 44.2614 114.044 44.3868 113.93 44.5384C113.817 44.6875 113.654 44.8213 113.444 44.9396C113.233 45.0556 112.952 45.1136 112.602 45.1136C112.148 45.1136 111.746 44.9988 111.398 44.7692C111.05 44.5372 110.778 44.2105 110.581 43.7891C110.385 43.3653 110.287 42.8646 110.287 42.2869C110.287 41.714 110.385 41.2169 110.581 40.7955C110.778 40.3741 111.051 40.0485 111.402 39.8189C111.752 39.5893 112.157 39.4744 112.616 39.4744C112.971 39.4744 113.252 39.5336 113.458 39.652C113.666 39.768 113.825 39.9006 113.934 40.0497C114.045 40.1965 114.131 40.3172 114.193 40.4119H114.292V39.5455H115.102V47.0455H114.264ZM112.716 44.3608C113.052 44.3608 113.336 44.2732 113.568 44.098C113.8 43.9205 113.976 43.6754 114.097 43.3629C114.218 43.0481 114.278 42.6847 114.278 42.2727C114.278 41.8655 114.219 41.5092 114.101 41.2038C113.982 40.8961 113.807 40.657 113.575 40.4865C113.343 40.3137 113.057 40.2273 112.716 40.2273C112.361 40.2273 112.065 40.3184 111.828 40.5007C111.594 40.6806 111.417 40.9257 111.299 41.2358C111.183 41.5436 111.125 41.8892 111.125 42.2727C111.125 42.661 111.184 43.0137 111.302 43.331C111.423 43.6458 111.601 43.8968 111.835 44.0838C112.072 44.2685 112.365 44.3608 112.716 44.3608ZM120.074 42.7699V39.5455H120.912V45H120.074V44.0767H120.017C119.889 44.3537 119.69 44.5893 119.42 44.7834C119.15 44.9751 118.809 45.071 118.398 45.071C118.057 45.071 117.754 44.9964 117.488 44.8473C117.223 44.6958 117.015 44.4685 116.863 44.1655C116.712 43.8601 116.636 43.4754 116.636 43.0114V39.5455H117.474V42.9545C117.474 43.3523 117.586 43.6695 117.808 43.9062C118.033 44.143 118.319 44.2614 118.667 44.2614C118.876 44.2614 119.088 44.2081 119.303 44.1016C119.521 43.995 119.703 43.8317 119.85 43.6115C119.999 43.3913 120.074 43.1108 120.074 42.7699ZM124.052 45.1278C123.706 45.1278 123.393 45.0627 123.111 44.9325C122.829 44.8 122.605 44.6094 122.44 44.3608C122.274 44.1098 122.191 43.8068 122.191 43.4517C122.191 43.1392 122.253 42.8859 122.376 42.6918C122.499 42.4953 122.663 42.3414 122.869 42.2301C123.075 42.1188 123.303 42.036 123.551 41.9815C123.802 41.9247 124.054 41.8797 124.308 41.8466C124.639 41.804 124.908 41.772 125.114 41.7507C125.322 41.727 125.473 41.688 125.568 41.6335C125.665 41.5791 125.714 41.4844 125.714 41.3494V41.321C125.714 40.9706 125.618 40.6984 125.426 40.5043C125.237 40.3101 124.949 40.2131 124.563 40.2131C124.163 40.2131 123.849 40.3007 123.622 40.4759C123.395 40.651 123.235 40.8381 123.143 41.0369L122.347 40.7528C122.489 40.4214 122.679 40.1634 122.915 39.9787C123.155 39.7917 123.415 39.6615 123.697 39.5881C123.981 39.5123 124.26 39.4744 124.535 39.4744C124.71 39.4744 124.911 39.4957 125.138 39.5384C125.368 39.5786 125.589 39.6626 125.803 39.7905C126.018 39.9183 126.197 40.1113 126.339 40.3693C126.481 40.6274 126.552 40.973 126.552 41.4062V45H125.714V44.2614H125.671C125.614 44.3797 125.52 44.5064 125.387 44.6413C125.254 44.7763 125.078 44.8911 124.858 44.9858C124.638 45.0805 124.369 45.1278 124.052 45.1278ZM124.18 44.375C124.511 44.375 124.79 44.3099 125.018 44.1797C125.247 44.0495 125.42 43.8814 125.536 43.6754C125.655 43.4695 125.714 43.2528 125.714 43.0256V42.2585C125.678 42.3011 125.6 42.3402 125.479 42.3757C125.361 42.4089 125.224 42.4384 125.067 42.4645C124.914 42.4882 124.763 42.5095 124.616 42.5284C124.472 42.545 124.355 42.5592 124.265 42.571C124.047 42.5994 123.844 42.6456 123.654 42.7095C123.467 42.7711 123.316 42.8646 123.2 42.9901C123.086 43.1132 123.029 43.2812 123.029 43.4943C123.029 43.7855 123.137 44.0057 123.352 44.1548C123.57 44.3016 123.846 44.375 124.18 44.375ZM128.081 45V39.5455H128.891V40.3693H128.948C129.047 40.0994 129.227 39.8804 129.488 39.7124C129.748 39.5443 130.042 39.4602 130.368 39.4602C130.43 39.4602 130.507 39.4614 130.599 39.4638C130.692 39.4661 130.761 39.4697 130.809 39.4744V40.3267C130.78 40.3196 130.715 40.3089 130.613 40.2947C130.514 40.2782 130.409 40.2699 130.297 40.2699C130.032 40.2699 129.796 40.3255 129.587 40.4368C129.381 40.5457 129.218 40.6972 129.097 40.8913C128.979 41.0831 128.92 41.3021 128.92 41.5483V45H128.081ZM133.923 45.1136C133.398 45.1136 132.944 44.9976 132.563 44.7656C132.184 44.5312 131.892 44.2045 131.686 43.7855C131.482 43.3641 131.381 42.8741 131.381 42.3153C131.381 41.7566 131.482 41.2642 131.686 40.8381C131.892 40.4096 132.178 40.0758 132.545 39.8366C132.915 39.5952 133.345 39.4744 133.838 39.4744C134.122 39.4744 134.403 39.5218 134.68 39.6165C134.956 39.7112 135.209 39.8651 135.436 40.0781C135.663 40.2888 135.844 40.5682 135.979 40.9162C136.114 41.2642 136.182 41.6927 136.182 42.2017V42.5568H131.977V41.8324H135.329C135.329 41.5246 135.268 41.25 135.145 41.0085C135.024 40.767 134.851 40.5765 134.626 40.4368C134.404 40.2971 134.141 40.2273 133.838 40.2273C133.504 40.2273 133.215 40.3101 132.971 40.4759C132.73 40.6392 132.544 40.8523 132.414 41.1151C132.284 41.3778 132.219 41.6596 132.219 41.9602V42.4432C132.219 42.8551 132.29 43.2043 132.432 43.4908C132.576 43.7749 132.776 43.9915 133.032 44.1406C133.287 44.2874 133.585 44.3608 133.923 44.3608C134.143 44.3608 134.342 44.33 134.52 44.2685C134.7 44.2045 134.855 44.1098 134.985 43.9844C135.115 43.8565 135.216 43.6979 135.287 43.5085L136.096 43.7358C136.011 44.0104 135.868 44.2519 135.667 44.4602C135.465 44.6662 135.217 44.8272 134.921 44.9432C134.625 45.0568 134.292 45.1136 133.923 45.1136Z"
          fill="white" fill-opacity="0.4"/>
    <defs>
        <linearGradient id="paint0_linear_8481_43287" x1="32.0448" y1="18.7128" x2="32.0448" y2="44.7809"
                        gradientUnits="userSpaceOnUse">
            <stop stop-color="#FAB961"/>
            <stop offset="1"/>
        </linearGradient>
        <linearGradient id="paint1_linear_8481_43287" x1="19.4083" y1="13.4258" x2="19.4083" y2="52.0647"
                        gradientUnits="userSpaceOnUse">
            <stop stop-color="#FAB961"/>
            <stop offset="1"/>
        </linearGradient>
        <linearGradient id="paint2_linear_8481_43287" x1="18.0749" y1="10.2166" x2="18.0749" y2="44.829"
                        gradientUnits="userSpaceOnUse">
            <stop/>
            <stop offset="0.414296" stop-color="#FAB961"/>
        </linearGradient>
        <linearGradient id="paint3_linear_8481_43287" x1="18.4961" y1="18.6126" x2="18.4961" y2="46.7594"
                        gradientUnits="userSpaceOnUse">
            <stop/>
            <stop offset="1" stop-color="#FAB961"/>
        </linearGradient>
        <linearGradient id="paint4_linear_8481_43287" x1="21.7026" y1="16.9553" x2="21.7026" y2="44.0173"
                        gradientUnits="userSpaceOnUse">
            <stop/>
            <stop offset="1" stop-color="#FAB961"/>
        </linearGradient>
    </defs>
</svg>
