<svg width="236" height="64" viewBox="0 0 236 64" fill="none" xmlns="http://www.w3.org/2000/svg">
<g clip-path="url(#clip0_13417_74730)">
<path d="M31.25 51.5L8.75 51.5C4.19365 51.5 0.5 47.8063 0.500001 43.25L0.500003 20.75C0.500003 16.1937 4.19365 12.5 8.75 12.5L31.25 12.5C35.8064 12.5 39.5 16.1937 39.5 20.75L39.5 43.25C39.5 47.8063 35.8063 51.5 31.25 51.5Z" fill="black" stroke="#272A3A"/>
<path d="M25.4894 27.7718C25.404 27.9939 21.8161 25.7638 18.5395 27.2853C16.1572 28.3915 15.1731 30.5361 15.1731 32.3647C15.1731 33.8055 15.6789 34.8942 16.2318 35.6035C17.131 36.7573 17.9676 37.1914 18.69 37.5771C19.8538 38.1984 21.833 38.2191 22.4339 38.1883C23.5527 38.1308 24.8673 37.8107 25.9759 37.2989C26.3991 37.1035 27.0863 36.6795 27.6883 36.2054C28.7163 35.3958 29.6632 34.3774 29.6467 34.4562C29.6205 34.5812 29.6311 34.68 29.117 35.5724C27.5939 38.2164 25.0616 39.3698 25.0616 39.3698C21.4942 41.2368 18.3283 40.2684 17.713 40.0361C15.0117 39.0156 13.6029 37.1027 13.2737 36.4943C12.7369 35.5021 11.7746 31.8578 13.064 28.9611C14.0196 26.8146 16.2349 25.7599 16.4795 25.6589C20.4266 24.0293 25.567 27.5699 25.4894 27.7718Z" fill="url(#paint0_linear_13417_74730)"/>
<path d="M25.6031 27.5863C25.4428 27.7333 24.2906 26.3654 22.4406 25.3775C21.9117 25.0951 19.8939 24.0802 17.4294 24.1323C13.3438 24.2183 10.6288 27.1827 10.1446 27.7321C7.72478 30.478 6.58546 34.7062 7.94654 37.9965C9.71541 42.2721 15.6339 44.7314 15.1838 44.7799L14.6661 44.6161C14.0414 44.3724 6.37467 40.9572 6.10008 34.1517C5.94527 30.3168 7.19181 27.2113 7.94654 26.3635C9.26526 24.8822 10.3226 24.1691 11.2141 23.6981C13.0052 22.7523 16.3738 21.9419 18.874 22.3142C21.6791 22.732 23.44 24.669 24.2986 25.6136C25.0732 26.4655 25.7327 27.4675 25.6031 27.5863Z" fill="url(#paint1_linear_13417_74730)"/>
<path d="M25.5828 27.7681C25.7723 27.6849 25.5193 25.1384 23.8462 23.202C23.1715 22.4195 22.4295 21.7079 21.5186 21.21C17.7528 19.1922 13.1226 20.8148 12.1203 21.21C11.0936 21.6146 8.90293 22.7202 7.0638 24.9888C4.9907 27.5462 4.68368 30.2898 4.56565 31.4908C4.06128 36.619 6.7585 40.6464 6.95048 40.5856C7.06235 40.5503 5.83869 37.9878 6.10003 34.1522C6.19959 32.6921 6.40408 30.0177 8.27703 27.4506C9.41159 25.9367 10.7241 24.6765 12.4363 23.8445C13.4271 23.3606 16.9722 21.8009 20.5223 23.0396C21.604 23.4247 22.5998 24.0125 23.455 24.7707C25.0006 26.1672 25.4278 27.8364 25.5828 27.7681Z" fill="url(#paint2_linear_13417_74730)"/>
<path d="M20.128 42.1323C20.0391 42.2818 13.8969 40.549 11.5895 36.2784C11.2422 35.6359 9.63844 32.2113 10.6906 29.5452C11.1306 28.4301 11.9969 27.1816 12.3468 26.7939C12.9121 26.1676 13.8709 25.6045 15.0885 25.0943C15.6356 24.8705 16.6351 24.6375 17.2222 24.5603C17.8042 24.4895 18.6981 24.5047 19.2818 24.5603C20.4166 24.6684 21.9501 25.9783 21.907 25.9783C21.8954 25.9783 20.6899 25.5962 19.4433 25.5115C18.4101 25.4414 17.2893 25.6785 16.8918 25.8175C16.0148 26.124 14.8126 26.7939 14.1176 27.6402C13.4225 28.4865 12.8292 29.6827 12.7028 31.2862C12.6102 32.4616 12.7373 34.1763 13.2527 35.5131C13.4998 36.1538 13.9253 36.9692 14.7431 38.0431C16.4839 40.3289 20.1923 42.0251 20.128 42.1323Z" fill="url(#paint3_linear_13417_74730)"/>
<path d="M16.7998 24.0239C17.8653 23.872 18.7773 23.8197 19.8339 24.0239C21.0464 24.2646 21.717 24.5128 22.5428 24.9303C23.9532 25.6434 25.7384 27.472 25.6024 27.7464C25.3603 28.2357 21.6017 24.3046 16.4381 25.6575C14.9778 26.1502 14.0772 26.6103 13.1446 27.313C11.5563 28.5099 10.7692 30.0843 10.5205 30.7281C10.0935 31.8335 9.97751 32.4555 9.92582 33.6318C9.92582 35.2156 10.2256 36.1343 10.5883 37.1413C11.1042 38.5747 12.0663 40.2131 11.9117 40.1071C10.1441 38.8931 9.0396 35.1478 8.91756 34.3716C8.79552 33.5953 8.27441 30.2331 10.5205 27.4334C12.5681 24.8811 16.0055 24.1382 16.7998 24.0239Z" fill="url(#paint4_linear_13417_74730)"/>
<path d="M21.9151 30.5314L21.8219 30.7342C21.6059 30.5555 21.3262 30.4541 21.012 30.4541C20.2022 30.4541 19.623 31.0289 19.623 31.8354C19.623 32.6468 20.2022 33.2265 21.012 33.2265C21.3213 33.2265 21.5961 33.1299 21.812 32.956L21.8905 33.1395H22.5973V30.5314H21.9151ZM21.1347 32.4344C20.7912 32.4344 20.5409 32.1783 20.5409 31.8354C20.5409 31.4974 20.7912 31.2462 21.1347 31.2462C21.4783 31.2462 21.7286 31.4974 21.7286 31.8354C21.7286 32.1783 21.4783 32.4344 21.1347 32.4344Z" fill="white"/>
<path d="M23.5059 33.1398H24.4188V29.5898H23.5059V33.1398Z" fill="white"/>
<path d="M26.8906 32.3565C26.6991 32.3565 26.5813 32.2406 26.5813 32.057V31.2263H27.2243V30.5308H26.5617V29.7725H26.3703L25.1826 31.0137V31.2263H25.6684V32.2067C25.6684 32.7864 26.0267 33.1389 26.6108 33.1389H27.239V32.3565H26.8906Z" fill="white"/>
<path d="M30.3604 30.5314L30.2671 30.7342C30.0512 30.5555 29.7714 30.4541 29.4573 30.4541C28.6475 30.4541 28.0684 31.0289 28.0684 31.8354C28.0684 32.6468 28.6475 33.2265 29.4573 33.2265C29.7665 33.2265 30.0413 33.1299 30.2573 32.956L30.3359 33.1395H31.0426V30.5314H30.3604ZM29.58 32.4344C29.2364 32.4344 28.9861 32.1783 28.9861 31.8354C28.9861 31.4974 29.2364 31.2462 29.58 31.2462C29.9235 31.2462 30.1738 31.4974 30.1738 31.8354C30.1738 32.1783 29.9235 32.4344 29.58 32.4344Z" fill="white"/>
<path d="M31.956 30.2075H32.8592V29.4443H31.956V30.2075ZM31.9512 33.1392H32.864V30.5311H31.9512V33.1392Z" fill="white"/>
<path d="M35.2518 30.5215C34.9377 30.5215 34.7119 30.6085 34.5254 30.8209L34.3831 30.5312H33.7695V33.1393H34.6824V31.8159C34.6824 31.4826 34.8199 31.3426 35.1389 31.3426H35.4972V30.5215H35.2518Z" fill="white"/>
</g>
<path d="M62.88 28H56.38L55.14 31H51.82L58.06 17H61.26L67.52 31H64.12L62.88 28ZM61.86 25.54L59.64 20.18L57.42 25.54H61.86ZM68.7525 16.16H71.8725V31H68.7525V16.16ZM82.4894 30.48C82.1827 30.7067 81.8027 30.88 81.3494 31C80.9094 31.1067 80.4427 31.16 79.9494 31.16C78.6694 31.16 77.676 30.8333 76.9694 30.18C76.276 29.5267 75.9294 28.5667 75.9294 27.3V22.88H74.2694V20.48H75.9294V17.86H79.0494V20.48H81.7294V22.88H79.0494V27.26C79.0494 27.7133 79.1627 28.0667 79.3894 28.32C79.6294 28.56 79.9627 28.68 80.3894 28.68C80.8827 28.68 81.3027 28.5467 81.6494 28.28L82.4894 30.48ZM88.5808 20.08C90.2474 20.08 91.5274 20.48 92.4208 21.28C93.3141 22.0667 93.7608 23.26 93.7608 24.86V31H90.8408V29.66C90.2541 30.66 89.1608 31.16 87.5608 31.16C86.7341 31.16 86.0141 31.02 85.4008 30.74C84.8008 30.46 84.3408 30.0733 84.0208 29.58C83.7008 29.0867 83.5408 28.5267 83.5408 27.9C83.5408 26.9 83.9141 26.1133 84.6608 25.54C85.4208 24.9667 86.5874 24.68 88.1608 24.68H90.6408C90.6408 24 90.4341 23.48 90.0208 23.12C89.6074 22.7467 88.9874 22.56 88.1608 22.56C87.5874 22.56 87.0208 22.6533 86.4608 22.84C85.9141 23.0133 85.4474 23.2533 85.0608 23.56L83.9408 21.38C84.5274 20.9667 85.2274 20.6467 86.0408 20.42C86.8674 20.1933 87.7141 20.08 88.5808 20.08ZM88.3408 29.06C88.8741 29.06 89.3474 28.94 89.7608 28.7C90.1741 28.4467 90.4674 28.08 90.6408 27.6V26.5H88.5008C87.2208 26.5 86.5808 26.92 86.5808 27.76C86.5808 28.16 86.7341 28.48 87.0408 28.72C87.3608 28.9467 87.7941 29.06 88.3408 29.06ZM96.5845 20.24H99.7045V31H96.5845V20.24ZM98.1445 18.74C97.5712 18.74 97.1045 18.5733 96.7445 18.24C96.3845 17.9067 96.2045 17.4933 96.2045 17C96.2045 16.5067 96.3845 16.0933 96.7445 15.76C97.1045 15.4267 97.5712 15.26 98.1445 15.26C98.7179 15.26 99.1845 15.42 99.5445 15.74C99.9045 16.06 100.085 16.46 100.085 16.94C100.085 17.46 99.9045 17.8933 99.5445 18.24C99.1845 18.5733 98.7179 18.74 98.1445 18.74ZM105.58 21.66C105.953 21.14 106.453 20.7467 107.08 20.48C107.72 20.2133 108.453 20.08 109.28 20.08V22.96C108.933 22.9333 108.7 22.92 108.58 22.92C107.687 22.92 106.987 23.1733 106.48 23.68C105.973 24.1733 105.72 24.92 105.72 25.92V31H102.6V20.24H105.58V21.66Z" fill="white"/>
<path d="M58.8651 42.0298C58.7827 41.7713 58.6719 41.5398 58.5327 41.3352C58.3963 41.1278 58.233 40.9517 58.0426 40.8068C57.8523 40.6591 57.6349 40.5469 57.3906 40.4702C57.1491 40.3935 56.8835 40.3551 56.5938 40.3551C56.1023 40.3551 55.6591 40.4815 55.2642 40.7344C54.8693 40.9872 54.5568 41.358 54.3267 41.8466C54.0994 42.3324 53.9858 42.9276 53.9858 43.6321C53.9858 44.3395 54.1009 44.9375 54.331 45.4261C54.5611 45.9148 54.8764 46.2855 55.277 46.5384C55.6776 46.7912 56.1335 46.9176 56.6449 46.9176C57.1193 46.9176 57.5327 46.821 57.8849 46.6278C58.2401 46.4347 58.5142 46.1619 58.7074 45.8097C58.9034 45.4545 59.0014 45.0369 59.0014 44.5568L59.3423 44.6207H56.8452V43.5341H60.2756V44.527C60.2756 45.2599 60.1193 45.8963 59.8068 46.4361C59.4972 46.973 59.0682 47.3878 58.5199 47.6804C57.9744 47.973 57.3494 48.1193 56.6449 48.1193C55.8551 48.1193 55.1619 47.9375 54.5653 47.5739C53.9716 47.2102 53.5085 46.6946 53.1761 46.027C52.8438 45.3565 52.6776 44.5611 52.6776 43.6406C52.6776 42.9446 52.7741 42.3196 52.9673 41.7656C53.1605 41.2116 53.4318 40.7415 53.7812 40.3551C54.1335 39.9659 54.5469 39.669 55.0213 39.4645C55.4986 39.2571 56.0199 39.1534 56.5852 39.1534C57.0568 39.1534 57.4957 39.223 57.902 39.3622C58.3111 39.5014 58.6747 39.6989 58.9929 39.9545C59.3139 40.2102 59.5795 40.5142 59.7898 40.8665C60 41.2159 60.142 41.6037 60.2159 42.0298H58.8651ZM64.6019 48.1321C63.9883 48.1321 63.4528 47.9915 62.9954 47.7102C62.538 47.429 62.1829 47.0355 61.93 46.5298C61.6772 46.0241 61.5508 45.4332 61.5508 44.7571C61.5508 44.0781 61.6772 43.4844 61.93 42.9759C62.1829 42.4673 62.538 42.0724 62.9954 41.7912C63.4528 41.5099 63.9883 41.3693 64.6019 41.3693C65.2156 41.3693 65.7511 41.5099 66.2085 41.7912C66.6658 42.0724 67.021 42.4673 67.2738 42.9759C67.5266 43.4844 67.6531 44.0781 67.6531 44.7571C67.6531 45.4332 67.5266 46.0241 67.2738 46.5298C67.021 47.0355 66.6658 47.429 66.2085 47.7102C65.7511 47.9915 65.2156 48.1321 64.6019 48.1321ZM64.6062 47.0625C65.0039 47.0625 65.3335 46.9574 65.5948 46.7472C65.8562 46.5369 66.0494 46.2571 66.1744 45.9077C66.3022 45.5582 66.3661 45.1733 66.3661 44.7528C66.3661 44.3352 66.3022 43.9517 66.1744 43.6023C66.0494 43.25 65.8562 42.9673 65.5948 42.7543C65.3335 42.5412 65.0039 42.4347 64.6062 42.4347C64.2056 42.4347 63.8732 42.5412 63.609 42.7543C63.3477 42.9673 63.1531 43.25 63.0252 43.6023C62.9002 43.9517 62.8377 44.3352 62.8377 44.7528C62.8377 45.1733 62.9002 45.5582 63.0252 45.9077C63.1531 46.2571 63.3477 46.5369 63.609 46.7472C63.8732 46.9574 64.2056 47.0625 64.6062 47.0625ZM74.4521 41.4545L72.0785 48H70.7148L68.337 41.4545H69.7049L71.3626 46.4915H71.4308L73.0842 41.4545H74.4521ZM78.2479 48.1321C77.603 48.1321 77.0476 47.9943 76.5817 47.7188C76.1186 47.4403 75.7607 47.0497 75.5078 46.5469C75.2578 46.0412 75.1328 45.4489 75.1328 44.7699C75.1328 44.0994 75.2578 43.5085 75.5078 42.9972C75.7607 42.4858 76.1129 42.0866 76.5646 41.7997C77.0192 41.5128 77.5504 41.3693 78.1584 41.3693C78.5277 41.3693 78.8857 41.4304 79.2322 41.5526C79.5788 41.6747 79.8899 41.8665 80.1655 42.1278C80.4411 42.3892 80.6584 42.7287 80.8175 43.1463C80.9766 43.5611 81.0561 44.0653 81.0561 44.6591V45.1108H75.853V44.1562H79.8075C79.8075 43.821 79.7393 43.5241 79.603 43.2656C79.4666 43.0043 79.2749 42.7983 79.0277 42.6477C78.7834 42.4972 78.4964 42.4219 78.1669 42.4219C77.8089 42.4219 77.4964 42.5099 77.2294 42.6861C76.9652 42.8594 76.7607 43.0866 76.6158 43.3679C76.4737 43.6463 76.4027 43.9489 76.4027 44.2756V45.0213C76.4027 45.4588 76.4794 45.831 76.6328 46.1378C76.7891 46.4446 77.0064 46.679 77.2848 46.8409C77.5632 47 77.8885 47.0795 78.2607 47.0795C78.5021 47.0795 78.7223 47.0455 78.9212 46.9773C79.12 46.9062 79.2919 46.8011 79.4368 46.6619C79.5817 46.5227 79.6925 46.3509 79.7692 46.1463L80.9751 46.3636C80.8786 46.7187 80.7053 47.0298 80.4553 47.2969C80.2081 47.5611 79.897 47.767 79.522 47.9148C79.1499 48.0597 78.7251 48.1321 78.2479 48.1321ZM82.4698 48V41.4545H83.7013V42.4943H83.7695C83.8888 42.142 84.0991 41.8651 84.4002 41.6634C84.7042 41.4588 85.0479 41.3565 85.4315 41.3565C85.511 41.3565 85.6048 41.3594 85.7127 41.3651C85.8235 41.3707 85.9102 41.3778 85.9727 41.3864V42.6051C85.9215 42.5909 85.8306 42.5753 85.6999 42.5582C85.5692 42.5384 85.4386 42.5284 85.3079 42.5284C85.0067 42.5284 84.7383 42.5923 84.5025 42.7202C84.2695 42.8452 84.0849 43.0199 83.9485 43.2443C83.8121 43.4659 83.744 43.7187 83.744 44.0028V48H82.4698ZM88.3494 44.1136V48H87.0753V41.4545H88.2983V42.5199H88.3793C88.5298 42.1733 88.7656 41.8949 89.0866 41.6847C89.4105 41.4744 89.8182 41.3693 90.3097 41.3693C90.7557 41.3693 91.1463 41.4631 91.4815 41.6506C91.8168 41.8352 92.0767 42.1108 92.2614 42.4773C92.446 42.8437 92.5384 43.2969 92.5384 43.8366V48H91.2642V43.9901C91.2642 43.5156 91.1406 43.1449 90.8935 42.8778C90.6463 42.608 90.3068 42.473 89.875 42.473C89.5795 42.473 89.3168 42.5369 89.0866 42.6648C88.8594 42.7926 88.679 42.9801 88.5455 43.2273C88.4148 43.4716 88.3494 43.767 88.3494 44.1136ZM96.152 48.1449C95.7372 48.1449 95.3622 48.0682 95.027 47.9148C94.6918 47.7585 94.4261 47.5327 94.2301 47.2372C94.0369 46.9418 93.9403 46.5795 93.9403 46.1506C93.9403 45.7812 94.0114 45.4773 94.1534 45.2386C94.2955 45 94.4872 44.8111 94.7287 44.6719C94.9702 44.5327 95.2401 44.4276 95.5384 44.3565C95.8366 44.2855 96.1406 44.2315 96.4503 44.1946C96.8423 44.1491 97.1605 44.1122 97.4048 44.0838C97.6491 44.0526 97.8267 44.0028 97.9375 43.9347C98.0483 43.8665 98.1037 43.7557 98.1037 43.6023V43.5724C98.1037 43.2003 97.9986 42.9119 97.7884 42.7074C97.581 42.5028 97.2713 42.4006 96.8594 42.4006C96.4304 42.4006 96.0923 42.4957 95.8452 42.6861C95.6009 42.8736 95.4318 43.0824 95.3381 43.3125L94.1406 43.0398C94.2827 42.642 94.4901 42.321 94.7628 42.0767C95.0384 41.8295 95.3551 41.6506 95.7131 41.5398C96.071 41.4261 96.4474 41.3693 96.8423 41.3693C97.1037 41.3693 97.3807 41.4006 97.6733 41.4631C97.9688 41.5227 98.2443 41.6335 98.5 41.7955C98.7585 41.9574 98.9702 42.1889 99.1349 42.4901C99.2997 42.7884 99.3821 43.1761 99.3821 43.6534V48H98.1378V47.1051H98.0866C98.0043 47.2699 97.8807 47.4318 97.7159 47.5909C97.5511 47.75 97.3395 47.8821 97.081 47.9872C96.8224 48.0923 96.5128 48.1449 96.152 48.1449ZM96.429 47.1222C96.7813 47.1222 97.0824 47.0526 97.3324 46.9134C97.5852 46.7741 97.777 46.5923 97.9077 46.3679C98.0412 46.1406 98.108 45.8977 98.108 45.6392V44.7955C98.0625 44.8409 97.9744 44.8835 97.8438 44.9233C97.7159 44.9602 97.5696 44.9929 97.4048 45.0213C97.2401 45.0469 97.0795 45.071 96.9233 45.0938C96.767 45.1136 96.6364 45.1307 96.5312 45.1449C96.2841 45.1761 96.0582 45.2287 95.8537 45.3026C95.652 45.3764 95.4901 45.483 95.3679 45.6222C95.2486 45.7585 95.1889 45.9403 95.1889 46.1676C95.1889 46.483 95.3054 46.7216 95.5384 46.8835C95.7713 47.0426 96.0682 47.1222 96.429 47.1222ZM102.353 44.1136V48H101.079V41.4545H102.302V42.5199H102.383C102.534 42.1733 102.77 41.8949 103.091 41.6847C103.414 41.4744 103.822 41.3693 104.314 41.3693C104.76 41.3693 105.15 41.4631 105.485 41.6506C105.821 41.8352 106.081 42.1108 106.265 42.4773C106.45 42.8437 106.542 43.2969 106.542 43.8366V48H105.268V43.9901C105.268 43.5156 105.145 43.1449 104.897 42.8778C104.65 42.608 104.311 42.473 103.879 42.473C103.583 42.473 103.321 42.5369 103.091 42.6648C102.863 42.7926 102.683 42.9801 102.549 43.2273C102.419 43.4716 102.353 43.767 102.353 44.1136ZM111.008 48.1321C110.375 48.1321 109.829 47.9886 109.372 47.7017C108.917 47.4119 108.568 47.0128 108.324 46.5043C108.079 45.9957 107.957 45.4134 107.957 44.7571C107.957 44.0923 108.082 43.5057 108.332 42.9972C108.582 42.4858 108.934 42.0866 109.389 41.7997C109.843 41.5128 110.379 41.3693 110.995 41.3693C111.493 41.3693 111.936 41.4616 112.325 41.6463C112.714 41.8281 113.028 42.0838 113.267 42.4134C113.508 42.7429 113.652 43.1278 113.697 43.5682H112.457C112.389 43.2614 112.233 42.9972 111.988 42.7756C111.747 42.554 111.423 42.4432 111.017 42.4432C110.662 42.4432 110.35 42.5369 110.083 42.7244C109.819 42.9091 109.613 43.1733 109.466 43.517C109.318 43.858 109.244 44.2614 109.244 44.7273C109.244 45.2045 109.316 45.6165 109.461 45.9631C109.606 46.3097 109.811 46.5781 110.075 46.7685C110.342 46.9588 110.656 47.054 111.017 47.054C111.258 47.054 111.477 47.0099 111.673 46.9219C111.872 46.831 112.038 46.7017 112.172 46.5341C112.308 46.3665 112.403 46.1648 112.457 45.929H113.697C113.652 46.3523 113.514 46.7301 113.284 47.0625C113.054 47.3949 112.745 47.6562 112.359 47.8466C111.975 48.0369 111.525 48.1321 111.008 48.1321ZM117.881 48.1321C117.236 48.1321 116.68 47.9943 116.214 47.7188C115.751 47.4403 115.393 47.0497 115.141 46.5469C114.891 46.0412 114.766 45.4489 114.766 44.7699C114.766 44.0994 114.891 43.5085 115.141 42.9972C115.393 42.4858 115.746 42.0866 116.197 41.7997C116.652 41.5128 117.183 41.3693 117.791 41.3693C118.161 41.3693 118.518 41.4304 118.865 41.5526C119.212 41.6747 119.523 41.8665 119.798 42.1278C120.074 42.3892 120.291 42.7287 120.45 43.1463C120.609 43.5611 120.689 44.0653 120.689 44.6591V45.1108H115.486V44.1562H119.44C119.44 43.821 119.372 43.5241 119.236 43.2656C119.099 43.0043 118.908 42.7983 118.661 42.6477C118.416 42.4972 118.129 42.4219 117.8 42.4219C117.442 42.4219 117.129 42.5099 116.862 42.6861C116.598 42.8594 116.393 43.0866 116.249 43.3679C116.107 43.6463 116.036 43.9489 116.036 44.2756V45.0213C116.036 45.4588 116.112 45.831 116.266 46.1378C116.422 46.4446 116.639 46.679 116.918 46.8409C117.196 47 117.521 47.0795 117.893 47.0795C118.135 47.0795 118.355 47.0455 118.554 46.9773C118.753 46.9062 118.925 46.8011 119.07 46.6619C119.214 46.5227 119.325 46.3509 119.402 46.1463L120.608 46.3636C120.511 46.7187 120.338 47.0298 120.088 47.2969C119.841 47.5611 119.53 47.767 119.155 47.9148C118.783 48.0597 118.358 48.1321 117.881 48.1321ZM125.381 48V39.2727H126.655V42.5156H126.732C126.805 42.3793 126.912 42.2216 127.051 42.0426C127.19 41.8636 127.384 41.7074 127.631 41.5739C127.878 41.4375 128.205 41.3693 128.611 41.3693C129.139 41.3693 129.611 41.5028 130.026 41.7699C130.44 42.0369 130.766 42.4219 131.001 42.9247C131.24 43.4276 131.359 44.0327 131.359 44.7401C131.359 45.4474 131.241 46.054 131.006 46.5597C130.77 47.0625 130.446 47.4503 130.034 47.723C129.622 47.9929 129.152 48.1278 128.624 48.1278C128.226 48.1278 127.901 48.0611 127.648 47.9276C127.398 47.794 127.202 47.6378 127.06 47.4588C126.918 47.2798 126.808 47.1207 126.732 46.9815H126.625V48H125.381ZM126.629 44.7273C126.629 45.1875 126.696 45.5909 126.83 45.9375C126.963 46.2841 127.156 46.5554 127.409 46.7514C127.662 46.9446 127.972 47.0412 128.338 47.0412C128.719 47.0412 129.037 46.9403 129.293 46.7386C129.548 46.5341 129.741 46.2571 129.872 45.9077C130.006 45.5582 130.072 45.1648 130.072 44.7273C130.072 44.2955 130.007 43.9077 129.876 43.5639C129.749 43.2202 129.555 42.9489 129.297 42.75C129.041 42.5511 128.722 42.4517 128.338 42.4517C127.969 42.4517 127.656 42.5469 127.401 42.7372C127.148 42.9276 126.956 43.1932 126.825 43.5341C126.695 43.875 126.629 44.2727 126.629 44.7273ZM133.373 50.4545C133.183 50.4545 133.009 50.4389 132.853 50.4077C132.697 50.3793 132.58 50.348 132.504 50.3139L132.81 49.2699C133.043 49.3324 133.251 49.3594 133.433 49.3509C133.614 49.3423 133.775 49.2741 133.914 49.1463C134.056 49.0185 134.181 48.8097 134.289 48.5199L134.447 48.0852L132.052 41.4545H133.415L135.073 46.5341H135.141L136.799 41.4545H138.167L135.469 48.8736C135.344 49.2145 135.185 49.5028 134.992 49.7386C134.799 49.9773 134.569 50.1563 134.302 50.2756C134.035 50.3949 133.725 50.4545 133.373 50.4545ZM147.402 41.5653C147.357 41.1619 147.169 40.8494 146.84 40.6278C146.51 40.4034 146.096 40.2912 145.596 40.2912C145.238 40.2912 144.928 40.348 144.667 40.4616C144.405 40.5724 144.202 40.7259 144.057 40.9219C143.915 41.1151 143.844 41.3352 143.844 41.5824C143.844 41.7898 143.892 41.9687 143.989 42.1193C144.088 42.2699 144.218 42.3963 144.377 42.4986C144.539 42.598 144.712 42.6818 144.897 42.75C145.081 42.8153 145.259 42.8693 145.429 42.9119L146.282 43.1335C146.56 43.2017 146.846 43.294 147.138 43.4105C147.431 43.527 147.702 43.6804 147.952 43.8707C148.202 44.0611 148.404 44.2969 148.557 44.5781C148.713 44.8594 148.792 45.196 148.792 45.5881C148.792 46.0824 148.664 46.5213 148.408 46.9048C148.155 47.2884 147.787 47.5909 147.304 47.8125C146.824 48.0341 146.243 48.1449 145.561 48.1449C144.908 48.1449 144.343 48.0412 143.865 47.8338C143.388 47.6264 143.015 47.3324 142.745 46.9517C142.475 46.5682 142.326 46.1136 142.297 45.5881H143.618C143.644 45.9034 143.746 46.1662 143.925 46.3764C144.107 46.5838 144.338 46.7386 144.62 46.8409C144.904 46.9403 145.215 46.9901 145.553 46.9901C145.925 46.9901 146.256 46.9318 146.546 46.8153C146.838 46.696 147.069 46.5312 147.236 46.321C147.404 46.108 147.488 45.8594 147.488 45.5753C147.488 45.3168 147.414 45.1051 147.266 44.9403C147.121 44.7756 146.924 44.6392 146.674 44.5312C146.426 44.4233 146.147 44.3281 145.834 44.2457L144.803 43.9645C144.104 43.7741 143.55 43.4943 143.141 43.125C142.735 42.7557 142.532 42.267 142.532 41.6591C142.532 41.1562 142.668 40.7173 142.941 40.3423C143.213 39.9673 143.583 39.6761 144.049 39.4688C144.515 39.2585 145.04 39.1534 145.625 39.1534C146.216 39.1534 146.738 39.2571 147.189 39.4645C147.644 39.6719 148.002 39.9574 148.263 40.321C148.525 40.6818 148.661 41.0966 148.672 41.5653H147.402ZM154.409 45.2855V41.4545H155.688V48H154.435V46.8665H154.366C154.216 47.2159 153.974 47.5071 153.642 47.7401C153.313 47.9702 152.902 48.0852 152.411 48.0852C151.99 48.0852 151.618 47.9929 151.294 47.8082C150.973 47.6207 150.72 47.3438 150.536 46.9773C150.354 46.6108 150.263 46.1577 150.263 45.6179V41.4545H151.537V45.4645C151.537 45.9105 151.661 46.2656 151.908 46.5298C152.155 46.794 152.476 46.9261 152.871 46.9261C153.109 46.9261 153.347 46.8665 153.582 46.7472C153.821 46.6278 154.018 46.4474 154.175 46.206C154.334 45.9645 154.412 45.6577 154.409 45.2855ZM157.502 48V39.2727H158.776V42.5156H158.853C158.926 42.3793 159.033 42.2216 159.172 42.0426C159.311 41.8636 159.505 41.7074 159.752 41.5739C159.999 41.4375 160.326 41.3693 160.732 41.3693C161.26 41.3693 161.732 41.5028 162.147 41.7699C162.561 42.0369 162.887 42.4219 163.123 42.9247C163.361 43.4276 163.48 44.0327 163.48 44.7401C163.48 45.4474 163.363 46.054 163.127 46.5597C162.891 47.0625 162.567 47.4503 162.155 47.723C161.743 47.9929 161.273 48.1278 160.745 48.1278C160.347 48.1278 160.022 48.0611 159.769 47.9276C159.519 47.794 159.323 47.6378 159.181 47.4588C159.039 47.2798 158.929 47.1207 158.853 46.9815H158.746V48H157.502ZM158.75 44.7273C158.75 45.1875 158.817 45.5909 158.951 45.9375C159.084 46.2841 159.277 46.5554 159.53 46.7514C159.783 46.9446 160.093 47.0412 160.459 47.0412C160.84 47.0412 161.158 46.9403 161.414 46.7386C161.669 46.5341 161.863 46.2571 161.993 45.9077C162.127 45.5582 162.194 45.1648 162.194 44.7273C162.194 44.2955 162.128 43.9077 161.998 43.5639C161.87 43.2202 161.676 42.9489 161.418 42.75C161.162 42.5511 160.843 42.4517 160.459 42.4517C160.09 42.4517 159.777 42.5469 159.522 42.7372C159.269 42.9276 159.077 43.1932 158.946 43.5341C158.816 43.875 158.75 44.2727 158.75 44.7273ZM169.773 41.5653C169.728 41.1619 169.54 40.8494 169.211 40.6278C168.881 40.4034 168.467 40.2912 167.967 40.2912C167.609 40.2912 167.299 40.348 167.038 40.4616C166.776 40.5724 166.573 40.7259 166.428 40.9219C166.286 41.1151 166.215 41.3352 166.215 41.5824C166.215 41.7898 166.263 41.9687 166.36 42.1193C166.46 42.2699 166.589 42.3963 166.748 42.4986C166.91 42.598 167.083 42.6818 167.268 42.75C167.452 42.8153 167.63 42.8693 167.8 42.9119L168.653 43.1335C168.931 43.2017 169.217 43.294 169.509 43.4105C169.802 43.527 170.073 43.6804 170.323 43.8707C170.573 44.0611 170.775 44.2969 170.928 44.5781C171.085 44.8594 171.163 45.196 171.163 45.5881C171.163 46.0824 171.035 46.5213 170.779 46.9048C170.526 47.2884 170.158 47.5909 169.675 47.8125C169.195 48.0341 168.614 48.1449 167.933 48.1449C167.279 48.1449 166.714 48.0412 166.237 47.8338C165.759 47.6264 165.386 47.3324 165.116 46.9517C164.846 46.5682 164.697 46.1136 164.668 45.5881H165.989C166.015 45.9034 166.117 46.1662 166.296 46.3764C166.478 46.5838 166.71 46.7386 166.991 46.8409C167.275 46.9403 167.586 46.9901 167.924 46.9901C168.296 46.9901 168.627 46.9318 168.917 46.8153C169.21 46.696 169.44 46.5312 169.607 46.321C169.775 46.108 169.859 45.8594 169.859 45.5753C169.859 45.3168 169.785 45.1051 169.637 44.9403C169.492 44.7756 169.295 44.6392 169.045 44.5312C168.798 44.4233 168.518 44.3281 168.205 44.2457L167.174 43.9645C166.475 43.7741 165.921 43.4943 165.512 43.125C165.106 42.7557 164.903 42.267 164.903 41.6591C164.903 41.1562 165.039 40.7173 165.312 40.3423C165.585 39.9673 165.954 39.6761 166.42 39.4688C166.886 39.2585 167.411 39.1534 167.996 39.1534C168.587 39.1534 169.109 39.2571 169.56 39.4645C170.015 39.6719 170.373 39.9574 170.634 40.321C170.896 40.6818 171.032 41.0966 171.043 41.5653H169.773ZM177.053 50.4545V46.9815H176.976C176.9 47.1207 176.789 47.2798 176.644 47.4588C176.502 47.6378 176.306 47.794 176.056 47.9276C175.806 48.0611 175.482 48.1278 175.084 48.1278C174.556 48.1278 174.084 47.9929 173.669 47.723C173.257 47.4503 172.934 47.0625 172.698 46.5597C172.465 46.054 172.348 45.4474 172.348 44.7401C172.348 44.0327 172.466 43.4276 172.702 42.9247C172.941 42.4219 173.267 42.0369 173.682 41.7699C174.097 41.5028 174.567 41.3693 175.093 41.3693C175.499 41.3693 175.826 41.4375 176.073 41.5739C176.323 41.7074 176.516 41.8636 176.652 42.0426C176.792 42.2216 176.9 42.3793 176.976 42.5156H177.083V41.4545H178.327V50.4545H177.053ZM175.365 47.0412C175.732 47.0412 176.042 46.9446 176.294 46.7514C176.55 46.5554 176.743 46.2841 176.874 45.9375C177.007 45.5909 177.074 45.1875 177.074 44.7273C177.074 44.2727 177.009 43.875 176.878 43.5341C176.748 43.1932 176.556 42.9276 176.303 42.7372C176.05 42.5469 175.738 42.4517 175.365 42.4517C174.982 42.4517 174.662 42.5511 174.407 42.75C174.151 42.9489 173.958 43.2202 173.827 43.5639C173.699 43.9077 173.635 44.2955 173.635 44.7273C173.635 45.1648 173.701 45.5582 173.831 45.9077C173.962 46.2571 174.155 46.5341 174.411 46.7386C174.669 46.9403 174.988 47.0412 175.365 47.0412ZM184.186 45.2855V41.4545H185.465V48H184.212V46.8665H184.144C183.993 47.2159 183.752 47.5071 183.419 47.7401C183.09 47.9702 182.679 48.0852 182.188 48.0852C181.767 48.0852 181.395 47.9929 181.071 47.8082C180.75 47.6207 180.498 47.3438 180.313 46.9773C180.131 46.6108 180.04 46.1577 180.04 45.6179V41.4545H181.314V45.4645C181.314 45.9105 181.438 46.2656 181.685 46.5298C181.932 46.794 182.253 46.9261 182.648 46.9261C182.887 46.9261 183.124 46.8665 183.36 46.7472C183.598 46.6278 183.796 46.4474 183.952 46.206C184.111 45.9645 184.189 45.6577 184.186 45.2855ZM189.082 48.1449C188.667 48.1449 188.292 48.0682 187.957 47.9148C187.621 47.7585 187.356 47.5327 187.16 47.2372C186.967 46.9418 186.87 46.5795 186.87 46.1506C186.87 45.7812 186.941 45.4773 187.083 45.2386C187.225 45 187.417 44.8111 187.658 44.6719C187.9 44.5327 188.17 44.4276 188.468 44.3565C188.766 44.2855 189.07 44.2315 189.38 44.1946C189.772 44.1491 190.09 44.1122 190.335 44.0838C190.579 44.0526 190.756 44.0028 190.867 43.9347C190.978 43.8665 191.033 43.7557 191.033 43.6023V43.5724C191.033 43.2003 190.928 42.9119 190.718 42.7074C190.511 42.5028 190.201 42.4006 189.789 42.4006C189.36 42.4006 189.022 42.4957 188.775 42.6861C188.531 42.8736 188.362 43.0824 188.268 43.3125L187.07 43.0398C187.212 42.642 187.42 42.321 187.692 42.0767C187.968 41.8295 188.285 41.6506 188.643 41.5398C189.001 41.4261 189.377 41.3693 189.772 41.3693C190.033 41.3693 190.31 41.4006 190.603 41.4631C190.898 41.5227 191.174 41.6335 191.43 41.7955C191.688 41.9574 191.9 42.1889 192.065 42.4901C192.229 42.7884 192.312 43.1761 192.312 43.6534V48H191.067V47.1051H191.016C190.934 47.2699 190.81 47.4318 190.646 47.5909C190.481 47.75 190.269 47.8821 190.011 47.9872C189.752 48.0923 189.442 48.1449 189.082 48.1449ZM189.359 47.1222C189.711 47.1222 190.012 47.0526 190.262 46.9134C190.515 46.7741 190.707 46.5923 190.837 46.3679C190.971 46.1406 191.038 45.8977 191.038 45.6392V44.7955C190.992 44.8409 190.904 44.8835 190.773 44.9233C190.646 44.9602 190.499 44.9929 190.335 45.0213C190.17 45.0469 190.009 45.071 189.853 45.0938C189.697 45.1136 189.566 45.1307 189.461 45.1449C189.214 45.1761 188.988 45.2287 188.783 45.3026C188.582 45.3764 188.42 45.483 188.298 45.6222C188.178 45.7585 188.119 45.9403 188.119 46.1676C188.119 46.483 188.235 46.7216 188.468 46.8835C188.701 47.0426 188.998 47.1222 189.359 47.1222ZM194.009 48V41.4545H195.24V42.4943H195.309C195.428 42.142 195.638 41.8651 195.939 41.6634C196.243 41.4588 196.587 41.3565 196.971 41.3565C197.05 41.3565 197.144 41.3594 197.252 41.3651C197.363 41.3707 197.449 41.3778 197.512 41.3864V42.6051C197.461 42.5909 197.37 42.5753 197.239 42.5582C197.108 42.5384 196.978 42.5284 196.847 42.5284C196.546 42.5284 196.277 42.5923 196.042 42.7202C195.809 42.8452 195.624 43.0199 195.488 43.2443C195.351 43.4659 195.283 43.7187 195.283 44.0028V48H194.009ZM201.201 48.1321C200.556 48.1321 200.001 47.9943 199.535 47.7188C199.072 47.4403 198.714 47.0497 198.461 46.5469C198.211 46.0412 198.086 45.4489 198.086 44.7699C198.086 44.0994 198.211 43.5085 198.461 42.9972C198.714 42.4858 199.066 42.0866 199.518 41.7997C199.972 41.5128 200.504 41.3693 201.112 41.3693C201.481 41.3693 201.839 41.4304 202.185 41.5526C202.532 41.6747 202.843 41.8665 203.119 42.1278C203.394 42.3892 203.612 42.7287 203.771 43.1463C203.93 43.5611 204.009 44.0653 204.009 44.6591V45.1108H198.806V44.1562H202.761C202.761 43.821 202.692 43.5241 202.556 43.2656C202.42 43.0043 202.228 42.7983 201.981 42.6477C201.737 42.4972 201.45 42.4219 201.12 42.4219C200.762 42.4219 200.45 42.5099 200.183 42.6861C199.918 42.8594 199.714 43.0866 199.569 43.3679C199.427 43.6463 199.356 43.9489 199.356 44.2756V45.0213C199.356 45.4588 199.433 45.831 199.586 46.1378C199.742 46.4446 199.96 46.679 200.238 46.8409C200.516 47 200.842 47.0795 201.214 47.0795C201.455 47.0795 201.675 47.0455 201.874 46.9773C202.073 46.9062 202.245 46.8011 202.39 46.6619C202.535 46.5227 202.646 46.3509 202.722 46.1463L203.928 46.3636C203.832 46.7187 203.658 47.0298 203.408 47.2969C203.161 47.5611 202.85 47.767 202.475 47.9148C202.103 48.0597 201.678 48.1321 201.201 48.1321Z" fill="white" fill-opacity="0.2"/>
<defs>
<linearGradient id="paint0_linear_13417_74730" x1="23.2419" y1="25.3139" x2="23.2419" y2="40.5585" gradientUnits="userSpaceOnUse">
<stop stop-color="#FAB961"/>
<stop offset="1"/>
</linearGradient>
<linearGradient id="paint1_linear_13417_74730" x1="15.8532" y1="22.2217" x2="15.8532" y2="44.8177" gradientUnits="userSpaceOnUse">
<stop stop-color="#FAB961"/>
<stop offset="1"/>
</linearGradient>
<linearGradient id="paint2_linear_13417_74730" x1="15.0731" y1="20.3454" x2="15.0731" y2="40.5868" gradientUnits="userSpaceOnUse">
<stop/>
<stop offset="0.414296" stop-color="#FAB961"/>
</linearGradient>
<linearGradient id="paint3_linear_13417_74730" x1="15.319" y1="25.2553" x2="15.319" y2="41.7155" gradientUnits="userSpaceOnUse">
<stop/>
<stop offset="1" stop-color="#FAB961"/>
</linearGradient>
<linearGradient id="paint4_linear_13417_74730" x1="17.1938" y1="24.286" x2="17.1938" y2="40.1118" gradientUnits="userSpaceOnUse">
<stop/>
<stop offset="1" stop-color="#FAB961"/>
</linearGradient>
<clipPath id="clip0_13417_74730">
<rect width="40" height="40" fill="white" transform="translate(0 12)"/>
</clipPath>
</defs>
</svg>
