<svg width="236" height="64" viewBox="0 0 236 64" fill="none" xmlns="http://www.w3.org/2000/svg">
<g clip-path="url(#clip0_13417_71829)">
<path d="M31.25 51.5L8.75 51.5C4.19365 51.5 0.5 47.8063 0.500001 43.25L0.500003 20.75C0.500003 16.1937 4.19365 12.5 8.75 12.5L31.25 12.5C35.8064 12.5 39.5 16.1937 39.5 20.75L39.5 43.25C39.5 47.8063 35.8063 51.5 31.25 51.5Z" fill="black" stroke="#EBEEF4"/>
<path d="M25.4894 27.7718C25.404 27.9939 21.8161 25.7638 18.5395 27.2853C16.1572 28.3915 15.1731 30.5361 15.1731 32.3647C15.1731 33.8055 15.6789 34.8942 16.2318 35.6035C17.131 36.7573 17.9676 37.1914 18.69 37.5771C19.8538 38.1984 21.833 38.2191 22.4339 38.1883C23.5527 38.1308 24.8673 37.8107 25.9759 37.2989C26.3991 37.1035 27.0863 36.6795 27.6883 36.2054C28.7163 35.3958 29.6632 34.3774 29.6467 34.4562C29.6205 34.5812 29.6311 34.68 29.117 35.5724C27.5939 38.2164 25.0616 39.3698 25.0616 39.3698C21.4942 41.2368 18.3283 40.2684 17.713 40.0361C15.0117 39.0156 13.6029 37.1027 13.2737 36.4943C12.7369 35.5021 11.7746 31.8578 13.064 28.9611C14.0196 26.8146 16.2349 25.7599 16.4795 25.6589C20.4266 24.0293 25.567 27.5699 25.4894 27.7718Z" fill="url(#paint0_linear_13417_71829)"/>
<path d="M25.6031 27.5863C25.4428 27.7333 24.2906 26.3654 22.4406 25.3775C21.9117 25.0951 19.8939 24.0802 17.4294 24.1323C13.3438 24.2183 10.6288 27.1827 10.1446 27.7321C7.72478 30.478 6.58546 34.7062 7.94654 37.9965C9.71541 42.2721 15.6339 44.7314 15.1838 44.7799L14.6661 44.6161C14.0414 44.3724 6.37467 40.9572 6.10008 34.1517C5.94527 30.3168 7.19181 27.2113 7.94654 26.3635C9.26526 24.8822 10.3226 24.1691 11.2141 23.6981C13.0052 22.7523 16.3738 21.9419 18.874 22.3142C21.6791 22.732 23.44 24.669 24.2986 25.6136C25.0732 26.4655 25.7327 27.4675 25.6031 27.5863Z" fill="url(#paint1_linear_13417_71829)"/>
<path d="M25.5828 27.7681C25.7723 27.6849 25.5193 25.1384 23.8462 23.202C23.1715 22.4195 22.4295 21.7079 21.5186 21.21C17.7528 19.1922 13.1226 20.8148 12.1203 21.21C11.0936 21.6146 8.90293 22.7202 7.0638 24.9888C4.9907 27.5462 4.68368 30.2898 4.56565 31.4908C4.06128 36.619 6.7585 40.6464 6.95048 40.5856C7.06235 40.5503 5.83869 37.9878 6.10003 34.1522C6.19959 32.6921 6.40408 30.0177 8.27703 27.4506C9.41159 25.9367 10.7241 24.6765 12.4363 23.8445C13.4271 23.3606 16.9722 21.8009 20.5223 23.0396C21.604 23.4247 22.5998 24.0125 23.455 24.7707C25.0006 26.1672 25.4278 27.8364 25.5828 27.7681Z" fill="url(#paint2_linear_13417_71829)"/>
<path d="M20.128 42.1323C20.0391 42.2818 13.8969 40.549 11.5895 36.2784C11.2422 35.6359 9.63844 32.2113 10.6906 29.5452C11.1306 28.4301 11.9969 27.1816 12.3468 26.7939C12.9121 26.1676 13.8709 25.6045 15.0885 25.0943C15.6356 24.8705 16.6351 24.6375 17.2222 24.5603C17.8042 24.4895 18.6981 24.5047 19.2818 24.5603C20.4166 24.6684 21.9501 25.9783 21.907 25.9783C21.8954 25.9783 20.6899 25.5962 19.4433 25.5115C18.4101 25.4414 17.2893 25.6785 16.8918 25.8175C16.0148 26.124 14.8126 26.7939 14.1176 27.6402C13.4225 28.4865 12.8292 29.6827 12.7028 31.2862C12.6102 32.4616 12.7373 34.1763 13.2527 35.5131C13.4998 36.1538 13.9253 36.9692 14.7431 38.0431C16.4839 40.3289 20.1923 42.0251 20.128 42.1323Z" fill="url(#paint3_linear_13417_71829)"/>
<path d="M16.7998 24.0239C17.8653 23.872 18.7773 23.8197 19.8339 24.0239C21.0464 24.2646 21.717 24.5128 22.5428 24.9303C23.9532 25.6434 25.7384 27.472 25.6024 27.7464C25.3603 28.2357 21.6017 24.3046 16.4381 25.6575C14.9778 26.1502 14.0772 26.6103 13.1446 27.313C11.5563 28.5099 10.7692 30.0843 10.5205 30.7281C10.0935 31.8335 9.97751 32.4555 9.92582 33.6318C9.92582 35.2156 10.2256 36.1343 10.5883 37.1413C11.1042 38.5747 12.0663 40.2131 11.9117 40.1071C10.1441 38.8931 9.0396 35.1478 8.91756 34.3716C8.79552 33.5953 8.27441 30.2331 10.5205 27.4334C12.5681 24.8811 16.0055 24.1382 16.7998 24.0239Z" fill="url(#paint4_linear_13417_71829)"/>
<path d="M21.9151 30.5314L21.8219 30.7342C21.6059 30.5555 21.3262 30.4541 21.012 30.4541C20.2022 30.4541 19.623 31.0289 19.623 31.8354C19.623 32.6468 20.2022 33.2265 21.012 33.2265C21.3213 33.2265 21.5961 33.1299 21.812 32.956L21.8905 33.1395H22.5973V30.5314H21.9151ZM21.1347 32.4344C20.7912 32.4344 20.5409 32.1783 20.5409 31.8354C20.5409 31.4974 20.7912 31.2462 21.1347 31.2462C21.4783 31.2462 21.7286 31.4974 21.7286 31.8354C21.7286 32.1783 21.4783 32.4344 21.1347 32.4344Z" fill="white"/>
<path d="M23.5059 33.1398H24.4188V29.5898H23.5059V33.1398Z" fill="white"/>
<path d="M26.8906 32.3565C26.6991 32.3565 26.5813 32.2406 26.5813 32.057V31.2263H27.2243V30.5308H26.5617V29.7725H26.3703L25.1826 31.0137V31.2263H25.6684V32.2067C25.6684 32.7864 26.0267 33.1389 26.6108 33.1389H27.239V32.3565H26.8906Z" fill="white"/>
<path d="M30.3604 30.5314L30.2671 30.7342C30.0512 30.5555 29.7714 30.4541 29.4573 30.4541C28.6475 30.4541 28.0684 31.0289 28.0684 31.8354C28.0684 32.6468 28.6475 33.2265 29.4573 33.2265C29.7665 33.2265 30.0413 33.1299 30.2573 32.956L30.3359 33.1395H31.0426V30.5314H30.3604ZM29.58 32.4344C29.2364 32.4344 28.9861 32.1783 28.9861 31.8354C28.9861 31.4974 29.2364 31.2462 29.58 31.2462C29.9235 31.2462 30.1738 31.4974 30.1738 31.8354C30.1738 32.1783 29.9235 32.4344 29.58 32.4344Z" fill="white"/>
<path d="M31.956 30.2075H32.8592V29.4443H31.956V30.2075ZM31.9512 33.1392H32.864V30.5311H31.9512V33.1392Z" fill="white"/>
<path d="M35.2518 30.5215C34.9377 30.5215 34.7119 30.6085 34.5254 30.8209L34.3831 30.5312H33.7695V33.1393H34.6824V31.8159C34.6824 31.4826 34.8199 31.3426 35.1389 31.3426H35.4972V30.5215H35.2518Z" fill="white"/>
</g>
<path d="M62.88 28H56.38L55.14 31H51.82L58.06 17H61.26L67.52 31H64.12L62.88 28ZM61.86 25.54L59.64 20.18L57.42 25.54H61.86ZM68.7525 16.16H71.8725V31H68.7525V16.16ZM82.4894 30.48C82.1827 30.7067 81.8027 30.88 81.3494 31C80.9094 31.1067 80.4427 31.16 79.9494 31.16C78.6694 31.16 77.676 30.8333 76.9694 30.18C76.276 29.5267 75.9294 28.5667 75.9294 27.3V22.88H74.2694V20.48H75.9294V17.86H79.0494V20.48H81.7294V22.88H79.0494V27.26C79.0494 27.7133 79.1627 28.0667 79.3894 28.32C79.6294 28.56 79.9627 28.68 80.3894 28.68C80.8827 28.68 81.3027 28.5467 81.6494 28.28L82.4894 30.48ZM88.5808 20.08C90.2474 20.08 91.5274 20.48 92.4208 21.28C93.3141 22.0667 93.7608 23.26 93.7608 24.86V31H90.8408V29.66C90.2541 30.66 89.1608 31.16 87.5608 31.16C86.7341 31.16 86.0141 31.02 85.4008 30.74C84.8008 30.46 84.3408 30.0733 84.0208 29.58C83.7008 29.0867 83.5408 28.5267 83.5408 27.9C83.5408 26.9 83.9141 26.1133 84.6608 25.54C85.4208 24.9667 86.5874 24.68 88.1608 24.68H90.6408C90.6408 24 90.4341 23.48 90.0208 23.12C89.6074 22.7467 88.9874 22.56 88.1608 22.56C87.5874 22.56 87.0208 22.6533 86.4608 22.84C85.9141 23.0133 85.4474 23.2533 85.0608 23.56L83.9408 21.38C84.5274 20.9667 85.2274 20.6467 86.0408 20.42C86.8674 20.1933 87.7141 20.08 88.5808 20.08ZM88.3408 29.06C88.8741 29.06 89.3474 28.94 89.7608 28.7C90.1741 28.4467 90.4674 28.08 90.6408 27.6V26.5H88.5008C87.2208 26.5 86.5808 26.92 86.5808 27.76C86.5808 28.16 86.7341 28.48 87.0408 28.72C87.3608 28.9467 87.7941 29.06 88.3408 29.06ZM96.5845 20.24H99.7045V31H96.5845V20.24ZM98.1445 18.74C97.5712 18.74 97.1045 18.5733 96.7445 18.24C96.3845 17.9067 96.2045 17.4933 96.2045 17C96.2045 16.5067 96.3845 16.0933 96.7445 15.76C97.1045 15.4267 97.5712 15.26 98.1445 15.26C98.7179 15.26 99.1845 15.42 99.5445 15.74C99.9045 16.06 100.085 16.46 100.085 16.94C100.085 17.46 99.9045 17.8933 99.5445 18.24C99.1845 18.5733 98.7179 18.74 98.1445 18.74ZM105.58 21.66C105.953 21.14 106.453 20.7467 107.08 20.48C107.72 20.2133 108.453 20.08 109.28 20.08V22.96C108.933 22.9333 108.7 22.92 108.58 22.92C107.687 22.92 106.987 23.1733 106.48 23.68C105.973 24.1733 105.72 24.92 105.72 25.92V31H102.6V20.24H105.58V21.66Z" fill="#1E2134"/>
<path d="M59.0227 42C58.929 41.7131 58.8054 41.456 58.652 41.2287C58.5014 40.9986 58.321 40.8026 58.1108 40.6406C57.9034 40.4787 57.6676 40.3551 57.4034 40.2699C57.1392 40.1847 56.8494 40.142 56.5341 40.142C56.017 40.142 55.5469 40.2756 55.1236 40.5426C54.7003 40.8097 54.3636 41.2031 54.1136 41.723C53.8636 42.2429 53.7386 42.8807 53.7386 43.6364C53.7386 44.392 53.8651 45.0298 54.1179 45.5497C54.3707 46.0696 54.7131 46.4631 55.1449 46.7301C55.5767 46.9972 56.0625 47.1307 56.6023 47.1307C57.1023 47.1307 57.5426 47.0241 57.9233 46.8111C58.3068 46.5952 58.6051 46.2912 58.8182 45.8991C59.0341 45.5043 59.142 45.0398 59.142 44.5057L59.4659 44.5739H56.8409V43.6364H60.1648V44.5739C60.1648 45.2926 60.0114 45.9176 59.7045 46.4489C59.4006 46.9801 58.9801 47.392 58.4432 47.6847C57.9091 47.9744 57.2955 48.1193 56.6023 48.1193C55.8295 48.1193 55.1506 47.9375 54.5653 47.5739C53.983 47.2102 53.5284 46.6932 53.2017 46.0227C52.8778 45.3523 52.7159 44.5568 52.7159 43.6364C52.7159 42.946 52.8082 42.3253 52.9929 41.7741C53.1804 41.2202 53.4446 40.7486 53.7855 40.3594C54.1264 39.9702 54.5298 39.6719 54.9957 39.4645C55.4616 39.2571 55.9744 39.1534 56.5341 39.1534C56.9943 39.1534 57.4233 39.223 57.821 39.3622C58.2216 39.4986 58.5781 39.6932 58.8906 39.946C59.206 40.196 59.4688 40.4957 59.679 40.8452C59.8892 41.1918 60.0341 41.5767 60.1136 42H59.0227ZM64.4975 48.1364C63.9066 48.1364 63.3881 47.9957 62.9421 47.7145C62.4989 47.4332 62.1523 47.0398 61.9023 46.5341C61.6552 46.0284 61.5316 45.4375 61.5316 44.7614C61.5316 44.0795 61.6552 43.4844 61.9023 42.9759C62.1523 42.4673 62.4989 42.0724 62.9421 41.7912C63.3881 41.5099 63.9066 41.3693 64.4975 41.3693C65.0884 41.3693 65.6055 41.5099 66.0487 41.7912C66.4947 42.0724 66.8413 42.4673 67.0884 42.9759C67.3384 43.4844 67.4634 44.0795 67.4634 44.7614C67.4634 45.4375 67.3384 46.0284 67.0884 46.5341C66.8413 47.0398 66.4947 47.4332 66.0487 47.7145C65.6055 47.9957 65.0884 48.1364 64.4975 48.1364ZM64.4975 47.233C64.9464 47.233 65.3157 47.1179 65.6055 46.8878C65.8952 46.6577 66.1097 46.3551 66.2489 45.9801C66.3881 45.6051 66.4577 45.1989 66.4577 44.7614C66.4577 44.3239 66.3881 43.9162 66.2489 43.5384C66.1097 43.1605 65.8952 42.8551 65.6055 42.6222C65.3157 42.3892 64.9464 42.2727 64.4975 42.2727C64.0487 42.2727 63.6793 42.3892 63.3896 42.6222C63.0998 42.8551 62.8853 43.1605 62.7461 43.5384C62.6069 43.9162 62.5373 44.3239 62.5373 44.7614C62.5373 45.1989 62.6069 45.6051 62.7461 45.9801C62.8853 46.3551 63.0998 46.6577 63.3896 46.8878C63.6793 47.1179 64.0487 47.233 64.4975 47.233ZM74.1165 41.4545L71.696 48H70.6733L68.2528 41.4545H69.3438L71.1506 46.6705H71.2188L73.0256 41.4545H74.1165ZM77.9538 48.1364C77.3232 48.1364 76.7791 47.9972 76.3217 47.7188C75.8672 47.4375 75.5163 47.0455 75.2692 46.5426C75.0249 46.0369 74.9027 45.4489 74.9027 44.7784C74.9027 44.108 75.0249 43.517 75.2692 43.0057C75.5163 42.4915 75.8601 42.0909 76.3004 41.804C76.7436 41.5142 77.2607 41.3693 77.8516 41.3693C78.1925 41.3693 78.5291 41.4261 78.8615 41.5398C79.1939 41.6534 79.4964 41.8381 79.7692 42.0938C80.0419 42.3466 80.2592 42.6818 80.4212 43.0994C80.5831 43.517 80.6641 44.0312 80.6641 44.642V45.0682H75.6186V44.1989H79.6413C79.6413 43.8295 79.5675 43.5 79.4197 43.2102C79.2749 42.9205 79.0675 42.6918 78.7976 42.5241C78.5305 42.3565 78.2152 42.2727 77.8516 42.2727C77.451 42.2727 77.1044 42.3722 76.8118 42.571C76.522 42.767 76.299 43.0227 76.1428 43.3381C75.9865 43.6534 75.9084 43.9915 75.9084 44.3523V44.9318C75.9084 45.4261 75.9936 45.8452 76.1641 46.1889C76.3374 46.5298 76.5774 46.7898 76.8842 46.9688C77.1911 47.1449 77.5476 47.233 77.9538 47.233C78.218 47.233 78.4567 47.196 78.6697 47.1222C78.8857 47.0455 79.0717 46.9318 79.228 46.7812C79.3842 46.6278 79.505 46.4375 79.5902 46.2102L80.5618 46.483C80.4595 46.8125 80.2876 47.1023 80.0462 47.3523C79.8047 47.5994 79.5064 47.7926 79.1513 47.9318C78.7962 48.0682 78.397 48.1364 77.9538 48.1364ZM82.1939 48V41.4545H83.1655V42.4432H83.2337C83.353 42.1193 83.5689 41.8565 83.8814 41.6548C84.1939 41.4531 84.5462 41.3523 84.9382 41.3523C85.0121 41.3523 85.1044 41.3537 85.2152 41.3565C85.326 41.3594 85.4098 41.3636 85.4666 41.3693V42.392C85.4325 42.3835 85.3544 42.3707 85.2322 42.3537C85.1129 42.3338 84.9865 42.3239 84.853 42.3239C84.5348 42.3239 84.2507 42.3906 84.0007 42.5241C83.7536 42.6548 83.5575 42.8366 83.4126 43.0696C83.2706 43.2997 83.1996 43.5625 83.1996 43.858V48H82.1939ZM87.6644 44.0625V48H86.6587V41.4545H87.6303V42.4773H87.7156C87.869 42.1449 88.1019 41.8778 88.4144 41.6761C88.7269 41.4716 89.1303 41.3693 89.6246 41.3693C90.0678 41.3693 90.4556 41.4602 90.788 41.642C91.1204 41.821 91.3789 42.0938 91.5636 42.4602C91.7482 42.8239 91.8406 43.2841 91.8406 43.8409V48H90.8349V43.9091C90.8349 43.3949 90.7013 42.9943 90.4343 42.7074C90.1673 42.4176 89.8008 42.2727 89.3349 42.2727C89.0138 42.2727 88.7269 42.3423 88.4741 42.4815C88.2241 42.6207 88.0266 42.8239 87.8817 43.0909C87.7369 43.358 87.6644 43.6818 87.6644 44.0625ZM95.6044 48.1534C95.1896 48.1534 94.8132 48.0753 94.4751 47.919C94.1371 47.7599 93.8686 47.5312 93.6697 47.233C93.4709 46.9318 93.3714 46.5682 93.3714 46.142C93.3714 45.767 93.4453 45.4631 93.593 45.2301C93.7408 44.9943 93.9382 44.8097 94.1854 44.6761C94.4325 44.5426 94.7053 44.4432 95.0036 44.3778C95.3047 44.3097 95.6072 44.2557 95.9112 44.2159C96.3089 44.1648 96.6314 44.1264 96.8786 44.1009C97.1286 44.0724 97.3104 44.0256 97.424 43.9602C97.5405 43.8949 97.5987 43.7812 97.5987 43.6193V43.5852C97.5987 43.1648 97.4837 42.8381 97.2536 42.6051C97.0263 42.3722 96.6811 42.2557 96.218 42.2557C95.7379 42.2557 95.3615 42.3608 95.0888 42.571C94.8161 42.7812 94.6243 43.0057 94.5135 43.2443L93.5589 42.9034C93.7294 42.5057 93.9567 42.196 94.2408 41.9744C94.5277 41.75 94.8402 41.5937 95.1783 41.5057C95.5192 41.4148 95.8544 41.3693 96.1839 41.3693C96.3942 41.3693 96.6357 41.3949 96.9084 41.446C97.1839 41.4943 97.4496 41.5952 97.7053 41.7486C97.9638 41.902 98.1783 42.1335 98.3487 42.4432C98.5192 42.7528 98.6044 43.1676 98.6044 43.6875V48H97.5987V47.1136H97.5476C97.4794 47.2557 97.3658 47.4077 97.2067 47.5696C97.0476 47.7315 96.8359 47.8693 96.5717 47.983C96.3075 48.0966 95.9851 48.1534 95.6044 48.1534ZM95.7578 47.25C96.1555 47.25 96.4908 47.1719 96.7635 47.0156C97.0391 46.8594 97.2464 46.6577 97.3857 46.4105C97.5277 46.1634 97.5987 45.9034 97.5987 45.6307V44.7102C97.5561 44.7614 97.4624 44.8082 97.3175 44.8509C97.1754 44.8906 97.0107 44.9261 96.8232 44.9574C96.6385 44.9858 96.4581 45.0114 96.282 45.0341C96.1087 45.054 95.968 45.071 95.8601 45.0852C95.5987 45.1193 95.3544 45.1747 95.1271 45.2514C94.9027 45.3253 94.7209 45.4375 94.5817 45.5881C94.4453 45.7358 94.3771 45.9375 94.3771 46.1932C94.3771 46.5426 94.5064 46.8068 94.7649 46.9858C95.0263 47.1619 95.3572 47.25 95.7578 47.25ZM101.446 44.0625V48H100.44V41.4545H101.412V42.4773H101.497C101.65 42.1449 101.883 41.8778 102.196 41.6761C102.508 41.4716 102.912 41.3693 103.406 41.3693C103.849 41.3693 104.237 41.4602 104.569 41.642C104.902 41.821 105.16 42.0938 105.345 42.4602C105.529 42.8239 105.622 43.2841 105.622 43.8409V48H104.616V43.9091C104.616 43.3949 104.483 42.9943 104.216 42.7074C103.949 42.4176 103.582 42.2727 103.116 42.2727C102.795 42.2727 102.508 42.3423 102.255 42.4815C102.005 42.6207 101.808 42.8239 101.663 43.0909C101.518 43.358 101.446 43.6818 101.446 44.0625ZM110.119 48.1364C109.505 48.1364 108.977 47.9915 108.533 47.7017C108.09 47.4119 107.749 47.0128 107.511 46.5043C107.272 45.9957 107.153 45.4148 107.153 44.7614C107.153 44.0966 107.275 43.5099 107.519 43.0014C107.766 42.4901 108.11 42.0909 108.55 41.804C108.994 41.5142 109.511 41.3693 110.102 41.3693C110.562 41.3693 110.977 41.4545 111.346 41.625C111.715 41.7955 112.018 42.0341 112.254 42.3409C112.489 42.6477 112.636 43.0057 112.692 43.4148H111.687C111.61 43.1165 111.44 42.8523 111.175 42.6222C110.914 42.3892 110.562 42.2727 110.119 42.2727C109.727 42.2727 109.383 42.375 109.087 42.5795C108.795 42.7812 108.566 43.0668 108.401 43.4361C108.239 43.8026 108.158 44.233 108.158 44.7273C108.158 45.233 108.238 45.6733 108.397 46.0483C108.559 46.4233 108.786 46.7145 109.079 46.9219C109.374 47.1293 109.721 47.233 110.119 47.233C110.38 47.233 110.617 47.1875 110.83 47.0966C111.043 47.0057 111.224 46.875 111.371 46.7045C111.519 46.5341 111.624 46.3295 111.687 46.0909H112.692C112.636 46.4773 112.495 46.8253 112.271 47.1349C112.049 47.4418 111.755 47.6861 111.388 47.8679C111.025 48.0469 110.602 48.1364 110.119 48.1364ZM116.907 48.1364C116.276 48.1364 115.732 47.9972 115.275 47.7188C114.82 47.4375 114.469 47.0455 114.222 46.5426C113.978 46.0369 113.856 45.4489 113.856 44.7784C113.856 44.108 113.978 43.517 114.222 43.0057C114.469 42.4915 114.813 42.0909 115.254 41.804C115.697 41.5142 116.214 41.3693 116.805 41.3693C117.146 41.3693 117.482 41.4261 117.815 41.5398C118.147 41.6534 118.45 41.8381 118.722 42.0938C118.995 42.3466 119.212 42.6818 119.374 43.0994C119.536 43.517 119.617 44.0312 119.617 44.642V45.0682H114.572V44.1989H118.594C118.594 43.8295 118.521 43.5 118.373 43.2102C118.228 42.9205 118.021 42.6918 117.751 42.5241C117.484 42.3565 117.168 42.2727 116.805 42.2727C116.404 42.2727 116.058 42.3722 115.765 42.571C115.475 42.767 115.252 43.0227 115.096 43.3381C114.94 43.6534 114.862 43.9915 114.862 44.3523V44.9318C114.862 45.4261 114.947 45.8452 115.117 46.1889C115.29 46.5298 115.531 46.7898 115.837 46.9688C116.144 47.1449 116.501 47.233 116.907 47.233C117.171 47.233 117.41 47.196 117.623 47.1222C117.839 47.0455 118.025 46.9318 118.181 46.7812C118.337 46.6278 118.458 46.4375 118.543 46.2102L119.515 46.483C119.413 46.8125 119.241 47.1023 118.999 47.3523C118.758 47.5994 118.46 47.7926 118.104 47.9318C117.749 48.0682 117.35 48.1364 116.907 48.1364ZM124.658 48V39.2727H125.664V42.4943H125.749C125.823 42.3807 125.925 42.2358 126.056 42.0597C126.19 41.8807 126.38 41.7216 126.627 41.5824C126.877 41.4403 127.215 41.3693 127.641 41.3693C128.192 41.3693 128.678 41.5071 129.099 41.7827C129.519 42.0582 129.847 42.4489 130.083 42.9545C130.319 43.4602 130.437 44.0568 130.437 44.7443C130.437 45.4375 130.319 46.0384 130.083 46.5469C129.847 47.0526 129.521 47.4446 129.103 47.723C128.685 47.9986 128.204 48.1364 127.658 48.1364C127.238 48.1364 126.901 48.0668 126.648 47.9276C126.396 47.7855 126.201 47.625 126.065 47.446C125.928 47.2642 125.823 47.1136 125.749 46.9943H125.63V48H124.658ZM125.647 44.7273C125.647 45.2216 125.719 45.6577 125.864 46.0355C126.009 46.4105 126.221 46.7045 126.499 46.9176C126.778 47.1278 127.119 47.233 127.522 47.233C127.942 47.233 128.293 47.1222 128.575 46.9006C128.859 46.6761 129.072 46.375 129.214 45.9972C129.359 45.6165 129.431 45.1932 129.431 44.7273C129.431 44.267 129.36 43.8523 129.218 43.483C129.079 43.1108 128.867 42.8168 128.583 42.6009C128.302 42.3821 127.948 42.2727 127.522 42.2727C127.113 42.2727 126.769 42.3764 126.491 42.5838C126.212 42.7884 126.002 43.0753 125.86 43.4446C125.718 43.8111 125.647 44.2386 125.647 44.7273ZM132.388 50.4545C132.218 50.4545 132.066 50.4403 131.933 50.4119C131.799 50.3864 131.707 50.3608 131.656 50.3352L131.911 49.4489C132.156 49.5114 132.371 49.5341 132.559 49.517C132.746 49.5 132.913 49.4162 133.058 49.2656C133.205 49.1179 133.34 48.8778 133.462 48.5455L133.65 48.0341L131.229 41.4545H132.32L134.127 46.6705H134.195L136.002 41.4545H137.093L134.315 48.9545C134.19 49.2926 134.035 49.5724 133.85 49.794C133.665 50.0185 133.451 50.1847 133.207 50.2926C132.965 50.4006 132.692 50.4545 132.388 50.4545ZM146.705 41.4545C146.653 41.0227 146.446 40.6875 146.082 40.4489C145.719 40.2102 145.273 40.0909 144.744 40.0909C144.358 40.0909 144.02 40.1534 143.73 40.2784C143.443 40.4034 143.219 40.5753 143.057 40.794C142.898 41.0128 142.818 41.2614 142.818 41.5398C142.818 41.7727 142.874 41.973 142.984 42.1406C143.098 42.3054 143.243 42.4432 143.419 42.554C143.595 42.6619 143.78 42.7514 143.973 42.8224C144.166 42.8906 144.344 42.946 144.506 42.9886L145.392 43.2273C145.619 43.2869 145.872 43.3693 146.151 43.4744C146.432 43.5795 146.7 43.723 146.956 43.9048C147.214 44.0838 147.428 44.3139 147.595 44.5952C147.763 44.8764 147.847 45.2216 147.847 45.6307C147.847 46.1023 147.723 46.5284 147.476 46.9091C147.232 47.2898 146.874 47.5923 146.402 47.8168C145.933 48.0412 145.364 48.1534 144.693 48.1534C144.068 48.1534 143.527 48.0526 143.07 47.8509C142.615 47.6491 142.257 47.3679 141.996 47.0071C141.737 46.6463 141.591 46.2273 141.557 45.75H142.648C142.676 46.0795 142.787 46.3523 142.98 46.5682C143.176 46.7812 143.423 46.9403 143.722 47.0455C144.023 47.1477 144.347 47.1989 144.693 47.1989C145.097 47.1989 145.459 47.1335 145.78 47.0028C146.101 46.8693 146.355 46.6847 146.543 46.4489C146.73 46.2102 146.824 45.9318 146.824 45.6136C146.824 45.3239 146.743 45.0881 146.581 44.9062C146.419 44.7244 146.206 44.5767 145.942 44.4631C145.678 44.3494 145.392 44.25 145.085 44.1648L144.011 43.858C143.33 43.6619 142.79 43.3821 142.392 43.0185C141.994 42.6548 141.795 42.179 141.795 41.5909C141.795 41.1023 141.928 40.6761 142.192 40.3125C142.459 39.946 142.817 39.6619 143.266 39.4602C143.717 39.2557 144.222 39.1534 144.778 39.1534C145.341 39.1534 145.841 39.2543 146.278 39.456C146.716 39.6548 147.063 39.9276 147.318 40.2741C147.577 40.6207 147.713 41.0142 147.727 41.4545H146.705ZM153.573 45.3239V41.4545H154.578V48H153.573V46.892H153.505C153.351 47.2244 153.113 47.5071 152.789 47.7401C152.465 47.9702 152.056 48.0852 151.561 48.0852C151.152 48.0852 150.789 47.9957 150.471 47.8168C150.152 47.6349 149.902 47.3622 149.721 46.9986C149.539 46.6321 149.448 46.1705 149.448 45.6136V41.4545H150.453V45.5455C150.453 46.0227 150.587 46.4034 150.854 46.6875C151.124 46.9716 151.468 47.1136 151.885 47.1136C152.135 47.1136 152.39 47.0497 152.648 46.9219C152.909 46.794 153.128 46.598 153.304 46.3338C153.483 46.0696 153.573 45.733 153.573 45.3239ZM156.557 48V39.2727H157.562V42.4943H157.648C157.722 42.3807 157.824 42.2358 157.955 42.0597C158.088 41.8807 158.278 41.7216 158.526 41.5824C158.776 41.4403 159.114 41.3693 159.54 41.3693C160.091 41.3693 160.577 41.5071 160.997 41.7827C161.418 42.0582 161.746 42.4489 161.982 42.9545C162.217 43.4602 162.335 44.0568 162.335 44.7443C162.335 45.4375 162.217 46.0384 161.982 46.5469C161.746 47.0526 161.419 47.4446 161.001 47.723C160.584 47.9986 160.102 48.1364 159.557 48.1364C159.136 48.1364 158.8 48.0668 158.547 47.9276C158.294 47.7855 158.099 47.625 157.963 47.446C157.827 47.2642 157.722 47.1136 157.648 46.9943H157.528V48H156.557ZM157.545 44.7273C157.545 45.2216 157.618 45.6577 157.763 46.0355C157.908 46.4105 158.119 46.7045 158.398 46.9176C158.676 47.1278 159.017 47.233 159.42 47.233C159.841 47.233 160.192 47.1222 160.473 46.9006C160.757 46.6761 160.97 46.375 161.112 45.9972C161.257 45.6165 161.33 45.1932 161.33 44.7273C161.33 44.267 161.259 43.8523 161.116 43.483C160.977 43.1108 160.766 42.8168 160.482 42.6009C160.2 42.3821 159.847 42.2727 159.42 42.2727C159.011 42.2727 158.668 42.3764 158.389 42.5838C158.111 42.7884 157.901 43.0753 157.759 43.4446C157.616 43.8111 157.545 44.2386 157.545 44.7273ZM168.783 41.4545C168.732 41.0227 168.524 40.6875 168.161 40.4489C167.797 40.2102 167.351 40.0909 166.822 40.0909C166.436 40.0909 166.098 40.1534 165.808 40.2784C165.521 40.4034 165.297 40.5753 165.135 40.794C164.976 41.0128 164.896 41.2614 164.896 41.5398C164.896 41.7727 164.952 41.973 165.062 42.1406C165.176 42.3054 165.321 42.4432 165.497 42.554C165.673 42.6619 165.858 42.7514 166.051 42.8224C166.244 42.8906 166.422 42.946 166.584 42.9886L167.47 43.2273C167.697 43.2869 167.95 43.3693 168.229 43.4744C168.51 43.5795 168.778 43.723 169.034 43.9048C169.293 44.0838 169.506 44.3139 169.673 44.5952C169.841 44.8764 169.925 45.2216 169.925 45.6307C169.925 46.1023 169.801 46.5284 169.554 46.9091C169.31 47.2898 168.952 47.5923 168.48 47.8168C168.011 48.0412 167.442 48.1534 166.771 48.1534C166.146 48.1534 165.605 48.0526 165.148 47.8509C164.693 47.6491 164.335 47.3679 164.074 47.0071C163.815 46.6463 163.669 46.2273 163.635 45.75H164.726C164.754 46.0795 164.865 46.3523 165.058 46.5682C165.254 46.7812 165.501 46.9403 165.8 47.0455C166.101 47.1477 166.425 47.1989 166.771 47.1989C167.175 47.1989 167.537 47.1335 167.858 47.0028C168.179 46.8693 168.433 46.6847 168.621 46.4489C168.808 46.2102 168.902 45.9318 168.902 45.6136C168.902 45.3239 168.821 45.0881 168.659 44.9062C168.497 44.7244 168.284 44.5767 168.02 44.4631C167.756 44.3494 167.47 44.25 167.163 44.1648L166.089 43.858C165.408 43.6619 164.868 43.3821 164.47 43.0185C164.072 42.6548 163.874 42.179 163.874 41.5909C163.874 41.1023 164.006 40.6761 164.27 40.3125C164.537 39.946 164.895 39.6619 165.344 39.4602C165.795 39.2557 166.3 39.1534 166.857 39.1534C167.419 39.1534 167.919 39.2543 168.357 39.456C168.794 39.6548 169.141 39.9276 169.396 40.2741C169.655 40.6207 169.791 41.0142 169.805 41.4545H168.783ZM175.992 50.4545V46.9943H175.907C175.833 47.1136 175.728 47.2642 175.591 47.446C175.455 47.625 175.26 47.7855 175.007 47.9276C174.755 48.0668 174.418 48.1364 173.998 48.1364C173.452 48.1364 172.971 47.9986 172.553 47.723C172.135 47.4446 171.809 47.0526 171.573 46.5469C171.337 46.0384 171.219 45.4375 171.219 44.7443C171.219 44.0568 171.337 43.4602 171.573 42.9545C171.809 42.4489 172.137 42.0582 172.557 41.7827C172.978 41.5071 173.463 41.3693 174.015 41.3693C174.441 41.3693 174.777 41.4403 175.025 41.5824C175.275 41.7216 175.465 41.8807 175.596 42.0597C175.729 42.2358 175.833 42.3807 175.907 42.4943H176.026V41.4545H176.998V50.4545H175.992ZM174.134 47.233C174.537 47.233 174.878 47.1278 175.157 46.9176C175.435 46.7045 175.647 46.4105 175.792 46.0355C175.936 45.6577 176.009 45.2216 176.009 44.7273C176.009 44.2386 175.938 43.8111 175.796 43.4446C175.654 43.0753 175.444 42.7884 175.165 42.5838C174.887 42.3764 174.543 42.2727 174.134 42.2727C173.708 42.2727 173.353 42.3821 173.069 42.6009C172.787 42.8168 172.576 43.1108 172.434 43.483C172.294 43.8523 172.225 44.267 172.225 44.7273C172.225 45.1932 172.296 45.6165 172.438 45.9972C172.583 46.375 172.796 46.6761 173.077 46.9006C173.361 47.1222 173.713 47.233 174.134 47.233ZM182.963 45.3239V41.4545H183.969V48H182.963V46.892H182.895C182.742 47.2244 182.503 47.5071 182.179 47.7401C181.855 47.9702 181.446 48.0852 180.952 48.0852C180.543 48.0852 180.179 47.9957 179.861 47.8168C179.543 47.6349 179.293 47.3622 179.111 46.9986C178.929 46.6321 178.838 46.1705 178.838 45.6136V41.4545H179.844V45.5455C179.844 46.0227 179.978 46.4034 180.245 46.6875C180.515 46.9716 180.858 47.1136 181.276 47.1136C181.526 47.1136 181.78 47.0497 182.039 46.9219C182.3 46.794 182.519 46.598 182.695 46.3338C182.874 46.0696 182.963 45.733 182.963 45.3239ZM187.737 48.1534C187.322 48.1534 186.946 48.0753 186.608 47.919C186.27 47.7599 186.001 47.5312 185.803 47.233C185.604 46.9318 185.504 46.5682 185.504 46.142C185.504 45.767 185.578 45.4631 185.726 45.2301C185.874 44.9943 186.071 44.8097 186.318 44.6761C186.565 44.5426 186.838 44.4432 187.136 44.3778C187.438 44.3097 187.74 44.2557 188.044 44.2159C188.442 44.1648 188.764 44.1264 189.011 44.1009C189.261 44.0724 189.443 44.0256 189.557 43.9602C189.673 43.8949 189.732 43.7812 189.732 43.6193V43.5852C189.732 43.1648 189.616 42.8381 189.386 42.6051C189.159 42.3722 188.814 42.2557 188.351 42.2557C187.871 42.2557 187.494 42.3608 187.222 42.571C186.949 42.7812 186.757 43.0057 186.646 43.2443L185.692 42.9034C185.862 42.5057 186.089 42.196 186.374 41.9744C186.661 41.75 186.973 41.5937 187.311 41.5057C187.652 41.4148 187.987 41.3693 188.317 41.3693C188.527 41.3693 188.768 41.3949 189.041 41.446C189.317 41.4943 189.582 41.5952 189.838 41.7486C190.097 41.902 190.311 42.1335 190.482 42.4432C190.652 42.7528 190.737 43.1676 190.737 43.6875V48H189.732V47.1136H189.68C189.612 47.2557 189.499 47.4077 189.339 47.5696C189.18 47.7315 188.969 47.8693 188.705 47.983C188.44 48.0966 188.118 48.1534 187.737 48.1534ZM187.891 47.25C188.288 47.25 188.624 47.1719 188.896 47.0156C189.172 46.8594 189.379 46.6577 189.518 46.4105C189.661 46.1634 189.732 45.9034 189.732 45.6307V44.7102C189.689 44.7614 189.595 44.8082 189.45 44.8509C189.308 44.8906 189.143 44.9261 188.956 44.9574C188.771 44.9858 188.591 45.0114 188.415 45.0341C188.241 45.054 188.101 45.071 187.993 45.0852C187.732 45.1193 187.487 45.1747 187.26 45.2514C187.036 45.3253 186.854 45.4375 186.714 45.5881C186.578 45.7358 186.51 45.9375 186.51 46.1932C186.51 46.5426 186.639 46.8068 186.898 46.9858C187.159 47.1619 187.49 47.25 187.891 47.25ZM192.573 48V41.4545H193.544V42.4432H193.613C193.732 42.1193 193.948 41.8565 194.26 41.6548C194.573 41.4531 194.925 41.3523 195.317 41.3523C195.391 41.3523 195.483 41.3537 195.594 41.3565C195.705 41.3594 195.789 41.3636 195.846 41.3693V42.392C195.811 42.3835 195.733 42.3707 195.611 42.3537C195.492 42.3338 195.365 42.3239 195.232 42.3239C194.914 42.3239 194.63 42.3906 194.38 42.5241C194.132 42.6548 193.936 42.8366 193.792 43.0696C193.65 43.2997 193.578 43.5625 193.578 43.858V48H192.573ZM199.583 48.1364C198.952 48.1364 198.408 47.9972 197.951 47.7188C197.496 47.4375 197.145 47.0455 196.898 46.5426C196.654 46.0369 196.532 45.4489 196.532 44.7784C196.532 44.108 196.654 43.517 196.898 43.0057C197.145 42.4915 197.489 42.0909 197.929 41.804C198.373 41.5142 198.89 41.3693 199.48 41.3693C199.821 41.3693 200.158 41.4261 200.49 41.5398C200.823 41.6534 201.125 41.8381 201.398 42.0938C201.671 42.3466 201.888 42.6818 202.05 43.0994C202.212 43.517 202.293 44.0312 202.293 44.642V45.0682H197.248V44.1989H201.27C201.27 43.8295 201.196 43.5 201.049 43.2102C200.904 42.9205 200.696 42.6918 200.426 42.5241C200.159 42.3565 199.844 42.2727 199.48 42.2727C199.08 42.2727 198.733 42.3722 198.441 42.571C198.151 42.767 197.928 43.0227 197.772 43.3381C197.615 43.6534 197.537 43.9915 197.537 44.3523V44.9318C197.537 45.4261 197.623 45.8452 197.793 46.1889C197.966 46.5298 198.206 46.7898 198.513 46.9688C198.82 47.1449 199.176 47.233 199.583 47.233C199.847 47.233 200.086 47.196 200.299 47.1222C200.515 47.0455 200.701 46.9318 200.857 46.7812C201.013 46.6278 201.134 46.4375 201.219 46.2102L202.191 46.483C202.088 46.8125 201.917 47.1023 201.675 47.3523C201.434 47.5994 201.135 47.7926 200.78 47.9318C200.425 48.0682 200.026 48.1364 199.583 48.1364Z" fill="#9DA9BB"/>
<defs>
<linearGradient id="paint0_linear_13417_71829" x1="23.2419" y1="25.3139" x2="23.2419" y2="40.5585" gradientUnits="userSpaceOnUse">
<stop stop-color="#FAB961"/>
<stop offset="1"/>
</linearGradient>
<linearGradient id="paint1_linear_13417_71829" x1="15.8532" y1="22.2217" x2="15.8532" y2="44.8177" gradientUnits="userSpaceOnUse">
<stop stop-color="#FAB961"/>
<stop offset="1"/>
</linearGradient>
<linearGradient id="paint2_linear_13417_71829" x1="15.0731" y1="20.3454" x2="15.0731" y2="40.5868" gradientUnits="userSpaceOnUse">
<stop/>
<stop offset="0.414296" stop-color="#FAB961"/>
</linearGradient>
<linearGradient id="paint3_linear_13417_71829" x1="15.319" y1="25.2553" x2="15.319" y2="41.7155" gradientUnits="userSpaceOnUse">
<stop/>
<stop offset="1" stop-color="#FAB961"/>
</linearGradient>
<linearGradient id="paint4_linear_13417_71829" x1="17.1938" y1="24.286" x2="17.1938" y2="40.1118" gradientUnits="userSpaceOnUse">
<stop/>
<stop offset="1" stop-color="#FAB961"/>
</linearGradient>
<clipPath id="clip0_13417_71829">
<rect width="40" height="40" fill="white" transform="translate(0 12)"/>
</clipPath>
</defs>
</svg>
