<svg width="253" height="64" viewBox="0 0 253 64" fill="none" xmlns="http://www.w3.org/2000/svg">
    <path fill-rule="evenodd" clip-rule="evenodd"
          d="M25.4297 17.6961C22.7413 15.938 19.5803 14.9998 16.3469 15C14.2005 15 12.0749 15.4138 10.0912 16.2179C8.1083 17.0219 6.30577 18.2004 4.78773 19.686C3.26969 21.1717 2.0662 22.9353 1.24435 24.8764C0.422492 26.8175 0 28.8981 0 30.999C0 34.1636 0.958316 37.2572 2.75468 39.8886C4.55104 42.5198 7.10449 44.5707 10.0912 45.7818C13.0787 46.993 16.3662 47.3099 19.5372 46.6926C22.7089 46.0753 25.6217 44.5513 27.9084 42.3136C30.1943 40.0759 31.7516 37.225 32.3823 34.1212C33.013 31.0174 32.6891 27.8003 31.4517 24.8766C30.2143 21.953 28.1188 19.4541 25.4297 17.6961ZM16.3469 44.9988C16.3469 44.9988 11.0141 38.7312 11.0141 30.999C11.0141 23.268 16.3469 17.0002 16.3469 17.0002C16.3469 17.0002 21.6805 23.267 21.6805 30.999C21.6805 38.7312 16.3469 44.9988 16.3469 44.9988Z"
          fill="#4FFFB0"/>
    <path fill-rule="evenodd" clip-rule="evenodd"
          d="M43.7125 20.3335V32.7781H52.7937V30.9999H54.6109V27.4445H52.7937V25.6662H54.6109V22.1117H52.7937V20.3335H43.7125ZM50.9766 25.6662H47.3438V22.1117H50.9766V25.6662ZM47.3438 27.4445H50.9766V30.9999H47.3438V27.4445Z"
          fill="#4FFFB0"/>
    <path fill-rule="evenodd" clip-rule="evenodd"
          d="M58.2437 30.9998H56.4281V25.6662H58.2437V23.8889H67.3258V32.778H58.2437V30.9998ZM60.0601 30.9998H63.6937V25.6662H60.0601V30.9998Z"
          fill="#4FFFB0"/>
    <path d="M69.1414 32.778H80.0398L80.0391 27.4444H72.7734V25.6662H80.0391V23.8889H69.1406V29.2226H76.4062V30.9998H69.1414V32.778Z"
          fill="#4FFFB0"/>
    <path d="M81.8555 22.1117V20.3335H85.4883V22.1117H81.8555Z" fill="#4FFFB0"/>
    <path d="M81.8555 32.7781V23.889H85.4883V32.7781H81.8555Z" fill="#4FFFB0"/>
    <path d="M87.3055 32.7781H90.9367V20.3335H87.3055V32.7781Z" fill="#4FFFB0"/>
    <path d="M92.7547 22.1117V20.3335H96.3867V22.1117H92.7547Z" fill="#4FFFB0"/>
    <path d="M92.7547 32.7781V23.889H96.3867V32.7781H92.7547Z" fill="#4FFFB0"/>
    <path d="M98.2031 32.778H109.101V27.4444H101.835V25.6662H109.101V23.8889H98.2031V29.2226H105.469V30.9998H98.2031V32.778Z"
          fill="#4FFFB0"/>
    <path d="M118.184 30.9999H120V32.7781H116.367V30.9999H114.551V32.7781H110.919V20.3335H114.551V25.6662H116.367V23.889H120V25.6662H118.184V27.4445H116.367V29.2226H118.184V30.9999Z"
          fill="#4FFFB0"/>
    <path d="M49.3822 37.6658H53.4691V38.999L54.8314 38.9989V40.3322H50.7437L50.7445 38.999H49.3822V37.6658Z"
          fill="#4FFFB0"/>
    <path d="M49.3822 38.999V40.3322H45.2953V38.999H43.933V37.6658H48.0199V38.999H49.3822Z" fill="#4FFFB0"/>
    <path d="M60.2806 38.9989V40.3322H56.1937V38.999L54.8314 38.9989V37.6658H58.9183V38.999L60.2806 38.9989Z"
          fill="#4FFFB0"/>
    <path d="M65.7291 38.9989V40.3322H61.6422L61.6429 38.999L60.2806 38.9989V37.6658H64.3668V38.999L65.7291 38.9989Z"
          fill="#4FFFB0"/>
    <path d="M71.1791 38.9989V40.3322H67.0922V38.999L65.7291 38.9989L65.7299 37.6658H69.8168V38.999L71.1791 38.9989Z"
          fill="#4FFFB0"/>
    <path d="M76.6275 38.9989V40.3322H72.5406L72.5414 38.999L71.1791 38.9989V37.6658H75.2652V38.999L76.6275 38.9989Z"
          fill="#4FFFB0"/>
    <path d="M76.6275 38.9989V37.6658H79.3514V40.3322H77.9898V38.999L76.6275 38.9989Z" fill="#4FFFB0"/>
    <path d="M79.3529 37.6658H80.7144V38.999L82.0767 38.9989V40.3322H79.3529V37.6658Z" fill="#4FFFB0"/>
    <path d="M87.5252 38.9989V40.3322H83.4398L83.439 38.999L82.0767 38.9989V37.6658H86.1637V38.999L87.5252 38.9989Z"
          fill="#4FFFB0"/>
    <path d="M92.9744 38.9989V40.3322H88.8883V38.999L87.5252 38.9989L87.526 37.6658H91.6129V38.999L92.9744 38.9989Z"
          fill="#4FFFB0"/>
    <path d="M98.4244 38.9989V40.3322H94.3383L94.3375 38.999L92.9744 38.9989L92.9752 37.6658H97.0613V38.999L98.4244 38.9989Z"
          fill="#4FFFB0"/>
    <path fill-rule="evenodd" clip-rule="evenodd"
          d="M101.149 37.6658H98.4244V38.9989L99.7859 38.999L99.7867 40.3322H105.235V37.6658H102.511V36.3327H101.149V37.6658ZM101.149 37.6658H102.511V38.999H101.149V37.6658Z"
          fill="#4FFFB0"/>
    <path d="M113.409 36.3327H112.047V37.6659L110.685 37.6657V40.3322H112.047V37.6659H113.409V36.3327Z" fill="#4FFFB0"/>
    <path d="M114.772 37.6658H113.411V36.3326H114.772V37.6658Z" fill="#4FFFB0"/>
    <path d="M114.772 37.6658L116.134 37.6649V38.9981H114.771L114.772 37.6658Z" fill="#4FFFB0"/>
    <path d="M114.771 41.6657V40.3324L112.047 40.3322V41.6657H114.771Z" fill="#4FFFB0"/>
    <path d="M136 25V37" stroke="white" stroke-opacity="0.2"/>
    <path d="M160.896 24.224H163.264V28.768C162.656 29.2267 161.952 29.5787 161.152 29.824C160.352 30.0693 159.547 30.192 158.736 30.192C157.573 30.192 156.528 29.9467 155.6 29.456C154.672 28.9547 153.941 28.2667 153.408 27.392C152.885 26.5067 152.624 25.5093 152.624 24.4C152.624 23.2907 152.885 22.2987 153.408 21.424C153.941 20.5387 154.677 19.8507 155.616 19.36C156.555 18.8587 157.611 18.608 158.784 18.608C159.765 18.608 160.656 18.7733 161.456 19.104C162.256 19.4347 162.928 19.9147 163.472 20.544L161.808 22.08C161.008 21.2373 160.043 20.816 158.912 20.816C158.197 20.816 157.563 20.9653 157.008 21.264C156.453 21.5627 156.021 21.984 155.712 22.528C155.403 23.072 155.248 23.696 155.248 24.4C155.248 25.0933 155.403 25.712 155.712 26.256C156.021 26.8 156.448 27.2267 156.992 27.536C157.547 27.8347 158.176 27.984 158.88 27.984C159.627 27.984 160.299 27.824 160.896 27.504V24.224ZM169.592 30.128C168.685 30.128 167.869 29.9413 167.144 29.568C166.429 29.184 165.869 28.656 165.464 27.984C165.058 27.312 164.856 26.5493 164.856 25.696C164.856 24.8427 165.058 24.08 165.464 23.408C165.869 22.736 166.429 22.2133 167.144 21.84C167.869 21.456 168.685 21.264 169.592 21.264C170.498 21.264 171.309 21.456 172.024 21.84C172.738 22.2133 173.298 22.736 173.704 23.408C174.109 24.08 174.312 24.8427 174.312 25.696C174.312 26.5493 174.109 27.312 173.704 27.984C173.298 28.656 172.738 29.184 172.024 29.568C171.309 29.9413 170.498 30.128 169.592 30.128ZM169.592 28.08C170.232 28.08 170.754 27.8667 171.16 27.44C171.576 27.0027 171.784 26.4213 171.784 25.696C171.784 24.9707 171.576 24.3947 171.16 23.968C170.754 23.5307 170.232 23.312 169.592 23.312C168.952 23.312 168.424 23.5307 168.008 23.968C167.592 24.3947 167.384 24.9707 167.384 25.696C167.384 26.4213 167.592 27.0027 168.008 27.44C168.424 27.8667 168.952 28.08 169.592 28.08ZM184.29 21.392L180.658 30H178.082L174.466 21.392H177.042L179.426 27.248L181.89 21.392H184.29ZM193.506 25.728C193.506 25.76 193.49 25.984 193.458 26.4H186.946C187.063 26.9333 187.341 27.3547 187.778 27.664C188.215 27.9733 188.759 28.128 189.41 28.128C189.858 28.128 190.253 28.064 190.594 27.936C190.946 27.7973 191.271 27.584 191.57 27.296L192.898 28.736C192.087 29.664 190.903 30.128 189.346 30.128C188.375 30.128 187.517 29.9413 186.77 29.568C186.023 29.184 185.447 28.656 185.042 27.984C184.637 27.312 184.434 26.5493 184.434 25.696C184.434 24.8533 184.631 24.096 185.026 23.424C185.431 22.7413 185.981 22.2133 186.674 21.84C187.378 21.456 188.162 21.264 189.026 21.264C189.869 21.264 190.631 21.4453 191.314 21.808C191.997 22.1707 192.53 22.6933 192.914 23.376C193.309 24.048 193.506 24.832 193.506 25.728ZM189.042 23.152C188.477 23.152 188.002 23.312 187.618 23.632C187.234 23.952 186.999 24.3893 186.914 24.944H191.154C191.069 24.4 190.834 23.968 190.45 23.648C190.066 23.3173 189.597 23.152 189.042 23.152ZM197.552 22.528C197.85 22.112 198.25 21.7973 198.752 21.584C199.264 21.3707 199.85 21.264 200.512 21.264V23.568C200.234 23.5467 200.048 23.536 199.952 23.536C199.237 23.536 198.677 23.7387 198.272 24.144C197.866 24.5387 197.664 25.136 197.664 25.936V30H195.168V21.392H197.552V22.528ZM207.228 21.264C208.294 21.264 209.153 21.584 209.804 22.224C210.465 22.864 210.796 23.8133 210.796 25.072V30H208.3V25.456C208.3 24.7733 208.15 24.2667 207.852 23.936C207.553 23.5947 207.121 23.424 206.556 23.424C205.926 23.424 205.425 23.6213 205.052 24.016C204.678 24.4 204.492 24.976 204.492 25.744V30H201.996V21.392H204.38V22.4C204.71 22.0373 205.121 21.76 205.612 21.568C206.102 21.3653 206.641 21.264 207.228 21.264ZM216.53 21.264C217.864 21.264 218.888 21.584 219.602 22.224C220.317 22.8533 220.674 23.808 220.674 25.088V30H218.338V28.928C217.869 29.728 216.994 30.128 215.714 30.128C215.053 30.128 214.477 30.016 213.986 29.792C213.506 29.568 213.138 29.2587 212.882 28.864C212.626 28.4693 212.498 28.0213 212.498 27.52C212.498 26.72 212.797 26.0907 213.394 25.632C214.002 25.1733 214.936 24.944 216.194 24.944H218.178C218.178 24.4 218.013 23.984 217.682 23.696C217.352 23.3973 216.856 23.248 216.194 23.248C215.736 23.248 215.282 23.3227 214.834 23.472C214.397 23.6107 214.024 23.8027 213.714 24.048L212.818 22.304C213.288 21.9733 213.848 21.7173 214.498 21.536C215.16 21.3547 215.837 21.264 216.53 21.264ZM216.338 28.448C216.765 28.448 217.144 28.352 217.474 28.16C217.805 27.9573 218.04 27.664 218.178 27.28V26.4H216.466C215.442 26.4 214.93 26.736 214.93 27.408C214.93 27.728 215.053 27.984 215.298 28.176C215.554 28.3573 215.901 28.448 216.338 28.448ZM228.165 21.264C229.232 21.264 230.091 21.584 230.741 22.224C231.403 22.864 231.733 23.8133 231.733 25.072V30H229.237V25.456C229.237 24.7733 229.088 24.2667 228.789 23.936C228.491 23.5947 228.059 23.424 227.493 23.424C226.864 23.424 226.363 23.6213 225.989 24.016C225.616 24.4 225.429 24.976 225.429 25.744V30H222.933V21.392H225.317V22.4C225.648 22.0373 226.059 21.76 226.549 21.568C227.04 21.3653 227.579 21.264 228.165 21.264ZM238.25 30.128C237.332 30.128 236.506 29.9413 235.77 29.568C235.044 29.184 234.474 28.656 234.058 27.984C233.652 27.312 233.45 26.5493 233.45 25.696C233.45 24.8427 233.652 24.08 234.058 23.408C234.474 22.736 235.044 22.2133 235.77 21.84C236.506 21.456 237.332 21.264 238.25 21.264C239.156 21.264 239.946 21.456 240.618 21.84C241.3 22.2133 241.796 22.752 242.106 23.456L240.17 24.496C239.722 23.7067 239.076 23.312 238.234 23.312C237.583 23.312 237.044 23.5253 236.618 23.952C236.191 24.3787 235.978 24.96 235.978 25.696C235.978 26.432 236.191 27.0133 236.618 27.44C237.044 27.8667 237.583 28.08 238.234 28.08C239.087 28.08 239.732 27.6853 240.17 26.896L242.106 27.952C241.796 28.6347 241.3 29.168 240.618 29.552C239.946 29.936 239.156 30.128 238.25 30.128ZM251.865 25.728C251.865 25.76 251.849 25.984 251.817 26.4H245.305C245.423 26.9333 245.7 27.3547 246.137 27.664C246.575 27.9733 247.119 28.128 247.769 28.128C248.217 28.128 248.612 28.064 248.953 27.936C249.305 27.7973 249.631 27.584 249.929 27.296L251.257 28.736C250.447 29.664 249.263 30.128 247.705 30.128C246.735 30.128 245.876 29.9413 245.129 29.568C244.383 29.184 243.807 28.656 243.401 27.984C242.996 27.312 242.793 26.5493 242.793 25.696C242.793 24.8533 242.991 24.096 243.385 23.424C243.791 22.7413 244.34 22.2133 245.033 21.84C245.737 21.456 246.521 21.264 247.385 21.264C248.228 21.264 248.991 21.4453 249.673 21.808C250.356 22.1707 250.889 22.6933 251.273 23.376C251.668 24.048 251.865 24.832 251.865 25.728ZM247.401 23.152C246.836 23.152 246.361 23.312 245.977 23.632C245.593 23.952 245.359 24.3893 245.273 24.944H249.513C249.428 24.4 249.193 23.968 248.809 23.648C248.425 23.3173 247.956 23.152 247.401 23.152Z"
          fill="white"/>
    <path d="M156.858 39.5455C156.815 39.1856 156.643 38.9062 156.339 38.7074C156.036 38.5085 155.665 38.4091 155.224 38.4091C154.902 38.4091 154.621 38.4612 154.379 38.5653C154.14 38.6695 153.953 38.8127 153.818 38.995C153.686 39.1773 153.619 39.3845 153.619 39.6165C153.619 39.8106 153.665 39.9775 153.758 40.1172C153.853 40.2545 153.973 40.3693 154.12 40.4616C154.267 40.5516 154.421 40.6262 154.582 40.6854C154.743 40.7422 154.891 40.7884 155.026 40.8239L155.764 41.0227C155.954 41.0724 156.164 41.1411 156.396 41.2287C156.631 41.3163 156.854 41.4358 157.067 41.5874C157.283 41.7365 157.46 41.9283 157.6 42.1626C157.74 42.397 157.81 42.6847 157.81 43.0256C157.81 43.4186 157.707 43.7737 157.501 44.0909C157.297 44.4081 156.999 44.6603 156.606 44.8473C156.215 45.0343 155.741 45.1278 155.182 45.1278C154.661 45.1278 154.21 45.0438 153.829 44.8757C153.45 44.7076 153.152 44.4732 152.934 44.1726C152.719 43.8719 152.597 43.5227 152.568 43.125H153.477C153.501 43.3996 153.593 43.6269 153.754 43.8068C153.918 43.9844 154.124 44.117 154.372 44.2045C154.623 44.2898 154.893 44.3324 155.182 44.3324C155.518 44.3324 155.82 44.2779 156.087 44.169C156.355 44.0578 156.567 43.9039 156.723 43.7074C156.879 43.5085 156.957 43.2765 156.957 43.0114C156.957 42.7699 156.89 42.5734 156.755 42.4219C156.62 42.2704 156.442 42.1473 156.222 42.0526C156.002 41.9579 155.764 41.875 155.509 41.804L154.614 41.5483C154.045 41.3849 153.596 41.1518 153.264 40.8487C152.933 40.5457 152.767 40.1491 152.767 39.6591C152.767 39.2519 152.877 38.8968 153.097 38.5938C153.32 38.2884 153.618 38.0516 153.992 37.8835C154.369 37.7131 154.789 37.6278 155.253 37.6278C155.722 37.6278 156.138 37.7119 156.503 37.88C156.867 38.0457 157.156 38.273 157.369 38.5618C157.585 38.8506 157.698 39.1785 157.71 39.5455H156.858ZM162.581 42.7699V39.5455H163.42V45H162.581V44.0767H162.525C162.397 44.3537 162.198 44.5893 161.928 44.7834C161.658 44.9751 161.317 45.071 160.905 45.071C160.564 45.071 160.261 44.9964 159.996 44.8473C159.731 44.6958 159.523 44.4685 159.371 44.1655C159.22 43.8601 159.144 43.4754 159.144 43.0114V39.5455H159.982V42.9545C159.982 43.3523 160.093 43.6695 160.316 43.9062C160.541 44.143 160.827 44.2614 161.175 44.2614C161.384 44.2614 161.595 44.2081 161.811 44.1016C162.029 43.995 162.211 43.8317 162.358 43.6115C162.507 43.3913 162.581 43.1108 162.581 42.7699ZM165.068 45V37.7273H165.906V40.4119H165.977C166.039 40.3172 166.124 40.1965 166.233 40.0497C166.344 39.9006 166.503 39.768 166.709 39.652C166.917 39.5336 167.199 39.4744 167.554 39.4744C168.013 39.4744 168.418 39.5893 168.768 39.8189C169.119 40.0485 169.392 40.3741 169.589 40.7955C169.785 41.2169 169.884 41.714 169.884 42.2869C169.884 42.8646 169.785 43.3653 169.589 43.7891C169.392 44.2105 169.12 44.5372 168.772 44.7692C168.424 44.9988 168.023 45.1136 167.568 45.1136C167.218 45.1136 166.937 45.0556 166.727 44.9396C166.516 44.8213 166.354 44.6875 166.24 44.5384C166.126 44.3868 166.039 44.2614 165.977 44.1619H165.878V45H165.068ZM165.892 42.2727C165.892 42.6847 165.952 43.0481 166.073 43.3629C166.194 43.6754 166.37 43.9205 166.602 44.098C166.834 44.2732 167.118 44.3608 167.455 44.3608C167.805 44.3608 168.097 44.2685 168.332 44.0838C168.568 43.8968 168.746 43.6458 168.864 43.331C168.985 43.0137 169.045 42.661 169.045 42.2727C169.045 41.8892 168.986 41.5436 168.868 41.2358C168.752 40.9257 168.576 40.6806 168.339 40.5007C168.104 40.3184 167.81 40.2273 167.455 40.2273C167.114 40.2273 166.827 40.3137 166.595 40.4865C166.363 40.657 166.188 40.8961 166.07 41.2038C165.951 41.5092 165.892 41.8655 165.892 42.2727ZM175.256 39.5455C175.214 39.1856 175.041 38.9062 174.738 38.7074C174.435 38.5085 174.063 38.4091 173.623 38.4091C173.301 38.4091 173.019 38.4612 172.778 38.5653C172.539 38.6695 172.352 38.8127 172.217 38.995C172.084 39.1773 172.018 39.3845 172.018 39.6165C172.018 39.8106 172.064 39.9775 172.156 40.1172C172.251 40.2545 172.372 40.3693 172.518 40.4616C172.665 40.5516 172.819 40.6262 172.98 40.6854C173.141 40.7422 173.289 40.7884 173.424 40.8239L174.163 41.0227C174.352 41.0724 174.563 41.1411 174.795 41.2287C175.029 41.3163 175.253 41.4358 175.466 41.5874C175.681 41.7365 175.859 41.9283 175.999 42.1626C176.138 42.397 176.208 42.6847 176.208 43.0256C176.208 43.4186 176.105 43.7737 175.899 44.0909C175.696 44.4081 175.397 44.6603 175.004 44.8473C174.614 45.0343 174.139 45.1278 173.58 45.1278C173.059 45.1278 172.608 45.0438 172.227 44.8757C171.848 44.7076 171.55 44.4732 171.332 44.1726C171.117 43.8719 170.995 43.5227 170.967 43.125H171.876C171.899 43.3996 171.992 43.6269 172.153 43.8068C172.316 43.9844 172.522 44.117 172.771 44.2045C173.022 44.2898 173.291 44.3324 173.58 44.3324C173.916 44.3324 174.218 44.2779 174.486 44.169C174.753 44.0578 174.965 43.9039 175.121 43.7074C175.278 43.5085 175.356 43.2765 175.356 43.0114C175.356 42.7699 175.288 42.5734 175.153 42.4219C175.018 42.2704 174.841 42.1473 174.621 42.0526C174.401 41.9579 174.163 41.875 173.907 41.804L173.012 41.5483C172.444 41.3849 171.994 41.1518 171.663 40.8487C171.331 40.5457 171.165 40.1491 171.165 39.6591C171.165 39.2519 171.276 38.8968 171.496 38.5938C171.718 38.2884 172.017 38.0516 172.391 37.8835C172.767 37.7131 173.187 37.6278 173.651 37.6278C174.12 37.6278 174.537 37.7119 174.901 37.88C175.266 38.0457 175.555 38.273 175.768 38.5618C175.983 38.8506 176.097 39.1785 176.109 39.5455H175.256ZM181.264 47.0455V44.1619H181.193C181.131 44.2614 181.044 44.3868 180.93 44.5384C180.817 44.6875 180.654 44.8213 180.444 44.9396C180.233 45.0556 179.952 45.1136 179.602 45.1136C179.148 45.1136 178.746 44.9988 178.398 44.7692C178.05 44.5372 177.778 44.2105 177.581 43.7891C177.385 43.3653 177.287 42.8646 177.287 42.2869C177.287 41.714 177.385 41.2169 177.581 40.7955C177.778 40.3741 178.051 40.0485 178.402 39.8189C178.752 39.5893 179.157 39.4744 179.616 39.4744C179.971 39.4744 180.252 39.5336 180.458 39.652C180.666 39.768 180.825 39.9006 180.934 40.0497C181.045 40.1965 181.131 40.3172 181.193 40.4119H181.292V39.5455H182.102V47.0455H181.264ZM179.716 44.3608C180.052 44.3608 180.336 44.2732 180.568 44.098C180.8 43.9205 180.976 43.6754 181.097 43.3629C181.218 43.0481 181.278 42.6847 181.278 42.2727C181.278 41.8655 181.219 41.5092 181.101 41.2038C180.982 40.8961 180.807 40.657 180.575 40.4865C180.343 40.3137 180.057 40.2273 179.716 40.2273C179.361 40.2273 179.065 40.3184 178.828 40.5007C178.594 40.6806 178.417 40.9257 178.299 41.2358C178.183 41.5436 178.125 41.8892 178.125 42.2727C178.125 42.661 178.184 43.0137 178.302 43.331C178.423 43.6458 178.601 43.8968 178.835 44.0838C179.072 44.2685 179.365 44.3608 179.716 44.3608ZM187.074 42.7699V39.5455H187.912V45H187.074V44.0767H187.017C186.889 44.3537 186.69 44.5893 186.42 44.7834C186.15 44.9751 185.809 45.071 185.398 45.071C185.057 45.071 184.754 44.9964 184.488 44.8473C184.223 44.6958 184.015 44.4685 183.863 44.1655C183.712 43.8601 183.636 43.4754 183.636 43.0114V39.5455H184.474V42.9545C184.474 43.3523 184.586 43.6695 184.808 43.9062C185.033 44.143 185.319 44.2614 185.667 44.2614C185.876 44.2614 186.088 44.2081 186.303 44.1016C186.521 43.995 186.703 43.8317 186.85 43.6115C186.999 43.3913 187.074 43.1108 187.074 42.7699ZM191.052 45.1278C190.706 45.1278 190.393 45.0627 190.111 44.9325C189.829 44.8 189.605 44.6094 189.44 44.3608C189.274 44.1098 189.191 43.8068 189.191 43.4517C189.191 43.1392 189.253 42.8859 189.376 42.6918C189.499 42.4953 189.663 42.3414 189.869 42.2301C190.075 42.1188 190.303 42.036 190.551 41.9815C190.802 41.9247 191.054 41.8797 191.308 41.8466C191.639 41.804 191.908 41.772 192.114 41.7507C192.322 41.727 192.473 41.688 192.568 41.6335C192.665 41.5791 192.714 41.4844 192.714 41.3494V41.321C192.714 40.9706 192.618 40.6984 192.426 40.5043C192.237 40.3101 191.949 40.2131 191.563 40.2131C191.163 40.2131 190.849 40.3007 190.622 40.4759C190.395 40.651 190.235 40.8381 190.143 41.0369L189.347 40.7528C189.489 40.4214 189.679 40.1634 189.915 39.9787C190.155 39.7917 190.415 39.6615 190.697 39.5881C190.981 39.5123 191.26 39.4744 191.535 39.4744C191.71 39.4744 191.911 39.4957 192.138 39.5384C192.368 39.5786 192.589 39.6626 192.803 39.7905C193.018 39.9183 193.197 40.1113 193.339 40.3693C193.481 40.6274 193.552 40.973 193.552 41.4062V45H192.714V44.2614H192.671C192.614 44.3797 192.52 44.5064 192.387 44.6413C192.254 44.7763 192.078 44.8911 191.858 44.9858C191.638 45.0805 191.369 45.1278 191.052 45.1278ZM191.18 44.375C191.511 44.375 191.79 44.3099 192.018 44.1797C192.247 44.0495 192.42 43.8814 192.536 43.6754C192.655 43.4695 192.714 43.2528 192.714 43.0256V42.2585C192.678 42.3011 192.6 42.3402 192.479 42.3757C192.361 42.4089 192.224 42.4384 192.067 42.4645C191.914 42.4882 191.763 42.5095 191.616 42.5284C191.472 42.545 191.355 42.5592 191.265 42.571C191.047 42.5994 190.844 42.6456 190.654 42.7095C190.467 42.7711 190.316 42.8646 190.2 42.9901C190.086 43.1132 190.029 43.2812 190.029 43.4943C190.029 43.7855 190.137 44.0057 190.352 44.1548C190.57 44.3016 190.846 44.375 191.18 44.375ZM195.081 45V39.5455H195.891V40.3693H195.948C196.047 40.0994 196.227 39.8804 196.488 39.7124C196.748 39.5443 197.042 39.4602 197.368 39.4602C197.43 39.4602 197.507 39.4614 197.599 39.4638C197.692 39.4661 197.761 39.4697 197.809 39.4744V40.3267C197.78 40.3196 197.715 40.3089 197.613 40.2947C197.514 40.2782 197.409 40.2699 197.297 40.2699C197.032 40.2699 196.796 40.3255 196.587 40.4368C196.381 40.5457 196.218 40.6972 196.097 40.8913C195.979 41.0831 195.92 41.3021 195.92 41.5483V45H195.081ZM200.923 45.1136C200.398 45.1136 199.944 44.9976 199.563 44.7656C199.184 44.5312 198.892 44.2045 198.686 43.7855C198.482 43.3641 198.381 42.8741 198.381 42.3153C198.381 41.7566 198.482 41.2642 198.686 40.8381C198.892 40.4096 199.178 40.0758 199.545 39.8366C199.915 39.5952 200.345 39.4744 200.838 39.4744C201.122 39.4744 201.403 39.5218 201.68 39.6165C201.956 39.7112 202.209 39.8651 202.436 40.0781C202.663 40.2888 202.844 40.5682 202.979 40.9162C203.114 41.2642 203.182 41.6927 203.182 42.2017V42.5568H198.977V41.8324H202.329C202.329 41.5246 202.268 41.25 202.145 41.0085C202.024 40.767 201.851 40.5765 201.626 40.4368C201.404 40.2971 201.141 40.2273 200.838 40.2273C200.504 40.2273 200.215 40.3101 199.971 40.4759C199.73 40.6392 199.544 40.8523 199.414 41.1151C199.284 41.3778 199.219 41.6596 199.219 41.9602V42.4432C199.219 42.8551 199.29 43.2043 199.432 43.4908C199.576 43.7749 199.776 43.9915 200.032 44.1406C200.287 44.2874 200.585 44.3608 200.923 44.3608C201.143 44.3608 201.342 44.33 201.52 44.2685C201.7 44.2045 201.855 44.1098 201.985 43.9844C202.115 43.8565 202.216 43.6979 202.287 43.5085L203.096 43.7358C203.011 44.0104 202.868 44.2519 202.667 44.4602C202.465 44.6662 202.217 44.8272 201.921 44.9432C201.625 45.0568 201.292 45.1136 200.923 45.1136Z"
          fill="white" fill-opacity="0.4"/>
</svg>
