<svg width="236" height="64" viewBox="0 0 236 64" fill="none" xmlns="http://www.w3.org/2000/svg">
<g clip-path="url(#clip0_13443_78432)">
<path d="M31.25 51.5L8.75 51.5C4.19365 51.5 0.5 47.8063 0.500001 43.25L0.500003 20.75C0.500003 16.1937 4.19365 12.5 8.75 12.5L31.25 12.5C35.8064 12.5 39.5 16.1937 39.5 20.75L39.5 43.25C39.5 47.8063 35.8063 51.5 31.25 51.5Z" fill="black" stroke="#272A3A"/>
<mask id="mask0_13443_78432" style="mask-type:alpha" maskUnits="userSpaceOnUse" x="1" y="13" width="38" height="38">
<rect x="1" y="13" width="38" height="38" rx="7.5" fill="#D9D9D9"/>
</mask>
<g mask="url(#mask0_13443_78432)">
<path opacity="0.7" d="M-4.48535 37.5723C-4.48535 37.5723 6.70549 41.8659 20.4788 41.8659C34.2522 41.8659 44.4866 37.5723 44.4866 37.5723V54.5977H-4.48535V37.5723Z" fill="url(#paint0_linear_13443_78432)"/>
<path d="M-4.48535 42.0856C-4.48535 42.0856 9.19235 40.0596 20.0006 40.0596C30.8089 40.0596 44.4866 42.0856 44.4866 42.0856V54.2155H-4.48535V42.0856Z" fill="url(#paint1_linear_13443_78432)"/>
<path d="M-4.48535 42.4674C-4.48535 42.4674 9.19235 40.4414 20.0006 40.4414C30.8089 40.4414 44.4866 42.4674 44.4866 42.4674" stroke="url(#paint2_linear_13443_78432)" stroke-width="4"/>
<path d="M9.11091 47.9916C8.78704 47.9916 8.52246 47.7294 8.52246 47.4082V44.5906C8.52246 44.2696 8.78704 44.0117 9.11091 44.0117C9.43479 44.0117 9.69937 44.274 9.69937 44.5952V47.4128C9.6948 47.7294 9.43479 47.9916 9.11091 47.9916Z" fill="white"/>
<path d="M11.5977 47.992C11.4244 47.992 11.2556 47.9151 11.1461 47.7841L9.96009 46.3775C9.77763 46.1604 9.77763 45.8484 9.96009 45.6312L11.1461 44.2202C11.356 43.9716 11.7254 43.9398 11.9718 44.1433C12.2181 44.3469 12.2546 44.7178 12.0493 44.9619L11.1781 46.0022L12.0493 47.0378C12.2546 47.2865 12.2227 47.6529 11.9718 47.8564C11.8669 47.9423 11.7346 47.992 11.5977 47.992Z" fill="white"/>
<path d="M15.5024 47.9912H13.0162C12.6923 47.9912 12.4277 47.7289 12.4277 47.4077V44.5901C12.4277 44.2691 12.6923 44.0068 13.0162 44.0068C13.3401 44.0068 13.6046 44.2691 13.6046 44.5901V46.8243H14.9183V44.5901C14.9183 44.2691 15.1829 44.0068 15.5068 44.0068C15.8308 44.0068 16.0954 44.2691 16.0954 44.5901V47.4077C16.0908 47.7289 15.8262 47.9912 15.5024 47.9912Z" fill="white"/>
<path d="M19.4114 47.9916H16.9253C16.6015 47.9827 16.3461 47.7158 16.3551 47.3946C16.3643 47.0872 16.6151 46.8383 16.9253 46.8293H18.823V46.7976L16.7612 46.2143C16.5102 46.1418 16.3369 45.9157 16.3369 45.6534V44.5906C16.3369 44.2696 16.6015 44.0117 16.9253 44.0117H19.4114C19.7353 44.0117 19.9999 44.274 19.9999 44.5952C19.9999 44.9162 19.7353 45.1786 19.4114 45.1786H17.5138V45.2148L19.5758 45.7982C19.8265 45.8705 19.9999 46.0967 19.9999 46.3589V47.4128C19.9999 47.7338 19.7353 47.9916 19.4114 47.9916Z" fill="white"/>
<path d="M27.5806 47.9912C27.2567 47.9912 26.9965 47.7289 26.9965 47.4077V45.8565L26.723 46.0916C26.504 46.2771 26.1801 46.2771 25.9565 46.0916L25.6829 45.8565V47.4077C25.6829 47.7289 25.4183 47.9912 25.0945 47.9912C24.7706 47.9912 24.5059 47.7289 24.5059 47.4077V44.5901C24.5059 44.2691 24.7706 44.0068 25.0945 44.0068C25.2358 44.0068 25.368 44.0566 25.4776 44.1469L26.3398 44.8795L27.1974 44.1469C27.4436 43.9389 27.8132 43.9661 28.0276 44.2102C28.1187 44.3143 28.169 44.4499 28.169 44.5901V47.4077C28.1736 47.7289 27.909 47.9912 27.5806 47.9912Z" fill="white"/>
<path d="M23.6728 47.9916C23.3489 47.9916 23.0844 47.7294 23.0844 47.4082V46.9152L21.62 45.174H21.4193V46.8247H22.3043C22.6281 46.8339 22.8837 47.1006 22.8745 47.4218C22.8653 47.7294 22.6146 47.9781 22.3043 47.9871H20.8309C20.507 47.9871 20.2471 47.7248 20.2471 47.4036V44.5906C20.2471 44.2696 20.5116 44.0117 20.8309 44.0117H21.8983C22.0717 44.0117 22.2404 44.0886 22.35 44.2199L24.1245 46.3318C24.2111 46.4358 24.2612 46.5671 24.2612 46.7027V47.4082C24.2612 47.7294 24.0013 47.9916 23.6728 47.9916Z" fill="white"/>
<path d="M31.8454 47.9916C31.5215 47.9916 31.2569 47.7294 31.2569 47.4082V46.9152L29.7926 45.174H29.5873V46.8247H30.4722C30.7961 46.8339 31.0517 47.1006 31.0425 47.4218C31.0333 47.7294 30.7825 47.9781 30.4722 47.9871H29.0035C28.6796 47.9871 28.415 47.7248 28.415 47.4036V44.5906C28.415 44.2696 28.6796 44.0117 29.0035 44.0117H30.0709C30.2442 44.0117 30.4083 44.0886 30.5226 44.2199L32.297 46.3318C32.3837 46.4358 32.4338 46.5671 32.4338 46.7027V47.4082C32.4338 47.7338 32.1692 47.9916 31.8454 47.9916Z" fill="white"/>
<path d="M21.3906 42.5932C21.3495 42.557 21.3039 42.5299 21.2492 42.5207C21.1808 42.5117 21.1123 42.557 21.0667 42.5886C21.021 42.6204 20.9298 42.7017 20.8934 42.7334C20.8569 42.765 20.7656 42.7831 20.6151 42.8734C20.4645 42.9639 19.8807 43.3348 19.8807 43.3348H20.0313L19.3516 43.683H19.4199L19.3242 43.7555C19.3789 43.7691 19.4336 43.7599 19.4838 43.7327V43.7555C19.4838 43.7555 20.2912 43.4389 20.4464 43.5202L20.3505 43.5474C20.3597 43.5474 20.5101 43.5564 20.5101 43.5564C20.5192 43.6197 20.5558 43.6786 20.6105 43.7102C20.7017 43.7691 20.7063 43.8052 20.7063 43.8052C20.7063 43.8052 20.6606 43.8232 20.6606 43.8504C20.7473 43.8232 20.8385 43.8232 20.9208 43.8504C20.9208 43.8504 20.9162 43.8232 20.8523 43.8052C20.7884 43.7781 20.7337 43.7373 20.6926 43.6786C20.6562 43.6289 20.6424 43.5655 20.6652 43.5066C20.688 43.4479 20.7656 43.4161 20.9252 43.3348C21.1123 43.2398 21.158 43.1675 21.1808 43.1087C21.2035 43.0498 21.2492 42.9413 21.2674 42.887C21.2856 42.8373 21.3175 42.7967 21.3587 42.7604C21.4088 42.7334 21.4635 42.7106 21.5138 42.6927C21.5228 42.6971 21.4226 42.6158 21.3906 42.5932Z" fill="white"/>
</g>
<path d="M20 33.8616H10.7393L24.6304 20.0781H29.2607L20 33.8616Z" fill="url(#paint3_linear_13443_78432)"/>
</g>
<path d="M63.94 23.72C64.74 23.9733 65.3667 24.4 65.82 25C66.2733 25.5867 66.5 26.3133 66.5 27.18C66.5 28.4067 66.02 29.3533 65.06 30.02C64.1133 30.6733 62.7267 31 60.9 31H53.66V17H60.5C62.2067 17 63.5133 17.3267 64.42 17.98C65.34 18.6333 65.8 19.52 65.8 20.64C65.8 21.32 65.6333 21.9267 65.3 22.46C64.98 22.9933 64.5267 23.4133 63.94 23.72ZM56.88 19.44V22.74H60.1C60.9 22.74 61.5067 22.6 61.92 22.32C62.3333 22.04 62.54 21.6267 62.54 21.08C62.54 20.5333 62.3333 20.1267 61.92 19.86C61.5067 19.58 60.9 19.44 60.1 19.44H56.88ZM60.66 28.56C61.5133 28.56 62.1533 28.42 62.58 28.14C63.02 27.86 63.24 27.4267 63.24 26.84C63.24 25.68 62.38 25.1 60.66 25.1H56.88V28.56H60.66ZM68.733 20.24H71.853V31H68.733V20.24ZM70.293 18.74C69.7196 18.74 69.253 18.5733 68.893 18.24C68.533 17.9067 68.353 17.4933 68.353 17C68.353 16.5067 68.533 16.0933 68.893 15.76C69.253 15.4267 69.7196 15.26 70.293 15.26C70.8663 15.26 71.333 15.42 71.693 15.74C72.053 16.06 72.233 16.46 72.233 16.94C72.233 17.46 72.053 17.8933 71.693 18.24C71.333 18.5733 70.8663 18.74 70.293 18.74ZM78.1686 20.48H80.9286V22.88H78.2486V31H75.1286V22.88H73.4686V20.48H75.1286V20C75.1286 18.7733 75.4886 17.8 76.2086 17.08C76.9419 16.36 77.9686 16 79.2886 16C79.7553 16 80.1953 16.0533 80.6086 16.16C81.0353 16.2533 81.3886 16.3933 81.6686 16.58L80.8486 18.84C80.4886 18.5867 80.0686 18.46 79.5886 18.46C78.6419 18.46 78.1686 18.98 78.1686 20.02V20.48ZM87.0645 21.66C87.4379 21.14 87.9379 20.7467 88.5645 20.48C89.2045 20.2133 89.9379 20.08 90.7645 20.08V22.96C90.4179 22.9333 90.1845 22.92 90.0645 22.92C89.1712 22.92 88.4712 23.1733 87.9645 23.68C87.4579 24.1733 87.2045 24.92 87.2045 25.92V31H84.0845V20.24H87.0645V21.66ZM97.642 31.16C96.5087 31.16 95.4887 30.9267 94.582 30.46C93.6887 29.98 92.9887 29.32 92.482 28.48C91.9754 27.64 91.722 26.6867 91.722 25.62C91.722 24.5533 91.9754 23.6 92.482 22.76C92.9887 21.92 93.6887 21.2667 94.582 20.8C95.4887 20.32 96.5087 20.08 97.642 20.08C98.7754 20.08 99.7887 20.32 100.682 20.8C101.575 21.2667 102.275 21.92 102.782 22.76C103.289 23.6 103.542 24.5533 103.542 25.62C103.542 26.6867 103.289 27.64 102.782 28.48C102.275 29.32 101.575 29.98 100.682 30.46C99.7887 30.9267 98.7754 31.16 97.642 31.16ZM97.642 28.6C98.442 28.6 99.0954 28.3333 99.602 27.8C100.122 27.2533 100.382 26.5267 100.382 25.62C100.382 24.7133 100.122 23.9933 99.602 23.46C99.0954 22.9133 98.442 22.64 97.642 22.64C96.842 22.64 96.182 22.9133 95.662 23.46C95.142 23.9933 94.882 24.7133 94.882 25.62C94.882 26.5267 95.142 27.2533 95.662 27.8C96.182 28.3333 96.842 28.6 97.642 28.6ZM109.248 31.16C108.354 31.16 107.481 31.0533 106.628 30.84C105.774 30.6133 105.094 30.3333 104.588 30L105.628 27.76C106.108 28.0667 106.688 28.32 107.368 28.52C108.048 28.7067 108.714 28.8 109.368 28.8C110.688 28.8 111.348 28.4733 111.348 27.82C111.348 27.5133 111.168 27.2933 110.808 27.16C110.448 27.0267 109.894 26.9133 109.148 26.82C108.268 26.6867 107.541 26.5333 106.968 26.36C106.394 26.1867 105.894 25.88 105.468 25.44C105.054 25 104.847 24.3733 104.847 23.56C104.847 22.88 105.041 22.28 105.428 21.76C105.828 21.2267 106.401 20.8133 107.148 20.52C107.908 20.2267 108.801 20.08 109.828 20.08C110.588 20.08 111.341 20.1667 112.088 20.34C112.848 20.5 113.474 20.7267 113.968 21.02L112.928 23.24C111.981 22.7067 110.948 22.44 109.828 22.44C109.161 22.44 108.661 22.5333 108.328 22.72C107.994 22.9067 107.828 23.1467 107.828 23.44C107.828 23.7733 108.008 24.0067 108.368 24.14C108.728 24.2733 109.301 24.4 110.088 24.52C110.968 24.6667 111.688 24.8267 112.248 25C112.808 25.16 113.294 25.46 113.708 25.9C114.121 26.34 114.328 26.9533 114.328 27.74C114.328 28.4067 114.128 29 113.728 29.52C113.328 30.04 112.741 30.4467 111.968 30.74C111.208 31.02 110.301 31.16 109.248 31.16ZM123.193 30.48C122.886 30.7067 122.506 30.88 122.053 31C121.613 31.1067 121.146 31.16 120.653 31.16C119.373 31.16 118.379 30.8333 117.673 30.18C116.979 29.5267 116.633 28.5667 116.633 27.3V22.88H114.973V20.48H116.633V17.86H119.753V20.48H122.433V22.88H119.753V27.26C119.753 27.7133 119.866 28.0667 120.092 28.32C120.333 28.56 120.666 28.68 121.093 28.68C121.586 28.68 122.006 28.5467 122.353 28.28L123.193 30.48ZM135.928 25.5L134.048 27.46V31H130.828V17H134.048V23.54L140.248 17H143.848L138.048 23.24L144.188 31H140.408L135.928 25.5ZM155.921 20.24V31H152.961V29.72C152.547 30.1867 152.054 30.5467 151.481 30.8C150.907 31.04 150.287 31.16 149.621 31.16C148.207 31.16 147.087 30.7533 146.261 29.94C145.434 29.1267 145.021 27.92 145.021 26.32V20.24H148.141V25.86C148.141 27.5933 148.867 28.46 150.321 28.46C151.067 28.46 151.667 28.22 152.121 27.74C152.574 27.2467 152.801 26.52 152.801 25.56V20.24H155.921ZM162.431 31.16C161.538 31.16 160.664 31.0533 159.811 30.84C158.958 30.6133 158.278 30.3333 157.771 30L158.811 27.76C159.291 28.0667 159.871 28.32 160.551 28.52C161.231 28.7067 161.898 28.8 162.551 28.8C163.871 28.8 164.531 28.4733 164.531 27.82C164.531 27.5133 164.351 27.2933 163.991 27.16C163.631 27.0267 163.078 26.9133 162.331 26.82C161.451 26.6867 160.724 26.5333 160.151 26.36C159.578 26.1867 159.078 25.88 158.651 25.44C158.238 25 158.031 24.3733 158.031 23.56C158.031 22.88 158.224 22.28 158.611 21.76C159.011 21.2267 159.584 20.8133 160.331 20.52C161.091 20.2267 161.984 20.08 163.011 20.08C163.771 20.08 164.524 20.1667 165.271 20.34C166.031 20.5 166.658 20.7267 167.151 21.02L166.111 23.24C165.164 22.7067 164.131 22.44 163.011 22.44C162.344 22.44 161.844 22.5333 161.511 22.72C161.178 22.9067 161.011 23.1467 161.011 23.44C161.011 23.7733 161.191 24.0067 161.551 24.14C161.911 24.2733 162.484 24.4 163.271 24.52C164.151 24.6667 164.871 24.8267 165.431 25C165.991 25.16 166.478 25.46 166.891 25.9C167.304 26.34 167.511 26.9533 167.511 27.74C167.511 28.4067 167.311 29 166.911 29.52C166.511 30.04 165.924 30.4467 165.151 30.74C164.391 31.02 163.484 31.16 162.431 31.16ZM173.776 20.08C175.443 20.08 176.723 20.48 177.616 21.28C178.509 22.0667 178.956 23.26 178.956 24.86V31H176.036V29.66C175.449 30.66 174.356 31.16 172.756 31.16C171.929 31.16 171.209 31.02 170.596 30.74C169.996 30.46 169.536 30.0733 169.216 29.58C168.896 29.0867 168.736 28.5267 168.736 27.9C168.736 26.9 169.109 26.1133 169.856 25.54C170.616 24.9667 171.783 24.68 173.356 24.68H175.836C175.836 24 175.629 23.48 175.216 23.12C174.803 22.7467 174.183 22.56 173.356 22.56C172.783 22.56 172.216 22.6533 171.656 22.84C171.109 23.0133 170.643 23.2533 170.256 23.56L169.136 21.38C169.723 20.9667 170.423 20.6467 171.236 20.42C172.063 20.1933 172.909 20.08 173.776 20.08ZM173.536 29.06C174.069 29.06 174.543 28.94 174.956 28.7C175.369 28.4467 175.663 28.08 175.836 27.6V26.5H173.696C172.416 26.5 171.776 26.92 171.776 27.76C171.776 28.16 171.929 28.48 172.236 28.72C172.556 28.9467 172.989 29.06 173.536 29.06ZM195.56 20.08C196.907 20.08 197.973 20.48 198.76 21.28C199.56 22.0667 199.96 23.2533 199.96 24.84V31H196.84V25.32C196.84 24.4667 196.66 23.8333 196.3 23.42C195.953 22.9933 195.453 22.78 194.8 22.78C194.067 22.78 193.487 23.02 193.06 23.5C192.633 23.9667 192.42 24.6667 192.42 25.6V31H189.3V25.32C189.3 23.6267 188.62 22.78 187.26 22.78C186.54 22.78 185.967 23.02 185.54 23.5C185.113 23.9667 184.9 24.6667 184.9 25.6V31H181.78V20.24H184.76V21.48C185.16 21.0267 185.647 20.68 186.22 20.44C186.807 20.2 187.447 20.08 188.14 20.08C188.9 20.08 189.587 20.2333 190.2 20.54C190.813 20.8333 191.307 21.2667 191.68 21.84C192.12 21.28 192.673 20.8467 193.34 20.54C194.02 20.2333 194.76 20.08 195.56 20.08ZM207.096 20.08C208.763 20.08 210.043 20.48 210.936 21.28C211.83 22.0667 212.276 23.26 212.276 24.86V31H209.356V29.66C208.77 30.66 207.676 31.16 206.076 31.16C205.25 31.16 204.53 31.02 203.916 30.74C203.316 30.46 202.856 30.0733 202.536 29.58C202.216 29.0867 202.056 28.5267 202.056 27.9C202.056 26.9 202.43 26.1133 203.176 25.54C203.936 24.9667 205.103 24.68 206.676 24.68H209.156C209.156 24 208.95 23.48 208.536 23.12C208.123 22.7467 207.503 22.56 206.676 22.56C206.103 22.56 205.536 22.6533 204.976 22.84C204.43 23.0133 203.963 23.2533 203.576 23.56L202.456 21.38C203.043 20.9667 203.743 20.6467 204.556 20.42C205.383 20.1933 206.23 20.08 207.096 20.08ZM206.856 29.06C207.39 29.06 207.863 28.94 208.276 28.7C208.69 28.4467 208.983 28.08 209.156 27.6V26.5H207.016C205.736 26.5 205.096 26.92 205.096 27.76C205.096 28.16 205.25 28.48 205.556 28.72C205.876 28.9467 206.31 29.06 206.856 29.06Z" fill="white"/>
<path d="M58.8651 42.0298C58.7827 41.7713 58.6719 41.5398 58.5327 41.3352C58.3963 41.1278 58.233 40.9517 58.0426 40.8068C57.8523 40.6591 57.6349 40.5469 57.3906 40.4702C57.1491 40.3935 56.8835 40.3551 56.5938 40.3551C56.1023 40.3551 55.6591 40.4815 55.2642 40.7344C54.8693 40.9872 54.5568 41.358 54.3267 41.8466C54.0994 42.3324 53.9858 42.9276 53.9858 43.6321C53.9858 44.3395 54.1009 44.9375 54.331 45.4261C54.5611 45.9148 54.8764 46.2855 55.277 46.5384C55.6776 46.7912 56.1335 46.9176 56.6449 46.9176C57.1193 46.9176 57.5327 46.821 57.8849 46.6278C58.2401 46.4347 58.5142 46.1619 58.7074 45.8097C58.9034 45.4545 59.0014 45.0369 59.0014 44.5568L59.3423 44.6207H56.8452V43.5341H60.2756V44.527C60.2756 45.2599 60.1193 45.8963 59.8068 46.4361C59.4972 46.973 59.0682 47.3878 58.5199 47.6804C57.9744 47.973 57.3494 48.1193 56.6449 48.1193C55.8551 48.1193 55.1619 47.9375 54.5653 47.5739C53.9716 47.2102 53.5085 46.6946 53.1761 46.027C52.8438 45.3565 52.6776 44.5611 52.6776 43.6406C52.6776 42.9446 52.7741 42.3196 52.9673 41.7656C53.1605 41.2116 53.4318 40.7415 53.7812 40.3551C54.1335 39.9659 54.5469 39.669 55.0213 39.4645C55.4986 39.2571 56.0199 39.1534 56.5852 39.1534C57.0568 39.1534 57.4957 39.223 57.902 39.3622C58.3111 39.5014 58.6747 39.6989 58.9929 39.9545C59.3139 40.2102 59.5795 40.5142 59.7898 40.8665C60 41.2159 60.142 41.6037 60.2159 42.0298H58.8651ZM64.6019 48.1321C63.9883 48.1321 63.4528 47.9915 62.9954 47.7102C62.538 47.429 62.1829 47.0355 61.93 46.5298C61.6772 46.0241 61.5508 45.4332 61.5508 44.7571C61.5508 44.0781 61.6772 43.4844 61.93 42.9759C62.1829 42.4673 62.538 42.0724 62.9954 41.7912C63.4528 41.5099 63.9883 41.3693 64.6019 41.3693C65.2156 41.3693 65.7511 41.5099 66.2085 41.7912C66.6658 42.0724 67.021 42.4673 67.2738 42.9759C67.5266 43.4844 67.6531 44.0781 67.6531 44.7571C67.6531 45.4332 67.5266 46.0241 67.2738 46.5298C67.021 47.0355 66.6658 47.429 66.2085 47.7102C65.7511 47.9915 65.2156 48.1321 64.6019 48.1321ZM64.6062 47.0625C65.0039 47.0625 65.3335 46.9574 65.5948 46.7472C65.8562 46.5369 66.0494 46.2571 66.1744 45.9077C66.3022 45.5582 66.3661 45.1733 66.3661 44.7528C66.3661 44.3352 66.3022 43.9517 66.1744 43.6023C66.0494 43.25 65.8562 42.9673 65.5948 42.7543C65.3335 42.5412 65.0039 42.4347 64.6062 42.4347C64.2056 42.4347 63.8732 42.5412 63.609 42.7543C63.3477 42.9673 63.1531 43.25 63.0252 43.6023C62.9002 43.9517 62.8377 44.3352 62.8377 44.7528C62.8377 45.1733 62.9002 45.5582 63.0252 45.9077C63.1531 46.2571 63.3477 46.5369 63.609 46.7472C63.8732 46.9574 64.2056 47.0625 64.6062 47.0625ZM74.4521 41.4545L72.0785 48H70.7148L68.337 41.4545H69.7049L71.3626 46.4915H71.4308L73.0842 41.4545H74.4521ZM78.2479 48.1321C77.603 48.1321 77.0476 47.9943 76.5817 47.7188C76.1186 47.4403 75.7607 47.0497 75.5078 46.5469C75.2578 46.0412 75.1328 45.4489 75.1328 44.7699C75.1328 44.0994 75.2578 43.5085 75.5078 42.9972C75.7607 42.4858 76.1129 42.0866 76.5646 41.7997C77.0192 41.5128 77.5504 41.3693 78.1584 41.3693C78.5277 41.3693 78.8857 41.4304 79.2322 41.5526C79.5788 41.6747 79.8899 41.8665 80.1655 42.1278C80.4411 42.3892 80.6584 42.7287 80.8175 43.1463C80.9766 43.5611 81.0561 44.0653 81.0561 44.6591V45.1108H75.853V44.1562H79.8075C79.8075 43.821 79.7393 43.5241 79.603 43.2656C79.4666 43.0043 79.2749 42.7983 79.0277 42.6477C78.7834 42.4972 78.4964 42.4219 78.1669 42.4219C77.8089 42.4219 77.4964 42.5099 77.2294 42.6861C76.9652 42.8594 76.7607 43.0866 76.6158 43.3679C76.4737 43.6463 76.4027 43.9489 76.4027 44.2756V45.0213C76.4027 45.4588 76.4794 45.831 76.6328 46.1378C76.7891 46.4446 77.0064 46.679 77.2848 46.8409C77.5632 47 77.8885 47.0795 78.2607 47.0795C78.5021 47.0795 78.7223 47.0455 78.9212 46.9773C79.12 46.9062 79.2919 46.8011 79.4368 46.6619C79.5817 46.5227 79.6925 46.3509 79.7692 46.1463L80.9751 46.3636C80.8786 46.7187 80.7053 47.0298 80.4553 47.2969C80.2081 47.5611 79.897 47.767 79.522 47.9148C79.1499 48.0597 78.7251 48.1321 78.2479 48.1321ZM82.4698 48V41.4545H83.7013V42.4943H83.7695C83.8888 42.142 84.0991 41.8651 84.4002 41.6634C84.7042 41.4588 85.0479 41.3565 85.4315 41.3565C85.511 41.3565 85.6048 41.3594 85.7127 41.3651C85.8235 41.3707 85.9102 41.3778 85.9727 41.3864V42.6051C85.9215 42.5909 85.8306 42.5753 85.6999 42.5582C85.5692 42.5384 85.4386 42.5284 85.3079 42.5284C85.0067 42.5284 84.7383 42.5923 84.5025 42.7202C84.2695 42.8452 84.0849 43.0199 83.9485 43.2443C83.8121 43.4659 83.744 43.7187 83.744 44.0028V48H82.4698ZM88.3494 44.1136V48H87.0753V41.4545H88.2983V42.5199H88.3793C88.5298 42.1733 88.7656 41.8949 89.0866 41.6847C89.4105 41.4744 89.8182 41.3693 90.3097 41.3693C90.7557 41.3693 91.1463 41.4631 91.4815 41.6506C91.8168 41.8352 92.0767 42.1108 92.2614 42.4773C92.446 42.8437 92.5384 43.2969 92.5384 43.8366V48H91.2642V43.9901C91.2642 43.5156 91.1406 43.1449 90.8935 42.8778C90.6463 42.608 90.3068 42.473 89.875 42.473C89.5795 42.473 89.3168 42.5369 89.0866 42.6648C88.8594 42.7926 88.679 42.9801 88.5455 43.2273C88.4148 43.4716 88.3494 43.767 88.3494 44.1136ZM96.152 48.1449C95.7372 48.1449 95.3622 48.0682 95.027 47.9148C94.6918 47.7585 94.4261 47.5327 94.2301 47.2372C94.0369 46.9418 93.9403 46.5795 93.9403 46.1506C93.9403 45.7812 94.0114 45.4773 94.1534 45.2386C94.2955 45 94.4872 44.8111 94.7287 44.6719C94.9702 44.5327 95.2401 44.4276 95.5384 44.3565C95.8366 44.2855 96.1406 44.2315 96.4503 44.1946C96.8423 44.1491 97.1605 44.1122 97.4048 44.0838C97.6491 44.0526 97.8267 44.0028 97.9375 43.9347C98.0483 43.8665 98.1037 43.7557 98.1037 43.6023V43.5724C98.1037 43.2003 97.9986 42.9119 97.7884 42.7074C97.581 42.5028 97.2713 42.4006 96.8594 42.4006C96.4304 42.4006 96.0923 42.4957 95.8452 42.6861C95.6009 42.8736 95.4318 43.0824 95.3381 43.3125L94.1406 43.0398C94.2827 42.642 94.4901 42.321 94.7628 42.0767C95.0384 41.8295 95.3551 41.6506 95.7131 41.5398C96.071 41.4261 96.4474 41.3693 96.8423 41.3693C97.1037 41.3693 97.3807 41.4006 97.6733 41.4631C97.9688 41.5227 98.2443 41.6335 98.5 41.7955C98.7585 41.9574 98.9702 42.1889 99.1349 42.4901C99.2997 42.7884 99.3821 43.1761 99.3821 43.6534V48H98.1378V47.1051H98.0866C98.0043 47.2699 97.8807 47.4318 97.7159 47.5909C97.5511 47.75 97.3395 47.8821 97.081 47.9872C96.8224 48.0923 96.5128 48.1449 96.152 48.1449ZM96.429 47.1222C96.7813 47.1222 97.0824 47.0526 97.3324 46.9134C97.5852 46.7741 97.777 46.5923 97.9077 46.3679C98.0412 46.1406 98.108 45.8977 98.108 45.6392V44.7955C98.0625 44.8409 97.9744 44.8835 97.8438 44.9233C97.7159 44.9602 97.5696 44.9929 97.4048 45.0213C97.2401 45.0469 97.0795 45.071 96.9233 45.0938C96.767 45.1136 96.6364 45.1307 96.5312 45.1449C96.2841 45.1761 96.0582 45.2287 95.8537 45.3026C95.652 45.3764 95.4901 45.483 95.3679 45.6222C95.2486 45.7585 95.1889 45.9403 95.1889 46.1676C95.1889 46.483 95.3054 46.7216 95.5384 46.8835C95.7713 47.0426 96.0682 47.1222 96.429 47.1222ZM102.353 44.1136V48H101.079V41.4545H102.302V42.5199H102.383C102.534 42.1733 102.77 41.8949 103.091 41.6847C103.414 41.4744 103.822 41.3693 104.314 41.3693C104.76 41.3693 105.15 41.4631 105.485 41.6506C105.821 41.8352 106.081 42.1108 106.265 42.4773C106.45 42.8437 106.542 43.2969 106.542 43.8366V48H105.268V43.9901C105.268 43.5156 105.145 43.1449 104.897 42.8778C104.65 42.608 104.311 42.473 103.879 42.473C103.583 42.473 103.321 42.5369 103.091 42.6648C102.863 42.7926 102.683 42.9801 102.549 43.2273C102.419 43.4716 102.353 43.767 102.353 44.1136ZM111.008 48.1321C110.375 48.1321 109.829 47.9886 109.372 47.7017C108.917 47.4119 108.568 47.0128 108.324 46.5043C108.079 45.9957 107.957 45.4134 107.957 44.7571C107.957 44.0923 108.082 43.5057 108.332 42.9972C108.582 42.4858 108.934 42.0866 109.389 41.7997C109.843 41.5128 110.379 41.3693 110.995 41.3693C111.493 41.3693 111.936 41.4616 112.325 41.6463C112.714 41.8281 113.028 42.0838 113.267 42.4134C113.508 42.7429 113.652 43.1278 113.697 43.5682H112.457C112.389 43.2614 112.233 42.9972 111.988 42.7756C111.747 42.554 111.423 42.4432 111.017 42.4432C110.662 42.4432 110.35 42.5369 110.083 42.7244C109.819 42.9091 109.613 43.1733 109.466 43.517C109.318 43.858 109.244 44.2614 109.244 44.7273C109.244 45.2045 109.316 45.6165 109.461 45.9631C109.606 46.3097 109.811 46.5781 110.075 46.7685C110.342 46.9588 110.656 47.054 111.017 47.054C111.258 47.054 111.477 47.0099 111.673 46.9219C111.872 46.831 112.038 46.7017 112.172 46.5341C112.308 46.3665 112.403 46.1648 112.457 45.929H113.697C113.652 46.3523 113.514 46.7301 113.284 47.0625C113.054 47.3949 112.745 47.6562 112.359 47.8466C111.975 48.0369 111.525 48.1321 111.008 48.1321ZM117.881 48.1321C117.236 48.1321 116.68 47.9943 116.214 47.7188C115.751 47.4403 115.393 47.0497 115.141 46.5469C114.891 46.0412 114.766 45.4489 114.766 44.7699C114.766 44.0994 114.891 43.5085 115.141 42.9972C115.393 42.4858 115.746 42.0866 116.197 41.7997C116.652 41.5128 117.183 41.3693 117.791 41.3693C118.161 41.3693 118.518 41.4304 118.865 41.5526C119.212 41.6747 119.523 41.8665 119.798 42.1278C120.074 42.3892 120.291 42.7287 120.45 43.1463C120.609 43.5611 120.689 44.0653 120.689 44.6591V45.1108H115.486V44.1562H119.44C119.44 43.821 119.372 43.5241 119.236 43.2656C119.099 43.0043 118.908 42.7983 118.661 42.6477C118.416 42.4972 118.129 42.4219 117.8 42.4219C117.442 42.4219 117.129 42.5099 116.862 42.6861C116.598 42.8594 116.393 43.0866 116.249 43.3679C116.107 43.6463 116.036 43.9489 116.036 44.2756V45.0213C116.036 45.4588 116.112 45.831 116.266 46.1378C116.422 46.4446 116.639 46.679 116.918 46.8409C117.196 47 117.521 47.0795 117.893 47.0795C118.135 47.0795 118.355 47.0455 118.554 46.9773C118.753 46.9062 118.925 46.8011 119.07 46.6619C119.214 46.5227 119.325 46.3509 119.402 46.1463L120.608 46.3636C120.511 46.7187 120.338 47.0298 120.088 47.2969C119.841 47.5611 119.53 47.767 119.155 47.9148C118.783 48.0597 118.358 48.1321 117.881 48.1321ZM125.381 48V39.2727H126.655V42.5156H126.732C126.805 42.3793 126.912 42.2216 127.051 42.0426C127.19 41.8636 127.384 41.7074 127.631 41.5739C127.878 41.4375 128.205 41.3693 128.611 41.3693C129.139 41.3693 129.611 41.5028 130.026 41.7699C130.44 42.0369 130.766 42.4219 131.001 42.9247C131.24 43.4276 131.359 44.0327 131.359 44.7401C131.359 45.4474 131.241 46.054 131.006 46.5597C130.77 47.0625 130.446 47.4503 130.034 47.723C129.622 47.9929 129.152 48.1278 128.624 48.1278C128.226 48.1278 127.901 48.0611 127.648 47.9276C127.398 47.794 127.202 47.6378 127.06 47.4588C126.918 47.2798 126.808 47.1207 126.732 46.9815H126.625V48H125.381ZM126.629 44.7273C126.629 45.1875 126.696 45.5909 126.83 45.9375C126.963 46.2841 127.156 46.5554 127.409 46.7514C127.662 46.9446 127.972 47.0412 128.338 47.0412C128.719 47.0412 129.037 46.9403 129.293 46.7386C129.548 46.5341 129.741 46.2571 129.872 45.9077C130.006 45.5582 130.072 45.1648 130.072 44.7273C130.072 44.2955 130.007 43.9077 129.876 43.5639C129.749 43.2202 129.555 42.9489 129.297 42.75C129.041 42.5511 128.722 42.4517 128.338 42.4517C127.969 42.4517 127.656 42.5469 127.401 42.7372C127.148 42.9276 126.956 43.1932 126.825 43.5341C126.695 43.875 126.629 44.2727 126.629 44.7273ZM133.373 50.4545C133.183 50.4545 133.009 50.4389 132.853 50.4077C132.697 50.3793 132.58 50.348 132.504 50.3139L132.81 49.2699C133.043 49.3324 133.251 49.3594 133.433 49.3509C133.614 49.3423 133.775 49.2741 133.914 49.1463C134.056 49.0185 134.181 48.8097 134.289 48.5199L134.447 48.0852L132.052 41.4545H133.415L135.073 46.5341H135.141L136.799 41.4545H138.167L135.469 48.8736C135.344 49.2145 135.185 49.5028 134.992 49.7386C134.799 49.9773 134.569 50.1563 134.302 50.2756C134.035 50.3949 133.725 50.4545 133.373 50.4545ZM147.402 41.5653C147.357 41.1619 147.169 40.8494 146.84 40.6278C146.51 40.4034 146.096 40.2912 145.596 40.2912C145.238 40.2912 144.928 40.348 144.667 40.4616C144.405 40.5724 144.202 40.7259 144.057 40.9219C143.915 41.1151 143.844 41.3352 143.844 41.5824C143.844 41.7898 143.892 41.9687 143.989 42.1193C144.088 42.2699 144.218 42.3963 144.377 42.4986C144.539 42.598 144.712 42.6818 144.897 42.75C145.081 42.8153 145.259 42.8693 145.429 42.9119L146.282 43.1335C146.56 43.2017 146.846 43.294 147.138 43.4105C147.431 43.527 147.702 43.6804 147.952 43.8707C148.202 44.0611 148.404 44.2969 148.557 44.5781C148.713 44.8594 148.792 45.196 148.792 45.5881C148.792 46.0824 148.664 46.5213 148.408 46.9048C148.155 47.2884 147.787 47.5909 147.304 47.8125C146.824 48.0341 146.243 48.1449 145.561 48.1449C144.908 48.1449 144.343 48.0412 143.865 47.8338C143.388 47.6264 143.015 47.3324 142.745 46.9517C142.475 46.5682 142.326 46.1136 142.297 45.5881H143.618C143.644 45.9034 143.746 46.1662 143.925 46.3764C144.107 46.5838 144.338 46.7386 144.62 46.8409C144.904 46.9403 145.215 46.9901 145.553 46.9901C145.925 46.9901 146.256 46.9318 146.546 46.8153C146.838 46.696 147.069 46.5312 147.236 46.321C147.404 46.108 147.488 45.8594 147.488 45.5753C147.488 45.3168 147.414 45.1051 147.266 44.9403C147.121 44.7756 146.924 44.6392 146.674 44.5312C146.426 44.4233 146.147 44.3281 145.834 44.2457L144.803 43.9645C144.104 43.7741 143.55 43.4943 143.141 43.125C142.735 42.7557 142.532 42.267 142.532 41.6591C142.532 41.1562 142.668 40.7173 142.941 40.3423C143.213 39.9673 143.583 39.6761 144.049 39.4688C144.515 39.2585 145.04 39.1534 145.625 39.1534C146.216 39.1534 146.738 39.2571 147.189 39.4645C147.644 39.6719 148.002 39.9574 148.263 40.321C148.525 40.6818 148.661 41.0966 148.672 41.5653H147.402ZM154.409 45.2855V41.4545H155.688V48H154.435V46.8665H154.366C154.216 47.2159 153.974 47.5071 153.642 47.7401C153.313 47.9702 152.902 48.0852 152.411 48.0852C151.99 48.0852 151.618 47.9929 151.294 47.8082C150.973 47.6207 150.72 47.3438 150.536 46.9773C150.354 46.6108 150.263 46.1577 150.263 45.6179V41.4545H151.537V45.4645C151.537 45.9105 151.661 46.2656 151.908 46.5298C152.155 46.794 152.476 46.9261 152.871 46.9261C153.109 46.9261 153.347 46.8665 153.582 46.7472C153.821 46.6278 154.018 46.4474 154.175 46.206C154.334 45.9645 154.412 45.6577 154.409 45.2855ZM157.502 48V39.2727H158.776V42.5156H158.853C158.926 42.3793 159.033 42.2216 159.172 42.0426C159.311 41.8636 159.505 41.7074 159.752 41.5739C159.999 41.4375 160.326 41.3693 160.732 41.3693C161.26 41.3693 161.732 41.5028 162.147 41.7699C162.561 42.0369 162.887 42.4219 163.123 42.9247C163.361 43.4276 163.48 44.0327 163.48 44.7401C163.48 45.4474 163.363 46.054 163.127 46.5597C162.891 47.0625 162.567 47.4503 162.155 47.723C161.743 47.9929 161.273 48.1278 160.745 48.1278C160.347 48.1278 160.022 48.0611 159.769 47.9276C159.519 47.794 159.323 47.6378 159.181 47.4588C159.039 47.2798 158.929 47.1207 158.853 46.9815H158.746V48H157.502ZM158.75 44.7273C158.75 45.1875 158.817 45.5909 158.951 45.9375C159.084 46.2841 159.277 46.5554 159.53 46.7514C159.783 46.9446 160.093 47.0412 160.459 47.0412C160.84 47.0412 161.158 46.9403 161.414 46.7386C161.669 46.5341 161.863 46.2571 161.993 45.9077C162.127 45.5582 162.194 45.1648 162.194 44.7273C162.194 44.2955 162.128 43.9077 161.998 43.5639C161.87 43.2202 161.676 42.9489 161.418 42.75C161.162 42.5511 160.843 42.4517 160.459 42.4517C160.09 42.4517 159.777 42.5469 159.522 42.7372C159.269 42.9276 159.077 43.1932 158.946 43.5341C158.816 43.875 158.75 44.2727 158.75 44.7273ZM169.773 41.5653C169.728 41.1619 169.54 40.8494 169.211 40.6278C168.881 40.4034 168.467 40.2912 167.967 40.2912C167.609 40.2912 167.299 40.348 167.038 40.4616C166.776 40.5724 166.573 40.7259 166.428 40.9219C166.286 41.1151 166.215 41.3352 166.215 41.5824C166.215 41.7898 166.263 41.9687 166.36 42.1193C166.46 42.2699 166.589 42.3963 166.748 42.4986C166.91 42.598 167.083 42.6818 167.268 42.75C167.452 42.8153 167.63 42.8693 167.8 42.9119L168.653 43.1335C168.931 43.2017 169.217 43.294 169.509 43.4105C169.802 43.527 170.073 43.6804 170.323 43.8707C170.573 44.0611 170.775 44.2969 170.928 44.5781C171.085 44.8594 171.163 45.196 171.163 45.5881C171.163 46.0824 171.035 46.5213 170.779 46.9048C170.526 47.2884 170.158 47.5909 169.675 47.8125C169.195 48.0341 168.614 48.1449 167.933 48.1449C167.279 48.1449 166.714 48.0412 166.237 47.8338C165.759 47.6264 165.386 47.3324 165.116 46.9517C164.846 46.5682 164.697 46.1136 164.668 45.5881H165.989C166.015 45.9034 166.117 46.1662 166.296 46.3764C166.478 46.5838 166.71 46.7386 166.991 46.8409C167.275 46.9403 167.586 46.9901 167.924 46.9901C168.296 46.9901 168.627 46.9318 168.917 46.8153C169.21 46.696 169.44 46.5312 169.607 46.321C169.775 46.108 169.859 45.8594 169.859 45.5753C169.859 45.3168 169.785 45.1051 169.637 44.9403C169.492 44.7756 169.295 44.6392 169.045 44.5312C168.798 44.4233 168.518 44.3281 168.205 44.2457L167.174 43.9645C166.475 43.7741 165.921 43.4943 165.512 43.125C165.106 42.7557 164.903 42.267 164.903 41.6591C164.903 41.1562 165.039 40.7173 165.312 40.3423C165.585 39.9673 165.954 39.6761 166.42 39.4688C166.886 39.2585 167.411 39.1534 167.996 39.1534C168.587 39.1534 169.109 39.2571 169.56 39.4645C170.015 39.6719 170.373 39.9574 170.634 40.321C170.896 40.6818 171.032 41.0966 171.043 41.5653H169.773ZM177.053 50.4545V46.9815H176.976C176.9 47.1207 176.789 47.2798 176.644 47.4588C176.502 47.6378 176.306 47.794 176.056 47.9276C175.806 48.0611 175.482 48.1278 175.084 48.1278C174.556 48.1278 174.084 47.9929 173.669 47.723C173.257 47.4503 172.934 47.0625 172.698 46.5597C172.465 46.054 172.348 45.4474 172.348 44.7401C172.348 44.0327 172.466 43.4276 172.702 42.9247C172.941 42.4219 173.267 42.0369 173.682 41.7699C174.097 41.5028 174.567 41.3693 175.093 41.3693C175.499 41.3693 175.826 41.4375 176.073 41.5739C176.323 41.7074 176.516 41.8636 176.652 42.0426C176.792 42.2216 176.9 42.3793 176.976 42.5156H177.083V41.4545H178.327V50.4545H177.053ZM175.365 47.0412C175.732 47.0412 176.042 46.9446 176.294 46.7514C176.55 46.5554 176.743 46.2841 176.874 45.9375C177.007 45.5909 177.074 45.1875 177.074 44.7273C177.074 44.2727 177.009 43.875 176.878 43.5341C176.748 43.1932 176.556 42.9276 176.303 42.7372C176.05 42.5469 175.738 42.4517 175.365 42.4517C174.982 42.4517 174.662 42.5511 174.407 42.75C174.151 42.9489 173.958 43.2202 173.827 43.5639C173.699 43.9077 173.635 44.2955 173.635 44.7273C173.635 45.1648 173.701 45.5582 173.831 45.9077C173.962 46.2571 174.155 46.5341 174.411 46.7386C174.669 46.9403 174.988 47.0412 175.365 47.0412ZM184.186 45.2855V41.4545H185.465V48H184.212V46.8665H184.144C183.993 47.2159 183.752 47.5071 183.419 47.7401C183.09 47.9702 182.679 48.0852 182.188 48.0852C181.767 48.0852 181.395 47.9929 181.071 47.8082C180.75 47.6207 180.498 47.3438 180.313 46.9773C180.131 46.6108 180.04 46.1577 180.04 45.6179V41.4545H181.314V45.4645C181.314 45.9105 181.438 46.2656 181.685 46.5298C181.932 46.794 182.253 46.9261 182.648 46.9261C182.887 46.9261 183.124 46.8665 183.36 46.7472C183.598 46.6278 183.796 46.4474 183.952 46.206C184.111 45.9645 184.189 45.6577 184.186 45.2855ZM189.082 48.1449C188.667 48.1449 188.292 48.0682 187.957 47.9148C187.621 47.7585 187.356 47.5327 187.16 47.2372C186.967 46.9418 186.87 46.5795 186.87 46.1506C186.87 45.7812 186.941 45.4773 187.083 45.2386C187.225 45 187.417 44.8111 187.658 44.6719C187.9 44.5327 188.17 44.4276 188.468 44.3565C188.766 44.2855 189.07 44.2315 189.38 44.1946C189.772 44.1491 190.09 44.1122 190.335 44.0838C190.579 44.0526 190.756 44.0028 190.867 43.9347C190.978 43.8665 191.033 43.7557 191.033 43.6023V43.5724C191.033 43.2003 190.928 42.9119 190.718 42.7074C190.511 42.5028 190.201 42.4006 189.789 42.4006C189.36 42.4006 189.022 42.4957 188.775 42.6861C188.531 42.8736 188.362 43.0824 188.268 43.3125L187.07 43.0398C187.212 42.642 187.42 42.321 187.692 42.0767C187.968 41.8295 188.285 41.6506 188.643 41.5398C189.001 41.4261 189.377 41.3693 189.772 41.3693C190.033 41.3693 190.31 41.4006 190.603 41.4631C190.898 41.5227 191.174 41.6335 191.43 41.7955C191.688 41.9574 191.9 42.1889 192.065 42.4901C192.229 42.7884 192.312 43.1761 192.312 43.6534V48H191.067V47.1051H191.016C190.934 47.2699 190.81 47.4318 190.646 47.5909C190.481 47.75 190.269 47.8821 190.011 47.9872C189.752 48.0923 189.442 48.1449 189.082 48.1449ZM189.359 47.1222C189.711 47.1222 190.012 47.0526 190.262 46.9134C190.515 46.7741 190.707 46.5923 190.837 46.3679C190.971 46.1406 191.038 45.8977 191.038 45.6392V44.7955C190.992 44.8409 190.904 44.8835 190.773 44.9233C190.646 44.9602 190.499 44.9929 190.335 45.0213C190.17 45.0469 190.009 45.071 189.853 45.0938C189.697 45.1136 189.566 45.1307 189.461 45.1449C189.214 45.1761 188.988 45.2287 188.783 45.3026C188.582 45.3764 188.42 45.483 188.298 45.6222C188.178 45.7585 188.119 45.9403 188.119 46.1676C188.119 46.483 188.235 46.7216 188.468 46.8835C188.701 47.0426 188.998 47.1222 189.359 47.1222ZM194.009 48V41.4545H195.24V42.4943H195.309C195.428 42.142 195.638 41.8651 195.939 41.6634C196.243 41.4588 196.587 41.3565 196.971 41.3565C197.05 41.3565 197.144 41.3594 197.252 41.3651C197.363 41.3707 197.449 41.3778 197.512 41.3864V42.6051C197.461 42.5909 197.37 42.5753 197.239 42.5582C197.108 42.5384 196.978 42.5284 196.847 42.5284C196.546 42.5284 196.277 42.5923 196.042 42.7202C195.809 42.8452 195.624 43.0199 195.488 43.2443C195.351 43.4659 195.283 43.7187 195.283 44.0028V48H194.009ZM201.201 48.1321C200.556 48.1321 200.001 47.9943 199.535 47.7188C199.072 47.4403 198.714 47.0497 198.461 46.5469C198.211 46.0412 198.086 45.4489 198.086 44.7699C198.086 44.0994 198.211 43.5085 198.461 42.9972C198.714 42.4858 199.066 42.0866 199.518 41.7997C199.972 41.5128 200.504 41.3693 201.112 41.3693C201.481 41.3693 201.839 41.4304 202.185 41.5526C202.532 41.6747 202.843 41.8665 203.119 42.1278C203.394 42.3892 203.612 42.7287 203.771 43.1463C203.93 43.5611 204.009 44.0653 204.009 44.6591V45.1108H198.806V44.1562H202.761C202.761 43.821 202.692 43.5241 202.556 43.2656C202.42 43.0043 202.228 42.7983 201.981 42.6477C201.737 42.4972 201.45 42.4219 201.12 42.4219C200.762 42.4219 200.45 42.5099 200.183 42.6861C199.918 42.8594 199.714 43.0866 199.569 43.3679C199.427 43.6463 199.356 43.9489 199.356 44.2756V45.0213C199.356 45.4588 199.433 45.831 199.586 46.1378C199.742 46.4446 199.96 46.679 200.238 46.8409C200.516 47 200.842 47.0795 201.214 47.0795C201.455 47.0795 201.675 47.0455 201.874 46.9773C202.073 46.9062 202.245 46.8011 202.39 46.6619C202.535 46.5227 202.646 46.3509 202.722 46.1463L203.928 46.3636C203.832 46.7187 203.658 47.0298 203.408 47.2969C203.161 47.5611 202.85 47.767 202.475 47.9148C202.103 48.0597 201.678 48.1321 201.201 48.1321Z" fill="white" fill-opacity="0.2"/>
<defs>
<linearGradient id="paint0_linear_13443_78432" x1="-4.48535" y1="37.5723" x2="45.1561" y2="46.2763" gradientUnits="userSpaceOnUse">
<stop stop-color="#9E3BFF"/>
<stop offset="1" stop-color="#6D55FF"/>
</linearGradient>
<linearGradient id="paint1_linear_13443_78432" x1="-4.48535" y1="39.6102" x2="44.4866" y2="39.6102" gradientUnits="userSpaceOnUse">
<stop stop-color="#9E3BFF"/>
<stop offset="1" stop-color="#492CFF"/>
</linearGradient>
<linearGradient id="paint2_linear_13443_78432" x1="-4.48535" y1="45.1282" x2="44.4866" y2="44.8412" gradientUnits="userSpaceOnUse">
<stop stop-color="white" stop-opacity="0"/>
<stop offset="0.500885" stop-color="#9F7BFF"/>
<stop offset="1" stop-color="white" stop-opacity="0"/>
</linearGradient>
<linearGradient id="paint3_linear_13443_78432" x1="20" y1="20.0781" x2="20" y2="33.8616" gradientUnits="userSpaceOnUse">
<stop stop-color="#7AEDCF"/>
<stop offset="0.201333" stop-color="#68CEFA"/>
<stop offset="0.403244" stop-color="#689CF8"/>
<stop offset="0.602076" stop-color="#AC57C0"/>
<stop offset="0.801867" stop-color="#E65659"/>
<stop offset="1" stop-color="#F2C241"/>
</linearGradient>
<clipPath id="clip0_13443_78432">
<rect width="40" height="40" fill="white" transform="translate(0 12)"/>
</clipPath>
</defs>
</svg>
