<svg width="219" height="64" viewBox="0 0 219 64" fill="none" xmlns="http://www.w3.org/2000/svg">
<path d="M19.5234 39.5081V23.1357H25.2101C27.0867 23.1357 28.515 23.5068 29.495 24.249C30.4752 24.9911 30.9652 26.0969 30.9652 27.5662C30.9652 28.3158 30.76 28.9905 30.3498 29.5902C29.9395 30.19 29.3393 30.6548 28.5492 30.9846C29.4457 31.2245 30.1371 31.678 30.6233 32.3452C31.1171 33.0049 31.364 33.7995 31.364 34.7291C31.364 36.2659 30.8626 37.4466 29.8597 38.2712C28.8645 39.0958 27.4362 39.5081 25.5747 39.5081H19.5234ZM22.4066 32.1203V37.2367H25.609C26.5131 37.2367 27.2196 37.0155 27.7286 36.5732C28.2377 36.131 28.4922 35.5162 28.4922 34.7291C28.4922 33.0274 27.6109 32.1578 25.8483 32.1203H22.4066ZM22.4066 30.0288H25.2329C26.1294 30.0288 26.8283 29.8301 27.3298 29.4328C27.8388 29.028 28.0933 28.4583 28.0933 27.7236C28.0933 26.914 27.8578 26.3293 27.3867 25.9694C26.9233 25.6096 26.1978 25.4297 25.2101 25.4297H22.4066V30.0288Z" fill="white"/>
<path d="M36.647 39.5081H33.8777V27.3413H36.647V39.5081Z" fill="white"/>
<path d="M55.3453 33.3123C55.3453 32.1204 55.5847 31.0483 56.0633 30.0963C56.542 29.1368 57.2143 28.4021 58.0804 27.8923C58.9466 27.3751 59.9418 27.1165 61.0662 27.1165C62.73 27.1165 64.0786 27.645 65.1119 28.702C66.1527 29.759 66.715 31.1608 66.7985 32.9075L66.8099 33.5485C66.8099 34.7479 66.5744 35.8199 66.1033 36.7645C65.6399 37.709 64.9713 38.4399 64.0976 38.9572C63.2315 39.4745 62.2286 39.7331 61.089 39.7331C59.3492 39.7331 57.955 39.1633 56.9066 38.0239C55.8658 36.8769 55.3453 35.3514 55.3453 33.4472V33.3123ZM58.1146 33.5485C58.1146 34.8004 58.3767 35.7824 58.901 36.4945C59.4251 37.1993 60.1546 37.5516 61.089 37.5516C62.0235 37.5516 62.7491 37.1917 63.2657 36.4721C63.7899 35.7524 64.052 34.6992 64.052 33.3123C64.052 32.0829 63.7823 31.1083 63.2429 30.3887C62.7111 29.669 61.9855 29.3092 61.0662 29.3092C60.1621 29.3092 59.4441 29.6653 58.9123 30.3774C58.3805 31.0821 58.1146 32.1391 58.1146 33.5485Z" fill="white"/>
<path d="M76.0636 36.2023C76.0636 35.715 75.8585 35.3439 75.4483 35.089C75.0456 34.8341 74.3732 34.6093 73.4312 34.4143C72.4891 34.2194 71.7027 33.972 71.0722 33.6721C69.6894 33.0125 68.998 32.0567 68.998 30.8047C68.998 29.7552 69.4462 28.8781 70.3427 28.1735C71.2393 27.4688 72.3789 27.1165 73.7616 27.1165C75.2355 27.1165 76.4246 27.4763 77.3286 28.1959C78.2403 28.9156 78.6962 29.8489 78.6962 30.9959H75.9269C75.9269 30.4711 75.7294 30.0363 75.3343 29.6915C74.9392 29.3392 74.415 29.163 73.7616 29.163C73.1538 29.163 72.6562 29.3017 72.2687 29.5791C71.8888 29.8564 71.6989 30.2275 71.6989 30.6923C71.6989 31.1121 71.8774 31.4382 72.2345 31.6705C72.5916 31.903 73.3134 32.1391 74.3998 32.379C75.4862 32.6114 76.3372 32.8925 76.9526 33.2224C77.5756 33.5447 78.0352 33.9345 78.3315 34.3918C78.6354 34.8491 78.7873 35.4038 78.7873 36.056C78.7873 37.1505 78.3277 38.0389 77.4084 38.7211C76.4891 39.3957 75.2849 39.7331 73.7958 39.7331C72.7854 39.7331 71.8851 39.5532 71.0949 39.1933C70.3048 38.8335 69.6894 38.3387 69.2487 37.709C68.8081 37.0793 68.5877 36.4009 68.5877 35.6737H71.2772C71.3152 36.3184 71.5622 36.8169 72.018 37.1693C72.4739 37.5141 73.0779 37.6865 73.83 37.6865C74.5593 37.6865 75.114 37.5516 75.4939 37.2817C75.8737 37.0044 76.0636 36.6445 76.0636 36.2023Z" fill="white"/>
<path d="M83.7444 24.3838V27.3412H85.9895V29.3652H83.7444V36.1571C83.7444 36.6218 83.8356 36.9592 84.0179 37.1691C84.2079 37.3715 84.5422 37.4727 85.0208 37.4727C85.3399 37.4727 85.6628 37.4352 85.9895 37.3602V39.4743C85.3589 39.6467 84.7511 39.7329 84.1661 39.7329C82.0388 39.7329 80.9752 38.5746 80.9752 36.2582V24.3838H83.7444Z" fill="white"/>
<path d="M39.7834 26.228C39.7834 24.8787 40.1633 23.8366 40.9231 23.102C41.6828 22.3673 42.7464 22 44.114 22C44.6002 22 45.5963 22.2377 46.0659 22.4039L45.5956 24.3389C45.2916 24.2789 44.9383 24.249 44.5357 24.249C43.2137 24.249 42.5527 24.9199 42.5527 26.2618V27.3413H46.017L45.4491 29.4328L42.5527 29.3653V39.5081H39.7834V26.228Z" fill="white"/>
<path d="M33.8775 23.4907H36.647V25.5403H33.8775V23.4907Z" fill="white"/>
<path d="M54.9963 27.3413L54.4784 29.3654H50.795V39.5081H48.0258V27.3413H54.9963Z" fill="white"/>
<path d="M16.4407 27.3413H12.3305L0 39.508H8.22034L16.4407 27.3413Z" fill="white"/>
<path d="M16.4407 27.3413H12.3305L0 39.508H8.22034L16.4407 27.3413Z" fill="url(#paint0_linear_7032_48066)"/>
<path d="M102 25V37" stroke="#363A4D"/>
<path d="M126.896 24.224H129.264V28.768C128.656 29.2267 127.952 29.5787 127.152 29.824C126.352 30.0693 125.547 30.192 124.736 30.192C123.573 30.192 122.528 29.9467 121.6 29.456C120.672 28.9547 119.941 28.2667 119.408 27.392C118.885 26.5067 118.624 25.5093 118.624 24.4C118.624 23.2907 118.885 22.2987 119.408 21.424C119.941 20.5387 120.677 19.8507 121.616 19.36C122.555 18.8587 123.611 18.608 124.784 18.608C125.765 18.608 126.656 18.7733 127.456 19.104C128.256 19.4347 128.928 19.9147 129.472 20.544L127.808 22.08C127.008 21.2373 126.043 20.816 124.912 20.816C124.197 20.816 123.563 20.9653 123.008 21.264C122.453 21.5627 122.021 21.984 121.712 22.528C121.403 23.072 121.248 23.696 121.248 24.4C121.248 25.0933 121.403 25.712 121.712 26.256C122.021 26.8 122.448 27.2267 122.992 27.536C123.547 27.8347 124.176 27.984 124.88 27.984C125.627 27.984 126.299 27.824 126.896 27.504V24.224ZM135.592 30.128C134.685 30.128 133.869 29.9413 133.144 29.568C132.429 29.184 131.869 28.656 131.464 27.984C131.058 27.312 130.856 26.5493 130.856 25.696C130.856 24.8427 131.058 24.08 131.464 23.408C131.869 22.736 132.429 22.2133 133.144 21.84C133.869 21.456 134.685 21.264 135.592 21.264C136.498 21.264 137.309 21.456 138.024 21.84C138.738 22.2133 139.298 22.736 139.704 23.408C140.109 24.08 140.312 24.8427 140.312 25.696C140.312 26.5493 140.109 27.312 139.704 27.984C139.298 28.656 138.738 29.184 138.024 29.568C137.309 29.9413 136.498 30.128 135.592 30.128ZM135.592 28.08C136.232 28.08 136.754 27.8667 137.16 27.44C137.576 27.0027 137.784 26.4213 137.784 25.696C137.784 24.9707 137.576 24.3947 137.16 23.968C136.754 23.5307 136.232 23.312 135.592 23.312C134.952 23.312 134.424 23.5307 134.008 23.968C133.592 24.3947 133.384 24.9707 133.384 25.696C133.384 26.4213 133.592 27.0027 134.008 27.44C134.424 27.8667 134.952 28.08 135.592 28.08ZM150.29 21.392L146.658 30H144.082L140.466 21.392H143.042L145.426 27.248L147.89 21.392H150.29ZM159.506 25.728C159.506 25.76 159.49 25.984 159.458 26.4H152.946C153.063 26.9333 153.341 27.3547 153.778 27.664C154.215 27.9733 154.759 28.128 155.41 28.128C155.858 28.128 156.253 28.064 156.594 27.936C156.946 27.7973 157.271 27.584 157.57 27.296L158.898 28.736C158.087 29.664 156.903 30.128 155.346 30.128C154.375 30.128 153.517 29.9413 152.77 29.568C152.023 29.184 151.447 28.656 151.042 27.984C150.637 27.312 150.434 26.5493 150.434 25.696C150.434 24.8533 150.631 24.096 151.026 23.424C151.431 22.7413 151.981 22.2133 152.674 21.84C153.378 21.456 154.162 21.264 155.026 21.264C155.869 21.264 156.631 21.4453 157.314 21.808C157.997 22.1707 158.53 22.6933 158.914 23.376C159.309 24.048 159.506 24.832 159.506 25.728ZM155.042 23.152C154.477 23.152 154.002 23.312 153.618 23.632C153.234 23.952 152.999 24.3893 152.914 24.944H157.154C157.069 24.4 156.834 23.968 156.45 23.648C156.066 23.3173 155.597 23.152 155.042 23.152ZM163.552 22.528C163.85 22.112 164.25 21.7973 164.752 21.584C165.264 21.3707 165.85 21.264 166.512 21.264V23.568C166.234 23.5467 166.048 23.536 165.952 23.536C165.237 23.536 164.677 23.7387 164.272 24.144C163.866 24.5387 163.664 25.136 163.664 25.936V30H161.168V21.392H163.552V22.528ZM173.228 21.264C174.294 21.264 175.153 21.584 175.804 22.224C176.465 22.864 176.796 23.8133 176.796 25.072V30H174.3V25.456C174.3 24.7733 174.15 24.2667 173.852 23.936C173.553 23.5947 173.121 23.424 172.556 23.424C171.926 23.424 171.425 23.6213 171.052 24.016C170.678 24.4 170.492 24.976 170.492 25.744V30H167.996V21.392H170.38V22.4C170.71 22.0373 171.121 21.76 171.612 21.568C172.102 21.3653 172.641 21.264 173.228 21.264ZM182.53 21.264C183.864 21.264 184.888 21.584 185.602 22.224C186.317 22.8533 186.674 23.808 186.674 25.088V30H184.338V28.928C183.869 29.728 182.994 30.128 181.714 30.128C181.053 30.128 180.477 30.016 179.986 29.792C179.506 29.568 179.138 29.2587 178.882 28.864C178.626 28.4693 178.498 28.0213 178.498 27.52C178.498 26.72 178.797 26.0907 179.394 25.632C180.002 25.1733 180.936 24.944 182.194 24.944H184.178C184.178 24.4 184.013 23.984 183.682 23.696C183.352 23.3973 182.856 23.248 182.194 23.248C181.736 23.248 181.282 23.3227 180.834 23.472C180.397 23.6107 180.024 23.8027 179.714 24.048L178.818 22.304C179.288 21.9733 179.848 21.7173 180.498 21.536C181.16 21.3547 181.837 21.264 182.53 21.264ZM182.338 28.448C182.765 28.448 183.144 28.352 183.474 28.16C183.805 27.9573 184.04 27.664 184.178 27.28V26.4H182.466C181.442 26.4 180.93 26.736 180.93 27.408C180.93 27.728 181.053 27.984 181.298 28.176C181.554 28.3573 181.901 28.448 182.338 28.448ZM194.165 21.264C195.232 21.264 196.091 21.584 196.741 22.224C197.403 22.864 197.733 23.8133 197.733 25.072V30H195.237V25.456C195.237 24.7733 195.088 24.2667 194.789 23.936C194.491 23.5947 194.059 23.424 193.493 23.424C192.864 23.424 192.363 23.6213 191.989 24.016C191.616 24.4 191.429 24.976 191.429 25.744V30H188.933V21.392H191.317V22.4C191.648 22.0373 192.059 21.76 192.549 21.568C193.04 21.3653 193.579 21.264 194.165 21.264ZM204.25 30.128C203.332 30.128 202.506 29.9413 201.77 29.568C201.044 29.184 200.474 28.656 200.058 27.984C199.652 27.312 199.45 26.5493 199.45 25.696C199.45 24.8427 199.652 24.08 200.058 23.408C200.474 22.736 201.044 22.2133 201.77 21.84C202.506 21.456 203.332 21.264 204.25 21.264C205.156 21.264 205.946 21.456 206.618 21.84C207.3 22.2133 207.796 22.752 208.106 23.456L206.17 24.496C205.722 23.7067 205.076 23.312 204.234 23.312C203.583 23.312 203.044 23.5253 202.618 23.952C202.191 24.3787 201.978 24.96 201.978 25.696C201.978 26.432 202.191 27.0133 202.618 27.44C203.044 27.8667 203.583 28.08 204.234 28.08C205.087 28.08 205.732 27.6853 206.17 26.896L208.106 27.952C207.796 28.6347 207.3 29.168 206.618 29.552C205.946 29.936 205.156 30.128 204.25 30.128ZM217.865 25.728C217.865 25.76 217.849 25.984 217.817 26.4H211.305C211.423 26.9333 211.7 27.3547 212.137 27.664C212.575 27.9733 213.119 28.128 213.769 28.128C214.217 28.128 214.612 28.064 214.953 27.936C215.305 27.7973 215.631 27.584 215.929 27.296L217.257 28.736C216.447 29.664 215.263 30.128 213.705 30.128C212.735 30.128 211.876 29.9413 211.129 29.568C210.383 29.184 209.807 28.656 209.401 27.984C208.996 27.312 208.793 26.5493 208.793 25.696C208.793 24.8533 208.991 24.096 209.385 23.424C209.791 22.7413 210.34 22.2133 211.033 21.84C211.737 21.456 212.521 21.264 213.385 21.264C214.228 21.264 214.991 21.4453 215.673 21.808C216.356 22.1707 216.889 22.6933 217.273 23.376C217.668 24.048 217.865 24.832 217.865 25.728ZM213.401 23.152C212.836 23.152 212.361 23.312 211.977 23.632C211.593 23.952 211.359 24.3893 211.273 24.944H215.513C215.428 24.4 215.193 23.968 214.809 23.648C214.425 23.3173 213.956 23.152 213.401 23.152Z" fill="white"/>
<path d="M122.858 39.5455C122.815 39.1856 122.643 38.9062 122.339 38.7074C122.036 38.5085 121.665 38.4091 121.224 38.4091C120.902 38.4091 120.621 38.4612 120.379 38.5653C120.14 38.6695 119.953 38.8127 119.818 38.995C119.686 39.1773 119.619 39.3845 119.619 39.6165C119.619 39.8106 119.665 39.9775 119.758 40.1172C119.853 40.2545 119.973 40.3693 120.12 40.4616C120.267 40.5516 120.421 40.6262 120.582 40.6854C120.743 40.7422 120.891 40.7884 121.026 40.8239L121.764 41.0227C121.954 41.0724 122.164 41.1411 122.396 41.2287C122.631 41.3163 122.854 41.4358 123.067 41.5874C123.283 41.7365 123.46 41.9283 123.6 42.1626C123.74 42.397 123.81 42.6847 123.81 43.0256C123.81 43.4186 123.707 43.7737 123.501 44.0909C123.297 44.4081 122.999 44.6603 122.606 44.8473C122.215 45.0343 121.741 45.1278 121.182 45.1278C120.661 45.1278 120.21 45.0438 119.829 44.8757C119.45 44.7076 119.152 44.4732 118.934 44.1726C118.719 43.8719 118.597 43.5227 118.568 43.125H119.477C119.501 43.3996 119.593 43.6269 119.754 43.8068C119.918 43.9844 120.124 44.117 120.372 44.2045C120.623 44.2898 120.893 44.3324 121.182 44.3324C121.518 44.3324 121.82 44.2779 122.087 44.169C122.355 44.0578 122.567 43.9039 122.723 43.7074C122.879 43.5085 122.957 43.2765 122.957 43.0114C122.957 42.7699 122.89 42.5734 122.755 42.4219C122.62 42.2704 122.442 42.1473 122.222 42.0526C122.002 41.9579 121.764 41.875 121.509 41.804L120.614 41.5483C120.045 41.3849 119.596 41.1518 119.264 40.8487C118.933 40.5457 118.767 40.1491 118.767 39.6591C118.767 39.2519 118.877 38.8968 119.097 38.5938C119.32 38.2884 119.618 38.0516 119.992 37.8835C120.369 37.7131 120.789 37.6278 121.253 37.6278C121.722 37.6278 122.138 37.7119 122.503 37.88C122.867 38.0457 123.156 38.273 123.369 38.5618C123.585 38.8506 123.698 39.1785 123.71 39.5455H122.858ZM128.581 42.7699V39.5455H129.42V45H128.581V44.0767H128.525C128.397 44.3537 128.198 44.5893 127.928 44.7834C127.658 44.9751 127.317 45.071 126.905 45.071C126.564 45.071 126.261 44.9964 125.996 44.8473C125.731 44.6958 125.523 44.4685 125.371 44.1655C125.22 43.8601 125.144 43.4754 125.144 43.0114V39.5455H125.982V42.9545C125.982 43.3523 126.093 43.6695 126.316 43.9062C126.541 44.143 126.827 44.2614 127.175 44.2614C127.384 44.2614 127.595 44.2081 127.811 44.1016C128.029 43.995 128.211 43.8317 128.358 43.6115C128.507 43.3913 128.581 43.1108 128.581 42.7699ZM131.068 45V37.7273H131.906V40.4119H131.977C132.039 40.3172 132.124 40.1965 132.233 40.0497C132.344 39.9006 132.503 39.768 132.709 39.652C132.917 39.5336 133.199 39.4744 133.554 39.4744C134.013 39.4744 134.418 39.5893 134.768 39.8189C135.119 40.0485 135.392 40.3741 135.589 40.7955C135.785 41.2169 135.884 41.714 135.884 42.2869C135.884 42.8646 135.785 43.3653 135.589 43.7891C135.392 44.2105 135.12 44.5372 134.772 44.7692C134.424 44.9988 134.023 45.1136 133.568 45.1136C133.218 45.1136 132.937 45.0556 132.727 44.9396C132.516 44.8213 132.354 44.6875 132.24 44.5384C132.126 44.3868 132.039 44.2614 131.977 44.1619H131.878V45H131.068ZM131.892 42.2727C131.892 42.6847 131.952 43.0481 132.073 43.3629C132.194 43.6754 132.37 43.9205 132.602 44.098C132.834 44.2732 133.118 44.3608 133.455 44.3608C133.805 44.3608 134.097 44.2685 134.332 44.0838C134.568 43.8968 134.746 43.6458 134.864 43.331C134.985 43.0137 135.045 42.661 135.045 42.2727C135.045 41.8892 134.986 41.5436 134.868 41.2358C134.752 40.9257 134.576 40.6806 134.339 40.5007C134.104 40.3184 133.81 40.2273 133.455 40.2273C133.114 40.2273 132.827 40.3137 132.595 40.4865C132.363 40.657 132.188 40.8961 132.07 41.2038C131.951 41.5092 131.892 41.8655 131.892 42.2727ZM141.256 39.5455C141.214 39.1856 141.041 38.9062 140.738 38.7074C140.435 38.5085 140.063 38.4091 139.623 38.4091C139.301 38.4091 139.019 38.4612 138.778 38.5653C138.539 38.6695 138.352 38.8127 138.217 38.995C138.084 39.1773 138.018 39.3845 138.018 39.6165C138.018 39.8106 138.064 39.9775 138.156 40.1172C138.251 40.2545 138.372 40.3693 138.518 40.4616C138.665 40.5516 138.819 40.6262 138.98 40.6854C139.141 40.7422 139.289 40.7884 139.424 40.8239L140.163 41.0227C140.352 41.0724 140.563 41.1411 140.795 41.2287C141.029 41.3163 141.253 41.4358 141.466 41.5874C141.681 41.7365 141.859 41.9283 141.999 42.1626C142.138 42.397 142.208 42.6847 142.208 43.0256C142.208 43.4186 142.105 43.7737 141.899 44.0909C141.696 44.4081 141.397 44.6603 141.004 44.8473C140.614 45.0343 140.139 45.1278 139.58 45.1278C139.059 45.1278 138.608 45.0438 138.227 44.8757C137.848 44.7076 137.55 44.4732 137.332 44.1726C137.117 43.8719 136.995 43.5227 136.967 43.125H137.876C137.899 43.3996 137.992 43.6269 138.153 43.8068C138.316 43.9844 138.522 44.117 138.771 44.2045C139.022 44.2898 139.291 44.3324 139.58 44.3324C139.916 44.3324 140.218 44.2779 140.486 44.169C140.753 44.0578 140.965 43.9039 141.121 43.7074C141.278 43.5085 141.356 43.2765 141.356 43.0114C141.356 42.7699 141.288 42.5734 141.153 42.4219C141.018 42.2704 140.841 42.1473 140.621 42.0526C140.401 41.9579 140.163 41.875 139.907 41.804L139.012 41.5483C138.444 41.3849 137.994 41.1518 137.663 40.8487C137.331 40.5457 137.165 40.1491 137.165 39.6591C137.165 39.2519 137.276 38.8968 137.496 38.5938C137.718 38.2884 138.017 38.0516 138.391 37.8835C138.767 37.7131 139.187 37.6278 139.651 37.6278C140.12 37.6278 140.537 37.7119 140.901 37.88C141.266 38.0457 141.555 38.273 141.768 38.5618C141.983 38.8506 142.097 39.1785 142.109 39.5455H141.256ZM147.264 47.0455V44.1619H147.193C147.131 44.2614 147.044 44.3868 146.93 44.5384C146.817 44.6875 146.654 44.8213 146.444 44.9396C146.233 45.0556 145.952 45.1136 145.602 45.1136C145.148 45.1136 144.746 44.9988 144.398 44.7692C144.05 44.5372 143.778 44.2105 143.581 43.7891C143.385 43.3653 143.287 42.8646 143.287 42.2869C143.287 41.714 143.385 41.2169 143.581 40.7955C143.778 40.3741 144.051 40.0485 144.402 39.8189C144.752 39.5893 145.157 39.4744 145.616 39.4744C145.971 39.4744 146.252 39.5336 146.458 39.652C146.666 39.768 146.825 39.9006 146.934 40.0497C147.045 40.1965 147.131 40.3172 147.193 40.4119H147.292V39.5455H148.102V47.0455H147.264ZM145.716 44.3608C146.052 44.3608 146.336 44.2732 146.568 44.098C146.8 43.9205 146.976 43.6754 147.097 43.3629C147.218 43.0481 147.278 42.6847 147.278 42.2727C147.278 41.8655 147.219 41.5092 147.101 41.2038C146.982 40.8961 146.807 40.657 146.575 40.4865C146.343 40.3137 146.057 40.2273 145.716 40.2273C145.361 40.2273 145.065 40.3184 144.828 40.5007C144.594 40.6806 144.417 40.9257 144.299 41.2358C144.183 41.5436 144.125 41.8892 144.125 42.2727C144.125 42.661 144.184 43.0137 144.302 43.331C144.423 43.6458 144.601 43.8968 144.835 44.0838C145.072 44.2685 145.365 44.3608 145.716 44.3608ZM153.074 42.7699V39.5455H153.912V45H153.074V44.0767H153.017C152.889 44.3537 152.69 44.5893 152.42 44.7834C152.15 44.9751 151.809 45.071 151.398 45.071C151.057 45.071 150.754 44.9964 150.488 44.8473C150.223 44.6958 150.015 44.4685 149.863 44.1655C149.712 43.8601 149.636 43.4754 149.636 43.0114V39.5455H150.474V42.9545C150.474 43.3523 150.586 43.6695 150.808 43.9062C151.033 44.143 151.319 44.2614 151.667 44.2614C151.876 44.2614 152.088 44.2081 152.303 44.1016C152.521 43.995 152.703 43.8317 152.85 43.6115C152.999 43.3913 153.074 43.1108 153.074 42.7699ZM157.052 45.1278C156.706 45.1278 156.393 45.0627 156.111 44.9325C155.829 44.8 155.605 44.6094 155.44 44.3608C155.274 44.1098 155.191 43.8068 155.191 43.4517C155.191 43.1392 155.253 42.8859 155.376 42.6918C155.499 42.4953 155.663 42.3414 155.869 42.2301C156.075 42.1188 156.303 42.036 156.551 41.9815C156.802 41.9247 157.054 41.8797 157.308 41.8466C157.639 41.804 157.908 41.772 158.114 41.7507C158.322 41.727 158.473 41.688 158.568 41.6335C158.665 41.5791 158.714 41.4844 158.714 41.3494V41.321C158.714 40.9706 158.618 40.6984 158.426 40.5043C158.237 40.3101 157.949 40.2131 157.563 40.2131C157.163 40.2131 156.849 40.3007 156.622 40.4759C156.395 40.651 156.235 40.8381 156.143 41.0369L155.347 40.7528C155.489 40.4214 155.679 40.1634 155.915 39.9787C156.155 39.7917 156.415 39.6615 156.697 39.5881C156.981 39.5123 157.26 39.4744 157.535 39.4744C157.71 39.4744 157.911 39.4957 158.138 39.5384C158.368 39.5786 158.589 39.6626 158.803 39.7905C159.018 39.9183 159.197 40.1113 159.339 40.3693C159.481 40.6274 159.552 40.973 159.552 41.4062V45H158.714V44.2614H158.671C158.614 44.3797 158.52 44.5064 158.387 44.6413C158.254 44.7763 158.078 44.8911 157.858 44.9858C157.638 45.0805 157.369 45.1278 157.052 45.1278ZM157.18 44.375C157.511 44.375 157.79 44.3099 158.018 44.1797C158.247 44.0495 158.42 43.8814 158.536 43.6754C158.655 43.4695 158.714 43.2528 158.714 43.0256V42.2585C158.678 42.3011 158.6 42.3402 158.479 42.3757C158.361 42.4089 158.224 42.4384 158.067 42.4645C157.914 42.4882 157.763 42.5095 157.616 42.5284C157.472 42.545 157.355 42.5592 157.265 42.571C157.047 42.5994 156.844 42.6456 156.654 42.7095C156.467 42.7711 156.316 42.8646 156.2 42.9901C156.086 43.1132 156.029 43.2812 156.029 43.4943C156.029 43.7855 156.137 44.0057 156.352 44.1548C156.57 44.3016 156.846 44.375 157.18 44.375ZM161.081 45V39.5455H161.891V40.3693H161.948C162.047 40.0994 162.227 39.8804 162.488 39.7124C162.748 39.5443 163.042 39.4602 163.368 39.4602C163.43 39.4602 163.507 39.4614 163.599 39.4638C163.692 39.4661 163.761 39.4697 163.809 39.4744V40.3267C163.78 40.3196 163.715 40.3089 163.613 40.2947C163.514 40.2782 163.409 40.2699 163.297 40.2699C163.032 40.2699 162.796 40.3255 162.587 40.4368C162.381 40.5457 162.218 40.6972 162.097 40.8913C161.979 41.0831 161.92 41.3021 161.92 41.5483V45H161.081ZM166.923 45.1136C166.398 45.1136 165.944 44.9976 165.563 44.7656C165.184 44.5312 164.892 44.2045 164.686 43.7855C164.482 43.3641 164.381 42.8741 164.381 42.3153C164.381 41.7566 164.482 41.2642 164.686 40.8381C164.892 40.4096 165.178 40.0758 165.545 39.8366C165.915 39.5952 166.345 39.4744 166.838 39.4744C167.122 39.4744 167.403 39.5218 167.68 39.6165C167.956 39.7112 168.209 39.8651 168.436 40.0781C168.663 40.2888 168.844 40.5682 168.979 40.9162C169.114 41.2642 169.182 41.6927 169.182 42.2017V42.5568H164.977V41.8324H168.329C168.329 41.5246 168.268 41.25 168.145 41.0085C168.024 40.767 167.851 40.5765 167.626 40.4368C167.404 40.2971 167.141 40.2273 166.838 40.2273C166.504 40.2273 166.215 40.3101 165.971 40.4759C165.73 40.6392 165.544 40.8523 165.414 41.1151C165.284 41.3778 165.219 41.6596 165.219 41.9602V42.4432C165.219 42.8551 165.29 43.2043 165.432 43.4908C165.576 43.7749 165.776 43.9915 166.032 44.1406C166.287 44.2874 166.585 44.3608 166.923 44.3608C167.143 44.3608 167.342 44.33 167.52 44.2685C167.7 44.2045 167.855 44.1098 167.985 43.9844C168.115 43.8565 168.216 43.6979 168.287 43.5085L169.096 43.7358C169.011 44.0104 168.868 44.2519 168.667 44.4602C168.465 44.6662 168.217 44.8272 167.921 44.9432C167.625 45.0568 167.292 45.1136 166.923 45.1136Z" fill="white" fill-opacity="0.25"/>
<defs>
<linearGradient id="paint0_linear_7032_48066" x1="8.22034" y1="27.3413" x2="8.22034" y2="39.508" gradientUnits="userSpaceOnUse">
<stop stop-color="#7AEDCF"/>
<stop offset="0.201333" stop-color="#68CEFA"/>
<stop offset="0.403244" stop-color="#689CF8"/>
<stop offset="0.602076" stop-color="#AC57C0"/>
<stop offset="0.801867" stop-color="#E65659"/>
<stop offset="1" stop-color="#F2C241"/>
</linearGradient>
</defs>
</svg>
