<svg width="216" height="64" viewBox="0 0 216 64" fill="none" xmlns="http://www.w3.org/2000/svg">
    <path d="M42.2055 19.363C41.5395 19.363 40.9997 19.8812 40.9997 20.5205V22.4498H44.6173L43.8134 24.7651H40.9997V34.0258H38.5879V20.5205C38.5879 18.6026 40.2075 17.0477 42.2055 17.0477H45.0192L44.2153 19.363H42.2055Z"
          fill="white"/>
    <path fill-rule="evenodd" clip-rule="evenodd"
          d="M19.2941 17.8196H25.3234C27.9874 17.8196 30.147 19.8926 30.147 22.45C30.147 23.7434 29.5946 24.913 28.7038 25.753C29.8273 26.6009 30.5489 27.9173 30.5489 29.3956C30.5489 31.9529 28.3894 34.0259 25.7254 34.0259H19.2941V17.8196ZM21.7058 20.1348H25.3234C26.6554 20.1348 27.7352 21.1713 27.7352 22.45C27.7352 23.7286 26.6554 24.7652 25.3234 24.7652H21.7058V20.1348ZM21.7058 27.0803V31.7107H25.7254C27.0574 31.7107 28.1372 30.6742 28.1372 29.3956C28.1372 28.1169 27.0574 27.0803 25.7254 27.0803H21.7058Z"
          fill="white"/>
    <path d="M35.3725 17.8196H32.9607V20.1348H35.3725V17.8196Z" fill="white"/>
    <path d="M35.3725 22.45H32.9607V34.0259H35.3725V22.45Z" fill="white"/>
    <path d="M46.6272 22.45V34.0259H49.039V24.7652H52.2546L53.0586 22.45H46.6272Z" fill="white"/>
    <path fill-rule="evenodd" clip-rule="evenodd"
          d="M64.3136 28.1416C64.3136 31.3914 62.3756 34.026 58.8872 34.026C55.3987 34.026 53.4607 31.3914 53.4607 28.1416C53.4607 24.8916 55.3987 22.2571 58.8872 22.2571C62.3756 22.2571 64.3136 24.8916 64.3136 28.1416ZM61.9018 28.1416C61.9018 29.3461 61.5418 30.2582 61.0526 30.824C60.6054 31.3413 59.938 31.7108 58.8872 31.7108C57.8363 31.7108 57.1688 31.3413 56.7217 30.824C56.2325 30.2582 55.8725 29.3461 55.8725 28.1416C55.8725 26.937 56.2325 26.0249 56.7217 25.4591C57.1688 24.9418 57.8363 24.5723 58.8872 24.5723C59.938 24.5723 60.6054 24.9418 61.0526 25.4591C61.5418 26.0249 61.9018 26.937 61.9018 28.1416Z"
          fill="white"/>
    <path d="M73.1589 25.97C73.1456 25.8061 73.0985 25.6463 73.0198 25.5003C72.9337 25.3233 72.8207 25.1593 72.685 25.0136C72.4007 24.7144 72.0367 24.4955 71.6321 24.3805C71.416 24.3193 71.1935 24.2815 70.9687 24.2677C70.722 24.2538 70.4746 24.2595 70.2289 24.2846C69.8057 24.3148 69.3985 24.4522 69.0488 24.683C68.93 24.7708 68.8309 24.8807 68.7572 25.0061C68.6952 25.1142 68.6559 25.2329 68.6417 25.3556C68.6427 25.3675 68.6427 25.3794 68.6417 25.3913V25.4364C68.6396 25.4721 68.6396 25.5079 68.6417 25.5435C68.647 25.6013 68.6602 25.6582 68.6809 25.7126C68.7282 25.8271 68.801 25.9304 68.8942 26.0151C69.2323 26.2967 69.6255 26.5107 70.0508 26.6446C70.2955 26.7291 70.5538 26.8024 70.8199 26.8701L71.0156 26.917L71.2309 26.9659C71.3856 26.9978 71.5401 27.0316 71.6968 27.0692C72.0079 27.1425 72.323 27.2252 72.6479 27.3247C72.9911 27.4243 73.3252 27.55 73.6476 27.7005C74.0274 27.8778 74.3741 28.1125 74.6751 28.3958C75.0166 28.7222 75.2684 29.1242 75.4089 29.5663C75.4774 29.773 75.523 29.9858 75.5466 30.2014C75.5709 30.4116 75.5753 30.6236 75.5584 30.8346C75.5179 31.2774 75.3795 31.7067 75.1513 32.0935C74.9313 32.4629 74.6413 32.7893 74.2961 33.0555C73.9729 33.3014 73.613 33.4997 73.2288 33.6436C72.5397 33.888 71.8112 34.0152 71.0763 34.0194C70.3375 34.054 69.5987 33.952 68.9 33.7188C68.1538 33.4597 67.4888 33.0218 66.9684 32.4467C66.7117 32.1598 66.4915 31.8444 66.3128 31.5072C66.1309 31.1544 65.9993 30.7796 65.9214 30.393L68.1779 30.053C68.201 30.2371 68.2525 30.4169 68.3306 30.5865C68.4539 30.8627 68.6344 31.1119 68.8611 31.3189C69.0879 31.526 69.3562 31.6866 69.6496 31.7909C70.0884 31.9425 70.5538 32.0095 71.0196 31.9882C71.4903 31.9868 71.9559 31.8954 72.3895 31.7196C72.7227 31.5933 72.9999 31.3594 73.1721 31.0582C73.2376 30.9371 73.2766 30.805 73.2877 30.6692C73.2921 30.5922 73.2921 30.5151 73.2877 30.4382C73.2811 30.3657 73.2671 30.2939 73.2465 30.2239C73.2126 30.1091 73.1508 30.0036 73.0669 29.9158C72.9403 29.7899 72.7937 29.6845 72.6322 29.6039C72.171 29.3782 71.6826 29.2079 71.1781 29.0966L70.7652 28.9989L70.5382 28.95L70.3013 28.8974C69.9823 28.8241 69.6613 28.7377 69.3365 28.6325C68.9979 28.5307 68.6675 28.4051 68.3482 28.2567C67.9858 28.086 67.6499 27.8679 67.35 27.6085C66.9911 27.2993 66.7147 26.912 66.5437 26.4792C66.4594 26.2624 66.4028 26.0365 66.3754 25.8065C66.361 25.6988 66.3531 25.5902 66.352 25.4815V25.3087C66.352 25.2448 66.352 25.1865 66.3676 25.1208C66.421 24.6682 66.5854 24.2342 66.8471 23.8543C67.0977 23.4901 67.425 23.1803 67.808 22.9449C68.4802 22.5538 69.2425 22.328 70.0274 22.2873C70.3826 22.2558 70.7397 22.249 71.0959 22.2666C71.4727 22.2876 71.846 22.3475 72.2095 22.4452C72.9734 22.6439 73.6719 23.0253 74.2409 23.5537C74.5279 23.8218 74.7782 24.1236 74.9865 24.4519C75.2132 24.8071 75.378 25.1955 75.4737 25.6018L73.1589 25.97Z"
          fill="white"/>
    <path d="M77.578 30.5531V20.1348H79.99V22.4499H82.8038V24.7651H79.99V30.5531C79.99 31.1924 80.5295 31.7107 81.1956 31.7107H82.8038V34.0259H81.1956C79.198 34.0259 77.578 32.4711 77.578 30.5531Z"
          fill="white"/>
    <path d="M8.03919 34.0259H0L12.0588 22.45H16.0784L8.03919 34.0259Z" fill="url(#paint0_linear_11643_58092)"/>
    <path d="M20.4907 44.8422V41.7642H22.2303L24.136 44.8422H25.5099L23.2164 41.1267L25.521 37.4771H24.1582L22.2081 40.621H20.4907V37.4771H19.2941V44.8422H20.4907ZM28.1759 44.9521C29.2506 44.9521 29.8379 44.3805 30.1038 43.7539H30.1481V44.8422H31.2561V39.3788H30.0595V42.4568C30.0595 43.5341 29.5387 43.9298 28.6191 43.9298C27.6662 43.9298 27.2895 43.5231 27.2895 42.5447V39.3788H26.0928V42.7536C26.0928 43.9958 26.7355 44.9521 28.1759 44.9521ZM34.9394 44.9521C36.3355 44.9521 37.1443 44.3585 37.1443 43.3472C37.1443 42.4458 36.5903 41.9731 35.5267 41.7642L34.5959 41.5884C33.8203 41.4345 33.6209 41.3135 33.6209 40.8958C33.6209 40.4781 33.8314 40.2472 34.7067 40.2472C35.6929 40.2472 35.8701 40.61 35.8701 41.1157V41.2476H37.0114V41.1486C37.0114 39.9065 36.0363 39.2689 34.74 39.2689C33.2996 39.2689 32.4797 39.9284 32.4797 40.9178C32.4797 41.9071 33.1001 42.3469 34.0863 42.5227L34.9394 42.6656C35.7483 42.8086 36.0142 42.9405 36.0142 43.3802C36.0142 43.7869 35.848 43.9848 34.9616 43.9848C33.909 43.9848 33.6431 43.7649 33.6431 43.1713V42.9734H32.4907V42.9954C32.4907 44.3256 33.3328 44.9521 34.9394 44.9521ZM39.8486 44.9521C40.8902 44.9521 41.5217 44.5014 41.843 43.9848H41.8984V44.8422H43.0064V41.5224C43.0064 40.1923 42.2308 39.2689 40.6907 39.2689C39.2171 39.2689 38.2531 40.1483 38.2531 41.3685V41.4784H39.4054V41.3135C39.4054 40.588 39.7489 40.3132 40.6242 40.3132C41.4885 40.3132 41.8652 40.555 41.8652 41.3685V41.6653L39.9373 41.9511C38.7628 42.116 38.098 42.5887 38.098 43.4901C38.098 44.4465 38.8625 44.9521 39.8486 44.9521ZM39.2614 43.4022C39.2614 42.9954 39.483 42.8525 40.1146 42.7646L41.8652 42.5008V42.5997C41.8652 43.699 41.012 44.0068 40.2364 44.0068C39.5384 44.0068 39.2614 43.8309 39.2614 43.4022ZM45.5707 44.8422V41.6543C45.5707 40.665 45.9917 40.2912 46.9003 40.2912C47.8975 40.2912 48.1966 40.6979 48.1966 41.6763V44.8422H49.3933V41.6653C49.3933 40.665 49.8143 40.2912 50.7229 40.2912C51.7201 40.2912 52.0192 40.6979 52.0192 41.6763V44.8422H53.2159V41.4125C53.2159 40.1703 52.5843 39.2689 51.1661 39.2689C50.0802 39.2689 49.5152 39.8295 49.2603 40.4011H49.2271C48.9612 39.7086 48.3628 39.2689 47.3989 39.2689C46.3463 39.2689 45.7701 39.8185 45.5153 40.4011H45.471V39.3788H44.374V44.8422H45.5707ZM56.0678 44.9521C57.1093 44.9521 57.7409 44.5014 58.0622 43.9848H58.1176V44.8422H59.2256V41.5224C59.2256 40.1923 58.45 39.2689 56.9099 39.2689C55.4362 39.2689 54.4723 40.1483 54.4723 41.3685V41.4784H55.6246V41.3135C55.6246 40.588 55.9681 40.3132 56.8434 40.3132C57.7076 40.3132 58.0843 40.555 58.0843 41.3685V41.6653L56.1564 41.9511C54.9819 42.116 54.3171 42.5887 54.3171 43.4901C54.3171 44.4465 55.0817 44.9521 56.0678 44.9521ZM55.4805 43.4022C55.4805 42.9954 55.7021 42.8525 56.3337 42.7646L58.0843 42.5008V42.5997C58.0843 43.699 57.2312 44.0068 56.4556 44.0068C55.7575 44.0068 55.4805 43.8309 55.4805 43.4022Z"
          fill="white" fill-opacity="0.5"/>
    <path d="M98.8038 25V37" stroke="white" stroke-opacity="0.2"/>
    <path d="M123.7 24.224H126.068V28.768C125.46 29.2267 124.756 29.5787 123.956 29.824C123.156 30.0693 122.35 30.192 121.54 30.192C120.377 30.192 119.332 29.9467 118.404 29.456C117.476 28.9547 116.745 28.2667 116.212 27.392C115.689 26.5067 115.428 25.5093 115.428 24.4C115.428 23.2907 115.689 22.2987 116.212 21.424C116.745 20.5387 117.481 19.8507 118.42 19.36C119.358 18.8587 120.414 18.608 121.588 18.608C122.569 18.608 123.46 18.7733 124.26 19.104C125.06 19.4347 125.732 19.9147 126.276 20.544L124.612 22.08C123.812 21.2373 122.847 20.816 121.716 20.816C121.001 20.816 120.366 20.9653 119.812 21.264C119.257 21.5627 118.825 21.984 118.516 22.528C118.206 23.072 118.052 23.696 118.052 24.4C118.052 25.0933 118.206 25.712 118.516 26.256C118.825 26.8 119.252 27.2267 119.796 27.536C120.35 27.8347 120.98 27.984 121.684 27.984C122.43 27.984 123.102 27.824 123.7 27.504V24.224ZM132.396 30.128C131.489 30.128 130.673 29.9413 129.948 29.568C129.233 29.184 128.673 28.656 128.268 27.984C127.862 27.312 127.66 26.5493 127.66 25.696C127.66 24.8427 127.862 24.08 128.268 23.408C128.673 22.736 129.233 22.2133 129.948 21.84C130.673 21.456 131.489 21.264 132.396 21.264C133.302 21.264 134.113 21.456 134.828 21.84C135.542 22.2133 136.102 22.736 136.508 23.408C136.913 24.08 137.116 24.8427 137.116 25.696C137.116 26.5493 136.913 27.312 136.508 27.984C136.102 28.656 135.542 29.184 134.828 29.568C134.113 29.9413 133.302 30.128 132.396 30.128ZM132.396 28.08C133.036 28.08 133.558 27.8667 133.964 27.44C134.38 27.0027 134.588 26.4213 134.588 25.696C134.588 24.9707 134.38 24.3947 133.964 23.968C133.558 23.5307 133.036 23.312 132.396 23.312C131.756 23.312 131.228 23.5307 130.812 23.968C130.396 24.3947 130.188 24.9707 130.188 25.696C130.188 26.4213 130.396 27.0027 130.812 27.44C131.228 27.8667 131.756 28.08 132.396 28.08ZM147.094 21.392L143.462 30H140.886L137.27 21.392H139.846L142.23 27.248L144.694 21.392H147.094ZM156.31 25.728C156.31 25.76 156.294 25.984 156.262 26.4H149.75C149.867 26.9333 150.144 27.3547 150.582 27.664C151.019 27.9733 151.563 28.128 152.214 28.128C152.662 28.128 153.056 28.064 153.398 27.936C153.75 27.7973 154.075 27.584 154.374 27.296L155.702 28.736C154.891 29.664 153.707 30.128 152.15 30.128C151.179 30.128 150.32 29.9413 149.574 29.568C148.827 29.184 148.251 28.656 147.846 27.984C147.44 27.312 147.238 26.5493 147.238 25.696C147.238 24.8533 147.435 24.096 147.83 23.424C148.235 22.7413 148.784 22.2133 149.478 21.84C150.182 21.456 150.966 21.264 151.83 21.264C152.672 21.264 153.435 21.4453 154.118 21.808C154.8 22.1707 155.334 22.6933 155.718 23.376C156.112 24.048 156.31 24.832 156.31 25.728ZM151.846 23.152C151.28 23.152 150.806 23.312 150.422 23.632C150.038 23.952 149.803 24.3893 149.718 24.944H153.958C153.872 24.4 153.638 23.968 153.254 23.648C152.87 23.3173 152.4 23.152 151.846 23.152ZM160.355 22.528C160.654 22.112 161.054 21.7973 161.555 21.584C162.067 21.3707 162.654 21.264 163.315 21.264V23.568C163.038 23.5467 162.851 23.536 162.755 23.536C162.041 23.536 161.481 23.7387 161.075 24.144C160.67 24.5387 160.467 25.136 160.467 25.936V30H157.971V21.392H160.355V22.528ZM170.032 21.264C171.098 21.264 171.957 21.584 172.608 22.224C173.269 22.864 173.6 23.8133 173.6 25.072V30H171.104V25.456C171.104 24.7733 170.954 24.2667 170.656 23.936C170.357 23.5947 169.925 23.424 169.36 23.424C168.73 23.424 168.229 23.6213 167.856 24.016C167.482 24.4 167.296 24.976 167.296 25.744V30H164.8V21.392H167.184V22.4C167.514 22.0373 167.925 21.76 168.416 21.568C168.906 21.3653 169.445 21.264 170.032 21.264ZM179.334 21.264C180.667 21.264 181.691 21.584 182.406 22.224C183.121 22.8533 183.478 23.808 183.478 25.088V30H181.142V28.928C180.673 29.728 179.798 30.128 178.518 30.128C177.857 30.128 177.281 30.016 176.79 29.792C176.31 29.568 175.942 29.2587 175.686 28.864C175.43 28.4693 175.302 28.0213 175.302 27.52C175.302 26.72 175.601 26.0907 176.198 25.632C176.806 25.1733 177.739 24.944 178.998 24.944H180.982C180.982 24.4 180.817 23.984 180.486 23.696C180.155 23.3973 179.659 23.248 178.998 23.248C178.539 23.248 178.086 23.3227 177.638 23.472C177.201 23.6107 176.827 23.8027 176.518 24.048L175.622 22.304C176.091 21.9733 176.651 21.7173 177.302 21.536C177.963 21.3547 178.641 21.264 179.334 21.264ZM179.142 28.448C179.569 28.448 179.947 28.352 180.278 28.16C180.609 27.9573 180.843 27.664 180.982 27.28V26.4H179.27C178.246 26.4 177.734 26.736 177.734 27.408C177.734 27.728 177.857 27.984 178.102 28.176C178.358 28.3573 178.705 28.448 179.142 28.448ZM190.969 21.264C192.036 21.264 192.894 21.584 193.545 22.224C194.206 22.864 194.537 23.8133 194.537 25.072V30H192.041V25.456C192.041 24.7733 191.892 24.2667 191.593 23.936C191.294 23.5947 190.862 23.424 190.297 23.424C189.668 23.424 189.166 23.6213 188.793 24.016C188.42 24.4 188.233 24.976 188.233 25.744V30H185.737V21.392H188.121V22.4C188.452 22.0373 188.862 21.76 189.353 21.568C189.844 21.3653 190.382 21.264 190.969 21.264ZM201.053 30.128C200.136 30.128 199.309 29.9413 198.573 29.568C197.848 29.184 197.277 28.656 196.861 27.984C196.456 27.312 196.253 26.5493 196.253 25.696C196.253 24.8427 196.456 24.08 196.861 23.408C197.277 22.736 197.848 22.2133 198.573 21.84C199.309 21.456 200.136 21.264 201.053 21.264C201.96 21.264 202.749 21.456 203.421 21.84C204.104 22.2133 204.6 22.752 204.909 23.456L202.973 24.496C202.525 23.7067 201.88 23.312 201.037 23.312C200.387 23.312 199.848 23.5253 199.421 23.952C198.995 24.3787 198.781 24.96 198.781 25.696C198.781 26.432 198.995 27.0133 199.421 27.44C199.848 27.8667 200.387 28.08 201.037 28.08C201.891 28.08 202.536 27.6853 202.973 26.896L204.909 27.952C204.6 28.6347 204.104 29.168 203.421 29.552C202.749 29.936 201.96 30.128 201.053 30.128ZM214.669 25.728C214.669 25.76 214.653 25.984 214.621 26.4H208.109C208.226 26.9333 208.504 27.3547 208.941 27.664C209.378 27.9733 209.922 28.128 210.573 28.128C211.021 28.128 211.416 28.064 211.757 27.936C212.109 27.7973 212.434 27.584 212.733 27.296L214.061 28.736C213.25 29.664 212.066 30.128 210.509 30.128C209.538 30.128 208.68 29.9413 207.933 29.568C207.186 29.184 206.61 28.656 206.205 27.984C205.8 27.312 205.597 26.5493 205.597 25.696C205.597 24.8533 205.794 24.096 206.189 23.424C206.594 22.7413 207.144 22.2133 207.837 21.84C208.541 21.456 209.325 21.264 210.189 21.264C211.032 21.264 211.794 21.4453 212.477 21.808C213.16 22.1707 213.693 22.6933 214.077 23.376C214.472 24.048 214.669 24.832 214.669 25.728ZM210.205 23.152C209.64 23.152 209.165 23.312 208.781 23.632C208.397 23.952 208.162 24.3893 208.077 24.944H212.317C212.232 24.4 211.997 23.968 211.613 23.648C211.229 23.3173 210.76 23.152 210.205 23.152Z"
          fill="white"/>
    <path d="M119.662 39.5455C119.619 39.1856 119.446 38.9062 119.143 38.7074C118.84 38.5085 118.469 38.4091 118.028 38.4091C117.706 38.4091 117.425 38.4612 117.183 38.5653C116.944 38.6695 116.757 38.8127 116.622 38.995C116.489 39.1773 116.423 39.3845 116.423 39.6165C116.423 39.8106 116.469 39.9775 116.562 40.1172C116.656 40.2545 116.777 40.3693 116.924 40.4616C117.071 40.5516 117.225 40.6262 117.386 40.6854C117.546 40.7422 117.694 40.7884 117.829 40.8239L118.568 41.0227C118.757 41.0724 118.968 41.1411 119.2 41.2287C119.435 41.3163 119.658 41.4358 119.871 41.5874C120.087 41.7365 120.264 41.9283 120.404 42.1626C120.544 42.397 120.613 42.6847 120.613 43.0256C120.613 43.4186 120.511 43.7737 120.305 44.0909C120.101 44.4081 119.803 44.6603 119.41 44.8473C119.019 45.0343 118.544 45.1278 117.986 45.1278C117.465 45.1278 117.014 45.0438 116.633 44.8757C116.254 44.7076 115.956 44.4732 115.738 44.1726C115.522 43.8719 115.4 43.5227 115.372 43.125H116.281C116.305 43.3996 116.397 43.6269 116.558 43.8068C116.721 43.9844 116.927 44.117 117.176 44.2045C117.427 44.2898 117.697 44.3324 117.986 44.3324C118.322 44.3324 118.624 44.2779 118.891 44.169C119.159 44.0578 119.371 43.9039 119.527 43.7074C119.683 43.5085 119.761 43.2765 119.761 43.0114C119.761 42.7699 119.694 42.5734 119.559 42.4219C119.424 42.2704 119.246 42.1473 119.026 42.0526C118.806 41.9579 118.568 41.875 118.312 41.804L117.417 41.5483C116.849 41.3849 116.399 41.1518 116.068 40.8487C115.737 40.5457 115.571 40.1491 115.571 39.6591C115.571 39.2519 115.681 38.8968 115.901 38.5938C116.124 38.2884 116.422 38.0516 116.796 37.8835C117.172 37.7131 117.593 37.6278 118.057 37.6278C118.525 37.6278 118.942 37.7119 119.307 37.88C119.671 38.0457 119.96 38.273 120.173 38.5618C120.389 38.8506 120.502 39.1785 120.514 39.5455H119.662ZM125.385 42.7699V39.5455H126.223V45H125.385V44.0767H125.329C125.201 44.3537 125.002 44.5893 124.732 44.7834C124.462 44.9751 124.121 45.071 123.709 45.071C123.368 45.071 123.065 44.9964 122.8 44.8473C122.535 44.6958 122.327 44.4685 122.175 44.1655C122.024 43.8601 121.948 43.4754 121.948 43.0114V39.5455H122.786V42.9545C122.786 43.3523 122.897 43.6695 123.12 43.9062C123.345 44.143 123.631 44.2614 123.979 44.2614C124.187 44.2614 124.399 44.2081 124.615 44.1016C124.833 43.995 125.015 43.8317 125.162 43.6115C125.311 43.3913 125.385 43.1108 125.385 42.7699ZM127.872 45V37.7273H128.71V40.4119H128.781C128.843 40.3172 128.928 40.1965 129.037 40.0497C129.148 39.9006 129.307 39.768 129.513 39.652C129.721 39.5336 130.003 39.4744 130.358 39.4744C130.817 39.4744 131.222 39.5893 131.572 39.8189C131.923 40.0485 132.196 40.3741 132.393 40.7955C132.589 41.2169 132.687 41.714 132.687 42.2869C132.687 42.8646 132.589 43.3653 132.393 43.7891C132.196 44.2105 131.924 44.5372 131.576 44.7692C131.228 44.9988 130.827 45.1136 130.372 45.1136C130.022 45.1136 129.741 45.0556 129.53 44.9396C129.32 44.8213 129.158 44.6875 129.044 44.5384C128.93 44.3868 128.843 44.2614 128.781 44.1619H128.682V45H127.872ZM128.696 42.2727C128.696 42.6847 128.756 43.0481 128.877 43.3629C128.998 43.6754 129.174 43.9205 129.406 44.098C129.638 44.2732 129.922 44.3608 130.258 44.3608C130.609 44.3608 130.901 44.2685 131.136 44.0838C131.372 43.8968 131.55 43.6458 131.668 43.331C131.789 43.0137 131.849 42.661 131.849 42.2727C131.849 41.8892 131.79 41.5436 131.672 41.2358C131.556 40.9257 131.379 40.6806 131.143 40.5007C130.908 40.3184 130.613 40.2273 130.258 40.2273C129.917 40.2273 129.631 40.3137 129.399 40.4865C129.167 40.657 128.992 40.8961 128.873 41.2038C128.755 41.5092 128.696 41.8655 128.696 42.2727ZM138.06 39.5455C138.018 39.1856 137.845 38.9062 137.542 38.7074C137.239 38.5085 136.867 38.4091 136.427 38.4091C136.105 38.4091 135.823 38.4612 135.582 38.5653C135.342 38.6695 135.155 38.8127 135.02 38.995C134.888 39.1773 134.822 39.3845 134.822 39.6165C134.822 39.8106 134.868 39.9775 134.96 40.1172C135.055 40.2545 135.176 40.3693 135.322 40.4616C135.469 40.5516 135.623 40.6262 135.784 40.6854C135.945 40.7422 136.093 40.7884 136.228 40.8239L136.966 41.0227C137.156 41.0724 137.367 41.1411 137.599 41.2287C137.833 41.3163 138.057 41.4358 138.27 41.5874C138.485 41.7365 138.663 41.9283 138.802 42.1626C138.942 42.397 139.012 42.6847 139.012 43.0256C139.012 43.4186 138.909 43.7737 138.703 44.0909C138.499 44.4081 138.201 44.6603 137.808 44.8473C137.417 45.0343 136.943 45.1278 136.384 45.1278C135.863 45.1278 135.412 45.0438 135.031 44.8757C134.652 44.7076 134.354 44.4732 134.136 44.1726C133.921 43.8719 133.799 43.5227 133.77 43.125H134.68C134.703 43.3996 134.796 43.6269 134.957 43.8068C135.12 43.9844 135.326 44.117 135.574 44.2045C135.825 44.2898 136.095 44.3324 136.384 44.3324C136.72 44.3324 137.022 44.2779 137.29 44.169C137.557 44.0578 137.769 43.9039 137.925 43.7074C138.082 43.5085 138.16 43.2765 138.16 43.0114C138.16 42.7699 138.092 42.5734 137.957 42.4219C137.822 42.2704 137.645 42.1473 137.425 42.0526C137.204 41.9579 136.966 41.875 136.711 41.804L135.816 41.5483C135.248 41.3849 134.798 41.1518 134.466 40.8487C134.135 40.5457 133.969 40.1491 133.969 39.6591C133.969 39.2519 134.079 38.8968 134.3 38.5938C134.522 38.2884 134.82 38.0516 135.194 37.8835C135.571 37.7131 135.991 37.6278 136.455 37.6278C136.924 37.6278 137.341 37.7119 137.705 37.88C138.07 38.0457 138.359 38.273 138.572 38.5618C138.787 38.8506 138.901 39.1785 138.912 39.5455H138.06ZM144.068 47.0455V44.1619H143.997C143.935 44.2614 143.848 44.3868 143.734 44.5384C143.62 44.6875 143.458 44.8213 143.248 44.9396C143.037 45.0556 142.756 45.1136 142.406 45.1136C141.951 45.1136 141.55 44.9988 141.202 44.7692C140.854 44.5372 140.582 44.2105 140.385 43.7891C140.189 43.3653 140.091 42.8646 140.091 42.2869C140.091 41.714 140.189 41.2169 140.385 40.7955C140.582 40.3741 140.855 40.0485 141.206 39.8189C141.556 39.5893 141.961 39.4744 142.42 39.4744C142.775 39.4744 143.056 39.5336 143.262 39.652C143.47 39.768 143.629 39.9006 143.738 40.0497C143.849 40.1965 143.935 40.3172 143.997 40.4119H144.096V39.5455H144.906V47.0455H144.068ZM142.52 44.3608C142.856 44.3608 143.14 44.2732 143.372 44.098C143.604 43.9205 143.78 43.6754 143.901 43.3629C144.022 43.0481 144.082 42.6847 144.082 42.2727C144.082 41.8655 144.023 41.5092 143.905 41.2038C143.786 40.8961 143.611 40.657 143.379 40.4865C143.147 40.3137 142.86 40.2273 142.52 40.2273C142.164 40.2273 141.869 40.3184 141.632 40.5007C141.397 40.6806 141.221 40.9257 141.103 41.2358C140.987 41.5436 140.929 41.8892 140.929 42.2727C140.929 42.661 140.988 43.0137 141.106 43.331C141.227 43.6458 141.405 43.8968 141.639 44.0838C141.876 44.2685 142.169 44.3608 142.52 44.3608ZM149.878 42.7699V39.5455H150.716V45H149.878V44.0767H149.821C149.693 44.3537 149.494 44.5893 149.224 44.7834C148.954 44.9751 148.613 45.071 148.201 45.071C147.86 45.071 147.557 44.9964 147.292 44.8473C147.027 44.6958 146.819 44.4685 146.667 44.1655C146.516 43.8601 146.44 43.4754 146.44 43.0114V39.5455H147.278V42.9545C147.278 43.3523 147.389 43.6695 147.612 43.9062C147.837 44.143 148.123 44.2614 148.471 44.2614C148.68 44.2614 148.891 44.2081 149.107 44.1016C149.325 43.995 149.507 43.8317 149.654 43.6115C149.803 43.3913 149.878 43.1108 149.878 42.7699ZM153.856 45.1278C153.51 45.1278 153.196 45.0627 152.915 44.9325C152.633 44.8 152.409 44.6094 152.243 44.3608C152.078 44.1098 151.995 43.8068 151.995 43.4517C151.995 43.1392 152.056 42.8859 152.18 42.6918C152.303 42.4953 152.467 42.3414 152.673 42.2301C152.879 42.1188 153.106 42.036 153.355 41.9815C153.606 41.9247 153.858 41.8797 154.111 41.8466C154.443 41.804 154.712 41.772 154.917 41.7507C155.126 41.727 155.277 41.688 155.372 41.6335C155.469 41.5791 155.518 41.4844 155.518 41.3494V41.321C155.518 40.9706 155.422 40.6984 155.23 40.5043C155.041 40.3101 154.753 40.2131 154.367 40.2131C153.967 40.2131 153.653 40.3007 153.426 40.4759C153.199 40.651 153.039 40.8381 152.947 41.0369L152.151 40.7528C152.293 40.4214 152.483 40.1634 152.719 39.9787C152.958 39.7917 153.219 39.6615 153.501 39.5881C153.785 39.5123 154.064 39.4744 154.339 39.4744C154.514 39.4744 154.715 39.4957 154.942 39.5384C155.172 39.5786 155.393 39.6626 155.606 39.7905C155.822 39.9183 156.001 40.1113 156.143 40.3693C156.285 40.6274 156.356 40.973 156.356 41.4062V45H155.518V44.2614H155.475C155.418 44.3797 155.323 44.5064 155.191 44.6413C155.058 44.7763 154.882 44.8911 154.662 44.9858C154.442 45.0805 154.173 45.1278 153.856 45.1278ZM153.984 44.375C154.315 44.375 154.594 44.3099 154.822 44.1797C155.051 44.0495 155.224 43.8814 155.34 43.6754C155.458 43.4695 155.518 43.2528 155.518 43.0256V42.2585C155.482 42.3011 155.404 42.3402 155.283 42.3757C155.165 42.4089 155.028 42.4384 154.871 42.4645C154.717 42.4882 154.567 42.5095 154.42 42.5284C154.276 42.545 154.159 42.5592 154.069 42.571C153.851 42.5994 153.647 42.6456 153.458 42.7095C153.271 42.7711 153.119 42.8646 153.003 42.9901C152.89 43.1132 152.833 43.2812 152.833 43.4943C152.833 43.7855 152.941 44.0057 153.156 44.1548C153.374 44.3016 153.65 44.375 153.984 44.375ZM157.885 45V39.5455H158.695V40.3693H158.752C158.851 40.0994 159.031 39.8804 159.292 39.7124C159.552 39.5443 159.846 39.4602 160.172 39.4602C160.234 39.4602 160.311 39.4614 160.403 39.4638C160.495 39.4661 160.565 39.4697 160.613 39.4744V40.3267C160.584 40.3196 160.519 40.3089 160.417 40.2947C160.318 40.2782 160.213 40.2699 160.101 40.2699C159.836 40.2699 159.599 40.3255 159.391 40.4368C159.185 40.5457 159.022 40.6972 158.901 40.8913C158.783 41.0831 158.723 41.3021 158.723 41.5483V45H157.885ZM163.727 45.1136C163.201 45.1136 162.748 44.9976 162.367 44.7656C161.988 44.5312 161.696 44.2045 161.49 43.7855C161.286 43.3641 161.184 42.8741 161.184 42.3153C161.184 41.7566 161.286 41.2642 161.49 40.8381C161.696 40.4096 161.982 40.0758 162.349 39.8366C162.718 39.5952 163.149 39.4744 163.642 39.4744C163.926 39.4744 164.206 39.5218 164.483 39.6165C164.76 39.7112 165.012 39.8651 165.24 40.0781C165.467 40.2888 165.648 40.5682 165.783 40.9162C165.918 41.2642 165.985 41.6927 165.985 42.2017V42.5568H161.781V41.8324H165.133C165.133 41.5246 165.072 41.25 164.949 41.0085C164.828 40.767 164.655 40.5765 164.43 40.4368C164.208 40.2971 163.945 40.2273 163.642 40.2273C163.308 40.2273 163.019 40.3101 162.775 40.4759C162.534 40.6392 162.348 40.8523 162.218 41.1151C162.088 41.3778 162.022 41.6596 162.022 41.9602V42.4432C162.022 42.8551 162.093 43.2043 162.235 43.4908C162.38 43.7749 162.58 43.9915 162.836 44.1406C163.091 44.2874 163.388 44.3608 163.727 44.3608C163.947 44.3608 164.146 44.33 164.324 44.2685C164.503 44.2045 164.659 44.1098 164.789 43.9844C164.919 43.8565 165.02 43.6979 165.091 43.5085L165.9 43.7358C165.815 44.0104 165.672 44.2519 165.471 44.4602C165.269 44.6662 165.021 44.8272 164.725 44.9432C164.429 45.0568 164.096 45.1136 163.727 45.1136Z"
          fill="white" fill-opacity="0.4"/>
    <defs>
        <linearGradient id="paint0_linear_11643_58092" x1="8.03918" y1="22.45" x2="8.03918" y2="34.0259"
                        gradientUnits="userSpaceOnUse">
            <stop stop-color="#12D5D5"/>
            <stop offset="0.201333" stop-color="#0BB0F8"/>
            <stop offset="0.403244" stop-color="#4584F5"/>
            <stop offset="0.602076" stop-color="#AC57C0"/>
            <stop offset="0.801867" stop-color="#E65659"/>
            <stop offset="1" stop-color="#FFBF12"/>
        </linearGradient>
    </defs>
</svg>
