<svg width="167" height="64" viewBox="0 0 167 64" fill="none" xmlns="http://www.w3.org/2000/svg">
<path d="M1.93358 14.3273C0.994038 14.1864 0.186428 14.994 0.327326 15.9336C0.618457 17.8749 0.446707 20.0347 0.249572 22.3584L0.236722 22.5097C0.049081 24.7182 -0.152397 27.0897 0.170442 29.2463C0.509984 31.5145 1.44242 33.6504 3.59955 35.229C5.70248 36.7681 8.81268 37.6599 13.259 37.8485C13.9631 37.8784 14.558 37.3318 14.5879 36.6277C14.6178 35.9236 14.0712 35.3287 13.3671 35.2988C9.15381 35.1201 6.62735 34.2825 5.1067 33.1697C3.64025 32.0964 2.96215 30.6578 2.69429 28.8685C2.41711 27.0169 2.59448 24.907 2.79241 22.5741L2.79346 22.5617C2.94521 20.7731 3.10793 18.8551 2.99835 16.9984C4.85509 17.1079 6.77297 16.9452 8.56157 16.7935L8.57406 16.7924C10.907 16.5945 13.0169 16.4171 14.8684 16.6943C16.6578 16.9622 18.0964 17.6403 19.1696 19.1067C20.2825 20.6274 21.12 23.1538 21.2987 27.3672C21.3286 28.0712 21.9236 28.6178 22.6277 28.5879C23.3317 28.5581 23.8783 27.9631 23.8484 27.259C23.6598 22.8127 22.768 19.7025 21.229 17.5996C19.6503 15.4424 17.5144 14.51 15.2462 14.1704C13.0896 13.8476 10.7182 14.0491 8.50968 14.2367L8.35833 14.2496C6.03473 14.4467 3.87492 14.6185 1.93358 14.3273Z" fill="url(#paint0_linear_7032_48138)"/>
<path fill-rule="evenodd" clip-rule="evenodd" d="M8.68335 42.1531C7.3458 43.4907 7.3458 45.6593 8.68335 46.9968C10.0209 48.3344 12.1895 48.3344 13.5271 46.9968C13.9759 46.548 14.274 46.0049 14.4216 45.4318C18.9277 44.9003 22.5051 40.7235 21.7888 35.7888C26.7235 36.505 30.9003 32.9277 31.4318 28.4216C32.0049 28.274 32.548 27.9759 32.9968 27.527C34.3344 26.1894 34.3344 24.0208 32.9968 22.6833C31.6593 21.3457 29.4907 21.3457 28.1531 22.6833C26.8156 24.0208 26.8156 26.1894 28.1531 27.527C28.4866 27.8604 28.8724 28.1109 29.2841 28.2782C28.7831 31.9784 24.9773 34.81 20.7267 33.3226C19.8556 33.0178 19.0178 33.8556 19.3226 34.7267C20.81 38.9773 17.9784 42.7831 14.2783 43.2841C14.111 42.8724 13.8605 42.4865 13.5271 42.1531C12.1895 40.8156 10.0209 40.8156 8.68335 42.1531ZM10.2029 45.4772C9.70464 44.9789 9.70464 44.171 10.2029 43.6727C10.7012 43.1744 11.5092 43.1744 12.0075 43.6727C12.235 43.9002 12.3579 44.1896 12.3782 44.4873C12.4025 44.8447 12.2787 45.206 12.0075 45.4772C11.5092 45.9755 10.7012 45.9755 10.2029 45.4772ZM29.6727 26.0074C29.1744 25.5091 29.1744 24.7012 29.6727 24.2029C30.171 23.7046 30.9789 23.7046 31.4772 24.2029C31.9755 24.7012 31.9755 25.5091 31.4772 26.0074C31.206 26.2786 30.8447 26.4025 30.4873 26.3781C30.1896 26.3579 29.9002 26.2349 29.6727 26.0074Z" fill="url(#paint1_linear_7032_48138)"/>
<path d="M12.7172 29.1893C13.3942 29.8663 13.3942 30.9639 12.7172 31.6408C12.0402 32.3178 10.9427 32.3178 10.2657 31.6408C9.58873 30.9639 9.58873 29.8663 10.2657 29.1893C10.9427 28.5123 12.0402 28.5123 12.7172 29.1893Z" fill="url(#paint2_linear_7032_48138)"/>
<path d="M17.641 26.7171C18.3179 26.0401 18.3179 24.9425 17.641 24.2656C16.964 23.5886 15.8664 23.5886 15.1894 24.2655C14.5125 24.9425 14.5125 26.0401 15.1894 26.7171C15.8664 27.394 16.964 27.394 17.641 26.7171Z" fill="url(#paint3_linear_7032_48138)"/>
<path d="M50 25V37" stroke="#363A4D"/>
<path d="M74.896 24.224H77.264V28.768C76.656 29.2267 75.952 29.5787 75.152 29.824C74.352 30.0693 73.5467 30.192 72.736 30.192C71.5733 30.192 70.528 29.9467 69.6 29.456C68.672 28.9547 67.9413 28.2667 67.408 27.392C66.8853 26.5067 66.624 25.5093 66.624 24.4C66.624 23.2907 66.8853 22.2987 67.408 21.424C67.9413 20.5387 68.6773 19.8507 69.616 19.36C70.5547 18.8587 71.6107 18.608 72.784 18.608C73.7653 18.608 74.656 18.7733 75.456 19.104C76.256 19.4347 76.928 19.9147 77.472 20.544L75.808 22.08C75.008 21.2373 74.0427 20.816 72.912 20.816C72.1973 20.816 71.5627 20.9653 71.008 21.264C70.4533 21.5627 70.0213 21.984 69.712 22.528C69.4027 23.072 69.248 23.696 69.248 24.4C69.248 25.0933 69.4027 25.712 69.712 26.256C70.0213 26.8 70.448 27.2267 70.992 27.536C71.5467 27.8347 72.176 27.984 72.88 27.984C73.6267 27.984 74.2987 27.824 74.896 27.504V24.224ZM83.5918 30.128C82.6851 30.128 81.8691 29.9413 81.1438 29.568C80.4291 29.184 79.8691 28.656 79.4638 27.984C79.0584 27.312 78.8558 26.5493 78.8558 25.696C78.8558 24.8427 79.0584 24.08 79.4638 23.408C79.8691 22.736 80.4291 22.2133 81.1438 21.84C81.8691 21.456 82.6851 21.264 83.5918 21.264C84.4984 21.264 85.3091 21.456 86.0238 21.84C86.7384 22.2133 87.2984 22.736 87.7038 23.408C88.1091 24.08 88.3118 24.8427 88.3118 25.696C88.3118 26.5493 88.1091 27.312 87.7038 27.984C87.2984 28.656 86.7384 29.184 86.0238 29.568C85.3091 29.9413 84.4984 30.128 83.5918 30.128ZM83.5918 28.08C84.2318 28.08 84.7544 27.8667 85.1598 27.44C85.5758 27.0027 85.7838 26.4213 85.7838 25.696C85.7838 24.9707 85.5758 24.3947 85.1598 23.968C84.7544 23.5307 84.2318 23.312 83.5918 23.312C82.9518 23.312 82.4238 23.5307 82.0078 23.968C81.5918 24.3947 81.3838 24.9707 81.3838 25.696C81.3838 26.4213 81.5918 27.0027 82.0078 27.44C82.4238 27.8667 82.9518 28.08 83.5918 28.08ZM98.2898 21.392L94.6578 30H92.0818L88.4657 21.392H91.0418L93.4258 27.248L95.8898 21.392H98.2898ZM107.506 25.728C107.506 25.76 107.49 25.984 107.458 26.4H100.946C101.063 26.9333 101.341 27.3547 101.778 27.664C102.215 27.9733 102.759 28.128 103.41 28.128C103.858 28.128 104.253 28.064 104.594 27.936C104.946 27.7973 105.271 27.584 105.57 27.296L106.898 28.736C106.087 29.664 104.903 30.128 103.346 30.128C102.375 30.128 101.517 29.9413 100.77 29.568C100.023 29.184 99.4472 28.656 99.0419 27.984C98.6365 27.312 98.4339 26.5493 98.4339 25.696C98.4339 24.8533 98.6312 24.096 99.0259 23.424C99.4312 22.7413 99.9805 22.2133 100.674 21.84C101.378 21.456 102.162 21.264 103.026 21.264C103.869 21.264 104.631 21.4453 105.314 21.808C105.997 22.1707 106.53 22.6933 106.914 23.376C107.309 24.048 107.506 24.832 107.506 25.728ZM103.042 23.152C102.477 23.152 102.002 23.312 101.618 23.632C101.234 23.952 100.999 24.3893 100.914 24.944H105.154C105.069 24.4 104.834 23.968 104.45 23.648C104.066 23.3173 103.597 23.152 103.042 23.152ZM111.552 22.528C111.85 22.112 112.25 21.7973 112.752 21.584C113.264 21.3707 113.85 21.264 114.512 21.264V23.568C114.234 23.5467 114.048 23.536 113.952 23.536C113.237 23.536 112.677 23.7387 112.272 24.144C111.866 24.5387 111.664 25.136 111.664 25.936V30H109.168V21.392H111.552V22.528ZM121.228 21.264C122.294 21.264 123.153 21.584 123.804 22.224C124.465 22.864 124.796 23.8133 124.796 25.072V30H122.3V25.456C122.3 24.7733 122.15 24.2667 121.852 23.936C121.553 23.5947 121.121 23.424 120.556 23.424C119.926 23.424 119.425 23.6213 119.052 24.016C118.678 24.4 118.492 24.976 118.492 25.744V30H115.996V21.392H118.38V22.4C118.71 22.0373 119.121 21.76 119.612 21.568C120.102 21.3653 120.641 21.264 121.228 21.264ZM130.53 21.264C131.864 21.264 132.888 21.584 133.602 22.224C134.317 22.8533 134.674 23.808 134.674 25.088V30H132.338V28.928C131.869 29.728 130.994 30.128 129.714 30.128C129.053 30.128 128.477 30.016 127.986 29.792C127.506 29.568 127.138 29.2587 126.882 28.864C126.626 28.4693 126.498 28.0213 126.498 27.52C126.498 26.72 126.797 26.0907 127.394 25.632C128.002 25.1733 128.936 24.944 130.194 24.944H132.178C132.178 24.4 132.013 23.984 131.682 23.696C131.352 23.3973 130.856 23.248 130.194 23.248C129.736 23.248 129.282 23.3227 128.834 23.472C128.397 23.6107 128.024 23.8027 127.714 24.048L126.818 22.304C127.288 21.9733 127.848 21.7173 128.498 21.536C129.16 21.3547 129.837 21.264 130.53 21.264ZM130.338 28.448C130.765 28.448 131.144 28.352 131.474 28.16C131.805 27.9573 132.04 27.664 132.178 27.28V26.4H130.466C129.442 26.4 128.93 26.736 128.93 27.408C128.93 27.728 129.053 27.984 129.298 28.176C129.554 28.3573 129.901 28.448 130.338 28.448ZM142.165 21.264C143.232 21.264 144.091 21.584 144.741 22.224C145.403 22.864 145.733 23.8133 145.733 25.072V30H143.237V25.456C143.237 24.7733 143.088 24.2667 142.789 23.936C142.491 23.5947 142.059 23.424 141.493 23.424C140.864 23.424 140.363 23.6213 139.989 24.016C139.616 24.4 139.429 24.976 139.429 25.744V30H136.933V21.392H139.317V22.4C139.648 22.0373 140.059 21.76 140.549 21.568C141.04 21.3653 141.579 21.264 142.165 21.264ZM152.25 30.128C151.332 30.128 150.506 29.9413 149.77 29.568C149.044 29.184 148.474 28.656 148.058 27.984C147.652 27.312 147.45 26.5493 147.45 25.696C147.45 24.8427 147.652 24.08 148.058 23.408C148.474 22.736 149.044 22.2133 149.77 21.84C150.506 21.456 151.332 21.264 152.25 21.264C153.156 21.264 153.946 21.456 154.618 21.84C155.3 22.2133 155.796 22.752 156.106 23.456L154.17 24.496C153.722 23.7067 153.076 23.312 152.234 23.312C151.583 23.312 151.044 23.5253 150.618 23.952C150.191 24.3787 149.978 24.96 149.978 25.696C149.978 26.432 150.191 27.0133 150.618 27.44C151.044 27.8667 151.583 28.08 152.234 28.08C153.087 28.08 153.732 27.6853 154.17 26.896L156.106 27.952C155.796 28.6347 155.3 29.168 154.618 29.552C153.946 29.936 153.156 30.128 152.25 30.128ZM165.865 25.728C165.865 25.76 165.849 25.984 165.817 26.4H159.305C159.423 26.9333 159.7 27.3547 160.137 27.664C160.575 27.9733 161.119 28.128 161.769 28.128C162.217 28.128 162.612 28.064 162.953 27.936C163.305 27.7973 163.631 27.584 163.929 27.296L165.257 28.736C164.447 29.664 163.263 30.128 161.705 30.128C160.735 30.128 159.876 29.9413 159.129 29.568C158.383 29.184 157.807 28.656 157.401 27.984C156.996 27.312 156.793 26.5493 156.793 25.696C156.793 24.8533 156.991 24.096 157.385 23.424C157.791 22.7413 158.34 22.2133 159.033 21.84C159.737 21.456 160.521 21.264 161.385 21.264C162.228 21.264 162.991 21.4453 163.673 21.808C164.356 22.1707 164.889 22.6933 165.273 23.376C165.668 24.048 165.865 24.832 165.865 25.728ZM161.401 23.152C160.836 23.152 160.361 23.312 159.977 23.632C159.593 23.952 159.359 24.3893 159.273 24.944H163.513C163.428 24.4 163.193 23.968 162.809 23.648C162.425 23.3173 161.956 23.152 161.401 23.152Z" fill="white"/>
<path d="M70.858 39.5455C70.8153 39.1856 70.6425 38.9062 70.3395 38.7074C70.0365 38.5085 69.6648 38.4091 69.2244 38.4091C68.9025 38.4091 68.6207 38.4612 68.3793 38.5653C68.1402 38.6695 67.9531 38.8127 67.8182 38.995C67.6856 39.1773 67.6193 39.3845 67.6193 39.6165C67.6193 39.8106 67.6655 39.9775 67.7578 40.1172C67.8525 40.2545 67.9732 40.3693 68.12 40.4616C68.2668 40.5516 68.4207 40.6262 68.5817 40.6854C68.7427 40.7422 68.8906 40.7884 69.0256 40.8239L69.7642 41.0227C69.9536 41.0724 70.1643 41.1411 70.3963 41.2287C70.6307 41.3163 70.8544 41.4358 71.0675 41.5874C71.2829 41.7365 71.4605 41.9283 71.6001 42.1626C71.7398 42.397 71.8097 42.6847 71.8097 43.0256C71.8097 43.4186 71.7067 43.7737 71.5007 44.0909C71.2971 44.4081 70.9988 44.6603 70.6058 44.8473C70.2152 45.0343 69.7405 45.1278 69.1818 45.1278C68.661 45.1278 68.21 45.0438 67.8288 44.8757C67.45 44.7076 67.1518 44.4732 66.9339 44.1726C66.7185 43.8719 66.5966 43.5227 66.5682 43.125H67.4773C67.5009 43.3996 67.5933 43.6269 67.7543 43.8068C67.9176 43.9844 68.1236 44.117 68.3722 44.2045C68.6231 44.2898 68.893 44.3324 69.1818 44.3324C69.518 44.3324 69.8198 44.2779 70.0874 44.169C70.3549 44.0578 70.5668 43.9039 70.723 43.7074C70.8793 43.5085 70.9574 43.2765 70.9574 43.0114C70.9574 42.7699 70.8899 42.5734 70.755 42.4219C70.62 42.2704 70.4425 42.1473 70.2223 42.0526C70.0021 41.9579 69.7642 41.875 69.5085 41.804L68.6136 41.5483C68.0455 41.3849 67.5956 41.1518 67.2642 40.8487C66.9328 40.5457 66.767 40.1491 66.767 39.6591C66.767 39.2519 66.8771 38.8968 67.0973 38.5938C67.3198 38.2884 67.6181 38.0516 67.9922 37.8835C68.3686 37.7131 68.7888 37.6278 69.2528 37.6278C69.7216 37.6278 70.1383 37.7119 70.5028 37.88C70.8674 38.0457 71.1563 38.273 71.3693 38.5618C71.5848 38.8506 71.6984 39.1785 71.7102 39.5455H70.858ZM76.5815 42.7699V39.5455H77.4196V45H76.5815V44.0767H76.5247C76.3968 44.3537 76.198 44.5893 75.9281 44.7834C75.6582 44.9751 75.3173 45.071 74.9054 45.071C74.5645 45.071 74.2614 44.9964 73.9963 44.8473C73.7311 44.6958 73.5228 44.4685 73.3713 44.1655C73.2198 43.8601 73.144 43.4754 73.144 43.0114V39.5455H73.9821V42.9545C73.9821 43.3523 74.0933 43.6695 74.3159 43.9062C74.5408 44.143 74.8272 44.2614 75.1752 44.2614C75.3836 44.2614 75.5955 44.2081 75.8109 44.1016C76.0287 43.995 76.211 43.8317 76.3578 43.6115C76.5069 43.3913 76.5815 43.1108 76.5815 42.7699ZM79.0682 45V37.7273H79.9062V40.4119H79.9773C80.0388 40.3172 80.1241 40.1965 80.233 40.0497C80.3442 39.9006 80.5028 39.768 80.7088 39.652C80.9171 39.5336 81.1989 39.4744 81.554 39.4744C82.0133 39.4744 82.4181 39.5893 82.7685 39.8189C83.1188 40.0485 83.3923 40.3741 83.5888 40.7955C83.7853 41.2169 83.8835 41.714 83.8835 42.2869C83.8835 42.8646 83.7853 43.3653 83.5888 43.7891C83.3923 44.2105 83.12 44.5372 82.772 44.7692C82.424 44.9988 82.0227 45.1136 81.5682 45.1136C81.2178 45.1136 80.9373 45.0556 80.7266 44.9396C80.5159 44.8213 80.3537 44.6875 80.2401 44.5384C80.1264 44.3868 80.0388 44.2614 79.9773 44.1619H79.8778V45H79.0682ZM79.892 42.2727C79.892 42.6847 79.9524 43.0481 80.0732 43.3629C80.1939 43.6754 80.3703 43.9205 80.6023 44.098C80.8343 44.2732 81.1184 44.3608 81.4545 44.3608C81.8049 44.3608 82.0973 44.2685 82.3317 44.0838C82.5684 43.8968 82.746 43.6458 82.8643 43.331C82.9851 43.0137 83.0455 42.661 83.0455 42.2727C83.0455 41.8892 82.9863 41.5436 82.8679 41.2358C82.7519 40.9257 82.5755 40.6806 82.3388 40.5007C82.1044 40.3184 81.8097 40.2273 81.4545 40.2273C81.1136 40.2273 80.8272 40.3137 80.5952 40.4865C80.3632 40.657 80.188 40.8961 80.0696 41.2038C79.9512 41.5092 79.892 41.8655 79.892 42.2727ZM89.2564 39.5455C89.2138 39.1856 89.041 38.9062 88.7379 38.7074C88.4349 38.5085 88.0632 38.4091 87.6229 38.4091C87.3009 38.4091 87.0192 38.4612 86.7777 38.5653C86.5386 38.6695 86.3516 38.8127 86.2166 38.995C86.084 39.1773 86.0178 39.3845 86.0178 39.6165C86.0178 39.8106 86.0639 39.9775 86.1562 40.1172C86.2509 40.2545 86.3717 40.3693 86.5185 40.4616C86.6652 40.5516 86.8191 40.6262 86.9801 40.6854C87.1411 40.7422 87.2891 40.7884 87.424 40.8239L88.1626 41.0227C88.352 41.0724 88.5627 41.1411 88.7947 41.2287C89.0291 41.3163 89.2528 41.4358 89.4659 41.5874C89.6813 41.7365 89.8589 41.9283 89.9986 42.1626C90.1383 42.397 90.2081 42.6847 90.2081 43.0256C90.2081 43.4186 90.1051 43.7737 89.8991 44.0909C89.6955 44.4081 89.3973 44.6603 89.0043 44.8473C88.6136 45.0343 88.139 45.1278 87.5803 45.1278C87.0594 45.1278 86.6084 45.0438 86.2273 44.8757C85.8485 44.7076 85.5502 44.4732 85.3324 44.1726C85.117 43.8719 84.995 43.5227 84.9666 43.125H85.8757C85.8994 43.3996 85.9917 43.6269 86.1527 43.8068C86.3161 43.9844 86.522 44.117 86.7706 44.2045C87.0215 44.2898 87.2914 44.3324 87.5803 44.3324C87.9164 44.3324 88.2183 44.2779 88.4858 44.169C88.7533 44.0578 88.9652 43.9039 89.1214 43.7074C89.2777 43.5085 89.3558 43.2765 89.3558 43.0114C89.3558 42.7699 89.2884 42.5734 89.1534 42.4219C89.0185 42.2704 88.8409 42.1473 88.6207 42.0526C88.4006 41.9579 88.1626 41.875 87.907 41.804L87.0121 41.5483C86.4439 41.3849 85.9941 41.1518 85.6626 40.8487C85.3312 40.5457 85.1655 40.1491 85.1655 39.6591C85.1655 39.2519 85.2756 38.8968 85.4957 38.5938C85.7183 38.2884 86.0166 38.0516 86.3906 37.8835C86.767 37.7131 87.1873 37.6278 87.6513 37.6278C88.12 37.6278 88.5367 37.7119 88.9013 37.88C89.2659 38.0457 89.5547 38.273 89.7678 38.5618C89.9832 38.8506 90.0968 39.1785 90.1087 39.5455H89.2564ZM95.264 47.0455V44.1619H95.193C95.1315 44.2614 95.0439 44.3868 94.9302 44.5384C94.8166 44.6875 94.6544 44.8213 94.4437 44.9396C94.233 45.0556 93.9525 45.1136 93.6021 45.1136C93.1475 45.1136 92.7463 44.9988 92.3983 44.7692C92.0502 44.5372 91.778 44.2105 91.5815 43.7891C91.385 43.3653 91.2868 42.8646 91.2868 42.2869C91.2868 41.714 91.385 41.2169 91.5815 40.7955C91.778 40.3741 92.0514 40.0485 92.4018 39.8189C92.7522 39.5893 93.157 39.4744 93.6163 39.4744C93.9714 39.4744 94.252 39.5336 94.4579 39.652C94.6663 39.768 94.8249 39.9006 94.9338 40.0497C95.045 40.1965 95.1315 40.3172 95.193 40.4119H95.2924V39.5455H96.1021V47.0455H95.264ZM93.7157 44.3608C94.0519 44.3608 94.336 44.2732 94.568 44.098C94.8 43.9205 94.9764 43.6754 95.0971 43.3629C95.2179 43.0481 95.2782 42.6847 95.2782 42.2727C95.2782 41.8655 95.219 41.5092 95.1007 41.2038C94.9823 40.8961 94.8071 40.657 94.5751 40.4865C94.3431 40.3137 94.0566 40.2273 93.7157 40.2273C93.3606 40.2273 93.0647 40.3184 92.8279 40.5007C92.5936 40.6806 92.4172 40.9257 92.2988 41.2358C92.1828 41.5436 92.1248 41.8892 92.1248 42.2727C92.1248 42.661 92.184 43.0137 92.3024 43.331C92.4231 43.6458 92.6007 43.8968 92.835 44.0838C93.0718 44.2685 93.3654 44.3608 93.7157 44.3608ZM101.074 42.7699V39.5455H101.912V45H101.074V44.0767H101.017C100.889 44.3537 100.69 44.5893 100.42 44.7834C100.15 44.9751 99.8095 45.071 99.3975 45.071C99.0566 45.071 98.7536 44.9964 98.4885 44.8473C98.2233 44.6958 98.015 44.4685 97.8635 44.1655C97.7119 43.8601 97.6362 43.4754 97.6362 43.0114V39.5455H98.4743V42.9545C98.4743 43.3523 98.5855 43.6695 98.8081 43.9062C99.033 44.143 99.3194 44.2614 99.6674 44.2614C99.8758 44.2614 100.088 44.2081 100.303 44.1016C100.521 43.995 100.703 43.8317 100.85 43.6115C100.999 43.3913 101.074 43.1108 101.074 42.7699ZM105.052 45.1278C104.706 45.1278 104.393 45.0627 104.111 44.9325C103.829 44.8 103.605 44.6094 103.44 44.3608C103.274 44.1098 103.191 43.8068 103.191 43.4517C103.191 43.1392 103.253 42.8859 103.376 42.6918C103.499 42.4953 103.663 42.3414 103.869 42.2301C104.075 42.1188 104.303 42.036 104.551 41.9815C104.802 41.9247 105.054 41.8797 105.308 41.8466C105.639 41.804 105.908 41.772 106.114 41.7507C106.322 41.727 106.473 41.688 106.568 41.6335C106.665 41.5791 106.714 41.4844 106.714 41.3494V41.321C106.714 40.9706 106.618 40.6984 106.426 40.5043C106.237 40.3101 105.949 40.2131 105.563 40.2131C105.163 40.2131 104.849 40.3007 104.622 40.4759C104.395 40.651 104.235 40.8381 104.143 41.0369L103.347 40.7528C103.489 40.4214 103.679 40.1634 103.915 39.9787C104.155 39.7917 104.415 39.6615 104.697 39.5881C104.981 39.5123 105.26 39.4744 105.535 39.4744C105.71 39.4744 105.911 39.4957 106.138 39.5384C106.368 39.5786 106.589 39.6626 106.803 39.7905C107.018 39.9183 107.197 40.1113 107.339 40.3693C107.481 40.6274 107.552 40.973 107.552 41.4062V45H106.714V44.2614H106.671C106.614 44.3797 106.52 44.5064 106.387 44.6413C106.254 44.7763 106.078 44.8911 105.858 44.9858C105.638 45.0805 105.369 45.1278 105.052 45.1278ZM105.18 44.375C105.511 44.375 105.79 44.3099 106.018 44.1797C106.247 44.0495 106.42 43.8814 106.536 43.6754C106.655 43.4695 106.714 43.2528 106.714 43.0256V42.2585C106.678 42.3011 106.6 42.3402 106.479 42.3757C106.361 42.4089 106.224 42.4384 106.067 42.4645C105.914 42.4882 105.763 42.5095 105.616 42.5284C105.472 42.545 105.355 42.5592 105.265 42.571C105.047 42.5994 104.844 42.6456 104.654 42.7095C104.467 42.7711 104.316 42.8646 104.2 42.9901C104.086 43.1132 104.029 43.2812 104.029 43.4943C104.029 43.7855 104.137 44.0057 104.352 44.1548C104.57 44.3016 104.846 44.375 105.18 44.375ZM109.081 45V39.5455H109.891V40.3693H109.948C110.047 40.0994 110.227 39.8804 110.488 39.7124C110.748 39.5443 111.042 39.4602 111.368 39.4602C111.43 39.4602 111.507 39.4614 111.599 39.4638C111.692 39.4661 111.761 39.4697 111.809 39.4744V40.3267C111.78 40.3196 111.715 40.3089 111.613 40.2947C111.514 40.2782 111.409 40.2699 111.297 40.2699C111.032 40.2699 110.796 40.3255 110.587 40.4368C110.381 40.5457 110.218 40.6972 110.097 40.8913C109.979 41.0831 109.92 41.3021 109.92 41.5483V45H109.081ZM114.923 45.1136C114.398 45.1136 113.944 44.9976 113.563 44.7656C113.184 44.5312 112.892 44.2045 112.686 43.7855C112.482 43.3641 112.381 42.8741 112.381 42.3153C112.381 41.7566 112.482 41.2642 112.686 40.8381C112.892 40.4096 113.178 40.0758 113.545 39.8366C113.915 39.5952 114.345 39.4744 114.838 39.4744C115.122 39.4744 115.403 39.5218 115.68 39.6165C115.956 39.7112 116.209 39.8651 116.436 40.0781C116.663 40.2888 116.844 40.5682 116.979 40.9162C117.114 41.2642 117.182 41.6927 117.182 42.2017V42.5568H112.977V41.8324H116.329C116.329 41.5246 116.268 41.25 116.145 41.0085C116.024 40.767 115.851 40.5765 115.626 40.4368C115.404 40.2971 115.141 40.2273 114.838 40.2273C114.504 40.2273 114.215 40.3101 113.971 40.4759C113.73 40.6392 113.544 40.8523 113.414 41.1151C113.284 41.3778 113.219 41.6596 113.219 41.9602V42.4432C113.219 42.8551 113.29 43.2043 113.432 43.4908C113.576 43.7749 113.776 43.9915 114.032 44.1406C114.287 44.2874 114.585 44.3608 114.923 44.3608C115.143 44.3608 115.342 44.33 115.52 44.2685C115.7 44.2045 115.855 44.1098 115.985 43.9844C116.115 43.8565 116.216 43.6979 116.287 43.5085L117.096 43.7358C117.011 44.0104 116.868 44.2519 116.667 44.4602C116.465 44.6662 116.217 44.8272 115.921 44.9432C115.625 45.0568 115.292 45.1136 114.923 45.1136Z" fill="white" fill-opacity="0.25"/>
<defs>
<linearGradient id="paint0_linear_7032_48138" x1="12.4642" y1="12.4531" x2="12.4642" y2="50.3597" gradientUnits="userSpaceOnUse">
<stop stop-color="#FCC812"/>
<stop offset="0.484375" stop-color="#D32491"/>
<stop offset="1" stop-color="#7C00DD"/>
</linearGradient>
<linearGradient id="paint1_linear_7032_48138" x1="12.4642" y1="12.4531" x2="12.4642" y2="50.3597" gradientUnits="userSpaceOnUse">
<stop stop-color="#FCC812"/>
<stop offset="0.484375" stop-color="#D32491"/>
<stop offset="1" stop-color="#7C00DD"/>
</linearGradient>
<linearGradient id="paint2_linear_7032_48138" x1="12.4642" y1="12.4531" x2="12.4642" y2="50.3597" gradientUnits="userSpaceOnUse">
<stop stop-color="#FCC812"/>
<stop offset="0.484375" stop-color="#D32491"/>
<stop offset="1" stop-color="#7C00DD"/>
</linearGradient>
<linearGradient id="paint3_linear_7032_48138" x1="12.4642" y1="12.4531" x2="12.4642" y2="50.3597" gradientUnits="userSpaceOnUse">
<stop stop-color="#FCC812"/>
<stop offset="0.484375" stop-color="#D32491"/>
<stop offset="1" stop-color="#7C00DD"/>
</linearGradient>
</defs>
</svg>
