<svg width="241" height="64" viewBox="0 0 241 64" fill="none" xmlns="http://www.w3.org/2000/svg">
<path fill-rule="evenodd" clip-rule="evenodd" d="M3.85764 40.5057C2.87864 38.4139 2.3318 36.08 2.3318 33.6189C2.3318 24.6213 9.63974 17.3274 18.6546 17.3274C23.6742 17.3274 28.1644 19.589 31.1585 23.1468L32.945 21.6508C29.5229 17.5847 24.3913 15 18.6546 15C8.35193 15 0 23.3359 0 33.6189C0 36.4317 0.624926 39.0988 1.74379 41.4893L3.85764 40.5057Z" fill="white"/>
<path fill-rule="evenodd" clip-rule="evenodd" d="M18.6521 44.6727C12.5349 44.6727 7.57598 39.7231 7.57598 33.6177C7.57598 27.5122 12.5349 22.5627 18.6521 22.5627C22.0583 22.5627 25.1047 24.0978 27.1365 26.512L28.9234 25.0156C26.4638 22.0931 22.7753 20.2354 18.6521 20.2354C11.2471 20.2354 5.24414 26.2268 5.24414 33.6177C5.24414 41.0086 11.2471 46.9999 18.6521 46.9999V44.6727Z" fill="white"/>
<path fill-rule="evenodd" clip-rule="evenodd" d="M22.6731 36.9854C21.7107 38.1289 20.2675 38.8561 18.6541 38.8561C15.7565 38.8561 13.4075 36.5116 13.4075 33.6195C13.4075 30.7274 15.7565 28.3829 18.6541 28.3829C20.2675 28.3829 21.7107 29.1101 22.6731 30.2537L24.6825 28.5707C23.2388 26.8554 21.0744 25.7646 18.6541 25.7646C14.3077 25.7646 10.7842 29.2814 10.7842 33.6195C10.7842 37.9575 14.3077 41.4744 18.6541 41.4744C20.8721 41.4744 22.8749 40.5579 24.3054 39.0844L22.6731 36.9854Z" fill="white"/>
<path fill-rule="evenodd" clip-rule="evenodd" d="M36.8594 31.0693H39.2569V32.6855H39.2991C39.5232 32.1818 39.9122 31.7377 40.4662 31.3526C41.0198 30.968 41.6754 30.7754 42.4324 30.7754C43.0914 30.7754 43.6556 30.8909 44.1255 31.1218C44.5952 31.3526 44.9805 31.657 45.2822 32.0348C45.5834 32.4127 45.8044 32.8466 45.9446 33.3362C46.0846 33.8262 46.155 34.33 46.155 34.8476V41.1448H43.6313V35.5612C43.6313 35.2673 43.6102 34.9597 43.5682 34.6376C43.5261 34.3161 43.4348 34.0257 43.2948 33.7666C43.1544 33.5078 42.9615 33.2943 42.7163 33.1264C42.4709 32.9585 42.1449 32.8745 41.7385 32.8745C41.3316 32.8745 40.9815 32.9552 40.687 33.1159C40.3925 33.2769 40.1506 33.4832 39.9615 33.7352C39.7722 33.987 39.6283 34.2776 39.5303 34.6061C39.4321 34.9352 39.3832 35.2673 39.3832 35.6033V41.1448H36.8594V31.0693Z" fill="white"/>
<path fill-rule="evenodd" clip-rule="evenodd" d="M47.2266 33.0862V31.0711H48.9931V28.1533H51.4749V31.0711H53.9984V33.0862H51.4749V37.7669C51.4749 38.215 51.5553 38.5856 51.7168 38.8795C51.8776 39.1734 52.2388 39.3203 52.7998 39.3203C52.968 39.3203 53.1501 39.3029 53.3466 39.2678C53.5426 39.2331 53.7178 39.1806 53.8723 39.1103L53.9564 41.0834C53.7319 41.1674 53.4655 41.2338 53.1573 41.283C52.8487 41.3318 52.5544 41.3563 52.274 41.3563C51.6009 41.3563 51.0541 41.262 50.6336 41.073C50.213 40.8841 49.8798 40.6253 49.6347 40.2962C49.3893 39.9678 49.2209 39.5899 49.13 39.1628C49.0385 38.7363 48.9931 38.278 48.9931 37.788V33.0862H47.2266Z" fill="white"/>
<path fill-rule="evenodd" clip-rule="evenodd" d="M55.5127 31.0693H57.9312V32.7485H57.9734C58.2536 32.1608 58.6463 31.6853 59.1511 31.3211C59.6558 30.9575 60.2446 30.7754 60.9177 30.7754C61.0155 30.7754 61.1207 30.779 61.233 30.7859C61.3452 30.7931 61.4434 30.8105 61.5275 30.8384V33.1474C61.3591 33.1054 61.2152 33.0775 61.0963 33.0634C60.977 33.0496 60.8614 33.0424 60.7493 33.0424C60.1744 33.0424 59.7115 33.1474 59.3613 33.3572C59.0108 33.5672 58.7373 33.819 58.5411 34.1129C58.3446 34.4068 58.2116 34.7078 58.1416 35.0157C58.0712 35.3235 58.0364 35.5684 58.0364 35.7502V41.1448H55.5127V31.0693Z" fill="white"/>
<path fill-rule="evenodd" clip-rule="evenodd" d="M62.6847 41.1469H65.2084V31.0714H62.6847V41.1469ZM62.3271 27.6499C62.3271 27.2443 62.4776 26.891 62.7792 26.5899C63.0807 26.2891 63.4627 26.1387 63.9255 26.1387C64.3882 26.1387 64.7772 26.2823 65.0928 26.5689C65.4081 26.8559 65.5659 27.2164 65.5659 27.6499C65.5659 28.0838 65.4081 28.4443 65.0928 28.7309C64.7772 29.018 64.3882 29.1613 63.9255 29.1613C63.4627 29.1613 63.0807 29.0111 62.7792 28.7099C62.4776 28.4092 62.3271 28.0559 62.3271 27.6499Z" fill="white"/>
<path fill-rule="evenodd" clip-rule="evenodd" d="M68.4674 33.0862H66.5537V31.0711H68.4674V30.3177C68.4674 29.7162 68.5337 29.1389 68.6673 28.586C68.8004 28.0333 69.0247 27.5469 69.3402 27.1271C69.6556 26.7073 70.0727 26.375 70.5916 26.1301C71.11 25.8854 71.762 25.7627 72.5475 25.7627C72.8276 25.7627 73.0626 25.7732 73.2521 25.7942C73.4412 25.8152 73.6338 25.8539 73.8304 25.9096L73.662 28.0507C73.5216 28.0087 73.371 27.974 73.2099 27.9457C73.0485 27.9179 72.8766 27.9038 72.6946 27.9038C72.3299 27.9038 72.0355 27.974 71.8114 28.1137C71.5869 28.2537 71.4152 28.4358 71.296 28.6594C71.1767 28.8834 71.0963 29.1285 71.0542 29.3941C71.0122 29.6601 70.9911 29.9189 70.9911 30.1707V31.0711H73.3255V33.0862H70.9911V41.1466H68.4674V33.0862Z" fill="white"/>
<path fill-rule="evenodd" clip-rule="evenodd" d="M83.8854 41.1468H81.4879V39.5305H81.4458C81.2215 40.0342 80.8323 40.4787 80.2787 40.8633C79.7247 41.2481 79.0694 41.4407 78.3122 41.4407C77.653 41.4407 77.0888 41.3251 76.6193 41.0943C76.1495 40.8633 75.7639 40.5589 75.4625 40.1813C75.1608 39.8032 74.94 39.3697 74.8 38.8797C74.6598 38.3899 74.5898 37.8862 74.5898 37.3684V31.0713H77.1136V36.6548C77.1136 36.9487 77.1346 37.2565 77.1766 37.5784C77.2188 37.9005 77.3096 38.1908 77.45 38.4494C77.59 38.7086 77.7828 38.9216 78.0284 39.0895C78.2735 39.2576 78.5995 39.3416 79.0064 39.3416C79.3985 39.3416 79.7456 39.2613 80.0472 39.1001C80.3487 38.9394 80.594 38.7329 80.7833 38.4808C80.9726 38.229 81.1163 37.9387 81.2145 37.6099C81.3126 37.2812 81.3617 36.9487 81.3617 36.6127V31.0713H83.8854V41.1468Z" fill="white"/>
<path fill-rule="evenodd" clip-rule="evenodd" d="M28.4384 33.3467C28.9641 32.8922 29.6055 32.6645 30.3627 32.6645C30.7693 32.6645 31.123 32.7311 31.4248 32.864C31.726 32.9972 31.9749 33.1755 32.1714 33.3992C32.3674 33.6233 32.5111 33.882 32.6025 34.1759C32.6934 34.4697 32.7392 34.7777 32.7392 35.0994H27.5657C27.6214 34.3857 27.9126 33.8016 28.4384 33.3467ZM33.1177 38.0801C32.8371 38.4862 32.4796 38.8044 32.0453 39.035C31.6104 39.2661 31.0777 39.3815 30.4468 39.3815C30.0821 39.3815 29.7317 39.3186 29.3953 39.1925C29.0587 39.0667 28.7572 38.8953 28.4909 38.6784C28.2245 38.4615 28.0104 38.2027 27.8496 37.9016C27.6883 37.6009 27.5936 37.2688 27.5657 36.9046H35.2419C35.2556 36.7929 35.263 36.681 35.263 36.5688V36.233C35.263 35.3235 35.14 34.5293 34.8948 33.8505C34.6494 33.1719 34.3091 32.6052 33.8748 32.1503C33.4402 31.6958 32.9249 31.3526 32.3291 31.1218C31.733 30.8909 31.0847 30.7754 30.3837 30.7754C29.6265 30.7754 28.9219 30.905 28.2701 31.1638C27.6183 31.4229 27.0537 31.7866 26.5771 32.2553C26.1004 32.7243 25.7253 33.291 25.4521 33.9555C25.1785 34.6202 25.042 35.3586 25.042 36.1699C25.042 36.9957 25.1785 37.7337 25.4521 38.3845C25.7253 39.035 26.1039 39.5845 26.5877 40.0322C27.0713 40.4803 27.6425 40.8266 28.3016 41.0713C28.9606 41.316 29.6826 41.4387 30.4679 41.4387C32.1627 41.4387 33.4972 40.8997 34.4727 39.8226L33.1177 38.0801Z" fill="white"/>
<path fill-rule="evenodd" clip-rule="evenodd" d="M101.175 33.3467C101.7 32.8922 102.342 32.6645 103.099 32.6645C103.505 32.6645 103.859 32.7311 104.161 32.864C104.462 32.9972 104.711 33.1755 104.907 33.3992C105.104 33.6233 105.247 33.882 105.339 34.1759C105.43 34.4697 105.475 34.7777 105.475 35.0994H100.302C100.358 34.3857 100.649 33.8016 101.175 33.3467ZM105.854 38.0801C105.573 38.4862 105.216 38.8044 104.781 39.035C104.347 39.2661 103.814 39.3815 103.183 39.3815C102.818 39.3815 102.468 39.3186 102.132 39.1925C101.795 39.0667 101.493 38.8953 101.227 38.6784C100.961 38.4615 100.747 38.2027 100.586 37.9016C100.424 37.6009 100.33 37.2688 100.302 36.9046H107.978C107.992 36.7929 107.999 36.681 107.999 36.5688V36.233C107.999 35.3235 107.876 34.5293 107.631 33.8505C107.386 33.1719 107.045 32.6052 106.611 32.1503C106.176 31.6958 105.661 31.3526 105.065 31.1218C104.469 30.8909 103.821 30.7754 103.12 30.7754C102.363 30.7754 101.658 30.905 101.006 31.1638C100.354 31.4229 99.79 31.7866 99.3134 32.2553C98.8366 32.7243 98.4617 33.291 98.1882 33.9555C97.9148 34.6202 97.7783 35.3586 97.7783 36.1699C97.7783 36.9957 97.9148 37.7337 98.1882 38.3845C98.4617 39.035 98.8403 39.5845 99.3238 40.0322C99.8076 40.4803 100.379 40.8266 101.038 41.0713C101.697 41.316 102.419 41.4387 103.204 41.4387C104.899 41.4387 106.234 40.8997 107.209 39.8226L105.854 38.0801Z" fill="white"/>
<path fill-rule="evenodd" clip-rule="evenodd" d="M93.6208 37.2366C93.4806 37.6202 93.2807 37.9585 93.0216 38.2513C92.7619 38.5441 92.4464 38.7778 92.0751 38.9522C91.7035 39.1267 91.2864 39.2135 90.8237 39.2135C90.3749 39.2135 89.9719 39.1232 89.6144 38.9416C89.2569 38.7604 88.9553 38.5196 88.7101 38.2198C88.4647 37.9201 88.2754 37.5816 88.1424 37.2051C88.009 36.8286 87.9426 36.4384 87.9426 36.0335C87.9426 35.5875 88.009 35.1691 88.1424 34.7785C88.2754 34.3877 88.4647 34.0496 88.7101 33.7636C88.9553 33.4776 89.2569 33.251 89.6144 33.0837C89.9719 32.9165 90.3821 32.8325 90.8448 32.8325C91.3075 32.8325 91.7209 32.9165 92.0856 33.0837C92.45 33.251 92.7619 33.4812 93.0216 33.7741C93.2807 34.0671 93.4806 34.4087 93.6208 34.7989C93.7608 35.1897 93.831 35.6014 93.831 36.0335C93.831 36.4521 93.7608 36.8533 93.6208 37.2366ZM93.831 31.0693V32.5805H93.7891C93.4244 31.965 92.9336 31.5101 92.317 31.2163C91.6998 30.9223 91.0341 30.7754 90.319 30.7754C89.5618 30.7754 88.8783 30.9155 88.2684 31.1953C87.6586 31.4753 87.1398 31.8531 86.7121 32.3287C86.2844 32.8046 85.9553 33.3645 85.7238 34.0079C85.4924 34.6519 85.377 35.3375 85.377 36.0651C85.377 36.7788 85.4959 37.4541 85.7343 38.0905C85.9727 38.7276 86.3055 39.2838 86.7332 39.7593C87.1607 40.2352 87.683 40.6131 88.3 40.8927C88.9168 41.1726 89.604 41.3127 90.3612 41.3127C91.0621 41.3127 91.6965 41.1818 92.2644 40.9203C92.8321 40.659 93.2981 40.2808 93.663 39.786H93.7049V40.5232C93.7049 41.029 93.6524 41.4924 93.5474 41.9139C93.4422 42.335 93.2666 42.7003 93.0216 43.0093C92.776 43.3182 92.4464 43.5602 92.033 43.7361C91.6194 43.9115 91.111 43.9995 90.5083 43.9995C89.8774 43.9995 89.2534 43.8768 88.6366 43.632C88.0356 43.3935 87.495 43.0521 87.0141 42.608L85.5239 44.5242C85.8464 44.79 86.2109 45.0279 86.6177 45.2379C87.024 45.4477 87.4482 45.6225 87.89 45.7626C88.3317 45.9024 88.7801 46.0074 89.236 46.0774C89.6914 46.1473 90.1226 46.1824 90.5292 46.1824C91.5105 46.1824 92.359 46.0423 93.074 45.7626C93.7891 45.4824 94.3813 45.0874 94.8512 44.5767C95.3207 44.0657 95.6677 43.4431 95.8922 42.7086C96.1163 41.9739 96.2287 41.1515 96.2287 40.242V31.0693H93.831Z" fill="white"/>
<path d="M123.999 25V37" stroke="#363A4D"/>
<path d="M148.895 24.224H151.263V28.768C150.655 29.2267 149.951 29.5787 149.151 29.824C148.351 30.0693 147.546 30.192 146.735 30.192C145.572 30.192 144.527 29.9467 143.599 29.456C142.671 28.9547 141.94 28.2667 141.407 27.392C140.884 26.5067 140.623 25.5093 140.623 24.4C140.623 23.2907 140.884 22.2987 141.407 21.424C141.94 20.5387 142.676 19.8507 143.615 19.36C144.554 18.8587 145.61 18.608 146.783 18.608C147.764 18.608 148.655 18.7733 149.455 19.104C150.255 19.4347 150.927 19.9147 151.471 20.544L149.807 22.08C149.007 21.2373 148.042 20.816 146.911 20.816C146.196 20.816 145.562 20.9653 145.007 21.264C144.452 21.5627 144.02 21.984 143.711 22.528C143.402 23.072 143.247 23.696 143.247 24.4C143.247 25.0933 143.402 25.712 143.711 26.256C144.02 26.8 144.447 27.2267 144.991 27.536C145.546 27.8347 146.175 27.984 146.879 27.984C147.626 27.984 148.298 27.824 148.895 27.504V24.224ZM157.591 30.128C156.684 30.128 155.868 29.9413 155.143 29.568C154.428 29.184 153.868 28.656 153.463 27.984C153.058 27.312 152.855 26.5493 152.855 25.696C152.855 24.8427 153.058 24.08 153.463 23.408C153.868 22.736 154.428 22.2133 155.143 21.84C155.868 21.456 156.684 21.264 157.591 21.264C158.498 21.264 159.308 21.456 160.023 21.84C160.738 22.2133 161.298 22.736 161.703 23.408C162.108 24.08 162.311 24.8427 162.311 25.696C162.311 26.5493 162.108 27.312 161.703 27.984C161.298 28.656 160.738 29.184 160.023 29.568C159.308 29.9413 158.498 30.128 157.591 30.128ZM157.591 28.08C158.231 28.08 158.754 27.8667 159.159 27.44C159.575 27.0027 159.783 26.4213 159.783 25.696C159.783 24.9707 159.575 24.3947 159.159 23.968C158.754 23.5307 158.231 23.312 157.591 23.312C156.951 23.312 156.423 23.5307 156.007 23.968C155.591 24.3947 155.383 24.9707 155.383 25.696C155.383 26.4213 155.591 27.0027 156.007 27.44C156.423 27.8667 156.951 28.08 157.591 28.08ZM172.289 21.392L168.657 30H166.081L162.465 21.392H165.041L167.425 27.248L169.889 21.392H172.289ZM181.505 25.728C181.505 25.76 181.489 25.984 181.457 26.4H174.945C175.062 26.9333 175.34 27.3547 175.777 27.664C176.214 27.9733 176.758 28.128 177.409 28.128C177.857 28.128 178.252 28.064 178.593 27.936C178.945 27.7973 179.27 27.584 179.569 27.296L180.897 28.736C180.086 29.664 178.902 30.128 177.345 30.128C176.374 30.128 175.516 29.9413 174.769 29.568C174.022 29.184 173.446 28.656 173.041 27.984C172.636 27.312 172.433 26.5493 172.433 25.696C172.433 24.8533 172.63 24.096 173.025 23.424C173.43 22.7413 173.98 22.2133 174.673 21.84C175.377 21.456 176.161 21.264 177.025 21.264C177.868 21.264 178.63 21.4453 179.313 21.808C179.996 22.1707 180.529 22.6933 180.913 23.376C181.308 24.048 181.505 24.832 181.505 25.728ZM177.041 23.152C176.476 23.152 176.001 23.312 175.617 23.632C175.233 23.952 174.998 24.3893 174.913 24.944H179.153C179.068 24.4 178.833 23.968 178.449 23.648C178.065 23.3173 177.596 23.152 177.041 23.152ZM185.551 22.528C185.849 22.112 186.249 21.7973 186.751 21.584C187.263 21.3707 187.849 21.264 188.511 21.264V23.568C188.233 23.5467 188.047 23.536 187.951 23.536C187.236 23.536 186.676 23.7387 186.271 24.144C185.865 24.5387 185.663 25.136 185.663 25.936V30H183.167V21.392H185.551V22.528ZM195.227 21.264C196.294 21.264 197.152 21.584 197.803 22.224C198.464 22.864 198.795 23.8133 198.795 25.072V30H196.299V25.456C196.299 24.7733 196.15 24.2667 195.851 23.936C195.552 23.5947 195.12 23.424 194.555 23.424C193.926 23.424 193.424 23.6213 193.051 24.016C192.678 24.4 192.491 24.976 192.491 25.744V30H189.995V21.392H192.379V22.4C192.71 22.0373 193.12 21.76 193.611 21.568C194.102 21.3653 194.64 21.264 195.227 21.264ZM204.529 21.264C205.863 21.264 206.887 21.584 207.601 22.224C208.316 22.8533 208.673 23.808 208.673 25.088V30H206.337V28.928C205.868 29.728 204.993 30.128 203.713 30.128C203.052 30.128 202.476 30.016 201.985 29.792C201.505 29.568 201.137 29.2587 200.881 28.864C200.625 28.4693 200.497 28.0213 200.497 27.52C200.497 26.72 200.796 26.0907 201.393 25.632C202.001 25.1733 202.935 24.944 204.193 24.944H206.177C206.177 24.4 206.012 23.984 205.681 23.696C205.351 23.3973 204.855 23.248 204.193 23.248C203.735 23.248 203.281 23.3227 202.833 23.472C202.396 23.6107 202.023 23.8027 201.713 24.048L200.817 22.304C201.287 21.9733 201.847 21.7173 202.497 21.536C203.159 21.3547 203.836 21.264 204.529 21.264ZM204.337 28.448C204.764 28.448 205.143 28.352 205.473 28.16C205.804 27.9573 206.039 27.664 206.177 27.28V26.4H204.465C203.441 26.4 202.929 26.736 202.929 27.408C202.929 27.728 203.052 27.984 203.297 28.176C203.553 28.3573 203.9 28.448 204.337 28.448ZM216.164 21.264C217.231 21.264 218.09 21.584 218.74 22.224C219.402 22.864 219.732 23.8133 219.732 25.072V30H217.236V25.456C217.236 24.7733 217.087 24.2667 216.788 23.936C216.49 23.5947 216.058 23.424 215.492 23.424C214.863 23.424 214.362 23.6213 213.988 24.016C213.615 24.4 213.428 24.976 213.428 25.744V30H210.932V21.392H213.316V22.4C213.647 22.0373 214.058 21.76 214.548 21.568C215.039 21.3653 215.578 21.264 216.164 21.264ZM226.249 30.128C225.331 30.128 224.505 29.9413 223.769 29.568C223.043 29.184 222.473 28.656 222.057 27.984C221.651 27.312 221.449 26.5493 221.449 25.696C221.449 24.8427 221.651 24.08 222.057 23.408C222.473 22.736 223.043 22.2133 223.769 21.84C224.505 21.456 225.331 21.264 226.249 21.264C227.155 21.264 227.945 21.456 228.617 21.84C229.299 22.2133 229.795 22.752 230.105 23.456L228.169 24.496C227.721 23.7067 227.075 23.312 226.233 23.312C225.582 23.312 225.043 23.5253 224.617 23.952C224.19 24.3787 223.977 24.96 223.977 25.696C223.977 26.432 224.19 27.0133 224.617 27.44C225.043 27.8667 225.582 28.08 226.233 28.08C227.086 28.08 227.731 27.6853 228.169 26.896L230.105 27.952C229.795 28.6347 229.299 29.168 228.617 29.552C227.945 29.936 227.155 30.128 226.249 30.128ZM239.864 25.728C239.864 25.76 239.848 25.984 239.816 26.4H233.304C233.422 26.9333 233.699 27.3547 234.136 27.664C234.574 27.9733 235.118 28.128 235.768 28.128C236.216 28.128 236.611 28.064 236.952 27.936C237.304 27.7973 237.63 27.584 237.928 27.296L239.256 28.736C238.446 29.664 237.262 30.128 235.704 30.128C234.734 30.128 233.875 29.9413 233.128 29.568C232.382 29.184 231.806 28.656 231.4 27.984C230.995 27.312 230.792 26.5493 230.792 25.696C230.792 24.8533 230.99 24.096 231.384 23.424C231.79 22.7413 232.339 22.2133 233.032 21.84C233.736 21.456 234.52 21.264 235.384 21.264C236.227 21.264 236.99 21.4453 237.672 21.808C238.355 22.1707 238.888 22.6933 239.272 23.376C239.667 24.048 239.864 24.832 239.864 25.728ZM235.4 23.152C234.835 23.152 234.36 23.312 233.976 23.632C233.592 23.952 233.358 24.3893 233.272 24.944H237.512C237.427 24.4 237.192 23.968 236.808 23.648C236.424 23.3173 235.955 23.152 235.4 23.152Z" fill="white"/>
<path d="M144.857 39.5455C144.814 39.1856 144.642 38.9062 144.339 38.7074C144.036 38.5085 143.664 38.4091 143.224 38.4091C142.902 38.4091 142.62 38.4612 142.378 38.5653C142.139 38.6695 141.952 38.8127 141.817 38.995C141.685 39.1773 141.618 39.3845 141.618 39.6165C141.618 39.8106 141.665 39.9775 141.757 40.1172C141.852 40.2545 141.972 40.3693 142.119 40.4616C142.266 40.5516 142.42 40.6262 142.581 40.6854C142.742 40.7422 142.89 40.7884 143.025 40.8239L143.763 41.0227C143.953 41.0724 144.163 41.1411 144.395 41.2287C144.63 41.3163 144.854 41.4358 145.067 41.5874C145.282 41.7365 145.46 41.9283 145.599 42.1626C145.739 42.397 145.809 42.6847 145.809 43.0256C145.809 43.4186 145.706 43.7737 145.5 44.0909C145.296 44.4081 144.998 44.6603 144.605 44.8473C144.214 45.0343 143.74 45.1278 143.181 45.1278C142.66 45.1278 142.209 45.0438 141.828 44.8757C141.449 44.7076 141.151 44.4732 140.933 44.1726C140.718 43.8719 140.596 43.5227 140.567 43.125H141.476C141.5 43.3996 141.592 43.6269 141.753 43.8068C141.917 43.9844 142.123 44.117 142.371 44.2045C142.622 44.2898 142.892 44.3324 143.181 44.3324C143.517 44.3324 143.819 44.2779 144.087 44.169C144.354 44.0578 144.566 43.9039 144.722 43.7074C144.878 43.5085 144.957 43.2765 144.957 43.0114C144.957 42.7699 144.889 42.5734 144.754 42.4219C144.619 42.2704 144.442 42.1473 144.221 42.0526C144.001 41.9579 143.763 41.875 143.508 41.804L142.613 41.5483C142.045 41.3849 141.595 41.1518 141.263 40.8487C140.932 40.5457 140.766 40.1491 140.766 39.6591C140.766 39.2519 140.876 38.8968 141.096 38.5938C141.319 38.2884 141.617 38.0516 141.991 37.8835C142.368 37.7131 142.788 37.6278 143.252 37.6278C143.721 37.6278 144.137 37.7119 144.502 37.88C144.867 38.0457 145.155 38.273 145.368 38.5618C145.584 38.8506 145.698 39.1785 145.709 39.5455H144.857ZM150.581 42.7699V39.5455H151.419V45H150.581V44.0767H150.524C150.396 44.3537 150.197 44.5893 149.927 44.7834C149.657 44.9751 149.316 45.071 148.905 45.071C148.564 45.071 148.261 44.9964 147.995 44.8473C147.73 44.6958 147.522 44.4685 147.37 44.1655C147.219 43.8601 147.143 43.4754 147.143 43.0114V39.5455H147.981V42.9545C147.981 43.3523 148.092 43.6695 148.315 43.9062C148.54 44.143 148.826 44.2614 149.174 44.2614C149.383 44.2614 149.595 44.2081 149.81 44.1016C150.028 43.995 150.21 43.8317 150.357 43.6115C150.506 43.3913 150.581 43.1108 150.581 42.7699ZM153.067 45V37.7273H153.905V40.4119H153.976C154.038 40.3172 154.123 40.1965 154.232 40.0497C154.343 39.9006 154.502 39.768 154.708 39.652C154.916 39.5336 155.198 39.4744 155.553 39.4744C156.012 39.4744 156.417 39.5893 156.768 39.8189C157.118 40.0485 157.391 40.3741 157.588 40.7955C157.784 41.2169 157.883 41.714 157.883 42.2869C157.883 42.8646 157.784 43.3653 157.588 43.7891C157.391 44.2105 157.119 44.5372 156.771 44.7692C156.423 44.9988 156.022 45.1136 155.567 45.1136C155.217 45.1136 154.936 45.0556 154.726 44.9396C154.515 44.8213 154.353 44.6875 154.239 44.5384C154.126 44.3868 154.038 44.2614 153.976 44.1619H153.877V45H153.067ZM153.891 42.2727C153.891 42.6847 153.952 43.0481 154.072 43.3629C154.193 43.6754 154.369 43.9205 154.601 44.098C154.833 44.2732 155.118 44.3608 155.454 44.3608C155.804 44.3608 156.096 44.2685 156.331 44.0838C156.568 43.8968 156.745 43.6458 156.863 43.331C156.984 43.0137 157.045 42.661 157.045 42.2727C157.045 41.8892 156.985 41.5436 156.867 41.2358C156.751 40.9257 156.575 40.6806 156.338 40.5007C156.104 40.3184 155.809 40.2273 155.454 40.2273C155.113 40.2273 154.826 40.3137 154.594 40.4865C154.362 40.657 154.187 40.8961 154.069 41.2038C153.95 41.5092 153.891 41.8655 153.891 42.2727ZM163.256 39.5455C163.213 39.1856 163.04 38.9062 162.737 38.7074C162.434 38.5085 162.062 38.4091 161.622 38.4091C161.3 38.4091 161.018 38.4612 160.777 38.5653C160.538 38.6695 160.351 38.8127 160.216 38.995C160.083 39.1773 160.017 39.3845 160.017 39.6165C160.017 39.8106 160.063 39.9775 160.155 40.1172C160.25 40.2545 160.371 40.3693 160.518 40.4616C160.664 40.5516 160.818 40.6262 160.979 40.6854C161.14 40.7422 161.288 40.7884 161.423 40.8239L162.162 41.0227C162.351 41.0724 162.562 41.1411 162.794 41.2287C163.028 41.3163 163.252 41.4358 163.465 41.5874C163.68 41.7365 163.858 41.9283 163.998 42.1626C164.137 42.397 164.207 42.6847 164.207 43.0256C164.207 43.4186 164.104 43.7737 163.898 44.0909C163.695 44.4081 163.396 44.6603 163.003 44.8473C162.613 45.0343 162.138 45.1278 161.579 45.1278C161.059 45.1278 160.608 45.0438 160.226 44.8757C159.848 44.7076 159.549 44.4732 159.332 44.1726C159.116 43.8719 158.994 43.5227 158.966 43.125H159.875C159.899 43.3996 159.991 43.6269 160.152 43.8068C160.315 43.9844 160.521 44.117 160.77 44.2045C161.021 44.2898 161.291 44.3324 161.579 44.3324C161.916 44.3324 162.217 44.2779 162.485 44.169C162.752 44.0578 162.964 43.9039 163.121 43.7074C163.277 43.5085 163.355 43.2765 163.355 43.0114C163.355 42.7699 163.287 42.5734 163.153 42.4219C163.018 42.2704 162.84 42.1473 162.62 42.0526C162.4 41.9579 162.162 41.875 161.906 41.804L161.011 41.5483C160.443 41.3849 159.993 41.1518 159.662 40.8487C159.33 40.5457 159.165 40.1491 159.165 39.6591C159.165 39.2519 159.275 38.8968 159.495 38.5938C159.717 38.2884 160.016 38.0516 160.39 37.8835C160.766 37.7131 161.186 37.6278 161.65 37.6278C162.119 37.6278 162.536 37.7119 162.9 37.88C163.265 38.0457 163.554 38.273 163.767 38.5618C163.982 38.8506 164.096 39.1785 164.108 39.5455H163.256ZM169.263 47.0455V44.1619H169.192C169.131 44.2614 169.043 44.3868 168.929 44.5384C168.816 44.6875 168.654 44.8213 168.443 44.9396C168.232 45.0556 167.952 45.1136 167.601 45.1136C167.147 45.1136 166.745 44.9988 166.397 44.7692C166.049 44.5372 165.777 44.2105 165.581 43.7891C165.384 43.3653 165.286 42.8646 165.286 42.2869C165.286 41.714 165.384 41.2169 165.581 40.7955C165.777 40.3741 166.051 40.0485 166.401 39.8189C166.751 39.5893 167.156 39.4744 167.615 39.4744C167.971 39.4744 168.251 39.5336 168.457 39.652C168.665 39.768 168.824 39.9006 168.933 40.0497C169.044 40.1965 169.131 40.3172 169.192 40.4119H169.292V39.5455H170.101V47.0455H169.263ZM167.715 44.3608C168.051 44.3608 168.335 44.2732 168.567 44.098C168.799 43.9205 168.976 43.6754 169.096 43.3629C169.217 43.0481 169.277 42.6847 169.277 42.2727C169.277 41.8655 169.218 41.5092 169.1 41.2038C168.981 40.8961 168.806 40.657 168.574 40.4865C168.342 40.3137 168.056 40.2273 167.715 40.2273C167.36 40.2273 167.064 40.3184 166.827 40.5007C166.593 40.6806 166.416 40.9257 166.298 41.2358C166.182 41.5436 166.124 41.8892 166.124 42.2727C166.124 42.661 166.183 43.0137 166.302 43.331C166.422 43.6458 166.6 43.8968 166.834 44.0838C167.071 44.2685 167.364 44.3608 167.715 44.3608ZM175.073 42.7699V39.5455H175.911V45H175.073V44.0767H175.016C174.888 44.3537 174.689 44.5893 174.419 44.7834C174.15 44.9751 173.809 45.071 173.397 45.071C173.056 45.071 172.753 44.9964 172.488 44.8473C172.222 44.6958 172.014 44.4685 171.863 44.1655C171.711 43.8601 171.635 43.4754 171.635 43.0114V39.5455H172.473V42.9545C172.473 43.3523 172.585 43.6695 172.807 43.9062C173.032 44.143 173.319 44.2614 173.667 44.2614C173.875 44.2614 174.087 44.2081 174.302 44.1016C174.52 43.995 174.702 43.8317 174.849 43.6115C174.998 43.3913 175.073 43.1108 175.073 42.7699ZM179.051 45.1278C178.705 45.1278 178.392 45.0627 178.11 44.9325C177.828 44.8 177.604 44.6094 177.439 44.3608C177.273 44.1098 177.19 43.8068 177.19 43.4517C177.19 43.1392 177.252 42.8859 177.375 42.6918C177.498 42.4953 177.662 42.3414 177.868 42.2301C178.074 42.1188 178.302 42.036 178.55 41.9815C178.801 41.9247 179.053 41.8797 179.307 41.8466C179.638 41.804 179.907 41.772 180.113 41.7507C180.321 41.727 180.473 41.688 180.567 41.6335C180.664 41.5791 180.713 41.4844 180.713 41.3494V41.321C180.713 40.9706 180.617 40.6984 180.425 40.5043C180.236 40.3101 179.948 40.2131 179.562 40.2131C179.162 40.2131 178.849 40.3007 178.621 40.4759C178.394 40.651 178.234 40.8381 178.142 41.0369L177.346 40.7528C177.488 40.4214 177.678 40.1634 177.915 39.9787C178.154 39.7917 178.414 39.6615 178.696 39.5881C178.98 39.5123 179.259 39.4744 179.534 39.4744C179.709 39.4744 179.91 39.4957 180.138 39.5384C180.367 39.5786 180.589 39.6626 180.802 39.7905C181.017 39.9183 181.196 40.1113 181.338 40.3693C181.48 40.6274 181.551 40.973 181.551 41.4062V45H180.713V44.2614H180.67C180.613 44.3797 180.519 44.5064 180.386 44.6413C180.254 44.7763 180.077 44.8911 179.857 44.9858C179.637 45.0805 179.368 45.1278 179.051 45.1278ZM179.179 44.375C179.51 44.375 179.79 44.3099 180.017 44.1797C180.247 44.0495 180.419 43.8814 180.535 43.6754C180.654 43.4695 180.713 43.2528 180.713 43.0256V42.2585C180.677 42.3011 180.599 42.3402 180.479 42.3757C180.36 42.4089 180.223 42.4384 180.067 42.4645C179.913 42.4882 179.762 42.5095 179.616 42.5284C179.471 42.545 179.354 42.5592 179.264 42.571C179.046 42.5994 178.843 42.6456 178.653 42.7095C178.466 42.7711 178.315 42.8646 178.199 42.9901C178.085 43.1132 178.028 43.2812 178.028 43.4943C178.028 43.7855 178.136 44.0057 178.351 44.1548C178.569 44.3016 178.845 44.375 179.179 44.375ZM183.081 45V39.5455H183.89V40.3693H183.947C184.047 40.0994 184.226 39.8804 184.487 39.7124C184.747 39.5443 185.041 39.4602 185.368 39.4602C185.429 39.4602 185.506 39.4614 185.598 39.4638C185.691 39.4661 185.761 39.4697 185.808 39.4744V40.3267C185.78 40.3196 185.714 40.3089 185.613 40.2947C185.513 40.2782 185.408 40.2699 185.297 40.2699C185.031 40.2699 184.795 40.3255 184.586 40.4368C184.38 40.5457 184.217 40.6972 184.096 40.8913C183.978 41.0831 183.919 41.3021 183.919 41.5483V45H183.081ZM188.922 45.1136C188.397 45.1136 187.943 44.9976 187.562 44.7656C187.183 44.5312 186.891 44.2045 186.685 43.7855C186.481 43.3641 186.38 42.8741 186.38 42.3153C186.38 41.7566 186.481 41.2642 186.685 40.8381C186.891 40.4096 187.177 40.0758 187.544 39.8366C187.914 39.5952 188.345 39.4744 188.837 39.4744C189.121 39.4744 189.402 39.5218 189.679 39.6165C189.956 39.7112 190.208 39.8651 190.435 40.0781C190.662 40.2888 190.843 40.5682 190.978 40.9162C191.113 41.2642 191.181 41.6927 191.181 42.2017V42.5568H186.976V41.8324H190.329C190.329 41.5246 190.267 41.25 190.144 41.0085C190.023 40.767 189.85 40.5765 189.625 40.4368C189.403 40.2971 189.14 40.2273 188.837 40.2273C188.503 40.2273 188.214 40.3101 187.971 40.4759C187.729 40.6392 187.543 40.8523 187.413 41.1151C187.283 41.3778 187.218 41.6596 187.218 41.9602V42.4432C187.218 42.8551 187.289 43.2043 187.431 43.4908C187.575 43.7749 187.775 43.9915 188.031 44.1406C188.287 44.2874 188.584 44.3608 188.922 44.3608C189.142 44.3608 189.341 44.33 189.519 44.2685C189.699 44.2045 189.854 44.1098 189.984 43.9844C190.114 43.8565 190.215 43.6979 190.286 43.5085L191.096 43.7358C191.01 44.0104 190.867 44.2519 190.666 44.4602C190.465 44.6662 190.216 44.8272 189.92 44.9432C189.624 45.0568 189.292 45.1136 188.922 45.1136Z" fill="white" fill-opacity="0.25"/>
</svg>
