<svg width="161" height="64" viewBox="0 0 161 64" fill="none" xmlns="http://www.w3.org/2000/svg">
    <path d="M9.775 22.075C9.775 23.7165 8.44156 25.05 6.8 25.05C5.15844 25.05 3.825 23.7165 3.825 22.075C3.825 20.4334 5.15844 19.1 6.8 19.1C8.44156 19.1 9.775 20.4334 9.775 22.075ZM3.4 30.4528C2.86875 31.0478 2.55 31.8394 2.55 32.7C2.55 33.5606 2.86875 34.3522 3.4 34.9472V30.4528ZM11.0712 27.8337C9.49344 29.2309 8.5 31.2762 8.5 33.55C8.5 35.3722 9.1375 37.0456 10.2 38.3578V39.5C10.2 40.4403 9.44031 41.2 8.5 41.2H5.1C4.15969 41.2 3.4 40.4403 3.4 39.5V38.0762C1.39188 37.12 0 35.0747 0 32.7C0 29.4115 2.66156 26.75 5.95 26.75H7.65C8.925 26.75 10.1044 27.1484 11.0712 27.8284V27.8337ZM23.8 39.5V38.3578C24.8625 37.0456 25.5 35.3722 25.5 33.55C25.5 31.2762 24.5066 29.2309 22.9288 27.8284C23.8956 27.1484 25.075 26.75 26.35 26.75H28.05C31.3384 26.75 34 29.4115 34 32.7C34 35.0747 32.6081 37.12 30.6 38.0762V39.5C30.6 40.4403 29.8403 41.2 28.9 41.2H25.5C24.5597 41.2 23.8 40.4403 23.8 39.5ZM30.175 22.075C30.175 23.7165 28.8416 25.05 27.2 25.05C25.5584 25.05 24.225 23.7165 24.225 22.075C24.225 20.4334 25.5584 19.1 27.2 19.1C28.8416 19.1 30.175 20.4334 30.175 22.075ZM30.6 30.4528V34.9525C31.1313 34.3522 31.45 33.5659 31.45 32.7053C31.45 31.8447 31.1313 31.0531 30.6 30.4581V30.4528ZM17 25.9C15.1247 25.9 13.6 24.3753 13.6 22.5C13.6 20.6247 15.1247 19.1 17 19.1C18.8753 19.1 20.4 20.6247 20.4 22.5C20.4 24.3753 18.8753 25.9 17 25.9ZM12.75 33.55C12.75 34.4106 13.0688 35.1969 13.6 35.7972V31.3028C13.0688 31.9031 12.75 32.6894 12.75 33.55ZM20.4 31.3028V35.8025C20.9313 35.2022 21.25 34.4159 21.25 33.5553C21.25 32.6947 20.9313 31.9031 20.4 31.3081V31.3028ZM23.8 33.55C23.8 35.9247 22.4081 37.97 20.4 38.9262V41.2C20.4 42.1403 19.6403 42.9 18.7 42.9H15.3C14.3597 42.9 13.6 42.1403 13.6 41.2V38.9262C11.5919 37.97 10.2 35.9247 10.2 33.55C10.2 30.2615 12.8616 27.6 16.15 27.6H17.85C21.1384 27.6 23.8 30.2615 23.8 33.55Z"
          fill="#1E2134"/>
    <path d="M55.36 38.24C53.9333 38.24 52.64 37.9333 51.48 37.32C50.3333 36.6933 49.4267 35.8333 48.76 34.74C48.1067 33.6333 47.78 32.3867 47.78 31C47.78 29.6133 48.1067 28.3733 48.76 27.28C49.4267 26.1733 50.3333 25.3133 51.48 24.7C52.64 24.0733 53.94 23.76 55.38 23.76C56.5933 23.76 57.6867 23.9733 58.66 24.4C59.6467 24.8267 60.4733 25.44 61.14 26.24L59.06 28.16C58.1133 27.0667 56.94 26.52 55.54 26.52C54.6733 26.52 53.9 26.7133 53.22 27.1C52.54 27.4733 52.0067 28 51.62 28.68C51.2467 29.36 51.06 30.1333 51.06 31C51.06 31.8667 51.2467 32.64 51.62 33.32C52.0067 34 52.54 34.5333 53.22 34.92C53.9 35.2933 54.6733 35.48 55.54 35.48C56.94 35.48 58.1133 34.9267 59.06 33.82L61.14 35.74C60.4733 36.5533 59.6467 37.1733 58.66 37.6C57.6733 38.0267 56.5733 38.24 55.36 38.24ZM67.8569 38.16C66.7235 38.16 65.7035 37.9267 64.7969 37.46C63.9035 36.98 63.2035 36.32 62.6969 35.48C62.1902 34.64 61.9369 33.6867 61.9369 32.62C61.9369 31.5533 62.1902 30.6 62.6969 29.76C63.2035 28.92 63.9035 28.2667 64.7969 27.8C65.7035 27.32 66.7235 27.08 67.8569 27.08C68.9902 27.08 70.0035 27.32 70.8969 27.8C71.7902 28.2667 72.4902 28.92 72.9969 29.76C73.5035 30.6 73.7569 31.5533 73.7569 32.62C73.7569 33.6867 73.5035 34.64 72.9969 35.48C72.4902 36.32 71.7902 36.98 70.8969 37.46C70.0035 37.9267 68.9902 38.16 67.8569 38.16ZM67.8569 35.6C68.6569 35.6 69.3102 35.3333 69.8169 34.8C70.3369 34.2533 70.5969 33.5267 70.5969 32.62C70.5969 31.7133 70.3369 30.9933 69.8169 30.46C69.3102 29.9133 68.6569 29.64 67.8569 29.64C67.0569 29.64 66.3969 29.9133 65.8769 30.46C65.3569 30.9933 65.0969 31.7133 65.0969 32.62C65.0969 33.5267 65.3569 34.2533 65.8769 34.8C66.3969 35.3333 67.0569 35.6 67.8569 35.6ZM75.8423 23.16H78.9623V38H75.8423V23.16ZM81.858 23.16H84.978V38H81.858V23.16ZM98.4136 32.66C98.4136 32.7 98.3936 32.98 98.3536 33.5H90.2136C90.3603 34.1667 90.7069 34.6933 91.2536 35.08C91.8003 35.4667 92.4803 35.66 93.2936 35.66C93.8536 35.66 94.3469 35.58 94.7736 35.42C95.2136 35.2467 95.6203 34.98 95.9936 34.62L97.6536 36.42C96.6403 37.58 95.1603 38.16 93.2136 38.16C92.0003 38.16 90.9269 37.9267 89.9936 37.46C89.0603 36.98 88.3403 36.32 87.8336 35.48C87.3269 34.64 87.0736 33.6867 87.0736 32.62C87.0736 31.5667 87.3203 30.62 87.8136 29.78C88.3203 28.9267 89.0069 28.2667 89.8736 27.8C90.7536 27.32 91.7336 27.08 92.8136 27.08C93.8669 27.08 94.8203 27.3067 95.6736 27.76C96.5269 28.2133 97.1936 28.8667 97.6736 29.72C98.1669 30.56 98.4136 31.54 98.4136 32.66ZM92.8336 29.44C92.1269 29.44 91.5336 29.64 91.0536 30.04C90.5736 30.44 90.2803 30.9867 90.1736 31.68H95.4736C95.3669 31 95.0736 30.46 94.5936 30.06C94.1136 29.6467 93.5269 29.44 92.8336 29.44ZM105.691 38.16C104.544 38.16 103.511 37.9267 102.591 37.46C101.684 36.98 100.971 36.32 100.451 35.48C99.9441 34.64 99.6908 33.6867 99.6908 32.62C99.6908 31.5533 99.9441 30.6 100.451 29.76C100.971 28.92 101.684 28.2667 102.591 27.8C103.511 27.32 104.544 27.08 105.691 27.08C106.824 27.08 107.811 27.32 108.651 27.8C109.504 28.2667 110.124 28.94 110.511 29.82L108.091 31.12C107.531 30.1333 106.724 29.64 105.671 29.64C104.857 29.64 104.184 29.9067 103.651 30.44C103.117 30.9733 102.851 31.7 102.851 32.62C102.851 33.54 103.117 34.2667 103.651 34.8C104.184 35.3333 104.857 35.6 105.671 35.6C106.737 35.6 107.544 35.1067 108.091 34.12L110.511 35.44C110.124 36.2933 109.504 36.96 108.651 37.44C107.811 37.92 106.824 38.16 105.691 38.16ZM119.403 37.48C119.097 37.7067 118.717 37.88 118.263 38C117.823 38.1067 117.357 38.16 116.863 38.16C115.583 38.16 114.59 37.8333 113.883 37.18C113.19 36.5267 112.843 35.5667 112.843 34.3V29.88H111.183V27.48H112.843V24.86H115.963V27.48H118.643V29.88H115.963V34.26C115.963 34.7133 116.077 35.0667 116.303 35.32C116.543 35.56 116.877 35.68 117.303 35.68C117.797 35.68 118.217 35.5467 118.563 35.28L119.403 37.48ZM121.155 27.24H124.275V38H121.155V27.24ZM122.715 25.74C122.142 25.74 121.675 25.5733 121.315 25.24C120.955 24.9067 120.775 24.4933 120.775 24C120.775 23.5067 120.955 23.0933 121.315 22.76C121.675 22.4267 122.142 22.26 122.715 22.26C123.288 22.26 123.755 22.42 124.115 22.74C124.475 23.06 124.655 23.46 124.655 23.94C124.655 24.46 124.475 24.8933 124.115 25.24C123.755 25.5733 123.288 25.74 122.715 25.74ZM137.85 27.24L133.31 38H130.09L125.57 27.24H128.79L131.77 34.56L134.85 27.24H137.85ZM149.371 32.66C149.371 32.7 149.351 32.98 149.311 33.5H141.171C141.317 34.1667 141.664 34.6933 142.211 35.08C142.757 35.4667 143.437 35.66 144.251 35.66C144.811 35.66 145.304 35.58 145.731 35.42C146.171 35.2467 146.577 34.98 146.951 34.62L148.611 36.42C147.597 37.58 146.117 38.16 144.171 38.16C142.957 38.16 141.884 37.9267 140.951 37.46C140.017 36.98 139.297 36.32 138.791 35.48C138.284 34.64 138.031 33.6867 138.031 32.62C138.031 31.5667 138.277 30.62 138.771 29.78C139.277 28.9267 139.964 28.2667 140.831 27.8C141.711 27.32 142.691 27.08 143.771 27.08C144.824 27.08 145.777 27.3067 146.631 27.76C147.484 28.2133 148.151 28.8667 148.631 29.72C149.124 30.56 149.371 31.54 149.371 32.66ZM143.791 29.44C143.084 29.44 142.491 29.64 142.011 30.04C141.531 30.44 141.237 30.9867 141.131 31.68H146.431C146.324 31 146.031 30.46 145.551 30.06C145.071 29.6467 144.484 29.44 143.791 29.44ZM155.068 38.16C154.174 38.16 153.301 38.0533 152.448 37.84C151.594 37.6133 150.914 37.3333 150.408 37L151.448 34.76C151.928 35.0667 152.508 35.32 153.188 35.52C153.868 35.7067 154.534 35.8 155.188 35.8C156.508 35.8 157.168 35.4733 157.168 34.82C157.168 34.5133 156.988 34.2933 156.628 34.16C156.268 34.0267 155.714 33.9133 154.968 33.82C154.088 33.6867 153.361 33.5333 152.788 33.36C152.214 33.1867 151.714 32.88 151.288 32.44C150.874 32 150.668 31.3733 150.668 30.56C150.668 29.88 150.861 29.28 151.248 28.76C151.648 28.2267 152.221 27.8133 152.968 27.52C153.728 27.2267 154.621 27.08 155.648 27.08C156.408 27.08 157.161 27.1667 157.908 27.34C158.668 27.5 159.294 27.7267 159.788 28.02L158.748 30.24C157.801 29.7067 156.768 29.44 155.648 29.44C154.981 29.44 154.481 29.5333 154.148 29.72C153.814 29.9067 153.648 30.1467 153.648 30.44C153.648 30.7733 153.828 31.0067 154.188 31.14C154.548 31.2733 155.121 31.4 155.908 31.52C156.788 31.6667 157.508 31.8267 158.068 32C158.628 32.16 159.114 32.46 159.528 32.9C159.941 33.34 160.148 33.9533 160.148 34.74C160.148 35.4067 159.948 36 159.548 36.52C159.148 37.04 158.561 37.4467 157.788 37.74C157.028 38.02 156.121 38.16 155.068 38.16Z"
          fill="#1E2134"/>
</svg>
