<svg width="229" height="64" viewBox="0 0 229 64" fill="none" xmlns="http://www.w3.org/2000/svg">
    <path d="M79.8987 15C88.7912 15 96 22.1634 96 31C96 39.8366 88.7912 47 79.8987 47H16.1013C7.20878 47 0 39.8366 0 31C0 22.1634 7.20878 15 16.1013 15H79.8987ZM37.5216 25.2276C37.0047 25.2276 36.5857 25.6535 36.5857 26.179C36.5857 26.3621 36.6366 26.5332 36.7248 26.6783L35.6318 28.3456L35.5926 28.3974C35.5078 28.4946 35.3868 28.553 35.2576 28.5572L33.3101 28.557C32.4563 27.4018 31.0972 26.6547 29.5664 26.6547C28.0357 26.6547 26.6766 27.4018 25.8228 28.557L23.9071 28.5572C23.7564 28.5523 23.6168 28.4737 23.5329 28.3456L22.4395 26.679C22.528 26.5337 22.579 26.3624 22.579 26.179C22.579 25.6535 22.16 25.2276 21.6431 25.2276C21.1262 25.2276 20.7072 25.6535 20.7072 26.179C20.7072 26.6752 21.081 27.0827 21.5579 27.1265L21.6097 27.1286L22.7541 28.8734L22.7667 28.8922C23.0284 29.2779 23.4603 29.5089 23.9222 29.5089L25.2765 29.5085C25.1466 29.8108 25.0466 30.1294 24.9805 30.4605L22.0654 30.4603L22.0503 30.46C21.8996 30.4551 21.76 30.3765 21.6761 30.2484L20.5752 28.5693C20.659 28.4268 20.7072 28.26 20.7072 28.0818C20.7072 27.5563 20.2882 27.1304 19.7713 27.1304C19.2545 27.1304 18.8354 27.5563 18.8354 28.0818C18.8354 28.578 19.2092 28.9855 19.6862 29.0293L19.7535 29.0323L20.8973 30.7762L20.9099 30.795C21.1716 31.1807 21.6035 31.4117 22.0654 31.4117H24.887C24.887 31.7376 24.9192 32.0559 24.9806 32.3634L22.0654 32.3631L21.9594 32.3671C21.5381 32.3995 21.1515 32.6237 20.9099 32.9798L20.8973 32.9986L19.7535 34.7416L19.7713 34.7416C19.2545 34.7416 18.8354 35.1675 18.8354 35.693C18.8354 36.2184 19.2545 36.6444 19.7713 36.6444C20.2882 36.6444 20.7072 36.2184 20.7072 35.693C20.7072 35.5147 20.659 35.348 20.5752 35.2054L21.6761 33.5263L21.7153 33.4745C21.8001 33.3773 21.9211 33.3189 22.0503 33.3147L25.2765 33.3148C25.4225 33.6545 25.6065 33.9735 25.8228 34.2663L23.9372 34.2659L23.8312 34.2699C23.4098 34.3023 23.0233 34.5265 22.7817 34.8826L22.7691 34.9014L21.6255 36.6447L21.6431 36.6444C21.1262 36.6444 20.7072 37.0703 20.7072 37.5958C20.7072 38.1212 21.1262 38.5472 21.6431 38.5472C22.16 38.5472 22.579 38.1212 22.579 37.5958C22.579 37.4175 22.5308 37.2507 22.4469 37.1081L23.5478 35.4291L23.5871 35.3773C23.6719 35.2801 23.7929 35.2217 23.9221 35.2175L23.9372 35.2173L26.7585 35.2174C27.5406 35.8147 28.5129 36.1687 29.5664 36.1687C30.62 36.1687 31.5923 35.8147 32.3744 35.2174L35.2275 35.2173L35.2426 35.2175C35.3933 35.2224 35.5329 35.301 35.6168 35.4291L36.7174 37.1087C36.6337 37.2512 36.5857 37.4178 36.5857 37.5958C36.5857 38.1212 37.0047 38.5472 37.5216 38.5472C38.0384 38.5472 38.4575 38.1212 38.4575 37.5958C38.4575 37.0995 38.0837 36.692 37.6067 36.6483L37.539 36.6447L36.3956 34.9014L36.383 34.8826C36.1213 34.4968 35.6894 34.2659 35.2275 34.2659L33.3101 34.2663C33.5264 33.9735 33.7104 33.6545 33.8564 33.3148L37.1144 33.3147C37.2651 33.3196 37.4046 33.3982 37.4886 33.5263L38.5899 35.2048C38.5058 35.3475 38.4575 35.5145 38.4575 35.693C38.4575 36.2184 38.8765 36.6444 39.3934 36.6444C39.9102 36.6444 40.3292 36.2184 40.3292 35.693C40.3292 35.1967 39.9555 34.7892 39.4785 34.7455L39.4104 34.7416L38.2673 32.9986L38.2548 32.9798C37.9931 32.594 37.5612 32.3631 37.0993 32.3631L34.1522 32.3634C34.2137 32.0559 34.2459 31.7376 34.2459 31.4117H37.0993L37.2053 31.4076C37.6266 31.3752 38.0132 31.151 38.2548 30.795L38.2673 30.7762L39.411 29.0323L39.3934 29.0332C39.9102 29.0332 40.3292 28.6072 40.3292 28.0818C40.3292 27.5563 39.9102 27.1304 39.3934 27.1304C38.8765 27.1304 38.4575 27.5563 38.4575 28.0818C38.4575 28.2602 38.5058 28.4272 38.5899 28.57L37.4886 30.2484L37.4494 30.3002C37.3645 30.3975 37.2436 30.4558 37.1144 30.46L37.0993 30.4603L34.1524 30.4605C34.0863 30.1294 33.9863 29.8108 33.8564 29.5085L35.2425 29.5089L35.3485 29.5048C35.7698 29.4724 36.1564 29.2482 36.398 28.8922L36.4106 28.8734L37.5548 27.1286L37.5216 27.1304C38.0384 27.1304 38.4575 26.7044 38.4575 26.179C38.4575 25.6535 38.0384 25.2276 37.5216 25.2276ZM68.7908 26.3175H67.3921V35.7538H68.7908V34.6571H68.8549C69.0731 35.2437 69.0731 35.2437 69.5671 35.5752C70.0612 35.9068 70.0612 35.9068 70.7285 35.9068C71.9989 35.9068 71.9989 35.9068 72.6918 34.995C73.3848 34.0833 73.3848 34.0833 73.3848 32.4383C73.3848 30.7934 73.3848 30.7934 72.6918 29.8816C71.9989 28.9699 71.9989 28.9699 70.7285 28.9699C70.0612 28.9699 70.0612 28.9699 69.5671 29.295C69.128 29.5841 69.128 29.5841 68.9068 30.0897L68.8549 30.2195H68.7908V26.3175ZM62.6312 28.9699C61.656 28.9699 61.656 28.9699 61.0528 29.3333C60.5251 29.6513 60.5251 29.6513 60.2037 30.1206L60.1161 30.2578L60.9502 31.0101C61.2068 30.6148 61.2068 30.6148 61.579 30.3598C61.9511 30.1048 61.9511 30.1048 62.5414 30.1048C63.2472 30.1048 63.2472 30.1048 63.5808 30.4363C63.8774 30.731 63.8774 30.731 63.9104 31.2474L63.9145 31.3799V31.941H62.7082C61.3095 31.941 61.3095 31.941 60.5845 32.4383C59.8594 32.9356 59.8594 32.9356 59.8594 33.9303C59.8594 34.8356 59.8594 34.8356 60.4176 35.3712C60.9759 35.9068 60.9759 35.9068 62.0153 35.9068C62.7467 35.9068 62.7467 35.9068 63.26 35.588C63.7163 35.3046 63.7163 35.3046 63.9191 34.7794L63.9658 34.6444H64.03C64.0941 35.1289 64.0941 35.1289 64.3893 35.4413C64.6516 35.7191 64.6516 35.7191 65.1168 35.7499L65.2362 35.7538H66.019V34.6189H65.3132V31.2907C65.3132 30.1685 65.3132 30.1685 64.6203 29.5692C63.9273 28.9699 63.9273 28.9699 62.6312 28.9699ZM50.7613 26.7001C49.8887 26.7001 49.8887 26.7001 49.1893 26.9997C48.4899 27.2994 48.4899 27.2994 48.0023 27.886C47.5147 28.4725 47.5147 28.4725 47.258 29.3269C47.0014 30.1813 47.0014 30.1813 47.0014 31.3034C47.0014 33.5477 47.0014 33.5477 48.0023 34.7273C49.0032 35.9068 49.0032 35.9068 50.7613 35.9068C51.929 35.9068 51.929 35.9068 52.7375 35.3585C53.4724 34.86 53.4724 34.86 53.9104 34.0137L53.995 33.841L52.8273 33.1397C52.5835 33.79 52.5835 33.79 52.0766 34.2044C51.5697 34.6189 51.5697 34.6189 50.7613 34.6189C49.7218 34.6189 49.7218 34.6189 49.1315 33.9175C48.5834 33.2663 48.5834 33.2663 48.5443 32.1532L48.5413 31.9793V30.6276C48.5413 29.3907 48.5413 29.3907 49.1315 28.6893C49.7218 27.988 49.7218 27.988 50.7613 27.988C51.544 27.988 51.544 27.988 52.0252 28.3642C52.453 28.6985 52.453 28.6985 52.683 29.2395L52.7375 29.3779L53.9565 28.7148C53.5074 27.7202 53.5074 27.7202 52.7182 27.2101C51.929 26.7001 51.929 26.7001 50.7613 26.7001ZM56.831 29.1229H55.4323V35.7538H56.831V31.5202C56.831 30.9974 56.831 30.9974 57.2737 30.7296C57.6722 30.4886 57.6722 30.4886 58.3876 30.4645L58.5505 30.4618H59.1023V29.1229H58.7302C57.9346 29.1229 57.9346 29.1229 57.4854 29.5054C57.0924 29.8402 57.0924 29.8402 56.9353 30.2725L56.8951 30.3981H56.831V29.1229ZM29.5664 27.6061C31.634 27.6061 33.31 29.3099 33.31 31.4117C33.31 33.5134 31.634 35.2173 29.5664 35.2173C27.4989 35.2173 25.8229 33.5134 25.8229 31.4117C25.8229 29.3099 27.4989 27.6061 29.5664 27.6061ZM63.9145 32.8336V33.79C63.9145 34.2746 63.9145 34.2746 63.491 34.5615C63.0675 34.8484 63.0675 34.8484 62.4131 34.8484C61.887 34.8484 61.887 34.8484 61.5854 34.6252C61.3173 34.4269 61.3173 34.4269 61.2876 34.0522L61.2838 33.9558V33.7262C61.2838 32.8742 61.2838 32.8742 62.6051 32.8355L62.7339 32.8336H63.9145ZM70.305 30.1685C71.0365 30.1685 71.0365 30.1685 71.4728 30.634C71.8694 31.0571 71.8694 31.0571 71.9055 31.7279L71.9091 31.8645V33.0121C71.9091 33.7773 71.9091 33.7773 71.4728 34.2427C71.0365 34.7081 71.0365 34.7081 70.305 34.7081C69.6634 34.7081 69.6634 34.7081 69.2271 34.3957C68.8344 34.1145 68.8344 34.1145 68.7952 33.6733L68.7908 33.5732V31.3034C68.7908 30.7934 68.7908 30.7934 69.2271 30.4809C69.6634 30.1685 69.6634 30.1685 70.305 30.1685ZM29.5664 28.5575C28.0158 28.5575 26.7588 29.8353 26.7588 31.4117C26.7588 32.988 28.0158 34.2659 29.5664 34.2659C31.1171 34.2659 32.3741 32.988 32.3741 31.4117C32.3741 29.8353 31.1171 28.5575 29.5664 28.5575ZM32.8421 22.8491V24.7519L31.5185 23.4064L31.4366 23.4951C31.1463 23.8303 30.9703 24.2702 30.9703 24.7519C30.9703 25.8027 31.8083 26.6547 32.8421 26.6547C33.8758 26.6547 34.7139 25.8027 34.7139 24.7519C34.7139 23.7372 33.9326 22.908 32.9483 22.8521L32.8421 22.8491ZM26.2908 22.8491C25.257 22.8491 24.419 23.701 24.419 24.7519C24.419 25.8027 25.257 26.6547 26.2908 26.6547C27.3246 26.6547 28.1626 25.8027 28.1626 24.7519C28.1626 24.0915 27.8317 23.5097 27.3292 23.1685L26.2908 24.7519V22.8491Z"
          fill="url(#paint0_linear_5900_39362)"/>
    <path d="M112 25V37" stroke="#E0E4EB"/>
    <path d="M136.896 24.224H139.264V28.768C138.656 29.2267 137.952 29.5787 137.152 29.824C136.352 30.0693 135.547 30.192 134.736 30.192C133.573 30.192 132.528 29.9467 131.6 29.456C130.672 28.9547 129.941 28.2667 129.408 27.392C128.885 26.5067 128.624 25.5093 128.624 24.4C128.624 23.2907 128.885 22.2987 129.408 21.424C129.941 20.5387 130.677 19.8507 131.616 19.36C132.555 18.8587 133.611 18.608 134.784 18.608C135.765 18.608 136.656 18.7733 137.456 19.104C138.256 19.4347 138.928 19.9147 139.472 20.544L137.808 22.08C137.008 21.2373 136.043 20.816 134.912 20.816C134.197 20.816 133.563 20.9653 133.008 21.264C132.453 21.5627 132.021 21.984 131.712 22.528C131.403 23.072 131.248 23.696 131.248 24.4C131.248 25.0933 131.403 25.712 131.712 26.256C132.021 26.8 132.448 27.2267 132.992 27.536C133.547 27.8347 134.176 27.984 134.88 27.984C135.627 27.984 136.299 27.824 136.896 27.504V24.224ZM145.592 30.128C144.685 30.128 143.869 29.9413 143.144 29.568C142.429 29.184 141.869 28.656 141.464 27.984C141.058 27.312 140.856 26.5493 140.856 25.696C140.856 24.8427 141.058 24.08 141.464 23.408C141.869 22.736 142.429 22.2133 143.144 21.84C143.869 21.456 144.685 21.264 145.592 21.264C146.498 21.264 147.309 21.456 148.024 21.84C148.738 22.2133 149.298 22.736 149.704 23.408C150.109 24.08 150.312 24.8427 150.312 25.696C150.312 26.5493 150.109 27.312 149.704 27.984C149.298 28.656 148.738 29.184 148.024 29.568C147.309 29.9413 146.498 30.128 145.592 30.128ZM145.592 28.08C146.232 28.08 146.754 27.8667 147.16 27.44C147.576 27.0027 147.784 26.4213 147.784 25.696C147.784 24.9707 147.576 24.3947 147.16 23.968C146.754 23.5307 146.232 23.312 145.592 23.312C144.952 23.312 144.424 23.5307 144.008 23.968C143.592 24.3947 143.384 24.9707 143.384 25.696C143.384 26.4213 143.592 27.0027 144.008 27.44C144.424 27.8667 144.952 28.08 145.592 28.08ZM160.29 21.392L156.658 30H154.082L150.466 21.392H153.042L155.426 27.248L157.89 21.392H160.29ZM169.506 25.728C169.506 25.76 169.49 25.984 169.458 26.4H162.946C163.063 26.9333 163.341 27.3547 163.778 27.664C164.215 27.9733 164.759 28.128 165.41 28.128C165.858 28.128 166.253 28.064 166.594 27.936C166.946 27.7973 167.271 27.584 167.57 27.296L168.898 28.736C168.087 29.664 166.903 30.128 165.346 30.128C164.375 30.128 163.517 29.9413 162.77 29.568C162.023 29.184 161.447 28.656 161.042 27.984C160.637 27.312 160.434 26.5493 160.434 25.696C160.434 24.8533 160.631 24.096 161.026 23.424C161.431 22.7413 161.981 22.2133 162.674 21.84C163.378 21.456 164.162 21.264 165.026 21.264C165.869 21.264 166.631 21.4453 167.314 21.808C167.997 22.1707 168.53 22.6933 168.914 23.376C169.309 24.048 169.506 24.832 169.506 25.728ZM165.042 23.152C164.477 23.152 164.002 23.312 163.618 23.632C163.234 23.952 162.999 24.3893 162.914 24.944H167.154C167.069 24.4 166.834 23.968 166.45 23.648C166.066 23.3173 165.597 23.152 165.042 23.152ZM173.552 22.528C173.85 22.112 174.25 21.7973 174.752 21.584C175.264 21.3707 175.85 21.264 176.512 21.264V23.568C176.234 23.5467 176.048 23.536 175.952 23.536C175.237 23.536 174.677 23.7387 174.272 24.144C173.866 24.5387 173.664 25.136 173.664 25.936V30H171.168V21.392H173.552V22.528ZM183.228 21.264C184.294 21.264 185.153 21.584 185.804 22.224C186.465 22.864 186.796 23.8133 186.796 25.072V30H184.3V25.456C184.3 24.7733 184.15 24.2667 183.852 23.936C183.553 23.5947 183.121 23.424 182.556 23.424C181.926 23.424 181.425 23.6213 181.052 24.016C180.678 24.4 180.492 24.976 180.492 25.744V30H177.996V21.392H180.38V22.4C180.71 22.0373 181.121 21.76 181.612 21.568C182.102 21.3653 182.641 21.264 183.228 21.264ZM192.53 21.264C193.864 21.264 194.888 21.584 195.602 22.224C196.317 22.8533 196.674 23.808 196.674 25.088V30H194.338V28.928C193.869 29.728 192.994 30.128 191.714 30.128C191.053 30.128 190.477 30.016 189.986 29.792C189.506 29.568 189.138 29.2587 188.882 28.864C188.626 28.4693 188.498 28.0213 188.498 27.52C188.498 26.72 188.797 26.0907 189.394 25.632C190.002 25.1733 190.936 24.944 192.194 24.944H194.178C194.178 24.4 194.013 23.984 193.682 23.696C193.352 23.3973 192.856 23.248 192.194 23.248C191.736 23.248 191.282 23.3227 190.834 23.472C190.397 23.6107 190.024 23.8027 189.714 24.048L188.818 22.304C189.288 21.9733 189.848 21.7173 190.498 21.536C191.16 21.3547 191.837 21.264 192.53 21.264ZM192.338 28.448C192.765 28.448 193.144 28.352 193.474 28.16C193.805 27.9573 194.04 27.664 194.178 27.28V26.4H192.466C191.442 26.4 190.93 26.736 190.93 27.408C190.93 27.728 191.053 27.984 191.298 28.176C191.554 28.3573 191.901 28.448 192.338 28.448ZM204.165 21.264C205.232 21.264 206.091 21.584 206.741 22.224C207.403 22.864 207.733 23.8133 207.733 25.072V30H205.237V25.456C205.237 24.7733 205.088 24.2667 204.789 23.936C204.491 23.5947 204.059 23.424 203.493 23.424C202.864 23.424 202.363 23.6213 201.989 24.016C201.616 24.4 201.429 24.976 201.429 25.744V30H198.933V21.392H201.317V22.4C201.648 22.0373 202.059 21.76 202.549 21.568C203.04 21.3653 203.579 21.264 204.165 21.264ZM214.25 30.128C213.332 30.128 212.506 29.9413 211.77 29.568C211.044 29.184 210.474 28.656 210.058 27.984C209.652 27.312 209.45 26.5493 209.45 25.696C209.45 24.8427 209.652 24.08 210.058 23.408C210.474 22.736 211.044 22.2133 211.77 21.84C212.506 21.456 213.332 21.264 214.25 21.264C215.156 21.264 215.946 21.456 216.618 21.84C217.3 22.2133 217.796 22.752 218.106 23.456L216.17 24.496C215.722 23.7067 215.076 23.312 214.234 23.312C213.583 23.312 213.044 23.5253 212.618 23.952C212.191 24.3787 211.978 24.96 211.978 25.696C211.978 26.432 212.191 27.0133 212.618 27.44C213.044 27.8667 213.583 28.08 214.234 28.08C215.087 28.08 215.732 27.6853 216.17 26.896L218.106 27.952C217.796 28.6347 217.3 29.168 216.618 29.552C215.946 29.936 215.156 30.128 214.25 30.128ZM227.865 25.728C227.865 25.76 227.849 25.984 227.817 26.4H221.305C221.423 26.9333 221.7 27.3547 222.137 27.664C222.575 27.9733 223.119 28.128 223.769 28.128C224.217 28.128 224.612 28.064 224.953 27.936C225.305 27.7973 225.631 27.584 225.929 27.296L227.257 28.736C226.447 29.664 225.263 30.128 223.705 30.128C222.735 30.128 221.876 29.9413 221.129 29.568C220.383 29.184 219.807 28.656 219.401 27.984C218.996 27.312 218.793 26.5493 218.793 25.696C218.793 24.8533 218.991 24.096 219.385 23.424C219.791 22.7413 220.34 22.2133 221.033 21.84C221.737 21.456 222.521 21.264 223.385 21.264C224.228 21.264 224.991 21.4453 225.673 21.808C226.356 22.1707 226.889 22.6933 227.273 23.376C227.668 24.048 227.865 24.832 227.865 25.728ZM223.401 23.152C222.836 23.152 222.361 23.312 221.977 23.632C221.593 23.952 221.359 24.3893 221.273 24.944H225.513C225.428 24.4 225.193 23.968 224.809 23.648C224.425 23.3173 223.956 23.152 223.401 23.152Z"
          fill="#1E2134"/>
    <path d="M132.858 39.5455C132.815 39.1856 132.643 38.9062 132.339 38.7074C132.036 38.5085 131.665 38.4091 131.224 38.4091C130.902 38.4091 130.621 38.4612 130.379 38.5653C130.14 38.6695 129.953 38.8127 129.818 38.995C129.686 39.1773 129.619 39.3845 129.619 39.6165C129.619 39.8106 129.665 39.9775 129.758 40.1172C129.853 40.2545 129.973 40.3693 130.12 40.4616C130.267 40.5516 130.421 40.6262 130.582 40.6854C130.743 40.7422 130.891 40.7884 131.026 40.8239L131.764 41.0227C131.954 41.0724 132.164 41.1411 132.396 41.2287C132.631 41.3163 132.854 41.4358 133.067 41.5874C133.283 41.7365 133.46 41.9283 133.6 42.1626C133.74 42.397 133.81 42.6847 133.81 43.0256C133.81 43.4186 133.707 43.7737 133.501 44.0909C133.297 44.4081 132.999 44.6603 132.606 44.8473C132.215 45.0343 131.741 45.1278 131.182 45.1278C130.661 45.1278 130.21 45.0438 129.829 44.8757C129.45 44.7076 129.152 44.4732 128.934 44.1726C128.719 43.8719 128.597 43.5227 128.568 43.125H129.477C129.501 43.3996 129.593 43.6269 129.754 43.8068C129.918 43.9844 130.124 44.117 130.372 44.2045C130.623 44.2898 130.893 44.3324 131.182 44.3324C131.518 44.3324 131.82 44.2779 132.087 44.169C132.355 44.0578 132.567 43.9039 132.723 43.7074C132.879 43.5085 132.957 43.2765 132.957 43.0114C132.957 42.7699 132.89 42.5734 132.755 42.4219C132.62 42.2704 132.442 42.1473 132.222 42.0526C132.002 41.9579 131.764 41.875 131.509 41.804L130.614 41.5483C130.045 41.3849 129.596 41.1518 129.264 40.8487C128.933 40.5457 128.767 40.1491 128.767 39.6591C128.767 39.2519 128.877 38.8968 129.097 38.5938C129.32 38.2884 129.618 38.0516 129.992 37.8835C130.369 37.7131 130.789 37.6278 131.253 37.6278C131.722 37.6278 132.138 37.7119 132.503 37.88C132.867 38.0457 133.156 38.273 133.369 38.5618C133.585 38.8506 133.698 39.1785 133.71 39.5455H132.858ZM138.581 42.7699V39.5455H139.42V45H138.581V44.0767H138.525C138.397 44.3537 138.198 44.5893 137.928 44.7834C137.658 44.9751 137.317 45.071 136.905 45.071C136.564 45.071 136.261 44.9964 135.996 44.8473C135.731 44.6958 135.523 44.4685 135.371 44.1655C135.22 43.8601 135.144 43.4754 135.144 43.0114V39.5455H135.982V42.9545C135.982 43.3523 136.093 43.6695 136.316 43.9062C136.541 44.143 136.827 44.2614 137.175 44.2614C137.384 44.2614 137.595 44.2081 137.811 44.1016C138.029 43.995 138.211 43.8317 138.358 43.6115C138.507 43.3913 138.581 43.1108 138.581 42.7699ZM141.068 45V37.7273H141.906V40.4119H141.977C142.039 40.3172 142.124 40.1965 142.233 40.0497C142.344 39.9006 142.503 39.768 142.709 39.652C142.917 39.5336 143.199 39.4744 143.554 39.4744C144.013 39.4744 144.418 39.5893 144.768 39.8189C145.119 40.0485 145.392 40.3741 145.589 40.7955C145.785 41.2169 145.884 41.714 145.884 42.2869C145.884 42.8646 145.785 43.3653 145.589 43.7891C145.392 44.2105 145.12 44.5372 144.772 44.7692C144.424 44.9988 144.023 45.1136 143.568 45.1136C143.218 45.1136 142.937 45.0556 142.727 44.9396C142.516 44.8213 142.354 44.6875 142.24 44.5384C142.126 44.3868 142.039 44.2614 141.977 44.1619H141.878V45H141.068ZM141.892 42.2727C141.892 42.6847 141.952 43.0481 142.073 43.3629C142.194 43.6754 142.37 43.9205 142.602 44.098C142.834 44.2732 143.118 44.3608 143.455 44.3608C143.805 44.3608 144.097 44.2685 144.332 44.0838C144.568 43.8968 144.746 43.6458 144.864 43.331C144.985 43.0137 145.045 42.661 145.045 42.2727C145.045 41.8892 144.986 41.5436 144.868 41.2358C144.752 40.9257 144.576 40.6806 144.339 40.5007C144.104 40.3184 143.81 40.2273 143.455 40.2273C143.114 40.2273 142.827 40.3137 142.595 40.4865C142.363 40.657 142.188 40.8961 142.07 41.2038C141.951 41.5092 141.892 41.8655 141.892 42.2727ZM151.256 39.5455C151.214 39.1856 151.041 38.9062 150.738 38.7074C150.435 38.5085 150.063 38.4091 149.623 38.4091C149.301 38.4091 149.019 38.4612 148.778 38.5653C148.539 38.6695 148.352 38.8127 148.217 38.995C148.084 39.1773 148.018 39.3845 148.018 39.6165C148.018 39.8106 148.064 39.9775 148.156 40.1172C148.251 40.2545 148.372 40.3693 148.518 40.4616C148.665 40.5516 148.819 40.6262 148.98 40.6854C149.141 40.7422 149.289 40.7884 149.424 40.8239L150.163 41.0227C150.352 41.0724 150.563 41.1411 150.795 41.2287C151.029 41.3163 151.253 41.4358 151.466 41.5874C151.681 41.7365 151.859 41.9283 151.999 42.1626C152.138 42.397 152.208 42.6847 152.208 43.0256C152.208 43.4186 152.105 43.7737 151.899 44.0909C151.696 44.4081 151.397 44.6603 151.004 44.8473C150.614 45.0343 150.139 45.1278 149.58 45.1278C149.059 45.1278 148.608 45.0438 148.227 44.8757C147.848 44.7076 147.55 44.4732 147.332 44.1726C147.117 43.8719 146.995 43.5227 146.967 43.125H147.876C147.899 43.3996 147.992 43.6269 148.153 43.8068C148.316 43.9844 148.522 44.117 148.771 44.2045C149.022 44.2898 149.291 44.3324 149.58 44.3324C149.916 44.3324 150.218 44.2779 150.486 44.169C150.753 44.0578 150.965 43.9039 151.121 43.7074C151.278 43.5085 151.356 43.2765 151.356 43.0114C151.356 42.7699 151.288 42.5734 151.153 42.4219C151.018 42.2704 150.841 42.1473 150.621 42.0526C150.401 41.9579 150.163 41.875 149.907 41.804L149.012 41.5483C148.444 41.3849 147.994 41.1518 147.663 40.8487C147.331 40.5457 147.165 40.1491 147.165 39.6591C147.165 39.2519 147.276 38.8968 147.496 38.5938C147.718 38.2884 148.017 38.0516 148.391 37.8835C148.767 37.7131 149.187 37.6278 149.651 37.6278C150.12 37.6278 150.537 37.7119 150.901 37.88C151.266 38.0457 151.555 38.273 151.768 38.5618C151.983 38.8506 152.097 39.1785 152.109 39.5455H151.256ZM157.264 47.0455V44.1619H157.193C157.131 44.2614 157.044 44.3868 156.93 44.5384C156.817 44.6875 156.654 44.8213 156.444 44.9396C156.233 45.0556 155.952 45.1136 155.602 45.1136C155.148 45.1136 154.746 44.9988 154.398 44.7692C154.05 44.5372 153.778 44.2105 153.581 43.7891C153.385 43.3653 153.287 42.8646 153.287 42.2869C153.287 41.714 153.385 41.2169 153.581 40.7955C153.778 40.3741 154.051 40.0485 154.402 39.8189C154.752 39.5893 155.157 39.4744 155.616 39.4744C155.971 39.4744 156.252 39.5336 156.458 39.652C156.666 39.768 156.825 39.9006 156.934 40.0497C157.045 40.1965 157.131 40.3172 157.193 40.4119H157.292V39.5455H158.102V47.0455H157.264ZM155.716 44.3608C156.052 44.3608 156.336 44.2732 156.568 44.098C156.8 43.9205 156.976 43.6754 157.097 43.3629C157.218 43.0481 157.278 42.6847 157.278 42.2727C157.278 41.8655 157.219 41.5092 157.101 41.2038C156.982 40.8961 156.807 40.657 156.575 40.4865C156.343 40.3137 156.057 40.2273 155.716 40.2273C155.361 40.2273 155.065 40.3184 154.828 40.5007C154.594 40.6806 154.417 40.9257 154.299 41.2358C154.183 41.5436 154.125 41.8892 154.125 42.2727C154.125 42.661 154.184 43.0137 154.302 43.331C154.423 43.6458 154.601 43.8968 154.835 44.0838C155.072 44.2685 155.365 44.3608 155.716 44.3608ZM163.074 42.7699V39.5455H163.912V45H163.074V44.0767H163.017C162.889 44.3537 162.69 44.5893 162.42 44.7834C162.15 44.9751 161.809 45.071 161.398 45.071C161.057 45.071 160.754 44.9964 160.488 44.8473C160.223 44.6958 160.015 44.4685 159.863 44.1655C159.712 43.8601 159.636 43.4754 159.636 43.0114V39.5455H160.474V42.9545C160.474 43.3523 160.586 43.6695 160.808 43.9062C161.033 44.143 161.319 44.2614 161.667 44.2614C161.876 44.2614 162.088 44.2081 162.303 44.1016C162.521 43.995 162.703 43.8317 162.85 43.6115C162.999 43.3913 163.074 43.1108 163.074 42.7699ZM167.052 45.1278C166.706 45.1278 166.393 45.0627 166.111 44.9325C165.829 44.8 165.605 44.6094 165.44 44.3608C165.274 44.1098 165.191 43.8068 165.191 43.4517C165.191 43.1392 165.253 42.8859 165.376 42.6918C165.499 42.4953 165.663 42.3414 165.869 42.2301C166.075 42.1188 166.303 42.036 166.551 41.9815C166.802 41.9247 167.054 41.8797 167.308 41.8466C167.639 41.804 167.908 41.772 168.114 41.7507C168.322 41.727 168.473 41.688 168.568 41.6335C168.665 41.5791 168.714 41.4844 168.714 41.3494V41.321C168.714 40.9706 168.618 40.6984 168.426 40.5043C168.237 40.3101 167.949 40.2131 167.563 40.2131C167.163 40.2131 166.849 40.3007 166.622 40.4759C166.395 40.651 166.235 40.8381 166.143 41.0369L165.347 40.7528C165.489 40.4214 165.679 40.1634 165.915 39.9787C166.155 39.7917 166.415 39.6615 166.697 39.5881C166.981 39.5123 167.26 39.4744 167.535 39.4744C167.71 39.4744 167.911 39.4957 168.138 39.5384C168.368 39.5786 168.589 39.6626 168.803 39.7905C169.018 39.9183 169.197 40.1113 169.339 40.3693C169.481 40.6274 169.552 40.973 169.552 41.4062V45H168.714V44.2614H168.671C168.614 44.3797 168.52 44.5064 168.387 44.6413C168.254 44.7763 168.078 44.8911 167.858 44.9858C167.638 45.0805 167.369 45.1278 167.052 45.1278ZM167.18 44.375C167.511 44.375 167.79 44.3099 168.018 44.1797C168.247 44.0495 168.42 43.8814 168.536 43.6754C168.655 43.4695 168.714 43.2528 168.714 43.0256V42.2585C168.678 42.3011 168.6 42.3402 168.479 42.3757C168.361 42.4089 168.224 42.4384 168.067 42.4645C167.914 42.4882 167.763 42.5095 167.616 42.5284C167.472 42.545 167.355 42.5592 167.265 42.571C167.047 42.5994 166.844 42.6456 166.654 42.7095C166.467 42.7711 166.316 42.8646 166.2 42.9901C166.086 43.1132 166.029 43.2812 166.029 43.4943C166.029 43.7855 166.137 44.0057 166.352 44.1548C166.57 44.3016 166.846 44.375 167.18 44.375ZM171.081 45V39.5455H171.891V40.3693H171.948C172.047 40.0994 172.227 39.8804 172.488 39.7124C172.748 39.5443 173.042 39.4602 173.368 39.4602C173.43 39.4602 173.507 39.4614 173.599 39.4638C173.692 39.4661 173.761 39.4697 173.809 39.4744V40.3267C173.78 40.3196 173.715 40.3089 173.613 40.2947C173.514 40.2782 173.409 40.2699 173.297 40.2699C173.032 40.2699 172.796 40.3255 172.587 40.4368C172.381 40.5457 172.218 40.6972 172.097 40.8913C171.979 41.0831 171.92 41.3021 171.92 41.5483V45H171.081ZM176.923 45.1136C176.398 45.1136 175.944 44.9976 175.563 44.7656C175.184 44.5312 174.892 44.2045 174.686 43.7855C174.482 43.3641 174.381 42.8741 174.381 42.3153C174.381 41.7566 174.482 41.2642 174.686 40.8381C174.892 40.4096 175.178 40.0758 175.545 39.8366C175.915 39.5952 176.345 39.4744 176.838 39.4744C177.122 39.4744 177.403 39.5218 177.68 39.6165C177.956 39.7112 178.209 39.8651 178.436 40.0781C178.663 40.2888 178.844 40.5682 178.979 40.9162C179.114 41.2642 179.182 41.6927 179.182 42.2017V42.5568H174.977V41.8324H178.329C178.329 41.5246 178.268 41.25 178.145 41.0085C178.024 40.767 177.851 40.5765 177.626 40.4368C177.404 40.2971 177.141 40.2273 176.838 40.2273C176.504 40.2273 176.215 40.3101 175.971 40.4759C175.73 40.6392 175.544 40.8523 175.414 41.1151C175.284 41.3778 175.219 41.6596 175.219 41.9602V42.4432C175.219 42.8551 175.29 43.2043 175.432 43.4908C175.576 43.7749 175.776 43.9915 176.032 44.1406C176.287 44.2874 176.585 44.3608 176.923 44.3608C177.143 44.3608 177.342 44.33 177.52 44.2685C177.7 44.2045 177.855 44.1098 177.985 43.9844C178.115 43.8565 178.216 43.6979 178.287 43.5085L179.096 43.7358C179.011 44.0104 178.868 44.2519 178.667 44.4602C178.465 44.6662 178.217 44.8272 177.921 44.9432C177.625 45.0568 177.292 45.1136 176.923 45.1136Z"
          fill="#9DA9BB"/>
    <defs>
        <linearGradient id="paint0_linear_5900_39362" x1="96" y1="32.8004" x2="8.72912" y2="3.34066"
                        gradientUnits="userSpaceOnUse">
            <stop stop-color="#FF0050"/>
            <stop offset="0.714448" stop-color="#7000FF"/>
            <stop offset="1" stop-color="#0027FF"/>
        </linearGradient>
    </defs>
</svg>
