<svg width="236" height="64" viewBox="0 0 236 64" fill="none" xmlns="http://www.w3.org/2000/svg">
<g clip-path="url(#clip0_13417_74848)">
<path d="M31.25 51.5L8.75 51.5C4.19365 51.5 0.5 47.8063 0.500001 43.25L0.500003 20.75C0.500003 16.1937 4.19365 12.5 8.75 12.5L31.25 12.5C35.8064 12.5 39.5 16.1937 39.5 20.75L39.5 43.25C39.5 47.8063 35.8063 51.5 31.25 51.5Z" fill="black"/>
<path d="M31.25 51.5L8.75 51.5C4.19365 51.5 0.5 47.8063 0.500001 43.25L0.500003 20.75C0.500003 16.1937 4.19365 12.5 8.75 12.5L31.25 12.5C35.8064 12.5 39.5 16.1937 39.5 20.75L39.5 43.25C39.5 47.8063 35.8063 51.5 31.25 51.5Z" fill="url(#paint0_linear_13417_74848)"/>
<path d="M31.25 51.5L8.75 51.5C4.19365 51.5 0.5 47.8063 0.500001 43.25L0.500003 20.75C0.500003 16.1937 4.19365 12.5 8.75 12.5L31.25 12.5C35.8064 12.5 39.5 16.1937 39.5 20.75L39.5 43.25C39.5 47.8063 35.8063 51.5 31.25 51.5Z" stroke="#272A3A"/>
<path d="M29.6528 25.2446C30.2727 25.2446 30.7753 25.7605 30.7753 26.3968C30.7753 27.0331 30.2727 27.5489 29.6528 27.5489L29.6919 27.5479L28.3201 29.6597L28.3051 29.6825C27.9911 30.1496 27.4731 30.4293 26.9191 30.4293L25.2566 30.4291C25.4123 30.7949 25.5321 31.1805 25.6114 31.5812L29.1462 31.5814L29.1644 31.5811C29.3451 31.5752 29.5125 31.48 29.6133 31.3249L30.9338 29.2917C30.8332 29.1189 30.7753 28.9169 30.7753 28.7011C30.7753 28.0648 31.2779 27.5489 31.8979 27.5489C32.5179 27.5489 33.0205 28.0648 33.0205 28.7011C33.0205 29.3374 32.5179 29.8532 31.8979 29.8532L31.9187 29.8525L30.5473 31.964L30.5323 31.9867C30.2183 32.4539 29.7003 32.7336 29.1462 32.7336H25.7237C25.7237 33.1282 25.6851 33.5135 25.6114 33.8858L29.1462 33.8857C29.7003 33.8857 30.2183 34.1654 30.5323 34.6325L30.5473 34.6553L31.9187 36.7666L31.9523 36.7674C32.547 36.7965 33.0205 37.3006 33.0205 37.9182C33.0205 38.5545 32.5179 39.0704 31.8979 39.0704C31.2779 39.0704 30.7753 38.5545 30.7753 37.9182C30.7753 37.7024 30.8332 37.5005 30.9338 37.3278L29.6133 35.2944C29.5125 35.1393 29.3451 35.0441 29.1644 35.0382L29.1462 35.0379L25.2567 35.0378C25.0816 35.4492 24.861 35.8355 24.6015 36.19L26.9011 36.19C27.4551 36.19 27.9731 36.4697 28.2871 36.9368L28.3021 36.9596L29.6734 39.0708L29.7072 39.0717C30.3019 39.1008 30.7753 39.6049 30.7753 40.2225C30.7753 40.8588 30.2727 41.3747 29.6528 41.3747C29.0328 41.3747 28.5302 40.8588 28.5302 40.2225C28.5302 40.0067 28.588 39.8046 28.6887 39.6319L27.3681 37.5987C27.2674 37.4436 27.1 37.3484 26.9192 37.3425L26.9011 37.3422L23.4789 37.3424C22.5407 38.0657 21.3745 38.4943 20.1108 38.4943C18.8472 38.4943 17.6811 38.0657 16.743 37.3425L13.3587 37.3422L13.3406 37.3425C13.1598 37.3484 12.9924 37.4436 12.8917 37.5987L11.5711 39.6319C11.6717 39.8046 11.7296 40.0067 11.7296 40.2225C11.7296 40.8588 11.227 41.3747 10.607 41.3747C9.98702 41.3747 9.48442 40.8588 9.48442 40.2225C9.48442 39.5862 9.98702 39.0704 10.607 39.0704L10.5861 39.0708L11.9576 36.9596L11.9727 36.9368C12.2866 36.4697 12.8046 36.19 13.3587 36.19L15.6201 36.19C15.3606 35.8355 15.14 35.4492 14.9649 35.0378L11.1135 35.0379L11.0954 35.0382C10.9146 35.0441 10.7472 35.1393 10.6465 35.2944L9.326 37.3278C9.4266 37.5005 9.48442 37.7024 9.48442 37.9182C9.48442 38.5545 8.98182 39.0704 8.36184 39.0704C7.74185 39.0704 7.23926 38.5545 7.23926 37.9182C7.23926 37.2819 7.74185 36.7661 8.36184 36.7661L8.34082 36.7666L9.71246 34.6553L9.72749 34.6325C10.0415 34.1654 10.5595 33.8857 11.1135 33.8857L14.6102 33.8858C14.5366 33.5135 14.4979 33.1282 14.4979 32.7336H11.1135C10.5595 32.7336 10.0415 32.4539 9.72749 31.9867L9.71246 31.964L8.34082 29.8525L8.30745 29.8519C7.71273 29.8228 7.23926 29.3187 7.23926 28.7011C7.23926 28.0648 7.74185 27.5489 8.36184 27.5489C8.98182 27.5489 9.48442 28.0648 9.48442 28.7011C9.48442 28.9169 9.42657 29.1189 9.32592 29.2917L10.6465 31.3249C10.7472 31.48 10.9146 31.5752 11.0954 31.5811L11.1135 31.5814L14.6102 31.5812C14.6895 31.1805 14.8093 30.7949 14.965 30.4291L13.3407 30.4293C12.7866 30.4293 12.2686 30.1496 11.9547 29.6825L11.9396 29.6597L10.5676 27.5479L10.5526 27.5476C9.95789 27.5185 9.48442 27.0144 9.48442 26.3968C9.48442 25.7605 9.98702 25.2446 10.607 25.2446C11.227 25.2446 11.7296 25.7605 11.7296 26.3968C11.7296 26.6186 11.6685 26.8259 11.5626 27.0017L12.8737 29.0206C12.9744 29.1757 13.1418 29.2709 13.3226 29.2768L13.3407 29.2771L15.6201 29.2771C16.6441 27.8779 18.2745 26.9728 20.1108 26.9728C21.9471 26.9728 23.5775 27.8779 24.6015 29.2771L26.9191 29.2771L26.9372 29.2768C27.118 29.2709 27.2853 29.1757 27.3861 29.0206L28.6972 27.0017C28.5913 26.8259 28.5302 26.6186 28.5302 26.3968C28.5302 25.7605 29.0328 25.2446 29.6528 25.2446ZM20.1108 28.125C17.6309 28.125 15.6205 30.1883 15.6205 32.7336C15.6205 35.2788 17.6309 37.3422 20.1108 37.3422C22.5908 37.3422 24.6011 35.2788 24.6011 32.7336C24.6011 30.1883 22.5908 28.125 20.1108 28.125ZM20.1108 29.2771C21.9708 29.2771 23.4786 30.8246 23.4786 32.7336C23.4786 34.6425 21.9708 36.19 20.1108 36.19C18.2509 36.19 16.7431 34.6425 16.7431 32.7336C16.7431 30.8246 18.2509 29.2771 20.1108 29.2771ZM24.0398 22.3643L24.106 22.3652C25.3154 22.4012 26.285 23.4187 26.285 24.6686C26.285 25.9412 25.2798 26.9728 24.0398 26.9728C22.7999 26.9728 21.7947 25.9412 21.7947 24.6686C21.7947 24.0322 22.046 23.4562 22.4523 23.0392L24.0398 24.6686V22.3643ZM16.1818 22.3643V24.6686L17.4273 22.7511C18.03 23.1643 18.4269 23.8688 18.4269 24.6686C18.4269 25.9412 17.4217 26.9728 16.1818 26.9728C14.9418 26.9728 13.9366 25.9412 13.9366 24.6686C13.9366 23.3959 14.9418 22.3643 16.1818 22.3643Z" fill="white"/>
</g>
<path d="M60.36 31.24C58.9333 31.24 57.64 30.9333 56.48 30.32C55.3333 29.6933 54.4267 28.8333 53.76 27.74C53.1067 26.6333 52.78 25.3867 52.78 24C52.78 22.6133 53.1067 21.3733 53.76 20.28C54.4267 19.1733 55.3333 18.3133 56.48 17.7C57.64 17.0733 58.94 16.76 60.38 16.76C61.5933 16.76 62.6867 16.9733 63.66 17.4C64.6467 17.8267 65.4733 18.44 66.14 19.24L64.06 21.16C63.1133 20.0667 61.94 19.52 60.54 19.52C59.6733 19.52 58.9 19.7133 58.22 20.1C57.54 20.4733 57.0067 21 56.62 21.68C56.2467 22.36 56.06 23.1333 56.06 24C56.06 24.8667 56.2467 25.64 56.62 26.32C57.0067 27 57.54 27.5333 58.22 27.92C58.9 28.2933 59.6733 28.48 60.54 28.48C61.94 28.48 63.1133 27.9267 64.06 26.82L66.14 28.74C65.4733 29.5533 64.6467 30.1733 63.66 30.6C62.6733 31.0267 61.5733 31.24 60.36 31.24ZM71.088 21.66C71.4613 21.14 71.9613 20.7467 72.588 20.48C73.228 20.2133 73.9613 20.08 74.788 20.08V22.96C74.4413 22.9333 74.208 22.92 74.088 22.92C73.1946 22.92 72.4946 23.1733 71.988 23.68C71.4813 24.1733 71.228 24.92 71.228 25.92V31H68.108V20.24H71.088V21.66ZM80.9245 20.08C82.5912 20.08 83.8712 20.48 84.7645 21.28C85.6579 22.0667 86.1045 23.26 86.1045 24.86V31H83.1845V29.66C82.5979 30.66 81.5045 31.16 79.9045 31.16C79.0779 31.16 78.3579 31.02 77.7445 30.74C77.1445 30.46 76.6845 30.0733 76.3645 29.58C76.0445 29.0867 75.8845 28.5267 75.8845 27.9C75.8845 26.9 76.2579 26.1133 77.0045 25.54C77.7645 24.9667 78.9312 24.68 80.5045 24.68H82.9845C82.9845 24 82.7779 23.48 82.3645 23.12C81.9512 22.7467 81.3312 22.56 80.5045 22.56C79.9312 22.56 79.3645 22.6533 78.8045 22.84C78.2579 23.0133 77.7912 23.2533 77.4045 23.56L76.2845 21.38C76.8712 20.9667 77.5712 20.6467 78.3845 20.42C79.2112 20.1933 80.0579 20.08 80.9245 20.08ZM80.6845 29.06C81.2179 29.06 81.6912 28.94 82.1045 28.7C82.5179 28.4467 82.8112 28.08 82.9845 27.6V26.5H80.8445C79.5645 26.5 78.9245 26.92 78.9245 27.76C78.9245 28.16 79.0779 28.48 79.3845 28.72C79.7045 28.9467 80.1379 29.06 80.6845 29.06ZM95.2883 20.08C96.2883 20.08 97.1949 20.3133 98.0083 20.78C98.8349 21.2333 99.4816 21.88 99.9483 22.72C100.415 23.5467 100.648 24.5133 100.648 25.62C100.648 26.7267 100.415 27.7 99.9483 28.54C99.4816 29.3667 98.8349 30.0133 98.0083 30.48C97.1949 30.9333 96.2883 31.16 95.2883 31.16C93.8083 31.16 92.6816 30.6933 91.9083 29.76V31H88.9283V16.16H92.0483V21.38C92.8349 20.5133 93.9149 20.08 95.2883 20.08ZM94.7483 28.6C95.5483 28.6 96.2016 28.3333 96.7083 27.8C97.2283 27.2533 97.4883 26.5267 97.4883 25.62C97.4883 24.7133 97.2283 23.9933 96.7083 23.46C96.2016 22.9133 95.5483 22.64 94.7483 22.64C93.9483 22.64 93.2883 22.9133 92.7683 23.46C92.2616 23.9933 92.0083 24.7133 92.0083 25.62C92.0083 26.5267 92.2616 27.2533 92.7683 27.8C93.2883 28.3333 93.9483 28.6 94.7483 28.6Z" fill="white"/>
<path d="M58.8651 42.0298C58.7827 41.7713 58.6719 41.5398 58.5327 41.3352C58.3963 41.1278 58.233 40.9517 58.0426 40.8068C57.8523 40.6591 57.6349 40.5469 57.3906 40.4702C57.1491 40.3935 56.8835 40.3551 56.5938 40.3551C56.1023 40.3551 55.6591 40.4815 55.2642 40.7344C54.8693 40.9872 54.5568 41.358 54.3267 41.8466C54.0994 42.3324 53.9858 42.9276 53.9858 43.6321C53.9858 44.3395 54.1009 44.9375 54.331 45.4261C54.5611 45.9148 54.8764 46.2855 55.277 46.5384C55.6776 46.7912 56.1335 46.9176 56.6449 46.9176C57.1193 46.9176 57.5327 46.821 57.8849 46.6278C58.2401 46.4347 58.5142 46.1619 58.7074 45.8097C58.9034 45.4545 59.0014 45.0369 59.0014 44.5568L59.3423 44.6207H56.8452V43.5341H60.2756V44.527C60.2756 45.2599 60.1193 45.8963 59.8068 46.4361C59.4972 46.973 59.0682 47.3878 58.5199 47.6804C57.9744 47.973 57.3494 48.1193 56.6449 48.1193C55.8551 48.1193 55.1619 47.9375 54.5653 47.5739C53.9716 47.2102 53.5085 46.6946 53.1761 46.027C52.8438 45.3565 52.6776 44.5611 52.6776 43.6406C52.6776 42.9446 52.7741 42.3196 52.9673 41.7656C53.1605 41.2116 53.4318 40.7415 53.7812 40.3551C54.1335 39.9659 54.5469 39.669 55.0213 39.4645C55.4986 39.2571 56.0199 39.1534 56.5852 39.1534C57.0568 39.1534 57.4957 39.223 57.902 39.3622C58.3111 39.5014 58.6747 39.6989 58.9929 39.9545C59.3139 40.2102 59.5795 40.5142 59.7898 40.8665C60 41.2159 60.142 41.6037 60.2159 42.0298H58.8651ZM64.6019 48.1321C63.9883 48.1321 63.4528 47.9915 62.9954 47.7102C62.538 47.429 62.1829 47.0355 61.93 46.5298C61.6772 46.0241 61.5508 45.4332 61.5508 44.7571C61.5508 44.0781 61.6772 43.4844 61.93 42.9759C62.1829 42.4673 62.538 42.0724 62.9954 41.7912C63.4528 41.5099 63.9883 41.3693 64.6019 41.3693C65.2156 41.3693 65.7511 41.5099 66.2085 41.7912C66.6658 42.0724 67.021 42.4673 67.2738 42.9759C67.5266 43.4844 67.6531 44.0781 67.6531 44.7571C67.6531 45.4332 67.5266 46.0241 67.2738 46.5298C67.021 47.0355 66.6658 47.429 66.2085 47.7102C65.7511 47.9915 65.2156 48.1321 64.6019 48.1321ZM64.6062 47.0625C65.0039 47.0625 65.3335 46.9574 65.5948 46.7472C65.8562 46.5369 66.0494 46.2571 66.1744 45.9077C66.3022 45.5582 66.3661 45.1733 66.3661 44.7528C66.3661 44.3352 66.3022 43.9517 66.1744 43.6023C66.0494 43.25 65.8562 42.9673 65.5948 42.7543C65.3335 42.5412 65.0039 42.4347 64.6062 42.4347C64.2056 42.4347 63.8732 42.5412 63.609 42.7543C63.3477 42.9673 63.1531 43.25 63.0252 43.6023C62.9002 43.9517 62.8377 44.3352 62.8377 44.7528C62.8377 45.1733 62.9002 45.5582 63.0252 45.9077C63.1531 46.2571 63.3477 46.5369 63.609 46.7472C63.8732 46.9574 64.2056 47.0625 64.6062 47.0625ZM74.4521 41.4545L72.0785 48H70.7148L68.337 41.4545H69.7049L71.3626 46.4915H71.4308L73.0842 41.4545H74.4521ZM78.2479 48.1321C77.603 48.1321 77.0476 47.9943 76.5817 47.7188C76.1186 47.4403 75.7607 47.0497 75.5078 46.5469C75.2578 46.0412 75.1328 45.4489 75.1328 44.7699C75.1328 44.0994 75.2578 43.5085 75.5078 42.9972C75.7607 42.4858 76.1129 42.0866 76.5646 41.7997C77.0192 41.5128 77.5504 41.3693 78.1584 41.3693C78.5277 41.3693 78.8857 41.4304 79.2322 41.5526C79.5788 41.6747 79.8899 41.8665 80.1655 42.1278C80.4411 42.3892 80.6584 42.7287 80.8175 43.1463C80.9766 43.5611 81.0561 44.0653 81.0561 44.6591V45.1108H75.853V44.1562H79.8075C79.8075 43.821 79.7393 43.5241 79.603 43.2656C79.4666 43.0043 79.2749 42.7983 79.0277 42.6477C78.7834 42.4972 78.4964 42.4219 78.1669 42.4219C77.8089 42.4219 77.4964 42.5099 77.2294 42.6861C76.9652 42.8594 76.7607 43.0866 76.6158 43.3679C76.4737 43.6463 76.4027 43.9489 76.4027 44.2756V45.0213C76.4027 45.4588 76.4794 45.831 76.6328 46.1378C76.7891 46.4446 77.0064 46.679 77.2848 46.8409C77.5632 47 77.8885 47.0795 78.2607 47.0795C78.5021 47.0795 78.7223 47.0455 78.9212 46.9773C79.12 46.9062 79.2919 46.8011 79.4368 46.6619C79.5817 46.5227 79.6925 46.3509 79.7692 46.1463L80.9751 46.3636C80.8786 46.7187 80.7053 47.0298 80.4553 47.2969C80.2081 47.5611 79.897 47.767 79.522 47.9148C79.1499 48.0597 78.7251 48.1321 78.2479 48.1321ZM82.4698 48V41.4545H83.7013V42.4943H83.7695C83.8888 42.142 84.0991 41.8651 84.4002 41.6634C84.7042 41.4588 85.0479 41.3565 85.4315 41.3565C85.511 41.3565 85.6048 41.3594 85.7127 41.3651C85.8235 41.3707 85.9102 41.3778 85.9727 41.3864V42.6051C85.9215 42.5909 85.8306 42.5753 85.6999 42.5582C85.5692 42.5384 85.4386 42.5284 85.3079 42.5284C85.0067 42.5284 84.7383 42.5923 84.5025 42.7202C84.2695 42.8452 84.0849 43.0199 83.9485 43.2443C83.8121 43.4659 83.744 43.7187 83.744 44.0028V48H82.4698ZM88.3494 44.1136V48H87.0753V41.4545H88.2983V42.5199H88.3793C88.5298 42.1733 88.7656 41.8949 89.0866 41.6847C89.4105 41.4744 89.8182 41.3693 90.3097 41.3693C90.7557 41.3693 91.1463 41.4631 91.4815 41.6506C91.8168 41.8352 92.0767 42.1108 92.2614 42.4773C92.446 42.8437 92.5384 43.2969 92.5384 43.8366V48H91.2642V43.9901C91.2642 43.5156 91.1406 43.1449 90.8935 42.8778C90.6463 42.608 90.3068 42.473 89.875 42.473C89.5795 42.473 89.3168 42.5369 89.0866 42.6648C88.8594 42.7926 88.679 42.9801 88.5455 43.2273C88.4148 43.4716 88.3494 43.767 88.3494 44.1136ZM96.152 48.1449C95.7372 48.1449 95.3622 48.0682 95.027 47.9148C94.6918 47.7585 94.4261 47.5327 94.2301 47.2372C94.0369 46.9418 93.9403 46.5795 93.9403 46.1506C93.9403 45.7812 94.0114 45.4773 94.1534 45.2386C94.2955 45 94.4872 44.8111 94.7287 44.6719C94.9702 44.5327 95.2401 44.4276 95.5384 44.3565C95.8366 44.2855 96.1406 44.2315 96.4503 44.1946C96.8423 44.1491 97.1605 44.1122 97.4048 44.0838C97.6491 44.0526 97.8267 44.0028 97.9375 43.9347C98.0483 43.8665 98.1037 43.7557 98.1037 43.6023V43.5724C98.1037 43.2003 97.9986 42.9119 97.7884 42.7074C97.581 42.5028 97.2713 42.4006 96.8594 42.4006C96.4304 42.4006 96.0923 42.4957 95.8452 42.6861C95.6009 42.8736 95.4318 43.0824 95.3381 43.3125L94.1406 43.0398C94.2827 42.642 94.4901 42.321 94.7628 42.0767C95.0384 41.8295 95.3551 41.6506 95.7131 41.5398C96.071 41.4261 96.4474 41.3693 96.8423 41.3693C97.1037 41.3693 97.3807 41.4006 97.6733 41.4631C97.9688 41.5227 98.2443 41.6335 98.5 41.7955C98.7585 41.9574 98.9702 42.1889 99.1349 42.4901C99.2997 42.7884 99.3821 43.1761 99.3821 43.6534V48H98.1378V47.1051H98.0866C98.0043 47.2699 97.8807 47.4318 97.7159 47.5909C97.5511 47.75 97.3395 47.8821 97.081 47.9872C96.8224 48.0923 96.5128 48.1449 96.152 48.1449ZM96.429 47.1222C96.7813 47.1222 97.0824 47.0526 97.3324 46.9134C97.5852 46.7741 97.777 46.5923 97.9077 46.3679C98.0412 46.1406 98.108 45.8977 98.108 45.6392V44.7955C98.0625 44.8409 97.9744 44.8835 97.8438 44.9233C97.7159 44.9602 97.5696 44.9929 97.4048 45.0213C97.2401 45.0469 97.0795 45.071 96.9233 45.0938C96.767 45.1136 96.6364 45.1307 96.5312 45.1449C96.2841 45.1761 96.0582 45.2287 95.8537 45.3026C95.652 45.3764 95.4901 45.483 95.3679 45.6222C95.2486 45.7585 95.1889 45.9403 95.1889 46.1676C95.1889 46.483 95.3054 46.7216 95.5384 46.8835C95.7713 47.0426 96.0682 47.1222 96.429 47.1222ZM102.353 44.1136V48H101.079V41.4545H102.302V42.5199H102.383C102.534 42.1733 102.77 41.8949 103.091 41.6847C103.414 41.4744 103.822 41.3693 104.314 41.3693C104.76 41.3693 105.15 41.4631 105.485 41.6506C105.821 41.8352 106.081 42.1108 106.265 42.4773C106.45 42.8437 106.542 43.2969 106.542 43.8366V48H105.268V43.9901C105.268 43.5156 105.145 43.1449 104.897 42.8778C104.65 42.608 104.311 42.473 103.879 42.473C103.583 42.473 103.321 42.5369 103.091 42.6648C102.863 42.7926 102.683 42.9801 102.549 43.2273C102.419 43.4716 102.353 43.767 102.353 44.1136ZM111.008 48.1321C110.375 48.1321 109.829 47.9886 109.372 47.7017C108.917 47.4119 108.568 47.0128 108.324 46.5043C108.079 45.9957 107.957 45.4134 107.957 44.7571C107.957 44.0923 108.082 43.5057 108.332 42.9972C108.582 42.4858 108.934 42.0866 109.389 41.7997C109.843 41.5128 110.379 41.3693 110.995 41.3693C111.493 41.3693 111.936 41.4616 112.325 41.6463C112.714 41.8281 113.028 42.0838 113.267 42.4134C113.508 42.7429 113.652 43.1278 113.697 43.5682H112.457C112.389 43.2614 112.233 42.9972 111.988 42.7756C111.747 42.554 111.423 42.4432 111.017 42.4432C110.662 42.4432 110.35 42.5369 110.083 42.7244C109.819 42.9091 109.613 43.1733 109.466 43.517C109.318 43.858 109.244 44.2614 109.244 44.7273C109.244 45.2045 109.316 45.6165 109.461 45.9631C109.606 46.3097 109.811 46.5781 110.075 46.7685C110.342 46.9588 110.656 47.054 111.017 47.054C111.258 47.054 111.477 47.0099 111.673 46.9219C111.872 46.831 112.038 46.7017 112.172 46.5341C112.308 46.3665 112.403 46.1648 112.457 45.929H113.697C113.652 46.3523 113.514 46.7301 113.284 47.0625C113.054 47.3949 112.745 47.6562 112.359 47.8466C111.975 48.0369 111.525 48.1321 111.008 48.1321ZM117.881 48.1321C117.236 48.1321 116.68 47.9943 116.214 47.7188C115.751 47.4403 115.393 47.0497 115.141 46.5469C114.891 46.0412 114.766 45.4489 114.766 44.7699C114.766 44.0994 114.891 43.5085 115.141 42.9972C115.393 42.4858 115.746 42.0866 116.197 41.7997C116.652 41.5128 117.183 41.3693 117.791 41.3693C118.161 41.3693 118.518 41.4304 118.865 41.5526C119.212 41.6747 119.523 41.8665 119.798 42.1278C120.074 42.3892 120.291 42.7287 120.45 43.1463C120.609 43.5611 120.689 44.0653 120.689 44.6591V45.1108H115.486V44.1562H119.44C119.44 43.821 119.372 43.5241 119.236 43.2656C119.099 43.0043 118.908 42.7983 118.661 42.6477C118.416 42.4972 118.129 42.4219 117.8 42.4219C117.442 42.4219 117.129 42.5099 116.862 42.6861C116.598 42.8594 116.393 43.0866 116.249 43.3679C116.107 43.6463 116.036 43.9489 116.036 44.2756V45.0213C116.036 45.4588 116.112 45.831 116.266 46.1378C116.422 46.4446 116.639 46.679 116.918 46.8409C117.196 47 117.521 47.0795 117.893 47.0795C118.135 47.0795 118.355 47.0455 118.554 46.9773C118.753 46.9062 118.925 46.8011 119.07 46.6619C119.214 46.5227 119.325 46.3509 119.402 46.1463L120.608 46.3636C120.511 46.7187 120.338 47.0298 120.088 47.2969C119.841 47.5611 119.53 47.767 119.155 47.9148C118.783 48.0597 118.358 48.1321 117.881 48.1321ZM125.381 48V39.2727H126.655V42.5156H126.732C126.805 42.3793 126.912 42.2216 127.051 42.0426C127.19 41.8636 127.384 41.7074 127.631 41.5739C127.878 41.4375 128.205 41.3693 128.611 41.3693C129.139 41.3693 129.611 41.5028 130.026 41.7699C130.44 42.0369 130.766 42.4219 131.001 42.9247C131.24 43.4276 131.359 44.0327 131.359 44.7401C131.359 45.4474 131.241 46.054 131.006 46.5597C130.77 47.0625 130.446 47.4503 130.034 47.723C129.622 47.9929 129.152 48.1278 128.624 48.1278C128.226 48.1278 127.901 48.0611 127.648 47.9276C127.398 47.794 127.202 47.6378 127.06 47.4588C126.918 47.2798 126.808 47.1207 126.732 46.9815H126.625V48H125.381ZM126.629 44.7273C126.629 45.1875 126.696 45.5909 126.83 45.9375C126.963 46.2841 127.156 46.5554 127.409 46.7514C127.662 46.9446 127.972 47.0412 128.338 47.0412C128.719 47.0412 129.037 46.9403 129.293 46.7386C129.548 46.5341 129.741 46.2571 129.872 45.9077C130.006 45.5582 130.072 45.1648 130.072 44.7273C130.072 44.2955 130.007 43.9077 129.876 43.5639C129.749 43.2202 129.555 42.9489 129.297 42.75C129.041 42.5511 128.722 42.4517 128.338 42.4517C127.969 42.4517 127.656 42.5469 127.401 42.7372C127.148 42.9276 126.956 43.1932 126.825 43.5341C126.695 43.875 126.629 44.2727 126.629 44.7273ZM133.373 50.4545C133.183 50.4545 133.009 50.4389 132.853 50.4077C132.697 50.3793 132.58 50.348 132.504 50.3139L132.81 49.2699C133.043 49.3324 133.251 49.3594 133.433 49.3509C133.614 49.3423 133.775 49.2741 133.914 49.1463C134.056 49.0185 134.181 48.8097 134.289 48.5199L134.447 48.0852L132.052 41.4545H133.415L135.073 46.5341H135.141L136.799 41.4545H138.167L135.469 48.8736C135.344 49.2145 135.185 49.5028 134.992 49.7386C134.799 49.9773 134.569 50.1563 134.302 50.2756C134.035 50.3949 133.725 50.4545 133.373 50.4545ZM147.402 41.5653C147.357 41.1619 147.169 40.8494 146.84 40.6278C146.51 40.4034 146.096 40.2912 145.596 40.2912C145.238 40.2912 144.928 40.348 144.667 40.4616C144.405 40.5724 144.202 40.7259 144.057 40.9219C143.915 41.1151 143.844 41.3352 143.844 41.5824C143.844 41.7898 143.892 41.9687 143.989 42.1193C144.088 42.2699 144.218 42.3963 144.377 42.4986C144.539 42.598 144.712 42.6818 144.897 42.75C145.081 42.8153 145.259 42.8693 145.429 42.9119L146.282 43.1335C146.56 43.2017 146.846 43.294 147.138 43.4105C147.431 43.527 147.702 43.6804 147.952 43.8707C148.202 44.0611 148.404 44.2969 148.557 44.5781C148.713 44.8594 148.792 45.196 148.792 45.5881C148.792 46.0824 148.664 46.5213 148.408 46.9048C148.155 47.2884 147.787 47.5909 147.304 47.8125C146.824 48.0341 146.243 48.1449 145.561 48.1449C144.908 48.1449 144.343 48.0412 143.865 47.8338C143.388 47.6264 143.015 47.3324 142.745 46.9517C142.475 46.5682 142.326 46.1136 142.297 45.5881H143.618C143.644 45.9034 143.746 46.1662 143.925 46.3764C144.107 46.5838 144.338 46.7386 144.62 46.8409C144.904 46.9403 145.215 46.9901 145.553 46.9901C145.925 46.9901 146.256 46.9318 146.546 46.8153C146.838 46.696 147.069 46.5312 147.236 46.321C147.404 46.108 147.488 45.8594 147.488 45.5753C147.488 45.3168 147.414 45.1051 147.266 44.9403C147.121 44.7756 146.924 44.6392 146.674 44.5312C146.426 44.4233 146.147 44.3281 145.834 44.2457L144.803 43.9645C144.104 43.7741 143.55 43.4943 143.141 43.125C142.735 42.7557 142.532 42.267 142.532 41.6591C142.532 41.1562 142.668 40.7173 142.941 40.3423C143.213 39.9673 143.583 39.6761 144.049 39.4688C144.515 39.2585 145.04 39.1534 145.625 39.1534C146.216 39.1534 146.738 39.2571 147.189 39.4645C147.644 39.6719 148.002 39.9574 148.263 40.321C148.525 40.6818 148.661 41.0966 148.672 41.5653H147.402ZM154.409 45.2855V41.4545H155.688V48H154.435V46.8665H154.366C154.216 47.2159 153.974 47.5071 153.642 47.7401C153.313 47.9702 152.902 48.0852 152.411 48.0852C151.99 48.0852 151.618 47.9929 151.294 47.8082C150.973 47.6207 150.72 47.3438 150.536 46.9773C150.354 46.6108 150.263 46.1577 150.263 45.6179V41.4545H151.537V45.4645C151.537 45.9105 151.661 46.2656 151.908 46.5298C152.155 46.794 152.476 46.9261 152.871 46.9261C153.109 46.9261 153.347 46.8665 153.582 46.7472C153.821 46.6278 154.018 46.4474 154.175 46.206C154.334 45.9645 154.412 45.6577 154.409 45.2855ZM157.502 48V39.2727H158.776V42.5156H158.853C158.926 42.3793 159.033 42.2216 159.172 42.0426C159.311 41.8636 159.505 41.7074 159.752 41.5739C159.999 41.4375 160.326 41.3693 160.732 41.3693C161.26 41.3693 161.732 41.5028 162.147 41.7699C162.561 42.0369 162.887 42.4219 163.123 42.9247C163.361 43.4276 163.48 44.0327 163.48 44.7401C163.48 45.4474 163.363 46.054 163.127 46.5597C162.891 47.0625 162.567 47.4503 162.155 47.723C161.743 47.9929 161.273 48.1278 160.745 48.1278C160.347 48.1278 160.022 48.0611 159.769 47.9276C159.519 47.794 159.323 47.6378 159.181 47.4588C159.039 47.2798 158.929 47.1207 158.853 46.9815H158.746V48H157.502ZM158.75 44.7273C158.75 45.1875 158.817 45.5909 158.951 45.9375C159.084 46.2841 159.277 46.5554 159.53 46.7514C159.783 46.9446 160.093 47.0412 160.459 47.0412C160.84 47.0412 161.158 46.9403 161.414 46.7386C161.669 46.5341 161.863 46.2571 161.993 45.9077C162.127 45.5582 162.194 45.1648 162.194 44.7273C162.194 44.2955 162.128 43.9077 161.998 43.5639C161.87 43.2202 161.676 42.9489 161.418 42.75C161.162 42.5511 160.843 42.4517 160.459 42.4517C160.09 42.4517 159.777 42.5469 159.522 42.7372C159.269 42.9276 159.077 43.1932 158.946 43.5341C158.816 43.875 158.75 44.2727 158.75 44.7273ZM169.773 41.5653C169.728 41.1619 169.54 40.8494 169.211 40.6278C168.881 40.4034 168.467 40.2912 167.967 40.2912C167.609 40.2912 167.299 40.348 167.038 40.4616C166.776 40.5724 166.573 40.7259 166.428 40.9219C166.286 41.1151 166.215 41.3352 166.215 41.5824C166.215 41.7898 166.263 41.9687 166.36 42.1193C166.46 42.2699 166.589 42.3963 166.748 42.4986C166.91 42.598 167.083 42.6818 167.268 42.75C167.452 42.8153 167.63 42.8693 167.8 42.9119L168.653 43.1335C168.931 43.2017 169.217 43.294 169.509 43.4105C169.802 43.527 170.073 43.6804 170.323 43.8707C170.573 44.0611 170.775 44.2969 170.928 44.5781C171.085 44.8594 171.163 45.196 171.163 45.5881C171.163 46.0824 171.035 46.5213 170.779 46.9048C170.526 47.2884 170.158 47.5909 169.675 47.8125C169.195 48.0341 168.614 48.1449 167.933 48.1449C167.279 48.1449 166.714 48.0412 166.237 47.8338C165.759 47.6264 165.386 47.3324 165.116 46.9517C164.846 46.5682 164.697 46.1136 164.668 45.5881H165.989C166.015 45.9034 166.117 46.1662 166.296 46.3764C166.478 46.5838 166.71 46.7386 166.991 46.8409C167.275 46.9403 167.586 46.9901 167.924 46.9901C168.296 46.9901 168.627 46.9318 168.917 46.8153C169.21 46.696 169.44 46.5312 169.607 46.321C169.775 46.108 169.859 45.8594 169.859 45.5753C169.859 45.3168 169.785 45.1051 169.637 44.9403C169.492 44.7756 169.295 44.6392 169.045 44.5312C168.798 44.4233 168.518 44.3281 168.205 44.2457L167.174 43.9645C166.475 43.7741 165.921 43.4943 165.512 43.125C165.106 42.7557 164.903 42.267 164.903 41.6591C164.903 41.1562 165.039 40.7173 165.312 40.3423C165.585 39.9673 165.954 39.6761 166.42 39.4688C166.886 39.2585 167.411 39.1534 167.996 39.1534C168.587 39.1534 169.109 39.2571 169.56 39.4645C170.015 39.6719 170.373 39.9574 170.634 40.321C170.896 40.6818 171.032 41.0966 171.043 41.5653H169.773ZM177.053 50.4545V46.9815H176.976C176.9 47.1207 176.789 47.2798 176.644 47.4588C176.502 47.6378 176.306 47.794 176.056 47.9276C175.806 48.0611 175.482 48.1278 175.084 48.1278C174.556 48.1278 174.084 47.9929 173.669 47.723C173.257 47.4503 172.934 47.0625 172.698 46.5597C172.465 46.054 172.348 45.4474 172.348 44.7401C172.348 44.0327 172.466 43.4276 172.702 42.9247C172.941 42.4219 173.267 42.0369 173.682 41.7699C174.097 41.5028 174.567 41.3693 175.093 41.3693C175.499 41.3693 175.826 41.4375 176.073 41.5739C176.323 41.7074 176.516 41.8636 176.652 42.0426C176.792 42.2216 176.9 42.3793 176.976 42.5156H177.083V41.4545H178.327V50.4545H177.053ZM175.365 47.0412C175.732 47.0412 176.042 46.9446 176.294 46.7514C176.55 46.5554 176.743 46.2841 176.874 45.9375C177.007 45.5909 177.074 45.1875 177.074 44.7273C177.074 44.2727 177.009 43.875 176.878 43.5341C176.748 43.1932 176.556 42.9276 176.303 42.7372C176.05 42.5469 175.738 42.4517 175.365 42.4517C174.982 42.4517 174.662 42.5511 174.407 42.75C174.151 42.9489 173.958 43.2202 173.827 43.5639C173.699 43.9077 173.635 44.2955 173.635 44.7273C173.635 45.1648 173.701 45.5582 173.831 45.9077C173.962 46.2571 174.155 46.5341 174.411 46.7386C174.669 46.9403 174.988 47.0412 175.365 47.0412ZM184.186 45.2855V41.4545H185.465V48H184.212V46.8665H184.144C183.993 47.2159 183.752 47.5071 183.419 47.7401C183.09 47.9702 182.679 48.0852 182.188 48.0852C181.767 48.0852 181.395 47.9929 181.071 47.8082C180.75 47.6207 180.498 47.3438 180.313 46.9773C180.131 46.6108 180.04 46.1577 180.04 45.6179V41.4545H181.314V45.4645C181.314 45.9105 181.438 46.2656 181.685 46.5298C181.932 46.794 182.253 46.9261 182.648 46.9261C182.887 46.9261 183.124 46.8665 183.36 46.7472C183.598 46.6278 183.796 46.4474 183.952 46.206C184.111 45.9645 184.189 45.6577 184.186 45.2855ZM189.082 48.1449C188.667 48.1449 188.292 48.0682 187.957 47.9148C187.621 47.7585 187.356 47.5327 187.16 47.2372C186.967 46.9418 186.87 46.5795 186.87 46.1506C186.87 45.7812 186.941 45.4773 187.083 45.2386C187.225 45 187.417 44.8111 187.658 44.6719C187.9 44.5327 188.17 44.4276 188.468 44.3565C188.766 44.2855 189.07 44.2315 189.38 44.1946C189.772 44.1491 190.09 44.1122 190.335 44.0838C190.579 44.0526 190.756 44.0028 190.867 43.9347C190.978 43.8665 191.033 43.7557 191.033 43.6023V43.5724C191.033 43.2003 190.928 42.9119 190.718 42.7074C190.511 42.5028 190.201 42.4006 189.789 42.4006C189.36 42.4006 189.022 42.4957 188.775 42.6861C188.531 42.8736 188.362 43.0824 188.268 43.3125L187.07 43.0398C187.212 42.642 187.42 42.321 187.692 42.0767C187.968 41.8295 188.285 41.6506 188.643 41.5398C189.001 41.4261 189.377 41.3693 189.772 41.3693C190.033 41.3693 190.31 41.4006 190.603 41.4631C190.898 41.5227 191.174 41.6335 191.43 41.7955C191.688 41.9574 191.9 42.1889 192.065 42.4901C192.229 42.7884 192.312 43.1761 192.312 43.6534V48H191.067V47.1051H191.016C190.934 47.2699 190.81 47.4318 190.646 47.5909C190.481 47.75 190.269 47.8821 190.011 47.9872C189.752 48.0923 189.442 48.1449 189.082 48.1449ZM189.359 47.1222C189.711 47.1222 190.012 47.0526 190.262 46.9134C190.515 46.7741 190.707 46.5923 190.837 46.3679C190.971 46.1406 191.038 45.8977 191.038 45.6392V44.7955C190.992 44.8409 190.904 44.8835 190.773 44.9233C190.646 44.9602 190.499 44.9929 190.335 45.0213C190.17 45.0469 190.009 45.071 189.853 45.0938C189.697 45.1136 189.566 45.1307 189.461 45.1449C189.214 45.1761 188.988 45.2287 188.783 45.3026C188.582 45.3764 188.42 45.483 188.298 45.6222C188.178 45.7585 188.119 45.9403 188.119 46.1676C188.119 46.483 188.235 46.7216 188.468 46.8835C188.701 47.0426 188.998 47.1222 189.359 47.1222ZM194.009 48V41.4545H195.24V42.4943H195.309C195.428 42.142 195.638 41.8651 195.939 41.6634C196.243 41.4588 196.587 41.3565 196.971 41.3565C197.05 41.3565 197.144 41.3594 197.252 41.3651C197.363 41.3707 197.449 41.3778 197.512 41.3864V42.6051C197.461 42.5909 197.37 42.5753 197.239 42.5582C197.108 42.5384 196.978 42.5284 196.847 42.5284C196.546 42.5284 196.277 42.5923 196.042 42.7202C195.809 42.8452 195.624 43.0199 195.488 43.2443C195.351 43.4659 195.283 43.7187 195.283 44.0028V48H194.009ZM201.201 48.1321C200.556 48.1321 200.001 47.9943 199.535 47.7188C199.072 47.4403 198.714 47.0497 198.461 46.5469C198.211 46.0412 198.086 45.4489 198.086 44.7699C198.086 44.0994 198.211 43.5085 198.461 42.9972C198.714 42.4858 199.066 42.0866 199.518 41.7997C199.972 41.5128 200.504 41.3693 201.112 41.3693C201.481 41.3693 201.839 41.4304 202.185 41.5526C202.532 41.6747 202.843 41.8665 203.119 42.1278C203.394 42.3892 203.612 42.7287 203.771 43.1463C203.93 43.5611 204.009 44.0653 204.009 44.6591V45.1108H198.806V44.1562H202.761C202.761 43.821 202.692 43.5241 202.556 43.2656C202.42 43.0043 202.228 42.7983 201.981 42.6477C201.737 42.4972 201.45 42.4219 201.12 42.4219C200.762 42.4219 200.45 42.5099 200.183 42.6861C199.918 42.8594 199.714 43.0866 199.569 43.3679C199.427 43.6463 199.356 43.9489 199.356 44.2756V45.0213C199.356 45.4588 199.433 45.831 199.586 46.1378C199.742 46.4446 199.96 46.679 200.238 46.8409C200.516 47 200.842 47.0795 201.214 47.0795C201.455 47.0795 201.675 47.0455 201.874 46.9773C202.073 46.9062 202.245 46.8011 202.39 46.6619C202.535 46.5227 202.646 46.3509 202.722 46.1463L203.928 46.3636C203.832 46.7187 203.658 47.0298 203.408 47.2969C203.161 47.5611 202.85 47.767 202.475 47.9148C202.103 48.0597 201.678 48.1321 201.201 48.1321Z" fill="white" fill-opacity="0.2"/>
<defs>
<linearGradient id="paint0_linear_13417_74848" x1="3.49691e-06" y1="12" x2="40" y2="52" gradientUnits="userSpaceOnUse">
<stop stop-color="#FF0050"/>
<stop offset="0.714448" stop-color="#7000FF"/>
<stop offset="1" stop-color="#0027FF"/>
</linearGradient>
<clipPath id="clip0_13417_74848">
<rect width="40" height="40" fill="white" transform="translate(0 12)"/>
</clipPath>
</defs>
</svg>
