<svg width="235" height="64" viewBox="0 0 235 64" fill="none" xmlns="http://www.w3.org/2000/svg">
<g clip-path="url(#clip0_7032_48144)">
<path d="M0.543852 24.6441L10.3023 19.1414C10.6391 18.9512 11.0532 18.9512 11.39 19.1414L17.5361 22.6066C18.1541 22.9538 18.2654 23.7808 17.7617 24.2759L15.679 26.3224C15.3329 26.6635 14.7922 26.7329 14.3657 26.4914L11.3993 24.8192C11.0563 24.626 10.6329 24.626 10.2899 24.8192L0 30.6811V25.5647C0 25.1844 0.207035 24.8343 0.543852 24.6441Z" fill="#FFA940"/>
<path d="M17.5578 39.3778L11.3869 42.8582C11.0501 43.0483 10.636 43.0483 10.3023 42.8582L0.543852 37.3555C0.207034 37.1653 0 36.8152 0 36.4348V31.7954L5.02754 28.949V33.6005C5.02754 33.9808 5.23457 34.3309 5.57139 34.5181L10.3023 37.1864C10.6391 37.3766 11.0532 37.3766 11.3869 37.1864L14.3812 35.4991C14.8076 35.2576 15.3453 35.327 15.6914 35.6681L17.7802 37.7086C18.287 38.2006 18.1758 39.0307 17.5578 39.3778Z" fill="white"/>
<path d="M56.9871 21.5628V35.9791C56.9871 36.9662 56.5637 37.0809 55.6151 37.0809H48.134C47.8096 37.0809 47.5531 36.9873 47.343 36.7941C47.2286 36.6915 47.0402 36.7096 47.0402 35.8071V21.5598H43.2548V36.1934C43.2548 37.422 43.6874 38.4543 44.5403 39.2632C45.3592 40.045 46.5241 40.4404 48.0042 40.4404H55.9921C57.3517 40.4404 58.495 40.0299 59.388 39.218C60.3058 38.3849 60.7693 37.4703 60.7693 35.8523V21.5598L56.9871 21.5628Z" fill="white"/>
<path d="M79.8937 30.5488C79.149 29.767 78.1602 29.3716 76.9489 29.3716H70.0889C69.6656 29.3716 69.3844 29.2871 69.0785 29.0003C68.7818 28.7317 68.7448 28.4389 68.7448 28.0797V26.1448C68.7448 25.7736 68.8066 25.4687 69.0569 25.2182C69.199 25.0793 69.4184 24.9163 70.228 24.9163H80.8733V21.5537H68.8653C67.4531 21.5537 66.3129 22.1363 65.4786 23.2803C65.1325 23.7512 64.9625 24.5511 64.9625 25.7283V29.2327C64.9625 30.3285 65.2499 31.1646 65.8154 31.717C66.4983 32.3931 67.416 32.7372 68.5377 32.7372H75.7499C76.2104 32.7372 76.5441 32.8217 76.7511 32.9877C77.0632 33.2322 77.2115 33.4948 77.2115 33.7937V35.6983C77.2115 36.625 77.0261 36.6099 76.9211 36.7126C76.6522 36.9631 76.2969 37.0838 75.8395 37.0838H64.9471V40.4464H76.575C77.9253 40.4464 79.0347 40.0178 79.869 39.1756C80.6168 38.418 80.9969 37.3585 80.9969 36.0274V33.8208C80.9907 32.4142 80.623 31.3155 79.8937 30.5488Z" fill="white"/>
<path d="M85.5115 21.5598V24.9224H91.8245V40.4404H95.6098V24.9224H102V21.5598H85.5115Z" fill="white"/>
<path d="M39.352 29.3897C39.4478 28.291 39.352 25.7042 39.352 25.7042C39.352 24.0198 38.5826 22.7732 37.0684 22.0005C36.4752 21.6926 35.5759 21.5447 34.3214 21.5447L27.1988 21.5568C26.0709 21.5568 22.7244 21.5447 22.7244 21.5447L24.4332 24.9073H28.271C28.305 24.9073 28.339 24.9073 28.3761 24.9073H33.7899C34.618 24.9073 35.5667 25.0522 35.5667 26.1871V28.9339C35.5667 29.8183 35.1124 30.2138 34.0927 30.2138H29.093H22.7244V40.4585H26.5097V33.5733H32.2603L34.8807 40.4585H39.386C39.386 40.4585 36.7255 33.5009 36.6451 33.3319C36.537 33.1085 37.7637 32.9334 38.5177 32.1335C39.2717 31.3336 39.2562 30.4854 39.352 29.3897Z" fill="white"/>
</g>
<path d="M118 25V37" stroke="#363A4D"/>
<path d="M142.896 24.224H145.264V28.768C144.656 29.2267 143.952 29.5787 143.152 29.824C142.352 30.0693 141.547 30.192 140.736 30.192C139.573 30.192 138.528 29.9467 137.6 29.456C136.672 28.9547 135.941 28.2667 135.408 27.392C134.885 26.5067 134.624 25.5093 134.624 24.4C134.624 23.2907 134.885 22.2987 135.408 21.424C135.941 20.5387 136.677 19.8507 137.616 19.36C138.555 18.8587 139.611 18.608 140.784 18.608C141.765 18.608 142.656 18.7733 143.456 19.104C144.256 19.4347 144.928 19.9147 145.472 20.544L143.808 22.08C143.008 21.2373 142.043 20.816 140.912 20.816C140.197 20.816 139.563 20.9653 139.008 21.264C138.453 21.5627 138.021 21.984 137.712 22.528C137.403 23.072 137.248 23.696 137.248 24.4C137.248 25.0933 137.403 25.712 137.712 26.256C138.021 26.8 138.448 27.2267 138.992 27.536C139.547 27.8347 140.176 27.984 140.88 27.984C141.627 27.984 142.299 27.824 142.896 27.504V24.224ZM151.592 30.128C150.685 30.128 149.869 29.9413 149.144 29.568C148.429 29.184 147.869 28.656 147.464 27.984C147.058 27.312 146.856 26.5493 146.856 25.696C146.856 24.8427 147.058 24.08 147.464 23.408C147.869 22.736 148.429 22.2133 149.144 21.84C149.869 21.456 150.685 21.264 151.592 21.264C152.498 21.264 153.309 21.456 154.024 21.84C154.738 22.2133 155.298 22.736 155.704 23.408C156.109 24.08 156.312 24.8427 156.312 25.696C156.312 26.5493 156.109 27.312 155.704 27.984C155.298 28.656 154.738 29.184 154.024 29.568C153.309 29.9413 152.498 30.128 151.592 30.128ZM151.592 28.08C152.232 28.08 152.754 27.8667 153.16 27.44C153.576 27.0027 153.784 26.4213 153.784 25.696C153.784 24.9707 153.576 24.3947 153.16 23.968C152.754 23.5307 152.232 23.312 151.592 23.312C150.952 23.312 150.424 23.5307 150.008 23.968C149.592 24.3947 149.384 24.9707 149.384 25.696C149.384 26.4213 149.592 27.0027 150.008 27.44C150.424 27.8667 150.952 28.08 151.592 28.08ZM166.29 21.392L162.658 30H160.082L156.466 21.392H159.042L161.426 27.248L163.89 21.392H166.29ZM175.506 25.728C175.506 25.76 175.49 25.984 175.458 26.4H168.946C169.063 26.9333 169.341 27.3547 169.778 27.664C170.215 27.9733 170.759 28.128 171.41 28.128C171.858 28.128 172.253 28.064 172.594 27.936C172.946 27.7973 173.271 27.584 173.57 27.296L174.898 28.736C174.087 29.664 172.903 30.128 171.346 30.128C170.375 30.128 169.517 29.9413 168.77 29.568C168.023 29.184 167.447 28.656 167.042 27.984C166.637 27.312 166.434 26.5493 166.434 25.696C166.434 24.8533 166.631 24.096 167.026 23.424C167.431 22.7413 167.981 22.2133 168.674 21.84C169.378 21.456 170.162 21.264 171.026 21.264C171.869 21.264 172.631 21.4453 173.314 21.808C173.997 22.1707 174.53 22.6933 174.914 23.376C175.309 24.048 175.506 24.832 175.506 25.728ZM171.042 23.152C170.477 23.152 170.002 23.312 169.618 23.632C169.234 23.952 168.999 24.3893 168.914 24.944H173.154C173.069 24.4 172.834 23.968 172.45 23.648C172.066 23.3173 171.597 23.152 171.042 23.152ZM179.552 22.528C179.85 22.112 180.25 21.7973 180.752 21.584C181.264 21.3707 181.85 21.264 182.512 21.264V23.568C182.234 23.5467 182.048 23.536 181.952 23.536C181.237 23.536 180.677 23.7387 180.272 24.144C179.866 24.5387 179.664 25.136 179.664 25.936V30H177.168V21.392H179.552V22.528ZM189.228 21.264C190.294 21.264 191.153 21.584 191.804 22.224C192.465 22.864 192.796 23.8133 192.796 25.072V30H190.3V25.456C190.3 24.7733 190.15 24.2667 189.852 23.936C189.553 23.5947 189.121 23.424 188.556 23.424C187.926 23.424 187.425 23.6213 187.052 24.016C186.678 24.4 186.492 24.976 186.492 25.744V30H183.996V21.392H186.38V22.4C186.71 22.0373 187.121 21.76 187.612 21.568C188.102 21.3653 188.641 21.264 189.228 21.264ZM198.53 21.264C199.864 21.264 200.888 21.584 201.602 22.224C202.317 22.8533 202.674 23.808 202.674 25.088V30H200.338V28.928C199.869 29.728 198.994 30.128 197.714 30.128C197.053 30.128 196.477 30.016 195.986 29.792C195.506 29.568 195.138 29.2587 194.882 28.864C194.626 28.4693 194.498 28.0213 194.498 27.52C194.498 26.72 194.797 26.0907 195.394 25.632C196.002 25.1733 196.936 24.944 198.194 24.944H200.178C200.178 24.4 200.013 23.984 199.682 23.696C199.352 23.3973 198.856 23.248 198.194 23.248C197.736 23.248 197.282 23.3227 196.834 23.472C196.397 23.6107 196.024 23.8027 195.714 24.048L194.818 22.304C195.288 21.9733 195.848 21.7173 196.498 21.536C197.16 21.3547 197.837 21.264 198.53 21.264ZM198.338 28.448C198.765 28.448 199.144 28.352 199.474 28.16C199.805 27.9573 200.04 27.664 200.178 27.28V26.4H198.466C197.442 26.4 196.93 26.736 196.93 27.408C196.93 27.728 197.053 27.984 197.298 28.176C197.554 28.3573 197.901 28.448 198.338 28.448ZM210.165 21.264C211.232 21.264 212.091 21.584 212.741 22.224C213.403 22.864 213.733 23.8133 213.733 25.072V30H211.237V25.456C211.237 24.7733 211.088 24.2667 210.789 23.936C210.491 23.5947 210.059 23.424 209.493 23.424C208.864 23.424 208.363 23.6213 207.989 24.016C207.616 24.4 207.429 24.976 207.429 25.744V30H204.933V21.392H207.317V22.4C207.648 22.0373 208.059 21.76 208.549 21.568C209.04 21.3653 209.579 21.264 210.165 21.264ZM220.25 30.128C219.332 30.128 218.506 29.9413 217.77 29.568C217.044 29.184 216.474 28.656 216.058 27.984C215.652 27.312 215.45 26.5493 215.45 25.696C215.45 24.8427 215.652 24.08 216.058 23.408C216.474 22.736 217.044 22.2133 217.77 21.84C218.506 21.456 219.332 21.264 220.25 21.264C221.156 21.264 221.946 21.456 222.618 21.84C223.3 22.2133 223.796 22.752 224.106 23.456L222.17 24.496C221.722 23.7067 221.076 23.312 220.234 23.312C219.583 23.312 219.044 23.5253 218.618 23.952C218.191 24.3787 217.978 24.96 217.978 25.696C217.978 26.432 218.191 27.0133 218.618 27.44C219.044 27.8667 219.583 28.08 220.234 28.08C221.087 28.08 221.732 27.6853 222.17 26.896L224.106 27.952C223.796 28.6347 223.3 29.168 222.618 29.552C221.946 29.936 221.156 30.128 220.25 30.128ZM233.865 25.728C233.865 25.76 233.849 25.984 233.817 26.4H227.305C227.423 26.9333 227.7 27.3547 228.137 27.664C228.575 27.9733 229.119 28.128 229.769 28.128C230.217 28.128 230.612 28.064 230.953 27.936C231.305 27.7973 231.631 27.584 231.929 27.296L233.257 28.736C232.447 29.664 231.263 30.128 229.705 30.128C228.735 30.128 227.876 29.9413 227.129 29.568C226.383 29.184 225.807 28.656 225.401 27.984C224.996 27.312 224.793 26.5493 224.793 25.696C224.793 24.8533 224.991 24.096 225.385 23.424C225.791 22.7413 226.34 22.2133 227.033 21.84C227.737 21.456 228.521 21.264 229.385 21.264C230.228 21.264 230.991 21.4453 231.673 21.808C232.356 22.1707 232.889 22.6933 233.273 23.376C233.668 24.048 233.865 24.832 233.865 25.728ZM229.401 23.152C228.836 23.152 228.361 23.312 227.977 23.632C227.593 23.952 227.359 24.3893 227.273 24.944H231.513C231.428 24.4 231.193 23.968 230.809 23.648C230.425 23.3173 229.956 23.152 229.401 23.152Z" fill="white"/>
<path d="M138.858 39.5455C138.815 39.1856 138.643 38.9062 138.339 38.7074C138.036 38.5085 137.665 38.4091 137.224 38.4091C136.902 38.4091 136.621 38.4612 136.379 38.5653C136.14 38.6695 135.953 38.8127 135.818 38.995C135.686 39.1773 135.619 39.3845 135.619 39.6165C135.619 39.8106 135.665 39.9775 135.758 40.1172C135.853 40.2545 135.973 40.3693 136.12 40.4616C136.267 40.5516 136.421 40.6262 136.582 40.6854C136.743 40.7422 136.891 40.7884 137.026 40.8239L137.764 41.0227C137.954 41.0724 138.164 41.1411 138.396 41.2287C138.631 41.3163 138.854 41.4358 139.067 41.5874C139.283 41.7365 139.46 41.9283 139.6 42.1626C139.74 42.397 139.81 42.6847 139.81 43.0256C139.81 43.4186 139.707 43.7737 139.501 44.0909C139.297 44.4081 138.999 44.6603 138.606 44.8473C138.215 45.0343 137.741 45.1278 137.182 45.1278C136.661 45.1278 136.21 45.0438 135.829 44.8757C135.45 44.7076 135.152 44.4732 134.934 44.1726C134.719 43.8719 134.597 43.5227 134.568 43.125H135.477C135.501 43.3996 135.593 43.6269 135.754 43.8068C135.918 43.9844 136.124 44.117 136.372 44.2045C136.623 44.2898 136.893 44.3324 137.182 44.3324C137.518 44.3324 137.82 44.2779 138.087 44.169C138.355 44.0578 138.567 43.9039 138.723 43.7074C138.879 43.5085 138.957 43.2765 138.957 43.0114C138.957 42.7699 138.89 42.5734 138.755 42.4219C138.62 42.2704 138.442 42.1473 138.222 42.0526C138.002 41.9579 137.764 41.875 137.509 41.804L136.614 41.5483C136.045 41.3849 135.596 41.1518 135.264 40.8487C134.933 40.5457 134.767 40.1491 134.767 39.6591C134.767 39.2519 134.877 38.8968 135.097 38.5938C135.32 38.2884 135.618 38.0516 135.992 37.8835C136.369 37.7131 136.789 37.6278 137.253 37.6278C137.722 37.6278 138.138 37.7119 138.503 37.88C138.867 38.0457 139.156 38.273 139.369 38.5618C139.585 38.8506 139.698 39.1785 139.71 39.5455H138.858ZM144.581 42.7699V39.5455H145.42V45H144.581V44.0767H144.525C144.397 44.3537 144.198 44.5893 143.928 44.7834C143.658 44.9751 143.317 45.071 142.905 45.071C142.564 45.071 142.261 44.9964 141.996 44.8473C141.731 44.6958 141.523 44.4685 141.371 44.1655C141.22 43.8601 141.144 43.4754 141.144 43.0114V39.5455H141.982V42.9545C141.982 43.3523 142.093 43.6695 142.316 43.9062C142.541 44.143 142.827 44.2614 143.175 44.2614C143.384 44.2614 143.595 44.2081 143.811 44.1016C144.029 43.995 144.211 43.8317 144.358 43.6115C144.507 43.3913 144.581 43.1108 144.581 42.7699ZM147.068 45V37.7273H147.906V40.4119H147.977C148.039 40.3172 148.124 40.1965 148.233 40.0497C148.344 39.9006 148.503 39.768 148.709 39.652C148.917 39.5336 149.199 39.4744 149.554 39.4744C150.013 39.4744 150.418 39.5893 150.768 39.8189C151.119 40.0485 151.392 40.3741 151.589 40.7955C151.785 41.2169 151.884 41.714 151.884 42.2869C151.884 42.8646 151.785 43.3653 151.589 43.7891C151.392 44.2105 151.12 44.5372 150.772 44.7692C150.424 44.9988 150.023 45.1136 149.568 45.1136C149.218 45.1136 148.937 45.0556 148.727 44.9396C148.516 44.8213 148.354 44.6875 148.24 44.5384C148.126 44.3868 148.039 44.2614 147.977 44.1619H147.878V45H147.068ZM147.892 42.2727C147.892 42.6847 147.952 43.0481 148.073 43.3629C148.194 43.6754 148.37 43.9205 148.602 44.098C148.834 44.2732 149.118 44.3608 149.455 44.3608C149.805 44.3608 150.097 44.2685 150.332 44.0838C150.568 43.8968 150.746 43.6458 150.864 43.331C150.985 43.0137 151.045 42.661 151.045 42.2727C151.045 41.8892 150.986 41.5436 150.868 41.2358C150.752 40.9257 150.576 40.6806 150.339 40.5007C150.104 40.3184 149.81 40.2273 149.455 40.2273C149.114 40.2273 148.827 40.3137 148.595 40.4865C148.363 40.657 148.188 40.8961 148.07 41.2038C147.951 41.5092 147.892 41.8655 147.892 42.2727ZM157.256 39.5455C157.214 39.1856 157.041 38.9062 156.738 38.7074C156.435 38.5085 156.063 38.4091 155.623 38.4091C155.301 38.4091 155.019 38.4612 154.778 38.5653C154.539 38.6695 154.352 38.8127 154.217 38.995C154.084 39.1773 154.018 39.3845 154.018 39.6165C154.018 39.8106 154.064 39.9775 154.156 40.1172C154.251 40.2545 154.372 40.3693 154.518 40.4616C154.665 40.5516 154.819 40.6262 154.98 40.6854C155.141 40.7422 155.289 40.7884 155.424 40.8239L156.163 41.0227C156.352 41.0724 156.563 41.1411 156.795 41.2287C157.029 41.3163 157.253 41.4358 157.466 41.5874C157.681 41.7365 157.859 41.9283 157.999 42.1626C158.138 42.397 158.208 42.6847 158.208 43.0256C158.208 43.4186 158.105 43.7737 157.899 44.0909C157.696 44.4081 157.397 44.6603 157.004 44.8473C156.614 45.0343 156.139 45.1278 155.58 45.1278C155.059 45.1278 154.608 45.0438 154.227 44.8757C153.848 44.7076 153.55 44.4732 153.332 44.1726C153.117 43.8719 152.995 43.5227 152.967 43.125H153.876C153.899 43.3996 153.992 43.6269 154.153 43.8068C154.316 43.9844 154.522 44.117 154.771 44.2045C155.022 44.2898 155.291 44.3324 155.58 44.3324C155.916 44.3324 156.218 44.2779 156.486 44.169C156.753 44.0578 156.965 43.9039 157.121 43.7074C157.278 43.5085 157.356 43.2765 157.356 43.0114C157.356 42.7699 157.288 42.5734 157.153 42.4219C157.018 42.2704 156.841 42.1473 156.621 42.0526C156.401 41.9579 156.163 41.875 155.907 41.804L155.012 41.5483C154.444 41.3849 153.994 41.1518 153.663 40.8487C153.331 40.5457 153.165 40.1491 153.165 39.6591C153.165 39.2519 153.276 38.8968 153.496 38.5938C153.718 38.2884 154.017 38.0516 154.391 37.8835C154.767 37.7131 155.187 37.6278 155.651 37.6278C156.12 37.6278 156.537 37.7119 156.901 37.88C157.266 38.0457 157.555 38.273 157.768 38.5618C157.983 38.8506 158.097 39.1785 158.109 39.5455H157.256ZM163.264 47.0455V44.1619H163.193C163.131 44.2614 163.044 44.3868 162.93 44.5384C162.817 44.6875 162.654 44.8213 162.444 44.9396C162.233 45.0556 161.952 45.1136 161.602 45.1136C161.148 45.1136 160.746 44.9988 160.398 44.7692C160.05 44.5372 159.778 44.2105 159.581 43.7891C159.385 43.3653 159.287 42.8646 159.287 42.2869C159.287 41.714 159.385 41.2169 159.581 40.7955C159.778 40.3741 160.051 40.0485 160.402 39.8189C160.752 39.5893 161.157 39.4744 161.616 39.4744C161.971 39.4744 162.252 39.5336 162.458 39.652C162.666 39.768 162.825 39.9006 162.934 40.0497C163.045 40.1965 163.131 40.3172 163.193 40.4119H163.292V39.5455H164.102V47.0455H163.264ZM161.716 44.3608C162.052 44.3608 162.336 44.2732 162.568 44.098C162.8 43.9205 162.976 43.6754 163.097 43.3629C163.218 43.0481 163.278 42.6847 163.278 42.2727C163.278 41.8655 163.219 41.5092 163.101 41.2038C162.982 40.8961 162.807 40.657 162.575 40.4865C162.343 40.3137 162.057 40.2273 161.716 40.2273C161.361 40.2273 161.065 40.3184 160.828 40.5007C160.594 40.6806 160.417 40.9257 160.299 41.2358C160.183 41.5436 160.125 41.8892 160.125 42.2727C160.125 42.661 160.184 43.0137 160.302 43.331C160.423 43.6458 160.601 43.8968 160.835 44.0838C161.072 44.2685 161.365 44.3608 161.716 44.3608ZM169.074 42.7699V39.5455H169.912V45H169.074V44.0767H169.017C168.889 44.3537 168.69 44.5893 168.42 44.7834C168.15 44.9751 167.809 45.071 167.398 45.071C167.057 45.071 166.754 44.9964 166.488 44.8473C166.223 44.6958 166.015 44.4685 165.863 44.1655C165.712 43.8601 165.636 43.4754 165.636 43.0114V39.5455H166.474V42.9545C166.474 43.3523 166.586 43.6695 166.808 43.9062C167.033 44.143 167.319 44.2614 167.667 44.2614C167.876 44.2614 168.088 44.2081 168.303 44.1016C168.521 43.995 168.703 43.8317 168.85 43.6115C168.999 43.3913 169.074 43.1108 169.074 42.7699ZM173.052 45.1278C172.706 45.1278 172.393 45.0627 172.111 44.9325C171.829 44.8 171.605 44.6094 171.44 44.3608C171.274 44.1098 171.191 43.8068 171.191 43.4517C171.191 43.1392 171.253 42.8859 171.376 42.6918C171.499 42.4953 171.663 42.3414 171.869 42.2301C172.075 42.1188 172.303 42.036 172.551 41.9815C172.802 41.9247 173.054 41.8797 173.308 41.8466C173.639 41.804 173.908 41.772 174.114 41.7507C174.322 41.727 174.473 41.688 174.568 41.6335C174.665 41.5791 174.714 41.4844 174.714 41.3494V41.321C174.714 40.9706 174.618 40.6984 174.426 40.5043C174.237 40.3101 173.949 40.2131 173.563 40.2131C173.163 40.2131 172.849 40.3007 172.622 40.4759C172.395 40.651 172.235 40.8381 172.143 41.0369L171.347 40.7528C171.489 40.4214 171.679 40.1634 171.915 39.9787C172.155 39.7917 172.415 39.6615 172.697 39.5881C172.981 39.5123 173.26 39.4744 173.535 39.4744C173.71 39.4744 173.911 39.4957 174.138 39.5384C174.368 39.5786 174.589 39.6626 174.803 39.7905C175.018 39.9183 175.197 40.1113 175.339 40.3693C175.481 40.6274 175.552 40.973 175.552 41.4062V45H174.714V44.2614H174.671C174.614 44.3797 174.52 44.5064 174.387 44.6413C174.254 44.7763 174.078 44.8911 173.858 44.9858C173.638 45.0805 173.369 45.1278 173.052 45.1278ZM173.18 44.375C173.511 44.375 173.79 44.3099 174.018 44.1797C174.247 44.0495 174.42 43.8814 174.536 43.6754C174.655 43.4695 174.714 43.2528 174.714 43.0256V42.2585C174.678 42.3011 174.6 42.3402 174.479 42.3757C174.361 42.4089 174.224 42.4384 174.067 42.4645C173.914 42.4882 173.763 42.5095 173.616 42.5284C173.472 42.545 173.355 42.5592 173.265 42.571C173.047 42.5994 172.844 42.6456 172.654 42.7095C172.467 42.7711 172.316 42.8646 172.2 42.9901C172.086 43.1132 172.029 43.2812 172.029 43.4943C172.029 43.7855 172.137 44.0057 172.352 44.1548C172.57 44.3016 172.846 44.375 173.18 44.375ZM177.081 45V39.5455H177.891V40.3693H177.948C178.047 40.0994 178.227 39.8804 178.488 39.7124C178.748 39.5443 179.042 39.4602 179.368 39.4602C179.43 39.4602 179.507 39.4614 179.599 39.4638C179.692 39.4661 179.761 39.4697 179.809 39.4744V40.3267C179.78 40.3196 179.715 40.3089 179.613 40.2947C179.514 40.2782 179.409 40.2699 179.297 40.2699C179.032 40.2699 178.796 40.3255 178.587 40.4368C178.381 40.5457 178.218 40.6972 178.097 40.8913C177.979 41.0831 177.92 41.3021 177.92 41.5483V45H177.081ZM182.923 45.1136C182.398 45.1136 181.944 44.9976 181.563 44.7656C181.184 44.5312 180.892 44.2045 180.686 43.7855C180.482 43.3641 180.381 42.8741 180.381 42.3153C180.381 41.7566 180.482 41.2642 180.686 40.8381C180.892 40.4096 181.178 40.0758 181.545 39.8366C181.915 39.5952 182.345 39.4744 182.838 39.4744C183.122 39.4744 183.403 39.5218 183.68 39.6165C183.956 39.7112 184.209 39.8651 184.436 40.0781C184.663 40.2888 184.844 40.5682 184.979 40.9162C185.114 41.2642 185.182 41.6927 185.182 42.2017V42.5568H180.977V41.8324H184.329C184.329 41.5246 184.268 41.25 184.145 41.0085C184.024 40.767 183.851 40.5765 183.626 40.4368C183.404 40.2971 183.141 40.2273 182.838 40.2273C182.504 40.2273 182.215 40.3101 181.971 40.4759C181.73 40.6392 181.544 40.8523 181.414 41.1151C181.284 41.3778 181.219 41.6596 181.219 41.9602V42.4432C181.219 42.8551 181.29 43.2043 181.432 43.4908C181.576 43.7749 181.776 43.9915 182.032 44.1406C182.287 44.2874 182.585 44.3608 182.923 44.3608C183.143 44.3608 183.342 44.33 183.52 44.2685C183.7 44.2045 183.855 44.1098 183.985 43.9844C184.115 43.8565 184.216 43.6979 184.287 43.5085L185.096 43.7358C185.011 44.0104 184.868 44.2519 184.667 44.4602C184.465 44.6662 184.217 44.8272 183.921 44.9432C183.625 45.0568 183.292 45.1136 182.923 45.1136Z" fill="white" fill-opacity="0.25"/>
<defs>
<clipPath id="clip0_7032_48144">
<rect width="102" height="24" fill="white" transform="translate(0 19)"/>
</clipPath>
</defs>
</svg>
