<svg width="265" height="64" viewBox="0 0 265 64" fill="none" xmlns="http://www.w3.org/2000/svg">
<mask id="mask0_7032_48207" style="mask-type:alpha" maskUnits="userSpaceOnUse" x="0" y="23" width="132" height="16">
<path d="M5.78424 24.927C5.78424 25.7601 6.3151 26.4698 7.05826 26.7387V36.7352H3.245L3.24522 26.7387C3.98838 26.4698 4.51924 25.7601 4.51924 24.927C4.51924 23.8627 3.6531 23 2.58478 23C1.5169 23 0.65076 23.8627 0.65076 24.927C0.65076 25.7601 1.18184 26.4698 1.925 26.7387V36.7352H0.66L0.62106 36.7363C0.27478 36.7563 0 37.0425 0 37.3925C0 37.7557 0.29546 38.0503 0.66 38.0503H7.71826L7.88942 38.0492C12.283 38.0036 15.9658 36.2018 17.6834 33.2266C17.7819 33.2398 17.8827 33.2466 17.985 33.2466C19.2304 33.2466 20.24 32.2408 20.24 31C20.24 30.3374 19.952 29.7419 19.494 29.3305C20.1692 28.2116 21.1873 27.2854 22.4583 26.6009V33.663C21.7151 33.9319 21.1842 34.6416 21.1842 35.4747C21.1842 36.5391 22.0504 37.4018 23.1183 37.4018C24.1866 37.4018 25.0525 36.5391 25.0525 35.4747C25.0525 34.6416 24.5214 33.9319 23.7785 33.663V26.0102C24.9214 25.5922 26.2082 25.3402 27.5915 25.2792V35.2613C26.8484 35.53 26.3173 36.2399 26.3173 37.073C26.3173 38.1373 27.1834 39 28.2515 39C29.3198 39 30.186 38.1373 30.186 37.073C30.186 36.2399 29.6551 35.53 28.9117 35.2613L28.9115 25.2648H32.725L32.7252 35.2613C31.9818 35.53 31.451 36.2397 31.451 37.073C31.451 38.1373 32.3169 39 33.385 39C34.4531 39 35.3192 38.1373 35.3192 37.073C35.3192 36.2399 34.7882 35.53 34.0452 35.2613L34.045 25.2648H35.31L35.3487 25.2637C35.6952 25.2437 35.9698 24.9575 35.9698 24.6075C35.9698 24.2443 35.6748 23.9497 35.31 23.9497H28.2515L28.0808 23.9506C23.6867 23.9962 20.0042 25.7982 18.2866 28.7734C18.1881 28.7602 18.0873 28.7534 17.985 28.7534C16.7398 28.7534 15.73 29.7592 15.73 31C15.73 31.6626 16.018 32.2581 16.476 32.6695C15.8008 33.7882 14.7827 34.7146 13.5117 35.3993V28.337C14.2549 28.0681 14.7858 27.3584 14.7858 26.525C14.7858 25.4609 13.9198 24.598 12.8517 24.598C11.7836 24.598 10.9175 25.4609 10.9175 26.525C10.9175 27.3584 11.4484 28.0681 12.1917 28.337V35.9896C11.0486 36.4078 9.76206 36.6601 8.37826 36.7208V26.7387C9.12164 26.4698 9.6525 25.7601 9.6525 24.927C9.6525 23.8627 8.78636 23 7.71826 23C6.65016 23 5.78424 23.8627 5.78424 24.927ZM125.994 25.8081L121.545 36.1507H123.228L126.736 27.7402L130.272 36.1507H131.926L127.477 25.8081H125.994ZM117.002 36.1507H118.685V25.8081H117.002V36.1507ZM111.36 25.8081V33.6788L103.888 25.8081H102.461V36.1507H104.144V28.2802L111.616 36.1507H113.042V25.8081H111.36ZM96.8187 36.1507H98.5013V25.8081H96.8187V36.1507ZM92.1906 25.8081L88.7966 34.1334L85.5169 25.8081H83.7201L85.7164 30.6101L84.3473 34.1334L80.925 25.8081H79.1281L83.5773 36.1507H85.0604L86.572 32.6274L88.0264 36.1507H89.5094L93.9587 25.8081H92.1906ZM68.2704 25.8081V36.1507H69.953V27.2858H74.2025C75.0864 27.2858 75.6855 27.8824 75.6855 28.7633C75.6855 29.6439 75.0864 30.2408 74.2025 30.2408L71.8421 30.2405V31.718L73.7748 31.7182L75.6287 36.1507H77.3681L75.4574 31.5475L75.5242 31.5223C76.6548 31.0789 77.3681 29.9894 77.3681 28.7633C77.3681 27.1438 76.1704 25.8081 74.3736 25.8081H68.2704ZM60.5781 25.8081L56.129 36.1507H57.8116L61.3195 27.7402L64.8562 36.1507H66.5104L62.0613 25.8081H60.5781ZM44.5295 25.8081V36.1507H49.093L49.1792 36.15C52.0212 36.1047 54.369 33.8204 54.369 30.9794C54.369 27.9394 52.116 25.8081 49.093 25.8081H44.5295ZM46.2123 27.2858H49.093C51.1465 27.2858 52.6865 28.9053 52.6865 30.9794C52.6865 33.0537 51.1465 34.6732 49.093 34.6732H46.2123V27.2858Z" fill="white"/>
</mask>
<g mask="url(#mask0_7032_48207)">
<path d="M5.78424 24.927C5.78424 25.7601 6.3151 26.4698 7.05826 26.7387V36.7352H3.245L3.24522 26.7387C3.98838 26.4698 4.51924 25.7601 4.51924 24.927C4.51924 23.8627 3.6531 23 2.58478 23C1.5169 23 0.65076 23.8627 0.65076 24.927C0.65076 25.7601 1.18184 26.4698 1.925 26.7387V36.7352H0.66L0.62106 36.7363C0.27478 36.7563 0 37.0425 0 37.3925C0 37.7557 0.29546 38.0503 0.66 38.0503H7.71826L7.88942 38.0492C12.283 38.0036 15.9658 36.2018 17.6834 33.2266C17.7819 33.2398 17.8827 33.2466 17.985 33.2466C19.2304 33.2466 20.24 32.2408 20.24 31C20.24 30.3374 19.952 29.7419 19.494 29.3305C20.1692 28.2116 21.1873 27.2854 22.4583 26.6009V33.663C21.7151 33.9319 21.1842 34.6416 21.1842 35.4747C21.1842 36.5391 22.0504 37.4018 23.1183 37.4018C24.1866 37.4018 25.0525 36.5391 25.0525 35.4747C25.0525 34.6416 24.5214 33.9319 23.7785 33.663V26.0102C24.9214 25.5922 26.2082 25.3402 27.5915 25.2792V35.2613C26.8484 35.53 26.3173 36.2399 26.3173 37.073C26.3173 38.1373 27.1834 39 28.2515 39C29.3198 39 30.186 38.1373 30.186 37.073C30.186 36.2399 29.6551 35.53 28.9117 35.2613L28.9115 25.2648H32.725L32.7252 35.2613C31.9818 35.53 31.451 36.2397 31.451 37.073C31.451 38.1373 32.3169 39 33.385 39C34.4531 39 35.3192 38.1373 35.3192 37.073C35.3192 36.2399 34.7882 35.53 34.0452 35.2613L34.045 25.2648H35.31L35.3487 25.2637C35.6952 25.2437 35.9698 24.9575 35.9698 24.6075C35.9698 24.2443 35.6748 23.9497 35.31 23.9497H28.2515L28.0808 23.9506C23.6867 23.9962 20.0042 25.7982 18.2866 28.7734C18.1881 28.7602 18.0873 28.7534 17.985 28.7534C16.7398 28.7534 15.73 29.7592 15.73 31C15.73 31.6626 16.018 32.2581 16.476 32.6695C15.8008 33.7882 14.7827 34.7146 13.5117 35.3993V28.337C14.2549 28.0681 14.7858 27.3584 14.7858 26.525C14.7858 25.4609 13.9198 24.598 12.8517 24.598C11.7836 24.598 10.9175 25.4609 10.9175 26.525C10.9175 27.3584 11.4484 28.0681 12.1917 28.337V35.9896C11.0486 36.4078 9.76206 36.6601 8.37826 36.7208V26.7387C9.12164 26.4698 9.6525 25.7601 9.6525 24.927C9.6525 23.8627 8.78636 23 7.71826 23C6.65016 23 5.78424 23.8627 5.78424 24.927ZM125.994 25.8081L121.545 36.1507H123.228L126.736 27.7402L130.272 36.1507H131.926L127.477 25.8081H125.994ZM117.002 36.1507H118.685V25.8081H117.002V36.1507ZM111.36 25.8081V33.6788L103.888 25.8081H102.461V36.1507H104.144V28.2802L111.616 36.1507H113.042V25.8081H111.36ZM96.8187 36.1507H98.5013V25.8081H96.8187V36.1507ZM92.1906 25.8081L88.7966 34.1334L85.5169 25.8081H83.7201L85.7164 30.6101L84.3473 34.1334L80.925 25.8081H79.1281L83.5773 36.1507H85.0604L86.572 32.6274L88.0264 36.1507H89.5094L93.9587 25.8081H92.1906ZM68.2704 25.8081V36.1507H69.953V27.2858H74.2025C75.0864 27.2858 75.6855 27.8824 75.6855 28.7633C75.6855 29.6439 75.0864 30.2408 74.2025 30.2408L71.8421 30.2405V31.718L73.7748 31.7182L75.6287 36.1507H77.3681L75.4574 31.5475L75.5242 31.5223C76.6548 31.0789 77.3681 29.9894 77.3681 28.7633C77.3681 27.1438 76.1704 25.8081 74.3736 25.8081H68.2704ZM60.5781 25.8081L56.129 36.1507H57.8116L61.3195 27.7402L64.8562 36.1507H66.5104L62.0613 25.8081H60.5781ZM44.5295 25.8081V36.1507H49.093L49.1792 36.15C52.0212 36.1047 54.369 33.8204 54.369 30.9794C54.369 27.9394 52.116 25.8081 49.093 25.8081H44.5295ZM46.2123 27.2858H49.093C51.1465 27.2858 52.6865 28.9053 52.6865 30.9794C52.6865 33.0537 51.1465 34.6732 49.093 34.6732H46.2123V27.2858Z" fill="url(#paint0_linear_7032_48207)"/>
</g>
<path d="M148 25V37" stroke="#363A4D"/>
<path d="M172.896 24.224H175.264V28.768C174.656 29.2267 173.952 29.5787 173.152 29.824C172.352 30.0693 171.547 30.192 170.736 30.192C169.573 30.192 168.528 29.9467 167.6 29.456C166.672 28.9547 165.941 28.2667 165.408 27.392C164.885 26.5067 164.624 25.5093 164.624 24.4C164.624 23.2907 164.885 22.2987 165.408 21.424C165.941 20.5387 166.677 19.8507 167.616 19.36C168.555 18.8587 169.611 18.608 170.784 18.608C171.765 18.608 172.656 18.7733 173.456 19.104C174.256 19.4347 174.928 19.9147 175.472 20.544L173.808 22.08C173.008 21.2373 172.043 20.816 170.912 20.816C170.197 20.816 169.563 20.9653 169.008 21.264C168.453 21.5627 168.021 21.984 167.712 22.528C167.403 23.072 167.248 23.696 167.248 24.4C167.248 25.0933 167.403 25.712 167.712 26.256C168.021 26.8 168.448 27.2267 168.992 27.536C169.547 27.8347 170.176 27.984 170.88 27.984C171.627 27.984 172.299 27.824 172.896 27.504V24.224ZM181.592 30.128C180.685 30.128 179.869 29.9413 179.144 29.568C178.429 29.184 177.869 28.656 177.464 27.984C177.058 27.312 176.856 26.5493 176.856 25.696C176.856 24.8427 177.058 24.08 177.464 23.408C177.869 22.736 178.429 22.2133 179.144 21.84C179.869 21.456 180.685 21.264 181.592 21.264C182.498 21.264 183.309 21.456 184.024 21.84C184.738 22.2133 185.298 22.736 185.704 23.408C186.109 24.08 186.312 24.8427 186.312 25.696C186.312 26.5493 186.109 27.312 185.704 27.984C185.298 28.656 184.738 29.184 184.024 29.568C183.309 29.9413 182.498 30.128 181.592 30.128ZM181.592 28.08C182.232 28.08 182.754 27.8667 183.16 27.44C183.576 27.0027 183.784 26.4213 183.784 25.696C183.784 24.9707 183.576 24.3947 183.16 23.968C182.754 23.5307 182.232 23.312 181.592 23.312C180.952 23.312 180.424 23.5307 180.008 23.968C179.592 24.3947 179.384 24.9707 179.384 25.696C179.384 26.4213 179.592 27.0027 180.008 27.44C180.424 27.8667 180.952 28.08 181.592 28.08ZM196.29 21.392L192.658 30H190.082L186.466 21.392H189.042L191.426 27.248L193.89 21.392H196.29ZM205.506 25.728C205.506 25.76 205.49 25.984 205.458 26.4H198.946C199.063 26.9333 199.341 27.3547 199.778 27.664C200.215 27.9733 200.759 28.128 201.41 28.128C201.858 28.128 202.253 28.064 202.594 27.936C202.946 27.7973 203.271 27.584 203.57 27.296L204.898 28.736C204.087 29.664 202.903 30.128 201.346 30.128C200.375 30.128 199.517 29.9413 198.77 29.568C198.023 29.184 197.447 28.656 197.042 27.984C196.637 27.312 196.434 26.5493 196.434 25.696C196.434 24.8533 196.631 24.096 197.026 23.424C197.431 22.7413 197.981 22.2133 198.674 21.84C199.378 21.456 200.162 21.264 201.026 21.264C201.869 21.264 202.631 21.4453 203.314 21.808C203.997 22.1707 204.53 22.6933 204.914 23.376C205.309 24.048 205.506 24.832 205.506 25.728ZM201.042 23.152C200.477 23.152 200.002 23.312 199.618 23.632C199.234 23.952 198.999 24.3893 198.914 24.944H203.154C203.069 24.4 202.834 23.968 202.45 23.648C202.066 23.3173 201.597 23.152 201.042 23.152ZM209.552 22.528C209.85 22.112 210.25 21.7973 210.752 21.584C211.264 21.3707 211.85 21.264 212.512 21.264V23.568C212.234 23.5467 212.048 23.536 211.952 23.536C211.237 23.536 210.677 23.7387 210.272 24.144C209.866 24.5387 209.664 25.136 209.664 25.936V30H207.168V21.392H209.552V22.528ZM219.228 21.264C220.294 21.264 221.153 21.584 221.804 22.224C222.465 22.864 222.796 23.8133 222.796 25.072V30H220.3V25.456C220.3 24.7733 220.15 24.2667 219.852 23.936C219.553 23.5947 219.121 23.424 218.556 23.424C217.926 23.424 217.425 23.6213 217.052 24.016C216.678 24.4 216.492 24.976 216.492 25.744V30H213.996V21.392H216.38V22.4C216.71 22.0373 217.121 21.76 217.612 21.568C218.102 21.3653 218.641 21.264 219.228 21.264ZM228.53 21.264C229.864 21.264 230.888 21.584 231.602 22.224C232.317 22.8533 232.674 23.808 232.674 25.088V30H230.338V28.928C229.869 29.728 228.994 30.128 227.714 30.128C227.053 30.128 226.477 30.016 225.986 29.792C225.506 29.568 225.138 29.2587 224.882 28.864C224.626 28.4693 224.498 28.0213 224.498 27.52C224.498 26.72 224.797 26.0907 225.394 25.632C226.002 25.1733 226.936 24.944 228.194 24.944H230.178C230.178 24.4 230.013 23.984 229.682 23.696C229.352 23.3973 228.856 23.248 228.194 23.248C227.736 23.248 227.282 23.3227 226.834 23.472C226.397 23.6107 226.024 23.8027 225.714 24.048L224.818 22.304C225.288 21.9733 225.848 21.7173 226.498 21.536C227.16 21.3547 227.837 21.264 228.53 21.264ZM228.338 28.448C228.765 28.448 229.144 28.352 229.474 28.16C229.805 27.9573 230.04 27.664 230.178 27.28V26.4H228.466C227.442 26.4 226.93 26.736 226.93 27.408C226.93 27.728 227.053 27.984 227.298 28.176C227.554 28.3573 227.901 28.448 228.338 28.448ZM240.165 21.264C241.232 21.264 242.091 21.584 242.741 22.224C243.403 22.864 243.733 23.8133 243.733 25.072V30H241.237V25.456C241.237 24.7733 241.088 24.2667 240.789 23.936C240.491 23.5947 240.059 23.424 239.493 23.424C238.864 23.424 238.363 23.6213 237.989 24.016C237.616 24.4 237.429 24.976 237.429 25.744V30H234.933V21.392H237.317V22.4C237.648 22.0373 238.059 21.76 238.549 21.568C239.04 21.3653 239.579 21.264 240.165 21.264ZM250.25 30.128C249.332 30.128 248.506 29.9413 247.77 29.568C247.044 29.184 246.474 28.656 246.058 27.984C245.652 27.312 245.45 26.5493 245.45 25.696C245.45 24.8427 245.652 24.08 246.058 23.408C246.474 22.736 247.044 22.2133 247.77 21.84C248.506 21.456 249.332 21.264 250.25 21.264C251.156 21.264 251.946 21.456 252.618 21.84C253.3 22.2133 253.796 22.752 254.106 23.456L252.17 24.496C251.722 23.7067 251.076 23.312 250.234 23.312C249.583 23.312 249.044 23.5253 248.618 23.952C248.191 24.3787 247.978 24.96 247.978 25.696C247.978 26.432 248.191 27.0133 248.618 27.44C249.044 27.8667 249.583 28.08 250.234 28.08C251.087 28.08 251.732 27.6853 252.17 26.896L254.106 27.952C253.796 28.6347 253.3 29.168 252.618 29.552C251.946 29.936 251.156 30.128 250.25 30.128ZM263.865 25.728C263.865 25.76 263.849 25.984 263.817 26.4H257.305C257.423 26.9333 257.7 27.3547 258.137 27.664C258.575 27.9733 259.119 28.128 259.769 28.128C260.217 28.128 260.612 28.064 260.953 27.936C261.305 27.7973 261.631 27.584 261.929 27.296L263.257 28.736C262.447 29.664 261.263 30.128 259.705 30.128C258.735 30.128 257.876 29.9413 257.129 29.568C256.383 29.184 255.807 28.656 255.401 27.984C254.996 27.312 254.793 26.5493 254.793 25.696C254.793 24.8533 254.991 24.096 255.385 23.424C255.791 22.7413 256.34 22.2133 257.033 21.84C257.737 21.456 258.521 21.264 259.385 21.264C260.228 21.264 260.991 21.4453 261.673 21.808C262.356 22.1707 262.889 22.6933 263.273 23.376C263.668 24.048 263.865 24.832 263.865 25.728ZM259.401 23.152C258.836 23.152 258.361 23.312 257.977 23.632C257.593 23.952 257.359 24.3893 257.273 24.944H261.513C261.428 24.4 261.193 23.968 260.809 23.648C260.425 23.3173 259.956 23.152 259.401 23.152Z" fill="white"/>
<path d="M168.858 39.5455C168.815 39.1856 168.643 38.9062 168.339 38.7074C168.036 38.5085 167.665 38.4091 167.224 38.4091C166.902 38.4091 166.621 38.4612 166.379 38.5653C166.14 38.6695 165.953 38.8127 165.818 38.995C165.686 39.1773 165.619 39.3845 165.619 39.6165C165.619 39.8106 165.665 39.9775 165.758 40.1172C165.853 40.2545 165.973 40.3693 166.12 40.4616C166.267 40.5516 166.421 40.6262 166.582 40.6854C166.743 40.7422 166.891 40.7884 167.026 40.8239L167.764 41.0227C167.954 41.0724 168.164 41.1411 168.396 41.2287C168.631 41.3163 168.854 41.4358 169.067 41.5874C169.283 41.7365 169.46 41.9283 169.6 42.1626C169.74 42.397 169.81 42.6847 169.81 43.0256C169.81 43.4186 169.707 43.7737 169.501 44.0909C169.297 44.4081 168.999 44.6603 168.606 44.8473C168.215 45.0343 167.741 45.1278 167.182 45.1278C166.661 45.1278 166.21 45.0438 165.829 44.8757C165.45 44.7076 165.152 44.4732 164.934 44.1726C164.719 43.8719 164.597 43.5227 164.568 43.125H165.477C165.501 43.3996 165.593 43.6269 165.754 43.8068C165.918 43.9844 166.124 44.117 166.372 44.2045C166.623 44.2898 166.893 44.3324 167.182 44.3324C167.518 44.3324 167.82 44.2779 168.087 44.169C168.355 44.0578 168.567 43.9039 168.723 43.7074C168.879 43.5085 168.957 43.2765 168.957 43.0114C168.957 42.7699 168.89 42.5734 168.755 42.4219C168.62 42.2704 168.442 42.1473 168.222 42.0526C168.002 41.9579 167.764 41.875 167.509 41.804L166.614 41.5483C166.045 41.3849 165.596 41.1518 165.264 40.8487C164.933 40.5457 164.767 40.1491 164.767 39.6591C164.767 39.2519 164.877 38.8968 165.097 38.5938C165.32 38.2884 165.618 38.0516 165.992 37.8835C166.369 37.7131 166.789 37.6278 167.253 37.6278C167.722 37.6278 168.138 37.7119 168.503 37.88C168.867 38.0457 169.156 38.273 169.369 38.5618C169.585 38.8506 169.698 39.1785 169.71 39.5455H168.858ZM174.581 42.7699V39.5455H175.42V45H174.581V44.0767H174.525C174.397 44.3537 174.198 44.5893 173.928 44.7834C173.658 44.9751 173.317 45.071 172.905 45.071C172.564 45.071 172.261 44.9964 171.996 44.8473C171.731 44.6958 171.523 44.4685 171.371 44.1655C171.22 43.8601 171.144 43.4754 171.144 43.0114V39.5455H171.982V42.9545C171.982 43.3523 172.093 43.6695 172.316 43.9062C172.541 44.143 172.827 44.2614 173.175 44.2614C173.384 44.2614 173.595 44.2081 173.811 44.1016C174.029 43.995 174.211 43.8317 174.358 43.6115C174.507 43.3913 174.581 43.1108 174.581 42.7699ZM177.068 45V37.7273H177.906V40.4119H177.977C178.039 40.3172 178.124 40.1965 178.233 40.0497C178.344 39.9006 178.503 39.768 178.709 39.652C178.917 39.5336 179.199 39.4744 179.554 39.4744C180.013 39.4744 180.418 39.5893 180.768 39.8189C181.119 40.0485 181.392 40.3741 181.589 40.7955C181.785 41.2169 181.884 41.714 181.884 42.2869C181.884 42.8646 181.785 43.3653 181.589 43.7891C181.392 44.2105 181.12 44.5372 180.772 44.7692C180.424 44.9988 180.023 45.1136 179.568 45.1136C179.218 45.1136 178.937 45.0556 178.727 44.9396C178.516 44.8213 178.354 44.6875 178.24 44.5384C178.126 44.3868 178.039 44.2614 177.977 44.1619H177.878V45H177.068ZM177.892 42.2727C177.892 42.6847 177.952 43.0481 178.073 43.3629C178.194 43.6754 178.37 43.9205 178.602 44.098C178.834 44.2732 179.118 44.3608 179.455 44.3608C179.805 44.3608 180.097 44.2685 180.332 44.0838C180.568 43.8968 180.746 43.6458 180.864 43.331C180.985 43.0137 181.045 42.661 181.045 42.2727C181.045 41.8892 180.986 41.5436 180.868 41.2358C180.752 40.9257 180.576 40.6806 180.339 40.5007C180.104 40.3184 179.81 40.2273 179.455 40.2273C179.114 40.2273 178.827 40.3137 178.595 40.4865C178.363 40.657 178.188 40.8961 178.07 41.2038C177.951 41.5092 177.892 41.8655 177.892 42.2727ZM187.256 39.5455C187.214 39.1856 187.041 38.9062 186.738 38.7074C186.435 38.5085 186.063 38.4091 185.623 38.4091C185.301 38.4091 185.019 38.4612 184.778 38.5653C184.539 38.6695 184.352 38.8127 184.217 38.995C184.084 39.1773 184.018 39.3845 184.018 39.6165C184.018 39.8106 184.064 39.9775 184.156 40.1172C184.251 40.2545 184.372 40.3693 184.518 40.4616C184.665 40.5516 184.819 40.6262 184.98 40.6854C185.141 40.7422 185.289 40.7884 185.424 40.8239L186.163 41.0227C186.352 41.0724 186.563 41.1411 186.795 41.2287C187.029 41.3163 187.253 41.4358 187.466 41.5874C187.681 41.7365 187.859 41.9283 187.999 42.1626C188.138 42.397 188.208 42.6847 188.208 43.0256C188.208 43.4186 188.105 43.7737 187.899 44.0909C187.696 44.4081 187.397 44.6603 187.004 44.8473C186.614 45.0343 186.139 45.1278 185.58 45.1278C185.059 45.1278 184.608 45.0438 184.227 44.8757C183.848 44.7076 183.55 44.4732 183.332 44.1726C183.117 43.8719 182.995 43.5227 182.967 43.125H183.876C183.899 43.3996 183.992 43.6269 184.153 43.8068C184.316 43.9844 184.522 44.117 184.771 44.2045C185.022 44.2898 185.291 44.3324 185.58 44.3324C185.916 44.3324 186.218 44.2779 186.486 44.169C186.753 44.0578 186.965 43.9039 187.121 43.7074C187.278 43.5085 187.356 43.2765 187.356 43.0114C187.356 42.7699 187.288 42.5734 187.153 42.4219C187.018 42.2704 186.841 42.1473 186.621 42.0526C186.401 41.9579 186.163 41.875 185.907 41.804L185.012 41.5483C184.444 41.3849 183.994 41.1518 183.663 40.8487C183.331 40.5457 183.165 40.1491 183.165 39.6591C183.165 39.2519 183.276 38.8968 183.496 38.5938C183.718 38.2884 184.017 38.0516 184.391 37.8835C184.767 37.7131 185.187 37.6278 185.651 37.6278C186.12 37.6278 186.537 37.7119 186.901 37.88C187.266 38.0457 187.555 38.273 187.768 38.5618C187.983 38.8506 188.097 39.1785 188.109 39.5455H187.256ZM193.264 47.0455V44.1619H193.193C193.131 44.2614 193.044 44.3868 192.93 44.5384C192.817 44.6875 192.654 44.8213 192.444 44.9396C192.233 45.0556 191.952 45.1136 191.602 45.1136C191.148 45.1136 190.746 44.9988 190.398 44.7692C190.05 44.5372 189.778 44.2105 189.581 43.7891C189.385 43.3653 189.287 42.8646 189.287 42.2869C189.287 41.714 189.385 41.2169 189.581 40.7955C189.778 40.3741 190.051 40.0485 190.402 39.8189C190.752 39.5893 191.157 39.4744 191.616 39.4744C191.971 39.4744 192.252 39.5336 192.458 39.652C192.666 39.768 192.825 39.9006 192.934 40.0497C193.045 40.1965 193.131 40.3172 193.193 40.4119H193.292V39.5455H194.102V47.0455H193.264ZM191.716 44.3608C192.052 44.3608 192.336 44.2732 192.568 44.098C192.8 43.9205 192.976 43.6754 193.097 43.3629C193.218 43.0481 193.278 42.6847 193.278 42.2727C193.278 41.8655 193.219 41.5092 193.101 41.2038C192.982 40.8961 192.807 40.657 192.575 40.4865C192.343 40.3137 192.057 40.2273 191.716 40.2273C191.361 40.2273 191.065 40.3184 190.828 40.5007C190.594 40.6806 190.417 40.9257 190.299 41.2358C190.183 41.5436 190.125 41.8892 190.125 42.2727C190.125 42.661 190.184 43.0137 190.302 43.331C190.423 43.6458 190.601 43.8968 190.835 44.0838C191.072 44.2685 191.365 44.3608 191.716 44.3608ZM199.074 42.7699V39.5455H199.912V45H199.074V44.0767H199.017C198.889 44.3537 198.69 44.5893 198.42 44.7834C198.15 44.9751 197.809 45.071 197.398 45.071C197.057 45.071 196.754 44.9964 196.488 44.8473C196.223 44.6958 196.015 44.4685 195.863 44.1655C195.712 43.8601 195.636 43.4754 195.636 43.0114V39.5455H196.474V42.9545C196.474 43.3523 196.586 43.6695 196.808 43.9062C197.033 44.143 197.319 44.2614 197.667 44.2614C197.876 44.2614 198.088 44.2081 198.303 44.1016C198.521 43.995 198.703 43.8317 198.85 43.6115C198.999 43.3913 199.074 43.1108 199.074 42.7699ZM203.052 45.1278C202.706 45.1278 202.393 45.0627 202.111 44.9325C201.829 44.8 201.605 44.6094 201.44 44.3608C201.274 44.1098 201.191 43.8068 201.191 43.4517C201.191 43.1392 201.253 42.8859 201.376 42.6918C201.499 42.4953 201.663 42.3414 201.869 42.2301C202.075 42.1188 202.303 42.036 202.551 41.9815C202.802 41.9247 203.054 41.8797 203.308 41.8466C203.639 41.804 203.908 41.772 204.114 41.7507C204.322 41.727 204.473 41.688 204.568 41.6335C204.665 41.5791 204.714 41.4844 204.714 41.3494V41.321C204.714 40.9706 204.618 40.6984 204.426 40.5043C204.237 40.3101 203.949 40.2131 203.563 40.2131C203.163 40.2131 202.849 40.3007 202.622 40.4759C202.395 40.651 202.235 40.8381 202.143 41.0369L201.347 40.7528C201.489 40.4214 201.679 40.1634 201.915 39.9787C202.155 39.7917 202.415 39.6615 202.697 39.5881C202.981 39.5123 203.26 39.4744 203.535 39.4744C203.71 39.4744 203.911 39.4957 204.138 39.5384C204.368 39.5786 204.589 39.6626 204.803 39.7905C205.018 39.9183 205.197 40.1113 205.339 40.3693C205.481 40.6274 205.552 40.973 205.552 41.4062V45H204.714V44.2614H204.671C204.614 44.3797 204.52 44.5064 204.387 44.6413C204.254 44.7763 204.078 44.8911 203.858 44.9858C203.638 45.0805 203.369 45.1278 203.052 45.1278ZM203.18 44.375C203.511 44.375 203.79 44.3099 204.018 44.1797C204.247 44.0495 204.42 43.8814 204.536 43.6754C204.655 43.4695 204.714 43.2528 204.714 43.0256V42.2585C204.678 42.3011 204.6 42.3402 204.479 42.3757C204.361 42.4089 204.224 42.4384 204.067 42.4645C203.914 42.4882 203.763 42.5095 203.616 42.5284C203.472 42.545 203.355 42.5592 203.265 42.571C203.047 42.5994 202.844 42.6456 202.654 42.7095C202.467 42.7711 202.316 42.8646 202.2 42.9901C202.086 43.1132 202.029 43.2812 202.029 43.4943C202.029 43.7855 202.137 44.0057 202.352 44.1548C202.57 44.3016 202.846 44.375 203.18 44.375ZM207.081 45V39.5455H207.891V40.3693H207.948C208.047 40.0994 208.227 39.8804 208.488 39.7124C208.748 39.5443 209.042 39.4602 209.368 39.4602C209.43 39.4602 209.507 39.4614 209.599 39.4638C209.692 39.4661 209.761 39.4697 209.809 39.4744V40.3267C209.78 40.3196 209.715 40.3089 209.613 40.2947C209.514 40.2782 209.409 40.2699 209.297 40.2699C209.032 40.2699 208.796 40.3255 208.587 40.4368C208.381 40.5457 208.218 40.6972 208.097 40.8913C207.979 41.0831 207.92 41.3021 207.92 41.5483V45H207.081ZM212.923 45.1136C212.398 45.1136 211.944 44.9976 211.563 44.7656C211.184 44.5312 210.892 44.2045 210.686 43.7855C210.482 43.3641 210.381 42.8741 210.381 42.3153C210.381 41.7566 210.482 41.2642 210.686 40.8381C210.892 40.4096 211.178 40.0758 211.545 39.8366C211.915 39.5952 212.345 39.4744 212.838 39.4744C213.122 39.4744 213.403 39.5218 213.68 39.6165C213.956 39.7112 214.209 39.8651 214.436 40.0781C214.663 40.2888 214.844 40.5682 214.979 40.9162C215.114 41.2642 215.182 41.6927 215.182 42.2017V42.5568H210.977V41.8324H214.329C214.329 41.5246 214.268 41.25 214.145 41.0085C214.024 40.767 213.851 40.5765 213.626 40.4368C213.404 40.2971 213.141 40.2273 212.838 40.2273C212.504 40.2273 212.215 40.3101 211.971 40.4759C211.73 40.6392 211.544 40.8523 211.414 41.1151C211.284 41.3778 211.219 41.6596 211.219 41.9602V42.4432C211.219 42.8551 211.29 43.2043 211.432 43.4908C211.576 43.7749 211.776 43.9915 212.032 44.1406C212.287 44.2874 212.585 44.3608 212.923 44.3608C213.143 44.3608 213.342 44.33 213.52 44.2685C213.7 44.2045 213.855 44.1098 213.985 43.9844C214.115 43.8565 214.216 43.6979 214.287 43.5085L215.096 43.7358C215.011 44.0104 214.868 44.2519 214.667 44.4602C214.465 44.6662 214.217 44.8272 213.921 44.9432C213.625 45.0568 213.292 45.1136 212.923 45.1136Z" fill="white" fill-opacity="0.25"/>
<defs>
<linearGradient id="paint0_linear_7032_48207" x1="0" y1="31" x2="131.926" y2="31" gradientUnits="userSpaceOnUse">
<stop stop-color="#412FDD"/>
<stop offset="1" stop-color="#FD3877"/>
</linearGradient>
</defs>
</svg>
