<svg width="236" height="64" viewBox="0 0 236 64" fill="none" xmlns="http://www.w3.org/2000/svg">
<g clip-path="url(#clip0_13417_72172)">
<path d="M31.25 51.5L8.75 51.5C4.19365 51.5 0.5 47.8063 0.500001 43.25L0.500003 20.75C0.500003 16.1937 4.19365 12.5 8.75 12.5L31.25 12.5C35.8064 12.5 39.5 16.1937 39.5 20.75L39.5 43.25C39.5 47.8063 35.8063 51.5 31.25 51.5Z" fill="url(#paint0_linear_13417_72172)" stroke="#EBEEF4"/>
<g clip-path="url(#clip1_13417_72172)">
<path d="M5.46875 33.8507V36.4153L20 45.4138V41.8949L9.17644 35.1924L20 29.0786V25.6426L5.46875 33.8507Z" fill="#1E2134"/>
<path d="M20 18.377L34.5313 26.585V29.1496L20 38.1481V34.6292L30.8236 27.9267L20 21.813V18.377Z" fill="#6848FF"/>
</g>
</g>
<path d="M53.66 25H60.02C61.54 25 62.88 25.2933 64.04 25.88C65.2133 26.4533 66.12 27.2667 66.76 28.32C67.4133 29.3733 67.74 30.6 67.74 32C67.74 33.4 67.4133 34.6267 66.76 35.68C66.12 36.7333 65.2133 37.5533 64.04 38.14C62.88 38.7133 61.54 39 60.02 39H53.66V25ZM59.86 36.34C61.26 36.34 62.3733 35.9533 63.2 35.18C64.04 34.3933 64.46 33.3333 64.46 32C64.46 30.6667 64.04 29.6133 63.2 28.84C62.3733 28.0533 61.26 27.66 59.86 27.66H56.9V36.34H59.86ZM80.5034 33.66C80.5034 33.7 80.4834 33.98 80.4434 34.5H72.3034C72.4501 35.1667 72.7968 35.6933 73.3434 36.08C73.8901 36.4667 74.5701 36.66 75.3834 36.66C75.9434 36.66 76.4368 36.58 76.8634 36.42C77.3034 36.2467 77.7101 35.98 78.0834 35.62L79.7434 37.42C78.7301 38.58 77.2501 39.16 75.3034 39.16C74.0901 39.16 73.0168 38.9267 72.0834 38.46C71.1501 37.98 70.4301 37.32 69.9234 36.48C69.4168 35.64 69.1634 34.6867 69.1634 33.62C69.1634 32.5667 69.4101 31.62 69.9034 30.78C70.4101 29.9267 71.0968 29.2667 71.9634 28.8C72.8434 28.32 73.8234 28.08 74.9034 28.08C75.9568 28.08 76.9101 28.3067 77.7634 28.76C78.6168 29.2133 79.2834 29.8667 79.7634 30.72C80.2568 31.56 80.5034 32.54 80.5034 33.66ZM74.9234 30.44C74.2168 30.44 73.6234 30.64 73.1434 31.04C72.6634 31.44 72.3701 31.9867 72.2634 32.68H77.5634C77.4568 32 77.1634 31.46 76.6834 31.06C76.2034 30.6467 75.6168 30.44 74.9234 30.44ZM93.0653 28.24L88.5253 39H85.3053L80.7853 28.24H84.0053L86.9853 35.56L90.0653 28.24H93.0653ZM104.585 33.66C104.585 33.7 104.565 33.98 104.525 34.5H96.3855C96.5321 35.1667 96.8788 35.6933 97.4255 36.08C97.9721 36.4667 98.6521 36.66 99.4655 36.66C100.025 36.66 100.519 36.58 100.945 36.42C101.385 36.2467 101.792 35.98 102.165 35.62L103.825 37.42C102.812 38.58 101.332 39.16 99.3855 39.16C98.1721 39.16 97.0988 38.9267 96.1655 38.46C95.2321 37.98 94.5121 37.32 94.0055 36.48C93.4988 35.64 93.2455 34.6867 93.2455 33.62C93.2455 32.5667 93.4921 31.62 93.9855 30.78C94.4921 29.9267 95.1788 29.2667 96.0455 28.8C96.9255 28.32 97.9055 28.08 98.9855 28.08C100.039 28.08 100.992 28.3067 101.845 28.76C102.699 29.2133 103.365 29.8667 103.845 30.72C104.339 31.56 104.585 32.54 104.585 33.66ZM99.0055 30.44C98.2988 30.44 97.7055 30.64 97.2255 31.04C96.7455 31.44 96.4521 31.9867 96.3455 32.68H101.645C101.539 32 101.245 31.46 100.765 31.06C100.285 30.6467 99.6988 30.44 99.0055 30.44ZM106.663 24.16H109.783V39H106.663V24.16ZM117.798 39.16C116.665 39.16 115.645 38.9267 114.738 38.46C113.845 37.98 113.145 37.32 112.638 36.48C112.132 35.64 111.878 34.6867 111.878 33.62C111.878 32.5533 112.132 31.6 112.638 30.76C113.145 29.92 113.845 29.2667 114.738 28.8C115.645 28.32 116.665 28.08 117.798 28.08C118.932 28.08 119.945 28.32 120.838 28.8C121.732 29.2667 122.432 29.92 122.938 30.76C123.445 31.6 123.698 32.5533 123.698 33.62C123.698 34.6867 123.445 35.64 122.938 36.48C122.432 37.32 121.732 37.98 120.838 38.46C119.945 38.9267 118.932 39.16 117.798 39.16ZM117.798 36.6C118.598 36.6 119.252 36.3333 119.758 35.8C120.278 35.2533 120.538 34.5267 120.538 33.62C120.538 32.7133 120.278 31.9933 119.758 31.46C119.252 30.9133 118.598 30.64 117.798 30.64C116.998 30.64 116.338 30.9133 115.818 31.46C115.298 31.9933 115.038 32.7133 115.038 33.62C115.038 34.5267 115.298 35.2533 115.818 35.8C116.338 36.3333 116.998 36.6 117.798 36.6ZM132.144 28.08C133.144 28.08 134.05 28.3133 134.864 28.78C135.69 29.2333 136.337 29.88 136.804 30.72C137.27 31.5467 137.504 32.5133 137.504 33.62C137.504 34.7267 137.27 35.7 136.804 36.54C136.337 37.3667 135.69 38.0133 134.864 38.48C134.05 38.9333 133.144 39.16 132.144 39.16C130.77 39.16 129.69 38.7267 128.904 37.86V42.88H125.784V28.24H128.764V29.48C129.537 28.5467 130.664 28.08 132.144 28.08ZM131.604 36.6C132.404 36.6 133.057 36.3333 133.564 35.8C134.084 35.2533 134.344 34.5267 134.344 33.62C134.344 32.7133 134.084 31.9933 133.564 31.46C133.057 30.9133 132.404 30.64 131.604 30.64C130.804 30.64 130.144 30.9133 129.624 31.46C129.117 31.9933 128.864 32.7133 128.864 33.62C128.864 34.5267 129.117 35.2533 129.624 35.8C130.144 36.3333 130.804 36.6 131.604 36.6ZM153.372 28.08C154.719 28.08 155.786 28.48 156.572 29.28C157.372 30.0667 157.772 31.2533 157.772 32.84V39H154.652V33.32C154.652 32.4667 154.472 31.8333 154.112 31.42C153.766 30.9933 153.266 30.78 152.612 30.78C151.879 30.78 151.299 31.02 150.872 31.5C150.446 31.9667 150.232 32.6667 150.232 33.6V39H147.112V33.32C147.112 31.6267 146.432 30.78 145.072 30.78C144.352 30.78 143.779 31.02 143.352 31.5C142.926 31.9667 142.712 32.6667 142.712 33.6V39H139.592V28.24H142.572V29.48C142.972 29.0267 143.459 28.68 144.032 28.44C144.619 28.2 145.259 28.08 145.952 28.08C146.712 28.08 147.399 28.2333 148.012 28.54C148.626 28.8333 149.119 29.2667 149.492 29.84C149.932 29.28 150.486 28.8467 151.152 28.54C151.832 28.2333 152.572 28.08 153.372 28.08ZM171.226 33.66C171.226 33.7 171.206 33.98 171.166 34.5H163.026C163.173 35.1667 163.519 35.6933 164.066 36.08C164.613 36.4667 165.293 36.66 166.106 36.66C166.666 36.66 167.159 36.58 167.586 36.42C168.026 36.2467 168.433 35.98 168.806 35.62L170.466 37.42C169.453 38.58 167.973 39.16 166.026 39.16C164.813 39.16 163.739 38.9267 162.806 38.46C161.873 37.98 161.153 37.32 160.646 36.48C160.139 35.64 159.886 34.6867 159.886 33.62C159.886 32.5667 160.133 31.62 160.626 30.78C161.133 29.9267 161.819 29.2667 162.686 28.8C163.566 28.32 164.546 28.08 165.626 28.08C166.679 28.08 167.633 28.3067 168.486 28.76C169.339 29.2133 170.006 29.8667 170.486 30.72C170.979 31.56 171.226 32.54 171.226 33.66ZM165.646 30.44C164.939 30.44 164.346 30.64 163.866 31.04C163.386 31.44 163.093 31.9867 162.986 32.68H168.286C168.179 32 167.886 31.46 167.406 31.06C166.926 30.6467 166.339 30.44 165.646 30.44ZM179.843 28.08C181.177 28.08 182.25 28.48 183.063 29.28C183.89 30.08 184.303 31.2667 184.303 32.84V39H181.183V33.32C181.183 32.4667 180.997 31.8333 180.623 31.42C180.25 30.9933 179.71 30.78 179.003 30.78C178.217 30.78 177.59 31.0267 177.123 31.52C176.657 32 176.423 32.72 176.423 33.68V39H173.303V28.24H176.283V29.5C176.697 29.0467 177.21 28.7 177.823 28.46C178.437 28.2067 179.11 28.08 179.843 28.08ZM194.071 38.48C193.765 38.7067 193.385 38.88 192.931 39C192.491 39.1067 192.025 39.16 191.531 39.16C190.251 39.16 189.258 38.8333 188.551 38.18C187.858 37.5267 187.511 36.5667 187.511 35.3V30.88H185.851V28.48H187.511V25.86H190.631V28.48H193.311V30.88H190.631V35.26C190.631 35.7133 190.745 36.0667 190.971 36.32C191.211 36.56 191.545 36.68 191.971 36.68C192.465 36.68 192.885 36.5467 193.231 36.28L194.071 38.48Z" fill="#1E2134"/>
<defs>
<linearGradient id="paint0_linear_13417_72172" x1="20" y1="52" x2="20" y2="12" gradientUnits="userSpaceOnUse">
<stop stop-color="#F6F7FA"/>
<stop offset="1" stop-color="white"/>
</linearGradient>
<clipPath id="clip0_13417_72172">
<rect width="40" height="40" fill="white" transform="translate(0 12)"/>
</clipPath>
<clipPath id="clip1_13417_72172">
<rect width="29.0625" height="29.0625" fill="white" transform="translate(5.46875 17.4688)"/>
</clipPath>
</defs>
</svg>
