<svg width="190" height="64" viewBox="0 0 190 64" fill="none" xmlns="http://www.w3.org/2000/svg">
    <path d="M0 33.1651V36.1654L17 46.6927V42.5759L4.3376 34.7347L17 27.5823V23.5625L0 33.1651Z" fill="#1E2134"/>
    <path d="M17 15.0625L34 24.6651V27.6654L17 38.1927V34.0759L29.6624 26.2347L17 19.0823V15.0625Z" fill="#6848FF"/>
    <path d="M48.66 24H55.02C56.54 24 57.88 24.2933 59.04 24.88C60.2133 25.4533 61.12 26.2667 61.76 27.32C62.4133 28.3733 62.74 29.6 62.74 31C62.74 32.4 62.4133 33.6267 61.76 34.68C61.12 35.7333 60.2133 36.5533 59.04 37.14C57.88 37.7133 56.54 38 55.02 38H48.66V24ZM54.86 35.34C56.26 35.34 57.3733 34.9533 58.2 34.18C59.04 33.3933 59.46 32.3333 59.46 31C59.46 29.6667 59.04 28.6133 58.2 27.84C57.3733 27.0533 56.26 26.66 54.86 26.66H51.9V35.34H54.86ZM75.5034 32.66C75.5034 32.7 75.4834 32.98 75.4434 33.5H67.3034C67.4501 34.1667 67.7968 34.6933 68.3434 35.08C68.8901 35.4667 69.5701 35.66 70.3834 35.66C70.9434 35.66 71.4368 35.58 71.8634 35.42C72.3034 35.2467 72.7101 34.98 73.0834 34.62L74.7434 36.42C73.7301 37.58 72.2501 38.16 70.3034 38.16C69.0901 38.16 68.0168 37.9267 67.0834 37.46C66.1501 36.98 65.4301 36.32 64.9234 35.48C64.4168 34.64 64.1634 33.6867 64.1634 32.62C64.1634 31.5667 64.4101 30.62 64.9034 29.78C65.4101 28.9267 66.0968 28.2667 66.9634 27.8C67.8434 27.32 68.8234 27.08 69.9034 27.08C70.9568 27.08 71.9101 27.3067 72.7634 27.76C73.6168 28.2133 74.2834 28.8667 74.7634 29.72C75.2568 30.56 75.5034 31.54 75.5034 32.66ZM69.9234 29.44C69.2168 29.44 68.6234 29.64 68.1434 30.04C67.6634 30.44 67.3701 30.9867 67.2634 31.68H72.5634C72.4568 31 72.1634 30.46 71.6834 30.06C71.2034 29.6467 70.6168 29.44 69.9234 29.44ZM88.0653 27.24L83.5253 38H80.3053L75.7853 27.24H79.0053L81.9853 34.56L85.0653 27.24H88.0653ZM99.5855 32.66C99.5855 32.7 99.5655 32.98 99.5255 33.5H91.3855C91.5321 34.1667 91.8788 34.6933 92.4255 35.08C92.9721 35.4667 93.6521 35.66 94.4655 35.66C95.0255 35.66 95.5188 35.58 95.9455 35.42C96.3855 35.2467 96.7921 34.98 97.1655 34.62L98.8255 36.42C97.8121 37.58 96.3321 38.16 94.3855 38.16C93.1721 38.16 92.0988 37.9267 91.1655 37.46C90.2321 36.98 89.5121 36.32 89.0055 35.48C88.4988 34.64 88.2455 33.6867 88.2455 32.62C88.2455 31.5667 88.4921 30.62 88.9855 29.78C89.4921 28.9267 90.1788 28.2667 91.0455 27.8C91.9255 27.32 92.9055 27.08 93.9855 27.08C95.0388 27.08 95.9921 27.3067 96.8455 27.76C97.6988 28.2133 98.3655 28.8667 98.8455 29.72C99.3388 30.56 99.5855 31.54 99.5855 32.66ZM94.0055 29.44C93.2988 29.44 92.7055 29.64 92.2255 30.04C91.7455 30.44 91.4521 30.9867 91.3455 31.68H96.6455C96.5388 31 96.2455 30.46 95.7655 30.06C95.2855 29.6467 94.6988 29.44 94.0055 29.44ZM101.663 23.16H104.783V38H101.663V23.16ZM112.798 38.16C111.665 38.16 110.645 37.9267 109.738 37.46C108.845 36.98 108.145 36.32 107.638 35.48C107.132 34.64 106.878 33.6867 106.878 32.62C106.878 31.5533 107.132 30.6 107.638 29.76C108.145 28.92 108.845 28.2667 109.738 27.8C110.645 27.32 111.665 27.08 112.798 27.08C113.932 27.08 114.945 27.32 115.838 27.8C116.732 28.2667 117.432 28.92 117.938 29.76C118.445 30.6 118.698 31.5533 118.698 32.62C118.698 33.6867 118.445 34.64 117.938 35.48C117.432 36.32 116.732 36.98 115.838 37.46C114.945 37.9267 113.932 38.16 112.798 38.16ZM112.798 35.6C113.598 35.6 114.252 35.3333 114.758 34.8C115.278 34.2533 115.538 33.5267 115.538 32.62C115.538 31.7133 115.278 30.9933 114.758 30.46C114.252 29.9133 113.598 29.64 112.798 29.64C111.998 29.64 111.338 29.9133 110.818 30.46C110.298 30.9933 110.038 31.7133 110.038 32.62C110.038 33.5267 110.298 34.2533 110.818 34.8C111.338 35.3333 111.998 35.6 112.798 35.6ZM127.144 27.08C128.144 27.08 129.05 27.3133 129.864 27.78C130.69 28.2333 131.337 28.88 131.804 29.72C132.27 30.5467 132.504 31.5133 132.504 32.62C132.504 33.7267 132.27 34.7 131.804 35.54C131.337 36.3667 130.69 37.0133 129.864 37.48C129.05 37.9333 128.144 38.16 127.144 38.16C125.77 38.16 124.69 37.7267 123.904 36.86V41.88H120.784V27.24H123.764V28.48C124.537 27.5467 125.664 27.08 127.144 27.08ZM126.604 35.6C127.404 35.6 128.057 35.3333 128.564 34.8C129.084 34.2533 129.344 33.5267 129.344 32.62C129.344 31.7133 129.084 30.9933 128.564 30.46C128.057 29.9133 127.404 29.64 126.604 29.64C125.804 29.64 125.144 29.9133 124.624 30.46C124.117 30.9933 123.864 31.7133 123.864 32.62C123.864 33.5267 124.117 34.2533 124.624 34.8C125.144 35.3333 125.804 35.6 126.604 35.6ZM148.372 27.08C149.719 27.08 150.786 27.48 151.572 28.28C152.372 29.0667 152.772 30.2533 152.772 31.84V38H149.652V32.32C149.652 31.4667 149.472 30.8333 149.112 30.42C148.766 29.9933 148.266 29.78 147.612 29.78C146.879 29.78 146.299 30.02 145.872 30.5C145.446 30.9667 145.232 31.6667 145.232 32.6V38H142.112V32.32C142.112 30.6267 141.432 29.78 140.072 29.78C139.352 29.78 138.779 30.02 138.352 30.5C137.926 30.9667 137.712 31.6667 137.712 32.6V38H134.592V27.24H137.572V28.48C137.972 28.0267 138.459 27.68 139.032 27.44C139.619 27.2 140.259 27.08 140.952 27.08C141.712 27.08 142.399 27.2333 143.012 27.54C143.626 27.8333 144.119 28.2667 144.492 28.84C144.932 28.28 145.486 27.8467 146.152 27.54C146.832 27.2333 147.572 27.08 148.372 27.08ZM166.226 32.66C166.226 32.7 166.206 32.98 166.166 33.5H158.026C158.173 34.1667 158.519 34.6933 159.066 35.08C159.613 35.4667 160.293 35.66 161.106 35.66C161.666 35.66 162.159 35.58 162.586 35.42C163.026 35.2467 163.433 34.98 163.806 34.62L165.466 36.42C164.453 37.58 162.973 38.16 161.026 38.16C159.813 38.16 158.739 37.9267 157.806 37.46C156.873 36.98 156.153 36.32 155.646 35.48C155.139 34.64 154.886 33.6867 154.886 32.62C154.886 31.5667 155.133 30.62 155.626 29.78C156.133 28.9267 156.819 28.2667 157.686 27.8C158.566 27.32 159.546 27.08 160.626 27.08C161.679 27.08 162.633 27.3067 163.486 27.76C164.339 28.2133 165.006 28.8667 165.486 29.72C165.979 30.56 166.226 31.54 166.226 32.66ZM160.646 29.44C159.939 29.44 159.346 29.64 158.866 30.04C158.386 30.44 158.093 30.9867 157.986 31.68H163.286C163.179 31 162.886 30.46 162.406 30.06C161.926 29.6467 161.339 29.44 160.646 29.44ZM174.843 27.08C176.177 27.08 177.25 27.48 178.063 28.28C178.89 29.08 179.303 30.2667 179.303 31.84V38H176.183V32.32C176.183 31.4667 175.997 30.8333 175.623 30.42C175.25 29.9933 174.71 29.78 174.003 29.78C173.217 29.78 172.59 30.0267 172.123 30.52C171.657 31 171.423 31.72 171.423 32.68V38H168.303V27.24H171.283V28.5C171.697 28.0467 172.21 27.7 172.823 27.46C173.437 27.2067 174.11 27.08 174.843 27.08ZM189.071 37.48C188.765 37.7067 188.385 37.88 187.931 38C187.491 38.1067 187.025 38.16 186.531 38.16C185.251 38.16 184.258 37.8333 183.551 37.18C182.858 36.5267 182.511 35.5667 182.511 34.3V29.88H180.851V27.48H182.511V24.86H185.631V27.48H188.311V29.88H185.631V34.26C185.631 34.7133 185.745 35.0667 185.971 35.32C186.211 35.56 186.545 35.68 186.971 35.68C187.465 35.68 187.885 35.5467 188.231 35.28L189.071 37.48Z"
          fill="#1E2134"/>
</svg>
