<svg width="263" height="64" viewBox="0 0 263 64" fill="none" xmlns="http://www.w3.org/2000/svg">
    <path d="M129.798 18.2029H0.202148V43.793H129.798V18.2029Z" fill="#0D106E"/>
    <path fill-rule="evenodd" clip-rule="evenodd"
          d="M0 18.3248C0 18.1454 0.145057 18 0.323994 18H129.676C129.855 18 130 18.1454 130 18.3248V43.6752C130 43.8546 129.855 44 129.676 44H0.323994C0.145057 44 0 43.8546 0 43.6752V18.3248ZM0.647988 18.6496V43.3504H23.7654V18.6496H0.647988ZM24.4134 18.6496V43.3504H109.316V18.6496H24.4134ZM109.964 18.6496V43.3504H129.352V18.6496H109.964Z"
          fill="#EE67BA"/>
    <path fill-rule="evenodd" clip-rule="evenodd"
          d="M3.63867 31.0003L12.2105 22.4146L20.7763 31.0025L12.2105 39.5854L3.63867 31.0003V31.0003ZM6.79273 28.4385C6.43078 28.8467 5.6732 29.8404 5.6732 31.0003C5.6732 32.1647 6.43673 33.1616 6.79697 33.5668L8.65005 35.4249L8.65876 35.4164C9.4006 34.6895 10.6338 33.7343 12.0398 33.6615C11.6858 34.0569 10.9052 35.0622 10.9052 36.2386C10.9052 37.4151 11.6858 38.4204 12.0398 38.8158L12.2105 38.9951L12.3813 38.8158C12.7353 38.4204 13.5158 37.4151 13.5158 36.2386C13.5158 35.0622 12.7353 34.0569 12.3813 33.6615C13.7928 33.7345 15.0301 34.697 15.771 35.4249L17.6678 33.523L17.6722 33.5179C18.0472 33.0861 18.7542 32.1207 18.7542 31.0003C18.7542 29.8755 18.0417 28.9068 17.6678 28.4776L15.7799 26.5845L15.7712 26.593C15.0301 27.3208 13.7927 28.2833 12.3813 28.3563C12.7353 27.9609 13.5158 26.9556 13.5158 25.7792C13.5158 24.6027 12.7353 23.5974 12.3813 23.202L12.2105 23.0054L12.0398 23.202C11.6858 23.5974 10.9052 24.6027 10.9052 25.7792C10.9052 26.9556 11.6858 27.9609 12.0398 28.3563C10.6228 28.283 9.38132 27.3133 8.6412 26.5845L6.79273 28.4385V28.4385ZM85.3269 32.6739L85.0395 32.1551C87.416 31.8669 88.6426 30.6563 88.6426 28.6004C88.6426 26.1986 87.071 25.0265 83.7937 25.0457L78.3891 25.0842L76.7792 25.0457L76.99 32.7123L76.7792 37.5159L77.6033 37.4775L78.4274 37.5159L78.2358 32.2319H83.5829L84.2537 33.3079L86.5152 37.5735L88.4126 37.5159L85.3269 32.6739V32.6739ZM100.544 31.521L97.4971 25.0457L96.558 25.0842L95.5806 25.0457L92.7441 31.1175L89.5818 37.5159H91.4217L92.8208 34.3071H100.544L101.982 37.5159H103.553L100.544 31.521V31.521ZM53.7233 37.5159L53.57 32.7123V32.6739L55.6591 29.6764L59.4346 25.0265H57.0773L54.6433 28.7157L52.8992 31.0406L51.1552 28.7541L48.6637 25.0265H46.5172L50.1394 29.6188L52.1901 32.6739V32.7123L52.0751 37.5159L52.8992 37.4775L53.7233 37.5159V37.5159ZM61.1403 37.5159L62.7694 37.4775L66.8899 37.5159C71.1063 37.5159 74.1153 35.6521 74.1153 31.1175C74.1153 26.9864 71.2405 25.0457 67.3691 25.0457L62.7694 25.0842L61.1403 25.0457L61.3512 32.7123L61.1403 37.5159ZM33.3697 37.5159L33.1589 32.7123L33.1781 31.8284H43.2782L43.2973 32.7123L43.0865 37.5159L43.9106 37.4775L44.7348 37.5159L44.5239 32.7123L44.7348 25.0457L43.9106 25.0842L43.0865 25.0457L43.2207 30.1568H33.2356L33.3697 25.0457L32.5456 25.0842L31.7215 25.0457L31.9323 32.7123L31.7215 37.5159L32.5456 37.4775L33.3697 37.5159V37.5159ZM67.369 26.6789C70.8955 26.6789 72.927 28.2353 72.927 31.0791C72.927 34.211 70.8763 35.8634 67.1199 35.8634H62.7119L62.5777 32.7123L62.7502 26.6789H67.369ZM118.754 33.238V28.701H118.302V28.2473H117.849V27.7936H114.229V34.1454H117.849V33.6917H118.302V33.238H118.754ZM121.017 30.0621H121.469V30.5158H121.922V31.4232H121.469V31.8769H121.017V32.7843H120.564V34.1454H121.469V33.238H121.922V32.3306H122.374V31.8769H123.279V32.3306H123.732V33.238H124.185V34.1454H125.09V32.7843H124.637V31.8769H124.185V31.4232H123.732V30.5158H124.185V30.0621H124.637V29.1547H125.09V27.7936H124.185V28.701H123.732V29.6084H123.279V30.0621H122.374V29.6084H121.922V28.701H121.469V27.7936H120.564V29.1547H121.017V30.0621ZM7.15525 28.4233C9.443 28.5446 11.2722 31.0003 11.2722 31.0003C11.2722 31.0003 9.443 33.4559 7.15525 33.5772C7.51137 33.1785 8.28789 32.1745 8.28789 31.0003C8.28789 29.826 7.51137 28.822 7.15525 28.4233V28.4233ZM17.2722 28.4233C16.9161 28.822 16.1396 29.826 16.1396 31.0003C16.1396 32.1745 16.9161 33.1785 17.2722 33.5772C14.9845 33.4559 13.1552 31.0003 13.1552 31.0003C13.1552 31.0003 14.9845 28.5446 17.2722 28.4233V28.4233ZM117.397 29.1547H117.849V32.7843H117.397V33.238H115.134V28.701H117.397V29.1547V29.1547ZM99.8162 32.6931H93.53L93.9516 31.7324L96.5581 26.4292L99.4713 31.9437L99.8162 32.6931V32.6931ZM87.4928 28.6196C87.4928 29.369 87.2053 29.8878 86.6111 30.1952C86.017 30.5218 84.9246 30.6755 83.3722 30.6755H78.2742L78.3892 26.6597H83.3722C85.0013 26.6597 86.1129 26.7942 86.6686 27.0825C87.2244 27.3707 87.4928 27.8895 87.4928 28.6196Z"
          fill="#52B2ED"/>
    <path d="M146 25V37" stroke="white" stroke-opacity="0.2"/>
    <path d="M170.896 24.224H173.264V28.768C172.656 29.2267 171.952 29.5787 171.152 29.824C170.352 30.0693 169.547 30.192 168.736 30.192C167.573 30.192 166.528 29.9467 165.6 29.456C164.672 28.9547 163.941 28.2667 163.408 27.392C162.885 26.5067 162.624 25.5093 162.624 24.4C162.624 23.2907 162.885 22.2987 163.408 21.424C163.941 20.5387 164.677 19.8507 165.616 19.36C166.555 18.8587 167.611 18.608 168.784 18.608C169.765 18.608 170.656 18.7733 171.456 19.104C172.256 19.4347 172.928 19.9147 173.472 20.544L171.808 22.08C171.008 21.2373 170.043 20.816 168.912 20.816C168.197 20.816 167.563 20.9653 167.008 21.264C166.453 21.5627 166.021 21.984 165.712 22.528C165.403 23.072 165.248 23.696 165.248 24.4C165.248 25.0933 165.403 25.712 165.712 26.256C166.021 26.8 166.448 27.2267 166.992 27.536C167.547 27.8347 168.176 27.984 168.88 27.984C169.627 27.984 170.299 27.824 170.896 27.504V24.224ZM179.592 30.128C178.685 30.128 177.869 29.9413 177.144 29.568C176.429 29.184 175.869 28.656 175.464 27.984C175.058 27.312 174.856 26.5493 174.856 25.696C174.856 24.8427 175.058 24.08 175.464 23.408C175.869 22.736 176.429 22.2133 177.144 21.84C177.869 21.456 178.685 21.264 179.592 21.264C180.498 21.264 181.309 21.456 182.024 21.84C182.738 22.2133 183.298 22.736 183.704 23.408C184.109 24.08 184.312 24.8427 184.312 25.696C184.312 26.5493 184.109 27.312 183.704 27.984C183.298 28.656 182.738 29.184 182.024 29.568C181.309 29.9413 180.498 30.128 179.592 30.128ZM179.592 28.08C180.232 28.08 180.754 27.8667 181.16 27.44C181.576 27.0027 181.784 26.4213 181.784 25.696C181.784 24.9707 181.576 24.3947 181.16 23.968C180.754 23.5307 180.232 23.312 179.592 23.312C178.952 23.312 178.424 23.5307 178.008 23.968C177.592 24.3947 177.384 24.9707 177.384 25.696C177.384 26.4213 177.592 27.0027 178.008 27.44C178.424 27.8667 178.952 28.08 179.592 28.08ZM194.29 21.392L190.658 30H188.082L184.466 21.392H187.042L189.426 27.248L191.89 21.392H194.29ZM203.506 25.728C203.506 25.76 203.49 25.984 203.458 26.4H196.946C197.063 26.9333 197.341 27.3547 197.778 27.664C198.215 27.9733 198.759 28.128 199.41 28.128C199.858 28.128 200.253 28.064 200.594 27.936C200.946 27.7973 201.271 27.584 201.57 27.296L202.898 28.736C202.087 29.664 200.903 30.128 199.346 30.128C198.375 30.128 197.517 29.9413 196.77 29.568C196.023 29.184 195.447 28.656 195.042 27.984C194.637 27.312 194.434 26.5493 194.434 25.696C194.434 24.8533 194.631 24.096 195.026 23.424C195.431 22.7413 195.981 22.2133 196.674 21.84C197.378 21.456 198.162 21.264 199.026 21.264C199.869 21.264 200.631 21.4453 201.314 21.808C201.997 22.1707 202.53 22.6933 202.914 23.376C203.309 24.048 203.506 24.832 203.506 25.728ZM199.042 23.152C198.477 23.152 198.002 23.312 197.618 23.632C197.234 23.952 196.999 24.3893 196.914 24.944H201.154C201.069 24.4 200.834 23.968 200.45 23.648C200.066 23.3173 199.597 23.152 199.042 23.152ZM207.552 22.528C207.85 22.112 208.25 21.7973 208.752 21.584C209.264 21.3707 209.85 21.264 210.512 21.264V23.568C210.234 23.5467 210.048 23.536 209.952 23.536C209.237 23.536 208.677 23.7387 208.272 24.144C207.866 24.5387 207.664 25.136 207.664 25.936V30H205.168V21.392H207.552V22.528ZM217.228 21.264C218.294 21.264 219.153 21.584 219.804 22.224C220.465 22.864 220.796 23.8133 220.796 25.072V30H218.3V25.456C218.3 24.7733 218.15 24.2667 217.852 23.936C217.553 23.5947 217.121 23.424 216.556 23.424C215.926 23.424 215.425 23.6213 215.052 24.016C214.678 24.4 214.492 24.976 214.492 25.744V30H211.996V21.392H214.38V22.4C214.71 22.0373 215.121 21.76 215.612 21.568C216.102 21.3653 216.641 21.264 217.228 21.264ZM226.53 21.264C227.864 21.264 228.888 21.584 229.602 22.224C230.317 22.8533 230.674 23.808 230.674 25.088V30H228.338V28.928C227.869 29.728 226.994 30.128 225.714 30.128C225.053 30.128 224.477 30.016 223.986 29.792C223.506 29.568 223.138 29.2587 222.882 28.864C222.626 28.4693 222.498 28.0213 222.498 27.52C222.498 26.72 222.797 26.0907 223.394 25.632C224.002 25.1733 224.936 24.944 226.194 24.944H228.178C228.178 24.4 228.013 23.984 227.682 23.696C227.352 23.3973 226.856 23.248 226.194 23.248C225.736 23.248 225.282 23.3227 224.834 23.472C224.397 23.6107 224.024 23.8027 223.714 24.048L222.818 22.304C223.288 21.9733 223.848 21.7173 224.498 21.536C225.16 21.3547 225.837 21.264 226.53 21.264ZM226.338 28.448C226.765 28.448 227.144 28.352 227.474 28.16C227.805 27.9573 228.04 27.664 228.178 27.28V26.4H226.466C225.442 26.4 224.93 26.736 224.93 27.408C224.93 27.728 225.053 27.984 225.298 28.176C225.554 28.3573 225.901 28.448 226.338 28.448ZM238.165 21.264C239.232 21.264 240.091 21.584 240.741 22.224C241.403 22.864 241.733 23.8133 241.733 25.072V30H239.237V25.456C239.237 24.7733 239.088 24.2667 238.789 23.936C238.491 23.5947 238.059 23.424 237.493 23.424C236.864 23.424 236.363 23.6213 235.989 24.016C235.616 24.4 235.429 24.976 235.429 25.744V30H232.933V21.392H235.317V22.4C235.648 22.0373 236.059 21.76 236.549 21.568C237.04 21.3653 237.579 21.264 238.165 21.264ZM248.25 30.128C247.332 30.128 246.506 29.9413 245.77 29.568C245.044 29.184 244.474 28.656 244.058 27.984C243.652 27.312 243.45 26.5493 243.45 25.696C243.45 24.8427 243.652 24.08 244.058 23.408C244.474 22.736 245.044 22.2133 245.77 21.84C246.506 21.456 247.332 21.264 248.25 21.264C249.156 21.264 249.946 21.456 250.618 21.84C251.3 22.2133 251.796 22.752 252.106 23.456L250.17 24.496C249.722 23.7067 249.076 23.312 248.234 23.312C247.583 23.312 247.044 23.5253 246.618 23.952C246.191 24.3787 245.978 24.96 245.978 25.696C245.978 26.432 246.191 27.0133 246.618 27.44C247.044 27.8667 247.583 28.08 248.234 28.08C249.087 28.08 249.732 27.6853 250.17 26.896L252.106 27.952C251.796 28.6347 251.3 29.168 250.618 29.552C249.946 29.936 249.156 30.128 248.25 30.128ZM261.865 25.728C261.865 25.76 261.849 25.984 261.817 26.4H255.305C255.423 26.9333 255.7 27.3547 256.137 27.664C256.575 27.9733 257.119 28.128 257.769 28.128C258.217 28.128 258.612 28.064 258.953 27.936C259.305 27.7973 259.631 27.584 259.929 27.296L261.257 28.736C260.447 29.664 259.263 30.128 257.705 30.128C256.735 30.128 255.876 29.9413 255.129 29.568C254.383 29.184 253.807 28.656 253.401 27.984C252.996 27.312 252.793 26.5493 252.793 25.696C252.793 24.8533 252.991 24.096 253.385 23.424C253.791 22.7413 254.34 22.2133 255.033 21.84C255.737 21.456 256.521 21.264 257.385 21.264C258.228 21.264 258.991 21.4453 259.673 21.808C260.356 22.1707 260.889 22.6933 261.273 23.376C261.668 24.048 261.865 24.832 261.865 25.728ZM257.401 23.152C256.836 23.152 256.361 23.312 255.977 23.632C255.593 23.952 255.359 24.3893 255.273 24.944H259.513C259.428 24.4 259.193 23.968 258.809 23.648C258.425 23.3173 257.956 23.152 257.401 23.152Z"
          fill="white"/>
    <path d="M166.858 39.5455C166.815 39.1856 166.643 38.9062 166.339 38.7074C166.036 38.5085 165.665 38.4091 165.224 38.4091C164.902 38.4091 164.621 38.4612 164.379 38.5653C164.14 38.6695 163.953 38.8127 163.818 38.995C163.686 39.1773 163.619 39.3845 163.619 39.6165C163.619 39.8106 163.665 39.9775 163.758 40.1172C163.853 40.2545 163.973 40.3693 164.12 40.4616C164.267 40.5516 164.421 40.6262 164.582 40.6854C164.743 40.7422 164.891 40.7884 165.026 40.8239L165.764 41.0227C165.954 41.0724 166.164 41.1411 166.396 41.2287C166.631 41.3163 166.854 41.4358 167.067 41.5874C167.283 41.7365 167.46 41.9283 167.6 42.1626C167.74 42.397 167.81 42.6847 167.81 43.0256C167.81 43.4186 167.707 43.7737 167.501 44.0909C167.297 44.4081 166.999 44.6603 166.606 44.8473C166.215 45.0343 165.741 45.1278 165.182 45.1278C164.661 45.1278 164.21 45.0438 163.829 44.8757C163.45 44.7076 163.152 44.4732 162.934 44.1726C162.719 43.8719 162.597 43.5227 162.568 43.125H163.477C163.501 43.3996 163.593 43.6269 163.754 43.8068C163.918 43.9844 164.124 44.117 164.372 44.2045C164.623 44.2898 164.893 44.3324 165.182 44.3324C165.518 44.3324 165.82 44.2779 166.087 44.169C166.355 44.0578 166.567 43.9039 166.723 43.7074C166.879 43.5085 166.957 43.2765 166.957 43.0114C166.957 42.7699 166.89 42.5734 166.755 42.4219C166.62 42.2704 166.442 42.1473 166.222 42.0526C166.002 41.9579 165.764 41.875 165.509 41.804L164.614 41.5483C164.045 41.3849 163.596 41.1518 163.264 40.8487C162.933 40.5457 162.767 40.1491 162.767 39.6591C162.767 39.2519 162.877 38.8968 163.097 38.5938C163.32 38.2884 163.618 38.0516 163.992 37.8835C164.369 37.7131 164.789 37.6278 165.253 37.6278C165.722 37.6278 166.138 37.7119 166.503 37.88C166.867 38.0457 167.156 38.273 167.369 38.5618C167.585 38.8506 167.698 39.1785 167.71 39.5455H166.858ZM172.581 42.7699V39.5455H173.42V45H172.581V44.0767H172.525C172.397 44.3537 172.198 44.5893 171.928 44.7834C171.658 44.9751 171.317 45.071 170.905 45.071C170.564 45.071 170.261 44.9964 169.996 44.8473C169.731 44.6958 169.523 44.4685 169.371 44.1655C169.22 43.8601 169.144 43.4754 169.144 43.0114V39.5455H169.982V42.9545C169.982 43.3523 170.093 43.6695 170.316 43.9062C170.541 44.143 170.827 44.2614 171.175 44.2614C171.384 44.2614 171.595 44.2081 171.811 44.1016C172.029 43.995 172.211 43.8317 172.358 43.6115C172.507 43.3913 172.581 43.1108 172.581 42.7699ZM175.068 45V37.7273H175.906V40.4119H175.977C176.039 40.3172 176.124 40.1965 176.233 40.0497C176.344 39.9006 176.503 39.768 176.709 39.652C176.917 39.5336 177.199 39.4744 177.554 39.4744C178.013 39.4744 178.418 39.5893 178.768 39.8189C179.119 40.0485 179.392 40.3741 179.589 40.7955C179.785 41.2169 179.884 41.714 179.884 42.2869C179.884 42.8646 179.785 43.3653 179.589 43.7891C179.392 44.2105 179.12 44.5372 178.772 44.7692C178.424 44.9988 178.023 45.1136 177.568 45.1136C177.218 45.1136 176.937 45.0556 176.727 44.9396C176.516 44.8213 176.354 44.6875 176.24 44.5384C176.126 44.3868 176.039 44.2614 175.977 44.1619H175.878V45H175.068ZM175.892 42.2727C175.892 42.6847 175.952 43.0481 176.073 43.3629C176.194 43.6754 176.37 43.9205 176.602 44.098C176.834 44.2732 177.118 44.3608 177.455 44.3608C177.805 44.3608 178.097 44.2685 178.332 44.0838C178.568 43.8968 178.746 43.6458 178.864 43.331C178.985 43.0137 179.045 42.661 179.045 42.2727C179.045 41.8892 178.986 41.5436 178.868 41.2358C178.752 40.9257 178.576 40.6806 178.339 40.5007C178.104 40.3184 177.81 40.2273 177.455 40.2273C177.114 40.2273 176.827 40.3137 176.595 40.4865C176.363 40.657 176.188 40.8961 176.07 41.2038C175.951 41.5092 175.892 41.8655 175.892 42.2727ZM185.256 39.5455C185.214 39.1856 185.041 38.9062 184.738 38.7074C184.435 38.5085 184.063 38.4091 183.623 38.4091C183.301 38.4091 183.019 38.4612 182.778 38.5653C182.539 38.6695 182.352 38.8127 182.217 38.995C182.084 39.1773 182.018 39.3845 182.018 39.6165C182.018 39.8106 182.064 39.9775 182.156 40.1172C182.251 40.2545 182.372 40.3693 182.518 40.4616C182.665 40.5516 182.819 40.6262 182.98 40.6854C183.141 40.7422 183.289 40.7884 183.424 40.8239L184.163 41.0227C184.352 41.0724 184.563 41.1411 184.795 41.2287C185.029 41.3163 185.253 41.4358 185.466 41.5874C185.681 41.7365 185.859 41.9283 185.999 42.1626C186.138 42.397 186.208 42.6847 186.208 43.0256C186.208 43.4186 186.105 43.7737 185.899 44.0909C185.696 44.4081 185.397 44.6603 185.004 44.8473C184.614 45.0343 184.139 45.1278 183.58 45.1278C183.059 45.1278 182.608 45.0438 182.227 44.8757C181.848 44.7076 181.55 44.4732 181.332 44.1726C181.117 43.8719 180.995 43.5227 180.967 43.125H181.876C181.899 43.3996 181.992 43.6269 182.153 43.8068C182.316 43.9844 182.522 44.117 182.771 44.2045C183.022 44.2898 183.291 44.3324 183.58 44.3324C183.916 44.3324 184.218 44.2779 184.486 44.169C184.753 44.0578 184.965 43.9039 185.121 43.7074C185.278 43.5085 185.356 43.2765 185.356 43.0114C185.356 42.7699 185.288 42.5734 185.153 42.4219C185.018 42.2704 184.841 42.1473 184.621 42.0526C184.401 41.9579 184.163 41.875 183.907 41.804L183.012 41.5483C182.444 41.3849 181.994 41.1518 181.663 40.8487C181.331 40.5457 181.165 40.1491 181.165 39.6591C181.165 39.2519 181.276 38.8968 181.496 38.5938C181.718 38.2884 182.017 38.0516 182.391 37.8835C182.767 37.7131 183.187 37.6278 183.651 37.6278C184.12 37.6278 184.537 37.7119 184.901 37.88C185.266 38.0457 185.555 38.273 185.768 38.5618C185.983 38.8506 186.097 39.1785 186.109 39.5455H185.256ZM191.264 47.0455V44.1619H191.193C191.131 44.2614 191.044 44.3868 190.93 44.5384C190.817 44.6875 190.654 44.8213 190.444 44.9396C190.233 45.0556 189.952 45.1136 189.602 45.1136C189.148 45.1136 188.746 44.9988 188.398 44.7692C188.05 44.5372 187.778 44.2105 187.581 43.7891C187.385 43.3653 187.287 42.8646 187.287 42.2869C187.287 41.714 187.385 41.2169 187.581 40.7955C187.778 40.3741 188.051 40.0485 188.402 39.8189C188.752 39.5893 189.157 39.4744 189.616 39.4744C189.971 39.4744 190.252 39.5336 190.458 39.652C190.666 39.768 190.825 39.9006 190.934 40.0497C191.045 40.1965 191.131 40.3172 191.193 40.4119H191.292V39.5455H192.102V47.0455H191.264ZM189.716 44.3608C190.052 44.3608 190.336 44.2732 190.568 44.098C190.8 43.9205 190.976 43.6754 191.097 43.3629C191.218 43.0481 191.278 42.6847 191.278 42.2727C191.278 41.8655 191.219 41.5092 191.101 41.2038C190.982 40.8961 190.807 40.657 190.575 40.4865C190.343 40.3137 190.057 40.2273 189.716 40.2273C189.361 40.2273 189.065 40.3184 188.828 40.5007C188.594 40.6806 188.417 40.9257 188.299 41.2358C188.183 41.5436 188.125 41.8892 188.125 42.2727C188.125 42.661 188.184 43.0137 188.302 43.331C188.423 43.6458 188.601 43.8968 188.835 44.0838C189.072 44.2685 189.365 44.3608 189.716 44.3608ZM197.074 42.7699V39.5455H197.912V45H197.074V44.0767H197.017C196.889 44.3537 196.69 44.5893 196.42 44.7834C196.15 44.9751 195.809 45.071 195.398 45.071C195.057 45.071 194.754 44.9964 194.488 44.8473C194.223 44.6958 194.015 44.4685 193.863 44.1655C193.712 43.8601 193.636 43.4754 193.636 43.0114V39.5455H194.474V42.9545C194.474 43.3523 194.586 43.6695 194.808 43.9062C195.033 44.143 195.319 44.2614 195.667 44.2614C195.876 44.2614 196.088 44.2081 196.303 44.1016C196.521 43.995 196.703 43.8317 196.85 43.6115C196.999 43.3913 197.074 43.1108 197.074 42.7699ZM201.052 45.1278C200.706 45.1278 200.393 45.0627 200.111 44.9325C199.829 44.8 199.605 44.6094 199.44 44.3608C199.274 44.1098 199.191 43.8068 199.191 43.4517C199.191 43.1392 199.253 42.8859 199.376 42.6918C199.499 42.4953 199.663 42.3414 199.869 42.2301C200.075 42.1188 200.303 42.036 200.551 41.9815C200.802 41.9247 201.054 41.8797 201.308 41.8466C201.639 41.804 201.908 41.772 202.114 41.7507C202.322 41.727 202.473 41.688 202.568 41.6335C202.665 41.5791 202.714 41.4844 202.714 41.3494V41.321C202.714 40.9706 202.618 40.6984 202.426 40.5043C202.237 40.3101 201.949 40.2131 201.563 40.2131C201.163 40.2131 200.849 40.3007 200.622 40.4759C200.395 40.651 200.235 40.8381 200.143 41.0369L199.347 40.7528C199.489 40.4214 199.679 40.1634 199.915 39.9787C200.155 39.7917 200.415 39.6615 200.697 39.5881C200.981 39.5123 201.26 39.4744 201.535 39.4744C201.71 39.4744 201.911 39.4957 202.138 39.5384C202.368 39.5786 202.589 39.6626 202.803 39.7905C203.018 39.9183 203.197 40.1113 203.339 40.3693C203.481 40.6274 203.552 40.973 203.552 41.4062V45H202.714V44.2614H202.671C202.614 44.3797 202.52 44.5064 202.387 44.6413C202.254 44.7763 202.078 44.8911 201.858 44.9858C201.638 45.0805 201.369 45.1278 201.052 45.1278ZM201.18 44.375C201.511 44.375 201.79 44.3099 202.018 44.1797C202.247 44.0495 202.42 43.8814 202.536 43.6754C202.655 43.4695 202.714 43.2528 202.714 43.0256V42.2585C202.678 42.3011 202.6 42.3402 202.479 42.3757C202.361 42.4089 202.224 42.4384 202.067 42.4645C201.914 42.4882 201.763 42.5095 201.616 42.5284C201.472 42.545 201.355 42.5592 201.265 42.571C201.047 42.5994 200.844 42.6456 200.654 42.7095C200.467 42.7711 200.316 42.8646 200.2 42.9901C200.086 43.1132 200.029 43.2812 200.029 43.4943C200.029 43.7855 200.137 44.0057 200.352 44.1548C200.57 44.3016 200.846 44.375 201.18 44.375ZM205.081 45V39.5455H205.891V40.3693H205.948C206.047 40.0994 206.227 39.8804 206.488 39.7124C206.748 39.5443 207.042 39.4602 207.368 39.4602C207.43 39.4602 207.507 39.4614 207.599 39.4638C207.692 39.4661 207.761 39.4697 207.809 39.4744V40.3267C207.78 40.3196 207.715 40.3089 207.613 40.2947C207.514 40.2782 207.409 40.2699 207.297 40.2699C207.032 40.2699 206.796 40.3255 206.587 40.4368C206.381 40.5457 206.218 40.6972 206.097 40.8913C205.979 41.0831 205.92 41.3021 205.92 41.5483V45H205.081ZM210.923 45.1136C210.398 45.1136 209.944 44.9976 209.563 44.7656C209.184 44.5312 208.892 44.2045 208.686 43.7855C208.482 43.3641 208.381 42.8741 208.381 42.3153C208.381 41.7566 208.482 41.2642 208.686 40.8381C208.892 40.4096 209.178 40.0758 209.545 39.8366C209.915 39.5952 210.345 39.4744 210.838 39.4744C211.122 39.4744 211.403 39.5218 211.68 39.6165C211.956 39.7112 212.209 39.8651 212.436 40.0781C212.663 40.2888 212.844 40.5682 212.979 40.9162C213.114 41.2642 213.182 41.6927 213.182 42.2017V42.5568H208.977V41.8324H212.329C212.329 41.5246 212.268 41.25 212.145 41.0085C212.024 40.767 211.851 40.5765 211.626 40.4368C211.404 40.2971 211.141 40.2273 210.838 40.2273C210.504 40.2273 210.215 40.3101 209.971 40.4759C209.73 40.6392 209.544 40.8523 209.414 41.1151C209.284 41.3778 209.219 41.6596 209.219 41.9602V42.4432C209.219 42.8551 209.29 43.2043 209.432 43.4908C209.576 43.7749 209.776 43.9915 210.032 44.1406C210.287 44.2874 210.585 44.3608 210.923 44.3608C211.143 44.3608 211.342 44.33 211.52 44.2685C211.7 44.2045 211.855 44.1098 211.985 43.9844C212.115 43.8565 212.216 43.6979 212.287 43.5085L213.096 43.7358C213.011 44.0104 212.868 44.2519 212.667 44.4602C212.465 44.6662 212.217 44.8272 211.921 44.9432C211.625 45.0568 211.292 45.1136 210.923 45.1136Z"
          fill="white" fill-opacity="0.4"/>
</svg>
