<svg width="271" height="64" viewBox="0 0 271 64" fill="none" xmlns="http://www.w3.org/2000/svg">
    <path d="M39.527 46.9997H12.2573C12.1274 46.9993 12.0002 46.963 11.8896 46.8947L2.03066 40.7917C1.90099 40.7113 1.80099 40.5908 1.7458 40.4484C1.69061 40.3059 1.68324 40.1493 1.72481 40.0023C1.76638 39.8553 1.85462 39.7258 1.97617 39.6336C2.09771 39.5414 2.24593 39.4914 2.39835 39.4912H29.6719C29.8022 39.4916 29.9298 39.5279 30.0409 39.5962L39.8947 45.6954C40.0262 45.775 40.128 45.8956 40.1844 46.0389C40.2408 46.1821 40.2488 46.3399 40.207 46.4881C40.1652 46.6363 40.0761 46.7667 39.9532 46.8591C39.8303 46.9515 39.6806 47.0009 39.527 46.9997ZM12.4513 45.5917H37.0578L29.474 40.8979H4.86628L12.4513 45.5917Z"
          fill="black"/>
    <path d="M37.8288 22.5047H10.5552C10.4253 22.5044 10.298 22.4681 10.1875 22.3997L0.332413 16.3005C0.202658 16.2201 0.102607 16.0994 0.0474423 15.9569C-0.0077226 15.8143 -0.0149896 15.6576 0.0267441 15.5105C0.0684778 15.3634 0.156934 15.2339 0.278689 15.1418C0.400444 15.0497 0.548851 14.9999 0.701388 15H27.9749C28.1053 15 28.233 15.0363 28.3439 15.105L38.1977 21.2042C38.3274 21.2845 38.4274 21.4051 38.4826 21.5475C38.5378 21.69 38.5452 21.8466 38.5036 21.9936C38.462 22.1406 38.3738 22.27 38.2522 22.3623C38.1307 22.4545 37.9825 22.5045 37.83 22.5047H37.8288ZM10.7544 21.0967H35.366L27.7758 16.408H3.16931L10.7544 21.0967Z"
          fill="black"/>
    <path d="M23.8755 27.9482C23.0751 27.1568 21.9955 26.7142 20.8713 26.7168H20.8266C19.6876 26.7224 18.5973 27.1814 17.7958 27.9929C16.9943 28.8044 16.5472 29.9019 16.5528 31.0439C16.5584 32.1859 17.0162 33.2789 17.8256 34.0824C18.635 34.886 19.7297 35.3343 20.8688 35.3287H20.9122C21.7615 35.3201 22.5893 35.0592 23.2907 34.579C23.9922 34.0988 24.5358 33.4208 24.853 32.6309C25.1702 31.8409 25.2466 30.9744 25.0726 30.1409C24.8986 29.3074 24.482 28.5443 23.8755 27.9482V27.9482Z"
          fill="black"/>
    <path d="M47.7275 26.4004H50.2689V36.6315H47.7275V26.4004Z" fill="black"/>
    <path d="M54.6104 26.4004H58.2682L62.2631 33.2689H62.2784L62.2018 26.4004H64.588V36.6315H61.5864L56.9519 28.6954H56.9366L56.9978 36.6212H54.6104V26.4004Z"
          fill="black"/>
    <path d="M71.3376 28.4049H68.4395V26.4004H76.7625V28.4049H73.8809V36.6315H71.3376V28.4049Z" fill="black"/>
    <path d="M80.6094 26.4004H87.8319V28.4049H83.1513V30.7089H86.776V32.2628H83.1513V34.6244H87.9723V36.6315H80.6094V26.4004Z"
          fill="black"/>
    <path d="M91.8965 26.4004H96.6549C99.3526 26.4004 100.809 27.5191 100.809 29.4455C100.809 30.7511 100.251 31.5754 99.29 31.8545V31.8852C100.297 32.1182 100.747 32.9271 100.747 34.0766V36.6315H98.2048V34.161C98.2048 33.2292 97.8639 32.8247 96.9026 32.8247H94.4372V36.6315H91.8965V26.4004ZM96.7634 31.2798C97.8333 31.2798 98.3759 30.7985 98.3759 29.85C98.3759 28.954 97.818 28.4049 96.6395 28.4049H94.4372V31.2798H96.7634Z"
          fill="black"/>
    <path d="M104.995 26.4004H107.537V34.6206H112.183V36.6315H104.995V26.4004Z" fill="black"/>
    <path d="M122.992 34.5429H118.917L118.219 36.6319H115.614L119.553 26.4072H122.714L126.65 36.6319H123.691L122.992 34.5429ZM122.466 32.9583L120.962 28.4783H120.932L119.443 32.9583H122.466Z"
          fill="black"/>
    <path d="M131.427 32.7095L127.413 26.4004H130.683L132.915 30.4401H132.96L135.164 26.4004H138L133.97 32.7095V36.6315H131.428L131.427 32.7095Z"
          fill="black"/>
    <path d="M154 25V37" stroke="#E0E4EB"/>
    <path d="M178.896 24.224H181.264V28.768C180.656 29.2267 179.952 29.5787 179.152 29.824C178.352 30.0693 177.547 30.192 176.736 30.192C175.573 30.192 174.528 29.9467 173.6 29.456C172.672 28.9547 171.941 28.2667 171.408 27.392C170.885 26.5067 170.624 25.5093 170.624 24.4C170.624 23.2907 170.885 22.2987 171.408 21.424C171.941 20.5387 172.677 19.8507 173.616 19.36C174.555 18.8587 175.611 18.608 176.784 18.608C177.765 18.608 178.656 18.7733 179.456 19.104C180.256 19.4347 180.928 19.9147 181.472 20.544L179.808 22.08C179.008 21.2373 178.043 20.816 176.912 20.816C176.197 20.816 175.563 20.9653 175.008 21.264C174.453 21.5627 174.021 21.984 173.712 22.528C173.403 23.072 173.248 23.696 173.248 24.4C173.248 25.0933 173.403 25.712 173.712 26.256C174.021 26.8 174.448 27.2267 174.992 27.536C175.547 27.8347 176.176 27.984 176.88 27.984C177.627 27.984 178.299 27.824 178.896 27.504V24.224ZM187.592 30.128C186.685 30.128 185.869 29.9413 185.144 29.568C184.429 29.184 183.869 28.656 183.464 27.984C183.058 27.312 182.856 26.5493 182.856 25.696C182.856 24.8427 183.058 24.08 183.464 23.408C183.869 22.736 184.429 22.2133 185.144 21.84C185.869 21.456 186.685 21.264 187.592 21.264C188.498 21.264 189.309 21.456 190.024 21.84C190.738 22.2133 191.298 22.736 191.704 23.408C192.109 24.08 192.312 24.8427 192.312 25.696C192.312 26.5493 192.109 27.312 191.704 27.984C191.298 28.656 190.738 29.184 190.024 29.568C189.309 29.9413 188.498 30.128 187.592 30.128ZM187.592 28.08C188.232 28.08 188.754 27.8667 189.16 27.44C189.576 27.0027 189.784 26.4213 189.784 25.696C189.784 24.9707 189.576 24.3947 189.16 23.968C188.754 23.5307 188.232 23.312 187.592 23.312C186.952 23.312 186.424 23.5307 186.008 23.968C185.592 24.3947 185.384 24.9707 185.384 25.696C185.384 26.4213 185.592 27.0027 186.008 27.44C186.424 27.8667 186.952 28.08 187.592 28.08ZM202.29 21.392L198.658 30H196.082L192.466 21.392H195.042L197.426 27.248L199.89 21.392H202.29ZM211.506 25.728C211.506 25.76 211.49 25.984 211.458 26.4H204.946C205.063 26.9333 205.341 27.3547 205.778 27.664C206.215 27.9733 206.759 28.128 207.41 28.128C207.858 28.128 208.253 28.064 208.594 27.936C208.946 27.7973 209.271 27.584 209.57 27.296L210.898 28.736C210.087 29.664 208.903 30.128 207.346 30.128C206.375 30.128 205.517 29.9413 204.77 29.568C204.023 29.184 203.447 28.656 203.042 27.984C202.637 27.312 202.434 26.5493 202.434 25.696C202.434 24.8533 202.631 24.096 203.026 23.424C203.431 22.7413 203.981 22.2133 204.674 21.84C205.378 21.456 206.162 21.264 207.026 21.264C207.869 21.264 208.631 21.4453 209.314 21.808C209.997 22.1707 210.53 22.6933 210.914 23.376C211.309 24.048 211.506 24.832 211.506 25.728ZM207.042 23.152C206.477 23.152 206.002 23.312 205.618 23.632C205.234 23.952 204.999 24.3893 204.914 24.944H209.154C209.069 24.4 208.834 23.968 208.45 23.648C208.066 23.3173 207.597 23.152 207.042 23.152ZM215.552 22.528C215.85 22.112 216.25 21.7973 216.752 21.584C217.264 21.3707 217.85 21.264 218.512 21.264V23.568C218.234 23.5467 218.048 23.536 217.952 23.536C217.237 23.536 216.677 23.7387 216.272 24.144C215.866 24.5387 215.664 25.136 215.664 25.936V30H213.168V21.392H215.552V22.528ZM225.228 21.264C226.294 21.264 227.153 21.584 227.804 22.224C228.465 22.864 228.796 23.8133 228.796 25.072V30H226.3V25.456C226.3 24.7733 226.15 24.2667 225.852 23.936C225.553 23.5947 225.121 23.424 224.556 23.424C223.926 23.424 223.425 23.6213 223.052 24.016C222.678 24.4 222.492 24.976 222.492 25.744V30H219.996V21.392H222.38V22.4C222.71 22.0373 223.121 21.76 223.612 21.568C224.102 21.3653 224.641 21.264 225.228 21.264ZM234.53 21.264C235.864 21.264 236.888 21.584 237.602 22.224C238.317 22.8533 238.674 23.808 238.674 25.088V30H236.338V28.928C235.869 29.728 234.994 30.128 233.714 30.128C233.053 30.128 232.477 30.016 231.986 29.792C231.506 29.568 231.138 29.2587 230.882 28.864C230.626 28.4693 230.498 28.0213 230.498 27.52C230.498 26.72 230.797 26.0907 231.394 25.632C232.002 25.1733 232.936 24.944 234.194 24.944H236.178C236.178 24.4 236.013 23.984 235.682 23.696C235.352 23.3973 234.856 23.248 234.194 23.248C233.736 23.248 233.282 23.3227 232.834 23.472C232.397 23.6107 232.024 23.8027 231.714 24.048L230.818 22.304C231.288 21.9733 231.848 21.7173 232.498 21.536C233.16 21.3547 233.837 21.264 234.53 21.264ZM234.338 28.448C234.765 28.448 235.144 28.352 235.474 28.16C235.805 27.9573 236.04 27.664 236.178 27.28V26.4H234.466C233.442 26.4 232.93 26.736 232.93 27.408C232.93 27.728 233.053 27.984 233.298 28.176C233.554 28.3573 233.901 28.448 234.338 28.448ZM246.165 21.264C247.232 21.264 248.091 21.584 248.741 22.224C249.403 22.864 249.733 23.8133 249.733 25.072V30H247.237V25.456C247.237 24.7733 247.088 24.2667 246.789 23.936C246.491 23.5947 246.059 23.424 245.493 23.424C244.864 23.424 244.363 23.6213 243.989 24.016C243.616 24.4 243.429 24.976 243.429 25.744V30H240.933V21.392H243.317V22.4C243.648 22.0373 244.059 21.76 244.549 21.568C245.04 21.3653 245.579 21.264 246.165 21.264ZM256.25 30.128C255.332 30.128 254.506 29.9413 253.77 29.568C253.044 29.184 252.474 28.656 252.058 27.984C251.652 27.312 251.45 26.5493 251.45 25.696C251.45 24.8427 251.652 24.08 252.058 23.408C252.474 22.736 253.044 22.2133 253.77 21.84C254.506 21.456 255.332 21.264 256.25 21.264C257.156 21.264 257.946 21.456 258.618 21.84C259.3 22.2133 259.796 22.752 260.106 23.456L258.17 24.496C257.722 23.7067 257.076 23.312 256.234 23.312C255.583 23.312 255.044 23.5253 254.618 23.952C254.191 24.3787 253.978 24.96 253.978 25.696C253.978 26.432 254.191 27.0133 254.618 27.44C255.044 27.8667 255.583 28.08 256.234 28.08C257.087 28.08 257.732 27.6853 258.17 26.896L260.106 27.952C259.796 28.6347 259.3 29.168 258.618 29.552C257.946 29.936 257.156 30.128 256.25 30.128ZM269.865 25.728C269.865 25.76 269.849 25.984 269.817 26.4H263.305C263.423 26.9333 263.7 27.3547 264.137 27.664C264.575 27.9733 265.119 28.128 265.769 28.128C266.217 28.128 266.612 28.064 266.953 27.936C267.305 27.7973 267.631 27.584 267.929 27.296L269.257 28.736C268.447 29.664 267.263 30.128 265.705 30.128C264.735 30.128 263.876 29.9413 263.129 29.568C262.383 29.184 261.807 28.656 261.401 27.984C260.996 27.312 260.793 26.5493 260.793 25.696C260.793 24.8533 260.991 24.096 261.385 23.424C261.791 22.7413 262.34 22.2133 263.033 21.84C263.737 21.456 264.521 21.264 265.385 21.264C266.228 21.264 266.991 21.4453 267.673 21.808C268.356 22.1707 268.889 22.6933 269.273 23.376C269.668 24.048 269.865 24.832 269.865 25.728ZM265.401 23.152C264.836 23.152 264.361 23.312 263.977 23.632C263.593 23.952 263.359 24.3893 263.273 24.944H267.513C267.428 24.4 267.193 23.968 266.809 23.648C266.425 23.3173 265.956 23.152 265.401 23.152Z"
          fill="#1E2134"/>
    <path d="M174.858 39.5455C174.815 39.1856 174.643 38.9062 174.339 38.7074C174.036 38.5085 173.665 38.4091 173.224 38.4091C172.902 38.4091 172.621 38.4612 172.379 38.5653C172.14 38.6695 171.953 38.8127 171.818 38.995C171.686 39.1773 171.619 39.3845 171.619 39.6165C171.619 39.8106 171.665 39.9775 171.758 40.1172C171.853 40.2545 171.973 40.3693 172.12 40.4616C172.267 40.5516 172.421 40.6262 172.582 40.6854C172.743 40.7422 172.891 40.7884 173.026 40.8239L173.764 41.0227C173.954 41.0724 174.164 41.1411 174.396 41.2287C174.631 41.3163 174.854 41.4358 175.067 41.5874C175.283 41.7365 175.46 41.9283 175.6 42.1626C175.74 42.397 175.81 42.6847 175.81 43.0256C175.81 43.4186 175.707 43.7737 175.501 44.0909C175.297 44.4081 174.999 44.6603 174.606 44.8473C174.215 45.0343 173.741 45.1278 173.182 45.1278C172.661 45.1278 172.21 45.0438 171.829 44.8757C171.45 44.7076 171.152 44.4732 170.934 44.1726C170.719 43.8719 170.597 43.5227 170.568 43.125H171.477C171.501 43.3996 171.593 43.6269 171.754 43.8068C171.918 43.9844 172.124 44.117 172.372 44.2045C172.623 44.2898 172.893 44.3324 173.182 44.3324C173.518 44.3324 173.82 44.2779 174.087 44.169C174.355 44.0578 174.567 43.9039 174.723 43.7074C174.879 43.5085 174.957 43.2765 174.957 43.0114C174.957 42.7699 174.89 42.5734 174.755 42.4219C174.62 42.2704 174.442 42.1473 174.222 42.0526C174.002 41.9579 173.764 41.875 173.509 41.804L172.614 41.5483C172.045 41.3849 171.596 41.1518 171.264 40.8487C170.933 40.5457 170.767 40.1491 170.767 39.6591C170.767 39.2519 170.877 38.8968 171.097 38.5938C171.32 38.2884 171.618 38.0516 171.992 37.8835C172.369 37.7131 172.789 37.6278 173.253 37.6278C173.722 37.6278 174.138 37.7119 174.503 37.88C174.867 38.0457 175.156 38.273 175.369 38.5618C175.585 38.8506 175.698 39.1785 175.71 39.5455H174.858ZM180.581 42.7699V39.5455H181.42V45H180.581V44.0767H180.525C180.397 44.3537 180.198 44.5893 179.928 44.7834C179.658 44.9751 179.317 45.071 178.905 45.071C178.564 45.071 178.261 44.9964 177.996 44.8473C177.731 44.6958 177.523 44.4685 177.371 44.1655C177.22 43.8601 177.144 43.4754 177.144 43.0114V39.5455H177.982V42.9545C177.982 43.3523 178.093 43.6695 178.316 43.9062C178.541 44.143 178.827 44.2614 179.175 44.2614C179.384 44.2614 179.595 44.2081 179.811 44.1016C180.029 43.995 180.211 43.8317 180.358 43.6115C180.507 43.3913 180.581 43.1108 180.581 42.7699ZM183.068 45V37.7273H183.906V40.4119H183.977C184.039 40.3172 184.124 40.1965 184.233 40.0497C184.344 39.9006 184.503 39.768 184.709 39.652C184.917 39.5336 185.199 39.4744 185.554 39.4744C186.013 39.4744 186.418 39.5893 186.768 39.8189C187.119 40.0485 187.392 40.3741 187.589 40.7955C187.785 41.2169 187.884 41.714 187.884 42.2869C187.884 42.8646 187.785 43.3653 187.589 43.7891C187.392 44.2105 187.12 44.5372 186.772 44.7692C186.424 44.9988 186.023 45.1136 185.568 45.1136C185.218 45.1136 184.937 45.0556 184.727 44.9396C184.516 44.8213 184.354 44.6875 184.24 44.5384C184.126 44.3868 184.039 44.2614 183.977 44.1619H183.878V45H183.068ZM183.892 42.2727C183.892 42.6847 183.952 43.0481 184.073 43.3629C184.194 43.6754 184.37 43.9205 184.602 44.098C184.834 44.2732 185.118 44.3608 185.455 44.3608C185.805 44.3608 186.097 44.2685 186.332 44.0838C186.568 43.8968 186.746 43.6458 186.864 43.331C186.985 43.0137 187.045 42.661 187.045 42.2727C187.045 41.8892 186.986 41.5436 186.868 41.2358C186.752 40.9257 186.576 40.6806 186.339 40.5007C186.104 40.3184 185.81 40.2273 185.455 40.2273C185.114 40.2273 184.827 40.3137 184.595 40.4865C184.363 40.657 184.188 40.8961 184.07 41.2038C183.951 41.5092 183.892 41.8655 183.892 42.2727ZM193.256 39.5455C193.214 39.1856 193.041 38.9062 192.738 38.7074C192.435 38.5085 192.063 38.4091 191.623 38.4091C191.301 38.4091 191.019 38.4612 190.778 38.5653C190.539 38.6695 190.352 38.8127 190.217 38.995C190.084 39.1773 190.018 39.3845 190.018 39.6165C190.018 39.8106 190.064 39.9775 190.156 40.1172C190.251 40.2545 190.372 40.3693 190.518 40.4616C190.665 40.5516 190.819 40.6262 190.98 40.6854C191.141 40.7422 191.289 40.7884 191.424 40.8239L192.163 41.0227C192.352 41.0724 192.563 41.1411 192.795 41.2287C193.029 41.3163 193.253 41.4358 193.466 41.5874C193.681 41.7365 193.859 41.9283 193.999 42.1626C194.138 42.397 194.208 42.6847 194.208 43.0256C194.208 43.4186 194.105 43.7737 193.899 44.0909C193.696 44.4081 193.397 44.6603 193.004 44.8473C192.614 45.0343 192.139 45.1278 191.58 45.1278C191.059 45.1278 190.608 45.0438 190.227 44.8757C189.848 44.7076 189.55 44.4732 189.332 44.1726C189.117 43.8719 188.995 43.5227 188.967 43.125H189.876C189.899 43.3996 189.992 43.6269 190.153 43.8068C190.316 43.9844 190.522 44.117 190.771 44.2045C191.022 44.2898 191.291 44.3324 191.58 44.3324C191.916 44.3324 192.218 44.2779 192.486 44.169C192.753 44.0578 192.965 43.9039 193.121 43.7074C193.278 43.5085 193.356 43.2765 193.356 43.0114C193.356 42.7699 193.288 42.5734 193.153 42.4219C193.018 42.2704 192.841 42.1473 192.621 42.0526C192.401 41.9579 192.163 41.875 191.907 41.804L191.012 41.5483C190.444 41.3849 189.994 41.1518 189.663 40.8487C189.331 40.5457 189.165 40.1491 189.165 39.6591C189.165 39.2519 189.276 38.8968 189.496 38.5938C189.718 38.2884 190.017 38.0516 190.391 37.8835C190.767 37.7131 191.187 37.6278 191.651 37.6278C192.12 37.6278 192.537 37.7119 192.901 37.88C193.266 38.0457 193.555 38.273 193.768 38.5618C193.983 38.8506 194.097 39.1785 194.109 39.5455H193.256ZM199.264 47.0455V44.1619H199.193C199.131 44.2614 199.044 44.3868 198.93 44.5384C198.817 44.6875 198.654 44.8213 198.444 44.9396C198.233 45.0556 197.952 45.1136 197.602 45.1136C197.148 45.1136 196.746 44.9988 196.398 44.7692C196.05 44.5372 195.778 44.2105 195.581 43.7891C195.385 43.3653 195.287 42.8646 195.287 42.2869C195.287 41.714 195.385 41.2169 195.581 40.7955C195.778 40.3741 196.051 40.0485 196.402 39.8189C196.752 39.5893 197.157 39.4744 197.616 39.4744C197.971 39.4744 198.252 39.5336 198.458 39.652C198.666 39.768 198.825 39.9006 198.934 40.0497C199.045 40.1965 199.131 40.3172 199.193 40.4119H199.292V39.5455H200.102V47.0455H199.264ZM197.716 44.3608C198.052 44.3608 198.336 44.2732 198.568 44.098C198.8 43.9205 198.976 43.6754 199.097 43.3629C199.218 43.0481 199.278 42.6847 199.278 42.2727C199.278 41.8655 199.219 41.5092 199.101 41.2038C198.982 40.8961 198.807 40.657 198.575 40.4865C198.343 40.3137 198.057 40.2273 197.716 40.2273C197.361 40.2273 197.065 40.3184 196.828 40.5007C196.594 40.6806 196.417 40.9257 196.299 41.2358C196.183 41.5436 196.125 41.8892 196.125 42.2727C196.125 42.661 196.184 43.0137 196.302 43.331C196.423 43.6458 196.601 43.8968 196.835 44.0838C197.072 44.2685 197.365 44.3608 197.716 44.3608ZM205.074 42.7699V39.5455H205.912V45H205.074V44.0767H205.017C204.889 44.3537 204.69 44.5893 204.42 44.7834C204.15 44.9751 203.809 45.071 203.398 45.071C203.057 45.071 202.754 44.9964 202.488 44.8473C202.223 44.6958 202.015 44.4685 201.863 44.1655C201.712 43.8601 201.636 43.4754 201.636 43.0114V39.5455H202.474V42.9545C202.474 43.3523 202.586 43.6695 202.808 43.9062C203.033 44.143 203.319 44.2614 203.667 44.2614C203.876 44.2614 204.088 44.2081 204.303 44.1016C204.521 43.995 204.703 43.8317 204.85 43.6115C204.999 43.3913 205.074 43.1108 205.074 42.7699ZM209.052 45.1278C208.706 45.1278 208.393 45.0627 208.111 44.9325C207.829 44.8 207.605 44.6094 207.44 44.3608C207.274 44.1098 207.191 43.8068 207.191 43.4517C207.191 43.1392 207.253 42.8859 207.376 42.6918C207.499 42.4953 207.663 42.3414 207.869 42.2301C208.075 42.1188 208.303 42.036 208.551 41.9815C208.802 41.9247 209.054 41.8797 209.308 41.8466C209.639 41.804 209.908 41.772 210.114 41.7507C210.322 41.727 210.473 41.688 210.568 41.6335C210.665 41.5791 210.714 41.4844 210.714 41.3494V41.321C210.714 40.9706 210.618 40.6984 210.426 40.5043C210.237 40.3101 209.949 40.2131 209.563 40.2131C209.163 40.2131 208.849 40.3007 208.622 40.4759C208.395 40.651 208.235 40.8381 208.143 41.0369L207.347 40.7528C207.489 40.4214 207.679 40.1634 207.915 39.9787C208.155 39.7917 208.415 39.6615 208.697 39.5881C208.981 39.5123 209.26 39.4744 209.535 39.4744C209.71 39.4744 209.911 39.4957 210.138 39.5384C210.368 39.5786 210.589 39.6626 210.803 39.7905C211.018 39.9183 211.197 40.1113 211.339 40.3693C211.481 40.6274 211.552 40.973 211.552 41.4062V45H210.714V44.2614H210.671C210.614 44.3797 210.52 44.5064 210.387 44.6413C210.254 44.7763 210.078 44.8911 209.858 44.9858C209.638 45.0805 209.369 45.1278 209.052 45.1278ZM209.18 44.375C209.511 44.375 209.79 44.3099 210.018 44.1797C210.247 44.0495 210.42 43.8814 210.536 43.6754C210.655 43.4695 210.714 43.2528 210.714 43.0256V42.2585C210.678 42.3011 210.6 42.3402 210.479 42.3757C210.361 42.4089 210.224 42.4384 210.067 42.4645C209.914 42.4882 209.763 42.5095 209.616 42.5284C209.472 42.545 209.355 42.5592 209.265 42.571C209.047 42.5994 208.844 42.6456 208.654 42.7095C208.467 42.7711 208.316 42.8646 208.2 42.9901C208.086 43.1132 208.029 43.2812 208.029 43.4943C208.029 43.7855 208.137 44.0057 208.352 44.1548C208.57 44.3016 208.846 44.375 209.18 44.375ZM213.081 45V39.5455H213.891V40.3693H213.948C214.047 40.0994 214.227 39.8804 214.488 39.7124C214.748 39.5443 215.042 39.4602 215.368 39.4602C215.43 39.4602 215.507 39.4614 215.599 39.4638C215.692 39.4661 215.761 39.4697 215.809 39.4744V40.3267C215.78 40.3196 215.715 40.3089 215.613 40.2947C215.514 40.2782 215.409 40.2699 215.297 40.2699C215.032 40.2699 214.796 40.3255 214.587 40.4368C214.381 40.5457 214.218 40.6972 214.097 40.8913C213.979 41.0831 213.92 41.3021 213.92 41.5483V45H213.081ZM218.923 45.1136C218.398 45.1136 217.944 44.9976 217.563 44.7656C217.184 44.5312 216.892 44.2045 216.686 43.7855C216.482 43.3641 216.381 42.8741 216.381 42.3153C216.381 41.7566 216.482 41.2642 216.686 40.8381C216.892 40.4096 217.178 40.0758 217.545 39.8366C217.915 39.5952 218.345 39.4744 218.838 39.4744C219.122 39.4744 219.403 39.5218 219.68 39.6165C219.956 39.7112 220.209 39.8651 220.436 40.0781C220.663 40.2888 220.844 40.5682 220.979 40.9162C221.114 41.2642 221.182 41.6927 221.182 42.2017V42.5568H216.977V41.8324H220.329C220.329 41.5246 220.268 41.25 220.145 41.0085C220.024 40.767 219.851 40.5765 219.626 40.4368C219.404 40.2971 219.141 40.2273 218.838 40.2273C218.504 40.2273 218.215 40.3101 217.971 40.4759C217.73 40.6392 217.544 40.8523 217.414 41.1151C217.284 41.3778 217.219 41.6596 217.219 41.9602V42.4432C217.219 42.8551 217.29 43.2043 217.432 43.4908C217.576 43.7749 217.776 43.9915 218.032 44.1406C218.287 44.2874 218.585 44.3608 218.923 44.3608C219.143 44.3608 219.342 44.33 219.52 44.2685C219.7 44.2045 219.855 44.1098 219.985 43.9844C220.115 43.8565 220.216 43.6979 220.287 43.5085L221.096 43.7358C221.011 44.0104 220.868 44.2519 220.667 44.4602C220.465 44.6662 220.217 44.8272 219.921 44.9432C219.625 45.0568 219.292 45.1136 218.923 45.1136Z"
          fill="#9DA9BB"/>
</svg>
