<svg width="271" height="64" viewBox="0 0 271 64" fill="none" xmlns="http://www.w3.org/2000/svg">
<path d="M39.5271 47H12.2574C12.1275 46.9995 12.0003 46.9632 11.8897 46.895L2.03078 40.7919C1.90112 40.7116 1.80111 40.5911 1.74592 40.4486C1.69073 40.3062 1.68336 40.1496 1.72493 40.0025C1.7665 39.8555 1.85475 39.7261 1.97629 39.6338C2.09783 39.5416 2.24605 39.4916 2.39848 39.4915H29.672C29.8023 39.4918 29.93 39.5281 30.041 39.5964L39.8948 45.6956C40.0263 45.7752 40.1281 45.8959 40.1845 46.0391C40.241 46.1823 40.2489 46.3402 40.2071 46.4884C40.1654 46.6366 40.0762 46.7669 39.9533 46.8593C39.8305 46.9518 39.6807 47.0012 39.5271 47ZM12.4515 45.5919H37.0579L29.4741 40.8982H4.8664L12.4515 45.5919Z" fill="white"/>
<path d="M37.8288 22.5049H10.5552C10.4253 22.5047 10.298 22.4683 10.1875 22.3999L0.332413 16.3007C0.202658 16.2203 0.102607 16.0997 0.0474423 15.9571C-0.0077226 15.8145 -0.0149896 15.6578 0.0267441 15.5107C0.0684778 15.3636 0.156934 15.2342 0.278689 15.1421C0.400444 15.0499 0.548851 15.0001 0.701388 15.0002H27.9749C28.1053 15.0002 28.233 15.0366 28.3439 15.1052L38.1977 21.2044C38.3274 21.2848 38.4274 21.4053 38.4826 21.5477C38.5378 21.6902 38.5452 21.8468 38.5036 21.9938C38.462 22.1409 38.3738 22.2703 38.2522 22.3625C38.1307 22.4547 37.9825 22.5047 37.83 22.5049H37.8288ZM10.7544 21.0969H35.366L27.7758 16.4082H3.16931L10.7544 21.0969Z" fill="white"/>
<path d="M23.8755 27.9484C23.0751 27.157 21.9955 26.7145 20.8713 26.7171H20.8266C19.6876 26.7227 18.5973 27.1817 17.7958 27.9932C16.9943 28.8046 16.5472 29.9021 16.5528 31.0441C16.5584 32.1861 17.0162 33.2791 17.8256 34.0827C18.635 34.8862 19.7297 35.3345 20.8688 35.3289H20.9122C21.7615 35.3203 22.5893 35.0594 23.2907 34.5792C23.9922 34.099 24.5358 33.4211 24.853 32.6311C25.1702 31.8411 25.2466 30.9746 25.0726 30.1411C24.8986 29.3076 24.482 28.5446 23.8755 27.9484Z" fill="white"/>
<path d="M47.7275 26.4006H50.2689V36.6317H47.7275V26.4006Z" fill="white"/>
<path d="M54.6104 26.4006H58.2682L62.2631 33.2691H62.2784L62.2018 26.4006H64.588V36.6317H61.5864L56.9519 28.6957H56.9366L56.9978 36.6215H54.6104V26.4006Z" fill="white"/>
<path d="M71.3376 28.4051H68.4395V26.4006H76.7625V28.4051H73.8809V36.6317H71.3376V28.4051Z" fill="white"/>
<path d="M80.6094 26.4006H87.8319V28.4051H83.1513V30.7091H86.776V32.263H83.1513V34.6247H87.9723V36.6317H80.6094V26.4006Z" fill="white"/>
<path d="M91.8965 26.4006H96.6549C99.3526 26.4006 100.809 27.5194 100.809 29.4458C100.809 30.7514 100.251 31.5757 99.29 31.8547V31.8854C100.297 32.1184 100.747 32.9274 100.747 34.0768V36.6317H98.2048V34.1613C98.2048 33.2295 97.8639 32.825 96.9026 32.825H94.4372V36.6317H91.8965V26.4006ZM96.7634 31.28C97.8333 31.28 98.3759 30.7987 98.3759 29.8502C98.3759 28.9542 97.818 28.4051 96.6395 28.4051H94.4372V31.28H96.7634Z" fill="white"/>
<path d="M104.995 26.4006H107.537V34.6208H112.183V36.6317H104.995V26.4006Z" fill="white"/>
<path d="M122.992 34.5432H118.917L118.219 36.6321H115.614L119.553 26.4075H122.714L126.65 36.6321H123.691L122.992 34.5432ZM122.466 32.9585L120.962 28.4785H120.932L119.443 32.9585H122.466Z" fill="white"/>
<path d="M131.427 32.7098L127.413 26.4006H130.683L132.915 30.4403H132.96L135.164 26.4006H138L133.97 32.7098V36.6317H131.428L131.427 32.7098Z" fill="white"/>
<path d="M154 25V37" stroke="#363A4D"/>
<path d="M178.896 24.224H181.264V28.768C180.656 29.2267 179.952 29.5787 179.152 29.824C178.352 30.0693 177.546 30.192 176.736 30.192C175.573 30.192 174.528 29.9467 173.6 29.456C172.672 28.9547 171.941 28.2667 171.408 27.392C170.885 26.5067 170.624 25.5093 170.624 24.4C170.624 23.2907 170.885 22.2987 171.408 21.424C171.941 20.5387 172.677 19.8507 173.616 19.36C174.554 18.8587 175.61 18.608 176.784 18.608C177.765 18.608 178.656 18.7733 179.456 19.104C180.256 19.4347 180.928 19.9147 181.472 20.544L179.808 22.08C179.008 21.2373 178.042 20.816 176.912 20.816C176.197 20.816 175.562 20.9653 175.008 21.264C174.453 21.5627 174.021 21.984 173.712 22.528C173.402 23.072 173.248 23.696 173.248 24.4C173.248 25.0933 173.402 25.712 173.712 26.256C174.021 26.8 174.448 27.2267 174.992 27.536C175.546 27.8347 176.176 27.984 176.88 27.984C177.626 27.984 178.298 27.824 178.896 27.504V24.224ZM187.592 30.128C186.685 30.128 185.869 29.9413 185.144 29.568C184.429 29.184 183.869 28.656 183.464 27.984C183.058 27.312 182.856 26.5493 182.856 25.696C182.856 24.8427 183.058 24.08 183.464 23.408C183.869 22.736 184.429 22.2133 185.144 21.84C185.869 21.456 186.685 21.264 187.592 21.264C188.498 21.264 189.309 21.456 190.024 21.84C190.738 22.2133 191.298 22.736 191.704 23.408C192.109 24.08 192.312 24.8427 192.312 25.696C192.312 26.5493 192.109 27.312 191.704 27.984C191.298 28.656 190.738 29.184 190.024 29.568C189.309 29.9413 188.498 30.128 187.592 30.128ZM187.592 28.08C188.232 28.08 188.754 27.8667 189.16 27.44C189.576 27.0027 189.784 26.4213 189.784 25.696C189.784 24.9707 189.576 24.3947 189.16 23.968C188.754 23.5307 188.232 23.312 187.592 23.312C186.952 23.312 186.424 23.5307 186.008 23.968C185.592 24.3947 185.384 24.9707 185.384 25.696C185.384 26.4213 185.592 27.0027 186.008 27.44C186.424 27.8667 186.952 28.08 187.592 28.08ZM202.29 21.392L198.658 30H196.082L192.466 21.392H195.042L197.426 27.248L199.89 21.392H202.29ZM211.506 25.728C211.506 25.76 211.49 25.984 211.458 26.4H204.946C205.063 26.9333 205.34 27.3547 205.778 27.664C206.215 27.9733 206.759 28.128 207.41 28.128C207.858 28.128 208.252 28.064 208.594 27.936C208.946 27.7973 209.271 27.584 209.57 27.296L210.898 28.736C210.087 29.664 208.903 30.128 207.346 30.128C206.375 30.128 205.516 29.9413 204.77 29.568C204.023 29.184 203.447 28.656 203.042 27.984C202.636 27.312 202.434 26.5493 202.434 25.696C202.434 24.8533 202.631 24.096 203.026 23.424C203.431 22.7413 203.98 22.2133 204.674 21.84C205.378 21.456 206.162 21.264 207.026 21.264C207.868 21.264 208.631 21.4453 209.314 21.808C209.996 22.1707 210.53 22.6933 210.914 23.376C211.308 24.048 211.506 24.832 211.506 25.728ZM207.042 23.152C206.476 23.152 206.002 23.312 205.618 23.632C205.234 23.952 204.999 24.3893 204.914 24.944H209.154C209.068 24.4 208.834 23.968 208.45 23.648C208.066 23.3173 207.596 23.152 207.042 23.152ZM215.551 22.528C215.85 22.112 216.25 21.7973 216.751 21.584C217.263 21.3707 217.85 21.264 218.511 21.264V23.568C218.234 23.5467 218.047 23.536 217.951 23.536C217.237 23.536 216.677 23.7387 216.271 24.144C215.866 24.5387 215.663 25.136 215.663 25.936V30H213.167V21.392H215.551V22.528ZM225.228 21.264C226.294 21.264 227.153 21.584 227.804 22.224C228.465 22.864 228.796 23.8133 228.796 25.072V30H226.3V25.456C226.3 24.7733 226.15 24.2667 225.852 23.936C225.553 23.5947 225.121 23.424 224.556 23.424C223.926 23.424 223.425 23.6213 223.052 24.016C222.678 24.4 222.492 24.976 222.492 25.744V30H219.996V21.392H222.38V22.4C222.71 22.0373 223.121 21.76 223.612 21.568C224.102 21.3653 224.641 21.264 225.228 21.264ZM234.53 21.264C235.863 21.264 236.887 21.584 237.602 22.224C238.317 22.8533 238.674 23.808 238.674 25.088V30H236.338V28.928C235.869 29.728 234.994 30.128 233.714 30.128C233.053 30.128 232.477 30.016 231.986 29.792C231.506 29.568 231.138 29.2587 230.882 28.864C230.626 28.4693 230.498 28.0213 230.498 27.52C230.498 26.72 230.797 26.0907 231.394 25.632C232.002 25.1733 232.935 24.944 234.194 24.944H236.178C236.178 24.4 236.013 23.984 235.682 23.696C235.351 23.3973 234.855 23.248 234.194 23.248C233.735 23.248 233.282 23.3227 232.834 23.472C232.397 23.6107 232.023 23.8027 231.714 24.048L230.818 22.304C231.287 21.9733 231.847 21.7173 232.498 21.536C233.159 21.3547 233.837 21.264 234.53 21.264ZM234.338 28.448C234.765 28.448 235.143 28.352 235.474 28.16C235.805 27.9573 236.039 27.664 236.178 27.28V26.4H234.466C233.442 26.4 232.93 26.736 232.93 27.408C232.93 27.728 233.053 27.984 233.298 28.176C233.554 28.3573 233.901 28.448 234.338 28.448ZM246.165 21.264C247.232 21.264 248.09 21.584 248.741 22.224C249.402 22.864 249.733 23.8133 249.733 25.072V30H247.237V25.456C247.237 24.7733 247.088 24.2667 246.789 23.936C246.49 23.5947 246.058 23.424 245.493 23.424C244.864 23.424 244.362 23.6213 243.989 24.016C243.616 24.4 243.429 24.976 243.429 25.744V30H240.933V21.392H243.317V22.4C243.648 22.0373 244.058 21.76 244.549 21.568C245.04 21.3653 245.578 21.264 246.165 21.264ZM256.249 30.128C255.332 30.128 254.505 29.9413 253.769 29.568C253.044 29.184 252.473 28.656 252.057 27.984C251.652 27.312 251.449 26.5493 251.449 25.696C251.449 24.8427 251.652 24.08 252.057 23.408C252.473 22.736 253.044 22.2133 253.769 21.84C254.505 21.456 255.332 21.264 256.249 21.264C257.156 21.264 257.945 21.456 258.617 21.84C259.3 22.2133 259.796 22.752 260.105 23.456L258.169 24.496C257.721 23.7067 257.076 23.312 256.233 23.312C255.583 23.312 255.044 23.5253 254.617 23.952C254.191 24.3787 253.977 24.96 253.977 25.696C253.977 26.432 254.191 27.0133 254.617 27.44C255.044 27.8667 255.583 28.08 256.233 28.08C257.087 28.08 257.732 27.6853 258.169 26.896L260.105 27.952C259.796 28.6347 259.3 29.168 258.617 29.552C257.945 29.936 257.156 30.128 256.249 30.128ZM269.865 25.728C269.865 25.76 269.849 25.984 269.817 26.4H263.305C263.422 26.9333 263.7 27.3547 264.137 27.664C264.574 27.9733 265.118 28.128 265.769 28.128C266.217 28.128 266.612 28.064 266.953 27.936C267.305 27.7973 267.63 27.584 267.929 27.296L269.257 28.736C268.446 29.664 267.262 30.128 265.705 30.128C264.734 30.128 263.876 29.9413 263.129 29.568C262.382 29.184 261.806 28.656 261.401 27.984C260.996 27.312 260.793 26.5493 260.793 25.696C260.793 24.8533 260.99 24.096 261.385 23.424C261.79 22.7413 262.34 22.2133 263.033 21.84C263.737 21.456 264.521 21.264 265.385 21.264C266.228 21.264 266.99 21.4453 267.673 21.808C268.356 22.1707 268.889 22.6933 269.273 23.376C269.668 24.048 269.865 24.832 269.865 25.728ZM265.401 23.152C264.836 23.152 264.361 23.312 263.977 23.632C263.593 23.952 263.358 24.3893 263.273 24.944H267.513C267.428 24.4 267.193 23.968 266.809 23.648C266.425 23.3173 265.956 23.152 265.401 23.152Z" fill="white"/>
<path d="M174.858 39.5455C174.815 39.1856 174.642 38.9062 174.339 38.7074C174.036 38.5085 173.665 38.4091 173.224 38.4091C172.902 38.4091 172.62 38.4612 172.379 38.5653C172.14 38.6695 171.953 38.8127 171.818 38.995C171.685 39.1773 171.619 39.3845 171.619 39.6165C171.619 39.8106 171.665 39.9775 171.758 40.1172C171.852 40.2545 171.973 40.3693 172.12 40.4616C172.267 40.5516 172.42 40.6262 172.581 40.6854C172.742 40.7422 172.89 40.7884 173.025 40.8239L173.764 41.0227C173.953 41.0724 174.164 41.1411 174.396 41.2287C174.63 41.3163 174.854 41.4358 175.067 41.5874C175.283 41.7365 175.46 41.9283 175.6 42.1626C175.74 42.397 175.809 42.6847 175.809 43.0256C175.809 43.4186 175.706 43.7737 175.5 44.0909C175.297 44.4081 174.999 44.6603 174.606 44.8473C174.215 45.0343 173.74 45.1278 173.182 45.1278C172.661 45.1278 172.21 45.0438 171.829 44.8757C171.45 44.7076 171.152 44.4732 170.934 44.1726C170.718 43.8719 170.596 43.5227 170.568 43.125H171.477C171.501 43.3996 171.593 43.6269 171.754 43.8068C171.917 43.9844 172.123 44.117 172.372 44.2045C172.623 44.2898 172.893 44.3324 173.182 44.3324C173.518 44.3324 173.82 44.2779 174.087 44.169C174.355 44.0578 174.567 43.9039 174.723 43.7074C174.879 43.5085 174.957 43.2765 174.957 43.0114C174.957 42.7699 174.89 42.5734 174.755 42.4219C174.62 42.2704 174.442 42.1473 174.222 42.0526C174.002 41.9579 173.764 41.875 173.508 41.804L172.613 41.5483C172.045 41.3849 171.595 41.1518 171.264 40.8487C170.933 40.5457 170.767 40.1491 170.767 39.6591C170.767 39.2519 170.877 38.8968 171.097 38.5938C171.32 38.2884 171.618 38.0516 171.992 37.8835C172.368 37.7131 172.789 37.6278 173.253 37.6278C173.721 37.6278 174.138 37.7119 174.503 37.88C174.867 38.0457 175.156 38.273 175.369 38.5618C175.585 38.8506 175.698 39.1785 175.71 39.5455H174.858ZM180.581 42.7699V39.5455H181.419V45H180.581V44.0767H180.524C180.397 44.3537 180.198 44.5893 179.928 44.7834C179.658 44.9751 179.317 45.071 178.905 45.071C178.564 45.071 178.261 44.9964 177.996 44.8473C177.731 44.6958 177.523 44.4685 177.371 44.1655C177.22 43.8601 177.144 43.4754 177.144 43.0114V39.5455H177.982V42.9545C177.982 43.3523 178.093 43.6695 178.316 43.9062C178.541 44.143 178.827 44.2614 179.175 44.2614C179.383 44.2614 179.595 44.2081 179.811 44.1016C180.028 43.995 180.211 43.8317 180.358 43.6115C180.507 43.3913 180.581 43.1108 180.581 42.7699ZM183.068 45V37.7273H183.906V40.4119H183.977C184.039 40.3172 184.124 40.1965 184.233 40.0497C184.344 39.9006 184.503 39.768 184.709 39.652C184.917 39.5336 185.199 39.4744 185.554 39.4744C186.013 39.4744 186.418 39.5893 186.768 39.8189C187.119 40.0485 187.392 40.3741 187.589 40.7955C187.785 41.2169 187.883 41.714 187.883 42.2869C187.883 42.8646 187.785 43.3653 187.589 43.7891C187.392 44.2105 187.12 44.5372 186.772 44.7692C186.424 44.9988 186.022 45.1136 185.568 45.1136C185.218 45.1136 184.937 45.0556 184.726 44.9396C184.516 44.8213 184.353 44.6875 184.24 44.5384C184.126 44.3868 184.039 44.2614 183.977 44.1619H183.878V45H183.068ZM183.892 42.2727C183.892 42.6847 183.952 43.0481 184.073 43.3629C184.194 43.6754 184.37 43.9205 184.602 44.098C184.834 44.2732 185.118 44.3608 185.454 44.3608C185.805 44.3608 186.097 44.2685 186.331 44.0838C186.568 43.8968 186.746 43.6458 186.864 43.331C186.985 43.0137 187.045 42.661 187.045 42.2727C187.045 41.8892 186.986 41.5436 186.868 41.2358C186.752 40.9257 186.575 40.6806 186.339 40.5007C186.104 40.3184 185.809 40.2273 185.454 40.2273C185.113 40.2273 184.827 40.3137 184.595 40.4865C184.363 40.657 184.188 40.8961 184.069 41.2038C183.951 41.5092 183.892 41.8655 183.892 42.2727ZM193.256 39.5455C193.214 39.1856 193.041 38.9062 192.738 38.7074C192.435 38.5085 192.063 38.4091 191.623 38.4091C191.301 38.4091 191.019 38.4612 190.777 38.5653C190.538 38.6695 190.351 38.8127 190.216 38.995C190.084 39.1773 190.018 39.3845 190.018 39.6165C190.018 39.8106 190.064 39.9775 190.156 40.1172C190.251 40.2545 190.371 40.3693 190.518 40.4616C190.665 40.5516 190.819 40.6262 190.98 40.6854C191.141 40.7422 191.289 40.7884 191.424 40.8239L192.162 41.0227C192.352 41.0724 192.562 41.1411 192.795 41.2287C193.029 41.3163 193.253 41.4358 193.466 41.5874C193.681 41.7365 193.859 41.9283 193.998 42.1626C194.138 42.397 194.208 42.6847 194.208 43.0256C194.208 43.4186 194.105 43.7737 193.899 44.0909C193.695 44.4081 193.397 44.6603 193.004 44.8473C192.613 45.0343 192.139 45.1278 191.58 45.1278C191.059 45.1278 190.608 45.0438 190.227 44.8757C189.848 44.7076 189.55 44.4732 189.332 44.1726C189.117 43.8719 188.995 43.5227 188.966 43.125H189.875C189.899 43.3996 189.991 43.6269 190.152 43.8068C190.316 43.9844 190.522 44.117 190.77 44.2045C191.021 44.2898 191.291 44.3324 191.58 44.3324C191.916 44.3324 192.218 44.2779 192.486 44.169C192.753 44.0578 192.965 43.9039 193.121 43.7074C193.277 43.5085 193.356 43.2765 193.356 43.0114C193.356 42.7699 193.288 42.5734 193.153 42.4219C193.018 42.2704 192.841 42.1473 192.62 42.0526C192.4 41.9579 192.162 41.875 191.907 41.804L191.012 41.5483C190.444 41.3849 189.994 41.1518 189.662 40.8487C189.331 40.5457 189.165 40.1491 189.165 39.6591C189.165 39.2519 189.275 38.8968 189.495 38.5938C189.718 38.2884 190.016 38.0516 190.39 37.8835C190.767 37.7131 191.187 37.6278 191.651 37.6278C192.12 37.6278 192.536 37.7119 192.901 37.88C193.266 38.0457 193.554 38.273 193.768 38.5618C193.983 38.8506 194.097 39.1785 194.108 39.5455H193.256ZM199.264 47.0455V44.1619H199.193C199.131 44.2614 199.044 44.3868 198.93 44.5384C198.816 44.6875 198.654 44.8213 198.443 44.9396C198.233 45.0556 197.952 45.1136 197.602 45.1136C197.147 45.1136 196.746 44.9988 196.398 44.7692C196.05 44.5372 195.778 44.2105 195.581 43.7891C195.385 43.3653 195.287 42.8646 195.287 42.2869C195.287 41.714 195.385 41.2169 195.581 40.7955C195.778 40.3741 196.051 40.0485 196.402 39.8189C196.752 39.5893 197.157 39.4744 197.616 39.4744C197.971 39.4744 198.252 39.5336 198.458 39.652C198.666 39.768 198.825 39.9006 198.934 40.0497C199.045 40.1965 199.131 40.3172 199.193 40.4119H199.292V39.5455H200.102V47.0455H199.264ZM197.715 44.3608C198.052 44.3608 198.336 44.2732 198.568 44.098C198.8 43.9205 198.976 43.6754 199.097 43.3629C199.218 43.0481 199.278 42.6847 199.278 42.2727C199.278 41.8655 199.219 41.5092 199.1 41.2038C198.982 40.8961 198.807 40.657 198.575 40.4865C198.343 40.3137 198.056 40.2273 197.715 40.2273C197.36 40.2273 197.064 40.3184 196.828 40.5007C196.593 40.6806 196.417 40.9257 196.299 41.2358C196.183 41.5436 196.125 41.8892 196.125 42.2727C196.125 42.661 196.184 43.0137 196.302 43.331C196.423 43.6458 196.6 43.8968 196.835 44.0838C197.072 44.2685 197.365 44.3608 197.715 44.3608ZM205.073 42.7699V39.5455H205.912V45H205.073V44.0767H205.017C204.889 44.3537 204.69 44.5893 204.42 44.7834C204.15 44.9751 203.809 45.071 203.397 45.071C203.056 45.071 202.753 44.9964 202.488 44.8473C202.223 44.6958 202.015 44.4685 201.863 44.1655C201.712 43.8601 201.636 43.4754 201.636 43.0114V39.5455H202.474V42.9545C202.474 43.3523 202.585 43.6695 202.808 43.9062C203.033 44.143 203.319 44.2614 203.667 44.2614C203.876 44.2614 204.087 44.2081 204.303 44.1016C204.521 43.995 204.703 43.8317 204.85 43.6115C204.999 43.3913 205.073 43.1108 205.073 42.7699ZM209.052 45.1278C208.706 45.1278 208.392 45.0627 208.111 44.9325C207.829 44.8 207.605 44.6094 207.439 44.3608C207.274 44.1098 207.191 43.8068 207.191 43.4517C207.191 43.1392 207.252 42.8859 207.375 42.6918C207.499 42.4953 207.663 42.3414 207.869 42.2301C208.075 42.1188 208.302 42.036 208.551 41.9815C208.802 41.9247 209.054 41.8797 209.307 41.8466C209.639 41.804 209.907 41.772 210.113 41.7507C210.322 41.727 210.473 41.688 210.568 41.6335C210.665 41.5791 210.714 41.4844 210.714 41.3494V41.321C210.714 40.9706 210.618 40.6984 210.426 40.5043C210.236 40.3101 209.949 40.2131 209.563 40.2131C209.163 40.2131 208.849 40.3007 208.622 40.4759C208.395 40.651 208.235 40.8381 208.143 41.0369L207.347 40.7528C207.489 40.4214 207.678 40.1634 207.915 39.9787C208.154 39.7917 208.415 39.6615 208.696 39.5881C208.981 39.5123 209.26 39.4744 209.535 39.4744C209.71 39.4744 209.911 39.4957 210.138 39.5384C210.368 39.5786 210.589 39.6626 210.802 39.7905C211.018 39.9183 211.196 40.1113 211.339 40.3693C211.481 40.6274 211.552 40.973 211.552 41.4062V45H210.714V44.2614H210.671C210.614 44.3797 210.519 44.5064 210.387 44.6413C210.254 44.7763 210.078 44.8911 209.858 44.9858C209.638 45.0805 209.369 45.1278 209.052 45.1278ZM209.179 44.375C209.511 44.375 209.79 44.3099 210.018 44.1797C210.247 44.0495 210.42 43.8814 210.536 43.6754C210.654 43.4695 210.714 43.2528 210.714 43.0256V42.2585C210.678 42.3011 210.6 42.3402 210.479 42.3757C210.361 42.4089 210.223 42.4384 210.067 42.4645C209.913 42.4882 209.763 42.5095 209.616 42.5284C209.472 42.545 209.355 42.5592 209.265 42.571C209.047 42.5994 208.843 42.6456 208.654 42.7095C208.467 42.7711 208.315 42.8646 208.199 42.9901C208.086 43.1132 208.029 43.2812 208.029 43.4943C208.029 43.7855 208.137 44.0057 208.352 44.1548C208.57 44.3016 208.846 44.375 209.179 44.375ZM213.081 45V39.5455H213.891V40.3693H213.948C214.047 40.0994 214.227 39.8804 214.488 39.7124C214.748 39.5443 215.041 39.4602 215.368 39.4602C215.43 39.4602 215.507 39.4614 215.599 39.4638C215.691 39.4661 215.761 39.4697 215.809 39.4744V40.3267C215.78 40.3196 215.715 40.3089 215.613 40.2947C215.514 40.2782 215.408 40.2699 215.297 40.2699C215.032 40.2699 214.795 40.3255 214.587 40.4368C214.381 40.5457 214.218 40.6972 214.097 40.8913C213.979 41.0831 213.919 41.3021 213.919 41.5483V45H213.081ZM218.923 45.1136C218.397 45.1136 217.944 44.9976 217.563 44.7656C217.184 44.5312 216.892 44.2045 216.686 43.7855C216.482 43.3641 216.38 42.8741 216.38 42.3153C216.38 41.7566 216.482 41.2642 216.686 40.8381C216.892 40.4096 217.178 40.0758 217.545 39.8366C217.914 39.5952 218.345 39.4744 218.838 39.4744C219.122 39.4744 219.402 39.5218 219.679 39.6165C219.956 39.7112 220.208 39.8651 220.436 40.0781C220.663 40.2888 220.844 40.5682 220.979 40.9162C221.114 41.2642 221.181 41.6927 221.181 42.2017V42.5568H216.977V41.8324H220.329C220.329 41.5246 220.268 41.25 220.144 41.0085C220.024 40.767 219.851 40.5765 219.626 40.4368C219.403 40.2971 219.141 40.2273 218.838 40.2273C218.504 40.2273 218.215 40.3101 217.971 40.4759C217.73 40.6392 217.544 40.8523 217.414 41.1151C217.283 41.3778 217.218 41.6596 217.218 41.9602V42.4432C217.218 42.8551 217.289 43.2043 217.431 43.4908C217.576 43.7749 217.776 43.9915 218.032 44.1406C218.287 44.2874 218.584 44.3608 218.923 44.3608C219.143 44.3608 219.342 44.33 219.519 44.2685C219.699 44.2045 219.854 44.1098 219.985 43.9844C220.115 43.8565 220.215 43.6979 220.287 43.5085L221.096 43.7358C221.011 44.0104 220.868 44.2519 220.666 44.4602C220.465 44.6662 220.217 44.8272 219.921 44.9432C219.625 45.0568 219.292 45.1136 218.923 45.1136Z" fill="white" fill-opacity="0.25"/>
</svg>
