<svg width="155" height="64" viewBox="0 0 155 64" fill="none" xmlns="http://www.w3.org/2000/svg">
<path d="M0.396484 16.031L5.152 14.0938L8.79091 16.3397L8.93966 30.0456L9.3934 46.2081L5.35342 48.1101L1.17999 46.0764L0.396484 16.031Z" fill="#FFF85B"/>
<path d="M20.9186 37.5013L21.4772 42.5418L16.5394 44.8548L5.339 38.2372L9.90228 30.096L20.9186 37.5013Z" fill="#FFF85B"/>
<path d="M16.6516 20.9226L21.3346 23.4748L21.263 28.1268L8.66533 35.4511L5.35352 27.8717L16.6516 20.9226Z" fill="#FFF85B"/>
<path fill-rule="evenodd" clip-rule="evenodd" d="M22 22.8608L16.9843 19.9478L10.0352 24.0711L10.0406 15.9131L5.0249 13L0.00825749 15.9767L0.00294176 24.1348L0.00104287 27.9461L0.013763 31.5211L0.0332226 33.4225L0.00104287 38.0814L0 41.8041L0.000473636 46.0926L5.01304 49L10.0297 46.0233L10.0291 41.7349L16.9784 45.7662L17.0283 45.7366L21.9951 42.7895L21.9992 36.9053L15.0499 32.874L21.9991 28.7505L22 22.8608ZM8.7726 16.6654L8.76719 24.8235L5.65539 26.67L5.66431 14.8637L8.7726 16.6654ZM1.27512 16.7179L4.38701 14.8715L4.38141 34.0578L1.26961 35.9043L1.27512 16.7179ZM0 41.8041L0.00161355 36.6567L0.00113846 40.3105L0 41.8041ZM1.26961 35.9043L4.38141 34.0578L4.38208 42.7424L1.27027 44.5889L1.26961 35.9043ZM8.76596 45.2877L5.01731 47.512L1.90589 45.7047L5.65454 43.4803V33.2658L8.76473 34.9127L8.76596 45.2877ZM16.9773 44.2815L10.028 40.2501L10.0284 36.5963L20.0891 42.435L16.9773 44.2815ZM20.7312 37.6577L20.7276 41.3059L10.6669 35.4672L13.7787 33.6207L20.7312 37.6577ZM8.76473 34.9127L5.65454 33.2658L16.984 26.5799L20.0954 28.3871L8.76473 34.9127ZM16.9883 25.0918L16.9385 25.1215L4.38189 32.4907L4.38303 28.7125L16.9943 21.4348L20.7376 23.6099L20.7316 27.2669L16.9883 25.0918Z" fill="#151515"/>
<path d="M38 25V37" stroke="#363A4D"/>
<path d="M62.896 24.224H65.264V28.768C64.656 29.2267 63.952 29.5787 63.152 29.824C62.352 30.0693 61.5467 30.192 60.736 30.192C59.5733 30.192 58.528 29.9467 57.6 29.456C56.672 28.9547 55.9413 28.2667 55.408 27.392C54.8853 26.5067 54.624 25.5093 54.624 24.4C54.624 23.2907 54.8853 22.2987 55.408 21.424C55.9413 20.5387 56.6773 19.8507 57.616 19.36C58.5547 18.8587 59.6107 18.608 60.784 18.608C61.7653 18.608 62.656 18.7733 63.456 19.104C64.256 19.4347 64.928 19.9147 65.472 20.544L63.808 22.08C63.008 21.2373 62.0427 20.816 60.912 20.816C60.1973 20.816 59.5627 20.9653 59.008 21.264C58.4533 21.5627 58.0213 21.984 57.712 22.528C57.4027 23.072 57.248 23.696 57.248 24.4C57.248 25.0933 57.4027 25.712 57.712 26.256C58.0213 26.8 58.448 27.2267 58.992 27.536C59.5467 27.8347 60.176 27.984 60.88 27.984C61.6267 27.984 62.2987 27.824 62.896 27.504V24.224ZM71.5918 30.128C70.6851 30.128 69.8691 29.9413 69.1438 29.568C68.4291 29.184 67.8691 28.656 67.4638 27.984C67.0584 27.312 66.8558 26.5493 66.8558 25.696C66.8558 24.8427 67.0584 24.08 67.4638 23.408C67.8691 22.736 68.4291 22.2133 69.1438 21.84C69.8691 21.456 70.6851 21.264 71.5918 21.264C72.4984 21.264 73.3091 21.456 74.0238 21.84C74.7384 22.2133 75.2984 22.736 75.7038 23.408C76.1091 24.08 76.3118 24.8427 76.3118 25.696C76.3118 26.5493 76.1091 27.312 75.7038 27.984C75.2984 28.656 74.7384 29.184 74.0238 29.568C73.3091 29.9413 72.4984 30.128 71.5918 30.128ZM71.5918 28.08C72.2318 28.08 72.7544 27.8667 73.1598 27.44C73.5758 27.0027 73.7838 26.4213 73.7838 25.696C73.7838 24.9707 73.5758 24.3947 73.1598 23.968C72.7544 23.5307 72.2318 23.312 71.5918 23.312C70.9518 23.312 70.4238 23.5307 70.0078 23.968C69.5918 24.3947 69.3838 24.9707 69.3838 25.696C69.3838 26.4213 69.5918 27.0027 70.0078 27.44C70.4238 27.8667 70.9518 28.08 71.5918 28.08ZM86.2898 21.392L82.6578 30H80.0818L76.4657 21.392H79.0418L81.4258 27.248L83.8898 21.392H86.2898ZM95.5059 25.728C95.5059 25.76 95.4899 25.984 95.4579 26.4H88.9459C89.0632 26.9333 89.3405 27.3547 89.7779 27.664C90.2152 27.9733 90.7592 28.128 91.4099 28.128C91.8579 28.128 92.2525 28.064 92.5939 27.936C92.9459 27.7973 93.2712 27.584 93.5699 27.296L94.8979 28.736C94.0872 29.664 92.9032 30.128 91.3459 30.128C90.3752 30.128 89.5165 29.9413 88.7699 29.568C88.0232 29.184 87.4472 28.656 87.0419 27.984C86.6365 27.312 86.4339 26.5493 86.4339 25.696C86.4339 24.8533 86.6312 24.096 87.0259 23.424C87.4312 22.7413 87.9805 22.2133 88.6739 21.84C89.3779 21.456 90.1619 21.264 91.0259 21.264C91.8685 21.264 92.6312 21.4453 93.3139 21.808C93.9965 22.1707 94.5299 22.6933 94.9139 23.376C95.3085 24.048 95.5059 24.832 95.5059 25.728ZM91.0419 23.152C90.4765 23.152 90.0019 23.312 89.6179 23.632C89.2339 23.952 88.9992 24.3893 88.9139 24.944H93.1539C93.0685 24.4 92.8339 23.968 92.4499 23.648C92.0659 23.3173 91.5965 23.152 91.0419 23.152ZM99.5516 22.528C99.8503 22.112 100.25 21.7973 100.752 21.584C101.264 21.3707 101.85 21.264 102.512 21.264V23.568C102.234 23.5467 102.048 23.536 101.952 23.536C101.237 23.536 100.677 23.7387 100.272 24.144C99.8663 24.5387 99.6636 25.136 99.6636 25.936V30H97.1676V21.392H99.5516V22.528ZM109.228 21.264C110.294 21.264 111.153 21.584 111.804 22.224C112.465 22.864 112.796 23.8133 112.796 25.072V30H110.3V25.456C110.3 24.7733 110.15 24.2667 109.852 23.936C109.553 23.5947 109.121 23.424 108.556 23.424C107.926 23.424 107.425 23.6213 107.052 24.016C106.678 24.4 106.492 24.976 106.492 25.744V30H103.996V21.392H106.38V22.4C106.71 22.0373 107.121 21.76 107.612 21.568C108.102 21.3653 108.641 21.264 109.228 21.264ZM118.53 21.264C119.864 21.264 120.888 21.584 121.602 22.224C122.317 22.8533 122.674 23.808 122.674 25.088V30H120.338V28.928C119.869 29.728 118.994 30.128 117.714 30.128C117.053 30.128 116.477 30.016 115.986 29.792C115.506 29.568 115.138 29.2587 114.882 28.864C114.626 28.4693 114.498 28.0213 114.498 27.52C114.498 26.72 114.797 26.0907 115.394 25.632C116.002 25.1733 116.936 24.944 118.194 24.944H120.178C120.178 24.4 120.013 23.984 119.682 23.696C119.352 23.3973 118.856 23.248 118.194 23.248C117.736 23.248 117.282 23.3227 116.834 23.472C116.397 23.6107 116.024 23.8027 115.714 24.048L114.818 22.304C115.288 21.9733 115.848 21.7173 116.498 21.536C117.16 21.3547 117.837 21.264 118.53 21.264ZM118.338 28.448C118.765 28.448 119.144 28.352 119.474 28.16C119.805 27.9573 120.04 27.664 120.178 27.28V26.4H118.466C117.442 26.4 116.93 26.736 116.93 27.408C116.93 27.728 117.053 27.984 117.298 28.176C117.554 28.3573 117.901 28.448 118.338 28.448ZM130.165 21.264C131.232 21.264 132.091 21.584 132.741 22.224C133.403 22.864 133.733 23.8133 133.733 25.072V30H131.237V25.456C131.237 24.7733 131.088 24.2667 130.789 23.936C130.491 23.5947 130.059 23.424 129.493 23.424C128.864 23.424 128.363 23.6213 127.989 24.016C127.616 24.4 127.429 24.976 127.429 25.744V30H124.933V21.392H127.317V22.4C127.648 22.0373 128.059 21.76 128.549 21.568C129.04 21.3653 129.579 21.264 130.165 21.264ZM140.25 30.128C139.332 30.128 138.506 29.9413 137.77 29.568C137.044 29.184 136.474 28.656 136.058 27.984C135.652 27.312 135.45 26.5493 135.45 25.696C135.45 24.8427 135.652 24.08 136.058 23.408C136.474 22.736 137.044 22.2133 137.77 21.84C138.506 21.456 139.332 21.264 140.25 21.264C141.156 21.264 141.946 21.456 142.618 21.84C143.3 22.2133 143.796 22.752 144.106 23.456L142.17 24.496C141.722 23.7067 141.076 23.312 140.234 23.312C139.583 23.312 139.044 23.5253 138.618 23.952C138.191 24.3787 137.978 24.96 137.978 25.696C137.978 26.432 138.191 27.0133 138.618 27.44C139.044 27.8667 139.583 28.08 140.234 28.08C141.087 28.08 141.732 27.6853 142.17 26.896L144.106 27.952C143.796 28.6347 143.3 29.168 142.618 29.552C141.946 29.936 141.156 30.128 140.25 30.128ZM153.865 25.728C153.865 25.76 153.849 25.984 153.817 26.4H147.305C147.423 26.9333 147.7 27.3547 148.137 27.664C148.575 27.9733 149.119 28.128 149.769 28.128C150.217 28.128 150.612 28.064 150.953 27.936C151.305 27.7973 151.631 27.584 151.929 27.296L153.257 28.736C152.447 29.664 151.263 30.128 149.705 30.128C148.735 30.128 147.876 29.9413 147.129 29.568C146.383 29.184 145.807 28.656 145.401 27.984C144.996 27.312 144.793 26.5493 144.793 25.696C144.793 24.8533 144.991 24.096 145.385 23.424C145.791 22.7413 146.34 22.2133 147.033 21.84C147.737 21.456 148.521 21.264 149.385 21.264C150.228 21.264 150.991 21.4453 151.673 21.808C152.356 22.1707 152.889 22.6933 153.273 23.376C153.668 24.048 153.865 24.832 153.865 25.728ZM149.401 23.152C148.836 23.152 148.361 23.312 147.977 23.632C147.593 23.952 147.359 24.3893 147.273 24.944H151.513C151.428 24.4 151.193 23.968 150.809 23.648C150.425 23.3173 149.956 23.152 149.401 23.152Z" fill="white"/>
<path d="M58.858 39.5455C58.8153 39.1856 58.6425 38.9062 58.3395 38.7074C58.0365 38.5085 57.6648 38.4091 57.2244 38.4091C56.9025 38.4091 56.6207 38.4612 56.3793 38.5653C56.1402 38.6695 55.9531 38.8127 55.8182 38.995C55.6856 39.1773 55.6193 39.3845 55.6193 39.6165C55.6193 39.8106 55.6655 39.9775 55.7578 40.1172C55.8525 40.2545 55.9732 40.3693 56.12 40.4616C56.2668 40.5516 56.4207 40.6262 56.5817 40.6854C56.7427 40.7422 56.8906 40.7884 57.0256 40.8239L57.7642 41.0227C57.9536 41.0724 58.1643 41.1411 58.3963 41.2287C58.6307 41.3163 58.8544 41.4358 59.0675 41.5874C59.2829 41.7365 59.4605 41.9283 59.6001 42.1626C59.7398 42.397 59.8097 42.6847 59.8097 43.0256C59.8097 43.4186 59.7067 43.7737 59.5007 44.0909C59.2971 44.4081 58.9988 44.6603 58.6058 44.8473C58.2152 45.0343 57.7405 45.1278 57.1818 45.1278C56.661 45.1278 56.21 45.0438 55.8288 44.8757C55.45 44.7076 55.1518 44.4732 54.9339 44.1726C54.7185 43.8719 54.5966 43.5227 54.5682 43.125H55.4773C55.5009 43.3996 55.5933 43.6269 55.7543 43.8068C55.9176 43.9844 56.1236 44.117 56.3722 44.2045C56.6231 44.2898 56.893 44.3324 57.1818 44.3324C57.518 44.3324 57.8198 44.2779 58.0874 44.169C58.3549 44.0578 58.5668 43.9039 58.723 43.7074C58.8793 43.5085 58.9574 43.2765 58.9574 43.0114C58.9574 42.7699 58.8899 42.5734 58.755 42.4219C58.62 42.2704 58.4425 42.1473 58.2223 42.0526C58.0021 41.9579 57.7642 41.875 57.5085 41.804L56.6136 41.5483C56.0455 41.3849 55.5956 41.1518 55.2642 40.8487C54.9328 40.5457 54.767 40.1491 54.767 39.6591C54.767 39.2519 54.8771 38.8968 55.0973 38.5938C55.3198 38.2884 55.6181 38.0516 55.9922 37.8835C56.3686 37.7131 56.7888 37.6278 57.2528 37.6278C57.7216 37.6278 58.1383 37.7119 58.5028 37.88C58.8674 38.0457 59.1563 38.273 59.3693 38.5618C59.5848 38.8506 59.6984 39.1785 59.7102 39.5455H58.858ZM64.5815 42.7699V39.5455H65.4196V45H64.5815V44.0767H64.5247C64.3968 44.3537 64.198 44.5893 63.9281 44.7834C63.6582 44.9751 63.3173 45.071 62.9054 45.071C62.5645 45.071 62.2614 44.9964 61.9963 44.8473C61.7311 44.6958 61.5228 44.4685 61.3713 44.1655C61.2198 43.8601 61.144 43.4754 61.144 43.0114V39.5455H61.9821V42.9545C61.9821 43.3523 62.0933 43.6695 62.3159 43.9062C62.5408 44.143 62.8272 44.2614 63.1752 44.2614C63.3836 44.2614 63.5955 44.2081 63.8109 44.1016C64.0287 43.995 64.211 43.8317 64.3578 43.6115C64.5069 43.3913 64.5815 43.1108 64.5815 42.7699ZM67.0682 45V37.7273H67.9062V40.4119H67.9773C68.0388 40.3172 68.1241 40.1965 68.233 40.0497C68.3442 39.9006 68.5028 39.768 68.7088 39.652C68.9171 39.5336 69.1989 39.4744 69.554 39.4744C70.0133 39.4744 70.4181 39.5893 70.7685 39.8189C71.1188 40.0485 71.3923 40.3741 71.5888 40.7955C71.7853 41.2169 71.8835 41.714 71.8835 42.2869C71.8835 42.8646 71.7853 43.3653 71.5888 43.7891C71.3923 44.2105 71.12 44.5372 70.772 44.7692C70.424 44.9988 70.0227 45.1136 69.5682 45.1136C69.2178 45.1136 68.9373 45.0556 68.7266 44.9396C68.5159 44.8213 68.3537 44.6875 68.2401 44.5384C68.1264 44.3868 68.0388 44.2614 67.9773 44.1619H67.8778V45H67.0682ZM67.892 42.2727C67.892 42.6847 67.9524 43.0481 68.0732 43.3629C68.1939 43.6754 68.3703 43.9205 68.6023 44.098C68.8343 44.2732 69.1184 44.3608 69.4545 44.3608C69.8049 44.3608 70.0973 44.2685 70.3317 44.0838C70.5684 43.8968 70.746 43.6458 70.8643 43.331C70.9851 43.0137 71.0455 42.661 71.0455 42.2727C71.0455 41.8892 70.9863 41.5436 70.8679 41.2358C70.7519 40.9257 70.5755 40.6806 70.3388 40.5007C70.1044 40.3184 69.8097 40.2273 69.4545 40.2273C69.1136 40.2273 68.8272 40.3137 68.5952 40.4865C68.3632 40.657 68.188 40.8961 68.0696 41.2038C67.9512 41.5092 67.892 41.8655 67.892 42.2727ZM77.2564 39.5455C77.2138 39.1856 77.041 38.9062 76.7379 38.7074C76.4349 38.5085 76.0632 38.4091 75.6229 38.4091C75.3009 38.4091 75.0192 38.4612 74.7777 38.5653C74.5386 38.6695 74.3516 38.8127 74.2166 38.995C74.084 39.1773 74.0178 39.3845 74.0178 39.6165C74.0178 39.8106 74.0639 39.9775 74.1562 40.1172C74.2509 40.2545 74.3717 40.3693 74.5185 40.4616C74.6652 40.5516 74.8191 40.6262 74.9801 40.6854C75.1411 40.7422 75.2891 40.7884 75.424 40.8239L76.1626 41.0227C76.352 41.0724 76.5627 41.1411 76.7947 41.2287C77.0291 41.3163 77.2528 41.4358 77.4659 41.5874C77.6813 41.7365 77.8589 41.9283 77.9986 42.1626C78.1383 42.397 78.2081 42.6847 78.2081 43.0256C78.2081 43.4186 78.1051 43.7737 77.8991 44.0909C77.6955 44.4081 77.3973 44.6603 77.0043 44.8473C76.6136 45.0343 76.139 45.1278 75.5803 45.1278C75.0594 45.1278 74.6084 45.0438 74.2273 44.8757C73.8485 44.7076 73.5502 44.4732 73.3324 44.1726C73.117 43.8719 72.995 43.5227 72.9666 43.125H73.8757C73.8994 43.3996 73.9917 43.6269 74.1527 43.8068C74.3161 43.9844 74.522 44.117 74.7706 44.2045C75.0215 44.2898 75.2914 44.3324 75.5803 44.3324C75.9164 44.3324 76.2183 44.2779 76.4858 44.169C76.7533 44.0578 76.9652 43.9039 77.1214 43.7074C77.2777 43.5085 77.3558 43.2765 77.3558 43.0114C77.3558 42.7699 77.2884 42.5734 77.1534 42.4219C77.0185 42.2704 76.8409 42.1473 76.6207 42.0526C76.4006 41.9579 76.1626 41.875 75.907 41.804L75.0121 41.5483C74.4439 41.3849 73.9941 41.1518 73.6626 40.8487C73.3312 40.5457 73.1655 40.1491 73.1655 39.6591C73.1655 39.2519 73.2756 38.8968 73.4957 38.5938C73.7183 38.2884 74.0166 38.0516 74.3906 37.8835C74.767 37.7131 75.1873 37.6278 75.6513 37.6278C76.12 37.6278 76.5367 37.7119 76.9013 37.88C77.2659 38.0457 77.5547 38.273 77.7678 38.5618C77.9832 38.8506 78.0968 39.1785 78.1087 39.5455H77.2564ZM83.264 47.0455V44.1619H83.193C83.1315 44.2614 83.0439 44.3868 82.9302 44.5384C82.8166 44.6875 82.6544 44.8213 82.4437 44.9396C82.233 45.0556 81.9525 45.1136 81.6021 45.1136C81.1475 45.1136 80.7463 44.9988 80.3983 44.7692C80.0502 44.5372 79.778 44.2105 79.5815 43.7891C79.385 43.3653 79.2868 42.8646 79.2868 42.2869C79.2868 41.714 79.385 41.2169 79.5815 40.7955C79.778 40.3741 80.0514 40.0485 80.4018 39.8189C80.7522 39.5893 81.157 39.4744 81.6163 39.4744C81.9714 39.4744 82.252 39.5336 82.4579 39.652C82.6663 39.768 82.8249 39.9006 82.9338 40.0497C83.045 40.1965 83.1315 40.3172 83.193 40.4119H83.2924V39.5455H84.1021V47.0455H83.264ZM81.7157 44.3608C82.0519 44.3608 82.336 44.2732 82.568 44.098C82.8 43.9205 82.9764 43.6754 83.0971 43.3629C83.2179 43.0481 83.2782 42.6847 83.2782 42.2727C83.2782 41.8655 83.219 41.5092 83.1007 41.2038C82.9823 40.8961 82.8071 40.657 82.5751 40.4865C82.3431 40.3137 82.0566 40.2273 81.7157 40.2273C81.3606 40.2273 81.0647 40.3184 80.8279 40.5007C80.5936 40.6806 80.4172 40.9257 80.2988 41.2358C80.1828 41.5436 80.1248 41.8892 80.1248 42.2727C80.1248 42.661 80.184 43.0137 80.3024 43.331C80.4231 43.6458 80.6007 43.8968 80.835 44.0838C81.0718 44.2685 81.3654 44.3608 81.7157 44.3608ZM89.0737 42.7699V39.5455H89.9118V45H89.0737V44.0767H89.0169C88.889 44.3537 88.6902 44.5893 88.4203 44.7834C88.1504 44.9751 87.8095 45.071 87.3975 45.071C87.0566 45.071 86.7536 44.9964 86.4885 44.8473C86.2233 44.6958 86.015 44.4685 85.8635 44.1655C85.7119 43.8601 85.6362 43.4754 85.6362 43.0114V39.5455H86.4743V42.9545C86.4743 43.3523 86.5855 43.6695 86.8081 43.9062C87.033 44.143 87.3194 44.2614 87.6674 44.2614C87.8758 44.2614 88.0877 44.2081 88.3031 44.1016C88.5209 43.995 88.7032 43.8317 88.85 43.6115C88.9991 43.3913 89.0737 43.1108 89.0737 42.7699ZM93.0518 45.1278C92.7062 45.1278 92.3925 45.0627 92.1108 44.9325C91.8291 44.8 91.6054 44.6094 91.4396 44.3608C91.2739 44.1098 91.1911 43.8068 91.1911 43.4517C91.1911 43.1392 91.2526 42.8859 91.3757 42.6918C91.4988 42.4953 91.6634 42.3414 91.8693 42.2301C92.0753 42.1188 92.3026 42.036 92.5511 41.9815C92.8021 41.9247 93.0542 41.8797 93.3075 41.8466C93.639 41.804 93.9077 41.772 94.1136 41.7507C94.322 41.727 94.4735 41.688 94.5682 41.6335C94.6652 41.5791 94.7138 41.4844 94.7138 41.3494V41.321C94.7138 40.9706 94.6179 40.6984 94.4261 40.5043C94.2367 40.3101 93.9491 40.2131 93.5632 40.2131C93.1631 40.2131 92.8494 40.3007 92.6222 40.4759C92.3949 40.651 92.2351 40.8381 92.1428 41.0369L91.3473 40.7528C91.4893 40.4214 91.6787 40.1634 91.9155 39.9787C92.1546 39.7917 92.415 39.6615 92.6967 39.5881C92.9808 39.5123 93.2602 39.4744 93.5348 39.4744C93.71 39.4744 93.9112 39.4957 94.1385 39.5384C94.3681 39.5786 94.5895 39.6626 94.8026 39.7905C95.018 39.9183 95.1967 40.1113 95.3388 40.3693C95.4808 40.6274 95.5518 40.973 95.5518 41.4062V45H94.7138V44.2614H94.6712C94.6143 44.3797 94.5196 44.5064 94.3871 44.6413C94.2545 44.7763 94.0781 44.8911 93.858 44.9858C93.6378 45.0805 93.3691 45.1278 93.0518 45.1278ZM93.1797 44.375C93.5111 44.375 93.7905 44.3099 94.0178 44.1797C94.2474 44.0495 94.4202 43.8814 94.5362 43.6754C94.6546 43.4695 94.7138 43.2528 94.7138 43.0256V42.2585C94.6783 42.3011 94.6001 42.3402 94.4794 42.3757C94.361 42.4089 94.2237 42.4384 94.0675 42.4645C93.9136 42.4882 93.7633 42.5095 93.6165 42.5284C93.4721 42.545 93.3549 42.5592 93.2649 42.571C93.0471 42.5994 92.8435 42.6456 92.6541 42.7095C92.4671 42.7711 92.3156 42.8646 92.1996 42.9901C92.0859 43.1132 92.0291 43.2812 92.0291 43.4943C92.0291 43.7855 92.1368 44.0057 92.3523 44.1548C92.5701 44.3016 92.8459 44.375 93.1797 44.375ZM97.0815 45V39.5455H97.8912V40.3693H97.948C98.0474 40.0994 98.2273 39.8804 98.4877 39.7124C98.7482 39.5443 99.0417 39.4602 99.3684 39.4602C99.43 39.4602 99.5069 39.4614 99.5993 39.4638C99.6916 39.4661 99.7614 39.4697 99.8088 39.4744V40.3267C99.7804 40.3196 99.7153 40.3089 99.6135 40.2947C99.514 40.2782 99.4087 40.2699 99.2974 40.2699C99.0323 40.2699 98.7955 40.3255 98.5872 40.4368C98.3812 40.5457 98.2179 40.6972 98.0971 40.8913C97.9788 41.0831 97.9196 41.3021 97.9196 41.5483V45H97.0815ZM102.923 45.1136C102.398 45.1136 101.944 44.9976 101.563 44.7656C101.184 44.5312 100.892 44.2045 100.686 43.7855C100.482 43.3641 100.381 42.8741 100.381 42.3153C100.381 41.7566 100.482 41.2642 100.686 40.8381C100.892 40.4096 101.178 40.0758 101.545 39.8366C101.915 39.5952 102.345 39.4744 102.838 39.4744C103.122 39.4744 103.403 39.5218 103.68 39.6165C103.956 39.7112 104.209 39.8651 104.436 40.0781C104.663 40.2888 104.844 40.5682 104.979 40.9162C105.114 41.2642 105.182 41.6927 105.182 42.2017V42.5568H100.977V41.8324H104.329C104.329 41.5246 104.268 41.25 104.145 41.0085C104.024 40.767 103.851 40.5765 103.626 40.4368C103.404 40.2971 103.141 40.2273 102.838 40.2273C102.504 40.2273 102.215 40.3101 101.971 40.4759C101.73 40.6392 101.544 40.8523 101.414 41.1151C101.284 41.3778 101.219 41.6596 101.219 41.9602V42.4432C101.219 42.8551 101.29 43.2043 101.432 43.4908C101.576 43.7749 101.776 43.9915 102.032 44.1406C102.287 44.2874 102.585 44.3608 102.923 44.3608C103.143 44.3608 103.342 44.33 103.52 44.2685C103.7 44.2045 103.855 44.1098 103.985 43.9844C104.115 43.8565 104.216 43.6979 104.287 43.5085L105.096 43.7358C105.011 44.0104 104.868 44.2519 104.667 44.4602C104.465 44.6662 104.217 44.8272 103.921 44.9432C103.625 45.0568 103.292 45.1136 102.923 45.1136Z" fill="white" fill-opacity="0.25"/>
</svg>
