<svg width="217" height="64" viewBox="0 0 217 64" fill="none" xmlns="http://www.w3.org/2000/svg">
<path d="M12.6555 31.7619H8.21162V27.381H14.7809V23H8.21162V27.381H4.54054V23L0 23V39H4.54054V31.7619H8.21162V36.0476H11.1098V39H15.5538V34.619H12.6555V31.7619ZM27.3398 28.8095H22.2197V23L17.6791 23V39H22.2197V33.1905H27.2432C27.2722 35.1238 27.3109 37.0667 27.3398 39H31.7838V23H27.3398V28.8095ZM39.8988 23C38.1237 27.238 33.2329 39 33.2329 39H37.87C38.2275 38.0762 38.5753 37.1619 38.9327 36.2381H45.1156C45.4344 37.1238 45.7628 38.019 46.0817 38.9048C47.695 38.9333 49.2987 38.9714 50.912 39L44.1495 23H39.8988ZM40.2852 32.7143C40.8359 31.2857 41.3769 29.8571 41.9275 28.4286C42.5362 29.8571 43.1545 31.2857 43.7631 32.7143H40.2852ZM56.8051 23H52.3611V39H64.9201V34.619H56.8051V23ZM77.3824 23H73.0351C71.2428 27.2789 66.3692 39 66.3692 39H71.0063C71.3638 38.0762 71.7116 37.1619 72.069 36.2381H78.2519L79.2179 39H84C84 39 79.6044 28.3333 77.3824 23ZM73.4215 32.7143L75.0638 28.4286L76.8994 32.7143H73.4215Z" fill="#02FFFF"/>
<path d="M100 25V37" stroke="#363A4D"/>
<path d="M124.896 24.224H127.264V28.768C126.656 29.2267 125.952 29.5787 125.152 29.824C124.352 30.0693 123.547 30.192 122.736 30.192C121.573 30.192 120.528 29.9467 119.6 29.456C118.672 28.9547 117.941 28.2667 117.408 27.392C116.885 26.5067 116.624 25.5093 116.624 24.4C116.624 23.2907 116.885 22.2987 117.408 21.424C117.941 20.5387 118.677 19.8507 119.616 19.36C120.555 18.8587 121.611 18.608 122.784 18.608C123.765 18.608 124.656 18.7733 125.456 19.104C126.256 19.4347 126.928 19.9147 127.472 20.544L125.808 22.08C125.008 21.2373 124.043 20.816 122.912 20.816C122.197 20.816 121.563 20.9653 121.008 21.264C120.453 21.5627 120.021 21.984 119.712 22.528C119.403 23.072 119.248 23.696 119.248 24.4C119.248 25.0933 119.403 25.712 119.712 26.256C120.021 26.8 120.448 27.2267 120.992 27.536C121.547 27.8347 122.176 27.984 122.88 27.984C123.627 27.984 124.299 27.824 124.896 27.504V24.224ZM133.592 30.128C132.685 30.128 131.869 29.9413 131.144 29.568C130.429 29.184 129.869 28.656 129.464 27.984C129.058 27.312 128.856 26.5493 128.856 25.696C128.856 24.8427 129.058 24.08 129.464 23.408C129.869 22.736 130.429 22.2133 131.144 21.84C131.869 21.456 132.685 21.264 133.592 21.264C134.498 21.264 135.309 21.456 136.024 21.84C136.738 22.2133 137.298 22.736 137.704 23.408C138.109 24.08 138.312 24.8427 138.312 25.696C138.312 26.5493 138.109 27.312 137.704 27.984C137.298 28.656 136.738 29.184 136.024 29.568C135.309 29.9413 134.498 30.128 133.592 30.128ZM133.592 28.08C134.232 28.08 134.754 27.8667 135.16 27.44C135.576 27.0027 135.784 26.4213 135.784 25.696C135.784 24.9707 135.576 24.3947 135.16 23.968C134.754 23.5307 134.232 23.312 133.592 23.312C132.952 23.312 132.424 23.5307 132.008 23.968C131.592 24.3947 131.384 24.9707 131.384 25.696C131.384 26.4213 131.592 27.0027 132.008 27.44C132.424 27.8667 132.952 28.08 133.592 28.08ZM148.29 21.392L144.658 30H142.082L138.466 21.392H141.042L143.426 27.248L145.89 21.392H148.29ZM157.506 25.728C157.506 25.76 157.49 25.984 157.458 26.4H150.946C151.063 26.9333 151.341 27.3547 151.778 27.664C152.215 27.9733 152.759 28.128 153.41 28.128C153.858 28.128 154.253 28.064 154.594 27.936C154.946 27.7973 155.271 27.584 155.57 27.296L156.898 28.736C156.087 29.664 154.903 30.128 153.346 30.128C152.375 30.128 151.517 29.9413 150.77 29.568C150.023 29.184 149.447 28.656 149.042 27.984C148.637 27.312 148.434 26.5493 148.434 25.696C148.434 24.8533 148.631 24.096 149.026 23.424C149.431 22.7413 149.981 22.2133 150.674 21.84C151.378 21.456 152.162 21.264 153.026 21.264C153.869 21.264 154.631 21.4453 155.314 21.808C155.997 22.1707 156.53 22.6933 156.914 23.376C157.309 24.048 157.506 24.832 157.506 25.728ZM153.042 23.152C152.477 23.152 152.002 23.312 151.618 23.632C151.234 23.952 150.999 24.3893 150.914 24.944H155.154C155.069 24.4 154.834 23.968 154.45 23.648C154.066 23.3173 153.597 23.152 153.042 23.152ZM161.552 22.528C161.85 22.112 162.25 21.7973 162.752 21.584C163.264 21.3707 163.85 21.264 164.512 21.264V23.568C164.234 23.5467 164.048 23.536 163.952 23.536C163.237 23.536 162.677 23.7387 162.272 24.144C161.866 24.5387 161.664 25.136 161.664 25.936V30H159.168V21.392H161.552V22.528ZM171.228 21.264C172.294 21.264 173.153 21.584 173.804 22.224C174.465 22.864 174.796 23.8133 174.796 25.072V30H172.3V25.456C172.3 24.7733 172.15 24.2667 171.852 23.936C171.553 23.5947 171.121 23.424 170.556 23.424C169.926 23.424 169.425 23.6213 169.052 24.016C168.678 24.4 168.492 24.976 168.492 25.744V30H165.996V21.392H168.38V22.4C168.71 22.0373 169.121 21.76 169.612 21.568C170.102 21.3653 170.641 21.264 171.228 21.264ZM180.53 21.264C181.864 21.264 182.888 21.584 183.602 22.224C184.317 22.8533 184.674 23.808 184.674 25.088V30H182.338V28.928C181.869 29.728 180.994 30.128 179.714 30.128C179.053 30.128 178.477 30.016 177.986 29.792C177.506 29.568 177.138 29.2587 176.882 28.864C176.626 28.4693 176.498 28.0213 176.498 27.52C176.498 26.72 176.797 26.0907 177.394 25.632C178.002 25.1733 178.936 24.944 180.194 24.944H182.178C182.178 24.4 182.013 23.984 181.682 23.696C181.352 23.3973 180.856 23.248 180.194 23.248C179.736 23.248 179.282 23.3227 178.834 23.472C178.397 23.6107 178.024 23.8027 177.714 24.048L176.818 22.304C177.288 21.9733 177.848 21.7173 178.498 21.536C179.16 21.3547 179.837 21.264 180.53 21.264ZM180.338 28.448C180.765 28.448 181.144 28.352 181.474 28.16C181.805 27.9573 182.04 27.664 182.178 27.28V26.4H180.466C179.442 26.4 178.93 26.736 178.93 27.408C178.93 27.728 179.053 27.984 179.298 28.176C179.554 28.3573 179.901 28.448 180.338 28.448ZM192.165 21.264C193.232 21.264 194.091 21.584 194.741 22.224C195.403 22.864 195.733 23.8133 195.733 25.072V30H193.237V25.456C193.237 24.7733 193.088 24.2667 192.789 23.936C192.491 23.5947 192.059 23.424 191.493 23.424C190.864 23.424 190.363 23.6213 189.989 24.016C189.616 24.4 189.429 24.976 189.429 25.744V30H186.933V21.392H189.317V22.4C189.648 22.0373 190.059 21.76 190.549 21.568C191.04 21.3653 191.579 21.264 192.165 21.264ZM202.25 30.128C201.332 30.128 200.506 29.9413 199.77 29.568C199.044 29.184 198.474 28.656 198.058 27.984C197.652 27.312 197.45 26.5493 197.45 25.696C197.45 24.8427 197.652 24.08 198.058 23.408C198.474 22.736 199.044 22.2133 199.77 21.84C200.506 21.456 201.332 21.264 202.25 21.264C203.156 21.264 203.946 21.456 204.618 21.84C205.3 22.2133 205.796 22.752 206.106 23.456L204.17 24.496C203.722 23.7067 203.076 23.312 202.234 23.312C201.583 23.312 201.044 23.5253 200.618 23.952C200.191 24.3787 199.978 24.96 199.978 25.696C199.978 26.432 200.191 27.0133 200.618 27.44C201.044 27.8667 201.583 28.08 202.234 28.08C203.087 28.08 203.732 27.6853 204.17 26.896L206.106 27.952C205.796 28.6347 205.3 29.168 204.618 29.552C203.946 29.936 203.156 30.128 202.25 30.128ZM215.865 25.728C215.865 25.76 215.849 25.984 215.817 26.4H209.305C209.423 26.9333 209.7 27.3547 210.137 27.664C210.575 27.9733 211.119 28.128 211.769 28.128C212.217 28.128 212.612 28.064 212.953 27.936C213.305 27.7973 213.631 27.584 213.929 27.296L215.257 28.736C214.447 29.664 213.263 30.128 211.705 30.128C210.735 30.128 209.876 29.9413 209.129 29.568C208.383 29.184 207.807 28.656 207.401 27.984C206.996 27.312 206.793 26.5493 206.793 25.696C206.793 24.8533 206.991 24.096 207.385 23.424C207.791 22.7413 208.34 22.2133 209.033 21.84C209.737 21.456 210.521 21.264 211.385 21.264C212.228 21.264 212.991 21.4453 213.673 21.808C214.356 22.1707 214.889 22.6933 215.273 23.376C215.668 24.048 215.865 24.832 215.865 25.728ZM211.401 23.152C210.836 23.152 210.361 23.312 209.977 23.632C209.593 23.952 209.359 24.3893 209.273 24.944H213.513C213.428 24.4 213.193 23.968 212.809 23.648C212.425 23.3173 211.956 23.152 211.401 23.152Z" fill="white"/>
<path d="M120.858 39.5455C120.815 39.1856 120.643 38.9062 120.339 38.7074C120.036 38.5085 119.665 38.4091 119.224 38.4091C118.902 38.4091 118.621 38.4612 118.379 38.5653C118.14 38.6695 117.953 38.8127 117.818 38.995C117.686 39.1773 117.619 39.3845 117.619 39.6165C117.619 39.8106 117.665 39.9775 117.758 40.1172C117.853 40.2545 117.973 40.3693 118.12 40.4616C118.267 40.5516 118.421 40.6262 118.582 40.6854C118.743 40.7422 118.891 40.7884 119.026 40.8239L119.764 41.0227C119.954 41.0724 120.164 41.1411 120.396 41.2287C120.631 41.3163 120.854 41.4358 121.067 41.5874C121.283 41.7365 121.46 41.9283 121.6 42.1626C121.74 42.397 121.81 42.6847 121.81 43.0256C121.81 43.4186 121.707 43.7737 121.501 44.0909C121.297 44.4081 120.999 44.6603 120.606 44.8473C120.215 45.0343 119.741 45.1278 119.182 45.1278C118.661 45.1278 118.21 45.0438 117.829 44.8757C117.45 44.7076 117.152 44.4732 116.934 44.1726C116.719 43.8719 116.597 43.5227 116.568 43.125H117.477C117.501 43.3996 117.593 43.6269 117.754 43.8068C117.918 43.9844 118.124 44.117 118.372 44.2045C118.623 44.2898 118.893 44.3324 119.182 44.3324C119.518 44.3324 119.82 44.2779 120.087 44.169C120.355 44.0578 120.567 43.9039 120.723 43.7074C120.879 43.5085 120.957 43.2765 120.957 43.0114C120.957 42.7699 120.89 42.5734 120.755 42.4219C120.62 42.2704 120.442 42.1473 120.222 42.0526C120.002 41.9579 119.764 41.875 119.509 41.804L118.614 41.5483C118.045 41.3849 117.596 41.1518 117.264 40.8487C116.933 40.5457 116.767 40.1491 116.767 39.6591C116.767 39.2519 116.877 38.8968 117.097 38.5938C117.32 38.2884 117.618 38.0516 117.992 37.8835C118.369 37.7131 118.789 37.6278 119.253 37.6278C119.722 37.6278 120.138 37.7119 120.503 37.88C120.867 38.0457 121.156 38.273 121.369 38.5618C121.585 38.8506 121.698 39.1785 121.71 39.5455H120.858ZM126.581 42.7699V39.5455H127.42V45H126.581V44.0767H126.525C126.397 44.3537 126.198 44.5893 125.928 44.7834C125.658 44.9751 125.317 45.071 124.905 45.071C124.564 45.071 124.261 44.9964 123.996 44.8473C123.731 44.6958 123.523 44.4685 123.371 44.1655C123.22 43.8601 123.144 43.4754 123.144 43.0114V39.5455H123.982V42.9545C123.982 43.3523 124.093 43.6695 124.316 43.9062C124.541 44.143 124.827 44.2614 125.175 44.2614C125.384 44.2614 125.595 44.2081 125.811 44.1016C126.029 43.995 126.211 43.8317 126.358 43.6115C126.507 43.3913 126.581 43.1108 126.581 42.7699ZM129.068 45V37.7273H129.906V40.4119H129.977C130.039 40.3172 130.124 40.1965 130.233 40.0497C130.344 39.9006 130.503 39.768 130.709 39.652C130.917 39.5336 131.199 39.4744 131.554 39.4744C132.013 39.4744 132.418 39.5893 132.768 39.8189C133.119 40.0485 133.392 40.3741 133.589 40.7955C133.785 41.2169 133.884 41.714 133.884 42.2869C133.884 42.8646 133.785 43.3653 133.589 43.7891C133.392 44.2105 133.12 44.5372 132.772 44.7692C132.424 44.9988 132.023 45.1136 131.568 45.1136C131.218 45.1136 130.937 45.0556 130.727 44.9396C130.516 44.8213 130.354 44.6875 130.24 44.5384C130.126 44.3868 130.039 44.2614 129.977 44.1619H129.878V45H129.068ZM129.892 42.2727C129.892 42.6847 129.952 43.0481 130.073 43.3629C130.194 43.6754 130.37 43.9205 130.602 44.098C130.834 44.2732 131.118 44.3608 131.455 44.3608C131.805 44.3608 132.097 44.2685 132.332 44.0838C132.568 43.8968 132.746 43.6458 132.864 43.331C132.985 43.0137 133.045 42.661 133.045 42.2727C133.045 41.8892 132.986 41.5436 132.868 41.2358C132.752 40.9257 132.576 40.6806 132.339 40.5007C132.104 40.3184 131.81 40.2273 131.455 40.2273C131.114 40.2273 130.827 40.3137 130.595 40.4865C130.363 40.657 130.188 40.8961 130.07 41.2038C129.951 41.5092 129.892 41.8655 129.892 42.2727ZM139.256 39.5455C139.214 39.1856 139.041 38.9062 138.738 38.7074C138.435 38.5085 138.063 38.4091 137.623 38.4091C137.301 38.4091 137.019 38.4612 136.778 38.5653C136.539 38.6695 136.352 38.8127 136.217 38.995C136.084 39.1773 136.018 39.3845 136.018 39.6165C136.018 39.8106 136.064 39.9775 136.156 40.1172C136.251 40.2545 136.372 40.3693 136.518 40.4616C136.665 40.5516 136.819 40.6262 136.98 40.6854C137.141 40.7422 137.289 40.7884 137.424 40.8239L138.163 41.0227C138.352 41.0724 138.563 41.1411 138.795 41.2287C139.029 41.3163 139.253 41.4358 139.466 41.5874C139.681 41.7365 139.859 41.9283 139.999 42.1626C140.138 42.397 140.208 42.6847 140.208 43.0256C140.208 43.4186 140.105 43.7737 139.899 44.0909C139.696 44.4081 139.397 44.6603 139.004 44.8473C138.614 45.0343 138.139 45.1278 137.58 45.1278C137.059 45.1278 136.608 45.0438 136.227 44.8757C135.848 44.7076 135.55 44.4732 135.332 44.1726C135.117 43.8719 134.995 43.5227 134.967 43.125H135.876C135.899 43.3996 135.992 43.6269 136.153 43.8068C136.316 43.9844 136.522 44.117 136.771 44.2045C137.022 44.2898 137.291 44.3324 137.58 44.3324C137.916 44.3324 138.218 44.2779 138.486 44.169C138.753 44.0578 138.965 43.9039 139.121 43.7074C139.278 43.5085 139.356 43.2765 139.356 43.0114C139.356 42.7699 139.288 42.5734 139.153 42.4219C139.018 42.2704 138.841 42.1473 138.621 42.0526C138.401 41.9579 138.163 41.875 137.907 41.804L137.012 41.5483C136.444 41.3849 135.994 41.1518 135.663 40.8487C135.331 40.5457 135.165 40.1491 135.165 39.6591C135.165 39.2519 135.276 38.8968 135.496 38.5938C135.718 38.2884 136.017 38.0516 136.391 37.8835C136.767 37.7131 137.187 37.6278 137.651 37.6278C138.12 37.6278 138.537 37.7119 138.901 37.88C139.266 38.0457 139.555 38.273 139.768 38.5618C139.983 38.8506 140.097 39.1785 140.109 39.5455H139.256ZM145.264 47.0455V44.1619H145.193C145.131 44.2614 145.044 44.3868 144.93 44.5384C144.817 44.6875 144.654 44.8213 144.444 44.9396C144.233 45.0556 143.952 45.1136 143.602 45.1136C143.148 45.1136 142.746 44.9988 142.398 44.7692C142.05 44.5372 141.778 44.2105 141.581 43.7891C141.385 43.3653 141.287 42.8646 141.287 42.2869C141.287 41.714 141.385 41.2169 141.581 40.7955C141.778 40.3741 142.051 40.0485 142.402 39.8189C142.752 39.5893 143.157 39.4744 143.616 39.4744C143.971 39.4744 144.252 39.5336 144.458 39.652C144.666 39.768 144.825 39.9006 144.934 40.0497C145.045 40.1965 145.131 40.3172 145.193 40.4119H145.292V39.5455H146.102V47.0455H145.264ZM143.716 44.3608C144.052 44.3608 144.336 44.2732 144.568 44.098C144.8 43.9205 144.976 43.6754 145.097 43.3629C145.218 43.0481 145.278 42.6847 145.278 42.2727C145.278 41.8655 145.219 41.5092 145.101 41.2038C144.982 40.8961 144.807 40.657 144.575 40.4865C144.343 40.3137 144.057 40.2273 143.716 40.2273C143.361 40.2273 143.065 40.3184 142.828 40.5007C142.594 40.6806 142.417 40.9257 142.299 41.2358C142.183 41.5436 142.125 41.8892 142.125 42.2727C142.125 42.661 142.184 43.0137 142.302 43.331C142.423 43.6458 142.601 43.8968 142.835 44.0838C143.072 44.2685 143.365 44.3608 143.716 44.3608ZM151.074 42.7699V39.5455H151.912V45H151.074V44.0767H151.017C150.889 44.3537 150.69 44.5893 150.42 44.7834C150.15 44.9751 149.809 45.071 149.398 45.071C149.057 45.071 148.754 44.9964 148.488 44.8473C148.223 44.6958 148.015 44.4685 147.863 44.1655C147.712 43.8601 147.636 43.4754 147.636 43.0114V39.5455H148.474V42.9545C148.474 43.3523 148.586 43.6695 148.808 43.9062C149.033 44.143 149.319 44.2614 149.667 44.2614C149.876 44.2614 150.088 44.2081 150.303 44.1016C150.521 43.995 150.703 43.8317 150.85 43.6115C150.999 43.3913 151.074 43.1108 151.074 42.7699ZM155.052 45.1278C154.706 45.1278 154.393 45.0627 154.111 44.9325C153.829 44.8 153.605 44.6094 153.44 44.3608C153.274 44.1098 153.191 43.8068 153.191 43.4517C153.191 43.1392 153.253 42.8859 153.376 42.6918C153.499 42.4953 153.663 42.3414 153.869 42.2301C154.075 42.1188 154.303 42.036 154.551 41.9815C154.802 41.9247 155.054 41.8797 155.308 41.8466C155.639 41.804 155.908 41.772 156.114 41.7507C156.322 41.727 156.473 41.688 156.568 41.6335C156.665 41.5791 156.714 41.4844 156.714 41.3494V41.321C156.714 40.9706 156.618 40.6984 156.426 40.5043C156.237 40.3101 155.949 40.2131 155.563 40.2131C155.163 40.2131 154.849 40.3007 154.622 40.4759C154.395 40.651 154.235 40.8381 154.143 41.0369L153.347 40.7528C153.489 40.4214 153.679 40.1634 153.915 39.9787C154.155 39.7917 154.415 39.6615 154.697 39.5881C154.981 39.5123 155.26 39.4744 155.535 39.4744C155.71 39.4744 155.911 39.4957 156.138 39.5384C156.368 39.5786 156.589 39.6626 156.803 39.7905C157.018 39.9183 157.197 40.1113 157.339 40.3693C157.481 40.6274 157.552 40.973 157.552 41.4062V45H156.714V44.2614H156.671C156.614 44.3797 156.52 44.5064 156.387 44.6413C156.254 44.7763 156.078 44.8911 155.858 44.9858C155.638 45.0805 155.369 45.1278 155.052 45.1278ZM155.18 44.375C155.511 44.375 155.79 44.3099 156.018 44.1797C156.247 44.0495 156.42 43.8814 156.536 43.6754C156.655 43.4695 156.714 43.2528 156.714 43.0256V42.2585C156.678 42.3011 156.6 42.3402 156.479 42.3757C156.361 42.4089 156.224 42.4384 156.067 42.4645C155.914 42.4882 155.763 42.5095 155.616 42.5284C155.472 42.545 155.355 42.5592 155.265 42.571C155.047 42.5994 154.844 42.6456 154.654 42.7095C154.467 42.7711 154.316 42.8646 154.2 42.9901C154.086 43.1132 154.029 43.2812 154.029 43.4943C154.029 43.7855 154.137 44.0057 154.352 44.1548C154.57 44.3016 154.846 44.375 155.18 44.375ZM159.081 45V39.5455H159.891V40.3693H159.948C160.047 40.0994 160.227 39.8804 160.488 39.7124C160.748 39.5443 161.042 39.4602 161.368 39.4602C161.43 39.4602 161.507 39.4614 161.599 39.4638C161.692 39.4661 161.761 39.4697 161.809 39.4744V40.3267C161.78 40.3196 161.715 40.3089 161.613 40.2947C161.514 40.2782 161.409 40.2699 161.297 40.2699C161.032 40.2699 160.796 40.3255 160.587 40.4368C160.381 40.5457 160.218 40.6972 160.097 40.8913C159.979 41.0831 159.92 41.3021 159.92 41.5483V45H159.081ZM164.923 45.1136C164.398 45.1136 163.944 44.9976 163.563 44.7656C163.184 44.5312 162.892 44.2045 162.686 43.7855C162.482 43.3641 162.381 42.8741 162.381 42.3153C162.381 41.7566 162.482 41.2642 162.686 40.8381C162.892 40.4096 163.178 40.0758 163.545 39.8366C163.915 39.5952 164.345 39.4744 164.838 39.4744C165.122 39.4744 165.403 39.5218 165.68 39.6165C165.956 39.7112 166.209 39.8651 166.436 40.0781C166.663 40.2888 166.844 40.5682 166.979 40.9162C167.114 41.2642 167.182 41.6927 167.182 42.2017V42.5568H162.977V41.8324H166.329C166.329 41.5246 166.268 41.25 166.145 41.0085C166.024 40.767 165.851 40.5765 165.626 40.4368C165.404 40.2971 165.141 40.2273 164.838 40.2273C164.504 40.2273 164.215 40.3101 163.971 40.4759C163.73 40.6392 163.544 40.8523 163.414 41.1151C163.284 41.3778 163.219 41.6596 163.219 41.9602V42.4432C163.219 42.8551 163.29 43.2043 163.432 43.4908C163.576 43.7749 163.776 43.9915 164.032 44.1406C164.287 44.2874 164.585 44.3608 164.923 44.3608C165.143 44.3608 165.342 44.33 165.52 44.2685C165.7 44.2045 165.855 44.1098 165.985 43.9844C166.115 43.8565 166.216 43.6979 166.287 43.5085L167.096 43.7358C167.011 44.0104 166.868 44.2519 166.667 44.4602C166.465 44.6662 166.217 44.8272 165.921 44.9432C165.625 45.0568 165.292 45.1136 164.923 45.1136Z" fill="white" fill-opacity="0.25"/>
</svg>
