<svg width="236" height="64" viewBox="0 0 236 64" fill="none" xmlns="http://www.w3.org/2000/svg">
<g clip-path="url(#clip0_13399_66168)">
<path d="M31.25 51.5L8.75 51.5C4.19365 51.5 0.5 47.8063 0.500001 43.25L0.500003 20.75C0.500003 16.1937 4.19365 12.5 8.75 12.5L31.25 12.5C35.8064 12.5 39.5 16.1937 39.5 20.75L39.5 43.25C39.5 47.8063 35.8063 51.5 31.25 51.5Z" fill="#030E27" stroke="#EBEEF4"/>
<path d="M24.245 27.7731C23.1483 26.694 21.6704 26.0899 20.1338 26.0957C20.1162 26.0957 20.0928 26.0957 20.0752 26.0957C16.8261 26.1427 14.2338 28.8053 14.2749 32.0544C14.3159 35.2624 16.9258 37.8429 20.1338 37.8546H20.1925C23.4415 37.8253 26.0455 35.1686 26.0162 31.9195C25.9986 30.3536 25.3652 28.8639 24.245 27.7731Z" fill="url(#paint0_linear_13399_66168)"/>
<path d="M22.644 27.0634C21.952 26.8875 21.4007 27.0341 20.9491 27.4915C20.8963 27.5502 20.8435 27.6088 20.7907 27.6733C20.6734 27.82 20.5737 27.949 20.345 28.0018C20.0401 28.0604 19.7234 28.078 19.4125 28.0428C19.3246 28.0311 19.2483 28.0135 19.1838 27.9959C18.9492 27.9431 18.8143 27.9079 18.5328 28.1718C18.4448 28.2598 18.3686 28.3537 18.2982 28.4592C18.1751 28.6293 18.0578 28.7877 17.8701 28.8639C17.7821 28.8991 17.6883 28.9167 17.5944 28.9225C17.5886 28.9167 17.5768 28.9167 17.571 28.9108L17.5651 28.9225C17.4302 28.9284 17.2953 28.9167 17.1604 28.8932C17.0549 28.8756 16.9493 28.8698 16.8438 28.8639C16.9904 28.6528 17.1135 28.4299 17.2191 28.2012C17.4126 28.1718 17.5768 28.0428 17.7411 27.9197C17.8232 27.8493 17.917 27.7848 18.0108 27.732C18.3334 27.556 18.4859 27.4094 18.7674 27.0986C19.0313 26.8112 19.3128 26.6294 19.6588 26.4476C19.8289 26.3596 19.9814 26.2365 20.0987 26.0781C21.2482 26.084 22.3214 26.3538 23.2657 26.9754C23.166 27.0517 22.9548 27.1396 22.644 27.0634Z" fill="#DADADA"/>
<path d="M25.8292 31.1521C25.7471 31.1227 25.6708 31.0817 25.5946 31.0406C25.4773 30.9644 25.3483 30.9175 25.2134 30.8881L24.8732 30.7181C24.3336 30.6242 24.1108 30.6946 23.5654 30.5421C23.3132 30.4659 23.0493 30.4366 22.7853 30.4424L22.7736 30.4307L22.7619 30.4424C22.5742 30.4542 22.3865 30.4776 22.1754 30.5069L22.0288 30.5245C21.9701 30.5304 21.9056 30.5421 21.8294 30.5539C21.3661 30.6301 20.5861 30.7533 20.3163 30.4483L20.2987 30.46C19.8823 30.2137 19.4131 30.0847 18.9322 30.0847C18.1815 30.0847 17.9469 29.8794 17.5188 29.5158C17.4484 29.4513 17.3663 29.3868 17.2783 29.3105C17.3194 29.3105 17.3546 29.3105 17.3956 29.3105C17.5892 29.3809 17.7944 29.4161 17.9997 29.4161C18.0407 29.4161 18.0759 29.4161 18.117 29.4102C18.2225 29.3985 18.3223 29.3516 18.3985 29.2753C18.4337 29.246 18.4689 29.2167 18.5041 29.1932C18.5862 29.1463 18.68 29.1228 18.7797 29.1287C18.8208 29.1287 18.8677 29.1228 18.9087 29.117C19.114 29.0935 19.2548 28.9762 19.3955 28.8707C19.5245 28.771 19.6477 28.6713 19.8119 28.6478C19.853 28.6419 19.894 28.6361 19.9409 28.6361C20.0524 28.6361 20.1579 28.6126 20.2576 28.5598C20.3104 28.5246 20.3573 28.4836 20.3984 28.4367C20.4453 28.378 20.5098 28.337 20.5743 28.3018C20.7913 28.2255 20.8852 28.0496 21.0025 27.8971C21.0552 27.8326 21.2957 27.7974 21.3602 27.7329C21.847 27.2285 22.2399 27.0526 22.9906 27.2403C23.3718 27.3341 23.5184 27.3517 23.6475 27.2579C24.9201 28.2021 25.7529 29.6214 25.9641 31.1873C25.9113 31.1814 25.8702 31.1697 25.8292 31.1521Z" fill="#DADADA"/>
<path d="M18.3852 36.2355C18.3794 36.2003 18.3735 36.1592 18.3735 36.124C18.3735 36.0361 18.3618 35.9539 18.3442 35.866C18.3031 35.6666 18.2445 35.6314 18.1741 35.5786C18.1155 35.5375 18.0627 35.4906 18.0216 35.432C17.9513 35.3264 17.8985 35.2033 17.8691 35.0801L17.8633 35.0625C17.9161 35.0918 17.9688 35.1211 18.0216 35.1505C18.051 35.1622 18.0803 35.1798 18.1213 35.2033C18.2738 35.2854 18.4849 35.3968 18.5905 35.3909C18.6844 35.3792 18.7665 35.3323 18.8192 35.2619C18.8662 35.215 19.0245 35.3088 19.0949 35.2912C19.218 35.2678 19.3647 35.2326 19.5523 35.3088C19.6286 35.3381 19.699 35.3675 19.7517 35.3851C19.8514 35.4144 19.9511 35.4554 20.045 35.4965C20.2033 35.5727 20.3675 35.6255 20.5435 35.6607C20.6373 35.6724 20.737 35.6783 20.8309 35.6783C21.0068 35.6666 21.1886 35.7076 21.347 35.7897C21.7164 35.9715 21.7927 35.9891 22.1974 35.9481C22.4965 35.9188 22.8835 35.8894 23.1709 35.9364C23.4465 35.9833 23.6987 36.1064 23.9451 36.2706C23.9451 36.2941 23.9802 36.3762 23.9861 36.3997C22.9656 37.3322 21.6343 37.8483 20.2561 37.8483C20.1329 37.8483 20.0157 37.8424 19.8925 37.8365C19.8397 37.7779 19.7752 37.7251 19.7107 37.6782C19.6344 37.6313 19.5523 37.5902 19.4644 37.5668C19.3471 37.5257 19.2298 37.4847 19.1653 37.4084C19.0714 37.3087 19.0832 37.1973 19.0949 37.0858C19.1066 37.0096 19.1007 36.9334 19.0773 36.863C19.0245 36.7516 18.9072 36.6812 18.7782 36.6108C18.7019 36.5697 18.6316 36.5228 18.5671 36.47C18.5025 36.4173 18.4439 36.3586 18.4028 36.2882C18.4146 36.2765 18.3852 36.2355 18.3852 36.2355Z" fill="#DADADA"/>
<path d="M16.9437 27.3333C16.9319 27.48 16.9437 27.6325 16.9671 27.7791C16.9965 27.9726 17.0199 28.1603 16.9437 28.3714L16.9378 28.3949H16.9319V28.4066C16.8322 28.6588 16.6035 29.0165 16.4921 29.1808C16.2458 29.1456 16.1285 28.9638 16.0053 28.7644C15.9349 28.6295 15.8352 28.5122 15.7238 28.4066C15.6651 28.3655 15.6065 28.3245 15.5479 28.2893C15.9701 27.7673 16.4745 27.3158 17.0492 26.9639C16.9906 27.0812 16.9554 27.2043 16.9437 27.3333Z" fill="#DADADA"/>
<path d="M24.2982 36.0604C24.2865 35.9431 24.2865 35.8199 24.2806 35.6968C24.2747 35.0517 24.2454 34.8405 23.8114 34.4769C23.4771 34.1954 23.0959 34.0605 22.9728 33.6382C22.9024 33.4037 22.9024 33.1104 22.9024 32.7996C22.9024 32.6647 22.9024 32.5239 22.8965 32.3891C22.9258 32.2542 22.9786 32.1251 23.0373 32.0078C23.1077 31.8495 23.2249 31.6853 23.2015 31.5152C23.1839 31.3686 23.2015 31.4741 23.137 31.2806C23.0842 31.1105 22.9786 31.0167 22.8555 30.917C23.0842 30.917 23.3188 30.9463 23.5416 31.0108C24.0871 31.1692 24.6032 30.9639 25.1427 31.0577L25.1955 31.0695C25.3245 31.0929 25.4477 31.1457 25.5591 31.2161C25.6354 31.263 25.7175 31.2982 25.7996 31.3334C25.8524 31.351 25.911 31.3686 25.9638 31.3803C25.9931 31.5797 26.0049 31.7791 26.0107 31.9785C26.0107 33.5151 25.4125 34.993 24.3334 36.0897L24.2982 36.0604Z" fill="#DADADA"/>
<path d="M14.8969 33.6975C14.9497 33.7151 14.9966 33.7326 15.0435 33.7502C15.2488 33.8206 15.4423 33.9145 15.6241 34.0318C15.8118 34.1608 15.9643 34.2957 16.0757 34.5009C16.193 34.7238 16.281 34.8704 16.5156 34.9936L16.5859 35.0288C16.8792 35.1812 17.0845 35.2868 17.2369 35.5801C17.3308 35.756 17.495 35.8322 17.6592 35.9026C17.7472 35.9378 17.8293 35.9847 17.9114 36.0316L17.9407 36.0551L17.9994 36.0962C18.0228 36.1783 18.0815 36.2545 18.2222 36.3777C18.2985 36.4422 18.3806 36.495 18.4685 36.5419C18.5976 36.6181 18.7207 36.6885 18.7735 36.7941C18.797 36.8644 18.8028 36.9348 18.7852 37.0052C18.7735 37.1342 18.7618 37.2808 18.8849 37.4157C18.967 37.5096 19.1078 37.5565 19.2427 37.6034C19.3365 37.6327 19.4186 37.6679 19.5007 37.7207C19.5477 37.7559 19.5946 37.7969 19.6415 37.838C17.1666 37.6269 15.0963 35.885 14.457 33.4863C14.5685 33.586 14.7444 33.6447 14.8969 33.6975Z" fill="#DADADA"/>
<path d="M15.8294 28.9164C15.9291 29.0806 16.0346 29.2448 16.2165 29.3211C16.0464 29.3504 15.9936 29.3035 15.8176 29.456C15.7238 29.5381 15.5185 29.5205 15.4364 29.6143C15.2898 29.7668 15.2546 30.0366 15.0728 30.1304C14.8793 30.2301 14.674 30.3122 14.4688 30.3768C14.6799 29.6261 14.9379 29.0689 15.4071 28.4766C15.4599 28.5059 15.5127 28.5411 15.5655 28.5821C15.671 28.6701 15.7649 28.7874 15.8294 28.9164Z" fill="#DADADA"/>
<path d="M23.2663 34.5055L23.3073 34.5407C23.6885 34.8632 23.7941 34.9512 23.8 35.5025C23.8 35.6022 23.8058 35.696 23.8117 35.7899C23.5712 35.6374 23.3249 35.5142 23.0551 35.4732C22.756 35.4262 22.3689 35.4556 22.064 35.4849C21.6769 35.5259 21.759 35.4204 21.4013 35.2386C21.1725 35.1213 20.8676 35.2151 20.7092 35.2151C20.6154 35.2151 20.5215 35.2092 20.4277 35.1975C20.2635 35.1623 20.0993 35.1095 19.9468 35.0392C19.8471 34.9981 19.894 34.916 19.7884 34.8867C19.7415 34.8691 19.5304 34.8808 19.4483 34.8515C19.243 34.7694 18.9908 34.6638 18.8442 34.6931C18.768 34.7107 18.6976 34.7577 18.6507 34.8163C18.6038 34.8808 18.5334 34.9219 18.4571 34.9336C18.3692 34.9395 18.1639 34.828 18.0231 34.7518C17.9821 34.7283 17.9469 34.7107 17.9234 34.699C17.8472 34.6638 17.7768 34.6228 17.7123 34.5758C17.7123 34.57 17.7123 34.5641 17.7064 34.5583L17.6947 34.5641C17.5364 34.4468 17.378 34.3237 17.2373 34.1829C16.944 33.9131 16.598 33.7079 16.2168 33.5906C16.4573 33.5554 16.6567 33.4439 16.8619 33.3267C17.032 33.2211 17.2197 33.1331 17.4073 33.0686C17.6419 32.9982 17.9117 32.9982 18.1698 32.9982C18.4454 32.9982 18.7269 32.9924 18.9791 32.9103C19.2372 32.8223 19.4307 32.6405 19.6184 32.4587C19.8178 32.271 20.0641 32.2417 20.3397 32.1654C20.5626 32.1068 20.8441 31.9191 21.1901 31.9015C21.6124 31.8781 22.0522 31.8487 22.3338 31.7432C22.4921 31.9426 22.539 32.2299 22.5566 32.5349C22.5566 32.5349 22.5566 32.5349 22.5566 32.5408C22.5625 32.6639 22.5625 32.7871 22.5625 32.9103C22.5625 33.1976 22.5683 33.4674 22.627 33.6785C22.7384 34.0598 22.9672 34.2592 23.2663 34.5055Z" fill="#DADADA"/>
<path d="M14.4098 33.3447C14.3042 32.9224 14.2515 32.4884 14.2515 32.0486C14.2456 31.5852 14.2925 31.1278 14.3922 30.6762C14.6092 30.6175 14.8145 30.5354 15.0198 30.4416C15.1957 30.3536 15.3306 30.3243 15.4655 30.1777C15.5417 30.0956 15.618 30.0193 15.7001 29.9431C16.0285 29.6675 16.3276 29.7026 16.6384 29.7437C16.7147 29.7554 16.7909 29.7613 16.8672 29.7672C16.9727 29.8493 17.0666 29.8141 17.1487 29.8845C17.5299 30.2129 17.7586 30.5472 18.4565 30.5472C18.9609 30.5472 19.3538 30.553 19.7526 30.7935C19.7644 30.7994 19.7761 30.8052 19.7878 30.8111C19.8934 30.8756 19.9989 30.946 20.1045 31.0222L20.1749 31.0691C20.3977 31.2275 20.6089 31.38 20.9021 31.4269C21.0018 31.4386 21.1015 31.4445 21.2071 31.4386C21.4006 31.4328 21.5648 31.4328 21.7115 31.5794C21.4417 31.6791 21.0194 31.7025 20.6089 31.726C20.2629 31.7495 19.9403 31.767 19.7116 31.8257C19.4183 31.9019 19.2072 32.1072 19.0019 32.3007C18.8084 32.4825 18.6325 32.6585 18.3861 32.7406C18.1398 32.8227 17.87 32.8227 17.6003 32.8227C17.3305 32.8227 17.0666 32.8227 16.8202 32.8989C16.6208 32.9635 16.4332 33.0514 16.2631 33.1629C16.0109 33.3095 15.7704 33.4444 15.4537 33.4268C15.3599 33.4033 15.2719 33.3857 15.1781 33.374L15.1546 33.3681V33.374C14.8966 33.3447 14.6561 33.3329 14.4098 33.3447Z" fill="#DADADA"/>
<path d="M11.496 25.7324C10.9213 25.7382 10.3465 25.7089 9.77179 25.6444C8.58711 25.5037 7.9713 25.2046 7.83641 24.706C7.61942 23.9202 8.76305 23.2574 9.64277 22.8293C12.9857 21.1989 20.3167 19.504 25.9879 19.0583C27.7415 18.9175 29.2135 18.9116 30.2516 19.0348C31.4363 19.1756 32.0521 19.4747 32.1928 19.9732C32.4098 20.7591 31.2662 21.4218 30.3865 21.8499C27.0436 23.4803 19.7126 25.1752 14.0413 25.621C13.103 25.6972 12.2467 25.7324 11.496 25.7324ZM26.0114 19.416L26.0407 19.7679C20.4398 20.2136 13.2261 21.8734 9.94773 23.4686C8.54019 24.1548 8.51086 24.5242 8.51086 24.5242C8.55778 24.6943 9.62517 25.2632 13.9768 24.9172C19.5718 24.4715 26.7914 22.8117 30.0698 21.2165C31.4773 20.5303 31.5066 20.1608 31.5066 20.1608C31.4597 19.9908 30.3923 19.4219 26.0407 19.7679L26.0114 19.416Z" fill="#DADADA"/>
<path d="M11.4658 45.0507C10.891 45.0566 10.3163 45.0273 9.74152 44.9628C8.55683 44.822 7.94103 44.5229 7.80614 44.0244C7.58914 43.2385 8.73278 42.5758 9.61249 42.1477C12.9554 40.5173 20.2864 38.8224 25.9576 38.3766C27.7112 38.2359 29.1832 38.23 30.2213 38.3532C31.406 38.4939 32.0218 38.793 32.1567 39.2915C32.3737 40.0774 31.2301 40.7401 30.3503 41.1683C27.0074 42.7987 19.6764 44.4936 14.0052 44.9393C13.0727 45.0097 12.2223 45.0507 11.4658 45.0507ZM25.9869 38.7285L26.0163 39.0804C20.4213 39.5261 13.2017 41.1859 9.92332 42.7811C8.51578 43.4673 8.48646 43.8367 8.48646 43.8367C8.53337 44.0068 9.60076 44.5757 13.9524 44.2297C19.5474 43.784 26.767 42.1242 30.0454 40.529C31.4529 39.8428 31.4822 39.4733 31.4822 39.4733C31.4353 39.3033 30.3679 38.7344 26.0163 39.0804L25.9869 38.7285Z" fill="#DADADA"/>
</g>
<path d="M58.76 25.5L56.88 27.46V31H53.66V17H56.88V23.54L63.08 17H66.68L60.88 23.24L67.02 31H63.24L58.76 25.5ZM68.0494 20.24H71.1694V31H68.0494V20.24ZM69.6094 18.74C69.036 18.74 68.5694 18.5733 68.2094 18.24C67.8494 17.9067 67.6694 17.4933 67.6694 17C67.6694 16.5067 67.8494 16.0933 68.2094 15.76C68.5694 15.4267 69.036 15.26 69.6094 15.26C70.1827 15.26 70.6494 15.42 71.0094 15.74C71.3694 16.06 71.5494 16.46 71.5494 16.94C71.5494 17.46 71.3694 17.8933 71.0094 18.24C70.6494 18.5733 70.1827 18.74 69.6094 18.74ZM80.605 20.08C81.9383 20.08 83.0117 20.48 83.825 21.28C84.6517 22.08 85.065 23.2667 85.065 24.84V31H81.945V25.32C81.945 24.4667 81.7583 23.8333 81.385 23.42C81.0117 22.9933 80.4717 22.78 79.765 22.78C78.9783 22.78 78.3517 23.0267 77.885 23.52C77.4183 24 77.185 24.72 77.185 25.68V31H74.065V20.24H77.045V21.5C77.4583 21.0467 77.9717 20.7 78.585 20.46C79.1983 20.2067 79.8717 20.08 80.605 20.08ZM94.8331 30.48C94.5265 30.7067 94.1465 30.88 93.6931 31C93.2531 31.1067 92.7865 31.16 92.2931 31.16C91.0131 31.16 90.0198 30.8333 89.3131 30.18C88.6198 29.5267 88.2731 28.5667 88.2731 27.3V22.88H86.6131V20.48H88.2731V17.86H91.3931V20.48H94.0731V22.88H91.3931V27.26C91.3931 27.7133 91.5065 28.0667 91.7331 28.32C91.9731 28.56 92.3065 28.68 92.7331 28.68C93.2265 28.68 93.6465 28.5467 93.9931 28.28L94.8331 30.48ZM100.205 31.16C99.3112 31.16 98.4379 31.0533 97.5845 30.84C96.7312 30.6133 96.0512 30.3333 95.5445 30L96.5845 27.76C97.0645 28.0667 97.6445 28.32 98.3245 28.52C99.0045 28.7067 99.6712 28.8 100.325 28.8C101.645 28.8 102.305 28.4733 102.305 27.82C102.305 27.5133 102.125 27.2933 101.765 27.16C101.405 27.0267 100.851 26.9133 100.105 26.82C99.2245 26.6867 98.4979 26.5333 97.9245 26.36C97.3512 26.1867 96.8512 25.88 96.4245 25.44C96.0112 25 95.8045 24.3733 95.8045 23.56C95.8045 22.88 95.9979 22.28 96.3845 21.76C96.7845 21.2267 97.3579 20.8133 98.1045 20.52C98.8645 20.2267 99.7579 20.08 100.785 20.08C101.545 20.08 102.298 20.1667 103.045 20.34C103.805 20.5 104.431 20.7267 104.925 21.02L103.885 23.24C102.938 22.7067 101.905 22.44 100.785 22.44C100.118 22.44 99.6179 22.5333 99.2845 22.72C98.9512 22.9067 98.7845 23.1467 98.7845 23.44C98.7845 23.7733 98.9645 24.0067 99.3245 24.14C99.6845 24.2733 100.258 24.4 101.045 24.52C101.925 24.6667 102.645 24.8267 103.205 25C103.765 25.16 104.251 25.46 104.665 25.9C105.078 26.34 105.285 26.9533 105.285 27.74C105.285 28.4067 105.085 29 104.685 29.52C104.285 30.04 103.698 30.4467 102.925 30.74C102.165 31.02 101.258 31.16 100.205 31.16ZM118.05 20.24V31H115.09V29.72C114.676 30.1867 114.183 30.5467 113.61 30.8C113.036 31.04 112.416 31.16 111.75 31.16C110.336 31.16 109.216 30.7533 108.39 29.94C107.563 29.1267 107.15 27.92 107.15 26.32V20.24H110.27V25.86C110.27 27.5933 110.996 28.46 112.45 28.46C113.196 28.46 113.796 28.22 114.25 27.74C114.703 27.2467 114.93 26.52 114.93 25.56V20.24H118.05ZM132.04 20.24V29.2C132.04 31.1733 131.527 32.64 130.5 33.6C129.473 34.56 127.973 35.04 126 35.04C124.96 35.04 123.973 34.9133 123.04 34.66C122.107 34.4067 121.333 34.04 120.72 33.56L121.96 31.32C122.413 31.6933 122.987 31.9867 123.68 32.2C124.373 32.4267 125.067 32.54 125.76 32.54C126.84 32.54 127.633 32.2933 128.14 31.8C128.66 31.32 128.92 30.5867 128.92 29.6V29.14C128.107 30.0333 126.973 30.48 125.52 30.48C124.533 30.48 123.627 30.2667 122.8 29.84C121.987 29.4 121.34 28.7867 120.86 28C120.38 27.2133 120.14 26.3067 120.14 25.28C120.14 24.2533 120.38 23.3467 120.86 22.56C121.34 21.7733 121.987 21.1667 122.8 20.74C123.627 20.3 124.533 20.08 125.52 20.08C127.08 20.08 128.267 20.5933 129.08 21.62V20.24H132.04ZM126.14 27.92C126.967 27.92 127.64 27.68 128.16 27.2C128.693 26.7067 128.96 26.0667 128.96 25.28C128.96 24.4933 128.693 23.86 128.16 23.38C127.64 22.8867 126.967 22.64 126.14 22.64C125.313 22.64 124.633 22.8867 124.1 23.38C123.567 23.86 123.3 24.4933 123.3 25.28C123.3 26.0667 123.567 26.7067 124.1 27.2C124.633 27.68 125.313 27.92 126.14 27.92ZM134.944 20.24H138.064V31H134.944V20.24ZM136.504 18.74C135.931 18.74 135.464 18.5733 135.104 18.24C134.744 17.9067 134.564 17.4933 134.564 17C134.564 16.5067 134.744 16.0933 135.104 15.76C135.464 15.4267 135.931 15.26 136.504 15.26C137.077 15.26 137.544 15.42 137.904 15.74C138.264 16.06 138.444 16.46 138.444 16.94C138.444 17.46 138.264 17.8933 137.904 18.24C137.544 18.5733 137.077 18.74 136.504 18.74Z" fill="#1E2134"/>
<path d="M59.0227 42C58.929 41.7131 58.8054 41.456 58.652 41.2287C58.5014 40.9986 58.321 40.8026 58.1108 40.6406C57.9034 40.4787 57.6676 40.3551 57.4034 40.2699C57.1392 40.1847 56.8494 40.142 56.5341 40.142C56.017 40.142 55.5469 40.2756 55.1236 40.5426C54.7003 40.8097 54.3636 41.2031 54.1136 41.723C53.8636 42.2429 53.7386 42.8807 53.7386 43.6364C53.7386 44.392 53.8651 45.0298 54.1179 45.5497C54.3707 46.0696 54.7131 46.4631 55.1449 46.7301C55.5767 46.9972 56.0625 47.1307 56.6023 47.1307C57.1023 47.1307 57.5426 47.0241 57.9233 46.8111C58.3068 46.5952 58.6051 46.2912 58.8182 45.8991C59.0341 45.5043 59.142 45.0398 59.142 44.5057L59.4659 44.5739H56.8409V43.6364H60.1648V44.5739C60.1648 45.2926 60.0114 45.9176 59.7045 46.4489C59.4006 46.9801 58.9801 47.392 58.4432 47.6847C57.9091 47.9744 57.2955 48.1193 56.6023 48.1193C55.8295 48.1193 55.1506 47.9375 54.5653 47.5739C53.983 47.2102 53.5284 46.6932 53.2017 46.0227C52.8778 45.3523 52.7159 44.5568 52.7159 43.6364C52.7159 42.946 52.8082 42.3253 52.9929 41.7741C53.1804 41.2202 53.4446 40.7486 53.7855 40.3594C54.1264 39.9702 54.5298 39.6719 54.9957 39.4645C55.4616 39.2571 55.9744 39.1534 56.5341 39.1534C56.9943 39.1534 57.4233 39.223 57.821 39.3622C58.2216 39.4986 58.5781 39.6932 58.8906 39.946C59.206 40.196 59.4688 40.4957 59.679 40.8452C59.8892 41.1918 60.0341 41.5767 60.1136 42H59.0227ZM64.4975 48.1364C63.9066 48.1364 63.3881 47.9957 62.9421 47.7145C62.4989 47.4332 62.1523 47.0398 61.9023 46.5341C61.6552 46.0284 61.5316 45.4375 61.5316 44.7614C61.5316 44.0795 61.6552 43.4844 61.9023 42.9759C62.1523 42.4673 62.4989 42.0724 62.9421 41.7912C63.3881 41.5099 63.9066 41.3693 64.4975 41.3693C65.0884 41.3693 65.6055 41.5099 66.0487 41.7912C66.4947 42.0724 66.8413 42.4673 67.0884 42.9759C67.3384 43.4844 67.4634 44.0795 67.4634 44.7614C67.4634 45.4375 67.3384 46.0284 67.0884 46.5341C66.8413 47.0398 66.4947 47.4332 66.0487 47.7145C65.6055 47.9957 65.0884 48.1364 64.4975 48.1364ZM64.4975 47.233C64.9464 47.233 65.3157 47.1179 65.6055 46.8878C65.8952 46.6577 66.1097 46.3551 66.2489 45.9801C66.3881 45.6051 66.4577 45.1989 66.4577 44.7614C66.4577 44.3239 66.3881 43.9162 66.2489 43.5384C66.1097 43.1605 65.8952 42.8551 65.6055 42.6222C65.3157 42.3892 64.9464 42.2727 64.4975 42.2727C64.0487 42.2727 63.6793 42.3892 63.3896 42.6222C63.0998 42.8551 62.8853 43.1605 62.7461 43.5384C62.6069 43.9162 62.5373 44.3239 62.5373 44.7614C62.5373 45.1989 62.6069 45.6051 62.7461 45.9801C62.8853 46.3551 63.0998 46.6577 63.3896 46.8878C63.6793 47.1179 64.0487 47.233 64.4975 47.233ZM74.1165 41.4545L71.696 48H70.6733L68.2528 41.4545H69.3438L71.1506 46.6705H71.2188L73.0256 41.4545H74.1165ZM77.9538 48.1364C77.3232 48.1364 76.7791 47.9972 76.3217 47.7188C75.8672 47.4375 75.5163 47.0455 75.2692 46.5426C75.0249 46.0369 74.9027 45.4489 74.9027 44.7784C74.9027 44.108 75.0249 43.517 75.2692 43.0057C75.5163 42.4915 75.8601 42.0909 76.3004 41.804C76.7436 41.5142 77.2607 41.3693 77.8516 41.3693C78.1925 41.3693 78.5291 41.4261 78.8615 41.5398C79.1939 41.6534 79.4964 41.8381 79.7692 42.0938C80.0419 42.3466 80.2592 42.6818 80.4212 43.0994C80.5831 43.517 80.6641 44.0312 80.6641 44.642V45.0682H75.6186V44.1989H79.6413C79.6413 43.8295 79.5675 43.5 79.4197 43.2102C79.2749 42.9205 79.0675 42.6918 78.7976 42.5241C78.5305 42.3565 78.2152 42.2727 77.8516 42.2727C77.451 42.2727 77.1044 42.3722 76.8118 42.571C76.522 42.767 76.299 43.0227 76.1428 43.3381C75.9865 43.6534 75.9084 43.9915 75.9084 44.3523V44.9318C75.9084 45.4261 75.9936 45.8452 76.1641 46.1889C76.3374 46.5298 76.5774 46.7898 76.8842 46.9688C77.1911 47.1449 77.5476 47.233 77.9538 47.233C78.218 47.233 78.4567 47.196 78.6697 47.1222C78.8857 47.0455 79.0717 46.9318 79.228 46.7812C79.3842 46.6278 79.505 46.4375 79.5902 46.2102L80.5618 46.483C80.4595 46.8125 80.2876 47.1023 80.0462 47.3523C79.8047 47.5994 79.5064 47.7926 79.1513 47.9318C78.7962 48.0682 78.397 48.1364 77.9538 48.1364ZM82.1939 48V41.4545H83.1655V42.4432H83.2337C83.353 42.1193 83.5689 41.8565 83.8814 41.6548C84.1939 41.4531 84.5462 41.3523 84.9382 41.3523C85.0121 41.3523 85.1044 41.3537 85.2152 41.3565C85.326 41.3594 85.4098 41.3636 85.4666 41.3693V42.392C85.4325 42.3835 85.3544 42.3707 85.2322 42.3537C85.1129 42.3338 84.9865 42.3239 84.853 42.3239C84.5348 42.3239 84.2507 42.3906 84.0007 42.5241C83.7536 42.6548 83.5575 42.8366 83.4126 43.0696C83.2706 43.2997 83.1996 43.5625 83.1996 43.858V48H82.1939ZM87.6644 44.0625V48H86.6587V41.4545H87.6303V42.4773H87.7156C87.869 42.1449 88.1019 41.8778 88.4144 41.6761C88.7269 41.4716 89.1303 41.3693 89.6246 41.3693C90.0678 41.3693 90.4556 41.4602 90.788 41.642C91.1204 41.821 91.3789 42.0938 91.5636 42.4602C91.7482 42.8239 91.8406 43.2841 91.8406 43.8409V48H90.8349V43.9091C90.8349 43.3949 90.7013 42.9943 90.4343 42.7074C90.1673 42.4176 89.8008 42.2727 89.3349 42.2727C89.0138 42.2727 88.7269 42.3423 88.4741 42.4815C88.2241 42.6207 88.0266 42.8239 87.8817 43.0909C87.7369 43.358 87.6644 43.6818 87.6644 44.0625ZM95.6044 48.1534C95.1896 48.1534 94.8132 48.0753 94.4751 47.919C94.1371 47.7599 93.8686 47.5312 93.6697 47.233C93.4709 46.9318 93.3714 46.5682 93.3714 46.142C93.3714 45.767 93.4453 45.4631 93.593 45.2301C93.7408 44.9943 93.9382 44.8097 94.1854 44.6761C94.4325 44.5426 94.7053 44.4432 95.0036 44.3778C95.3047 44.3097 95.6072 44.2557 95.9112 44.2159C96.3089 44.1648 96.6314 44.1264 96.8786 44.1009C97.1286 44.0724 97.3104 44.0256 97.424 43.9602C97.5405 43.8949 97.5987 43.7812 97.5987 43.6193V43.5852C97.5987 43.1648 97.4837 42.8381 97.2536 42.6051C97.0263 42.3722 96.6811 42.2557 96.218 42.2557C95.7379 42.2557 95.3615 42.3608 95.0888 42.571C94.8161 42.7812 94.6243 43.0057 94.5135 43.2443L93.5589 42.9034C93.7294 42.5057 93.9567 42.196 94.2408 41.9744C94.5277 41.75 94.8402 41.5937 95.1783 41.5057C95.5192 41.4148 95.8544 41.3693 96.1839 41.3693C96.3942 41.3693 96.6357 41.3949 96.9084 41.446C97.1839 41.4943 97.4496 41.5952 97.7053 41.7486C97.9638 41.902 98.1783 42.1335 98.3487 42.4432C98.5192 42.7528 98.6044 43.1676 98.6044 43.6875V48H97.5987V47.1136H97.5476C97.4794 47.2557 97.3658 47.4077 97.2067 47.5696C97.0476 47.7315 96.8359 47.8693 96.5717 47.983C96.3075 48.0966 95.9851 48.1534 95.6044 48.1534ZM95.7578 47.25C96.1555 47.25 96.4908 47.1719 96.7635 47.0156C97.0391 46.8594 97.2464 46.6577 97.3857 46.4105C97.5277 46.1634 97.5987 45.9034 97.5987 45.6307V44.7102C97.5561 44.7614 97.4624 44.8082 97.3175 44.8509C97.1754 44.8906 97.0107 44.9261 96.8232 44.9574C96.6385 44.9858 96.4581 45.0114 96.282 45.0341C96.1087 45.054 95.968 45.071 95.8601 45.0852C95.5987 45.1193 95.3544 45.1747 95.1271 45.2514C94.9027 45.3253 94.7209 45.4375 94.5817 45.5881C94.4453 45.7358 94.3771 45.9375 94.3771 46.1932C94.3771 46.5426 94.5064 46.8068 94.7649 46.9858C95.0263 47.1619 95.3572 47.25 95.7578 47.25ZM101.446 44.0625V48H100.44V41.4545H101.412V42.4773H101.497C101.65 42.1449 101.883 41.8778 102.196 41.6761C102.508 41.4716 102.912 41.3693 103.406 41.3693C103.849 41.3693 104.237 41.4602 104.569 41.642C104.902 41.821 105.16 42.0938 105.345 42.4602C105.529 42.8239 105.622 43.2841 105.622 43.8409V48H104.616V43.9091C104.616 43.3949 104.483 42.9943 104.216 42.7074C103.949 42.4176 103.582 42.2727 103.116 42.2727C102.795 42.2727 102.508 42.3423 102.255 42.4815C102.005 42.6207 101.808 42.8239 101.663 43.0909C101.518 43.358 101.446 43.6818 101.446 44.0625ZM110.119 48.1364C109.505 48.1364 108.977 47.9915 108.533 47.7017C108.09 47.4119 107.749 47.0128 107.511 46.5043C107.272 45.9957 107.153 45.4148 107.153 44.7614C107.153 44.0966 107.275 43.5099 107.519 43.0014C107.766 42.4901 108.11 42.0909 108.55 41.804C108.994 41.5142 109.511 41.3693 110.102 41.3693C110.562 41.3693 110.977 41.4545 111.346 41.625C111.715 41.7955 112.018 42.0341 112.254 42.3409C112.489 42.6477 112.636 43.0057 112.692 43.4148H111.687C111.61 43.1165 111.44 42.8523 111.175 42.6222C110.914 42.3892 110.562 42.2727 110.119 42.2727C109.727 42.2727 109.383 42.375 109.087 42.5795C108.795 42.7812 108.566 43.0668 108.401 43.4361C108.239 43.8026 108.158 44.233 108.158 44.7273C108.158 45.233 108.238 45.6733 108.397 46.0483C108.559 46.4233 108.786 46.7145 109.079 46.9219C109.374 47.1293 109.721 47.233 110.119 47.233C110.38 47.233 110.617 47.1875 110.83 47.0966C111.043 47.0057 111.224 46.875 111.371 46.7045C111.519 46.5341 111.624 46.3295 111.687 46.0909H112.692C112.636 46.4773 112.495 46.8253 112.271 47.1349C112.049 47.4418 111.755 47.6861 111.388 47.8679C111.025 48.0469 110.602 48.1364 110.119 48.1364ZM116.907 48.1364C116.276 48.1364 115.732 47.9972 115.275 47.7188C114.82 47.4375 114.469 47.0455 114.222 46.5426C113.978 46.0369 113.856 45.4489 113.856 44.7784C113.856 44.108 113.978 43.517 114.222 43.0057C114.469 42.4915 114.813 42.0909 115.254 41.804C115.697 41.5142 116.214 41.3693 116.805 41.3693C117.146 41.3693 117.482 41.4261 117.815 41.5398C118.147 41.6534 118.45 41.8381 118.722 42.0938C118.995 42.3466 119.212 42.6818 119.374 43.0994C119.536 43.517 119.617 44.0312 119.617 44.642V45.0682H114.572V44.1989H118.594C118.594 43.8295 118.521 43.5 118.373 43.2102C118.228 42.9205 118.021 42.6918 117.751 42.5241C117.484 42.3565 117.168 42.2727 116.805 42.2727C116.404 42.2727 116.058 42.3722 115.765 42.571C115.475 42.767 115.252 43.0227 115.096 43.3381C114.94 43.6534 114.862 43.9915 114.862 44.3523V44.9318C114.862 45.4261 114.947 45.8452 115.117 46.1889C115.29 46.5298 115.531 46.7898 115.837 46.9688C116.144 47.1449 116.501 47.233 116.907 47.233C117.171 47.233 117.41 47.196 117.623 47.1222C117.839 47.0455 118.025 46.9318 118.181 46.7812C118.337 46.6278 118.458 46.4375 118.543 46.2102L119.515 46.483C119.413 46.8125 119.241 47.1023 118.999 47.3523C118.758 47.5994 118.46 47.7926 118.104 47.9318C117.749 48.0682 117.35 48.1364 116.907 48.1364ZM124.658 48V39.2727H125.664V42.4943H125.749C125.823 42.3807 125.925 42.2358 126.056 42.0597C126.19 41.8807 126.38 41.7216 126.627 41.5824C126.877 41.4403 127.215 41.3693 127.641 41.3693C128.192 41.3693 128.678 41.5071 129.099 41.7827C129.519 42.0582 129.847 42.4489 130.083 42.9545C130.319 43.4602 130.437 44.0568 130.437 44.7443C130.437 45.4375 130.319 46.0384 130.083 46.5469C129.847 47.0526 129.521 47.4446 129.103 47.723C128.685 47.9986 128.204 48.1364 127.658 48.1364C127.238 48.1364 126.901 48.0668 126.648 47.9276C126.396 47.7855 126.201 47.625 126.065 47.446C125.928 47.2642 125.823 47.1136 125.749 46.9943H125.63V48H124.658ZM125.647 44.7273C125.647 45.2216 125.719 45.6577 125.864 46.0355C126.009 46.4105 126.221 46.7045 126.499 46.9176C126.778 47.1278 127.119 47.233 127.522 47.233C127.942 47.233 128.293 47.1222 128.575 46.9006C128.859 46.6761 129.072 46.375 129.214 45.9972C129.359 45.6165 129.431 45.1932 129.431 44.7273C129.431 44.267 129.36 43.8523 129.218 43.483C129.079 43.1108 128.867 42.8168 128.583 42.6009C128.302 42.3821 127.948 42.2727 127.522 42.2727C127.113 42.2727 126.769 42.3764 126.491 42.5838C126.212 42.7884 126.002 43.0753 125.86 43.4446C125.718 43.8111 125.647 44.2386 125.647 44.7273ZM132.388 50.4545C132.218 50.4545 132.066 50.4403 131.933 50.4119C131.799 50.3864 131.707 50.3608 131.656 50.3352L131.911 49.4489C132.156 49.5114 132.371 49.5341 132.559 49.517C132.746 49.5 132.913 49.4162 133.058 49.2656C133.205 49.1179 133.34 48.8778 133.462 48.5455L133.65 48.0341L131.229 41.4545H132.32L134.127 46.6705H134.195L136.002 41.4545H137.093L134.315 48.9545C134.19 49.2926 134.035 49.5724 133.85 49.794C133.665 50.0185 133.451 50.1847 133.207 50.2926C132.965 50.4006 132.692 50.4545 132.388 50.4545ZM146.705 41.4545C146.653 41.0227 146.446 40.6875 146.082 40.4489C145.719 40.2102 145.273 40.0909 144.744 40.0909C144.358 40.0909 144.02 40.1534 143.73 40.2784C143.443 40.4034 143.219 40.5753 143.057 40.794C142.898 41.0128 142.818 41.2614 142.818 41.5398C142.818 41.7727 142.874 41.973 142.984 42.1406C143.098 42.3054 143.243 42.4432 143.419 42.554C143.595 42.6619 143.78 42.7514 143.973 42.8224C144.166 42.8906 144.344 42.946 144.506 42.9886L145.392 43.2273C145.619 43.2869 145.872 43.3693 146.151 43.4744C146.432 43.5795 146.7 43.723 146.956 43.9048C147.214 44.0838 147.428 44.3139 147.595 44.5952C147.763 44.8764 147.847 45.2216 147.847 45.6307C147.847 46.1023 147.723 46.5284 147.476 46.9091C147.232 47.2898 146.874 47.5923 146.402 47.8168C145.933 48.0412 145.364 48.1534 144.693 48.1534C144.068 48.1534 143.527 48.0526 143.07 47.8509C142.615 47.6491 142.257 47.3679 141.996 47.0071C141.737 46.6463 141.591 46.2273 141.557 45.75H142.648C142.676 46.0795 142.787 46.3523 142.98 46.5682C143.176 46.7812 143.423 46.9403 143.722 47.0455C144.023 47.1477 144.347 47.1989 144.693 47.1989C145.097 47.1989 145.459 47.1335 145.78 47.0028C146.101 46.8693 146.355 46.6847 146.543 46.4489C146.73 46.2102 146.824 45.9318 146.824 45.6136C146.824 45.3239 146.743 45.0881 146.581 44.9062C146.419 44.7244 146.206 44.5767 145.942 44.4631C145.678 44.3494 145.392 44.25 145.085 44.1648L144.011 43.858C143.33 43.6619 142.79 43.3821 142.392 43.0185C141.994 42.6548 141.795 42.179 141.795 41.5909C141.795 41.1023 141.928 40.6761 142.192 40.3125C142.459 39.946 142.817 39.6619 143.266 39.4602C143.717 39.2557 144.222 39.1534 144.778 39.1534C145.341 39.1534 145.841 39.2543 146.278 39.456C146.716 39.6548 147.063 39.9276 147.318 40.2741C147.577 40.6207 147.713 41.0142 147.727 41.4545H146.705ZM153.573 45.3239V41.4545H154.578V48H153.573V46.892H153.505C153.351 47.2244 153.113 47.5071 152.789 47.7401C152.465 47.9702 152.056 48.0852 151.561 48.0852C151.152 48.0852 150.789 47.9957 150.471 47.8168C150.152 47.6349 149.902 47.3622 149.721 46.9986C149.539 46.6321 149.448 46.1705 149.448 45.6136V41.4545H150.453V45.5455C150.453 46.0227 150.587 46.4034 150.854 46.6875C151.124 46.9716 151.468 47.1136 151.885 47.1136C152.135 47.1136 152.39 47.0497 152.648 46.9219C152.909 46.794 153.128 46.598 153.304 46.3338C153.483 46.0696 153.573 45.733 153.573 45.3239ZM156.557 48V39.2727H157.562V42.4943H157.648C157.722 42.3807 157.824 42.2358 157.955 42.0597C158.088 41.8807 158.278 41.7216 158.526 41.5824C158.776 41.4403 159.114 41.3693 159.54 41.3693C160.091 41.3693 160.577 41.5071 160.997 41.7827C161.418 42.0582 161.746 42.4489 161.982 42.9545C162.217 43.4602 162.335 44.0568 162.335 44.7443C162.335 45.4375 162.217 46.0384 161.982 46.5469C161.746 47.0526 161.419 47.4446 161.001 47.723C160.584 47.9986 160.102 48.1364 159.557 48.1364C159.136 48.1364 158.8 48.0668 158.547 47.9276C158.294 47.7855 158.099 47.625 157.963 47.446C157.827 47.2642 157.722 47.1136 157.648 46.9943H157.528V48H156.557ZM157.545 44.7273C157.545 45.2216 157.618 45.6577 157.763 46.0355C157.908 46.4105 158.119 46.7045 158.398 46.9176C158.676 47.1278 159.017 47.233 159.42 47.233C159.841 47.233 160.192 47.1222 160.473 46.9006C160.757 46.6761 160.97 46.375 161.112 45.9972C161.257 45.6165 161.33 45.1932 161.33 44.7273C161.33 44.267 161.259 43.8523 161.116 43.483C160.977 43.1108 160.766 42.8168 160.482 42.6009C160.2 42.3821 159.847 42.2727 159.42 42.2727C159.011 42.2727 158.668 42.3764 158.389 42.5838C158.111 42.7884 157.901 43.0753 157.759 43.4446C157.616 43.8111 157.545 44.2386 157.545 44.7273ZM168.783 41.4545C168.732 41.0227 168.524 40.6875 168.161 40.4489C167.797 40.2102 167.351 40.0909 166.822 40.0909C166.436 40.0909 166.098 40.1534 165.808 40.2784C165.521 40.4034 165.297 40.5753 165.135 40.794C164.976 41.0128 164.896 41.2614 164.896 41.5398C164.896 41.7727 164.952 41.973 165.062 42.1406C165.176 42.3054 165.321 42.4432 165.497 42.554C165.673 42.6619 165.858 42.7514 166.051 42.8224C166.244 42.8906 166.422 42.946 166.584 42.9886L167.47 43.2273C167.697 43.2869 167.95 43.3693 168.229 43.4744C168.51 43.5795 168.778 43.723 169.034 43.9048C169.293 44.0838 169.506 44.3139 169.673 44.5952C169.841 44.8764 169.925 45.2216 169.925 45.6307C169.925 46.1023 169.801 46.5284 169.554 46.9091C169.31 47.2898 168.952 47.5923 168.48 47.8168C168.011 48.0412 167.442 48.1534 166.771 48.1534C166.146 48.1534 165.605 48.0526 165.148 47.8509C164.693 47.6491 164.335 47.3679 164.074 47.0071C163.815 46.6463 163.669 46.2273 163.635 45.75H164.726C164.754 46.0795 164.865 46.3523 165.058 46.5682C165.254 46.7812 165.501 46.9403 165.8 47.0455C166.101 47.1477 166.425 47.1989 166.771 47.1989C167.175 47.1989 167.537 47.1335 167.858 47.0028C168.179 46.8693 168.433 46.6847 168.621 46.4489C168.808 46.2102 168.902 45.9318 168.902 45.6136C168.902 45.3239 168.821 45.0881 168.659 44.9062C168.497 44.7244 168.284 44.5767 168.02 44.4631C167.756 44.3494 167.47 44.25 167.163 44.1648L166.089 43.858C165.408 43.6619 164.868 43.3821 164.47 43.0185C164.072 42.6548 163.874 42.179 163.874 41.5909C163.874 41.1023 164.006 40.6761 164.27 40.3125C164.537 39.946 164.895 39.6619 165.344 39.4602C165.795 39.2557 166.3 39.1534 166.857 39.1534C167.419 39.1534 167.919 39.2543 168.357 39.456C168.794 39.6548 169.141 39.9276 169.396 40.2741C169.655 40.6207 169.791 41.0142 169.805 41.4545H168.783ZM175.992 50.4545V46.9943H175.907C175.833 47.1136 175.728 47.2642 175.591 47.446C175.455 47.625 175.26 47.7855 175.007 47.9276C174.755 48.0668 174.418 48.1364 173.998 48.1364C173.452 48.1364 172.971 47.9986 172.553 47.723C172.135 47.4446 171.809 47.0526 171.573 46.5469C171.337 46.0384 171.219 45.4375 171.219 44.7443C171.219 44.0568 171.337 43.4602 171.573 42.9545C171.809 42.4489 172.137 42.0582 172.557 41.7827C172.978 41.5071 173.463 41.3693 174.015 41.3693C174.441 41.3693 174.777 41.4403 175.025 41.5824C175.275 41.7216 175.465 41.8807 175.596 42.0597C175.729 42.2358 175.833 42.3807 175.907 42.4943H176.026V41.4545H176.998V50.4545H175.992ZM174.134 47.233C174.537 47.233 174.878 47.1278 175.157 46.9176C175.435 46.7045 175.647 46.4105 175.792 46.0355C175.936 45.6577 176.009 45.2216 176.009 44.7273C176.009 44.2386 175.938 43.8111 175.796 43.4446C175.654 43.0753 175.444 42.7884 175.165 42.5838C174.887 42.3764 174.543 42.2727 174.134 42.2727C173.708 42.2727 173.353 42.3821 173.069 42.6009C172.787 42.8168 172.576 43.1108 172.434 43.483C172.294 43.8523 172.225 44.267 172.225 44.7273C172.225 45.1932 172.296 45.6165 172.438 45.9972C172.583 46.375 172.796 46.6761 173.077 46.9006C173.361 47.1222 173.713 47.233 174.134 47.233ZM182.963 45.3239V41.4545H183.969V48H182.963V46.892H182.895C182.742 47.2244 182.503 47.5071 182.179 47.7401C181.855 47.9702 181.446 48.0852 180.952 48.0852C180.543 48.0852 180.179 47.9957 179.861 47.8168C179.543 47.6349 179.293 47.3622 179.111 46.9986C178.929 46.6321 178.838 46.1705 178.838 45.6136V41.4545H179.844V45.5455C179.844 46.0227 179.978 46.4034 180.245 46.6875C180.515 46.9716 180.858 47.1136 181.276 47.1136C181.526 47.1136 181.78 47.0497 182.039 46.9219C182.3 46.794 182.519 46.598 182.695 46.3338C182.874 46.0696 182.963 45.733 182.963 45.3239ZM187.737 48.1534C187.322 48.1534 186.946 48.0753 186.608 47.919C186.27 47.7599 186.001 47.5312 185.803 47.233C185.604 46.9318 185.504 46.5682 185.504 46.142C185.504 45.767 185.578 45.4631 185.726 45.2301C185.874 44.9943 186.071 44.8097 186.318 44.6761C186.565 44.5426 186.838 44.4432 187.136 44.3778C187.438 44.3097 187.74 44.2557 188.044 44.2159C188.442 44.1648 188.764 44.1264 189.011 44.1009C189.261 44.0724 189.443 44.0256 189.557 43.9602C189.673 43.8949 189.732 43.7812 189.732 43.6193V43.5852C189.732 43.1648 189.616 42.8381 189.386 42.6051C189.159 42.3722 188.814 42.2557 188.351 42.2557C187.871 42.2557 187.494 42.3608 187.222 42.571C186.949 42.7812 186.757 43.0057 186.646 43.2443L185.692 42.9034C185.862 42.5057 186.089 42.196 186.374 41.9744C186.661 41.75 186.973 41.5937 187.311 41.5057C187.652 41.4148 187.987 41.3693 188.317 41.3693C188.527 41.3693 188.768 41.3949 189.041 41.446C189.317 41.4943 189.582 41.5952 189.838 41.7486C190.097 41.902 190.311 42.1335 190.482 42.4432C190.652 42.7528 190.737 43.1676 190.737 43.6875V48H189.732V47.1136H189.68C189.612 47.2557 189.499 47.4077 189.339 47.5696C189.18 47.7315 188.969 47.8693 188.705 47.983C188.44 48.0966 188.118 48.1534 187.737 48.1534ZM187.891 47.25C188.288 47.25 188.624 47.1719 188.896 47.0156C189.172 46.8594 189.379 46.6577 189.518 46.4105C189.661 46.1634 189.732 45.9034 189.732 45.6307V44.7102C189.689 44.7614 189.595 44.8082 189.45 44.8509C189.308 44.8906 189.143 44.9261 188.956 44.9574C188.771 44.9858 188.591 45.0114 188.415 45.0341C188.241 45.054 188.101 45.071 187.993 45.0852C187.732 45.1193 187.487 45.1747 187.26 45.2514C187.036 45.3253 186.854 45.4375 186.714 45.5881C186.578 45.7358 186.51 45.9375 186.51 46.1932C186.51 46.5426 186.639 46.8068 186.898 46.9858C187.159 47.1619 187.49 47.25 187.891 47.25ZM192.573 48V41.4545H193.544V42.4432H193.613C193.732 42.1193 193.948 41.8565 194.26 41.6548C194.573 41.4531 194.925 41.3523 195.317 41.3523C195.391 41.3523 195.483 41.3537 195.594 41.3565C195.705 41.3594 195.789 41.3636 195.846 41.3693V42.392C195.811 42.3835 195.733 42.3707 195.611 42.3537C195.492 42.3338 195.365 42.3239 195.232 42.3239C194.914 42.3239 194.63 42.3906 194.38 42.5241C194.132 42.6548 193.936 42.8366 193.792 43.0696C193.65 43.2997 193.578 43.5625 193.578 43.858V48H192.573ZM199.583 48.1364C198.952 48.1364 198.408 47.9972 197.951 47.7188C197.496 47.4375 197.145 47.0455 196.898 46.5426C196.654 46.0369 196.532 45.4489 196.532 44.7784C196.532 44.108 196.654 43.517 196.898 43.0057C197.145 42.4915 197.489 42.0909 197.929 41.804C198.373 41.5142 198.89 41.3693 199.48 41.3693C199.821 41.3693 200.158 41.4261 200.49 41.5398C200.823 41.6534 201.125 41.8381 201.398 42.0938C201.671 42.3466 201.888 42.6818 202.05 43.0994C202.212 43.517 202.293 44.0312 202.293 44.642V45.0682H197.248V44.1989H201.27C201.27 43.8295 201.196 43.5 201.049 43.2102C200.904 42.9205 200.696 42.6918 200.426 42.5241C200.159 42.3565 199.844 42.2727 199.48 42.2727C199.08 42.2727 198.733 42.3722 198.441 42.571C198.151 42.767 197.928 43.0227 197.772 43.3381C197.615 43.6534 197.537 43.9915 197.537 44.3523V44.9318C197.537 45.4261 197.623 45.8452 197.793 46.1889C197.966 46.5298 198.206 46.7898 198.513 46.9688C198.82 47.1449 199.176 47.233 199.583 47.233C199.847 47.233 200.086 47.196 200.299 47.1222C200.515 47.0455 200.701 46.9318 200.857 46.7812C201.013 46.6278 201.134 46.4375 201.219 46.2102L202.191 46.483C202.088 46.8125 201.917 47.1023 201.675 47.3523C201.434 47.5994 201.135 47.7926 200.78 47.9318C200.425 48.0682 200.026 48.1364 199.583 48.1364Z" fill="#9DA9BB"/>
<defs>
<linearGradient id="paint0_linear_13399_66168" x1="20.1455" y1="37.8502" x2="20.1455" y2="26.0931" gradientUnits="userSpaceOnUse">
<stop stop-color="#603211"/>
<stop offset="0.17" stop-color="#DD7D26"/>
<stop offset="0.35" stop-color="#603211"/>
<stop offset="0.54" stop-color="#9C3520"/>
<stop offset="0.77" stop-color="#DD7D26"/>
<stop offset="1" stop-color="#603211"/>
</linearGradient>
<clipPath id="clip0_13399_66168">
<rect width="40" height="40" fill="white" transform="translate(0 12)"/>
</clipPath>
</defs>
</svg>
