<svg width="251" height="64" viewBox="0 0 251 64" fill="none" xmlns="http://www.w3.org/2000/svg">
<path d="M22.7525 25.1685C21.2388 23.6795 19.1979 22.8466 17.0728 22.8506C17.0453 22.8506 17.0161 22.8506 16.9877 22.8506C14.8455 22.8798 12.8015 23.7525 11.3008 25.2789C9.80005 26.8052 8.96402 28.8615 8.97471 31.0002C8.9854 33.1389 9.84193 35.1868 11.3579 36.6982C12.8738 38.2095 14.9264 39.0618 17.0688 39.0697H17.1498C18.7567 39.0541 20.3228 38.563 21.6501 37.6587C22.9774 36.7544 24.0062 35.4774 24.6063 33.9892C25.2064 32.5011 25.3509 30.8687 25.0215 29.2986C24.6921 27.7285 23.9035 26.2912 22.7557 25.1685H22.7525Z" fill="url(#paint0_linear_7032_48118)"/>
<path d="M20.5346 24.1884C19.5823 23.9498 18.8172 24.1439 18.1956 24.7815C18.1192 24.8622 18.0472 24.947 17.98 25.0355C17.818 25.2402 17.6802 25.4174 17.3657 25.4902C16.9416 25.575 16.5068 25.593 16.0771 25.5436C15.9547 25.5258 15.8518 25.5023 15.761 25.4821C15.4409 25.4085 15.2472 25.3648 14.8639 25.7289C14.7441 25.8501 14.6356 25.982 14.5397 26.1229C14.3695 26.3567 14.209 26.5776 13.9448 26.6787C13.8231 26.7243 13.6953 26.7515 13.5655 26.7596C13.5536 26.7551 13.542 26.75 13.5307 26.7442L13.5226 26.762C13.3363 26.7663 13.15 26.7541 12.9658 26.7256C12.8205 26.7043 12.6741 26.6916 12.5273 26.6876C12.7269 26.398 12.9012 26.0918 13.0485 25.7725C13.3167 25.7313 13.5453 25.5557 13.7665 25.3842C13.8831 25.2878 14.0072 25.201 14.1377 25.1245C14.581 24.8818 14.7958 24.6755 15.1808 24.2548C15.5455 23.8551 15.9369 23.6075 16.4126 23.3567C16.6503 23.2358 16.8569 23.062 17.0164 22.8486C18.6025 22.8592 20.0872 23.2297 21.3928 24.0897C21.2559 24.1763 20.9633 24.296 20.5346 24.1884Z" fill="#DADADA"/>
<path d="M24.9335 29.8298C24.8212 29.787 24.7127 29.7348 24.6093 29.6736C24.4482 29.5718 24.2696 29.5008 24.0825 29.4641L23.6084 29.2319C22.8612 29.1033 22.5548 29.2004 21.8003 28.9892C21.4506 28.8854 21.0861 28.8403 20.7216 28.8557L20.703 28.8403L20.6892 28.8565C20.4307 28.8686 20.1705 28.9042 19.8787 28.9455L19.6786 28.973C19.5975 28.9835 19.5067 28.9981 19.4038 29.0143C18.7603 29.1162 17.684 29.2861 17.3104 28.8678L17.2894 28.8864C16.7167 28.5495 16.0641 28.3719 15.3994 28.3719C14.3636 28.3719 14.0386 28.092 13.4478 27.5847C13.3473 27.4981 13.2355 27.4026 13.1123 27.3015C13.1658 27.3015 13.2193 27.3015 13.2744 27.3015C13.543 27.3954 13.8254 27.4441 14.11 27.4455C14.1641 27.4458 14.2182 27.4431 14.2721 27.4374C14.42 27.4215 14.5579 27.3552 14.6627 27.2497C14.7093 27.2091 14.7583 27.1712 14.8094 27.1365C14.9242 27.0691 15.0565 27.037 15.1895 27.0442C15.247 27.0442 15.307 27.0394 15.3718 27.0313C15.6531 26.9965 15.8508 26.8395 16.0413 26.6882C16.2196 26.5475 16.3865 26.414 16.6151 26.3768C16.6718 26.3679 16.7293 26.3638 16.7893 26.359C16.9405 26.3592 17.0895 26.3232 17.2237 26.2538C17.2961 26.2064 17.3625 26.1504 17.4215 26.0871C17.489 26.0095 17.5717 25.9464 17.6646 25.9018C17.9645 25.7991 18.0974 25.5523 18.2587 25.3468C18.33 25.2562 18.6639 25.2085 18.7538 25.1163C19.4289 24.4229 19.9695 24.177 21.0036 24.4375C21.5304 24.5693 21.733 24.5944 21.9097 24.4658C22.7787 25.1105 23.5097 25.9222 24.0599 26.8531C24.6101 27.784 24.9683 28.8153 25.1134 29.8864C25.0522 29.8717 24.9921 29.8528 24.9335 29.8298Z" fill="#DADADA"/>
<path d="M14.6564 36.8401C14.6465 36.7895 14.6416 36.738 14.6418 36.6864C14.6398 36.5673 14.6265 36.4487 14.6021 36.3321C14.5462 36.0602 14.4684 36.0084 14.3703 35.9381C14.288 35.885 14.2169 35.8163 14.1612 35.7358C14.0638 35.587 13.9923 35.4229 13.9497 35.2504L13.9424 35.2285C14.0129 35.2714 14.085 35.3094 14.1628 35.3515C14.1993 35.3693 14.2439 35.3952 14.3006 35.4243C14.5105 35.5384 14.799 35.6953 14.949 35.6824C15.0747 35.6643 15.1888 35.5993 15.2683 35.5004C15.3364 35.4332 15.556 35.5618 15.65 35.5449C15.8226 35.5133 16.0228 35.4639 16.2821 35.5699C16.3916 35.6144 16.4864 35.6508 16.5585 35.6751C16.6939 35.718 16.8316 35.7754 16.9637 35.8313C17.1825 35.9338 17.413 36.009 17.6502 36.0554C17.7821 36.0731 17.9151 36.0809 18.0481 36.0788C18.2949 36.0646 18.5409 36.1168 18.7605 36.2301C19.2687 36.4825 19.3781 36.5036 19.9324 36.4486C20.3482 36.4081 20.8766 36.3677 21.2794 36.434C21.6603 36.4947 22.0088 36.6719 22.3484 36.8935C22.3484 36.9267 22.3994 37.0424 22.4027 37.0756C20.9964 38.364 19.1561 39.077 17.2474 39.0731C17.0796 39.0731 16.9135 39.0667 16.749 39.0561C16.6734 38.9749 16.5901 38.9011 16.5002 38.8361C16.3931 38.7696 16.2779 38.7174 16.1573 38.6807C15.9993 38.6241 15.8332 38.5659 15.7456 38.4655C15.6192 38.3264 15.633 38.171 15.6459 38.0206C15.6655 37.919 15.6568 37.8141 15.6208 37.7172C15.5463 37.5642 15.3834 37.4696 15.2107 37.3693C15.108 37.3146 15.0109 37.2501 14.9206 37.1767C14.8305 37.1069 14.7532 37.022 14.692 36.9259C14.6977 36.8992 14.6564 36.8401 14.6564 36.8401Z" fill="#DADADA"/>
<path d="M12.6556 24.5582C12.6416 24.7643 12.6527 24.9713 12.6888 25.1747C12.7261 25.4441 12.761 25.699 12.658 25.9894L12.6475 26.0186H12.6378V26.0388C12.5016 26.3875 12.1815 26.8802 12.0307 27.1043C11.6871 27.0582 11.5275 26.8033 11.3597 26.5331C11.2588 26.3489 11.1273 26.1831 10.9707 26.0428C10.8936 25.9831 10.8124 25.929 10.7275 25.881C11.3099 25.1576 12.0119 24.539 12.8031 24.0518C12.7256 24.2111 12.6758 24.3823 12.6556 24.5582Z" fill="#DADADA"/>
<path d="M22.821 36.6005C22.8089 36.4346 22.8008 36.268 22.7992 36.0981C22.7902 35.2081 22.7481 34.9161 22.1508 34.4161C21.6913 34.0301 21.1612 33.8384 20.9919 33.2624C20.8987 32.9387 20.8962 32.5342 20.8938 32.1062C20.8938 31.9177 20.8938 31.7276 20.8824 31.5399C20.9267 31.3563 20.9928 31.1786 21.0794 31.0108C21.1799 30.7931 21.342 30.5666 21.3079 30.3287C21.2796 30.1289 21.3079 30.2721 21.2212 30.0051C21.145 29.7697 21.0024 29.6386 20.833 29.5011C21.1528 29.4987 21.4712 29.5434 21.778 29.6338C22.5349 29.8498 23.2433 29.5674 23.9938 29.6969L24.0691 29.7098C24.2462 29.7447 24.4152 29.8122 24.5676 29.9088C24.674 29.9717 24.7854 30.0258 24.9006 30.0706C24.9755 30.0968 25.0521 30.1173 25.13 30.1321C25.1704 30.4067 25.1907 30.6839 25.1908 30.9614C25.1933 33.0833 24.3603 35.1211 22.8713 36.6353L22.821 36.6005Z" fill="#DADADA"/>
<path d="M9.82866 33.3364C9.89917 33.3606 9.96806 33.3841 10.0313 33.4084C10.3139 33.5037 10.5832 33.6344 10.8328 33.7975C11.0962 33.9779 11.3021 34.1575 11.4528 34.4448C11.6149 34.7522 11.7356 34.9512 12.0623 35.1227L12.1595 35.1729C12.5607 35.3808 12.85 35.5313 13.0599 35.9366C13.1872 36.1794 13.4181 36.2837 13.641 36.3816C13.7627 36.4306 13.8794 36.491 13.9895 36.562L14.0341 36.592L14.1151 36.6462C14.15 36.7562 14.2294 36.8606 14.4247 37.0313C14.5291 37.1169 14.6418 37.192 14.7611 37.2554C14.9402 37.3598 15.1096 37.4585 15.1809 37.6033C15.2126 37.6968 15.2193 37.7969 15.2003 37.8937C15.1841 38.0709 15.1663 38.2724 15.334 38.4601C15.4499 38.5871 15.642 38.6559 15.8276 38.7222C15.9538 38.7605 16.0745 38.8148 16.1866 38.884C16.2541 38.9335 16.318 38.9875 16.3779 39.0458C14.71 38.9039 13.1266 38.2515 11.8441 37.1776C10.5615 36.1037 9.64226 34.6608 9.21191 33.0459C9.3813 33.1818 9.61714 33.2635 9.82866 33.3364Z" fill="#DADADA"/>
<path d="M11.1229 26.7428C11.2623 26.9653 11.4058 27.1943 11.6586 27.3011C11.4268 27.3415 11.3523 27.2776 11.1083 27.4847C10.9787 27.5947 10.6983 27.5761 10.5807 27.7007C10.3806 27.9135 10.3327 28.2816 10.0799 28.4135C9.81117 28.5486 9.53201 28.662 9.24512 28.7525C9.53688 27.7201 9.89348 26.9491 10.5418 26.1279C10.6178 26.1712 10.6901 26.2204 10.7582 26.2752C10.9051 26.4096 11.0284 26.5677 11.1229 26.7428Z" fill="#DADADA"/>
<path d="M21.3957 34.4583L21.4492 34.5037C21.9776 34.947 22.1202 35.07 22.1275 35.8321C22.1275 35.9664 22.134 36.0983 22.1429 36.2285C21.8114 36.0206 21.4662 35.8491 21.0942 35.7892C20.6817 35.7237 20.1468 35.7625 19.7262 35.8038C19.188 35.8572 19.3031 35.7132 18.8095 35.4672C18.4943 35.3054 18.0737 35.4349 17.8508 35.4332C17.7215 35.4358 17.5923 35.4282 17.4642 35.4106C17.2338 35.3649 17.0099 35.2916 16.7972 35.1922C16.6627 35.1355 16.721 35.0239 16.5816 34.9802C16.5127 34.9583 16.2218 34.9737 16.1132 34.93C15.8295 34.8159 15.477 34.6727 15.2817 34.7083C15.1761 34.7348 15.0818 34.7943 15.0126 34.8782C14.9469 34.9645 14.8506 35.0224 14.7435 35.0401C14.6211 35.0498 14.3383 34.8952 14.1446 34.7925C14.0895 34.7625 14.0409 34.7358 14.0036 34.7172C13.9017 34.6663 13.8032 34.6091 13.7086 34.5457C13.7086 34.5384 13.7045 34.5312 13.7021 34.5239L13.6859 34.5295C13.4631 34.371 13.2521 34.1966 13.0545 34.0077C12.6521 33.6318 12.1698 33.3516 11.6436 33.1881C11.9742 33.1428 12.2506 32.9851 12.535 32.8208C12.7719 32.672 13.0261 32.5527 13.292 32.4656C13.6162 32.371 13.9866 32.3686 14.3456 32.3669C14.7249 32.3669 15.1171 32.3621 15.46 32.2488C15.8166 32.1307 16.0848 31.8742 16.345 31.6259C16.6189 31.3637 16.9585 31.3241 17.3443 31.2213C17.6522 31.1404 18.0429 30.8823 18.5153 30.854C19.1021 30.8184 19.7075 30.7812 20.0933 30.6348C20.3137 30.9115 20.3794 31.3039 20.4005 31.7229C20.4005 31.7229 20.4005 31.7229 20.4005 31.7278C20.4086 31.8961 20.4102 32.0684 20.411 32.2391C20.411 32.6323 20.4158 33.0037 20.5026 33.3014C20.6638 33.8443 20.9872 34.1153 21.3957 34.4583Z" fill="#DADADA"/>
<path d="M9.16152 32.8507C9.01429 32.2664 8.93998 31.6661 8.94027 31.0635C8.93122 30.4267 8.99733 29.791 9.13721 29.1695C9.43423 29.0851 9.72396 28.9768 10.0036 28.8459C10.2467 28.7213 10.4339 28.6801 10.6187 28.4835C10.7206 28.3696 10.8288 28.2616 10.9429 28.1599C11.3943 27.7772 11.806 27.8298 12.2396 27.8856C12.3433 27.8985 12.4487 27.9115 12.5557 27.9188C12.6999 28.0344 12.828 27.9827 12.9406 28.0806C13.4691 28.5344 13.7843 28.998 14.7471 28.998C15.4457 28.998 15.9895 29.0045 16.5415 29.3362C16.5561 29.3451 16.5706 29.3548 16.5869 29.3629C16.7303 29.4511 16.8754 29.5474 17.0237 29.6526L17.1185 29.7197C17.4273 29.9406 17.719 30.1485 18.1243 30.214C18.2625 30.2329 18.4022 30.2391 18.5417 30.2326C18.8075 30.227 19.0393 30.2221 19.2403 30.4276C18.865 30.5619 18.2807 30.5975 17.7142 30.6315C17.2376 30.6606 16.787 30.6873 16.4718 30.7707C16.0665 30.8775 15.774 31.1558 15.4919 31.4252C15.2269 31.6784 14.9773 31.9179 14.6377 32.0295C14.2981 32.1412 13.9213 32.1412 13.5485 32.1436C13.1757 32.1461 12.811 32.1436 12.4738 32.2456C12.2018 32.3342 11.9418 32.4562 11.6998 32.6088C11.353 32.8087 11.0199 32.9988 10.5839 32.9745C10.458 32.9454 10.3315 32.9219 10.2046 32.9041L10.1689 32.8936V32.8985C9.83485 32.8566 9.49805 32.8407 9.16152 32.8507Z" fill="#DADADA"/>
<path d="M5.12708 22.3546C4.33176 22.3611 3.53674 22.3216 2.74598 22.2365C1.10644 22.0439 0.25547 21.6338 0.0674463 20.9461C-0.228367 19.8619 1.35039 18.9509 2.56444 18.3571C7.184 16.1079 17.3146 13.7738 25.1492 13.1533C27.5716 12.9615 29.6067 12.9494 31.0428 13.1185C32.6823 13.311 33.5333 13.7212 33.7213 14.413C34.0171 15.4963 32.4384 16.4073 31.2243 16.9979C26.6048 19.2471 16.4742 21.5812 8.63956 22.2017C7.34771 22.3037 6.16688 22.3546 5.12708 22.3546ZM25.1881 13.6403L25.2262 14.1258C17.4929 14.7374 7.5179 17.0286 2.99074 19.2333C1.04566 20.1815 1.00433 20.6896 1.00595 20.6896C1.06997 20.9258 2.5458 21.7106 8.56257 21.2341C16.2959 20.6216 26.2709 18.3304 30.798 16.1257C32.7431 15.1775 32.7844 14.6694 32.7828 14.6694C32.718 14.4332 31.243 13.6484 25.2262 14.1258L25.1881 13.6403Z" fill="#DADADA"/>
<path d="M5.09177 48.9992C4.29646 49.0056 3.50143 48.9662 2.71068 48.881C1.07114 48.6885 0.220168 48.2783 0.0361963 47.5866C-0.259617 46.5032 1.31914 45.5922 2.53319 45.0016C7.15274 42.7525 17.2834 40.4184 25.118 39.7978C27.5404 39.6061 29.5754 39.5939 31.0115 39.763C32.6511 39.9556 33.502 40.3658 33.686 41.0575C33.9818 42.1408 32.4031 43.0518 31.189 43.6465C26.5695 45.8956 16.4389 48.2297 8.60426 48.8503C7.31322 48.9482 6.13158 48.9992 5.09177 48.9992ZM25.1528 40.2849L25.1909 40.7703C17.4576 41.3827 7.4826 43.674 2.95543 45.8786C1.01036 46.8269 0.969025 47.3349 0.970646 47.3349C1.03467 47.5712 2.50644 48.356 8.52727 47.8786C16.2606 47.267 26.2356 44.9757 30.7627 42.7711C32.7078 41.8229 32.7491 41.3148 32.7475 41.3148C32.6827 41.0785 31.2077 40.2938 25.1909 40.7703L25.1528 40.2849Z" fill="#DADADA"/>
<path d="M47.575 31.1176C49.0798 32.5632 50.7479 33.832 52.5461 34.8987L51.8042 36.1113C49.3998 34.7094 47.23 32.9455 45.3726 30.8828L45.3949 36.0463H44V22H45.3515L45.3726 28.6979C45.7875 29.1951 46.2013 29.6901 46.6162 30.1453L49.5595 27.0775H51.4504L47.575 31.1176Z" fill="#DADADA"/>
<path d="M57.4039 36.0431H56.0302V28.4368H55.1581V27.0765H57.4039V36.0431ZM55.5719 24.2026C55.5722 23.9277 55.6826 23.6641 55.8789 23.4698C56.0751 23.2755 56.3412 23.1664 56.6186 23.1664C56.8949 23.1701 57.1588 23.2804 57.3542 23.4739C57.5497 23.6674 57.6613 23.9288 57.6653 24.2026C57.6653 24.4777 57.5551 24.7416 57.3588 24.9361C57.1625 25.1306 56.8962 25.2399 56.6186 25.2399C56.4807 25.2417 56.3438 25.2161 56.216 25.1646C56.0882 25.1131 55.972 25.0367 55.8745 24.9401C55.7769 24.8434 55.6999 24.7283 55.6479 24.6017C55.596 24.475 55.5701 24.3393 55.5719 24.2026Z" fill="#DADADA"/>
<path d="M70.3613 35.504L69.0532 36.0221L66.982 30.8156C66.3491 29.1952 65.4125 28.4819 63.9954 28.4819H63.3414V36.0441H61.9676V27.0775H63.9954C65.9976 27.0775 67.4615 28.1578 68.2901 30.2975L70.3613 35.504Z" fill="#DADADA"/>
<path d="M77.7589 34.6821V36.0435H76.6254C75.3384 36.0435 74.2272 34.9632 74.2272 33.7749V28.4384H72.3296V27.0769H74.2272V24.0741H75.5998V27.0769H77.7589V28.4384H75.5998V33.6018C75.5998 34.1861 75.9714 34.6821 76.6254 34.6821H77.7589Z" fill="#DADADA"/>
<path d="M86.0884 33.5623C86.0884 32.59 84.7146 32.331 83.7992 32.0719C82.4644 31.7048 80.9649 31.1206 80.9649 29.4362C80.9649 27.9237 82.4688 26.8644 84.213 26.8644C85.8926 26.8644 86.9827 27.9447 87.3086 29.3491H85.8703C85.718 28.7659 85.1507 28.1607 84.0394 28.1607C83.1496 28.1607 82.3821 28.6579 82.3821 29.284C82.3821 29.9102 82.7313 30.5165 84.649 30.9916C86.2185 31.3807 87.4621 32.0069 87.4621 33.5623C87.4621 35.1607 86.1974 36.2631 84.3476 36.2631C82.5378 36.2631 81.3176 35.1828 80.946 33.6053H82.451C82.7347 34.4872 83.1919 35.0317 84.4343 35.0317C85.6268 35.0284 86.0884 34.2292 86.0884 33.5623Z" fill="#DADADA"/>
<path d="M90.9884 27.0775H92.3621V32.5706C92.3621 34.234 93.6268 34.8602 94.8259 34.8602C96.2864 34.8602 97.2241 33.9099 97.2241 32.3545V27.0775H98.5967V36.0441H97.2241V35.0288C96.5478 35.9581 95.7414 36.2602 94.6513 36.2602C92.5579 36.2602 90.9884 35.1148 90.9884 32.6092V27.0775Z" fill="#DADADA"/>
<path d="M102.469 31.6799C102.469 29.0221 104.496 27.0775 106.895 27.0775H112.084V28.4389H110.165C110.928 29.2172 111.43 30.4695 111.43 31.6799C111.43 34.2506 109.445 36.3682 106.96 36.3682C104.453 36.3682 102.469 34.2506 102.469 31.6799ZM112.454 35.547C110.666 39.2851 106.829 41.3597 102.643 40.9485L102.818 39.6257C106.24 39.9928 109.729 38.1783 111.233 34.9583L112.454 35.547ZM103.868 31.6799C103.868 33.4944 105.219 34.987 106.963 34.987C108.685 34.987 110.037 33.4955 110.037 31.6799C110.037 29.9723 108.62 28.4389 106.963 28.4389C105.282 28.4389 103.868 29.7133 103.868 31.6799Z" fill="#DADADA"/>
<path d="M117.739 36.0431H116.365V28.4368H115.493V27.0765H117.739V36.0431ZM115.907 24.2026C115.907 23.9277 116.017 23.6641 116.214 23.4698C116.41 23.2755 116.676 23.1664 116.953 23.1664C117.23 23.1701 117.493 23.2804 117.689 23.4739C117.884 23.6674 117.996 23.9288 118 24.2026C118 24.4777 117.89 24.7416 117.693 24.9361C117.497 25.1306 117.231 25.2399 116.953 25.2399C116.815 25.2417 116.678 25.2161 116.551 25.1646C116.423 25.1131 116.307 25.0367 116.209 24.9401C116.112 24.8434 116.035 24.7283 115.983 24.6017C115.931 24.475 115.905 24.3393 115.907 24.2026Z" fill="#DADADA"/>
<path d="M134 25V37" stroke="#363A4D"/>
<path d="M158.896 24.224H161.264V28.768C160.656 29.2267 159.952 29.5787 159.152 29.824C158.352 30.0693 157.547 30.192 156.736 30.192C155.573 30.192 154.528 29.9467 153.6 29.456C152.672 28.9547 151.941 28.2667 151.408 27.392C150.885 26.5067 150.624 25.5093 150.624 24.4C150.624 23.2907 150.885 22.2987 151.408 21.424C151.941 20.5387 152.677 19.8507 153.616 19.36C154.555 18.8587 155.611 18.608 156.784 18.608C157.765 18.608 158.656 18.7733 159.456 19.104C160.256 19.4347 160.928 19.9147 161.472 20.544L159.808 22.08C159.008 21.2373 158.043 20.816 156.912 20.816C156.197 20.816 155.563 20.9653 155.008 21.264C154.453 21.5627 154.021 21.984 153.712 22.528C153.403 23.072 153.248 23.696 153.248 24.4C153.248 25.0933 153.403 25.712 153.712 26.256C154.021 26.8 154.448 27.2267 154.992 27.536C155.547 27.8347 156.176 27.984 156.88 27.984C157.627 27.984 158.299 27.824 158.896 27.504V24.224ZM167.592 30.128C166.685 30.128 165.869 29.9413 165.144 29.568C164.429 29.184 163.869 28.656 163.464 27.984C163.058 27.312 162.856 26.5493 162.856 25.696C162.856 24.8427 163.058 24.08 163.464 23.408C163.869 22.736 164.429 22.2133 165.144 21.84C165.869 21.456 166.685 21.264 167.592 21.264C168.498 21.264 169.309 21.456 170.024 21.84C170.738 22.2133 171.298 22.736 171.704 23.408C172.109 24.08 172.312 24.8427 172.312 25.696C172.312 26.5493 172.109 27.312 171.704 27.984C171.298 28.656 170.738 29.184 170.024 29.568C169.309 29.9413 168.498 30.128 167.592 30.128ZM167.592 28.08C168.232 28.08 168.754 27.8667 169.16 27.44C169.576 27.0027 169.784 26.4213 169.784 25.696C169.784 24.9707 169.576 24.3947 169.16 23.968C168.754 23.5307 168.232 23.312 167.592 23.312C166.952 23.312 166.424 23.5307 166.008 23.968C165.592 24.3947 165.384 24.9707 165.384 25.696C165.384 26.4213 165.592 27.0027 166.008 27.44C166.424 27.8667 166.952 28.08 167.592 28.08ZM182.29 21.392L178.658 30H176.082L172.466 21.392H175.042L177.426 27.248L179.89 21.392H182.29ZM191.506 25.728C191.506 25.76 191.49 25.984 191.458 26.4H184.946C185.063 26.9333 185.341 27.3547 185.778 27.664C186.215 27.9733 186.759 28.128 187.41 28.128C187.858 28.128 188.253 28.064 188.594 27.936C188.946 27.7973 189.271 27.584 189.57 27.296L190.898 28.736C190.087 29.664 188.903 30.128 187.346 30.128C186.375 30.128 185.517 29.9413 184.77 29.568C184.023 29.184 183.447 28.656 183.042 27.984C182.637 27.312 182.434 26.5493 182.434 25.696C182.434 24.8533 182.631 24.096 183.026 23.424C183.431 22.7413 183.981 22.2133 184.674 21.84C185.378 21.456 186.162 21.264 187.026 21.264C187.869 21.264 188.631 21.4453 189.314 21.808C189.997 22.1707 190.53 22.6933 190.914 23.376C191.309 24.048 191.506 24.832 191.506 25.728ZM187.042 23.152C186.477 23.152 186.002 23.312 185.618 23.632C185.234 23.952 184.999 24.3893 184.914 24.944H189.154C189.069 24.4 188.834 23.968 188.45 23.648C188.066 23.3173 187.597 23.152 187.042 23.152ZM195.552 22.528C195.85 22.112 196.25 21.7973 196.752 21.584C197.264 21.3707 197.85 21.264 198.512 21.264V23.568C198.234 23.5467 198.048 23.536 197.952 23.536C197.237 23.536 196.677 23.7387 196.272 24.144C195.866 24.5387 195.664 25.136 195.664 25.936V30H193.168V21.392H195.552V22.528ZM205.228 21.264C206.294 21.264 207.153 21.584 207.804 22.224C208.465 22.864 208.796 23.8133 208.796 25.072V30H206.3V25.456C206.3 24.7733 206.15 24.2667 205.852 23.936C205.553 23.5947 205.121 23.424 204.556 23.424C203.926 23.424 203.425 23.6213 203.052 24.016C202.678 24.4 202.492 24.976 202.492 25.744V30H199.996V21.392H202.38V22.4C202.71 22.0373 203.121 21.76 203.612 21.568C204.102 21.3653 204.641 21.264 205.228 21.264ZM214.53 21.264C215.864 21.264 216.888 21.584 217.602 22.224C218.317 22.8533 218.674 23.808 218.674 25.088V30H216.338V28.928C215.869 29.728 214.994 30.128 213.714 30.128C213.053 30.128 212.477 30.016 211.986 29.792C211.506 29.568 211.138 29.2587 210.882 28.864C210.626 28.4693 210.498 28.0213 210.498 27.52C210.498 26.72 210.797 26.0907 211.394 25.632C212.002 25.1733 212.936 24.944 214.194 24.944H216.178C216.178 24.4 216.013 23.984 215.682 23.696C215.352 23.3973 214.856 23.248 214.194 23.248C213.736 23.248 213.282 23.3227 212.834 23.472C212.397 23.6107 212.024 23.8027 211.714 24.048L210.818 22.304C211.288 21.9733 211.848 21.7173 212.498 21.536C213.16 21.3547 213.837 21.264 214.53 21.264ZM214.338 28.448C214.765 28.448 215.144 28.352 215.474 28.16C215.805 27.9573 216.04 27.664 216.178 27.28V26.4H214.466C213.442 26.4 212.93 26.736 212.93 27.408C212.93 27.728 213.053 27.984 213.298 28.176C213.554 28.3573 213.901 28.448 214.338 28.448ZM226.165 21.264C227.232 21.264 228.091 21.584 228.741 22.224C229.403 22.864 229.733 23.8133 229.733 25.072V30H227.237V25.456C227.237 24.7733 227.088 24.2667 226.789 23.936C226.491 23.5947 226.059 23.424 225.493 23.424C224.864 23.424 224.363 23.6213 223.989 24.016C223.616 24.4 223.429 24.976 223.429 25.744V30H220.933V21.392H223.317V22.4C223.648 22.0373 224.059 21.76 224.549 21.568C225.04 21.3653 225.579 21.264 226.165 21.264ZM236.25 30.128C235.332 30.128 234.506 29.9413 233.77 29.568C233.044 29.184 232.474 28.656 232.058 27.984C231.652 27.312 231.45 26.5493 231.45 25.696C231.45 24.8427 231.652 24.08 232.058 23.408C232.474 22.736 233.044 22.2133 233.77 21.84C234.506 21.456 235.332 21.264 236.25 21.264C237.156 21.264 237.946 21.456 238.618 21.84C239.3 22.2133 239.796 22.752 240.106 23.456L238.17 24.496C237.722 23.7067 237.076 23.312 236.234 23.312C235.583 23.312 235.044 23.5253 234.618 23.952C234.191 24.3787 233.978 24.96 233.978 25.696C233.978 26.432 234.191 27.0133 234.618 27.44C235.044 27.8667 235.583 28.08 236.234 28.08C237.087 28.08 237.732 27.6853 238.17 26.896L240.106 27.952C239.796 28.6347 239.3 29.168 238.618 29.552C237.946 29.936 237.156 30.128 236.25 30.128ZM249.865 25.728C249.865 25.76 249.849 25.984 249.817 26.4H243.305C243.423 26.9333 243.7 27.3547 244.137 27.664C244.575 27.9733 245.119 28.128 245.769 28.128C246.217 28.128 246.612 28.064 246.953 27.936C247.305 27.7973 247.631 27.584 247.929 27.296L249.257 28.736C248.447 29.664 247.263 30.128 245.705 30.128C244.735 30.128 243.876 29.9413 243.129 29.568C242.383 29.184 241.807 28.656 241.401 27.984C240.996 27.312 240.793 26.5493 240.793 25.696C240.793 24.8533 240.991 24.096 241.385 23.424C241.791 22.7413 242.34 22.2133 243.033 21.84C243.737 21.456 244.521 21.264 245.385 21.264C246.228 21.264 246.991 21.4453 247.673 21.808C248.356 22.1707 248.889 22.6933 249.273 23.376C249.668 24.048 249.865 24.832 249.865 25.728ZM245.401 23.152C244.836 23.152 244.361 23.312 243.977 23.632C243.593 23.952 243.359 24.3893 243.273 24.944H247.513C247.428 24.4 247.193 23.968 246.809 23.648C246.425 23.3173 245.956 23.152 245.401 23.152Z" fill="white"/>
<path d="M154.858 39.5455C154.815 39.1856 154.643 38.9062 154.339 38.7074C154.036 38.5085 153.665 38.4091 153.224 38.4091C152.902 38.4091 152.621 38.4612 152.379 38.5653C152.14 38.6695 151.953 38.8127 151.818 38.995C151.686 39.1773 151.619 39.3845 151.619 39.6165C151.619 39.8106 151.665 39.9775 151.758 40.1172C151.853 40.2545 151.973 40.3693 152.12 40.4616C152.267 40.5516 152.421 40.6262 152.582 40.6854C152.743 40.7422 152.891 40.7884 153.026 40.8239L153.764 41.0227C153.954 41.0724 154.164 41.1411 154.396 41.2287C154.631 41.3163 154.854 41.4358 155.067 41.5874C155.283 41.7365 155.46 41.9283 155.6 42.1626C155.74 42.397 155.81 42.6847 155.81 43.0256C155.81 43.4186 155.707 43.7737 155.501 44.0909C155.297 44.4081 154.999 44.6603 154.606 44.8473C154.215 45.0343 153.741 45.1278 153.182 45.1278C152.661 45.1278 152.21 45.0438 151.829 44.8757C151.45 44.7076 151.152 44.4732 150.934 44.1726C150.719 43.8719 150.597 43.5227 150.568 43.125H151.477C151.501 43.3996 151.593 43.6269 151.754 43.8068C151.918 43.9844 152.124 44.117 152.372 44.2045C152.623 44.2898 152.893 44.3324 153.182 44.3324C153.518 44.3324 153.82 44.2779 154.087 44.169C154.355 44.0578 154.567 43.9039 154.723 43.7074C154.879 43.5085 154.957 43.2765 154.957 43.0114C154.957 42.7699 154.89 42.5734 154.755 42.4219C154.62 42.2704 154.442 42.1473 154.222 42.0526C154.002 41.9579 153.764 41.875 153.509 41.804L152.614 41.5483C152.045 41.3849 151.596 41.1518 151.264 40.8487C150.933 40.5457 150.767 40.1491 150.767 39.6591C150.767 39.2519 150.877 38.8968 151.097 38.5938C151.32 38.2884 151.618 38.0516 151.992 37.8835C152.369 37.7131 152.789 37.6278 153.253 37.6278C153.722 37.6278 154.138 37.7119 154.503 37.88C154.867 38.0457 155.156 38.273 155.369 38.5618C155.585 38.8506 155.698 39.1785 155.71 39.5455H154.858ZM160.581 42.7699V39.5455H161.42V45H160.581V44.0767H160.525C160.397 44.3537 160.198 44.5893 159.928 44.7834C159.658 44.9751 159.317 45.071 158.905 45.071C158.564 45.071 158.261 44.9964 157.996 44.8473C157.731 44.6958 157.523 44.4685 157.371 44.1655C157.22 43.8601 157.144 43.4754 157.144 43.0114V39.5455H157.982V42.9545C157.982 43.3523 158.093 43.6695 158.316 43.9062C158.541 44.143 158.827 44.2614 159.175 44.2614C159.384 44.2614 159.595 44.2081 159.811 44.1016C160.029 43.995 160.211 43.8317 160.358 43.6115C160.507 43.3913 160.581 43.1108 160.581 42.7699ZM163.068 45V37.7273H163.906V40.4119H163.977C164.039 40.3172 164.124 40.1965 164.233 40.0497C164.344 39.9006 164.503 39.768 164.709 39.652C164.917 39.5336 165.199 39.4744 165.554 39.4744C166.013 39.4744 166.418 39.5893 166.768 39.8189C167.119 40.0485 167.392 40.3741 167.589 40.7955C167.785 41.2169 167.884 41.714 167.884 42.2869C167.884 42.8646 167.785 43.3653 167.589 43.7891C167.392 44.2105 167.12 44.5372 166.772 44.7692C166.424 44.9988 166.023 45.1136 165.568 45.1136C165.218 45.1136 164.937 45.0556 164.727 44.9396C164.516 44.8213 164.354 44.6875 164.24 44.5384C164.126 44.3868 164.039 44.2614 163.977 44.1619H163.878V45H163.068ZM163.892 42.2727C163.892 42.6847 163.952 43.0481 164.073 43.3629C164.194 43.6754 164.37 43.9205 164.602 44.098C164.834 44.2732 165.118 44.3608 165.455 44.3608C165.805 44.3608 166.097 44.2685 166.332 44.0838C166.568 43.8968 166.746 43.6458 166.864 43.331C166.985 43.0137 167.045 42.661 167.045 42.2727C167.045 41.8892 166.986 41.5436 166.868 41.2358C166.752 40.9257 166.576 40.6806 166.339 40.5007C166.104 40.3184 165.81 40.2273 165.455 40.2273C165.114 40.2273 164.827 40.3137 164.595 40.4865C164.363 40.657 164.188 40.8961 164.07 41.2038C163.951 41.5092 163.892 41.8655 163.892 42.2727ZM173.256 39.5455C173.214 39.1856 173.041 38.9062 172.738 38.7074C172.435 38.5085 172.063 38.4091 171.623 38.4091C171.301 38.4091 171.019 38.4612 170.778 38.5653C170.539 38.6695 170.352 38.8127 170.217 38.995C170.084 39.1773 170.018 39.3845 170.018 39.6165C170.018 39.8106 170.064 39.9775 170.156 40.1172C170.251 40.2545 170.372 40.3693 170.518 40.4616C170.665 40.5516 170.819 40.6262 170.98 40.6854C171.141 40.7422 171.289 40.7884 171.424 40.8239L172.163 41.0227C172.352 41.0724 172.563 41.1411 172.795 41.2287C173.029 41.3163 173.253 41.4358 173.466 41.5874C173.681 41.7365 173.859 41.9283 173.999 42.1626C174.138 42.397 174.208 42.6847 174.208 43.0256C174.208 43.4186 174.105 43.7737 173.899 44.0909C173.696 44.4081 173.397 44.6603 173.004 44.8473C172.614 45.0343 172.139 45.1278 171.58 45.1278C171.059 45.1278 170.608 45.0438 170.227 44.8757C169.848 44.7076 169.55 44.4732 169.332 44.1726C169.117 43.8719 168.995 43.5227 168.967 43.125H169.876C169.899 43.3996 169.992 43.6269 170.153 43.8068C170.316 43.9844 170.522 44.117 170.771 44.2045C171.022 44.2898 171.291 44.3324 171.58 44.3324C171.916 44.3324 172.218 44.2779 172.486 44.169C172.753 44.0578 172.965 43.9039 173.121 43.7074C173.278 43.5085 173.356 43.2765 173.356 43.0114C173.356 42.7699 173.288 42.5734 173.153 42.4219C173.018 42.2704 172.841 42.1473 172.621 42.0526C172.401 41.9579 172.163 41.875 171.907 41.804L171.012 41.5483C170.444 41.3849 169.994 41.1518 169.663 40.8487C169.331 40.5457 169.165 40.1491 169.165 39.6591C169.165 39.2519 169.276 38.8968 169.496 38.5938C169.718 38.2884 170.017 38.0516 170.391 37.8835C170.767 37.7131 171.187 37.6278 171.651 37.6278C172.12 37.6278 172.537 37.7119 172.901 37.88C173.266 38.0457 173.555 38.273 173.768 38.5618C173.983 38.8506 174.097 39.1785 174.109 39.5455H173.256ZM179.264 47.0455V44.1619H179.193C179.131 44.2614 179.044 44.3868 178.93 44.5384C178.817 44.6875 178.654 44.8213 178.444 44.9396C178.233 45.0556 177.952 45.1136 177.602 45.1136C177.148 45.1136 176.746 44.9988 176.398 44.7692C176.05 44.5372 175.778 44.2105 175.581 43.7891C175.385 43.3653 175.287 42.8646 175.287 42.2869C175.287 41.714 175.385 41.2169 175.581 40.7955C175.778 40.3741 176.051 40.0485 176.402 39.8189C176.752 39.5893 177.157 39.4744 177.616 39.4744C177.971 39.4744 178.252 39.5336 178.458 39.652C178.666 39.768 178.825 39.9006 178.934 40.0497C179.045 40.1965 179.131 40.3172 179.193 40.4119H179.292V39.5455H180.102V47.0455H179.264ZM177.716 44.3608C178.052 44.3608 178.336 44.2732 178.568 44.098C178.8 43.9205 178.976 43.6754 179.097 43.3629C179.218 43.0481 179.278 42.6847 179.278 42.2727C179.278 41.8655 179.219 41.5092 179.101 41.2038C178.982 40.8961 178.807 40.657 178.575 40.4865C178.343 40.3137 178.057 40.2273 177.716 40.2273C177.361 40.2273 177.065 40.3184 176.828 40.5007C176.594 40.6806 176.417 40.9257 176.299 41.2358C176.183 41.5436 176.125 41.8892 176.125 42.2727C176.125 42.661 176.184 43.0137 176.302 43.331C176.423 43.6458 176.601 43.8968 176.835 44.0838C177.072 44.2685 177.365 44.3608 177.716 44.3608ZM185.074 42.7699V39.5455H185.912V45H185.074V44.0767H185.017C184.889 44.3537 184.69 44.5893 184.42 44.7834C184.15 44.9751 183.809 45.071 183.398 45.071C183.057 45.071 182.754 44.9964 182.488 44.8473C182.223 44.6958 182.015 44.4685 181.863 44.1655C181.712 43.8601 181.636 43.4754 181.636 43.0114V39.5455H182.474V42.9545C182.474 43.3523 182.586 43.6695 182.808 43.9062C183.033 44.143 183.319 44.2614 183.667 44.2614C183.876 44.2614 184.088 44.2081 184.303 44.1016C184.521 43.995 184.703 43.8317 184.85 43.6115C184.999 43.3913 185.074 43.1108 185.074 42.7699ZM189.052 45.1278C188.706 45.1278 188.393 45.0627 188.111 44.9325C187.829 44.8 187.605 44.6094 187.44 44.3608C187.274 44.1098 187.191 43.8068 187.191 43.4517C187.191 43.1392 187.253 42.8859 187.376 42.6918C187.499 42.4953 187.663 42.3414 187.869 42.2301C188.075 42.1188 188.303 42.036 188.551 41.9815C188.802 41.9247 189.054 41.8797 189.308 41.8466C189.639 41.804 189.908 41.772 190.114 41.7507C190.322 41.727 190.473 41.688 190.568 41.6335C190.665 41.5791 190.714 41.4844 190.714 41.3494V41.321C190.714 40.9706 190.618 40.6984 190.426 40.5043C190.237 40.3101 189.949 40.2131 189.563 40.2131C189.163 40.2131 188.849 40.3007 188.622 40.4759C188.395 40.651 188.235 40.8381 188.143 41.0369L187.347 40.7528C187.489 40.4214 187.679 40.1634 187.915 39.9787C188.155 39.7917 188.415 39.6615 188.697 39.5881C188.981 39.5123 189.26 39.4744 189.535 39.4744C189.71 39.4744 189.911 39.4957 190.138 39.5384C190.368 39.5786 190.589 39.6626 190.803 39.7905C191.018 39.9183 191.197 40.1113 191.339 40.3693C191.481 40.6274 191.552 40.973 191.552 41.4062V45H190.714V44.2614H190.671C190.614 44.3797 190.52 44.5064 190.387 44.6413C190.254 44.7763 190.078 44.8911 189.858 44.9858C189.638 45.0805 189.369 45.1278 189.052 45.1278ZM189.18 44.375C189.511 44.375 189.79 44.3099 190.018 44.1797C190.247 44.0495 190.42 43.8814 190.536 43.6754C190.655 43.4695 190.714 43.2528 190.714 43.0256V42.2585C190.678 42.3011 190.6 42.3402 190.479 42.3757C190.361 42.4089 190.224 42.4384 190.067 42.4645C189.914 42.4882 189.763 42.5095 189.616 42.5284C189.472 42.545 189.355 42.5592 189.265 42.571C189.047 42.5994 188.844 42.6456 188.654 42.7095C188.467 42.7711 188.316 42.8646 188.2 42.9901C188.086 43.1132 188.029 43.2812 188.029 43.4943C188.029 43.7855 188.137 44.0057 188.352 44.1548C188.57 44.3016 188.846 44.375 189.18 44.375ZM193.081 45V39.5455H193.891V40.3693H193.948C194.047 40.0994 194.227 39.8804 194.488 39.7124C194.748 39.5443 195.042 39.4602 195.368 39.4602C195.43 39.4602 195.507 39.4614 195.599 39.4638C195.692 39.4661 195.761 39.4697 195.809 39.4744V40.3267C195.78 40.3196 195.715 40.3089 195.613 40.2947C195.514 40.2782 195.409 40.2699 195.297 40.2699C195.032 40.2699 194.796 40.3255 194.587 40.4368C194.381 40.5457 194.218 40.6972 194.097 40.8913C193.979 41.0831 193.92 41.3021 193.92 41.5483V45H193.081ZM198.923 45.1136C198.398 45.1136 197.944 44.9976 197.563 44.7656C197.184 44.5312 196.892 44.2045 196.686 43.7855C196.482 43.3641 196.381 42.8741 196.381 42.3153C196.381 41.7566 196.482 41.2642 196.686 40.8381C196.892 40.4096 197.178 40.0758 197.545 39.8366C197.915 39.5952 198.345 39.4744 198.838 39.4744C199.122 39.4744 199.403 39.5218 199.68 39.6165C199.956 39.7112 200.209 39.8651 200.436 40.0781C200.663 40.2888 200.844 40.5682 200.979 40.9162C201.114 41.2642 201.182 41.6927 201.182 42.2017V42.5568H196.977V41.8324H200.329C200.329 41.5246 200.268 41.25 200.145 41.0085C200.024 40.767 199.851 40.5765 199.626 40.4368C199.404 40.2971 199.141 40.2273 198.838 40.2273C198.504 40.2273 198.215 40.3101 197.971 40.4759C197.73 40.6392 197.544 40.8523 197.414 41.1151C197.284 41.3778 197.219 41.6596 197.219 41.9602V42.4432C197.219 42.8551 197.29 43.2043 197.432 43.4908C197.576 43.7749 197.776 43.9915 198.032 44.1406C198.287 44.2874 198.585 44.3608 198.923 44.3608C199.143 44.3608 199.342 44.33 199.52 44.2685C199.7 44.2045 199.855 44.1098 199.985 43.9844C200.115 43.8565 200.216 43.6979 200.287 43.5085L201.096 43.7358C201.011 44.0104 200.868 44.2519 200.667 44.4602C200.465 44.6662 200.217 44.8272 199.921 44.9432C199.625 45.0568 199.292 45.1136 198.923 45.1136Z" fill="white" fill-opacity="0.25"/>
<defs>
<linearGradient id="paint0_linear_7032_48118" x1="17.0655" y1="39.0713" x2="17.0655" y2="22.8506" gradientUnits="userSpaceOnUse">
<stop stop-color="#603211"/>
<stop offset="0.17" stop-color="#DD7D26"/>
<stop offset="0.35" stop-color="#603211"/>
<stop offset="0.54" stop-color="#9C3520"/>
<stop offset="0.77" stop-color="#DD7D26"/>
<stop offset="1" stop-color="#603211"/>
</linearGradient>
</defs>
</svg>
