<svg width="236" height="64" viewBox="0 0 236 64" fill="none" xmlns="http://www.w3.org/2000/svg">
<g clip-path="url(#clip0_13417_74808)">
<path d="M31.25 51.5L8.75 51.5C4.19365 51.5 0.5 47.8063 0.500001 43.25L0.500003 20.75C0.500003 16.1937 4.19365 12.5 8.75 12.5L31.25 12.5C35.8064 12.5 39.5 16.1937 39.5 20.75L39.5 43.25C39.5 47.8063 35.8063 51.5 31.25 51.5Z" fill="#030E27" stroke="#272A3A"/>
<path d="M24.245 27.7731C23.1483 26.694 21.6704 26.0899 20.1338 26.0957C20.1162 26.0957 20.0928 26.0957 20.0752 26.0957C16.8261 26.1427 14.2338 28.8053 14.2749 32.0544C14.3159 35.2624 16.9258 37.8429 20.1338 37.8546H20.1925C23.4415 37.8253 26.0455 35.1686 26.0162 31.9195C25.9986 30.3536 25.3652 28.8639 24.245 27.7731Z" fill="url(#paint0_linear_13417_74808)"/>
<path d="M22.644 27.0634C21.952 26.8875 21.4007 27.0341 20.9491 27.4915C20.8963 27.5502 20.8435 27.6088 20.7907 27.6733C20.6734 27.82 20.5737 27.949 20.345 28.0018C20.0401 28.0604 19.7234 28.078 19.4125 28.0428C19.3246 28.0311 19.2483 28.0135 19.1838 27.9959C18.9492 27.9431 18.8143 27.9079 18.5328 28.1718C18.4448 28.2598 18.3686 28.3537 18.2982 28.4592C18.1751 28.6293 18.0578 28.7877 17.8701 28.8639C17.7821 28.8991 17.6883 28.9167 17.5944 28.9225C17.5886 28.9167 17.5768 28.9167 17.571 28.9108L17.5651 28.9225C17.4302 28.9284 17.2953 28.9167 17.1604 28.8932C17.0549 28.8756 16.9493 28.8698 16.8438 28.8639C16.9904 28.6528 17.1135 28.4299 17.2191 28.2012C17.4126 28.1718 17.5768 28.0428 17.7411 27.9197C17.8232 27.8493 17.917 27.7848 18.0108 27.732C18.3334 27.556 18.4859 27.4094 18.7674 27.0986C19.0313 26.8112 19.3128 26.6294 19.6588 26.4476C19.8289 26.3596 19.9814 26.2365 20.0987 26.0781C21.2482 26.084 22.3214 26.3538 23.2657 26.9754C23.166 27.0517 22.9548 27.1396 22.644 27.0634Z" fill="#DADADA"/>
<path d="M25.8292 31.1521C25.7471 31.1227 25.6708 31.0817 25.5946 31.0406C25.4773 30.9644 25.3483 30.9175 25.2134 30.8881L24.8732 30.7181C24.3336 30.6242 24.1108 30.6946 23.5654 30.5421C23.3132 30.4659 23.0493 30.4366 22.7853 30.4424L22.7736 30.4307L22.7619 30.4424C22.5742 30.4542 22.3865 30.4776 22.1754 30.5069L22.0288 30.5245C21.9701 30.5304 21.9056 30.5421 21.8294 30.5539C21.3661 30.6301 20.5861 30.7533 20.3163 30.4483L20.2987 30.46C19.8823 30.2137 19.4131 30.0847 18.9322 30.0847C18.1815 30.0847 17.9469 29.8794 17.5188 29.5158C17.4484 29.4513 17.3663 29.3868 17.2783 29.3105C17.3194 29.3105 17.3546 29.3105 17.3956 29.3105C17.5892 29.3809 17.7944 29.4161 17.9997 29.4161C18.0407 29.4161 18.0759 29.4161 18.117 29.4102C18.2225 29.3985 18.3223 29.3516 18.3985 29.2753C18.4337 29.246 18.4689 29.2167 18.5041 29.1932C18.5862 29.1463 18.68 29.1228 18.7797 29.1287C18.8208 29.1287 18.8677 29.1228 18.9087 29.117C19.114 29.0935 19.2548 28.9762 19.3955 28.8707C19.5245 28.771 19.6477 28.6713 19.8119 28.6478C19.853 28.6419 19.894 28.6361 19.9409 28.6361C20.0524 28.6361 20.1579 28.6126 20.2576 28.5598C20.3104 28.5246 20.3573 28.4836 20.3984 28.4367C20.4453 28.378 20.5098 28.337 20.5743 28.3018C20.7913 28.2255 20.8852 28.0496 21.0025 27.8971C21.0552 27.8326 21.2957 27.7974 21.3602 27.7329C21.847 27.2285 22.2399 27.0526 22.9906 27.2403C23.3718 27.3341 23.5184 27.3517 23.6475 27.2579C24.9201 28.2021 25.7529 29.6214 25.9641 31.1873C25.9113 31.1814 25.8702 31.1697 25.8292 31.1521Z" fill="#DADADA"/>
<path d="M18.3852 36.2355C18.3794 36.2003 18.3735 36.1592 18.3735 36.124C18.3735 36.0361 18.3618 35.9539 18.3442 35.866C18.3031 35.6666 18.2445 35.6314 18.1741 35.5786C18.1155 35.5375 18.0627 35.4906 18.0216 35.432C17.9513 35.3264 17.8985 35.2033 17.8691 35.0801L17.8633 35.0625C17.9161 35.0918 17.9688 35.1211 18.0216 35.1505C18.051 35.1622 18.0803 35.1798 18.1213 35.2033C18.2738 35.2854 18.4849 35.3968 18.5905 35.3909C18.6844 35.3792 18.7665 35.3323 18.8192 35.2619C18.8662 35.215 19.0245 35.3088 19.0949 35.2912C19.218 35.2678 19.3647 35.2326 19.5523 35.3088C19.6286 35.3381 19.699 35.3675 19.7517 35.3851C19.8514 35.4144 19.9511 35.4554 20.045 35.4965C20.2033 35.5727 20.3675 35.6255 20.5435 35.6607C20.6373 35.6724 20.737 35.6783 20.8309 35.6783C21.0068 35.6666 21.1886 35.7076 21.347 35.7897C21.7164 35.9715 21.7927 35.9891 22.1974 35.9481C22.4965 35.9188 22.8835 35.8894 23.1709 35.9364C23.4465 35.9833 23.6987 36.1064 23.9451 36.2706C23.9451 36.2941 23.9802 36.3762 23.9861 36.3997C22.9656 37.3322 21.6343 37.8483 20.2561 37.8483C20.1329 37.8483 20.0157 37.8424 19.8925 37.8365C19.8397 37.7779 19.7752 37.7251 19.7107 37.6782C19.6344 37.6313 19.5523 37.5902 19.4644 37.5668C19.3471 37.5257 19.2298 37.4847 19.1653 37.4084C19.0714 37.3087 19.0832 37.1973 19.0949 37.0858C19.1066 37.0096 19.1007 36.9334 19.0773 36.863C19.0245 36.7516 18.9072 36.6812 18.7782 36.6108C18.7019 36.5697 18.6316 36.5228 18.5671 36.47C18.5025 36.4173 18.4439 36.3586 18.4028 36.2882C18.4146 36.2765 18.3852 36.2355 18.3852 36.2355Z" fill="#DADADA"/>
<path d="M16.9437 27.3333C16.9319 27.48 16.9437 27.6325 16.9671 27.7791C16.9965 27.9726 17.0199 28.1603 16.9437 28.3714L16.9378 28.3949H16.9319V28.4066C16.8322 28.6588 16.6035 29.0165 16.4921 29.1808C16.2458 29.1456 16.1285 28.9638 16.0053 28.7644C15.9349 28.6295 15.8352 28.5122 15.7238 28.4066C15.6651 28.3655 15.6065 28.3245 15.5479 28.2893C15.9701 27.7673 16.4745 27.3158 17.0492 26.9639C16.9906 27.0812 16.9554 27.2043 16.9437 27.3333Z" fill="#DADADA"/>
<path d="M24.2982 36.0604C24.2865 35.9431 24.2865 35.8199 24.2806 35.6968C24.2747 35.0517 24.2454 34.8405 23.8114 34.4769C23.4771 34.1954 23.0959 34.0605 22.9728 33.6382C22.9024 33.4037 22.9024 33.1104 22.9024 32.7996C22.9024 32.6647 22.9024 32.5239 22.8965 32.3891C22.9258 32.2542 22.9786 32.1251 23.0373 32.0078C23.1077 31.8495 23.2249 31.6853 23.2015 31.5152C23.1839 31.3686 23.2015 31.4741 23.137 31.2806C23.0842 31.1105 22.9786 31.0167 22.8555 30.917C23.0842 30.917 23.3188 30.9463 23.5416 31.0108C24.0871 31.1692 24.6032 30.9639 25.1427 31.0577L25.1955 31.0695C25.3245 31.0929 25.4477 31.1457 25.5591 31.2161C25.6354 31.263 25.7175 31.2982 25.7996 31.3334C25.8524 31.351 25.911 31.3686 25.9638 31.3803C25.9931 31.5797 26.0049 31.7791 26.0107 31.9785C26.0107 33.5151 25.4125 34.993 24.3334 36.0897L24.2982 36.0604Z" fill="#DADADA"/>
<path d="M14.8969 33.6975C14.9497 33.7151 14.9966 33.7326 15.0435 33.7502C15.2488 33.8206 15.4423 33.9145 15.6241 34.0318C15.8118 34.1608 15.9643 34.2957 16.0757 34.5009C16.193 34.7238 16.281 34.8704 16.5156 34.9936L16.5859 35.0288C16.8792 35.1812 17.0845 35.2868 17.2369 35.5801C17.3308 35.756 17.495 35.8322 17.6592 35.9026C17.7472 35.9378 17.8293 35.9847 17.9114 36.0316L17.9407 36.0551L17.9994 36.0962C18.0228 36.1783 18.0815 36.2545 18.2222 36.3777C18.2985 36.4422 18.3806 36.495 18.4685 36.5419C18.5976 36.6181 18.7207 36.6885 18.7735 36.7941C18.797 36.8644 18.8028 36.9348 18.7852 37.0052C18.7735 37.1342 18.7618 37.2808 18.8849 37.4157C18.967 37.5096 19.1078 37.5565 19.2427 37.6034C19.3365 37.6327 19.4186 37.6679 19.5007 37.7207C19.5477 37.7559 19.5946 37.7969 19.6415 37.838C17.1666 37.6269 15.0963 35.885 14.457 33.4863C14.5685 33.586 14.7444 33.6447 14.8969 33.6975Z" fill="#DADADA"/>
<path d="M15.8294 28.9164C15.9291 29.0806 16.0346 29.2448 16.2165 29.3211C16.0464 29.3504 15.9936 29.3035 15.8176 29.456C15.7238 29.5381 15.5185 29.5205 15.4364 29.6143C15.2898 29.7668 15.2546 30.0366 15.0728 30.1304C14.8793 30.2301 14.674 30.3122 14.4688 30.3768C14.6799 29.6261 14.9379 29.0689 15.4071 28.4766C15.4599 28.5059 15.5127 28.5411 15.5655 28.5821C15.671 28.6701 15.7649 28.7874 15.8294 28.9164Z" fill="#DADADA"/>
<path d="M23.2663 34.5055L23.3073 34.5407C23.6885 34.8632 23.7941 34.9512 23.8 35.5025C23.8 35.6022 23.8058 35.696 23.8117 35.7899C23.5712 35.6374 23.3249 35.5142 23.0551 35.4732C22.756 35.4262 22.3689 35.4556 22.064 35.4849C21.6769 35.5259 21.759 35.4204 21.4013 35.2386C21.1725 35.1213 20.8676 35.2151 20.7092 35.2151C20.6154 35.2151 20.5215 35.2092 20.4277 35.1975C20.2635 35.1623 20.0993 35.1095 19.9468 35.0392C19.8471 34.9981 19.894 34.916 19.7884 34.8867C19.7415 34.8691 19.5304 34.8808 19.4483 34.8515C19.243 34.7694 18.9908 34.6638 18.8442 34.6931C18.768 34.7107 18.6976 34.7577 18.6507 34.8163C18.6038 34.8808 18.5334 34.9219 18.4571 34.9336C18.3692 34.9395 18.1639 34.828 18.0231 34.7518C17.9821 34.7283 17.9469 34.7107 17.9234 34.699C17.8472 34.6638 17.7768 34.6228 17.7123 34.5758C17.7123 34.57 17.7123 34.5641 17.7064 34.5583L17.6947 34.5641C17.5364 34.4468 17.378 34.3237 17.2373 34.1829C16.944 33.9131 16.598 33.7079 16.2168 33.5906C16.4573 33.5554 16.6567 33.4439 16.8619 33.3267C17.032 33.2211 17.2197 33.1331 17.4073 33.0686C17.6419 32.9982 17.9117 32.9982 18.1698 32.9982C18.4454 32.9982 18.7269 32.9924 18.9791 32.9103C19.2372 32.8223 19.4307 32.6405 19.6184 32.4587C19.8178 32.271 20.0641 32.2417 20.3397 32.1654C20.5626 32.1068 20.8441 31.9191 21.1901 31.9015C21.6124 31.8781 22.0522 31.8487 22.3338 31.7432C22.4921 31.9426 22.539 32.2299 22.5566 32.5349C22.5566 32.5349 22.5566 32.5349 22.5566 32.5408C22.5625 32.6639 22.5625 32.7871 22.5625 32.9103C22.5625 33.1976 22.5683 33.4674 22.627 33.6785C22.7384 34.0598 22.9672 34.2592 23.2663 34.5055Z" fill="#DADADA"/>
<path d="M14.4098 33.3447C14.3042 32.9224 14.2515 32.4884 14.2515 32.0486C14.2456 31.5852 14.2925 31.1278 14.3922 30.6762C14.6092 30.6175 14.8145 30.5354 15.0198 30.4416C15.1957 30.3536 15.3306 30.3243 15.4655 30.1777C15.5417 30.0956 15.618 30.0193 15.7001 29.9431C16.0285 29.6675 16.3276 29.7026 16.6384 29.7437C16.7147 29.7554 16.7909 29.7613 16.8672 29.7672C16.9727 29.8493 17.0666 29.8141 17.1487 29.8845C17.5299 30.2129 17.7586 30.5472 18.4565 30.5472C18.9609 30.5472 19.3538 30.553 19.7526 30.7935C19.7644 30.7994 19.7761 30.8052 19.7878 30.8111C19.8934 30.8756 19.9989 30.946 20.1045 31.0222L20.1749 31.0691C20.3977 31.2275 20.6089 31.38 20.9021 31.4269C21.0018 31.4386 21.1015 31.4445 21.2071 31.4386C21.4006 31.4328 21.5648 31.4328 21.7115 31.5794C21.4417 31.6791 21.0194 31.7025 20.6089 31.726C20.2629 31.7495 19.9403 31.767 19.7116 31.8257C19.4183 31.9019 19.2072 32.1072 19.0019 32.3007C18.8084 32.4825 18.6325 32.6585 18.3861 32.7406C18.1398 32.8227 17.87 32.8227 17.6003 32.8227C17.3305 32.8227 17.0666 32.8227 16.8202 32.8989C16.6208 32.9635 16.4332 33.0514 16.2631 33.1629C16.0109 33.3095 15.7704 33.4444 15.4537 33.4268C15.3599 33.4033 15.2719 33.3857 15.1781 33.374L15.1546 33.3681V33.374C14.8966 33.3447 14.6561 33.3329 14.4098 33.3447Z" fill="#DADADA"/>
<path d="M11.496 25.7324C10.9213 25.7382 10.3465 25.7089 9.77179 25.6444C8.58711 25.5037 7.9713 25.2046 7.83641 24.706C7.61942 23.9202 8.76305 23.2574 9.64277 22.8293C12.9857 21.1989 20.3167 19.504 25.9879 19.0583C27.7415 18.9175 29.2135 18.9116 30.2516 19.0348C31.4363 19.1756 32.0521 19.4747 32.1928 19.9732C32.4098 20.7591 31.2662 21.4218 30.3865 21.8499C27.0436 23.4803 19.7126 25.1752 14.0413 25.621C13.103 25.6972 12.2467 25.7324 11.496 25.7324ZM26.0114 19.416L26.0407 19.7679C20.4398 20.2136 13.2261 21.8734 9.94773 23.4686C8.54019 24.1548 8.51086 24.5242 8.51086 24.5242C8.55778 24.6943 9.62517 25.2632 13.9768 24.9172C19.5718 24.4715 26.7914 22.8117 30.0698 21.2165C31.4773 20.5303 31.5066 20.1608 31.5066 20.1608C31.4597 19.9908 30.3923 19.4219 26.0407 19.7679L26.0114 19.416Z" fill="#DADADA"/>
<path d="M11.4658 45.0507C10.891 45.0566 10.3163 45.0273 9.74152 44.9628C8.55683 44.822 7.94103 44.5229 7.80614 44.0244C7.58914 43.2385 8.73278 42.5758 9.61249 42.1477C12.9554 40.5173 20.2864 38.8224 25.9576 38.3766C27.7112 38.2359 29.1832 38.23 30.2213 38.3532C31.406 38.4939 32.0218 38.793 32.1567 39.2915C32.3737 40.0774 31.2301 40.7401 30.3503 41.1683C27.0074 42.7987 19.6764 44.4936 14.0052 44.9393C13.0727 45.0097 12.2223 45.0507 11.4658 45.0507ZM25.9869 38.7285L26.0163 39.0804C20.4213 39.5261 13.2017 41.1859 9.92332 42.7811C8.51578 43.4673 8.48646 43.8367 8.48646 43.8367C8.53337 44.0068 9.60076 44.5757 13.9524 44.2297C19.5474 43.784 26.767 42.1242 30.0454 40.529C31.4529 39.8428 31.4822 39.4733 31.4822 39.4733C31.4353 39.3033 30.3679 38.7344 26.0163 39.0804L25.9869 38.7285Z" fill="#DADADA"/>
</g>
<path d="M58.76 25.5L56.88 27.46V31H53.66V17H56.88V23.54L63.08 17H66.68L60.88 23.24L67.02 31H63.24L58.76 25.5ZM68.0494 20.24H71.1694V31H68.0494V20.24ZM69.6094 18.74C69.036 18.74 68.5694 18.5733 68.2094 18.24C67.8494 17.9067 67.6694 17.4933 67.6694 17C67.6694 16.5067 67.8494 16.0933 68.2094 15.76C68.5694 15.4267 69.036 15.26 69.6094 15.26C70.1827 15.26 70.6494 15.42 71.0094 15.74C71.3694 16.06 71.5494 16.46 71.5494 16.94C71.5494 17.46 71.3694 17.8933 71.0094 18.24C70.6494 18.5733 70.1827 18.74 69.6094 18.74ZM80.605 20.08C81.9383 20.08 83.0117 20.48 83.825 21.28C84.6517 22.08 85.065 23.2667 85.065 24.84V31H81.945V25.32C81.945 24.4667 81.7583 23.8333 81.385 23.42C81.0117 22.9933 80.4717 22.78 79.765 22.78C78.9783 22.78 78.3517 23.0267 77.885 23.52C77.4183 24 77.185 24.72 77.185 25.68V31H74.065V20.24H77.045V21.5C77.4583 21.0467 77.9717 20.7 78.585 20.46C79.1983 20.2067 79.8717 20.08 80.605 20.08ZM94.8331 30.48C94.5265 30.7067 94.1465 30.88 93.6931 31C93.2531 31.1067 92.7865 31.16 92.2931 31.16C91.0131 31.16 90.0198 30.8333 89.3131 30.18C88.6198 29.5267 88.2731 28.5667 88.2731 27.3V22.88H86.6131V20.48H88.2731V17.86H91.3931V20.48H94.0731V22.88H91.3931V27.26C91.3931 27.7133 91.5065 28.0667 91.7331 28.32C91.9731 28.56 92.3065 28.68 92.7331 28.68C93.2265 28.68 93.6465 28.5467 93.9931 28.28L94.8331 30.48ZM100.205 31.16C99.3112 31.16 98.4379 31.0533 97.5845 30.84C96.7312 30.6133 96.0512 30.3333 95.5445 30L96.5845 27.76C97.0645 28.0667 97.6445 28.32 98.3245 28.52C99.0045 28.7067 99.6712 28.8 100.325 28.8C101.645 28.8 102.305 28.4733 102.305 27.82C102.305 27.5133 102.125 27.2933 101.765 27.16C101.405 27.0267 100.851 26.9133 100.105 26.82C99.2245 26.6867 98.4979 26.5333 97.9245 26.36C97.3512 26.1867 96.8512 25.88 96.4245 25.44C96.0112 25 95.8045 24.3733 95.8045 23.56C95.8045 22.88 95.9979 22.28 96.3845 21.76C96.7845 21.2267 97.3579 20.8133 98.1045 20.52C98.8645 20.2267 99.7579 20.08 100.785 20.08C101.545 20.08 102.298 20.1667 103.045 20.34C103.805 20.5 104.431 20.7267 104.925 21.02L103.885 23.24C102.938 22.7067 101.905 22.44 100.785 22.44C100.118 22.44 99.6179 22.5333 99.2845 22.72C98.9512 22.9067 98.7845 23.1467 98.7845 23.44C98.7845 23.7733 98.9645 24.0067 99.3245 24.14C99.6845 24.2733 100.258 24.4 101.045 24.52C101.925 24.6667 102.645 24.8267 103.205 25C103.765 25.16 104.251 25.46 104.665 25.9C105.078 26.34 105.285 26.9533 105.285 27.74C105.285 28.4067 105.085 29 104.685 29.52C104.285 30.04 103.698 30.4467 102.925 30.74C102.165 31.02 101.258 31.16 100.205 31.16ZM118.05 20.24V31H115.09V29.72C114.676 30.1867 114.183 30.5467 113.61 30.8C113.036 31.04 112.416 31.16 111.75 31.16C110.336 31.16 109.216 30.7533 108.39 29.94C107.563 29.1267 107.15 27.92 107.15 26.32V20.24H110.27V25.86C110.27 27.5933 110.996 28.46 112.45 28.46C113.196 28.46 113.796 28.22 114.25 27.74C114.703 27.2467 114.93 26.52 114.93 25.56V20.24H118.05ZM132.04 20.24V29.2C132.04 31.1733 131.527 32.64 130.5 33.6C129.473 34.56 127.973 35.04 126 35.04C124.96 35.04 123.973 34.9133 123.04 34.66C122.107 34.4067 121.333 34.04 120.72 33.56L121.96 31.32C122.413 31.6933 122.987 31.9867 123.68 32.2C124.373 32.4267 125.067 32.54 125.76 32.54C126.84 32.54 127.633 32.2933 128.14 31.8C128.66 31.32 128.92 30.5867 128.92 29.6V29.14C128.107 30.0333 126.973 30.48 125.52 30.48C124.533 30.48 123.627 30.2667 122.8 29.84C121.987 29.4 121.34 28.7867 120.86 28C120.38 27.2133 120.14 26.3067 120.14 25.28C120.14 24.2533 120.38 23.3467 120.86 22.56C121.34 21.7733 121.987 21.1667 122.8 20.74C123.627 20.3 124.533 20.08 125.52 20.08C127.08 20.08 128.267 20.5933 129.08 21.62V20.24H132.04ZM126.14 27.92C126.967 27.92 127.64 27.68 128.16 27.2C128.693 26.7067 128.96 26.0667 128.96 25.28C128.96 24.4933 128.693 23.86 128.16 23.38C127.64 22.8867 126.967 22.64 126.14 22.64C125.313 22.64 124.633 22.8867 124.1 23.38C123.567 23.86 123.3 24.4933 123.3 25.28C123.3 26.0667 123.567 26.7067 124.1 27.2C124.633 27.68 125.313 27.92 126.14 27.92ZM134.944 20.24H138.064V31H134.944V20.24ZM136.504 18.74C135.931 18.74 135.464 18.5733 135.104 18.24C134.744 17.9067 134.564 17.4933 134.564 17C134.564 16.5067 134.744 16.0933 135.104 15.76C135.464 15.4267 135.931 15.26 136.504 15.26C137.077 15.26 137.544 15.42 137.904 15.74C138.264 16.06 138.444 16.46 138.444 16.94C138.444 17.46 138.264 17.8933 137.904 18.24C137.544 18.5733 137.077 18.74 136.504 18.74Z" fill="white"/>
<path d="M58.8651 42.0298C58.7827 41.7713 58.6719 41.5398 58.5327 41.3352C58.3963 41.1278 58.233 40.9517 58.0426 40.8068C57.8523 40.6591 57.6349 40.5469 57.3906 40.4702C57.1491 40.3935 56.8835 40.3551 56.5938 40.3551C56.1023 40.3551 55.6591 40.4815 55.2642 40.7344C54.8693 40.9872 54.5568 41.358 54.3267 41.8466C54.0994 42.3324 53.9858 42.9276 53.9858 43.6321C53.9858 44.3395 54.1009 44.9375 54.331 45.4261C54.5611 45.9148 54.8764 46.2855 55.277 46.5384C55.6776 46.7912 56.1335 46.9176 56.6449 46.9176C57.1193 46.9176 57.5327 46.821 57.8849 46.6278C58.2401 46.4347 58.5142 46.1619 58.7074 45.8097C58.9034 45.4545 59.0014 45.0369 59.0014 44.5568L59.3423 44.6207H56.8452V43.5341H60.2756V44.527C60.2756 45.2599 60.1193 45.8963 59.8068 46.4361C59.4972 46.973 59.0682 47.3878 58.5199 47.6804C57.9744 47.973 57.3494 48.1193 56.6449 48.1193C55.8551 48.1193 55.1619 47.9375 54.5653 47.5739C53.9716 47.2102 53.5085 46.6946 53.1761 46.027C52.8438 45.3565 52.6776 44.5611 52.6776 43.6406C52.6776 42.9446 52.7741 42.3196 52.9673 41.7656C53.1605 41.2116 53.4318 40.7415 53.7812 40.3551C54.1335 39.9659 54.5469 39.669 55.0213 39.4645C55.4986 39.2571 56.0199 39.1534 56.5852 39.1534C57.0568 39.1534 57.4957 39.223 57.902 39.3622C58.3111 39.5014 58.6747 39.6989 58.9929 39.9545C59.3139 40.2102 59.5795 40.5142 59.7898 40.8665C60 41.2159 60.142 41.6037 60.2159 42.0298H58.8651ZM64.6019 48.1321C63.9883 48.1321 63.4528 47.9915 62.9954 47.7102C62.538 47.429 62.1829 47.0355 61.93 46.5298C61.6772 46.0241 61.5508 45.4332 61.5508 44.7571C61.5508 44.0781 61.6772 43.4844 61.93 42.9759C62.1829 42.4673 62.538 42.0724 62.9954 41.7912C63.4528 41.5099 63.9883 41.3693 64.6019 41.3693C65.2156 41.3693 65.7511 41.5099 66.2085 41.7912C66.6658 42.0724 67.021 42.4673 67.2738 42.9759C67.5266 43.4844 67.6531 44.0781 67.6531 44.7571C67.6531 45.4332 67.5266 46.0241 67.2738 46.5298C67.021 47.0355 66.6658 47.429 66.2085 47.7102C65.7511 47.9915 65.2156 48.1321 64.6019 48.1321ZM64.6062 47.0625C65.0039 47.0625 65.3335 46.9574 65.5948 46.7472C65.8562 46.5369 66.0494 46.2571 66.1744 45.9077C66.3022 45.5582 66.3661 45.1733 66.3661 44.7528C66.3661 44.3352 66.3022 43.9517 66.1744 43.6023C66.0494 43.25 65.8562 42.9673 65.5948 42.7543C65.3335 42.5412 65.0039 42.4347 64.6062 42.4347C64.2056 42.4347 63.8732 42.5412 63.609 42.7543C63.3477 42.9673 63.1531 43.25 63.0252 43.6023C62.9002 43.9517 62.8377 44.3352 62.8377 44.7528C62.8377 45.1733 62.9002 45.5582 63.0252 45.9077C63.1531 46.2571 63.3477 46.5369 63.609 46.7472C63.8732 46.9574 64.2056 47.0625 64.6062 47.0625ZM74.4521 41.4545L72.0785 48H70.7148L68.337 41.4545H69.7049L71.3626 46.4915H71.4308L73.0842 41.4545H74.4521ZM78.2479 48.1321C77.603 48.1321 77.0476 47.9943 76.5817 47.7188C76.1186 47.4403 75.7607 47.0497 75.5078 46.5469C75.2578 46.0412 75.1328 45.4489 75.1328 44.7699C75.1328 44.0994 75.2578 43.5085 75.5078 42.9972C75.7607 42.4858 76.1129 42.0866 76.5646 41.7997C77.0192 41.5128 77.5504 41.3693 78.1584 41.3693C78.5277 41.3693 78.8857 41.4304 79.2322 41.5526C79.5788 41.6747 79.8899 41.8665 80.1655 42.1278C80.4411 42.3892 80.6584 42.7287 80.8175 43.1463C80.9766 43.5611 81.0561 44.0653 81.0561 44.6591V45.1108H75.853V44.1562H79.8075C79.8075 43.821 79.7393 43.5241 79.603 43.2656C79.4666 43.0043 79.2749 42.7983 79.0277 42.6477C78.7834 42.4972 78.4964 42.4219 78.1669 42.4219C77.8089 42.4219 77.4964 42.5099 77.2294 42.6861C76.9652 42.8594 76.7607 43.0866 76.6158 43.3679C76.4737 43.6463 76.4027 43.9489 76.4027 44.2756V45.0213C76.4027 45.4588 76.4794 45.831 76.6328 46.1378C76.7891 46.4446 77.0064 46.679 77.2848 46.8409C77.5632 47 77.8885 47.0795 78.2607 47.0795C78.5021 47.0795 78.7223 47.0455 78.9212 46.9773C79.12 46.9062 79.2919 46.8011 79.4368 46.6619C79.5817 46.5227 79.6925 46.3509 79.7692 46.1463L80.9751 46.3636C80.8786 46.7187 80.7053 47.0298 80.4553 47.2969C80.2081 47.5611 79.897 47.767 79.522 47.9148C79.1499 48.0597 78.7251 48.1321 78.2479 48.1321ZM82.4698 48V41.4545H83.7013V42.4943H83.7695C83.8888 42.142 84.0991 41.8651 84.4002 41.6634C84.7042 41.4588 85.0479 41.3565 85.4315 41.3565C85.511 41.3565 85.6048 41.3594 85.7127 41.3651C85.8235 41.3707 85.9102 41.3778 85.9727 41.3864V42.6051C85.9215 42.5909 85.8306 42.5753 85.6999 42.5582C85.5692 42.5384 85.4386 42.5284 85.3079 42.5284C85.0067 42.5284 84.7383 42.5923 84.5025 42.7202C84.2695 42.8452 84.0849 43.0199 83.9485 43.2443C83.8121 43.4659 83.744 43.7187 83.744 44.0028V48H82.4698ZM88.3494 44.1136V48H87.0753V41.4545H88.2983V42.5199H88.3793C88.5298 42.1733 88.7656 41.8949 89.0866 41.6847C89.4105 41.4744 89.8182 41.3693 90.3097 41.3693C90.7557 41.3693 91.1463 41.4631 91.4815 41.6506C91.8168 41.8352 92.0767 42.1108 92.2614 42.4773C92.446 42.8437 92.5384 43.2969 92.5384 43.8366V48H91.2642V43.9901C91.2642 43.5156 91.1406 43.1449 90.8935 42.8778C90.6463 42.608 90.3068 42.473 89.875 42.473C89.5795 42.473 89.3168 42.5369 89.0866 42.6648C88.8594 42.7926 88.679 42.9801 88.5455 43.2273C88.4148 43.4716 88.3494 43.767 88.3494 44.1136ZM96.152 48.1449C95.7372 48.1449 95.3622 48.0682 95.027 47.9148C94.6918 47.7585 94.4261 47.5327 94.2301 47.2372C94.0369 46.9418 93.9403 46.5795 93.9403 46.1506C93.9403 45.7812 94.0114 45.4773 94.1534 45.2386C94.2955 45 94.4872 44.8111 94.7287 44.6719C94.9702 44.5327 95.2401 44.4276 95.5384 44.3565C95.8366 44.2855 96.1406 44.2315 96.4503 44.1946C96.8423 44.1491 97.1605 44.1122 97.4048 44.0838C97.6491 44.0526 97.8267 44.0028 97.9375 43.9347C98.0483 43.8665 98.1037 43.7557 98.1037 43.6023V43.5724C98.1037 43.2003 97.9986 42.9119 97.7884 42.7074C97.581 42.5028 97.2713 42.4006 96.8594 42.4006C96.4304 42.4006 96.0923 42.4957 95.8452 42.6861C95.6009 42.8736 95.4318 43.0824 95.3381 43.3125L94.1406 43.0398C94.2827 42.642 94.4901 42.321 94.7628 42.0767C95.0384 41.8295 95.3551 41.6506 95.7131 41.5398C96.071 41.4261 96.4474 41.3693 96.8423 41.3693C97.1037 41.3693 97.3807 41.4006 97.6733 41.4631C97.9688 41.5227 98.2443 41.6335 98.5 41.7955C98.7585 41.9574 98.9702 42.1889 99.1349 42.4901C99.2997 42.7884 99.3821 43.1761 99.3821 43.6534V48H98.1378V47.1051H98.0866C98.0043 47.2699 97.8807 47.4318 97.7159 47.5909C97.5511 47.75 97.3395 47.8821 97.081 47.9872C96.8224 48.0923 96.5128 48.1449 96.152 48.1449ZM96.429 47.1222C96.7813 47.1222 97.0824 47.0526 97.3324 46.9134C97.5852 46.7741 97.777 46.5923 97.9077 46.3679C98.0412 46.1406 98.108 45.8977 98.108 45.6392V44.7955C98.0625 44.8409 97.9744 44.8835 97.8438 44.9233C97.7159 44.9602 97.5696 44.9929 97.4048 45.0213C97.2401 45.0469 97.0795 45.071 96.9233 45.0938C96.767 45.1136 96.6364 45.1307 96.5312 45.1449C96.2841 45.1761 96.0582 45.2287 95.8537 45.3026C95.652 45.3764 95.4901 45.483 95.3679 45.6222C95.2486 45.7585 95.1889 45.9403 95.1889 46.1676C95.1889 46.483 95.3054 46.7216 95.5384 46.8835C95.7713 47.0426 96.0682 47.1222 96.429 47.1222ZM102.353 44.1136V48H101.079V41.4545H102.302V42.5199H102.383C102.534 42.1733 102.77 41.8949 103.091 41.6847C103.414 41.4744 103.822 41.3693 104.314 41.3693C104.76 41.3693 105.15 41.4631 105.485 41.6506C105.821 41.8352 106.081 42.1108 106.265 42.4773C106.45 42.8437 106.542 43.2969 106.542 43.8366V48H105.268V43.9901C105.268 43.5156 105.145 43.1449 104.897 42.8778C104.65 42.608 104.311 42.473 103.879 42.473C103.583 42.473 103.321 42.5369 103.091 42.6648C102.863 42.7926 102.683 42.9801 102.549 43.2273C102.419 43.4716 102.353 43.767 102.353 44.1136ZM111.008 48.1321C110.375 48.1321 109.829 47.9886 109.372 47.7017C108.917 47.4119 108.568 47.0128 108.324 46.5043C108.079 45.9957 107.957 45.4134 107.957 44.7571C107.957 44.0923 108.082 43.5057 108.332 42.9972C108.582 42.4858 108.934 42.0866 109.389 41.7997C109.843 41.5128 110.379 41.3693 110.995 41.3693C111.493 41.3693 111.936 41.4616 112.325 41.6463C112.714 41.8281 113.028 42.0838 113.267 42.4134C113.508 42.7429 113.652 43.1278 113.697 43.5682H112.457C112.389 43.2614 112.233 42.9972 111.988 42.7756C111.747 42.554 111.423 42.4432 111.017 42.4432C110.662 42.4432 110.35 42.5369 110.083 42.7244C109.819 42.9091 109.613 43.1733 109.466 43.517C109.318 43.858 109.244 44.2614 109.244 44.7273C109.244 45.2045 109.316 45.6165 109.461 45.9631C109.606 46.3097 109.811 46.5781 110.075 46.7685C110.342 46.9588 110.656 47.054 111.017 47.054C111.258 47.054 111.477 47.0099 111.673 46.9219C111.872 46.831 112.038 46.7017 112.172 46.5341C112.308 46.3665 112.403 46.1648 112.457 45.929H113.697C113.652 46.3523 113.514 46.7301 113.284 47.0625C113.054 47.3949 112.745 47.6562 112.359 47.8466C111.975 48.0369 111.525 48.1321 111.008 48.1321ZM117.881 48.1321C117.236 48.1321 116.68 47.9943 116.214 47.7188C115.751 47.4403 115.393 47.0497 115.141 46.5469C114.891 46.0412 114.766 45.4489 114.766 44.7699C114.766 44.0994 114.891 43.5085 115.141 42.9972C115.393 42.4858 115.746 42.0866 116.197 41.7997C116.652 41.5128 117.183 41.3693 117.791 41.3693C118.161 41.3693 118.518 41.4304 118.865 41.5526C119.212 41.6747 119.523 41.8665 119.798 42.1278C120.074 42.3892 120.291 42.7287 120.45 43.1463C120.609 43.5611 120.689 44.0653 120.689 44.6591V45.1108H115.486V44.1562H119.44C119.44 43.821 119.372 43.5241 119.236 43.2656C119.099 43.0043 118.908 42.7983 118.661 42.6477C118.416 42.4972 118.129 42.4219 117.8 42.4219C117.442 42.4219 117.129 42.5099 116.862 42.6861C116.598 42.8594 116.393 43.0866 116.249 43.3679C116.107 43.6463 116.036 43.9489 116.036 44.2756V45.0213C116.036 45.4588 116.112 45.831 116.266 46.1378C116.422 46.4446 116.639 46.679 116.918 46.8409C117.196 47 117.521 47.0795 117.893 47.0795C118.135 47.0795 118.355 47.0455 118.554 46.9773C118.753 46.9062 118.925 46.8011 119.07 46.6619C119.214 46.5227 119.325 46.3509 119.402 46.1463L120.608 46.3636C120.511 46.7187 120.338 47.0298 120.088 47.2969C119.841 47.5611 119.53 47.767 119.155 47.9148C118.783 48.0597 118.358 48.1321 117.881 48.1321ZM125.381 48V39.2727H126.655V42.5156H126.732C126.805 42.3793 126.912 42.2216 127.051 42.0426C127.19 41.8636 127.384 41.7074 127.631 41.5739C127.878 41.4375 128.205 41.3693 128.611 41.3693C129.139 41.3693 129.611 41.5028 130.026 41.7699C130.44 42.0369 130.766 42.4219 131.001 42.9247C131.24 43.4276 131.359 44.0327 131.359 44.7401C131.359 45.4474 131.241 46.054 131.006 46.5597C130.77 47.0625 130.446 47.4503 130.034 47.723C129.622 47.9929 129.152 48.1278 128.624 48.1278C128.226 48.1278 127.901 48.0611 127.648 47.9276C127.398 47.794 127.202 47.6378 127.06 47.4588C126.918 47.2798 126.808 47.1207 126.732 46.9815H126.625V48H125.381ZM126.629 44.7273C126.629 45.1875 126.696 45.5909 126.83 45.9375C126.963 46.2841 127.156 46.5554 127.409 46.7514C127.662 46.9446 127.972 47.0412 128.338 47.0412C128.719 47.0412 129.037 46.9403 129.293 46.7386C129.548 46.5341 129.741 46.2571 129.872 45.9077C130.006 45.5582 130.072 45.1648 130.072 44.7273C130.072 44.2955 130.007 43.9077 129.876 43.5639C129.749 43.2202 129.555 42.9489 129.297 42.75C129.041 42.5511 128.722 42.4517 128.338 42.4517C127.969 42.4517 127.656 42.5469 127.401 42.7372C127.148 42.9276 126.956 43.1932 126.825 43.5341C126.695 43.875 126.629 44.2727 126.629 44.7273ZM133.373 50.4545C133.183 50.4545 133.009 50.4389 132.853 50.4077C132.697 50.3793 132.58 50.348 132.504 50.3139L132.81 49.2699C133.043 49.3324 133.251 49.3594 133.433 49.3509C133.614 49.3423 133.775 49.2741 133.914 49.1463C134.056 49.0185 134.181 48.8097 134.289 48.5199L134.447 48.0852L132.052 41.4545H133.415L135.073 46.5341H135.141L136.799 41.4545H138.167L135.469 48.8736C135.344 49.2145 135.185 49.5028 134.992 49.7386C134.799 49.9773 134.569 50.1563 134.302 50.2756C134.035 50.3949 133.725 50.4545 133.373 50.4545ZM147.402 41.5653C147.357 41.1619 147.169 40.8494 146.84 40.6278C146.51 40.4034 146.096 40.2912 145.596 40.2912C145.238 40.2912 144.928 40.348 144.667 40.4616C144.405 40.5724 144.202 40.7259 144.057 40.9219C143.915 41.1151 143.844 41.3352 143.844 41.5824C143.844 41.7898 143.892 41.9687 143.989 42.1193C144.088 42.2699 144.218 42.3963 144.377 42.4986C144.539 42.598 144.712 42.6818 144.897 42.75C145.081 42.8153 145.259 42.8693 145.429 42.9119L146.282 43.1335C146.56 43.2017 146.846 43.294 147.138 43.4105C147.431 43.527 147.702 43.6804 147.952 43.8707C148.202 44.0611 148.404 44.2969 148.557 44.5781C148.713 44.8594 148.792 45.196 148.792 45.5881C148.792 46.0824 148.664 46.5213 148.408 46.9048C148.155 47.2884 147.787 47.5909 147.304 47.8125C146.824 48.0341 146.243 48.1449 145.561 48.1449C144.908 48.1449 144.343 48.0412 143.865 47.8338C143.388 47.6264 143.015 47.3324 142.745 46.9517C142.475 46.5682 142.326 46.1136 142.297 45.5881H143.618C143.644 45.9034 143.746 46.1662 143.925 46.3764C144.107 46.5838 144.338 46.7386 144.62 46.8409C144.904 46.9403 145.215 46.9901 145.553 46.9901C145.925 46.9901 146.256 46.9318 146.546 46.8153C146.838 46.696 147.069 46.5312 147.236 46.321C147.404 46.108 147.488 45.8594 147.488 45.5753C147.488 45.3168 147.414 45.1051 147.266 44.9403C147.121 44.7756 146.924 44.6392 146.674 44.5312C146.426 44.4233 146.147 44.3281 145.834 44.2457L144.803 43.9645C144.104 43.7741 143.55 43.4943 143.141 43.125C142.735 42.7557 142.532 42.267 142.532 41.6591C142.532 41.1562 142.668 40.7173 142.941 40.3423C143.213 39.9673 143.583 39.6761 144.049 39.4688C144.515 39.2585 145.04 39.1534 145.625 39.1534C146.216 39.1534 146.738 39.2571 147.189 39.4645C147.644 39.6719 148.002 39.9574 148.263 40.321C148.525 40.6818 148.661 41.0966 148.672 41.5653H147.402ZM154.409 45.2855V41.4545H155.688V48H154.435V46.8665H154.366C154.216 47.2159 153.974 47.5071 153.642 47.7401C153.313 47.9702 152.902 48.0852 152.411 48.0852C151.99 48.0852 151.618 47.9929 151.294 47.8082C150.973 47.6207 150.72 47.3438 150.536 46.9773C150.354 46.6108 150.263 46.1577 150.263 45.6179V41.4545H151.537V45.4645C151.537 45.9105 151.661 46.2656 151.908 46.5298C152.155 46.794 152.476 46.9261 152.871 46.9261C153.109 46.9261 153.347 46.8665 153.582 46.7472C153.821 46.6278 154.018 46.4474 154.175 46.206C154.334 45.9645 154.412 45.6577 154.409 45.2855ZM157.502 48V39.2727H158.776V42.5156H158.853C158.926 42.3793 159.033 42.2216 159.172 42.0426C159.311 41.8636 159.505 41.7074 159.752 41.5739C159.999 41.4375 160.326 41.3693 160.732 41.3693C161.26 41.3693 161.732 41.5028 162.147 41.7699C162.561 42.0369 162.887 42.4219 163.123 42.9247C163.361 43.4276 163.48 44.0327 163.48 44.7401C163.48 45.4474 163.363 46.054 163.127 46.5597C162.891 47.0625 162.567 47.4503 162.155 47.723C161.743 47.9929 161.273 48.1278 160.745 48.1278C160.347 48.1278 160.022 48.0611 159.769 47.9276C159.519 47.794 159.323 47.6378 159.181 47.4588C159.039 47.2798 158.929 47.1207 158.853 46.9815H158.746V48H157.502ZM158.75 44.7273C158.75 45.1875 158.817 45.5909 158.951 45.9375C159.084 46.2841 159.277 46.5554 159.53 46.7514C159.783 46.9446 160.093 47.0412 160.459 47.0412C160.84 47.0412 161.158 46.9403 161.414 46.7386C161.669 46.5341 161.863 46.2571 161.993 45.9077C162.127 45.5582 162.194 45.1648 162.194 44.7273C162.194 44.2955 162.128 43.9077 161.998 43.5639C161.87 43.2202 161.676 42.9489 161.418 42.75C161.162 42.5511 160.843 42.4517 160.459 42.4517C160.09 42.4517 159.777 42.5469 159.522 42.7372C159.269 42.9276 159.077 43.1932 158.946 43.5341C158.816 43.875 158.75 44.2727 158.75 44.7273ZM169.773 41.5653C169.728 41.1619 169.54 40.8494 169.211 40.6278C168.881 40.4034 168.467 40.2912 167.967 40.2912C167.609 40.2912 167.299 40.348 167.038 40.4616C166.776 40.5724 166.573 40.7259 166.428 40.9219C166.286 41.1151 166.215 41.3352 166.215 41.5824C166.215 41.7898 166.263 41.9687 166.36 42.1193C166.46 42.2699 166.589 42.3963 166.748 42.4986C166.91 42.598 167.083 42.6818 167.268 42.75C167.452 42.8153 167.63 42.8693 167.8 42.9119L168.653 43.1335C168.931 43.2017 169.217 43.294 169.509 43.4105C169.802 43.527 170.073 43.6804 170.323 43.8707C170.573 44.0611 170.775 44.2969 170.928 44.5781C171.085 44.8594 171.163 45.196 171.163 45.5881C171.163 46.0824 171.035 46.5213 170.779 46.9048C170.526 47.2884 170.158 47.5909 169.675 47.8125C169.195 48.0341 168.614 48.1449 167.933 48.1449C167.279 48.1449 166.714 48.0412 166.237 47.8338C165.759 47.6264 165.386 47.3324 165.116 46.9517C164.846 46.5682 164.697 46.1136 164.668 45.5881H165.989C166.015 45.9034 166.117 46.1662 166.296 46.3764C166.478 46.5838 166.71 46.7386 166.991 46.8409C167.275 46.9403 167.586 46.9901 167.924 46.9901C168.296 46.9901 168.627 46.9318 168.917 46.8153C169.21 46.696 169.44 46.5312 169.607 46.321C169.775 46.108 169.859 45.8594 169.859 45.5753C169.859 45.3168 169.785 45.1051 169.637 44.9403C169.492 44.7756 169.295 44.6392 169.045 44.5312C168.798 44.4233 168.518 44.3281 168.205 44.2457L167.174 43.9645C166.475 43.7741 165.921 43.4943 165.512 43.125C165.106 42.7557 164.903 42.267 164.903 41.6591C164.903 41.1562 165.039 40.7173 165.312 40.3423C165.585 39.9673 165.954 39.6761 166.42 39.4688C166.886 39.2585 167.411 39.1534 167.996 39.1534C168.587 39.1534 169.109 39.2571 169.56 39.4645C170.015 39.6719 170.373 39.9574 170.634 40.321C170.896 40.6818 171.032 41.0966 171.043 41.5653H169.773ZM177.053 50.4545V46.9815H176.976C176.9 47.1207 176.789 47.2798 176.644 47.4588C176.502 47.6378 176.306 47.794 176.056 47.9276C175.806 48.0611 175.482 48.1278 175.084 48.1278C174.556 48.1278 174.084 47.9929 173.669 47.723C173.257 47.4503 172.934 47.0625 172.698 46.5597C172.465 46.054 172.348 45.4474 172.348 44.7401C172.348 44.0327 172.466 43.4276 172.702 42.9247C172.941 42.4219 173.267 42.0369 173.682 41.7699C174.097 41.5028 174.567 41.3693 175.093 41.3693C175.499 41.3693 175.826 41.4375 176.073 41.5739C176.323 41.7074 176.516 41.8636 176.652 42.0426C176.792 42.2216 176.9 42.3793 176.976 42.5156H177.083V41.4545H178.327V50.4545H177.053ZM175.365 47.0412C175.732 47.0412 176.042 46.9446 176.294 46.7514C176.55 46.5554 176.743 46.2841 176.874 45.9375C177.007 45.5909 177.074 45.1875 177.074 44.7273C177.074 44.2727 177.009 43.875 176.878 43.5341C176.748 43.1932 176.556 42.9276 176.303 42.7372C176.05 42.5469 175.738 42.4517 175.365 42.4517C174.982 42.4517 174.662 42.5511 174.407 42.75C174.151 42.9489 173.958 43.2202 173.827 43.5639C173.699 43.9077 173.635 44.2955 173.635 44.7273C173.635 45.1648 173.701 45.5582 173.831 45.9077C173.962 46.2571 174.155 46.5341 174.411 46.7386C174.669 46.9403 174.988 47.0412 175.365 47.0412ZM184.186 45.2855V41.4545H185.465V48H184.212V46.8665H184.144C183.993 47.2159 183.752 47.5071 183.419 47.7401C183.09 47.9702 182.679 48.0852 182.188 48.0852C181.767 48.0852 181.395 47.9929 181.071 47.8082C180.75 47.6207 180.498 47.3438 180.313 46.9773C180.131 46.6108 180.04 46.1577 180.04 45.6179V41.4545H181.314V45.4645C181.314 45.9105 181.438 46.2656 181.685 46.5298C181.932 46.794 182.253 46.9261 182.648 46.9261C182.887 46.9261 183.124 46.8665 183.36 46.7472C183.598 46.6278 183.796 46.4474 183.952 46.206C184.111 45.9645 184.189 45.6577 184.186 45.2855ZM189.082 48.1449C188.667 48.1449 188.292 48.0682 187.957 47.9148C187.621 47.7585 187.356 47.5327 187.16 47.2372C186.967 46.9418 186.87 46.5795 186.87 46.1506C186.87 45.7812 186.941 45.4773 187.083 45.2386C187.225 45 187.417 44.8111 187.658 44.6719C187.9 44.5327 188.17 44.4276 188.468 44.3565C188.766 44.2855 189.07 44.2315 189.38 44.1946C189.772 44.1491 190.09 44.1122 190.335 44.0838C190.579 44.0526 190.756 44.0028 190.867 43.9347C190.978 43.8665 191.033 43.7557 191.033 43.6023V43.5724C191.033 43.2003 190.928 42.9119 190.718 42.7074C190.511 42.5028 190.201 42.4006 189.789 42.4006C189.36 42.4006 189.022 42.4957 188.775 42.6861C188.531 42.8736 188.362 43.0824 188.268 43.3125L187.07 43.0398C187.212 42.642 187.42 42.321 187.692 42.0767C187.968 41.8295 188.285 41.6506 188.643 41.5398C189.001 41.4261 189.377 41.3693 189.772 41.3693C190.033 41.3693 190.31 41.4006 190.603 41.4631C190.898 41.5227 191.174 41.6335 191.43 41.7955C191.688 41.9574 191.9 42.1889 192.065 42.4901C192.229 42.7884 192.312 43.1761 192.312 43.6534V48H191.067V47.1051H191.016C190.934 47.2699 190.81 47.4318 190.646 47.5909C190.481 47.75 190.269 47.8821 190.011 47.9872C189.752 48.0923 189.442 48.1449 189.082 48.1449ZM189.359 47.1222C189.711 47.1222 190.012 47.0526 190.262 46.9134C190.515 46.7741 190.707 46.5923 190.837 46.3679C190.971 46.1406 191.038 45.8977 191.038 45.6392V44.7955C190.992 44.8409 190.904 44.8835 190.773 44.9233C190.646 44.9602 190.499 44.9929 190.335 45.0213C190.17 45.0469 190.009 45.071 189.853 45.0938C189.697 45.1136 189.566 45.1307 189.461 45.1449C189.214 45.1761 188.988 45.2287 188.783 45.3026C188.582 45.3764 188.42 45.483 188.298 45.6222C188.178 45.7585 188.119 45.9403 188.119 46.1676C188.119 46.483 188.235 46.7216 188.468 46.8835C188.701 47.0426 188.998 47.1222 189.359 47.1222ZM194.009 48V41.4545H195.24V42.4943H195.309C195.428 42.142 195.638 41.8651 195.939 41.6634C196.243 41.4588 196.587 41.3565 196.971 41.3565C197.05 41.3565 197.144 41.3594 197.252 41.3651C197.363 41.3707 197.449 41.3778 197.512 41.3864V42.6051C197.461 42.5909 197.37 42.5753 197.239 42.5582C197.108 42.5384 196.978 42.5284 196.847 42.5284C196.546 42.5284 196.277 42.5923 196.042 42.7202C195.809 42.8452 195.624 43.0199 195.488 43.2443C195.351 43.4659 195.283 43.7187 195.283 44.0028V48H194.009ZM201.201 48.1321C200.556 48.1321 200.001 47.9943 199.535 47.7188C199.072 47.4403 198.714 47.0497 198.461 46.5469C198.211 46.0412 198.086 45.4489 198.086 44.7699C198.086 44.0994 198.211 43.5085 198.461 42.9972C198.714 42.4858 199.066 42.0866 199.518 41.7997C199.972 41.5128 200.504 41.3693 201.112 41.3693C201.481 41.3693 201.839 41.4304 202.185 41.5526C202.532 41.6747 202.843 41.8665 203.119 42.1278C203.394 42.3892 203.612 42.7287 203.771 43.1463C203.93 43.5611 204.009 44.0653 204.009 44.6591V45.1108H198.806V44.1562H202.761C202.761 43.821 202.692 43.5241 202.556 43.2656C202.42 43.0043 202.228 42.7983 201.981 42.6477C201.737 42.4972 201.45 42.4219 201.12 42.4219C200.762 42.4219 200.45 42.5099 200.183 42.6861C199.918 42.8594 199.714 43.0866 199.569 43.3679C199.427 43.6463 199.356 43.9489 199.356 44.2756V45.0213C199.356 45.4588 199.433 45.831 199.586 46.1378C199.742 46.4446 199.96 46.679 200.238 46.8409C200.516 47 200.842 47.0795 201.214 47.0795C201.455 47.0795 201.675 47.0455 201.874 46.9773C202.073 46.9062 202.245 46.8011 202.39 46.6619C202.535 46.5227 202.646 46.3509 202.722 46.1463L203.928 46.3636C203.832 46.7187 203.658 47.0298 203.408 47.2969C203.161 47.5611 202.85 47.767 202.475 47.9148C202.103 48.0597 201.678 48.1321 201.201 48.1321Z" fill="white" fill-opacity="0.2"/>
<defs>
<linearGradient id="paint0_linear_13417_74808" x1="20.1455" y1="37.8502" x2="20.1455" y2="26.0931" gradientUnits="userSpaceOnUse">
<stop stop-color="#603211"/>
<stop offset="0.17" stop-color="#DD7D26"/>
<stop offset="0.35" stop-color="#603211"/>
<stop offset="0.54" stop-color="#9C3520"/>
<stop offset="0.77" stop-color="#DD7D26"/>
<stop offset="1" stop-color="#603211"/>
</linearGradient>
<clipPath id="clip0_13417_74808">
<rect width="40" height="40" fill="white" transform="translate(0 12)"/>
</clipPath>
</defs>
</svg>
