<svg width="234" height="64" viewBox="0 0 234 64" fill="none" xmlns="http://www.w3.org/2000/svg">
    <g clip-path="url(#clip0_5426_38273)">
        <path d="M2.48564 38.9982C1.11758 38.9982 0 37.9437 0 36.6529V25.3266C0 24.0358 1.11758 22.9995 2.48564 22.9995C3.85371 22.9995 4.97129 24.054 4.97129 25.3448V36.6711C4.95202 37.9437 3.85371 38.9982 2.48564 38.9982Z"
              fill="white"/>
        <path d="M12.9872 38.9982C12.255 38.9982 11.542 38.6892 11.0796 38.1619L6.06976 32.5078C5.29901 31.6352 5.29901 30.3808 6.06976 29.5081L11.0796 23.8358C11.9659 22.8359 13.5267 22.7087 14.5672 23.5268C15.6077 24.3449 15.7618 25.8357 14.8948 26.8174L11.2145 30.9989L14.8948 35.1622C15.7618 36.1621 15.627 37.6347 14.5672 38.4528C14.124 38.7982 13.5652 38.9982 12.9872 38.9982Z"
              fill="white"/>
        <path d="M29.4807 38.9982H18.9793C17.6112 38.9982 16.4937 37.9437 16.4937 36.6529V25.3266C16.4937 24.0358 17.6112 22.9813 18.9793 22.9813C20.3474 22.9813 21.4649 24.0358 21.4649 25.3266V34.3077H27.0143V25.3266C27.0143 24.0358 28.1319 22.9813 29.4999 22.9813C30.868 22.9813 31.9856 24.0358 31.9856 25.3266V36.6529C31.9663 37.9437 30.8487 38.9982 29.4807 38.9982Z"
              fill="white"/>
        <path d="M45.9938 38.9982H35.4925C34.1244 38.9618 33.0454 37.8892 33.0839 36.5984C33.1224 35.3621 34.1822 34.3622 35.4925 34.3258H43.5082V34.1986L34.7988 31.8533C33.739 31.5624 33.0068 30.6534 33.0068 29.599V25.3266C33.0068 24.0358 34.1244 22.9995 35.4925 22.9995H45.9938C47.3619 22.9995 48.4795 24.054 48.4795 25.3448C48.4795 26.6356 47.3619 27.69 45.9938 27.69H37.9781V27.8355L46.6875 30.1807C47.7473 30.4716 48.4795 31.3806 48.4795 32.4351V36.6711C48.4795 37.9619 47.3619 38.9982 45.9938 38.9982Z"
              fill="white"/>
        <path d="M80.5041 38.9982C79.136 38.9982 78.0377 37.9437 78.0377 36.6529V30.4171L76.8816 31.3624C75.9567 32.1078 74.5887 32.1078 73.6445 31.3624L72.4884 30.4171V36.6529C72.4884 37.9437 71.3708 38.9982 70.0027 38.9982C68.6347 38.9982 67.5171 37.9437 67.5171 36.6529V25.3266C67.5171 24.0358 68.6347 22.9813 70.0027 22.9813C70.6001 22.9813 71.1589 23.1813 71.6213 23.5449L75.2631 26.4901L78.8855 23.5449C79.926 22.7086 81.4868 22.8177 82.3924 23.7994C82.7778 24.2176 82.9898 24.763 82.9898 25.3266V36.6529C83.009 37.9437 81.8914 38.9982 80.5041 38.9982Z"
              fill="white"/>
        <path d="M63.9907 38.9982C62.6226 38.9982 61.5051 37.9437 61.5051 36.6529V34.6713L55.3199 27.6719H54.472V34.3077H58.2101C59.5782 34.344 60.6573 35.4167 60.6187 36.7075C60.5802 37.9437 59.5204 38.9436 58.2101 38.98H51.9864C50.6183 38.98 49.52 37.9255 49.52 36.6347V25.3266C49.52 24.0358 50.6376 22.9995 51.9864 22.9995H56.4952C57.2274 22.9995 57.9404 23.3086 58.4028 23.8358L65.8983 32.326C66.2644 32.7442 66.4764 33.2714 66.4764 33.8168V36.6529C66.4764 37.9437 65.378 38.9982 63.9907 38.9982Z"
              fill="white"/>
        <path d="M98.5202 38.9982C97.1522 38.9982 96.0346 37.9437 96.0346 36.6529V34.6713L89.8494 27.6719H88.9823V34.3077H92.7204C94.0885 34.344 95.1675 35.4167 95.129 36.7075C95.0904 37.9437 94.0307 38.9436 92.7204 38.98H86.5159C85.1478 38.98 84.0303 37.9255 84.0303 36.6347V25.3266C84.0303 24.0358 85.1478 22.9995 86.5159 22.9995H91.0248C91.757 22.9995 92.4506 23.3086 92.9323 23.8358L100.428 32.326C100.794 32.7442 101.006 33.2714 101.006 33.8168V36.6529C101.006 37.9619 99.8883 38.9982 98.5202 38.9982Z"
              fill="white"/>
        <path d="M54.3566 17.2908C54.1832 17.1454 53.9905 17.0363 53.7593 17C53.4702 16.9636 53.1812 17.1454 52.9885 17.2727C52.7958 17.3999 52.4105 17.7272 52.2563 17.8544C52.1022 17.9817 51.7168 18.0544 51.0809 18.418C50.4451 18.7816 47.9787 20.2724 47.9787 20.2724H48.6146L45.7435 21.6723H46.0326L45.6279 21.9632C45.8592 22.0177 46.0904 21.9814 46.3023 21.8723V21.9632C46.3023 21.9632 49.7129 20.6906 50.368 21.0178L49.9634 21.1269C50.0019 21.1269 50.6378 21.1632 50.6378 21.1632C50.6763 21.4178 50.8304 21.6541 51.0617 21.7814C51.447 22.0177 51.4663 22.1632 51.4663 22.1632C51.4663 22.1632 51.2736 22.2359 51.2736 22.345C51.6397 22.2359 52.0251 22.2359 52.3719 22.345C52.3719 22.345 52.3527 22.2359 52.0829 22.1632C51.8131 22.0541 51.5819 21.8905 51.4085 21.6541C51.2544 21.4541 51.1966 21.1996 51.2929 20.9633C51.3892 20.7269 51.7168 20.5997 52.3912 20.2724C53.1812 19.8906 53.3739 19.5997 53.4702 19.3634C53.5666 19.1271 53.7593 18.6907 53.8363 18.4726C53.9134 18.2726 54.0483 18.109 54.2217 17.9635C54.4337 17.8544 54.6649 17.7635 54.8768 17.6908C54.9154 17.709 54.4915 17.3817 54.3566 17.2908Z"
              fill="white"/>
    </g>
    <path d="M117 25V37" stroke="white" stroke-opacity="0.2"/>
    <path d="M141.896 24.224H144.264V28.768C143.656 29.2267 142.952 29.5787 142.152 29.824C141.352 30.0693 140.547 30.192 139.736 30.192C138.573 30.192 137.528 29.9467 136.6 29.456C135.672 28.9547 134.941 28.2667 134.408 27.392C133.885 26.5067 133.624 25.5093 133.624 24.4C133.624 23.2907 133.885 22.2987 134.408 21.424C134.941 20.5387 135.677 19.8507 136.616 19.36C137.555 18.8587 138.611 18.608 139.784 18.608C140.765 18.608 141.656 18.7733 142.456 19.104C143.256 19.4347 143.928 19.9147 144.472 20.544L142.808 22.08C142.008 21.2373 141.043 20.816 139.912 20.816C139.197 20.816 138.563 20.9653 138.008 21.264C137.453 21.5627 137.021 21.984 136.712 22.528C136.403 23.072 136.248 23.696 136.248 24.4C136.248 25.0933 136.403 25.712 136.712 26.256C137.021 26.8 137.448 27.2267 137.992 27.536C138.547 27.8347 139.176 27.984 139.88 27.984C140.627 27.984 141.299 27.824 141.896 27.504V24.224ZM150.592 30.128C149.685 30.128 148.869 29.9413 148.144 29.568C147.429 29.184 146.869 28.656 146.464 27.984C146.058 27.312 145.856 26.5493 145.856 25.696C145.856 24.8427 146.058 24.08 146.464 23.408C146.869 22.736 147.429 22.2133 148.144 21.84C148.869 21.456 149.685 21.264 150.592 21.264C151.498 21.264 152.309 21.456 153.024 21.84C153.738 22.2133 154.298 22.736 154.704 23.408C155.109 24.08 155.312 24.8427 155.312 25.696C155.312 26.5493 155.109 27.312 154.704 27.984C154.298 28.656 153.738 29.184 153.024 29.568C152.309 29.9413 151.498 30.128 150.592 30.128ZM150.592 28.08C151.232 28.08 151.754 27.8667 152.16 27.44C152.576 27.0027 152.784 26.4213 152.784 25.696C152.784 24.9707 152.576 24.3947 152.16 23.968C151.754 23.5307 151.232 23.312 150.592 23.312C149.952 23.312 149.424 23.5307 149.008 23.968C148.592 24.3947 148.384 24.9707 148.384 25.696C148.384 26.4213 148.592 27.0027 149.008 27.44C149.424 27.8667 149.952 28.08 150.592 28.08ZM165.29 21.392L161.658 30H159.082L155.466 21.392H158.042L160.426 27.248L162.89 21.392H165.29ZM174.506 25.728C174.506 25.76 174.49 25.984 174.458 26.4H167.946C168.063 26.9333 168.341 27.3547 168.778 27.664C169.215 27.9733 169.759 28.128 170.41 28.128C170.858 28.128 171.253 28.064 171.594 27.936C171.946 27.7973 172.271 27.584 172.57 27.296L173.898 28.736C173.087 29.664 171.903 30.128 170.346 30.128C169.375 30.128 168.517 29.9413 167.77 29.568C167.023 29.184 166.447 28.656 166.042 27.984C165.637 27.312 165.434 26.5493 165.434 25.696C165.434 24.8533 165.631 24.096 166.026 23.424C166.431 22.7413 166.981 22.2133 167.674 21.84C168.378 21.456 169.162 21.264 170.026 21.264C170.869 21.264 171.631 21.4453 172.314 21.808C172.997 22.1707 173.53 22.6933 173.914 23.376C174.309 24.048 174.506 24.832 174.506 25.728ZM170.042 23.152C169.477 23.152 169.002 23.312 168.618 23.632C168.234 23.952 167.999 24.3893 167.914 24.944H172.154C172.069 24.4 171.834 23.968 171.45 23.648C171.066 23.3173 170.597 23.152 170.042 23.152ZM178.552 22.528C178.85 22.112 179.25 21.7973 179.752 21.584C180.264 21.3707 180.85 21.264 181.512 21.264V23.568C181.234 23.5467 181.048 23.536 180.952 23.536C180.237 23.536 179.677 23.7387 179.272 24.144C178.866 24.5387 178.664 25.136 178.664 25.936V30H176.168V21.392H178.552V22.528ZM188.228 21.264C189.294 21.264 190.153 21.584 190.804 22.224C191.465 22.864 191.796 23.8133 191.796 25.072V30H189.3V25.456C189.3 24.7733 189.15 24.2667 188.852 23.936C188.553 23.5947 188.121 23.424 187.556 23.424C186.926 23.424 186.425 23.6213 186.052 24.016C185.678 24.4 185.492 24.976 185.492 25.744V30H182.996V21.392H185.38V22.4C185.71 22.0373 186.121 21.76 186.612 21.568C187.102 21.3653 187.641 21.264 188.228 21.264ZM197.53 21.264C198.864 21.264 199.888 21.584 200.602 22.224C201.317 22.8533 201.674 23.808 201.674 25.088V30H199.338V28.928C198.869 29.728 197.994 30.128 196.714 30.128C196.053 30.128 195.477 30.016 194.986 29.792C194.506 29.568 194.138 29.2587 193.882 28.864C193.626 28.4693 193.498 28.0213 193.498 27.52C193.498 26.72 193.797 26.0907 194.394 25.632C195.002 25.1733 195.936 24.944 197.194 24.944H199.178C199.178 24.4 199.013 23.984 198.682 23.696C198.352 23.3973 197.856 23.248 197.194 23.248C196.736 23.248 196.282 23.3227 195.834 23.472C195.397 23.6107 195.024 23.8027 194.714 24.048L193.818 22.304C194.288 21.9733 194.848 21.7173 195.498 21.536C196.16 21.3547 196.837 21.264 197.53 21.264ZM197.338 28.448C197.765 28.448 198.144 28.352 198.474 28.16C198.805 27.9573 199.04 27.664 199.178 27.28V26.4H197.466C196.442 26.4 195.93 26.736 195.93 27.408C195.93 27.728 196.053 27.984 196.298 28.176C196.554 28.3573 196.901 28.448 197.338 28.448ZM209.165 21.264C210.232 21.264 211.091 21.584 211.741 22.224C212.403 22.864 212.733 23.8133 212.733 25.072V30H210.237V25.456C210.237 24.7733 210.088 24.2667 209.789 23.936C209.491 23.5947 209.059 23.424 208.493 23.424C207.864 23.424 207.363 23.6213 206.989 24.016C206.616 24.4 206.429 24.976 206.429 25.744V30H203.933V21.392H206.317V22.4C206.648 22.0373 207.059 21.76 207.549 21.568C208.04 21.3653 208.579 21.264 209.165 21.264ZM219.25 30.128C218.332 30.128 217.506 29.9413 216.77 29.568C216.044 29.184 215.474 28.656 215.058 27.984C214.652 27.312 214.45 26.5493 214.45 25.696C214.45 24.8427 214.652 24.08 215.058 23.408C215.474 22.736 216.044 22.2133 216.77 21.84C217.506 21.456 218.332 21.264 219.25 21.264C220.156 21.264 220.946 21.456 221.618 21.84C222.3 22.2133 222.796 22.752 223.106 23.456L221.17 24.496C220.722 23.7067 220.076 23.312 219.234 23.312C218.583 23.312 218.044 23.5253 217.618 23.952C217.191 24.3787 216.978 24.96 216.978 25.696C216.978 26.432 217.191 27.0133 217.618 27.44C218.044 27.8667 218.583 28.08 219.234 28.08C220.087 28.08 220.732 27.6853 221.17 26.896L223.106 27.952C222.796 28.6347 222.3 29.168 221.618 29.552C220.946 29.936 220.156 30.128 219.25 30.128ZM232.865 25.728C232.865 25.76 232.849 25.984 232.817 26.4H226.305C226.423 26.9333 226.7 27.3547 227.137 27.664C227.575 27.9733 228.119 28.128 228.769 28.128C229.217 28.128 229.612 28.064 229.953 27.936C230.305 27.7973 230.631 27.584 230.929 27.296L232.257 28.736C231.447 29.664 230.263 30.128 228.705 30.128C227.735 30.128 226.876 29.9413 226.129 29.568C225.383 29.184 224.807 28.656 224.401 27.984C223.996 27.312 223.793 26.5493 223.793 25.696C223.793 24.8533 223.991 24.096 224.385 23.424C224.791 22.7413 225.34 22.2133 226.033 21.84C226.737 21.456 227.521 21.264 228.385 21.264C229.228 21.264 229.991 21.4453 230.673 21.808C231.356 22.1707 231.889 22.6933 232.273 23.376C232.668 24.048 232.865 24.832 232.865 25.728ZM228.401 23.152C227.836 23.152 227.361 23.312 226.977 23.632C226.593 23.952 226.359 24.3893 226.273 24.944H230.513C230.428 24.4 230.193 23.968 229.809 23.648C229.425 23.3173 228.956 23.152 228.401 23.152Z"
          fill="white"/>
    <path d="M137.858 39.5455C137.815 39.1856 137.643 38.9062 137.339 38.7074C137.036 38.5085 136.665 38.4091 136.224 38.4091C135.902 38.4091 135.621 38.4612 135.379 38.5653C135.14 38.6695 134.953 38.8127 134.818 38.995C134.686 39.1773 134.619 39.3845 134.619 39.6165C134.619 39.8106 134.665 39.9775 134.758 40.1172C134.853 40.2545 134.973 40.3693 135.12 40.4616C135.267 40.5516 135.421 40.6262 135.582 40.6854C135.743 40.7422 135.891 40.7884 136.026 40.8239L136.764 41.0227C136.954 41.0724 137.164 41.1411 137.396 41.2287C137.631 41.3163 137.854 41.4358 138.067 41.5874C138.283 41.7365 138.46 41.9283 138.6 42.1626C138.74 42.397 138.81 42.6847 138.81 43.0256C138.81 43.4186 138.707 43.7737 138.501 44.0909C138.297 44.4081 137.999 44.6603 137.606 44.8473C137.215 45.0343 136.741 45.1278 136.182 45.1278C135.661 45.1278 135.21 45.0438 134.829 44.8757C134.45 44.7076 134.152 44.4732 133.934 44.1726C133.719 43.8719 133.597 43.5227 133.568 43.125H134.477C134.501 43.3996 134.593 43.6269 134.754 43.8068C134.918 43.9844 135.124 44.117 135.372 44.2045C135.623 44.2898 135.893 44.3324 136.182 44.3324C136.518 44.3324 136.82 44.2779 137.087 44.169C137.355 44.0578 137.567 43.9039 137.723 43.7074C137.879 43.5085 137.957 43.2765 137.957 43.0114C137.957 42.7699 137.89 42.5734 137.755 42.4219C137.62 42.2704 137.442 42.1473 137.222 42.0526C137.002 41.9579 136.764 41.875 136.509 41.804L135.614 41.5483C135.045 41.3849 134.596 41.1518 134.264 40.8487C133.933 40.5457 133.767 40.1491 133.767 39.6591C133.767 39.2519 133.877 38.8968 134.097 38.5938C134.32 38.2884 134.618 38.0516 134.992 37.8835C135.369 37.7131 135.789 37.6278 136.253 37.6278C136.722 37.6278 137.138 37.7119 137.503 37.88C137.867 38.0457 138.156 38.273 138.369 38.5618C138.585 38.8506 138.698 39.1785 138.71 39.5455H137.858ZM143.581 42.7699V39.5455H144.42V45H143.581V44.0767H143.525C143.397 44.3537 143.198 44.5893 142.928 44.7834C142.658 44.9751 142.317 45.071 141.905 45.071C141.564 45.071 141.261 44.9964 140.996 44.8473C140.731 44.6958 140.523 44.4685 140.371 44.1655C140.22 43.8601 140.144 43.4754 140.144 43.0114V39.5455H140.982V42.9545C140.982 43.3523 141.093 43.6695 141.316 43.9062C141.541 44.143 141.827 44.2614 142.175 44.2614C142.384 44.2614 142.595 44.2081 142.811 44.1016C143.029 43.995 143.211 43.8317 143.358 43.6115C143.507 43.3913 143.581 43.1108 143.581 42.7699ZM146.068 45V37.7273H146.906V40.4119H146.977C147.039 40.3172 147.124 40.1965 147.233 40.0497C147.344 39.9006 147.503 39.768 147.709 39.652C147.917 39.5336 148.199 39.4744 148.554 39.4744C149.013 39.4744 149.418 39.5893 149.768 39.8189C150.119 40.0485 150.392 40.3741 150.589 40.7955C150.785 41.2169 150.884 41.714 150.884 42.2869C150.884 42.8646 150.785 43.3653 150.589 43.7891C150.392 44.2105 150.12 44.5372 149.772 44.7692C149.424 44.9988 149.023 45.1136 148.568 45.1136C148.218 45.1136 147.937 45.0556 147.727 44.9396C147.516 44.8213 147.354 44.6875 147.24 44.5384C147.126 44.3868 147.039 44.2614 146.977 44.1619H146.878V45H146.068ZM146.892 42.2727C146.892 42.6847 146.952 43.0481 147.073 43.3629C147.194 43.6754 147.37 43.9205 147.602 44.098C147.834 44.2732 148.118 44.3608 148.455 44.3608C148.805 44.3608 149.097 44.2685 149.332 44.0838C149.568 43.8968 149.746 43.6458 149.864 43.331C149.985 43.0137 150.045 42.661 150.045 42.2727C150.045 41.8892 149.986 41.5436 149.868 41.2358C149.752 40.9257 149.576 40.6806 149.339 40.5007C149.104 40.3184 148.81 40.2273 148.455 40.2273C148.114 40.2273 147.827 40.3137 147.595 40.4865C147.363 40.657 147.188 40.8961 147.07 41.2038C146.951 41.5092 146.892 41.8655 146.892 42.2727ZM156.256 39.5455C156.214 39.1856 156.041 38.9062 155.738 38.7074C155.435 38.5085 155.063 38.4091 154.623 38.4091C154.301 38.4091 154.019 38.4612 153.778 38.5653C153.539 38.6695 153.352 38.8127 153.217 38.995C153.084 39.1773 153.018 39.3845 153.018 39.6165C153.018 39.8106 153.064 39.9775 153.156 40.1172C153.251 40.2545 153.372 40.3693 153.518 40.4616C153.665 40.5516 153.819 40.6262 153.98 40.6854C154.141 40.7422 154.289 40.7884 154.424 40.8239L155.163 41.0227C155.352 41.0724 155.563 41.1411 155.795 41.2287C156.029 41.3163 156.253 41.4358 156.466 41.5874C156.681 41.7365 156.859 41.9283 156.999 42.1626C157.138 42.397 157.208 42.6847 157.208 43.0256C157.208 43.4186 157.105 43.7737 156.899 44.0909C156.696 44.4081 156.397 44.6603 156.004 44.8473C155.614 45.0343 155.139 45.1278 154.58 45.1278C154.059 45.1278 153.608 45.0438 153.227 44.8757C152.848 44.7076 152.55 44.4732 152.332 44.1726C152.117 43.8719 151.995 43.5227 151.967 43.125H152.876C152.899 43.3996 152.992 43.6269 153.153 43.8068C153.316 43.9844 153.522 44.117 153.771 44.2045C154.022 44.2898 154.291 44.3324 154.58 44.3324C154.916 44.3324 155.218 44.2779 155.486 44.169C155.753 44.0578 155.965 43.9039 156.121 43.7074C156.278 43.5085 156.356 43.2765 156.356 43.0114C156.356 42.7699 156.288 42.5734 156.153 42.4219C156.018 42.2704 155.841 42.1473 155.621 42.0526C155.401 41.9579 155.163 41.875 154.907 41.804L154.012 41.5483C153.444 41.3849 152.994 41.1518 152.663 40.8487C152.331 40.5457 152.165 40.1491 152.165 39.6591C152.165 39.2519 152.276 38.8968 152.496 38.5938C152.718 38.2884 153.017 38.0516 153.391 37.8835C153.767 37.7131 154.187 37.6278 154.651 37.6278C155.12 37.6278 155.537 37.7119 155.901 37.88C156.266 38.0457 156.555 38.273 156.768 38.5618C156.983 38.8506 157.097 39.1785 157.109 39.5455H156.256ZM162.264 47.0455V44.1619H162.193C162.131 44.2614 162.044 44.3868 161.93 44.5384C161.817 44.6875 161.654 44.8213 161.444 44.9396C161.233 45.0556 160.952 45.1136 160.602 45.1136C160.148 45.1136 159.746 44.9988 159.398 44.7692C159.05 44.5372 158.778 44.2105 158.581 43.7891C158.385 43.3653 158.287 42.8646 158.287 42.2869C158.287 41.714 158.385 41.2169 158.581 40.7955C158.778 40.3741 159.051 40.0485 159.402 39.8189C159.752 39.5893 160.157 39.4744 160.616 39.4744C160.971 39.4744 161.252 39.5336 161.458 39.652C161.666 39.768 161.825 39.9006 161.934 40.0497C162.045 40.1965 162.131 40.3172 162.193 40.4119H162.292V39.5455H163.102V47.0455H162.264ZM160.716 44.3608C161.052 44.3608 161.336 44.2732 161.568 44.098C161.8 43.9205 161.976 43.6754 162.097 43.3629C162.218 43.0481 162.278 42.6847 162.278 42.2727C162.278 41.8655 162.219 41.5092 162.101 41.2038C161.982 40.8961 161.807 40.657 161.575 40.4865C161.343 40.3137 161.057 40.2273 160.716 40.2273C160.361 40.2273 160.065 40.3184 159.828 40.5007C159.594 40.6806 159.417 40.9257 159.299 41.2358C159.183 41.5436 159.125 41.8892 159.125 42.2727C159.125 42.661 159.184 43.0137 159.302 43.331C159.423 43.6458 159.601 43.8968 159.835 44.0838C160.072 44.2685 160.365 44.3608 160.716 44.3608ZM168.074 42.7699V39.5455H168.912V45H168.074V44.0767H168.017C167.889 44.3537 167.69 44.5893 167.42 44.7834C167.15 44.9751 166.809 45.071 166.398 45.071C166.057 45.071 165.754 44.9964 165.488 44.8473C165.223 44.6958 165.015 44.4685 164.863 44.1655C164.712 43.8601 164.636 43.4754 164.636 43.0114V39.5455H165.474V42.9545C165.474 43.3523 165.586 43.6695 165.808 43.9062C166.033 44.143 166.319 44.2614 166.667 44.2614C166.876 44.2614 167.088 44.2081 167.303 44.1016C167.521 43.995 167.703 43.8317 167.85 43.6115C167.999 43.3913 168.074 43.1108 168.074 42.7699ZM172.052 45.1278C171.706 45.1278 171.393 45.0627 171.111 44.9325C170.829 44.8 170.605 44.6094 170.44 44.3608C170.274 44.1098 170.191 43.8068 170.191 43.4517C170.191 43.1392 170.253 42.8859 170.376 42.6918C170.499 42.4953 170.663 42.3414 170.869 42.2301C171.075 42.1188 171.303 42.036 171.551 41.9815C171.802 41.9247 172.054 41.8797 172.308 41.8466C172.639 41.804 172.908 41.772 173.114 41.7507C173.322 41.727 173.473 41.688 173.568 41.6335C173.665 41.5791 173.714 41.4844 173.714 41.3494V41.321C173.714 40.9706 173.618 40.6984 173.426 40.5043C173.237 40.3101 172.949 40.2131 172.563 40.2131C172.163 40.2131 171.849 40.3007 171.622 40.4759C171.395 40.651 171.235 40.8381 171.143 41.0369L170.347 40.7528C170.489 40.4214 170.679 40.1634 170.915 39.9787C171.155 39.7917 171.415 39.6615 171.697 39.5881C171.981 39.5123 172.26 39.4744 172.535 39.4744C172.71 39.4744 172.911 39.4957 173.138 39.5384C173.368 39.5786 173.589 39.6626 173.803 39.7905C174.018 39.9183 174.197 40.1113 174.339 40.3693C174.481 40.6274 174.552 40.973 174.552 41.4062V45H173.714V44.2614H173.671C173.614 44.3797 173.52 44.5064 173.387 44.6413C173.254 44.7763 173.078 44.8911 172.858 44.9858C172.638 45.0805 172.369 45.1278 172.052 45.1278ZM172.18 44.375C172.511 44.375 172.79 44.3099 173.018 44.1797C173.247 44.0495 173.42 43.8814 173.536 43.6754C173.655 43.4695 173.714 43.2528 173.714 43.0256V42.2585C173.678 42.3011 173.6 42.3402 173.479 42.3757C173.361 42.4089 173.224 42.4384 173.067 42.4645C172.914 42.4882 172.763 42.5095 172.616 42.5284C172.472 42.545 172.355 42.5592 172.265 42.571C172.047 42.5994 171.844 42.6456 171.654 42.7095C171.467 42.7711 171.316 42.8646 171.2 42.9901C171.086 43.1132 171.029 43.2812 171.029 43.4943C171.029 43.7855 171.137 44.0057 171.352 44.1548C171.57 44.3016 171.846 44.375 172.18 44.375ZM176.081 45V39.5455H176.891V40.3693H176.948C177.047 40.0994 177.227 39.8804 177.488 39.7124C177.748 39.5443 178.042 39.4602 178.368 39.4602C178.43 39.4602 178.507 39.4614 178.599 39.4638C178.692 39.4661 178.761 39.4697 178.809 39.4744V40.3267C178.78 40.3196 178.715 40.3089 178.613 40.2947C178.514 40.2782 178.409 40.2699 178.297 40.2699C178.032 40.2699 177.796 40.3255 177.587 40.4368C177.381 40.5457 177.218 40.6972 177.097 40.8913C176.979 41.0831 176.92 41.3021 176.92 41.5483V45H176.081ZM181.923 45.1136C181.398 45.1136 180.944 44.9976 180.563 44.7656C180.184 44.5312 179.892 44.2045 179.686 43.7855C179.482 43.3641 179.381 42.8741 179.381 42.3153C179.381 41.7566 179.482 41.2642 179.686 40.8381C179.892 40.4096 180.178 40.0758 180.545 39.8366C180.915 39.5952 181.345 39.4744 181.838 39.4744C182.122 39.4744 182.403 39.5218 182.68 39.6165C182.956 39.7112 183.209 39.8651 183.436 40.0781C183.663 40.2888 183.844 40.5682 183.979 40.9162C184.114 41.2642 184.182 41.6927 184.182 42.2017V42.5568H179.977V41.8324H183.329C183.329 41.5246 183.268 41.25 183.145 41.0085C183.024 40.767 182.851 40.5765 182.626 40.4368C182.404 40.2971 182.141 40.2273 181.838 40.2273C181.504 40.2273 181.215 40.3101 180.971 40.4759C180.73 40.6392 180.544 40.8523 180.414 41.1151C180.284 41.3778 180.219 41.6596 180.219 41.9602V42.4432C180.219 42.8551 180.29 43.2043 180.432 43.4908C180.576 43.7749 180.776 43.9915 181.032 44.1406C181.287 44.2874 181.585 44.3608 181.923 44.3608C182.143 44.3608 182.342 44.33 182.52 44.2685C182.7 44.2045 182.855 44.1098 182.985 43.9844C183.115 43.8565 183.216 43.6979 183.287 43.5085L184.096 43.7358C184.011 44.0104 183.868 44.2519 183.667 44.4602C183.465 44.6662 183.217 44.8272 182.921 44.9432C182.625 45.0568 182.292 45.1136 181.923 45.1136Z"
          fill="white" fill-opacity="0.4"/>
    <defs>
        <clipPath id="clip0_5426_38273">
            <rect width="101" height="22" fill="white" transform="translate(0 17)"/>
        </clipPath>
    </defs>
</svg>
