<svg width="258" height="64" viewBox="0 0 258 64" fill="none" xmlns="http://www.w3.org/2000/svg">
    <path d="M32.7407 31.2907L30.5458 29.2382L28.4181 31.6053C27.611 32.5032 26.4363 32.9614 25.2475 32.8414L24.6905 32.7854C23.898 32.7055 23.115 33.0107 22.5768 33.6095L14.1523 42.9823L16.3474 45.0349L25.9622 34.3376C26.583 33.6468 27.5223 33.3536 28.4158 33.5719L28.8335 33.6737C29.727 33.892 30.6662 33.5987 31.2871 32.908L32.7407 31.2907Z"
          fill="url(#paint0_linear_12600_61559)"/>
    <path d="M28.024 26.879L25.8288 24.8264L21.4653 29.6812C20.6582 30.5792 19.4835 31.0373 18.2947 30.9174L17.7377 30.8613C16.9452 30.7814 16.1621 31.0867 15.6239 31.6854L9.43555 38.5704L11.6306 40.623L19.0094 32.4137C19.6302 31.7228 20.5695 31.4296 21.4633 31.6477L21.8807 31.7497C22.7742 31.9678 23.7134 31.6746 24.3342 30.9839L28.024 26.879Z"
          fill="url(#paint1_linear_12600_61559)"/>
    <path d="M23.3052 22.467L21.11 20.4144L14.5106 27.7568C13.7034 28.6549 12.5288 29.1129 11.3401 28.9931L10.7829 28.9369C9.99046 28.8571 9.20738 29.1624 8.66926 29.7611L4.7168 34.1586L6.91182 36.211L12.0547 30.4892C12.6756 29.7984 13.6149 29.5053 14.5084 29.7234L14.926 29.8253C15.8195 30.0435 16.7588 29.7503 17.3796 29.0595L23.3052 22.467Z"
          fill="url(#paint2_linear_12600_61559)"/>
    <path d="M18.5883 18.055L16.3933 16.0024L7.55789 25.8325C6.7507 26.7306 5.57607 27.1886 4.38739 27.0688L3.83019 27.0126C3.03772 26.9327 2.25465 27.2381 1.71653 27.8368L0 29.7465L2.19505 31.7991L5.10198 28.5649C5.72286 27.8741 6.66215 27.581 7.55569 27.7991L7.97322 27.901C8.86679 28.1191 9.80604 27.826 10.4269 27.1352L18.5883 18.055Z"
          fill="url(#paint3_linear_12600_61559)"/>
    <path d="M51.9238 27.5718L51.8981 40.5112H54.7143L54.74 27.5718H51.9238Z" fill="white"/>
    <path d="M52.1266 24.6216C52.4647 24.9494 52.8625 25.1133 53.319 25.1133C53.7756 25.1133 54.1645 24.9494 54.4863 24.6216C54.8244 24.2765 54.9932 23.8711 54.9932 23.4053C54.9932 22.9394 54.8244 22.5427 54.4863 22.2148C54.1645 21.887 53.7756 21.7231 53.319 21.7231C52.8625 21.7231 52.4647 21.887 52.1266 22.2148C51.8053 22.5427 51.6444 22.9394 51.6444 23.4053C51.6444 23.8711 51.8053 24.2765 52.1266 24.6216Z"
          fill="white"/>
    <path d="M39.0527 22.396V40.5113H50.039V37.7679H41.9958V22.396H39.0527Z" fill="white"/>
    <path d="M62.6049 40.8218C61.2689 40.8218 60.2457 40.4853 59.535 39.8124C58.8415 39.1225 58.4951 38.1391 58.4951 36.8624V30.0562H56.389V27.5718H58.4951V23.5347H61.3108V27.5718H64.7367V30.0562H61.3108V36.3188C61.3108 36.9228 61.4466 37.3798 61.717 37.6903C62.0048 38.0011 62.4188 38.1563 62.9603 38.1563C63.1296 38.1563 63.3157 38.1216 63.5185 38.0527C63.7214 37.9839 63.9499 37.8543 64.2036 37.6646L65.2435 39.8643C65.0429 40.0059 64.8428 40.1313 64.6422 40.2406C64.4031 40.371 64.1639 40.4785 63.9248 40.5629C63.485 40.7354 63.0447 40.8218 62.6049 40.8218Z"
          fill="white"/>
    <path fill-rule="evenodd" clip-rule="evenodd"
          d="M68.9086 39.9679C69.8725 40.5372 70.9721 40.8218 72.2071 40.8218C73.1542 40.8218 74.0086 40.6837 74.7696 40.4076C75.5307 40.1316 76.1817 39.7347 76.7232 39.2173C77.2646 38.6997 77.7128 38.0959 78.0676 37.4058L75.4547 36.2671C75.1837 36.8192 74.8032 37.2765 74.3126 37.6386C73.8219 37.9838 73.2045 38.1563 72.4607 38.1563C71.7841 38.1563 71.1666 38.0011 70.6084 37.6903C70.0669 37.3626 69.6361 36.8968 69.3142 36.2931C69.0745 35.8426 68.9248 35.325 68.8639 34.7403H78.3218C78.3218 33.1876 78.0508 31.8504 77.5099 30.729C76.9852 29.6076 76.2661 28.7536 75.353 28.167C74.4394 27.5631 73.4247 27.2612 72.3082 27.2612C71.0398 27.2612 69.9233 27.5545 68.9594 28.1411C67.9949 28.7105 67.2339 29.5041 66.6757 30.522C66.1174 31.5399 65.8386 32.7131 65.8386 34.0414C65.8386 35.3701 66.1091 36.5432 66.6505 37.561C67.192 38.5789 67.9441 39.3811 68.9086 39.9679ZM75.2206 32.4371C75.1776 32.2736 75.1284 32.1183 75.0736 31.9712C74.8205 31.2466 74.4483 30.7117 73.9577 30.3667C73.4671 30.0044 72.8832 29.8232 72.2071 29.8232C71.4963 29.8232 70.8878 29.9871 70.3804 30.3149C69.8898 30.6427 69.5087 31.1258 69.2382 31.7641C69.1483 31.9703 69.0734 32.1947 69.0136 32.4371H75.2206Z"
          fill="white"/>
    <path d="M79.8825 40.5112V27.5718H82.5468L82.6809 29.3714C83.0167 28.818 83.4286 28.3734 83.9164 28.0376C84.6439 27.52 85.5067 27.2612 86.5047 27.2612C88.0436 27.2612 89.2276 27.7443 90.0569 28.7105C90.9023 29.6594 91.3253 31.1258 91.3253 33.11V40.5112H88.4833V33.8862C88.4833 32.8511 88.3654 32.0574 88.1285 31.5053C87.9083 30.936 87.587 30.5392 87.164 30.3149C86.7584 30.0907 86.2761 29.9785 85.7179 29.9785C84.7708 29.9612 84.0348 30.2805 83.5107 30.936C82.9866 31.5916 82.7239 32.5319 82.7239 33.7569V40.5112H79.8825Z"
          fill="white"/>
    <path d="M95.4212 39.8124C96.132 40.4853 97.1551 40.8218 98.4917 40.8218C98.9315 40.8218 99.3712 40.7354 99.811 40.5629C100.251 40.4076 100.691 40.1748 101.13 39.8643L100.09 37.6646C99.9496 37.7696 99.8171 37.8561 99.692 37.9241C99.6495 37.9472 99.6082 37.9682 99.5674 37.987C99.5115 38.013 99.4573 38.0349 99.4048 38.0527C99.2019 38.1216 99.0158 38.1563 98.8465 38.1563C98.3051 38.1563 97.891 38.0011 97.6032 37.6903C97.3328 37.3798 97.1976 36.9228 97.1976 36.3188V30.0562H100.623V27.5718H97.1976V23.5347H94.3813V27.5718H92.2752V30.0562H94.3813V36.8624C94.3813 38.1391 94.7277 39.1225 95.4212 39.8124Z"
          fill="white"/>
    <path d="M105.379 40.5113V33.5757C105.379 32.782 105.59 32.1437 106.013 31.6607C106.436 31.1776 106.985 30.8325 107.662 30.6255C108.355 30.4012 109.091 30.2891 109.869 30.2891V27.52C108.956 27.52 108.077 27.7443 107.231 28.1929C106.492 28.577 105.875 29.1458 105.379 29.8992V27.5718H102.537V40.5113H105.379Z"
          fill="white"/>
    <path d="M112.895 45.7648C113.403 45.92 113.86 45.9976 114.266 45.9976C115.112 45.9976 115.805 45.8249 116.346 45.48C116.887 45.1523 117.336 44.6778 117.691 44.0565C118.063 43.4355 118.427 42.711 118.782 41.8828L124.668 27.5718H121.573L117.814 37.1439L113.936 27.5718H110.84L116.48 40.4122L115.788 42.064C115.618 42.4781 115.39 42.7886 115.103 42.9955C114.832 43.2199 114.494 43.3319 114.088 43.3319C113.992 43.3319 113.879 43.3152 113.75 43.2817C113.653 43.2563 113.545 43.2213 113.429 43.1767C113.158 43.0906 112.861 42.9698 112.54 42.8145L111.474 45.1695C111.932 45.4111 112.405 45.6092 112.895 45.7648Z"
          fill="white"/>
    <path d="M140.668 25V37" stroke="white" stroke-opacity="0.2"/>
    <path d="M165.564 24.224H167.932V28.768C167.324 29.2267 166.62 29.5787 165.82 29.824C165.02 30.0693 164.215 30.192 163.404 30.192C162.241 30.192 161.196 29.9467 160.268 29.456C159.34 28.9547 158.609 28.2667 158.076 27.392C157.553 26.5067 157.292 25.5093 157.292 24.4C157.292 23.2907 157.553 22.2987 158.076 21.424C158.609 20.5387 159.345 19.8507 160.284 19.36C161.223 18.8587 162.279 18.608 163.452 18.608C164.433 18.608 165.324 18.7733 166.124 19.104C166.924 19.4347 167.596 19.9147 168.14 20.544L166.476 22.08C165.676 21.2373 164.711 20.816 163.58 20.816C162.865 20.816 162.231 20.9653 161.676 21.264C161.121 21.5627 160.689 21.984 160.38 22.528C160.071 23.072 159.916 23.696 159.916 24.4C159.916 25.0933 160.071 25.712 160.38 26.256C160.689 26.8 161.116 27.2267 161.66 27.536C162.215 27.8347 162.844 27.984 163.548 27.984C164.295 27.984 164.967 27.824 165.564 27.504V24.224ZM174.26 30.128C173.353 30.128 172.537 29.9413 171.812 29.568C171.097 29.184 170.537 28.656 170.132 27.984C169.726 27.312 169.524 26.5493 169.524 25.696C169.524 24.8427 169.726 24.08 170.132 23.408C170.537 22.736 171.097 22.2133 171.812 21.84C172.537 21.456 173.353 21.264 174.26 21.264C175.166 21.264 175.977 21.456 176.692 21.84C177.406 22.2133 177.966 22.736 178.372 23.408C178.777 24.08 178.98 24.8427 178.98 25.696C178.98 26.5493 178.777 27.312 178.372 27.984C177.966 28.656 177.406 29.184 176.692 29.568C175.977 29.9413 175.166 30.128 174.26 30.128ZM174.26 28.08C174.9 28.08 175.422 27.8667 175.828 27.44C176.244 27.0027 176.452 26.4213 176.452 25.696C176.452 24.9707 176.244 24.3947 175.828 23.968C175.422 23.5307 174.9 23.312 174.26 23.312C173.62 23.312 173.092 23.5307 172.676 23.968C172.26 24.3947 172.052 24.9707 172.052 25.696C172.052 26.4213 172.26 27.0027 172.676 27.44C173.092 27.8667 173.62 28.08 174.26 28.08ZM188.958 21.392L185.326 30H182.75L179.134 21.392H181.71L184.094 27.248L186.558 21.392H188.958ZM198.174 25.728C198.174 25.76 198.158 25.984 198.126 26.4H191.614C191.731 26.9333 192.009 27.3547 192.446 27.664C192.883 27.9733 193.427 28.128 194.078 28.128C194.526 28.128 194.921 28.064 195.262 27.936C195.614 27.7973 195.939 27.584 196.238 27.296L197.566 28.736C196.755 29.664 195.571 30.128 194.014 30.128C193.043 30.128 192.185 29.9413 191.438 29.568C190.691 29.184 190.115 28.656 189.71 27.984C189.305 27.312 189.102 26.5493 189.102 25.696C189.102 24.8533 189.299 24.096 189.694 23.424C190.099 22.7413 190.649 22.2133 191.342 21.84C192.046 21.456 192.83 21.264 193.694 21.264C194.537 21.264 195.299 21.4453 195.982 21.808C196.665 22.1707 197.198 22.6933 197.582 23.376C197.977 24.048 198.174 24.832 198.174 25.728ZM193.71 23.152C193.145 23.152 192.67 23.312 192.286 23.632C191.902 23.952 191.667 24.3893 191.582 24.944H195.822C195.737 24.4 195.502 23.968 195.118 23.648C194.734 23.3173 194.265 23.152 193.71 23.152ZM202.22 22.528C202.518 22.112 202.918 21.7973 203.42 21.584C203.932 21.3707 204.518 21.264 205.18 21.264V23.568C204.902 23.5467 204.716 23.536 204.62 23.536C203.905 23.536 203.345 23.7387 202.94 24.144C202.534 24.5387 202.332 25.136 202.332 25.936V30H199.836V21.392H202.22V22.528ZM211.896 21.264C212.962 21.264 213.821 21.584 214.472 22.224C215.133 22.864 215.464 23.8133 215.464 25.072V30H212.968V25.456C212.968 24.7733 212.818 24.2667 212.52 23.936C212.221 23.5947 211.789 23.424 211.224 23.424C210.594 23.424 210.093 23.6213 209.72 24.016C209.346 24.4 209.16 24.976 209.16 25.744V30H206.664V21.392H209.048V22.4C209.378 22.0373 209.789 21.76 210.28 21.568C210.77 21.3653 211.309 21.264 211.896 21.264ZM221.198 21.264C222.532 21.264 223.556 21.584 224.27 22.224C224.985 22.8533 225.342 23.808 225.342 25.088V30H223.006V28.928C222.537 29.728 221.662 30.128 220.382 30.128C219.721 30.128 219.145 30.016 218.654 29.792C218.174 29.568 217.806 29.2587 217.55 28.864C217.294 28.4693 217.166 28.0213 217.166 27.52C217.166 26.72 217.465 26.0907 218.062 25.632C218.67 25.1733 219.604 24.944 220.862 24.944H222.846C222.846 24.4 222.681 23.984 222.35 23.696C222.02 23.3973 221.524 23.248 220.862 23.248C220.404 23.248 219.95 23.3227 219.502 23.472C219.065 23.6107 218.692 23.8027 218.382 24.048L217.486 22.304C217.956 21.9733 218.516 21.7173 219.166 21.536C219.828 21.3547 220.505 21.264 221.198 21.264ZM221.006 28.448C221.433 28.448 221.812 28.352 222.142 28.16C222.473 27.9573 222.708 27.664 222.846 27.28V26.4H221.134C220.11 26.4 219.598 26.736 219.598 27.408C219.598 27.728 219.721 27.984 219.966 28.176C220.222 28.3573 220.569 28.448 221.006 28.448ZM232.833 21.264C233.9 21.264 234.759 21.584 235.409 22.224C236.071 22.864 236.401 23.8133 236.401 25.072V30H233.905V25.456C233.905 24.7733 233.756 24.2667 233.457 23.936C233.159 23.5947 232.727 23.424 232.161 23.424C231.532 23.424 231.031 23.6213 230.657 24.016C230.284 24.4 230.097 24.976 230.097 25.744V30H227.601V21.392H229.985V22.4C230.316 22.0373 230.727 21.76 231.217 21.568C231.708 21.3653 232.247 21.264 232.833 21.264ZM242.917 30.128C242 30.128 241.173 29.9413 240.437 29.568C239.712 29.184 239.141 28.656 238.725 27.984C238.32 27.312 238.117 26.5493 238.117 25.696C238.117 24.8427 238.32 24.08 238.725 23.408C239.141 22.736 239.712 22.2133 240.437 21.84C241.173 21.456 242 21.264 242.917 21.264C243.824 21.264 244.613 21.456 245.285 21.84C245.968 22.2133 246.464 22.752 246.773 23.456L244.837 24.496C244.389 23.7067 243.744 23.312 242.901 23.312C242.251 23.312 241.712 23.5253 241.285 23.952C240.859 24.3787 240.645 24.96 240.645 25.696C240.645 26.432 240.859 27.0133 241.285 27.44C241.712 27.8667 242.251 28.08 242.901 28.08C243.755 28.08 244.4 27.6853 244.837 26.896L246.773 27.952C246.464 28.6347 245.968 29.168 245.285 29.552C244.613 29.936 243.824 30.128 242.917 30.128ZM256.533 25.728C256.533 25.76 256.517 25.984 256.485 26.4H249.973C250.091 26.9333 250.368 27.3547 250.805 27.664C251.243 27.9733 251.787 28.128 252.437 28.128C252.885 28.128 253.28 28.064 253.621 27.936C253.973 27.7973 254.299 27.584 254.597 27.296L255.925 28.736C255.115 29.664 253.931 30.128 252.373 30.128C251.403 30.128 250.544 29.9413 249.797 29.568C249.051 29.184 248.475 28.656 248.069 27.984C247.664 27.312 247.461 26.5493 247.461 25.696C247.461 24.8533 247.659 24.096 248.053 23.424C248.459 22.7413 249.008 22.2133 249.701 21.84C250.405 21.456 251.189 21.264 252.053 21.264C252.896 21.264 253.659 21.4453 254.341 21.808C255.024 22.1707 255.557 22.6933 255.941 23.376C256.336 24.048 256.533 24.832 256.533 25.728ZM252.069 23.152C251.504 23.152 251.029 23.312 250.645 23.632C250.261 23.952 250.027 24.3893 249.941 24.944H254.181C254.096 24.4 253.861 23.968 253.477 23.648C253.093 23.3173 252.624 23.152 252.069 23.152Z"
          fill="white"/>
    <path d="M161.526 39.5455C161.483 39.1856 161.31 38.9062 161.007 38.7074C160.704 38.5085 160.333 38.4091 159.892 38.4091C159.57 38.4091 159.289 38.4612 159.047 38.5653C158.808 38.6695 158.621 38.8127 158.486 38.995C158.354 39.1773 158.287 39.3845 158.287 39.6165C158.287 39.8106 158.333 39.9775 158.426 40.1172C158.52 40.2545 158.641 40.3693 158.788 40.4616C158.935 40.5516 159.089 40.6262 159.25 40.6854C159.411 40.7422 159.559 40.7884 159.694 40.8239L160.432 41.0227C160.622 41.0724 160.832 41.1411 161.064 41.2287C161.299 41.3163 161.522 41.4358 161.735 41.5874C161.951 41.7365 162.128 41.9283 162.268 42.1626C162.408 42.397 162.478 42.6847 162.478 43.0256C162.478 43.4186 162.375 43.7737 162.169 44.0909C161.965 44.4081 161.667 44.6603 161.274 44.8473C160.883 45.0343 160.408 45.1278 159.85 45.1278C159.329 45.1278 158.878 45.0438 158.497 44.8757C158.118 44.7076 157.82 44.4732 157.602 44.1726C157.386 43.8719 157.265 43.5227 157.236 43.125H158.145C158.169 43.3996 158.261 43.6269 158.422 43.8068C158.586 43.9844 158.792 44.117 159.04 44.2045C159.291 44.2898 159.561 44.3324 159.85 44.3324C160.186 44.3324 160.488 44.2779 160.755 44.169C161.023 44.0578 161.235 43.9039 161.391 43.7074C161.547 43.5085 161.625 43.2765 161.625 43.0114C161.625 42.7699 161.558 42.5734 161.423 42.4219C161.288 42.2704 161.11 42.1473 160.89 42.0526C160.67 41.9579 160.432 41.875 160.176 41.804L159.282 41.5483C158.713 41.3849 158.264 41.1518 157.932 40.8487C157.601 40.5457 157.435 40.1491 157.435 39.6591C157.435 39.2519 157.545 38.8968 157.765 38.5938C157.988 38.2884 158.286 38.0516 158.66 37.8835C159.037 37.7131 159.457 37.6278 159.921 37.6278C160.39 37.6278 160.806 37.7119 161.171 37.88C161.535 38.0457 161.824 38.273 162.037 38.5618C162.253 38.8506 162.366 39.1785 162.378 39.5455H161.526ZM167.249 42.7699V39.5455H168.088V45H167.249V44.0767H167.193C167.065 44.3537 166.866 44.5893 166.596 44.7834C166.326 44.9751 165.985 45.071 165.573 45.071C165.232 45.071 164.929 44.9964 164.664 44.8473C164.399 44.6958 164.191 44.4685 164.039 44.1655C163.888 43.8601 163.812 43.4754 163.812 43.0114V39.5455H164.65V42.9545C164.65 43.3523 164.761 43.6695 164.984 43.9062C165.209 44.143 165.495 44.2614 165.843 44.2614C166.052 44.2614 166.263 44.2081 166.479 44.1016C166.697 43.995 166.879 43.8317 167.026 43.6115C167.175 43.3913 167.249 43.1108 167.249 42.7699ZM169.736 45V37.7273H170.574V40.4119H170.645C170.707 40.3172 170.792 40.1965 170.901 40.0497C171.012 39.9006 171.171 39.768 171.377 39.652C171.585 39.5336 171.867 39.4744 172.222 39.4744C172.681 39.4744 173.086 39.5893 173.436 39.8189C173.787 40.0485 174.06 40.3741 174.257 40.7955C174.453 41.2169 174.551 41.714 174.551 42.2869C174.551 42.8646 174.453 43.3653 174.257 43.7891C174.06 44.2105 173.788 44.5372 173.44 44.7692C173.092 44.9988 172.691 45.1136 172.236 45.1136C171.886 45.1136 171.605 45.0556 171.395 44.9396C171.184 44.8213 171.022 44.6875 170.908 44.5384C170.794 44.3868 170.707 44.2614 170.645 44.1619H170.546V45H169.736ZM170.56 42.2727C170.56 42.6847 170.62 43.0481 170.741 43.3629C170.862 43.6754 171.038 43.9205 171.27 44.098C171.502 44.2732 171.786 44.3608 172.123 44.3608C172.473 44.3608 172.765 44.2685 173 44.0838C173.236 43.8968 173.414 43.6458 173.532 43.331C173.653 43.0137 173.713 42.661 173.713 42.2727C173.713 41.8892 173.654 41.5436 173.536 41.2358C173.42 40.9257 173.243 40.6806 173.007 40.5007C172.772 40.3184 172.478 40.2273 172.123 40.2273C171.782 40.2273 171.495 40.3137 171.263 40.4865C171.031 40.657 170.856 40.8961 170.738 41.2038C170.619 41.5092 170.56 41.8655 170.56 42.2727ZM179.924 39.5455C179.882 39.1856 179.709 38.9062 179.406 38.7074C179.103 38.5085 178.731 38.4091 178.291 38.4091C177.969 38.4091 177.687 38.4612 177.446 38.5653C177.207 38.6695 177.02 38.8127 176.885 38.995C176.752 39.1773 176.686 39.3845 176.686 39.6165C176.686 39.8106 176.732 39.9775 176.824 40.1172C176.919 40.2545 177.04 40.3693 177.186 40.4616C177.333 40.5516 177.487 40.6262 177.648 40.6854C177.809 40.7422 177.957 40.7884 178.092 40.8239L178.831 41.0227C179.02 41.0724 179.231 41.1411 179.463 41.2287C179.697 41.3163 179.921 41.4358 180.134 41.5874C180.349 41.7365 180.527 41.9283 180.667 42.1626C180.806 42.397 180.876 42.6847 180.876 43.0256C180.876 43.4186 180.773 43.7737 180.567 44.0909C180.364 44.4081 180.065 44.6603 179.672 44.8473C179.282 45.0343 178.807 45.1278 178.248 45.1278C177.727 45.1278 177.276 45.0438 176.895 44.8757C176.516 44.7076 176.218 44.4732 176 44.1726C175.785 43.8719 175.663 43.5227 175.635 43.125H176.544C176.567 43.3996 176.66 43.6269 176.821 43.8068C176.984 43.9844 177.19 44.117 177.439 44.2045C177.69 44.2898 177.959 44.3324 178.248 44.3324C178.584 44.3324 178.886 44.2779 179.154 44.169C179.421 44.0578 179.633 43.9039 179.789 43.7074C179.946 43.5085 180.024 43.2765 180.024 43.0114C180.024 42.7699 179.956 42.5734 179.821 42.4219C179.686 42.2704 179.509 42.1473 179.289 42.0526C179.069 41.9579 178.831 41.875 178.575 41.804L177.68 41.5483C177.112 41.3849 176.662 41.1518 176.331 40.8487C175.999 40.5457 175.833 40.1491 175.833 39.6591C175.833 39.2519 175.944 38.8968 176.164 38.5938C176.386 38.2884 176.685 38.0516 177.059 37.8835C177.435 37.7131 177.855 37.6278 178.319 37.6278C178.788 37.6278 179.205 37.7119 179.569 37.88C179.934 38.0457 180.223 38.273 180.436 38.5618C180.651 38.8506 180.765 39.1785 180.777 39.5455H179.924ZM185.932 47.0455V44.1619H185.861C185.799 44.2614 185.712 44.3868 185.598 44.5384C185.485 44.6875 185.322 44.8213 185.112 44.9396C184.901 45.0556 184.62 45.1136 184.27 45.1136C183.816 45.1136 183.414 44.9988 183.066 44.7692C182.718 44.5372 182.446 44.2105 182.249 43.7891C182.053 43.3653 181.955 42.8646 181.955 42.2869C181.955 41.714 182.053 41.2169 182.249 40.7955C182.446 40.3741 182.719 40.0485 183.07 39.8189C183.42 39.5893 183.825 39.4744 184.284 39.4744C184.639 39.4744 184.92 39.5336 185.126 39.652C185.334 39.768 185.493 39.9006 185.602 40.0497C185.713 40.1965 185.799 40.3172 185.861 40.4119H185.96V39.5455H186.77V47.0455H185.932ZM184.384 44.3608C184.72 44.3608 185.004 44.2732 185.236 44.098C185.468 43.9205 185.644 43.6754 185.765 43.3629C185.886 43.0481 185.946 42.6847 185.946 42.2727C185.946 41.8655 185.887 41.5092 185.769 41.2038C185.65 40.8961 185.475 40.657 185.243 40.4865C185.011 40.3137 184.725 40.2273 184.384 40.2273C184.029 40.2273 183.733 40.3184 183.496 40.5007C183.262 40.6806 183.085 40.9257 182.967 41.2358C182.851 41.5436 182.793 41.8892 182.793 42.2727C182.793 42.661 182.852 43.0137 182.97 43.331C183.091 43.6458 183.269 43.8968 183.503 44.0838C183.74 44.2685 184.033 44.3608 184.384 44.3608ZM191.742 42.7699V39.5455H192.58V45H191.742V44.0767H191.685C191.557 44.3537 191.358 44.5893 191.088 44.7834C190.818 44.9751 190.477 45.071 190.066 45.071C189.725 45.071 189.422 44.9964 189.156 44.8473C188.891 44.6958 188.683 44.4685 188.531 44.1655C188.38 43.8601 188.304 43.4754 188.304 43.0114V39.5455H189.142V42.9545C189.142 43.3523 189.253 43.6695 189.476 43.9062C189.701 44.143 189.987 44.2614 190.335 44.2614C190.544 44.2614 190.756 44.2081 190.971 44.1016C191.189 43.995 191.371 43.8317 191.518 43.6115C191.667 43.3913 191.742 43.1108 191.742 42.7699ZM195.72 45.1278C195.374 45.1278 195.06 45.0627 194.779 44.9325C194.497 44.8 194.273 44.6094 194.108 44.3608C193.942 44.1098 193.859 43.8068 193.859 43.4517C193.859 43.1392 193.921 42.8859 194.044 42.6918C194.167 42.4953 194.331 42.3414 194.537 42.2301C194.743 42.1188 194.971 42.036 195.219 41.9815C195.47 41.9247 195.722 41.8797 195.975 41.8466C196.307 41.804 196.576 41.772 196.782 41.7507C196.99 41.727 197.141 41.688 197.236 41.6335C197.333 41.5791 197.382 41.4844 197.382 41.3494V41.321C197.382 40.9706 197.286 40.6984 197.094 40.5043C196.905 40.3101 196.617 40.2131 196.231 40.2131C195.831 40.2131 195.517 40.3007 195.29 40.4759C195.063 40.651 194.903 40.8381 194.811 41.0369L194.015 40.7528C194.157 40.4214 194.347 40.1634 194.583 39.9787C194.823 39.7917 195.083 39.6615 195.365 39.5881C195.649 39.5123 195.928 39.4744 196.203 39.4744C196.378 39.4744 196.579 39.4957 196.806 39.5384C197.036 39.5786 197.257 39.6626 197.471 39.7905C197.686 39.9183 197.865 40.1113 198.007 40.3693C198.149 40.6274 198.22 40.973 198.22 41.4062V45H197.382V44.2614H197.339C197.282 44.3797 197.188 44.5064 197.055 44.6413C196.922 44.7763 196.746 44.8911 196.526 44.9858C196.306 45.0805 196.037 45.1278 195.72 45.1278ZM195.848 44.375C196.179 44.375 196.458 44.3099 196.686 44.1797C196.915 44.0495 197.088 43.8814 197.204 43.6754C197.323 43.4695 197.382 43.2528 197.382 43.0256V42.2585C197.346 42.3011 197.268 42.3402 197.147 42.3757C197.029 42.4089 196.892 42.4384 196.735 42.4645C196.582 42.4882 196.431 42.5095 196.284 42.5284C196.14 42.545 196.023 42.5592 195.933 42.571C195.715 42.5994 195.511 42.6456 195.322 42.7095C195.135 42.7711 194.984 42.8646 194.868 42.9901C194.754 43.1132 194.697 43.2812 194.697 43.4943C194.697 43.7855 194.805 44.0057 195.02 44.1548C195.238 44.3016 195.514 44.375 195.848 44.375ZM199.749 45V39.5455H200.559V40.3693H200.616C200.715 40.0994 200.895 39.8804 201.156 39.7124C201.416 39.5443 201.71 39.4602 202.036 39.4602C202.098 39.4602 202.175 39.4614 202.267 39.4638C202.36 39.4661 202.429 39.4697 202.477 39.4744V40.3267C202.448 40.3196 202.383 40.3089 202.281 40.2947C202.182 40.2782 202.077 40.2699 201.965 40.2699C201.7 40.2699 201.463 40.3255 201.255 40.4368C201.049 40.5457 200.886 40.6972 200.765 40.8913C200.647 41.0831 200.588 41.3021 200.588 41.5483V45H199.749ZM205.591 45.1136C205.066 45.1136 204.612 44.9976 204.231 44.7656C203.852 44.5312 203.56 44.2045 203.354 43.7855C203.15 43.3641 203.048 42.8741 203.048 42.3153C203.048 41.7566 203.15 41.2642 203.354 40.8381C203.56 40.4096 203.846 40.0758 204.213 39.8366C204.583 39.5952 205.013 39.4744 205.506 39.4744C205.79 39.4744 206.07 39.5218 206.347 39.6165C206.624 39.7112 206.877 39.8651 207.104 40.0781C207.331 40.2888 207.512 40.5682 207.647 40.9162C207.782 41.2642 207.85 41.6927 207.85 42.2017V42.5568H203.645V41.8324H206.997C206.997 41.5246 206.936 41.25 206.813 41.0085C206.692 40.767 206.519 40.5765 206.294 40.4368C206.072 40.2971 205.809 40.2273 205.506 40.2273C205.172 40.2273 204.883 40.3101 204.639 40.4759C204.398 40.6392 204.212 40.8523 204.082 41.1151C203.952 41.3778 203.887 41.6596 203.887 41.9602V42.4432C203.887 42.8551 203.958 43.2043 204.1 43.4908C204.244 43.7749 204.444 43.9915 204.7 44.1406C204.955 44.2874 205.253 44.3608 205.591 44.3608C205.811 44.3608 206.01 44.33 206.188 44.2685C206.368 44.2045 206.523 44.1098 206.653 43.9844C206.783 43.8565 206.884 43.6979 206.955 43.5085L207.764 43.7358C207.679 44.0104 207.536 44.2519 207.335 44.4602C207.133 44.6662 206.885 44.8272 206.589 44.9432C206.293 45.0568 205.96 45.1136 205.591 45.1136Z"
          fill="white" fill-opacity="0.4"/>
    <defs>
        <linearGradient id="paint0_linear_12600_61559" x1="30.5458" y1="29.2382" x2="16.0417" y2="44.749"
                        gradientUnits="userSpaceOnUse">
            <stop offset="0.209652" stop-color="#0BA37B"/>
            <stop offset="0.335908" stop-color="#0CFEC0"/>
        </linearGradient>
        <linearGradient id="paint1_linear_12600_61559" x1="25.8288" y1="24.8264" x2="11.3249" y2="40.3371"
                        gradientUnits="userSpaceOnUse">
            <stop offset="0.321604" stop-color="#13936C"/>
            <stop offset="0.506424" stop-color="#28D596"/>
        </linearGradient>
        <linearGradient id="paint2_linear_12600_61559" x1="21.11" y1="20.4144" x2="6.60614" y2="35.9251"
                        gradientUnits="userSpaceOnUse">
            <stop offset="0.501239" stop-color="#1D8C68"/>
            <stop offset="0.641372" stop-color="#15B786"/>
        </linearGradient>
        <linearGradient id="paint3_linear_12600_61559" x1="16.3933" y1="16.0024" x2="1.88935" y2="31.5132"
                        gradientUnits="userSpaceOnUse">
            <stop offset="0.649631" stop-color="#1B7E5E"/>
            <stop offset="0.796711" stop-color="#13A076"/>
        </linearGradient>
    </defs>
</svg>
