<svg width="236" height="64" viewBox="0 0 236 64" fill="none" xmlns="http://www.w3.org/2000/svg">
<g clip-path="url(#clip0_13417_74616)">
<path d="M31.25 51.5L8.75 51.5C4.19365 51.5 0.5 47.8063 0.500001 43.25L0.500003 20.75C0.500003 16.1937 4.19365 12.5 8.75 12.5L31.25 12.5C35.8064 12.5 39.5 16.1937 39.5 20.75L39.5 43.25C39.5 47.8063 35.8063 51.5 31.25 51.5Z" fill="url(#paint0_linear_13417_74616)" stroke="#272A3A"/>
<g clip-path="url(#clip1_13417_74616)">
<path d="M19.9999 23.9597C22.7798 23.9597 25.0333 22.6583 25.0333 21.0528C25.0333 19.4474 22.7798 18.146 19.9999 18.146C17.2201 18.146 14.9665 19.4474 14.9665 21.0528C14.9665 22.6583 17.2201 23.9597 19.9999 23.9597Z" fill="#E6007A"/>
<path d="M19.9999 45.8543C22.7798 45.8543 25.0333 44.5529 25.0333 42.9475C25.0333 41.3421 22.7798 40.0406 19.9999 40.0406C17.2201 40.0406 14.9665 41.3421 14.9665 42.9475C14.9665 44.5529 17.2201 45.8543 19.9999 45.8543Z" fill="#E6007A"/>
<path d="M12.9844 27.98C14.3744 25.5906 14.3656 23.0028 12.9648 22.2001C11.564 21.3974 9.30166 22.6837 7.91173 25.0732C6.52179 27.4626 6.5306 30.0504 7.93139 30.8531C9.33218 31.6558 11.5945 30.3695 12.9844 27.98Z" fill="#E6007A"/>
<path d="M32.0883 38.9273C33.4782 36.5379 33.4694 33.9501 32.0686 33.1474C30.6678 32.3447 28.4055 33.631 27.0156 36.0205C25.6256 38.4099 25.6344 40.9977 27.0352 41.8004C28.436 42.6031 30.6984 41.3168 32.0883 38.9273Z" fill="#E6007A"/>
<path d="M12.9648 41.8002C14.3656 40.9975 14.3744 38.4098 12.9844 36.0203C11.5945 33.6309 9.33217 32.3446 7.93138 33.1473C6.53059 33.95 6.52178 36.5377 7.91172 38.9272C9.30165 41.3166 11.564 42.6029 12.9648 41.8002Z" fill="#E6007A"/>
<path d="M32.0685 30.8532C33.4693 30.0505 33.4781 27.4627 32.0882 25.0733C30.6982 22.6838 28.4359 21.3975 27.0351 22.2002C25.6343 23.0029 25.6255 25.5907 27.0154 27.9801C28.4054 30.3696 30.6677 31.6559 32.0685 30.8532Z" fill="#E6007A"/>
</g>
</g>
<path d="M59.72 17C60.96 17 62.0333 17.2067 62.94 17.62C63.86 18.0333 64.5667 18.62 65.06 19.38C65.5533 20.14 65.8 21.04 65.8 22.08C65.8 23.1067 65.5533 24.0067 65.06 24.78C64.5667 25.54 63.86 26.1267 62.94 26.54C62.0333 26.94 60.96 27.14 59.72 27.14H56.9V31H53.66V17H59.72ZM59.54 24.5C60.5133 24.5 61.2533 24.2933 61.76 23.88C62.2667 23.4533 62.52 22.8533 62.52 22.08C62.52 21.2933 62.2667 20.6933 61.76 20.28C61.2533 19.8533 60.5133 19.64 59.54 19.64H56.9V24.5H59.54ZM72.9936 31.16C71.8603 31.16 70.8403 30.9267 69.9336 30.46C69.0403 29.98 68.3403 29.32 67.8336 28.48C67.3269 27.64 67.0736 26.6867 67.0736 25.62C67.0736 24.5533 67.3269 23.6 67.8336 22.76C68.3403 21.92 69.0403 21.2667 69.9336 20.8C70.8403 20.32 71.8603 20.08 72.9936 20.08C74.1269 20.08 75.1403 20.32 76.0336 20.8C76.9269 21.2667 77.6269 21.92 78.1336 22.76C78.6403 23.6 78.8936 24.5533 78.8936 25.62C78.8936 26.6867 78.6403 27.64 78.1336 28.48C77.6269 29.32 76.9269 29.98 76.0336 30.46C75.1403 30.9267 74.1269 31.16 72.9936 31.16ZM72.9936 28.6C73.7936 28.6 74.4469 28.3333 74.9536 27.8C75.4736 27.2533 75.7336 26.5267 75.7336 25.62C75.7336 24.7133 75.4736 23.9933 74.9536 23.46C74.4469 22.9133 73.7936 22.64 72.9936 22.64C72.1936 22.64 71.5336 22.9133 71.0136 23.46C70.4936 23.9933 70.2336 24.7133 70.2336 25.62C70.2336 26.5267 70.4936 27.2533 71.0136 27.8C71.5336 28.3333 72.1936 28.6 72.9936 28.6ZM80.9791 16.16H84.0991V31H80.9791V16.16ZM91.6147 26.78L90.1147 28.26V31H86.9947V16.16H90.1147V24.56L94.6747 20.24H98.3947L93.9147 24.8L98.7947 31H95.0147L91.6147 26.78ZM104.343 20.08C106.009 20.08 107.289 20.48 108.183 21.28C109.076 22.0667 109.523 23.26 109.523 24.86V31H106.603V29.66C106.016 30.66 104.923 31.16 103.323 31.16C102.496 31.16 101.776 31.02 101.163 30.74C100.563 30.46 100.103 30.0733 99.7825 29.58C99.4625 29.0867 99.3025 28.5267 99.3025 27.9C99.3025 26.9 99.6758 26.1133 100.423 25.54C101.183 24.9667 102.349 24.68 103.923 24.68H106.403C106.403 24 106.196 23.48 105.783 23.12C105.369 22.7467 104.749 22.56 103.923 22.56C103.349 22.56 102.783 22.6533 102.223 22.84C101.676 23.0133 101.209 23.2533 100.823 23.56L99.7025 21.38C100.289 20.9667 100.989 20.6467 101.803 20.42C102.629 20.1933 103.476 20.08 104.343 20.08ZM104.103 29.06C104.636 29.06 105.109 28.94 105.523 28.7C105.936 28.4467 106.229 28.08 106.403 27.6V26.5H104.263C102.983 26.5 102.343 26.92 102.343 27.76C102.343 28.16 102.496 28.48 102.803 28.72C103.123 28.9467 103.556 29.06 104.103 29.06ZM123.423 16.16V31H120.443V29.76C119.67 30.6933 118.55 31.16 117.083 31.16C116.07 31.16 115.15 30.9333 114.323 30.48C113.51 30.0267 112.87 29.38 112.403 28.54C111.937 27.7 111.703 26.7267 111.703 25.62C111.703 24.5133 111.937 23.54 112.403 22.7C112.87 21.86 113.51 21.2133 114.323 20.76C115.15 20.3067 116.07 20.08 117.083 20.08C118.457 20.08 119.53 20.5133 120.303 21.38V16.16H123.423ZM117.623 28.6C118.41 28.6 119.063 28.3333 119.583 27.8C120.103 27.2533 120.363 26.5267 120.363 25.62C120.363 24.7133 120.103 23.9933 119.583 23.46C119.063 22.9133 118.41 22.64 117.623 22.64C116.823 22.64 116.163 22.9133 115.643 23.46C115.123 23.9933 114.863 24.7133 114.863 25.62C114.863 26.5267 115.123 27.2533 115.643 27.8C116.163 28.3333 116.823 28.6 117.623 28.6ZM131.431 31.16C130.298 31.16 129.278 30.9267 128.371 30.46C127.478 29.98 126.778 29.32 126.271 28.48C125.764 27.64 125.511 26.6867 125.511 25.62C125.511 24.5533 125.764 23.6 126.271 22.76C126.778 21.92 127.478 21.2667 128.371 20.8C129.278 20.32 130.298 20.08 131.431 20.08C132.564 20.08 133.578 20.32 134.471 20.8C135.364 21.2667 136.064 21.92 136.571 22.76C137.078 23.6 137.331 24.5533 137.331 25.62C137.331 26.6867 137.078 27.64 136.571 28.48C136.064 29.32 135.364 29.98 134.471 30.46C133.578 30.9267 132.564 31.16 131.431 31.16ZM131.431 28.6C132.231 28.6 132.884 28.3333 133.391 27.8C133.911 27.2533 134.171 26.5267 134.171 25.62C134.171 24.7133 133.911 23.9933 133.391 23.46C132.884 22.9133 132.231 22.64 131.431 22.64C130.631 22.64 129.971 22.9133 129.451 23.46C128.931 23.9933 128.671 24.7133 128.671 25.62C128.671 26.5267 128.931 27.2533 129.451 27.8C129.971 28.3333 130.631 28.6 131.431 28.6ZM146.357 30.48C146.05 30.7067 145.67 30.88 145.217 31C144.777 31.1067 144.31 31.16 143.817 31.16C142.537 31.16 141.543 30.8333 140.837 30.18C140.143 29.5267 139.797 28.5667 139.797 27.3V22.88H138.137V20.48H139.797V17.86H142.917V20.48H145.597V22.88H142.917V27.26C142.917 27.7133 143.03 28.0667 143.257 28.32C143.497 28.56 143.83 28.68 144.257 28.68C144.75 28.68 145.17 28.5467 145.517 28.28L146.357 30.48Z" fill="white"/>
<path d="M58.8651 42.0298C58.7827 41.7713 58.6719 41.5398 58.5327 41.3352C58.3963 41.1278 58.233 40.9517 58.0426 40.8068C57.8523 40.6591 57.6349 40.5469 57.3906 40.4702C57.1491 40.3935 56.8835 40.3551 56.5938 40.3551C56.1023 40.3551 55.6591 40.4815 55.2642 40.7344C54.8693 40.9872 54.5568 41.358 54.3267 41.8466C54.0994 42.3324 53.9858 42.9276 53.9858 43.6321C53.9858 44.3395 54.1009 44.9375 54.331 45.4261C54.5611 45.9148 54.8764 46.2855 55.277 46.5384C55.6776 46.7912 56.1335 46.9176 56.6449 46.9176C57.1193 46.9176 57.5327 46.821 57.8849 46.6278C58.2401 46.4347 58.5142 46.1619 58.7074 45.8097C58.9034 45.4545 59.0014 45.0369 59.0014 44.5568L59.3423 44.6207H56.8452V43.5341H60.2756V44.527C60.2756 45.2599 60.1193 45.8963 59.8068 46.4361C59.4972 46.973 59.0682 47.3878 58.5199 47.6804C57.9744 47.973 57.3494 48.1193 56.6449 48.1193C55.8551 48.1193 55.1619 47.9375 54.5653 47.5739C53.9716 47.2102 53.5085 46.6946 53.1761 46.027C52.8438 45.3565 52.6776 44.5611 52.6776 43.6406C52.6776 42.9446 52.7741 42.3196 52.9673 41.7656C53.1605 41.2116 53.4318 40.7415 53.7812 40.3551C54.1335 39.9659 54.5469 39.669 55.0213 39.4645C55.4986 39.2571 56.0199 39.1534 56.5852 39.1534C57.0568 39.1534 57.4957 39.223 57.902 39.3622C58.3111 39.5014 58.6747 39.6989 58.9929 39.9545C59.3139 40.2102 59.5795 40.5142 59.7898 40.8665C60 41.2159 60.142 41.6037 60.2159 42.0298H58.8651ZM64.6019 48.1321C63.9883 48.1321 63.4528 47.9915 62.9954 47.7102C62.538 47.429 62.1829 47.0355 61.93 46.5298C61.6772 46.0241 61.5508 45.4332 61.5508 44.7571C61.5508 44.0781 61.6772 43.4844 61.93 42.9759C62.1829 42.4673 62.538 42.0724 62.9954 41.7912C63.4528 41.5099 63.9883 41.3693 64.6019 41.3693C65.2156 41.3693 65.7511 41.5099 66.2085 41.7912C66.6658 42.0724 67.021 42.4673 67.2738 42.9759C67.5266 43.4844 67.6531 44.0781 67.6531 44.7571C67.6531 45.4332 67.5266 46.0241 67.2738 46.5298C67.021 47.0355 66.6658 47.429 66.2085 47.7102C65.7511 47.9915 65.2156 48.1321 64.6019 48.1321ZM64.6062 47.0625C65.0039 47.0625 65.3335 46.9574 65.5948 46.7472C65.8562 46.5369 66.0494 46.2571 66.1744 45.9077C66.3022 45.5582 66.3661 45.1733 66.3661 44.7528C66.3661 44.3352 66.3022 43.9517 66.1744 43.6023C66.0494 43.25 65.8562 42.9673 65.5948 42.7543C65.3335 42.5412 65.0039 42.4347 64.6062 42.4347C64.2056 42.4347 63.8732 42.5412 63.609 42.7543C63.3477 42.9673 63.1531 43.25 63.0252 43.6023C62.9002 43.9517 62.8377 44.3352 62.8377 44.7528C62.8377 45.1733 62.9002 45.5582 63.0252 45.9077C63.1531 46.2571 63.3477 46.5369 63.609 46.7472C63.8732 46.9574 64.2056 47.0625 64.6062 47.0625ZM74.4521 41.4545L72.0785 48H70.7148L68.337 41.4545H69.7049L71.3626 46.4915H71.4308L73.0842 41.4545H74.4521ZM78.2479 48.1321C77.603 48.1321 77.0476 47.9943 76.5817 47.7188C76.1186 47.4403 75.7607 47.0497 75.5078 46.5469C75.2578 46.0412 75.1328 45.4489 75.1328 44.7699C75.1328 44.0994 75.2578 43.5085 75.5078 42.9972C75.7607 42.4858 76.1129 42.0866 76.5646 41.7997C77.0192 41.5128 77.5504 41.3693 78.1584 41.3693C78.5277 41.3693 78.8857 41.4304 79.2322 41.5526C79.5788 41.6747 79.8899 41.8665 80.1655 42.1278C80.4411 42.3892 80.6584 42.7287 80.8175 43.1463C80.9766 43.5611 81.0561 44.0653 81.0561 44.6591V45.1108H75.853V44.1562H79.8075C79.8075 43.821 79.7393 43.5241 79.603 43.2656C79.4666 43.0043 79.2749 42.7983 79.0277 42.6477C78.7834 42.4972 78.4964 42.4219 78.1669 42.4219C77.8089 42.4219 77.4964 42.5099 77.2294 42.6861C76.9652 42.8594 76.7607 43.0866 76.6158 43.3679C76.4737 43.6463 76.4027 43.9489 76.4027 44.2756V45.0213C76.4027 45.4588 76.4794 45.831 76.6328 46.1378C76.7891 46.4446 77.0064 46.679 77.2848 46.8409C77.5632 47 77.8885 47.0795 78.2607 47.0795C78.5021 47.0795 78.7223 47.0455 78.9212 46.9773C79.12 46.9062 79.2919 46.8011 79.4368 46.6619C79.5817 46.5227 79.6925 46.3509 79.7692 46.1463L80.9751 46.3636C80.8786 46.7187 80.7053 47.0298 80.4553 47.2969C80.2081 47.5611 79.897 47.767 79.522 47.9148C79.1499 48.0597 78.7251 48.1321 78.2479 48.1321ZM82.4698 48V41.4545H83.7013V42.4943H83.7695C83.8888 42.142 84.0991 41.8651 84.4002 41.6634C84.7042 41.4588 85.0479 41.3565 85.4315 41.3565C85.511 41.3565 85.6048 41.3594 85.7127 41.3651C85.8235 41.3707 85.9102 41.3778 85.9727 41.3864V42.6051C85.9215 42.5909 85.8306 42.5753 85.6999 42.5582C85.5692 42.5384 85.4386 42.5284 85.3079 42.5284C85.0067 42.5284 84.7383 42.5923 84.5025 42.7202C84.2695 42.8452 84.0849 43.0199 83.9485 43.2443C83.8121 43.4659 83.744 43.7187 83.744 44.0028V48H82.4698ZM88.3494 44.1136V48H87.0753V41.4545H88.2983V42.5199H88.3793C88.5298 42.1733 88.7656 41.8949 89.0866 41.6847C89.4105 41.4744 89.8182 41.3693 90.3097 41.3693C90.7557 41.3693 91.1463 41.4631 91.4815 41.6506C91.8168 41.8352 92.0767 42.1108 92.2614 42.4773C92.446 42.8437 92.5384 43.2969 92.5384 43.8366V48H91.2642V43.9901C91.2642 43.5156 91.1406 43.1449 90.8935 42.8778C90.6463 42.608 90.3068 42.473 89.875 42.473C89.5795 42.473 89.3168 42.5369 89.0866 42.6648C88.8594 42.7926 88.679 42.9801 88.5455 43.2273C88.4148 43.4716 88.3494 43.767 88.3494 44.1136ZM96.152 48.1449C95.7372 48.1449 95.3622 48.0682 95.027 47.9148C94.6918 47.7585 94.4261 47.5327 94.2301 47.2372C94.0369 46.9418 93.9403 46.5795 93.9403 46.1506C93.9403 45.7812 94.0114 45.4773 94.1534 45.2386C94.2955 45 94.4872 44.8111 94.7287 44.6719C94.9702 44.5327 95.2401 44.4276 95.5384 44.3565C95.8366 44.2855 96.1406 44.2315 96.4503 44.1946C96.8423 44.1491 97.1605 44.1122 97.4048 44.0838C97.6491 44.0526 97.8267 44.0028 97.9375 43.9347C98.0483 43.8665 98.1037 43.7557 98.1037 43.6023V43.5724C98.1037 43.2003 97.9986 42.9119 97.7884 42.7074C97.581 42.5028 97.2713 42.4006 96.8594 42.4006C96.4304 42.4006 96.0923 42.4957 95.8452 42.6861C95.6009 42.8736 95.4318 43.0824 95.3381 43.3125L94.1406 43.0398C94.2827 42.642 94.4901 42.321 94.7628 42.0767C95.0384 41.8295 95.3551 41.6506 95.7131 41.5398C96.071 41.4261 96.4474 41.3693 96.8423 41.3693C97.1037 41.3693 97.3807 41.4006 97.6733 41.4631C97.9688 41.5227 98.2443 41.6335 98.5 41.7955C98.7585 41.9574 98.9702 42.1889 99.1349 42.4901C99.2997 42.7884 99.3821 43.1761 99.3821 43.6534V48H98.1378V47.1051H98.0866C98.0043 47.2699 97.8807 47.4318 97.7159 47.5909C97.5511 47.75 97.3395 47.8821 97.081 47.9872C96.8224 48.0923 96.5128 48.1449 96.152 48.1449ZM96.429 47.1222C96.7813 47.1222 97.0824 47.0526 97.3324 46.9134C97.5852 46.7741 97.777 46.5923 97.9077 46.3679C98.0412 46.1406 98.108 45.8977 98.108 45.6392V44.7955C98.0625 44.8409 97.9744 44.8835 97.8438 44.9233C97.7159 44.9602 97.5696 44.9929 97.4048 45.0213C97.2401 45.0469 97.0795 45.071 96.9233 45.0938C96.767 45.1136 96.6364 45.1307 96.5312 45.1449C96.2841 45.1761 96.0582 45.2287 95.8537 45.3026C95.652 45.3764 95.4901 45.483 95.3679 45.6222C95.2486 45.7585 95.1889 45.9403 95.1889 46.1676C95.1889 46.483 95.3054 46.7216 95.5384 46.8835C95.7713 47.0426 96.0682 47.1222 96.429 47.1222ZM102.353 44.1136V48H101.079V41.4545H102.302V42.5199H102.383C102.534 42.1733 102.77 41.8949 103.091 41.6847C103.414 41.4744 103.822 41.3693 104.314 41.3693C104.76 41.3693 105.15 41.4631 105.485 41.6506C105.821 41.8352 106.081 42.1108 106.265 42.4773C106.45 42.8437 106.542 43.2969 106.542 43.8366V48H105.268V43.9901C105.268 43.5156 105.145 43.1449 104.897 42.8778C104.65 42.608 104.311 42.473 103.879 42.473C103.583 42.473 103.321 42.5369 103.091 42.6648C102.863 42.7926 102.683 42.9801 102.549 43.2273C102.419 43.4716 102.353 43.767 102.353 44.1136ZM111.008 48.1321C110.375 48.1321 109.829 47.9886 109.372 47.7017C108.917 47.4119 108.568 47.0128 108.324 46.5043C108.079 45.9957 107.957 45.4134 107.957 44.7571C107.957 44.0923 108.082 43.5057 108.332 42.9972C108.582 42.4858 108.934 42.0866 109.389 41.7997C109.843 41.5128 110.379 41.3693 110.995 41.3693C111.493 41.3693 111.936 41.4616 112.325 41.6463C112.714 41.8281 113.028 42.0838 113.267 42.4134C113.508 42.7429 113.652 43.1278 113.697 43.5682H112.457C112.389 43.2614 112.233 42.9972 111.988 42.7756C111.747 42.554 111.423 42.4432 111.017 42.4432C110.662 42.4432 110.35 42.5369 110.083 42.7244C109.819 42.9091 109.613 43.1733 109.466 43.517C109.318 43.858 109.244 44.2614 109.244 44.7273C109.244 45.2045 109.316 45.6165 109.461 45.9631C109.606 46.3097 109.811 46.5781 110.075 46.7685C110.342 46.9588 110.656 47.054 111.017 47.054C111.258 47.054 111.477 47.0099 111.673 46.9219C111.872 46.831 112.038 46.7017 112.172 46.5341C112.308 46.3665 112.403 46.1648 112.457 45.929H113.697C113.652 46.3523 113.514 46.7301 113.284 47.0625C113.054 47.3949 112.745 47.6562 112.359 47.8466C111.975 48.0369 111.525 48.1321 111.008 48.1321ZM117.881 48.1321C117.236 48.1321 116.68 47.9943 116.214 47.7188C115.751 47.4403 115.393 47.0497 115.141 46.5469C114.891 46.0412 114.766 45.4489 114.766 44.7699C114.766 44.0994 114.891 43.5085 115.141 42.9972C115.393 42.4858 115.746 42.0866 116.197 41.7997C116.652 41.5128 117.183 41.3693 117.791 41.3693C118.161 41.3693 118.518 41.4304 118.865 41.5526C119.212 41.6747 119.523 41.8665 119.798 42.1278C120.074 42.3892 120.291 42.7287 120.45 43.1463C120.609 43.5611 120.689 44.0653 120.689 44.6591V45.1108H115.486V44.1562H119.44C119.44 43.821 119.372 43.5241 119.236 43.2656C119.099 43.0043 118.908 42.7983 118.661 42.6477C118.416 42.4972 118.129 42.4219 117.8 42.4219C117.442 42.4219 117.129 42.5099 116.862 42.6861C116.598 42.8594 116.393 43.0866 116.249 43.3679C116.107 43.6463 116.036 43.9489 116.036 44.2756V45.0213C116.036 45.4588 116.112 45.831 116.266 46.1378C116.422 46.4446 116.639 46.679 116.918 46.8409C117.196 47 117.521 47.0795 117.893 47.0795C118.135 47.0795 118.355 47.0455 118.554 46.9773C118.753 46.9062 118.925 46.8011 119.07 46.6619C119.214 46.5227 119.325 46.3509 119.402 46.1463L120.608 46.3636C120.511 46.7187 120.338 47.0298 120.088 47.2969C119.841 47.5611 119.53 47.767 119.155 47.9148C118.783 48.0597 118.358 48.1321 117.881 48.1321ZM125.381 48V39.2727H126.655V42.5156H126.732C126.805 42.3793 126.912 42.2216 127.051 42.0426C127.19 41.8636 127.384 41.7074 127.631 41.5739C127.878 41.4375 128.205 41.3693 128.611 41.3693C129.139 41.3693 129.611 41.5028 130.026 41.7699C130.44 42.0369 130.766 42.4219 131.001 42.9247C131.24 43.4276 131.359 44.0327 131.359 44.7401C131.359 45.4474 131.241 46.054 131.006 46.5597C130.77 47.0625 130.446 47.4503 130.034 47.723C129.622 47.9929 129.152 48.1278 128.624 48.1278C128.226 48.1278 127.901 48.0611 127.648 47.9276C127.398 47.794 127.202 47.6378 127.06 47.4588C126.918 47.2798 126.808 47.1207 126.732 46.9815H126.625V48H125.381ZM126.629 44.7273C126.629 45.1875 126.696 45.5909 126.83 45.9375C126.963 46.2841 127.156 46.5554 127.409 46.7514C127.662 46.9446 127.972 47.0412 128.338 47.0412C128.719 47.0412 129.037 46.9403 129.293 46.7386C129.548 46.5341 129.741 46.2571 129.872 45.9077C130.006 45.5582 130.072 45.1648 130.072 44.7273C130.072 44.2955 130.007 43.9077 129.876 43.5639C129.749 43.2202 129.555 42.9489 129.297 42.75C129.041 42.5511 128.722 42.4517 128.338 42.4517C127.969 42.4517 127.656 42.5469 127.401 42.7372C127.148 42.9276 126.956 43.1932 126.825 43.5341C126.695 43.875 126.629 44.2727 126.629 44.7273ZM133.373 50.4545C133.183 50.4545 133.009 50.4389 132.853 50.4077C132.697 50.3793 132.58 50.348 132.504 50.3139L132.81 49.2699C133.043 49.3324 133.251 49.3594 133.433 49.3509C133.614 49.3423 133.775 49.2741 133.914 49.1463C134.056 49.0185 134.181 48.8097 134.289 48.5199L134.447 48.0852L132.052 41.4545H133.415L135.073 46.5341H135.141L136.799 41.4545H138.167L135.469 48.8736C135.344 49.2145 135.185 49.5028 134.992 49.7386C134.799 49.9773 134.569 50.1563 134.302 50.2756C134.035 50.3949 133.725 50.4545 133.373 50.4545ZM147.402 41.5653C147.357 41.1619 147.169 40.8494 146.84 40.6278C146.51 40.4034 146.096 40.2912 145.596 40.2912C145.238 40.2912 144.928 40.348 144.667 40.4616C144.405 40.5724 144.202 40.7259 144.057 40.9219C143.915 41.1151 143.844 41.3352 143.844 41.5824C143.844 41.7898 143.892 41.9687 143.989 42.1193C144.088 42.2699 144.218 42.3963 144.377 42.4986C144.539 42.598 144.712 42.6818 144.897 42.75C145.081 42.8153 145.259 42.8693 145.429 42.9119L146.282 43.1335C146.56 43.2017 146.846 43.294 147.138 43.4105C147.431 43.527 147.702 43.6804 147.952 43.8707C148.202 44.0611 148.404 44.2969 148.557 44.5781C148.713 44.8594 148.792 45.196 148.792 45.5881C148.792 46.0824 148.664 46.5213 148.408 46.9048C148.155 47.2884 147.787 47.5909 147.304 47.8125C146.824 48.0341 146.243 48.1449 145.561 48.1449C144.908 48.1449 144.343 48.0412 143.865 47.8338C143.388 47.6264 143.015 47.3324 142.745 46.9517C142.475 46.5682 142.326 46.1136 142.297 45.5881H143.618C143.644 45.9034 143.746 46.1662 143.925 46.3764C144.107 46.5838 144.338 46.7386 144.62 46.8409C144.904 46.9403 145.215 46.9901 145.553 46.9901C145.925 46.9901 146.256 46.9318 146.546 46.8153C146.838 46.696 147.069 46.5312 147.236 46.321C147.404 46.108 147.488 45.8594 147.488 45.5753C147.488 45.3168 147.414 45.1051 147.266 44.9403C147.121 44.7756 146.924 44.6392 146.674 44.5312C146.426 44.4233 146.147 44.3281 145.834 44.2457L144.803 43.9645C144.104 43.7741 143.55 43.4943 143.141 43.125C142.735 42.7557 142.532 42.267 142.532 41.6591C142.532 41.1562 142.668 40.7173 142.941 40.3423C143.213 39.9673 143.583 39.6761 144.049 39.4688C144.515 39.2585 145.04 39.1534 145.625 39.1534C146.216 39.1534 146.738 39.2571 147.189 39.4645C147.644 39.6719 148.002 39.9574 148.263 40.321C148.525 40.6818 148.661 41.0966 148.672 41.5653H147.402ZM154.409 45.2855V41.4545H155.688V48H154.435V46.8665H154.366C154.216 47.2159 153.974 47.5071 153.642 47.7401C153.313 47.9702 152.902 48.0852 152.411 48.0852C151.99 48.0852 151.618 47.9929 151.294 47.8082C150.973 47.6207 150.72 47.3438 150.536 46.9773C150.354 46.6108 150.263 46.1577 150.263 45.6179V41.4545H151.537V45.4645C151.537 45.9105 151.661 46.2656 151.908 46.5298C152.155 46.794 152.476 46.9261 152.871 46.9261C153.109 46.9261 153.347 46.8665 153.582 46.7472C153.821 46.6278 154.018 46.4474 154.175 46.206C154.334 45.9645 154.412 45.6577 154.409 45.2855ZM157.502 48V39.2727H158.776V42.5156H158.853C158.926 42.3793 159.033 42.2216 159.172 42.0426C159.311 41.8636 159.505 41.7074 159.752 41.5739C159.999 41.4375 160.326 41.3693 160.732 41.3693C161.26 41.3693 161.732 41.5028 162.147 41.7699C162.561 42.0369 162.887 42.4219 163.123 42.9247C163.361 43.4276 163.48 44.0327 163.48 44.7401C163.48 45.4474 163.363 46.054 163.127 46.5597C162.891 47.0625 162.567 47.4503 162.155 47.723C161.743 47.9929 161.273 48.1278 160.745 48.1278C160.347 48.1278 160.022 48.0611 159.769 47.9276C159.519 47.794 159.323 47.6378 159.181 47.4588C159.039 47.2798 158.929 47.1207 158.853 46.9815H158.746V48H157.502ZM158.75 44.7273C158.75 45.1875 158.817 45.5909 158.951 45.9375C159.084 46.2841 159.277 46.5554 159.53 46.7514C159.783 46.9446 160.093 47.0412 160.459 47.0412C160.84 47.0412 161.158 46.9403 161.414 46.7386C161.669 46.5341 161.863 46.2571 161.993 45.9077C162.127 45.5582 162.194 45.1648 162.194 44.7273C162.194 44.2955 162.128 43.9077 161.998 43.5639C161.87 43.2202 161.676 42.9489 161.418 42.75C161.162 42.5511 160.843 42.4517 160.459 42.4517C160.09 42.4517 159.777 42.5469 159.522 42.7372C159.269 42.9276 159.077 43.1932 158.946 43.5341C158.816 43.875 158.75 44.2727 158.75 44.7273ZM169.773 41.5653C169.728 41.1619 169.54 40.8494 169.211 40.6278C168.881 40.4034 168.467 40.2912 167.967 40.2912C167.609 40.2912 167.299 40.348 167.038 40.4616C166.776 40.5724 166.573 40.7259 166.428 40.9219C166.286 41.1151 166.215 41.3352 166.215 41.5824C166.215 41.7898 166.263 41.9687 166.36 42.1193C166.46 42.2699 166.589 42.3963 166.748 42.4986C166.91 42.598 167.083 42.6818 167.268 42.75C167.452 42.8153 167.63 42.8693 167.8 42.9119L168.653 43.1335C168.931 43.2017 169.217 43.294 169.509 43.4105C169.802 43.527 170.073 43.6804 170.323 43.8707C170.573 44.0611 170.775 44.2969 170.928 44.5781C171.085 44.8594 171.163 45.196 171.163 45.5881C171.163 46.0824 171.035 46.5213 170.779 46.9048C170.526 47.2884 170.158 47.5909 169.675 47.8125C169.195 48.0341 168.614 48.1449 167.933 48.1449C167.279 48.1449 166.714 48.0412 166.237 47.8338C165.759 47.6264 165.386 47.3324 165.116 46.9517C164.846 46.5682 164.697 46.1136 164.668 45.5881H165.989C166.015 45.9034 166.117 46.1662 166.296 46.3764C166.478 46.5838 166.71 46.7386 166.991 46.8409C167.275 46.9403 167.586 46.9901 167.924 46.9901C168.296 46.9901 168.627 46.9318 168.917 46.8153C169.21 46.696 169.44 46.5312 169.607 46.321C169.775 46.108 169.859 45.8594 169.859 45.5753C169.859 45.3168 169.785 45.1051 169.637 44.9403C169.492 44.7756 169.295 44.6392 169.045 44.5312C168.798 44.4233 168.518 44.3281 168.205 44.2457L167.174 43.9645C166.475 43.7741 165.921 43.4943 165.512 43.125C165.106 42.7557 164.903 42.267 164.903 41.6591C164.903 41.1562 165.039 40.7173 165.312 40.3423C165.585 39.9673 165.954 39.6761 166.42 39.4688C166.886 39.2585 167.411 39.1534 167.996 39.1534C168.587 39.1534 169.109 39.2571 169.56 39.4645C170.015 39.6719 170.373 39.9574 170.634 40.321C170.896 40.6818 171.032 41.0966 171.043 41.5653H169.773ZM177.053 50.4545V46.9815H176.976C176.9 47.1207 176.789 47.2798 176.644 47.4588C176.502 47.6378 176.306 47.794 176.056 47.9276C175.806 48.0611 175.482 48.1278 175.084 48.1278C174.556 48.1278 174.084 47.9929 173.669 47.723C173.257 47.4503 172.934 47.0625 172.698 46.5597C172.465 46.054 172.348 45.4474 172.348 44.7401C172.348 44.0327 172.466 43.4276 172.702 42.9247C172.941 42.4219 173.267 42.0369 173.682 41.7699C174.097 41.5028 174.567 41.3693 175.093 41.3693C175.499 41.3693 175.826 41.4375 176.073 41.5739C176.323 41.7074 176.516 41.8636 176.652 42.0426C176.792 42.2216 176.9 42.3793 176.976 42.5156H177.083V41.4545H178.327V50.4545H177.053ZM175.365 47.0412C175.732 47.0412 176.042 46.9446 176.294 46.7514C176.55 46.5554 176.743 46.2841 176.874 45.9375C177.007 45.5909 177.074 45.1875 177.074 44.7273C177.074 44.2727 177.009 43.875 176.878 43.5341C176.748 43.1932 176.556 42.9276 176.303 42.7372C176.05 42.5469 175.738 42.4517 175.365 42.4517C174.982 42.4517 174.662 42.5511 174.407 42.75C174.151 42.9489 173.958 43.2202 173.827 43.5639C173.699 43.9077 173.635 44.2955 173.635 44.7273C173.635 45.1648 173.701 45.5582 173.831 45.9077C173.962 46.2571 174.155 46.5341 174.411 46.7386C174.669 46.9403 174.988 47.0412 175.365 47.0412ZM184.186 45.2855V41.4545H185.465V48H184.212V46.8665H184.144C183.993 47.2159 183.752 47.5071 183.419 47.7401C183.09 47.9702 182.679 48.0852 182.188 48.0852C181.767 48.0852 181.395 47.9929 181.071 47.8082C180.75 47.6207 180.498 47.3438 180.313 46.9773C180.131 46.6108 180.04 46.1577 180.04 45.6179V41.4545H181.314V45.4645C181.314 45.9105 181.438 46.2656 181.685 46.5298C181.932 46.794 182.253 46.9261 182.648 46.9261C182.887 46.9261 183.124 46.8665 183.36 46.7472C183.598 46.6278 183.796 46.4474 183.952 46.206C184.111 45.9645 184.189 45.6577 184.186 45.2855ZM189.082 48.1449C188.667 48.1449 188.292 48.0682 187.957 47.9148C187.621 47.7585 187.356 47.5327 187.16 47.2372C186.967 46.9418 186.87 46.5795 186.87 46.1506C186.87 45.7812 186.941 45.4773 187.083 45.2386C187.225 45 187.417 44.8111 187.658 44.6719C187.9 44.5327 188.17 44.4276 188.468 44.3565C188.766 44.2855 189.07 44.2315 189.38 44.1946C189.772 44.1491 190.09 44.1122 190.335 44.0838C190.579 44.0526 190.756 44.0028 190.867 43.9347C190.978 43.8665 191.033 43.7557 191.033 43.6023V43.5724C191.033 43.2003 190.928 42.9119 190.718 42.7074C190.511 42.5028 190.201 42.4006 189.789 42.4006C189.36 42.4006 189.022 42.4957 188.775 42.6861C188.531 42.8736 188.362 43.0824 188.268 43.3125L187.07 43.0398C187.212 42.642 187.42 42.321 187.692 42.0767C187.968 41.8295 188.285 41.6506 188.643 41.5398C189.001 41.4261 189.377 41.3693 189.772 41.3693C190.033 41.3693 190.31 41.4006 190.603 41.4631C190.898 41.5227 191.174 41.6335 191.43 41.7955C191.688 41.9574 191.9 42.1889 192.065 42.4901C192.229 42.7884 192.312 43.1761 192.312 43.6534V48H191.067V47.1051H191.016C190.934 47.2699 190.81 47.4318 190.646 47.5909C190.481 47.75 190.269 47.8821 190.011 47.9872C189.752 48.0923 189.442 48.1449 189.082 48.1449ZM189.359 47.1222C189.711 47.1222 190.012 47.0526 190.262 46.9134C190.515 46.7741 190.707 46.5923 190.837 46.3679C190.971 46.1406 191.038 45.8977 191.038 45.6392V44.7955C190.992 44.8409 190.904 44.8835 190.773 44.9233C190.646 44.9602 190.499 44.9929 190.335 45.0213C190.17 45.0469 190.009 45.071 189.853 45.0938C189.697 45.1136 189.566 45.1307 189.461 45.1449C189.214 45.1761 188.988 45.2287 188.783 45.3026C188.582 45.3764 188.42 45.483 188.298 45.6222C188.178 45.7585 188.119 45.9403 188.119 46.1676C188.119 46.483 188.235 46.7216 188.468 46.8835C188.701 47.0426 188.998 47.1222 189.359 47.1222ZM194.009 48V41.4545H195.24V42.4943H195.309C195.428 42.142 195.638 41.8651 195.939 41.6634C196.243 41.4588 196.587 41.3565 196.971 41.3565C197.05 41.3565 197.144 41.3594 197.252 41.3651C197.363 41.3707 197.449 41.3778 197.512 41.3864V42.6051C197.461 42.5909 197.37 42.5753 197.239 42.5582C197.108 42.5384 196.978 42.5284 196.847 42.5284C196.546 42.5284 196.277 42.5923 196.042 42.7202C195.809 42.8452 195.624 43.0199 195.488 43.2443C195.351 43.4659 195.283 43.7187 195.283 44.0028V48H194.009ZM201.201 48.1321C200.556 48.1321 200.001 47.9943 199.535 47.7188C199.072 47.4403 198.714 47.0497 198.461 46.5469C198.211 46.0412 198.086 45.4489 198.086 44.7699C198.086 44.0994 198.211 43.5085 198.461 42.9972C198.714 42.4858 199.066 42.0866 199.518 41.7997C199.972 41.5128 200.504 41.3693 201.112 41.3693C201.481 41.3693 201.839 41.4304 202.185 41.5526C202.532 41.6747 202.843 41.8665 203.119 42.1278C203.394 42.3892 203.612 42.7287 203.771 43.1463C203.93 43.5611 204.009 44.0653 204.009 44.6591V45.1108H198.806V44.1562H202.761C202.761 43.821 202.692 43.5241 202.556 43.2656C202.42 43.0043 202.228 42.7983 201.981 42.6477C201.737 42.4972 201.45 42.4219 201.12 42.4219C200.762 42.4219 200.45 42.5099 200.183 42.6861C199.918 42.8594 199.714 43.0866 199.569 43.3679C199.427 43.6463 199.356 43.9489 199.356 44.2756V45.0213C199.356 45.4588 199.433 45.831 199.586 46.1378C199.742 46.4446 199.96 46.679 200.238 46.8409C200.516 47 200.842 47.0795 201.214 47.0795C201.455 47.0795 201.675 47.0455 201.874 46.9773C202.073 46.9062 202.245 46.8011 202.39 46.6619C202.535 46.5227 202.646 46.3509 202.722 46.1463L203.928 46.3636C203.832 46.7187 203.658 47.0298 203.408 47.2969C203.161 47.5611 202.85 47.767 202.475 47.9148C202.103 48.0597 201.678 48.1321 201.201 48.1321Z" fill="white" fill-opacity="0.2"/>
<defs>
<linearGradient id="paint0_linear_13417_74616" x1="20" y1="52" x2="20" y2="12" gradientUnits="userSpaceOnUse">
<stop stop-color="#F6F7FA"/>
<stop offset="1" stop-color="white"/>
</linearGradient>
<clipPath id="clip0_13417_74616">
<rect width="40" height="40" fill="white" transform="translate(0 12)"/>
</clipPath>
<clipPath id="clip1_13417_74616">
<rect width="28" height="28" fill="white" transform="translate(6 18)"/>
</clipPath>
</defs>
</svg>
