<svg width="253" height="64" viewBox="0 0 253 64" fill="none" xmlns="http://www.w3.org/2000/svg">
<g clip-path="url(#clip0_7032_48234)">
<path d="M24.5895 39.8597V36.5136L18.9065 30.7268H15.4839L24.5895 39.8597Z" fill="white"/>
<path d="M0.136536 22.3398V25.6863L5.81957 31.4727H9.24218L0.136536 22.3398Z" fill="white"/>
<path d="M3.12134 18.7661H6.43829L12.1748 24.499L17.8605 18.7661H21.3265L12.1748 27.9516L3.12134 18.7661Z" fill="white"/>
<path d="M3.67957 43.1521H6.99651L12.7326 37.4192L18.4174 43.1521H21.8835L12.7326 33.9666L3.67957 43.1521Z" fill="white"/>
<path d="M12.3913 32.535C13.2317 32.535 13.913 31.8477 13.913 30.9999C13.913 30.1521 13.2317 29.4648 12.3913 29.4648C11.5509 29.4648 10.8696 30.1521 10.8696 30.9999C10.8696 31.8477 11.5509 32.535 12.3913 32.535Z" fill="#E6007A"/>
<path d="M118.092 33.8008C118.35 33.7881 118.608 33.8371 118.843 33.9439C119.079 34.0505 119.286 34.2119 119.449 34.4148C119.61 34.6228 119.723 34.8653 119.777 35.1238C119.831 35.3823 119.826 35.6499 119.762 35.9061C119.632 36.499 119.3 37.027 118.823 37.3973C118.371 37.7704 117.806 37.9749 117.223 37.9762C116.97 37.991 116.718 37.9464 116.486 37.8459C116.253 37.7454 116.047 37.5918 115.883 37.3973C115.725 37.1877 115.619 36.943 115.573 36.6836C115.528 36.4242 115.545 36.1576 115.623 35.9061C115.739 35.3207 116.052 34.7938 116.51 34.4148C116.944 34.021 117.508 33.8025 118.092 33.8008Z" fill="#E6007A"/>
<path d="M37.3261 33.7026H36.4183C36.2612 33.7175 36.1029 33.6927 35.9576 33.6305C35.8124 33.5683 35.6847 33.4708 35.5861 33.3465C35.5025 33.2258 35.4477 33.0872 35.4258 32.9416C35.404 32.796 35.4157 32.6473 35.46 32.507C35.5237 32.1953 35.6877 31.9136 35.9265 31.7057C36.1895 31.4588 36.5383 31.3263 36.8974 31.3369H37.8052L38.7383 27.0123C38.8029 26.6519 39.0061 26.3319 39.3035 26.1219C39.5716 25.9263 39.8931 25.819 40.2239 25.8149C40.498 25.8105 40.7636 25.9104 40.9678 26.0947C41.0786 26.2158 41.1547 26.365 41.188 26.5262C41.2213 26.6875 41.2106 26.8549 41.157 27.0105L40.2239 31.3351H41.1318C41.5637 31.3401 41.9908 31.2443 42.38 31.0553C42.7516 30.8734 43.0921 30.6329 43.3887 30.343C43.6835 30.0539 43.9305 29.7189 44.12 29.3509C44.3091 28.9898 44.4491 28.6048 44.5361 28.2062C44.6026 27.8456 44.6239 27.4781 44.5991 27.1123C44.5787 26.7755 44.4887 26.4467 44.3344 26.1474C44.1826 25.8586 43.9561 25.6168 43.6787 25.4478C43.3491 25.2584 42.9735 25.1659 42.5944 25.1807H37.78C37.4455 25.1822 37.1119 25.2163 36.7839 25.2825C36.4401 25.35 36.1084 25.4701 35.8005 25.6386C35.4948 25.8039 35.2214 26.0237 34.9935 26.2873C34.7578 26.5683 34.5972 26.9054 34.527 27.2667C34.4392 27.6265 34.4841 28.0062 34.6531 28.3351C34.8082 28.6368 34.9851 28.9265 35.1826 29.2018C35.3014 29.3235 35.3869 29.4741 35.4311 29.639C35.4753 29.8039 35.4766 29.9775 35.4348 30.143C35.3605 30.4598 35.1883 30.7445 34.9431 30.9562C34.701 31.1862 34.3805 31.3137 34.0478 31.3123C33.7628 31.3129 33.4863 31.214 33.2652 31.0325C32.791 30.5854 32.4358 30.0252 32.2322 29.4035C32.0108 28.713 31.9758 27.9755 32.1305 27.2667C32.2696 26.5819 32.5535 25.9355 32.9626 25.3715C33.3622 24.8241 33.8528 24.3507 34.4126 23.9724C34.9818 23.588 35.6072 23.2962 36.2661 23.1075C36.9216 22.9149 37.6008 22.8164 38.2835 22.8149H42.9487C43.7044 22.7873 44.4548 22.9533 45.13 23.2974C45.6787 23.5898 46.14 24.0244 46.4665 24.5566C46.7818 25.0867 46.9718 25.683 47.0213 26.2991C47.0796 26.9541 47.0413 27.6142 46.9078 28.2579C46.7496 28.9557 46.4952 29.6276 46.1522 30.2544C45.8031 30.9019 45.3557 31.4904 44.8261 31.9983C44.2844 32.5152 43.657 32.9328 42.9726 33.232C42.2405 33.5511 41.4501 33.7115 40.6526 33.7026H39.747L39.4948 34.8983C39.3981 35.3104 39.2586 35.7112 39.0787 36.0939C38.909 36.4572 38.6787 36.7885 38.3978 37.0733C38.1095 37.3603 37.7663 37.5853 37.3892 37.7347C36.9423 37.905 36.4672 37.9871 35.9896 37.9763C35.601 37.9684 35.2152 37.9086 34.8422 37.7983C34.6244 37.7346 34.4227 37.6244 34.2508 37.4752C34.0789 37.3259 33.9409 37.1412 33.8461 36.9333C33.7004 36.708 33.6462 36.4347 33.6948 36.1702C33.7771 35.8337 33.9733 35.5367 34.2496 35.3307C34.5148 35.1175 34.8435 35.001 35.1826 35C35.3346 34.9974 35.4854 35.0279 35.6246 35.0893C35.7638 35.1508 35.8883 35.2418 35.9896 35.3562C36.0412 35.4362 36.1122 35.5015 36.1959 35.546C36.2797 35.5905 36.3732 35.6127 36.4678 35.6105C36.556 35.6067 36.6412 35.5769 36.7128 35.525C36.7845 35.473 36.8396 35.4011 36.8713 35.318C37.0316 34.9291 37.1499 34.524 37.2244 34.1097L37.3261 33.7026ZM46.4044 32.9649C46.5561 32.2688 46.8291 31.6056 47.2113 31.0062C47.5926 30.4019 48.0648 29.8612 48.6109 29.4035C49.1561 28.9462 49.7687 28.5772 50.4265 28.3097C51.0705 28.0423 51.76 27.904 52.4565 27.9026C53.1096 27.891 53.7565 28.0302 54.3478 28.3097C54.88 28.5626 55.3461 28.9371 55.7096 29.4035C56.0691 29.8758 56.3191 30.4234 56.4409 31.0062C56.5752 31.653 56.5665 32.3218 56.4157 32.9649C56.2657 33.6575 55.9922 34.3168 55.6087 34.911C55.2252 35.5096 54.7531 36.0458 54.2091 36.5009C53.6648 36.9574 53.0509 37.3225 52.3913 37.582C51.737 37.8432 51.0396 37.9771 50.3361 37.9768C49.6926 37.9865 49.0552 37.8516 48.47 37.582C47.937 37.3365 47.47 36.9658 47.1083 36.5009C46.7505 36.0324 46.5005 35.4892 46.377 34.911C46.2435 34.2682 46.2531 33.6036 46.4044 32.9649ZM54.0704 32.9649C54.1539 32.6146 54.1626 32.2504 54.0957 31.8965C54.0352 31.5732 53.9013 31.2684 53.7044 31.0062C53.5109 30.7515 53.26 30.5466 52.9731 30.4083C52.6618 30.2604 52.3209 30.1864 51.977 30.1921C51.6052 30.1925 51.2365 30.2659 50.8926 30.4083C50.5387 30.5529 50.2109 30.7548 49.9218 31.0062C49.6261 31.2623 49.3709 31.5626 49.1652 31.8965C48.9596 32.225 48.8105 32.5862 48.7239 32.9649C48.6318 33.2929 48.6157 33.6379 48.677 33.9731C48.7383 34.3084 48.8752 34.6249 49.077 34.8983C49.2826 35.1609 49.5483 35.3697 49.8509 35.5072C50.1535 35.6446 50.4848 35.7065 50.8161 35.6877C51.1878 35.6873 51.5565 35.6139 51.9005 35.4715C52.2522 35.3282 52.5796 35.1308 52.8713 34.8864C53.1665 34.6394 53.4218 34.3476 53.6278 34.0215C53.8352 33.6981 53.9852 33.3405 54.0704 32.9649ZM62.8209 23.3246C62.7704 23.3246 62.7326 23.3755 62.7074 23.4772L62.6204 23.8333L60.2991 34.8728C60.2657 35.0085 60.2317 35.1484 60.1983 35.2926C60.1726 35.4093 60.1391 35.524 60.0974 35.636C60.2352 35.4873 60.4026 35.3701 60.5891 35.2926C60.7383 35.2356 60.8961 35.2059 61.0557 35.2048C61.187 35.2007 61.3178 35.2247 61.4396 35.2751C61.5613 35.3255 61.6709 35.4012 61.7618 35.4974C61.8539 35.6006 61.917 35.7272 61.9435 35.8636C61.97 36 61.9596 36.1411 61.9131 36.2719C61.8596 36.549 61.7283 36.8047 61.5348 37.0088C61.2591 37.3552 60.8983 37.623 60.4883 37.7855C60.1526 37.9081 59.7987 37.9726 59.4418 37.9763C59.1657 38.0047 58.887 37.9625 58.6313 37.8536C58.3757 37.7446 58.1513 37.5725 57.9791 37.3531C57.6935 36.9376 57.6422 36.255 57.8261 35.3053L60.247 23.9088C60.3331 23.3989 60.4857 22.9027 60.7009 22.4333C60.8557 22.101 61.0744 21.8029 61.3439 21.5561C61.59 21.3429 61.8848 21.1944 62.2013 21.1237C62.57 21.0431 62.9465 21.0047 63.3235 21.0092H63.5252C63.6618 21.0024 63.7978 21.0317 63.92 21.0941C64.0418 21.1566 64.1457 21.2501 64.2209 21.3654C64.2991 21.479 64.3522 21.6084 64.3761 21.7447C64.4 21.881 64.3944 22.0209 64.3596 22.1548C64.2883 22.4629 64.1204 22.7396 63.8813 22.9443C63.6561 23.1797 63.3483 23.3167 63.0239 23.3259L62.8209 23.3246ZM67.5113 35.7886C67.3435 35.4611 67.2 35.1212 67.0826 34.7719C66.9487 34.3881 66.9222 33.9743 67.007 33.5763C67.0926 33.2346 67.2931 32.9334 67.5744 32.7241C67.9144 32.4644 68.2726 32.2298 68.6461 32.0224C68.9752 31.8384 69.2696 31.5972 69.5157 31.3101C69.7091 31.1 69.8513 30.8474 69.9318 30.5724C69.9822 30.318 69.7887 30.1908 69.3517 30.1908C69.0057 30.1927 68.6631 30.2619 68.3431 30.3943C67.9896 30.5416 67.6683 30.7577 67.3974 31.0303C67.0791 31.3504 66.8074 31.7144 66.5904 32.1114C66.3296 32.5919 66.1465 33.1115 66.0483 33.6504L65.3913 36.8333C65.3609 37.0087 65.2952 37.1759 65.1978 37.3244C65.1009 37.4729 64.9739 37.5996 64.8261 37.6965C64.5604 37.8744 64.2496 37.9715 63.9304 37.9763C63.7983 37.9799 63.6665 37.957 63.5435 37.909C63.42 37.861 63.3074 37.7887 63.2117 37.6965C63.1113 37.5801 63.0431 37.4389 63.0144 37.2872C62.9857 37.1356 62.997 36.979 63.0478 36.8333L65.7461 24.0123C65.8335 23.4987 65.9861 22.9985 66.2 22.5241C66.3526 22.1866 66.5713 21.8838 66.8431 21.6338C67.0857 21.4224 67.3757 21.274 67.6878 21.2013C68.0522 21.1202 68.4244 21.0818 68.7974 21.0868H69.0244C69.1613 21.0765 69.2983 21.1042 69.4204 21.167C69.5426 21.2298 69.6457 21.3253 69.7178 21.443C69.8609 21.6792 69.9104 21.9611 69.8565 22.2325C69.7744 22.5282 69.6135 22.7956 69.3913 23.0057C69.2831 23.1221 69.1522 23.2148 69.007 23.2783C68.8613 23.3417 68.7048 23.3745 68.5465 23.3746H68.3196C68.2691 23.3746 68.2313 23.4255 68.2061 23.5272C68.1809 23.629 68.1517 23.7562 68.1191 23.9088L66.9565 29.3272C67.4335 28.9041 67.9687 28.5529 68.5452 28.2842C69.0252 28.0479 69.5496 27.9178 70.0835 27.9026C70.4165 27.8865 70.7491 27.9389 71.0613 28.0566C71.3735 28.1744 71.6583 28.3551 71.8991 28.5877C72.1248 28.8222 72.2835 29.1137 72.3591 29.4315C72.4344 29.7493 72.4235 30.0817 72.3278 30.3939C72.1574 31.1418 71.787 31.8282 71.2561 32.3781C70.7222 32.969 70.0626 33.4305 69.327 33.7281C69.3774 33.8129 69.4531 33.9612 69.5539 34.1733C69.6548 34.3852 69.76 34.6015 69.8696 34.8219C69.967 35.0214 70.0809 35.2121 70.21 35.3921C70.3278 35.5532 70.437 35.6338 70.5378 35.6338C70.6822 35.526 70.8335 35.4285 70.9913 35.3421C71.1535 35.2508 71.3361 35.2031 71.5217 35.2035C71.6517 35.1983 71.7813 35.2218 71.9017 35.2723C72.0217 35.3228 72.1296 35.3992 72.2174 35.4961C72.3061 35.6016 72.3657 35.7289 72.39 35.8652C72.4144 36.0014 72.4026 36.1417 72.3561 36.2719C72.3044 36.5462 72.1726 36.7986 71.9778 36.9969C71.7822 37.2033 71.5609 37.3829 71.3191 37.5312C71.0974 37.6689 70.8604 37.7799 70.6131 37.8619C70.4265 37.929 70.2309 37.9676 70.0331 37.9763C69.72 37.985 69.4091 37.9196 69.1252 37.7855C68.8757 37.6603 68.6496 37.4925 68.457 37.2895C68.2578 37.0779 68.0839 36.843 67.94 36.5899C67.7887 36.327 67.6457 36.0599 67.5113 35.7886ZM81.8852 34.8474C81.8517 35 81.8139 35.1569 81.7717 35.318C81.7444 35.4357 81.7065 35.5507 81.6583 35.6614L81.7844 35.5597C82.0335 35.3527 82.3444 35.2362 82.667 35.229C82.7948 35.2232 82.9226 35.2465 83.0404 35.2972C83.1583 35.3478 83.2635 35.4244 83.3478 35.5215C83.4322 35.6244 83.49 35.7467 83.5165 35.8776C83.543 36.0085 83.537 36.1439 83.4991 36.2719C83.4204 36.5656 83.2735 36.8362 83.0704 37.0614C82.7752 37.3557 82.4291 37.5929 82.0491 37.761C81.7344 37.8987 81.3961 37.9722 81.0531 37.9772C80.0948 37.9772 79.54 37.5447 79.3887 36.6798C78.9591 37.0648 78.4748 37.3822 77.9513 37.6211C77.4283 37.8589 76.8609 37.9804 76.287 37.9772C75.7413 37.9984 75.1991 37.8803 74.7109 37.6338C74.3152 37.4206 73.987 37.0987 73.7652 36.7053C73.5396 36.2905 73.4104 35.8295 73.387 35.357C73.357 34.8097 73.4078 34.261 73.5383 33.729C73.6865 33.011 73.9326 32.3173 74.2696 31.6676C74.6165 30.9809 75.0583 30.3471 75.5809 29.7851C76.0926 29.2332 76.6939 28.7734 77.3587 28.4254C78.0161 28.0794 78.7474 27.9004 79.4891 27.904C80.0696 27.883 80.6365 28.0828 81.0778 28.4636C81.22 28.2844 81.4013 28.1407 81.6074 28.0439C81.7965 27.9534 82.0031 27.9057 82.2126 27.904C82.3457 27.9006 82.4783 27.9249 82.6022 27.9752C82.7257 28.0255 82.8378 28.1008 82.9313 28.1965C83.0317 28.3158 83.0996 28.4594 83.1283 28.6132C83.157 28.767 83.1457 28.9257 83.0952 29.0737L81.8852 34.8474ZM79.0104 30.1921C78.6109 30.1909 78.22 30.3105 77.8883 30.5355C77.5348 30.7731 77.2204 31.0649 76.9565 31.4004C76.6787 31.7471 76.4452 32.1274 76.2609 32.5325C76.087 32.9051 75.96 33.2982 75.8826 33.7026C75.8335 33.9454 75.8078 34.1925 75.807 34.4404C75.8031 34.659 75.8461 34.8759 75.9331 35.0763C76.0135 35.2587 76.1448 35.4133 76.3113 35.5215C76.5091 35.6397 76.737 35.6971 76.967 35.6869C77.3417 35.6856 77.7104 35.5894 78.0387 35.407C78.3865 35.218 78.6983 34.9683 78.9591 34.6693C79.2357 34.3541 79.4696 34.0034 79.6548 33.6263C79.8444 33.2476 79.9839 32.8457 80.0709 32.4307C80.2078 31.9164 80.1948 31.3731 80.0331 30.8662C79.9639 30.6533 79.8252 30.4704 79.6391 30.3478C79.4535 30.2253 79.2313 30.1703 79.0104 30.1921ZM93.3087 34.8728C93.2752 35.0085 93.2413 35.1484 93.2078 35.2926C93.1822 35.4093 93.1487 35.524 93.107 35.636C93.2609 35.5021 93.4357 35.3947 93.6239 35.318C93.7731 35.2611 93.9309 35.2314 94.0904 35.2303C94.2183 35.2245 94.3461 35.2479 94.4639 35.2985C94.5817 35.3491 94.687 35.4258 94.7713 35.5228C94.8557 35.6257 94.9135 35.748 94.94 35.8789C94.9665 36.0098 94.9604 36.1452 94.9226 36.2733C94.8396 36.5601 94.7026 36.8281 94.5191 37.0627C94.2326 37.385 93.8739 37.6336 93.4726 37.7877C93.1539 37.9061 92.8178 37.9698 92.4783 37.9763C92.03 38.0051 91.587 37.8697 91.23 37.5947C91.0748 37.4479 90.9513 37.2706 90.8665 37.0737C90.7822 36.8768 90.7383 36.6646 90.7383 36.45C90.2965 36.899 89.7857 37.2727 89.2252 37.5566C88.6696 37.8366 88.0561 37.9804 87.4348 37.9763C86.8852 37.9964 86.3391 37.8784 85.8461 37.6329C85.447 37.4246 85.1178 37.1015 84.9004 36.7044C84.6826 36.2872 84.5578 35.827 84.5348 35.3562C84.5048 34.8089 84.5557 34.2601 84.6861 33.7281C84.8352 33.0086 85.0857 32.3144 85.43 31.6667C85.7822 30.984 86.2226 30.3514 86.7391 29.7851C87.2448 29.2316 87.8417 28.7715 88.5044 28.4254C89.1539 28.0814 89.8765 27.9024 90.61 27.904C90.9352 27.8839 91.26 27.9539 91.5487 28.1063C91.8378 28.2587 92.08 28.4878 92.2491 28.7689L93.7117 21.8496C93.777 21.5057 93.9713 21.2004 94.2539 20.9974C94.5065 20.8107 94.8104 20.7084 95.1235 20.7048C95.2626 20.7006 95.4009 20.7243 95.5309 20.7745C95.6609 20.8247 95.7796 20.9005 95.88 20.9974C95.9831 21.1099 96.0544 21.2487 96.0852 21.3988C96.1165 21.5489 96.1065 21.7047 96.0565 21.8496L93.3087 34.8728ZM90.1304 30.1921C89.7309 30.1909 89.34 30.3105 89.0083 30.5355C88.6544 30.773 88.3396 31.0648 88.0752 31.4004C87.7974 31.7471 87.5639 32.1274 87.3796 32.5325C87.2057 32.9051 87.0787 33.2982 87.0013 33.7026C86.9522 33.9454 86.9265 34.1925 86.9257 34.4404C86.9217 34.659 86.9648 34.8759 87.0517 35.0763C87.1322 35.2587 87.2635 35.4133 87.43 35.5215C87.6365 35.6416 87.8731 35.699 88.1109 35.6869C88.4917 35.6884 88.8661 35.5874 89.1952 35.3943C89.5383 35.1935 89.8452 34.9354 90.1031 34.6312C90.3748 34.3147 90.6048 33.964 90.787 33.5877C90.9674 33.2197 91.1026 32.8311 91.1904 32.4303C91.3274 31.916 91.3144 31.3727 91.1526 30.8658C91.0835 30.653 90.9448 30.4703 90.7587 30.3478C90.5731 30.2253 90.3513 30.1704 90.1304 30.1921ZM99.7139 37.9763C99.0783 37.9916 98.4478 37.8564 97.8731 37.5816C97.3696 37.3337 96.9357 36.9619 96.6122 36.5005C96.2844 36.0213 96.0687 35.4733 95.9817 34.8978C95.8822 34.2545 95.9078 33.5978 96.0574 32.9645C96.2048 32.263 96.46 31.5892 96.8139 30.9676C97.153 30.366 97.5874 29.8246 98.1 29.3649C98.6109 28.9115 99.1952 28.5501 99.8274 28.2965C100.489 28.0307 101.196 27.8966 101.908 27.9018C102.51 27.8836 103.109 27.983 103.673 28.1943C104.1 28.3591 104.483 28.6201 104.795 28.9575C105.066 29.2576 105.249 29.6273 105.325 30.0259C105.4 30.4255 105.396 30.8363 105.312 31.2342C105.22 31.6449 105.058 32.0365 104.834 32.3917C104.596 32.7765 104.298 33.12 103.951 33.4092C103.579 33.7172 103.157 33.9581 102.703 34.1215C102.206 34.3027 101.681 34.3931 101.152 34.3886C100.937 34.3878 100.723 34.3751 100.509 34.3504C100.297 34.3287 100.089 34.2774 99.8913 34.1978C99.7144 34.1282 99.5644 34.0034 99.4626 33.8417C99.3552 33.6342 99.3283 33.3939 99.387 33.1676C99.4657 32.8592 99.6322 32.5808 99.8652 32.3662C99.9804 32.2485 100.118 32.1552 100.27 32.0918C100.421 32.0285 100.584 31.9964 100.748 31.9974C100.913 31.9933 101.077 32.0281 101.226 32.0991C101.402 32.1717 101.591 32.2063 101.781 32.2009C101.933 32.2062 102.086 32.1808 102.229 32.1262C102.371 32.0716 102.502 31.9889 102.613 31.8829C102.797 31.7276 102.929 31.5189 102.991 31.2851C103.015 31.1487 103.005 31.0084 102.961 30.8772C102.917 30.7461 102.84 30.6282 102.739 30.5347C102.37 30.2588 101.91 30.1359 101.453 30.1912C101.084 30.1857 100.717 30.2548 100.375 30.3947C100.033 30.5345 99.7222 30.7421 99.4609 31.0053C98.9135 31.5343 98.5361 32.2165 98.3765 32.964C98.1944 33.6119 98.2713 34.3061 98.5909 34.8974C98.7522 35.1604 98.9822 35.3733 99.2561 35.5127C99.5296 35.652 99.8361 35.7123 100.142 35.6869C100.531 35.6944 100.92 35.6342 101.289 35.5088C101.677 35.3548 102.039 35.1402 102.361 34.8728C102.604 34.6522 102.917 34.526 103.243 34.5167C103.377 34.5133 103.51 34.5401 103.632 34.5952C103.754 34.6502 103.863 34.732 103.95 34.8347C104.042 34.9434 104.106 35.0734 104.137 35.2131C104.167 35.3528 104.164 35.498 104.126 35.636C104.087 35.7837 104.028 35.925 103.95 36.0557C103.858 36.209 103.748 36.3501 103.622 36.4755C103.096 37.0002 102.458 37.3962 101.757 37.6329C101.098 37.8567 100.409 37.9726 99.7139 37.9763ZM111.692 32.7869L113.558 36.1202C113.635 36.2197 113.683 36.3385 113.697 36.4636C113.705 36.5794 113.692 36.6958 113.659 36.807C113.58 37.1309 113.393 37.4178 113.13 37.6202C112.887 37.8407 112.575 37.9669 112.248 37.9763C112.097 37.9766 111.95 37.9371 111.819 37.8619C111.685 37.7857 111.572 37.6762 111.491 37.5439L109.852 34.693L107.078 37.5439C106.947 37.6994 106.777 37.8173 106.586 37.886C106.436 37.94 106.278 37.9696 106.119 37.9737C105.982 37.9755 105.846 37.9441 105.723 37.8821C105.6 37.8201 105.494 37.7294 105.413 37.6176C105.323 37.5051 105.26 37.3729 105.229 37.2316C105.199 37.0903 105.201 36.9437 105.237 36.8035C105.268 36.6912 105.306 36.5807 105.35 36.4728C105.416 36.3385 105.505 36.2177 105.615 36.1167L108.843 32.8097L107.153 29.8079C107.069 29.589 107.052 29.35 107.103 29.1211C107.175 28.7903 107.363 28.4969 107.632 28.2943C107.878 28.0805 108.19 27.9591 108.515 27.9509C108.661 27.9539 108.803 27.9933 108.931 28.0654C109.07 28.1387 109.188 28.2485 109.271 28.3833L110.683 30.9018L113.155 28.3833C113.289 28.2481 113.447 28.1401 113.621 28.0654C113.768 27.9962 113.927 27.9572 114.088 27.9509C114.232 27.9483 114.375 27.9805 114.504 28.0447C114.633 28.1088 114.746 28.2031 114.832 28.3197C114.925 28.433 114.991 28.5668 115.024 28.7104C115.057 28.854 115.056 29.0034 115.021 29.1465C114.95 29.4007 114.81 29.6299 114.617 29.8079L111.692 32.7869Z" fill="white"/>
</g>
<path d="M136 25V37" stroke="#363A4D"/>
<path d="M160.896 24.224H163.264V28.768C162.656 29.2267 161.952 29.5787 161.152 29.824C160.352 30.0693 159.547 30.192 158.736 30.192C157.573 30.192 156.528 29.9467 155.6 29.456C154.672 28.9547 153.941 28.2667 153.408 27.392C152.885 26.5067 152.624 25.5093 152.624 24.4C152.624 23.2907 152.885 22.2987 153.408 21.424C153.941 20.5387 154.677 19.8507 155.616 19.36C156.555 18.8587 157.611 18.608 158.784 18.608C159.765 18.608 160.656 18.7733 161.456 19.104C162.256 19.4347 162.928 19.9147 163.472 20.544L161.808 22.08C161.008 21.2373 160.043 20.816 158.912 20.816C158.197 20.816 157.563 20.9653 157.008 21.264C156.453 21.5627 156.021 21.984 155.712 22.528C155.403 23.072 155.248 23.696 155.248 24.4C155.248 25.0933 155.403 25.712 155.712 26.256C156.021 26.8 156.448 27.2267 156.992 27.536C157.547 27.8347 158.176 27.984 158.88 27.984C159.627 27.984 160.299 27.824 160.896 27.504V24.224ZM169.592 30.128C168.685 30.128 167.869 29.9413 167.144 29.568C166.429 29.184 165.869 28.656 165.464 27.984C165.058 27.312 164.856 26.5493 164.856 25.696C164.856 24.8427 165.058 24.08 165.464 23.408C165.869 22.736 166.429 22.2133 167.144 21.84C167.869 21.456 168.685 21.264 169.592 21.264C170.498 21.264 171.309 21.456 172.024 21.84C172.738 22.2133 173.298 22.736 173.704 23.408C174.109 24.08 174.312 24.8427 174.312 25.696C174.312 26.5493 174.109 27.312 173.704 27.984C173.298 28.656 172.738 29.184 172.024 29.568C171.309 29.9413 170.498 30.128 169.592 30.128ZM169.592 28.08C170.232 28.08 170.754 27.8667 171.16 27.44C171.576 27.0027 171.784 26.4213 171.784 25.696C171.784 24.9707 171.576 24.3947 171.16 23.968C170.754 23.5307 170.232 23.312 169.592 23.312C168.952 23.312 168.424 23.5307 168.008 23.968C167.592 24.3947 167.384 24.9707 167.384 25.696C167.384 26.4213 167.592 27.0027 168.008 27.44C168.424 27.8667 168.952 28.08 169.592 28.08ZM184.29 21.392L180.658 30H178.082L174.466 21.392H177.042L179.426 27.248L181.89 21.392H184.29ZM193.506 25.728C193.506 25.76 193.49 25.984 193.458 26.4H186.946C187.063 26.9333 187.341 27.3547 187.778 27.664C188.215 27.9733 188.759 28.128 189.41 28.128C189.858 28.128 190.253 28.064 190.594 27.936C190.946 27.7973 191.271 27.584 191.57 27.296L192.898 28.736C192.087 29.664 190.903 30.128 189.346 30.128C188.375 30.128 187.517 29.9413 186.77 29.568C186.023 29.184 185.447 28.656 185.042 27.984C184.637 27.312 184.434 26.5493 184.434 25.696C184.434 24.8533 184.631 24.096 185.026 23.424C185.431 22.7413 185.981 22.2133 186.674 21.84C187.378 21.456 188.162 21.264 189.026 21.264C189.869 21.264 190.631 21.4453 191.314 21.808C191.997 22.1707 192.53 22.6933 192.914 23.376C193.309 24.048 193.506 24.832 193.506 25.728ZM189.042 23.152C188.477 23.152 188.002 23.312 187.618 23.632C187.234 23.952 186.999 24.3893 186.914 24.944H191.154C191.069 24.4 190.834 23.968 190.45 23.648C190.066 23.3173 189.597 23.152 189.042 23.152ZM197.552 22.528C197.85 22.112 198.25 21.7973 198.752 21.584C199.264 21.3707 199.85 21.264 200.512 21.264V23.568C200.234 23.5467 200.048 23.536 199.952 23.536C199.237 23.536 198.677 23.7387 198.272 24.144C197.866 24.5387 197.664 25.136 197.664 25.936V30H195.168V21.392H197.552V22.528ZM207.228 21.264C208.294 21.264 209.153 21.584 209.804 22.224C210.465 22.864 210.796 23.8133 210.796 25.072V30H208.3V25.456C208.3 24.7733 208.15 24.2667 207.852 23.936C207.553 23.5947 207.121 23.424 206.556 23.424C205.926 23.424 205.425 23.6213 205.052 24.016C204.678 24.4 204.492 24.976 204.492 25.744V30H201.996V21.392H204.38V22.4C204.71 22.0373 205.121 21.76 205.612 21.568C206.102 21.3653 206.641 21.264 207.228 21.264ZM216.53 21.264C217.864 21.264 218.888 21.584 219.602 22.224C220.317 22.8533 220.674 23.808 220.674 25.088V30H218.338V28.928C217.869 29.728 216.994 30.128 215.714 30.128C215.053 30.128 214.477 30.016 213.986 29.792C213.506 29.568 213.138 29.2587 212.882 28.864C212.626 28.4693 212.498 28.0213 212.498 27.52C212.498 26.72 212.797 26.0907 213.394 25.632C214.002 25.1733 214.936 24.944 216.194 24.944H218.178C218.178 24.4 218.013 23.984 217.682 23.696C217.352 23.3973 216.856 23.248 216.194 23.248C215.736 23.248 215.282 23.3227 214.834 23.472C214.397 23.6107 214.024 23.8027 213.714 24.048L212.818 22.304C213.288 21.9733 213.848 21.7173 214.498 21.536C215.16 21.3547 215.837 21.264 216.53 21.264ZM216.338 28.448C216.765 28.448 217.144 28.352 217.474 28.16C217.805 27.9573 218.04 27.664 218.178 27.28V26.4H216.466C215.442 26.4 214.93 26.736 214.93 27.408C214.93 27.728 215.053 27.984 215.298 28.176C215.554 28.3573 215.901 28.448 216.338 28.448ZM228.165 21.264C229.232 21.264 230.091 21.584 230.741 22.224C231.403 22.864 231.733 23.8133 231.733 25.072V30H229.237V25.456C229.237 24.7733 229.088 24.2667 228.789 23.936C228.491 23.5947 228.059 23.424 227.493 23.424C226.864 23.424 226.363 23.6213 225.989 24.016C225.616 24.4 225.429 24.976 225.429 25.744V30H222.933V21.392H225.317V22.4C225.648 22.0373 226.059 21.76 226.549 21.568C227.04 21.3653 227.579 21.264 228.165 21.264ZM238.25 30.128C237.332 30.128 236.506 29.9413 235.77 29.568C235.044 29.184 234.474 28.656 234.058 27.984C233.652 27.312 233.45 26.5493 233.45 25.696C233.45 24.8427 233.652 24.08 234.058 23.408C234.474 22.736 235.044 22.2133 235.77 21.84C236.506 21.456 237.332 21.264 238.25 21.264C239.156 21.264 239.946 21.456 240.618 21.84C241.3 22.2133 241.796 22.752 242.106 23.456L240.17 24.496C239.722 23.7067 239.076 23.312 238.234 23.312C237.583 23.312 237.044 23.5253 236.618 23.952C236.191 24.3787 235.978 24.96 235.978 25.696C235.978 26.432 236.191 27.0133 236.618 27.44C237.044 27.8667 237.583 28.08 238.234 28.08C239.087 28.08 239.732 27.6853 240.17 26.896L242.106 27.952C241.796 28.6347 241.3 29.168 240.618 29.552C239.946 29.936 239.156 30.128 238.25 30.128ZM251.865 25.728C251.865 25.76 251.849 25.984 251.817 26.4H245.305C245.423 26.9333 245.7 27.3547 246.137 27.664C246.575 27.9733 247.119 28.128 247.769 28.128C248.217 28.128 248.612 28.064 248.953 27.936C249.305 27.7973 249.631 27.584 249.929 27.296L251.257 28.736C250.447 29.664 249.263 30.128 247.705 30.128C246.735 30.128 245.876 29.9413 245.129 29.568C244.383 29.184 243.807 28.656 243.401 27.984C242.996 27.312 242.793 26.5493 242.793 25.696C242.793 24.8533 242.991 24.096 243.385 23.424C243.791 22.7413 244.34 22.2133 245.033 21.84C245.737 21.456 246.521 21.264 247.385 21.264C248.228 21.264 248.991 21.4453 249.673 21.808C250.356 22.1707 250.889 22.6933 251.273 23.376C251.668 24.048 251.865 24.832 251.865 25.728ZM247.401 23.152C246.836 23.152 246.361 23.312 245.977 23.632C245.593 23.952 245.359 24.3893 245.273 24.944H249.513C249.428 24.4 249.193 23.968 248.809 23.648C248.425 23.3173 247.956 23.152 247.401 23.152Z" fill="white"/>
<path d="M156.858 39.5455C156.815 39.1856 156.643 38.9062 156.339 38.7074C156.036 38.5085 155.665 38.4091 155.224 38.4091C154.902 38.4091 154.621 38.4612 154.379 38.5653C154.14 38.6695 153.953 38.8127 153.818 38.995C153.686 39.1773 153.619 39.3845 153.619 39.6165C153.619 39.8106 153.665 39.9775 153.758 40.1172C153.853 40.2545 153.973 40.3693 154.12 40.4616C154.267 40.5516 154.421 40.6262 154.582 40.6854C154.743 40.7422 154.891 40.7884 155.026 40.8239L155.764 41.0227C155.954 41.0724 156.164 41.1411 156.396 41.2287C156.631 41.3163 156.854 41.4358 157.067 41.5874C157.283 41.7365 157.46 41.9283 157.6 42.1626C157.74 42.397 157.81 42.6847 157.81 43.0256C157.81 43.4186 157.707 43.7737 157.501 44.0909C157.297 44.4081 156.999 44.6603 156.606 44.8473C156.215 45.0343 155.741 45.1278 155.182 45.1278C154.661 45.1278 154.21 45.0438 153.829 44.8757C153.45 44.7076 153.152 44.4732 152.934 44.1726C152.719 43.8719 152.597 43.5227 152.568 43.125H153.477C153.501 43.3996 153.593 43.6269 153.754 43.8068C153.918 43.9844 154.124 44.117 154.372 44.2045C154.623 44.2898 154.893 44.3324 155.182 44.3324C155.518 44.3324 155.82 44.2779 156.087 44.169C156.355 44.0578 156.567 43.9039 156.723 43.7074C156.879 43.5085 156.957 43.2765 156.957 43.0114C156.957 42.7699 156.89 42.5734 156.755 42.4219C156.62 42.2704 156.442 42.1473 156.222 42.0526C156.002 41.9579 155.764 41.875 155.509 41.804L154.614 41.5483C154.045 41.3849 153.596 41.1518 153.264 40.8487C152.933 40.5457 152.767 40.1491 152.767 39.6591C152.767 39.2519 152.877 38.8968 153.097 38.5938C153.32 38.2884 153.618 38.0516 153.992 37.8835C154.369 37.7131 154.789 37.6278 155.253 37.6278C155.722 37.6278 156.138 37.7119 156.503 37.88C156.867 38.0457 157.156 38.273 157.369 38.5618C157.585 38.8506 157.698 39.1785 157.71 39.5455H156.858ZM162.581 42.7699V39.5455H163.42V45H162.581V44.0767H162.525C162.397 44.3537 162.198 44.5893 161.928 44.7834C161.658 44.9751 161.317 45.071 160.905 45.071C160.564 45.071 160.261 44.9964 159.996 44.8473C159.731 44.6958 159.523 44.4685 159.371 44.1655C159.22 43.8601 159.144 43.4754 159.144 43.0114V39.5455H159.982V42.9545C159.982 43.3523 160.093 43.6695 160.316 43.9062C160.541 44.143 160.827 44.2614 161.175 44.2614C161.384 44.2614 161.595 44.2081 161.811 44.1016C162.029 43.995 162.211 43.8317 162.358 43.6115C162.507 43.3913 162.581 43.1108 162.581 42.7699ZM165.068 45V37.7273H165.906V40.4119H165.977C166.039 40.3172 166.124 40.1965 166.233 40.0497C166.344 39.9006 166.503 39.768 166.709 39.652C166.917 39.5336 167.199 39.4744 167.554 39.4744C168.013 39.4744 168.418 39.5893 168.768 39.8189C169.119 40.0485 169.392 40.3741 169.589 40.7955C169.785 41.2169 169.884 41.714 169.884 42.2869C169.884 42.8646 169.785 43.3653 169.589 43.7891C169.392 44.2105 169.12 44.5372 168.772 44.7692C168.424 44.9988 168.023 45.1136 167.568 45.1136C167.218 45.1136 166.937 45.0556 166.727 44.9396C166.516 44.8213 166.354 44.6875 166.24 44.5384C166.126 44.3868 166.039 44.2614 165.977 44.1619H165.878V45H165.068ZM165.892 42.2727C165.892 42.6847 165.952 43.0481 166.073 43.3629C166.194 43.6754 166.37 43.9205 166.602 44.098C166.834 44.2732 167.118 44.3608 167.455 44.3608C167.805 44.3608 168.097 44.2685 168.332 44.0838C168.568 43.8968 168.746 43.6458 168.864 43.331C168.985 43.0137 169.045 42.661 169.045 42.2727C169.045 41.8892 168.986 41.5436 168.868 41.2358C168.752 40.9257 168.576 40.6806 168.339 40.5007C168.104 40.3184 167.81 40.2273 167.455 40.2273C167.114 40.2273 166.827 40.3137 166.595 40.4865C166.363 40.657 166.188 40.8961 166.07 41.2038C165.951 41.5092 165.892 41.8655 165.892 42.2727ZM175.256 39.5455C175.214 39.1856 175.041 38.9062 174.738 38.7074C174.435 38.5085 174.063 38.4091 173.623 38.4091C173.301 38.4091 173.019 38.4612 172.778 38.5653C172.539 38.6695 172.352 38.8127 172.217 38.995C172.084 39.1773 172.018 39.3845 172.018 39.6165C172.018 39.8106 172.064 39.9775 172.156 40.1172C172.251 40.2545 172.372 40.3693 172.518 40.4616C172.665 40.5516 172.819 40.6262 172.98 40.6854C173.141 40.7422 173.289 40.7884 173.424 40.8239L174.163 41.0227C174.352 41.0724 174.563 41.1411 174.795 41.2287C175.029 41.3163 175.253 41.4358 175.466 41.5874C175.681 41.7365 175.859 41.9283 175.999 42.1626C176.138 42.397 176.208 42.6847 176.208 43.0256C176.208 43.4186 176.105 43.7737 175.899 44.0909C175.696 44.4081 175.397 44.6603 175.004 44.8473C174.614 45.0343 174.139 45.1278 173.58 45.1278C173.059 45.1278 172.608 45.0438 172.227 44.8757C171.848 44.7076 171.55 44.4732 171.332 44.1726C171.117 43.8719 170.995 43.5227 170.967 43.125H171.876C171.899 43.3996 171.992 43.6269 172.153 43.8068C172.316 43.9844 172.522 44.117 172.771 44.2045C173.022 44.2898 173.291 44.3324 173.58 44.3324C173.916 44.3324 174.218 44.2779 174.486 44.169C174.753 44.0578 174.965 43.9039 175.121 43.7074C175.278 43.5085 175.356 43.2765 175.356 43.0114C175.356 42.7699 175.288 42.5734 175.153 42.4219C175.018 42.2704 174.841 42.1473 174.621 42.0526C174.401 41.9579 174.163 41.875 173.907 41.804L173.012 41.5483C172.444 41.3849 171.994 41.1518 171.663 40.8487C171.331 40.5457 171.165 40.1491 171.165 39.6591C171.165 39.2519 171.276 38.8968 171.496 38.5938C171.718 38.2884 172.017 38.0516 172.391 37.8835C172.767 37.7131 173.187 37.6278 173.651 37.6278C174.12 37.6278 174.537 37.7119 174.901 37.88C175.266 38.0457 175.555 38.273 175.768 38.5618C175.983 38.8506 176.097 39.1785 176.109 39.5455H175.256ZM181.264 47.0455V44.1619H181.193C181.131 44.2614 181.044 44.3868 180.93 44.5384C180.817 44.6875 180.654 44.8213 180.444 44.9396C180.233 45.0556 179.952 45.1136 179.602 45.1136C179.148 45.1136 178.746 44.9988 178.398 44.7692C178.05 44.5372 177.778 44.2105 177.581 43.7891C177.385 43.3653 177.287 42.8646 177.287 42.2869C177.287 41.714 177.385 41.2169 177.581 40.7955C177.778 40.3741 178.051 40.0485 178.402 39.8189C178.752 39.5893 179.157 39.4744 179.616 39.4744C179.971 39.4744 180.252 39.5336 180.458 39.652C180.666 39.768 180.825 39.9006 180.934 40.0497C181.045 40.1965 181.131 40.3172 181.193 40.4119H181.292V39.5455H182.102V47.0455H181.264ZM179.716 44.3608C180.052 44.3608 180.336 44.2732 180.568 44.098C180.8 43.9205 180.976 43.6754 181.097 43.3629C181.218 43.0481 181.278 42.6847 181.278 42.2727C181.278 41.8655 181.219 41.5092 181.101 41.2038C180.982 40.8961 180.807 40.657 180.575 40.4865C180.343 40.3137 180.057 40.2273 179.716 40.2273C179.361 40.2273 179.065 40.3184 178.828 40.5007C178.594 40.6806 178.417 40.9257 178.299 41.2358C178.183 41.5436 178.125 41.8892 178.125 42.2727C178.125 42.661 178.184 43.0137 178.302 43.331C178.423 43.6458 178.601 43.8968 178.835 44.0838C179.072 44.2685 179.365 44.3608 179.716 44.3608ZM187.074 42.7699V39.5455H187.912V45H187.074V44.0767H187.017C186.889 44.3537 186.69 44.5893 186.42 44.7834C186.15 44.9751 185.809 45.071 185.398 45.071C185.057 45.071 184.754 44.9964 184.488 44.8473C184.223 44.6958 184.015 44.4685 183.863 44.1655C183.712 43.8601 183.636 43.4754 183.636 43.0114V39.5455H184.474V42.9545C184.474 43.3523 184.586 43.6695 184.808 43.9062C185.033 44.143 185.319 44.2614 185.667 44.2614C185.876 44.2614 186.088 44.2081 186.303 44.1016C186.521 43.995 186.703 43.8317 186.85 43.6115C186.999 43.3913 187.074 43.1108 187.074 42.7699ZM191.052 45.1278C190.706 45.1278 190.393 45.0627 190.111 44.9325C189.829 44.8 189.605 44.6094 189.44 44.3608C189.274 44.1098 189.191 43.8068 189.191 43.4517C189.191 43.1392 189.253 42.8859 189.376 42.6918C189.499 42.4953 189.663 42.3414 189.869 42.2301C190.075 42.1188 190.303 42.036 190.551 41.9815C190.802 41.9247 191.054 41.8797 191.308 41.8466C191.639 41.804 191.908 41.772 192.114 41.7507C192.322 41.727 192.473 41.688 192.568 41.6335C192.665 41.5791 192.714 41.4844 192.714 41.3494V41.321C192.714 40.9706 192.618 40.6984 192.426 40.5043C192.237 40.3101 191.949 40.2131 191.563 40.2131C191.163 40.2131 190.849 40.3007 190.622 40.4759C190.395 40.651 190.235 40.8381 190.143 41.0369L189.347 40.7528C189.489 40.4214 189.679 40.1634 189.915 39.9787C190.155 39.7917 190.415 39.6615 190.697 39.5881C190.981 39.5123 191.26 39.4744 191.535 39.4744C191.71 39.4744 191.911 39.4957 192.138 39.5384C192.368 39.5786 192.589 39.6626 192.803 39.7905C193.018 39.9183 193.197 40.1113 193.339 40.3693C193.481 40.6274 193.552 40.973 193.552 41.4062V45H192.714V44.2614H192.671C192.614 44.3797 192.52 44.5064 192.387 44.6413C192.254 44.7763 192.078 44.8911 191.858 44.9858C191.638 45.0805 191.369 45.1278 191.052 45.1278ZM191.18 44.375C191.511 44.375 191.79 44.3099 192.018 44.1797C192.247 44.0495 192.42 43.8814 192.536 43.6754C192.655 43.4695 192.714 43.2528 192.714 43.0256V42.2585C192.678 42.3011 192.6 42.3402 192.479 42.3757C192.361 42.4089 192.224 42.4384 192.067 42.4645C191.914 42.4882 191.763 42.5095 191.616 42.5284C191.472 42.545 191.355 42.5592 191.265 42.571C191.047 42.5994 190.844 42.6456 190.654 42.7095C190.467 42.7711 190.316 42.8646 190.2 42.9901C190.086 43.1132 190.029 43.2812 190.029 43.4943C190.029 43.7855 190.137 44.0057 190.352 44.1548C190.57 44.3016 190.846 44.375 191.18 44.375ZM195.081 45V39.5455H195.891V40.3693H195.948C196.047 40.0994 196.227 39.8804 196.488 39.7124C196.748 39.5443 197.042 39.4602 197.368 39.4602C197.43 39.4602 197.507 39.4614 197.599 39.4638C197.692 39.4661 197.761 39.4697 197.809 39.4744V40.3267C197.78 40.3196 197.715 40.3089 197.613 40.2947C197.514 40.2782 197.409 40.2699 197.297 40.2699C197.032 40.2699 196.796 40.3255 196.587 40.4368C196.381 40.5457 196.218 40.6972 196.097 40.8913C195.979 41.0831 195.92 41.3021 195.92 41.5483V45H195.081ZM200.923 45.1136C200.398 45.1136 199.944 44.9976 199.563 44.7656C199.184 44.5312 198.892 44.2045 198.686 43.7855C198.482 43.3641 198.381 42.8741 198.381 42.3153C198.381 41.7566 198.482 41.2642 198.686 40.8381C198.892 40.4096 199.178 40.0758 199.545 39.8366C199.915 39.5952 200.345 39.4744 200.838 39.4744C201.122 39.4744 201.403 39.5218 201.68 39.6165C201.956 39.7112 202.209 39.8651 202.436 40.0781C202.663 40.2888 202.844 40.5682 202.979 40.9162C203.114 41.2642 203.182 41.6927 203.182 42.2017V42.5568H198.977V41.8324H202.329C202.329 41.5246 202.268 41.25 202.145 41.0085C202.024 40.767 201.851 40.5765 201.626 40.4368C201.404 40.2971 201.141 40.2273 200.838 40.2273C200.504 40.2273 200.215 40.3101 199.971 40.4759C199.73 40.6392 199.544 40.8523 199.414 41.1151C199.284 41.3778 199.219 41.6596 199.219 41.9602V42.4432C199.219 42.8551 199.29 43.2043 199.432 43.4908C199.576 43.7749 199.776 43.9915 200.032 44.1406C200.287 44.2874 200.585 44.3608 200.923 44.3608C201.143 44.3608 201.342 44.33 201.52 44.2685C201.7 44.2045 201.855 44.1098 201.985 43.9844C202.115 43.8565 202.216 43.6979 202.287 43.5085L203.096 43.7358C203.011 44.0104 202.868 44.2519 202.667 44.4602C202.465 44.6662 202.217 44.8272 201.921 44.9432C201.625 45.0568 201.292 45.1136 200.923 45.1136Z" fill="white" fill-opacity="0.25"/>
<defs>
<clipPath id="clip0_7032_48234">
<rect width="120" height="25" fill="white" transform="translate(0 18.5)"/>
</clipPath>
</defs>
</svg>
