<svg width="246" height="64" viewBox="0 0 246 64" fill="none" xmlns="http://www.w3.org/2000/svg">
    <g clip-path="url(#clip0_6006_42858)">
        <path d="M34.8487 22.5806C33.5349 22.5806 32.2688 22.7456 31.7531 22.8852C31.0027 23.0962 30.8155 23.4246 30.6742 24.1053L27.6961 37.8471C27.6485 38.1279 27.6025 38.3627 27.6025 38.5976C27.6025 39.2783 28.0484 39.7224 28.7751 39.7224C29.5732 39.7224 29.9016 39.2068 30.065 38.4087L30.9091 34.4929C31.4945 34.5627 32.2688 34.6342 33.3715 34.6342C38.2267 34.6342 41.2507 32.0083 41.2507 28.0449C41.2507 24.5733 38.8342 22.5806 34.8487 22.5806ZM33.2541 32.3827C32.5036 32.3827 31.9165 32.3589 31.3788 32.2891L32.9495 24.9954C33.4413 24.9256 34.1697 24.8303 34.9201 24.8303C37.5 24.8303 38.8138 26.0505 38.8138 28.0671C38.8121 30.6469 36.935 32.3827 33.2541 32.3827Z"
              fill="black"/>
        <path d="M111.25 35.1957C110.852 35.1957 110.593 35.4306 110.101 35.9701C109.233 36.8618 108.694 37.3536 108.015 37.3536C107.406 37.3536 107.077 36.8618 107.077 36.0636C107.077 35.6178 107.171 35.0783 107.288 34.4929L108.156 30.4121H110.76C111.58 30.4121 112.074 29.9424 112.074 29.0983C112.074 28.6286 111.769 28.2781 111.066 28.2781H108.624L109.046 26.3789C109.094 26.0981 109.14 25.8394 109.14 25.6046C109.14 24.9477 108.694 24.478 107.967 24.478C107.193 24.478 106.842 24.9937 106.677 25.7918L106.138 28.2781H105.035C104.191 28.2781 103.699 28.7478 103.699 29.5918C103.699 30.0615 104.028 30.4121 104.73 30.4121H105.692L104.824 34.4453C104.73 34.8911 104.613 35.6178 104.613 36.3683C104.613 38.2674 105.598 39.651 107.709 39.651C108.929 39.651 110.006 39.0417 110.828 38.3134C111.626 37.6106 112.211 36.7427 112.211 36.1794C112.211 35.6416 111.789 35.1957 111.25 35.1957Z"
              fill="black"/>
        <path d="M57.3134 23.9641C57.3134 23.2834 56.8438 22.8375 56.1171 22.8375C55.3428 22.8375 54.9922 23.3532 54.8272 24.1513L51.8967 37.7756C51.8269 38.0564 51.7793 38.2913 51.7793 38.5261C51.7793 39.2068 52.249 39.651 52.9518 39.651C53.7499 39.651 54.1005 39.1353 54.2656 38.3372L57.196 24.7146C57.2437 24.4321 57.3134 24.1989 57.3134 23.9641Z"
              fill="black"/>
        <path d="M99.172 28.0432C95.4196 28.0432 92.8635 31.7718 92.8635 35.3132C92.8635 35.3795 92.8652 35.4459 92.8669 35.5106C92.2781 36.404 91.5259 37.3297 91.0103 37.3297C90.6359 37.3297 90.4947 36.9775 90.4947 36.438C90.4947 35.7811 90.6819 34.6784 90.8929 33.7169L92.8397 24.7112C92.8874 24.4304 92.9333 24.1955 92.9333 23.9607C92.9333 23.28 92.4874 22.8341 91.7608 22.8341C90.9627 22.8341 90.6359 23.3497 90.4708 24.1479L89.4157 29.0251C88.8525 28.4397 88.0305 28.0398 86.7882 28.0398C84.2968 28.0398 81.7901 29.9577 80.8133 32.9C79.7378 35.6807 78.7763 37.3263 78.0173 37.3263C77.7365 37.3263 77.5715 37.0915 77.5715 36.6933C77.5715 35.5208 78.2283 32.6601 78.5091 31.2766C78.6027 30.7609 78.6504 30.5499 78.6504 30.2453C78.6504 29.214 76.9384 27.9939 74.7108 27.9939C72.1343 27.9939 69.8012 29.6259 68.6321 32.0492C66.8946 35.1192 65.3 37.3263 64.5104 37.3263C64.1582 37.3263 64.0407 36.8805 63.9471 36.4584L63.3634 33.2268L66.9507 30.2963C67.2792 30.0156 67.7012 29.6156 67.7012 29.1C67.7012 28.467 67.2792 28.0449 66.6461 28.0449C66.1764 28.0449 65.7782 28.3257 65.38 28.6541L59.9871 33.1094L61.7927 24.7146C61.8403 24.4338 61.9101 24.1989 61.9101 23.9641C61.9101 23.2834 61.4404 22.8375 60.7138 22.8375C59.9395 22.8375 59.5889 23.3531 59.4238 24.1513L56.4934 37.7756C56.4236 38.0564 56.376 38.2912 56.376 38.5261C56.376 39.2068 56.8457 39.651 57.5485 39.651C58.3466 39.651 58.6972 39.1353 58.8623 38.3372L59.2383 36.5793L61.4421 34.7975L61.9816 37.5169C62.1926 38.5959 62.7559 39.651 64.2092 39.651C65.6557 39.651 66.7942 38.3304 67.9344 36.5452C68.2798 38.4155 69.6106 39.651 71.457 39.651C73.3102 39.651 74.5764 38.5482 75.3966 37.0711V37.1187C75.3966 38.6435 76.1709 39.651 77.5306 39.651C78.761 39.651 79.7821 38.909 80.6942 37.3331C81.2115 38.7065 82.3687 39.651 83.9786 39.651C85.8778 39.651 87.2375 38.5023 88.1054 36.9077V37.049C88.1054 38.7371 88.9495 39.6527 90.333 39.6527C91.5549 39.6527 92.593 38.943 93.4796 37.7892C94.1535 38.943 95.3617 39.6527 96.9937 39.6527C100.746 39.6527 103.302 35.9241 103.302 32.3589C103.3 29.8488 101.776 28.0432 99.172 28.0432ZM75.7931 32.8048C75.1124 35.7352 73.6591 37.4012 72.0169 37.4012C70.9142 37.4012 70.3049 36.5571 70.3049 35.291C70.3049 32.8048 72.1105 30.1313 74.5253 30.1313C75.252 30.1313 75.8152 30.3423 76.3071 30.6469L75.7931 32.8048ZM88.8542 31.5625C88.1037 35.0102 86.3917 37.4012 84.5164 37.4012C83.4851 37.4012 82.8742 36.6031 82.8742 35.291C82.8742 32.7826 84.61 30.1789 86.9312 30.1789C87.8229 30.1789 88.5019 30.4835 88.9954 30.8818L88.8542 31.5625ZM97.2728 37.4012C95.9131 37.4012 95.3498 36.4159 95.3498 35.1736C95.3498 32.8983 96.9205 30.2963 98.8912 30.2963C100.251 30.2963 100.814 31.2817 100.814 32.524C100.814 34.8213 99.2434 37.4012 97.2728 37.4012Z"
              fill="black"/>
        <path d="M47.0897 28.0432C43.3373 28.0432 40.7812 31.7718 40.7812 35.3132C40.7812 37.8454 42.306 39.651 44.908 39.651C48.6604 39.651 51.2165 35.9224 51.2165 32.3572C51.2165 29.8488 49.6917 28.0432 47.0897 28.0432ZM45.1905 37.4012C43.8308 37.4012 43.2675 36.4159 43.2675 35.1736C43.2675 32.8983 44.8383 30.2963 46.8089 30.2963C48.1686 30.2963 48.7319 31.2817 48.7319 32.524C48.7302 34.8213 47.1595 37.4012 45.1905 37.4012Z"
              fill="black"/>
        <path d="M11.2827 24.0338C13.6727 24.0338 15.6103 22.907 15.6103 21.5169C15.6103 20.1269 13.6727 19 11.2827 19C8.89261 19 6.95508 20.1269 6.95508 21.5169C6.95508 22.907 8.89261 24.0338 11.2827 24.0338Z"
              fill="#E6007A"/>
        <path d="M11.2827 42.9983C13.6727 42.9983 15.6103 41.8714 15.6103 40.4814C15.6103 39.0913 13.6727 37.9645 11.2827 37.9645C8.89261 37.9645 6.95508 39.0913 6.95508 40.4814C6.95508 41.8714 8.89261 42.9983 11.2827 42.9983Z"
              fill="#E6007A"/>
        <path d="M5.25162 27.5179C6.44665 25.4481 6.43889 23.2064 5.23429 22.5109C4.0297 21.8154 2.08441 22.9295 0.889381 24.9993C-0.30565 27.069 -0.297894 29.3108 0.906705 30.0063C2.1113 30.7018 4.05659 29.5877 5.25162 27.5179Z"
              fill="#E6007A"/>
        <path d="M21.6735 36.999C22.8685 34.9292 22.8614 32.6878 21.6576 31.9928C20.4538 31.2978 18.5092 32.4123 17.3142 34.482C16.1192 36.5518 16.1263 38.7932 17.33 39.4882C18.5338 40.1832 20.4784 39.0687 21.6735 36.999Z"
              fill="#E6007A"/>
        <path d="M5.23527 39.4875C6.43987 38.792 6.44763 36.5503 5.2526 34.4805C4.05756 32.4108 2.11228 31.2967 0.907682 31.9922C-0.296917 32.6877 -0.304674 34.9294 0.890357 36.9992C2.08539 39.069 4.03067 40.183 5.23527 39.4875Z"
              fill="#E6007A"/>
        <path d="M21.6586 30.0067C22.8624 29.3117 22.8695 27.0704 21.6745 25.0006C20.4794 22.9308 18.5348 21.8163 17.331 22.5113C16.1272 23.2063 16.1201 25.4477 17.3152 27.5175C18.5102 29.5873 20.4548 30.7017 21.6586 30.0067Z"
              fill="#E6007A"/>
    </g>
    <path d="M128.211 25V37" stroke="#E0E4EB"/>
    <path d="M153.107 24.224H155.475V28.768C154.867 29.2267 154.163 29.5787 153.363 29.824C152.563 30.0693 151.758 30.192 150.947 30.192C149.784 30.192 148.739 29.9467 147.811 29.456C146.883 28.9547 146.152 28.2667 145.619 27.392C145.096 26.5067 144.835 25.5093 144.835 24.4C144.835 23.2907 145.096 22.2987 145.619 21.424C146.152 20.5387 146.888 19.8507 147.827 19.36C148.766 18.8587 149.822 18.608 150.995 18.608C151.976 18.608 152.867 18.7733 153.667 19.104C154.467 19.4347 155.139 19.9147 155.683 20.544L154.019 22.08C153.219 21.2373 152.254 20.816 151.123 20.816C150.408 20.816 149.774 20.9653 149.219 21.264C148.664 21.5627 148.232 21.984 147.923 22.528C147.614 23.072 147.459 23.696 147.459 24.4C147.459 25.0933 147.614 25.712 147.923 26.256C148.232 26.8 148.659 27.2267 149.203 27.536C149.758 27.8347 150.387 27.984 151.091 27.984C151.838 27.984 152.51 27.824 153.107 27.504V24.224ZM161.803 30.128C160.896 30.128 160.08 29.9413 159.355 29.568C158.64 29.184 158.08 28.656 157.675 27.984C157.269 27.312 157.067 26.5493 157.067 25.696C157.067 24.8427 157.269 24.08 157.675 23.408C158.08 22.736 158.64 22.2133 159.355 21.84C160.08 21.456 160.896 21.264 161.803 21.264C162.709 21.264 163.52 21.456 164.235 21.84C164.949 22.2133 165.509 22.736 165.915 23.408C166.32 24.08 166.523 24.8427 166.523 25.696C166.523 26.5493 166.32 27.312 165.915 27.984C165.509 28.656 164.949 29.184 164.235 29.568C163.52 29.9413 162.709 30.128 161.803 30.128ZM161.803 28.08C162.443 28.08 162.965 27.8667 163.371 27.44C163.787 27.0027 163.995 26.4213 163.995 25.696C163.995 24.9707 163.787 24.3947 163.371 23.968C162.965 23.5307 162.443 23.312 161.803 23.312C161.163 23.312 160.635 23.5307 160.219 23.968C159.803 24.3947 159.595 24.9707 159.595 25.696C159.595 26.4213 159.803 27.0027 160.219 27.44C160.635 27.8667 161.163 28.08 161.803 28.08ZM176.501 21.392L172.869 30H170.293L166.677 21.392H169.253L171.637 27.248L174.101 21.392H176.501ZM185.717 25.728C185.717 25.76 185.701 25.984 185.669 26.4H179.157C179.274 26.9333 179.551 27.3547 179.989 27.664C180.426 27.9733 180.97 28.128 181.621 28.128C182.069 28.128 182.463 28.064 182.805 27.936C183.157 27.7973 183.482 27.584 183.781 27.296L185.109 28.736C184.298 29.664 183.114 30.128 181.557 30.128C180.586 30.128 179.727 29.9413 178.981 29.568C178.234 29.184 177.658 28.656 177.253 27.984C176.847 27.312 176.645 26.5493 176.645 25.696C176.645 24.8533 176.842 24.096 177.237 23.424C177.642 22.7413 178.191 22.2133 178.885 21.84C179.589 21.456 180.373 21.264 181.237 21.264C182.079 21.264 182.842 21.4453 183.525 21.808C184.207 22.1707 184.741 22.6933 185.125 23.376C185.519 24.048 185.717 24.832 185.717 25.728ZM181.253 23.152C180.687 23.152 180.213 23.312 179.829 23.632C179.445 23.952 179.21 24.3893 179.125 24.944H183.365C183.279 24.4 183.045 23.968 182.661 23.648C182.277 23.3173 181.807 23.152 181.253 23.152ZM189.763 22.528C190.061 22.112 190.461 21.7973 190.963 21.584C191.475 21.3707 192.061 21.264 192.723 21.264V23.568C192.445 23.5467 192.259 23.536 192.163 23.536C191.448 23.536 190.888 23.7387 190.483 24.144C190.077 24.5387 189.875 25.136 189.875 25.936V30H187.379V21.392H189.763V22.528ZM199.439 21.264C200.505 21.264 201.364 21.584 202.015 22.224C202.676 22.864 203.007 23.8133 203.007 25.072V30H200.511V25.456C200.511 24.7733 200.361 24.2667 200.063 23.936C199.764 23.5947 199.332 23.424 198.767 23.424C198.137 23.424 197.636 23.6213 197.263 24.016C196.889 24.4 196.703 24.976 196.703 25.744V30H194.207V21.392H196.591V22.4C196.921 22.0373 197.332 21.76 197.823 21.568C198.313 21.3653 198.852 21.264 199.439 21.264ZM208.741 21.264C210.075 21.264 211.099 21.584 211.813 22.224C212.528 22.8533 212.885 23.808 212.885 25.088V30H210.549V28.928C210.08 29.728 209.205 30.128 207.925 30.128C207.264 30.128 206.688 30.016 206.197 29.792C205.717 29.568 205.349 29.2587 205.093 28.864C204.837 28.4693 204.709 28.0213 204.709 27.52C204.709 26.72 205.008 26.0907 205.605 25.632C206.213 25.1733 207.147 24.944 208.405 24.944H210.389C210.389 24.4 210.224 23.984 209.893 23.696C209.563 23.3973 209.067 23.248 208.405 23.248C207.947 23.248 207.493 23.3227 207.045 23.472C206.608 23.6107 206.235 23.8027 205.925 24.048L205.029 22.304C205.499 21.9733 206.059 21.7173 206.709 21.536C207.371 21.3547 208.048 21.264 208.741 21.264ZM208.549 28.448C208.976 28.448 209.355 28.352 209.685 28.16C210.016 27.9573 210.251 27.664 210.389 27.28V26.4H208.677C207.653 26.4 207.141 26.736 207.141 27.408C207.141 27.728 207.264 27.984 207.509 28.176C207.765 28.3573 208.112 28.448 208.549 28.448ZM220.376 21.264C221.443 21.264 222.302 21.584 222.952 22.224C223.614 22.864 223.944 23.8133 223.944 25.072V30H221.448V25.456C221.448 24.7733 221.299 24.2667 221 23.936C220.702 23.5947 220.27 23.424 219.704 23.424C219.075 23.424 218.574 23.6213 218.2 24.016C217.827 24.4 217.64 24.976 217.64 25.744V30H215.144V21.392H217.528V22.4C217.859 22.0373 218.27 21.76 218.76 21.568C219.251 21.3653 219.79 21.264 220.376 21.264ZM230.46 30.128C229.543 30.128 228.716 29.9413 227.98 29.568C227.255 29.184 226.684 28.656 226.268 27.984C225.863 27.312 225.66 26.5493 225.66 25.696C225.66 24.8427 225.863 24.08 226.268 23.408C226.684 22.736 227.255 22.2133 227.98 21.84C228.716 21.456 229.543 21.264 230.46 21.264C231.367 21.264 232.156 21.456 232.828 21.84C233.511 22.2133 234.007 22.752 234.316 23.456L232.38 24.496C231.932 23.7067 231.287 23.312 230.444 23.312C229.794 23.312 229.255 23.5253 228.828 23.952C228.402 24.3787 228.188 24.96 228.188 25.696C228.188 26.432 228.402 27.0133 228.828 27.44C229.255 27.8667 229.794 28.08 230.444 28.08C231.298 28.08 231.943 27.6853 232.38 26.896L234.316 27.952C234.007 28.6347 233.511 29.168 232.828 29.552C232.156 29.936 231.367 30.128 230.46 30.128ZM244.076 25.728C244.076 25.76 244.06 25.984 244.028 26.4H237.516C237.634 26.9333 237.911 27.3547 238.348 27.664C238.786 27.9733 239.33 28.128 239.98 28.128C240.428 28.128 240.823 28.064 241.164 27.936C241.516 27.7973 241.842 27.584 242.14 27.296L243.468 28.736C242.658 29.664 241.474 30.128 239.916 30.128C238.946 30.128 238.087 29.9413 237.34 29.568C236.594 29.184 236.018 28.656 235.612 27.984C235.207 27.312 235.004 26.5493 235.004 25.696C235.004 24.8533 235.202 24.096 235.596 23.424C236.002 22.7413 236.551 22.2133 237.244 21.84C237.948 21.456 238.732 21.264 239.596 21.264C240.439 21.264 241.202 21.4453 241.884 21.808C242.567 22.1707 243.1 22.6933 243.484 23.376C243.879 24.048 244.076 24.832 244.076 25.728ZM239.612 23.152C239.047 23.152 238.572 23.312 238.188 23.632C237.804 23.952 237.57 24.3893 237.484 24.944H241.724C241.639 24.4 241.404 23.968 241.02 23.648C240.636 23.3173 240.167 23.152 239.612 23.152Z"
          fill="#1E2134"/>
    <path d="M149.069 39.5455C149.026 39.1856 148.853 38.9062 148.55 38.7074C148.247 38.5085 147.876 38.4091 147.435 38.4091C147.113 38.4091 146.832 38.4612 146.59 38.5653C146.351 38.6695 146.164 38.8127 146.029 38.995C145.897 39.1773 145.83 39.3845 145.83 39.6165C145.83 39.8106 145.876 39.9775 145.969 40.1172C146.063 40.2545 146.184 40.3693 146.331 40.4616C146.478 40.5516 146.632 40.6262 146.793 40.6854C146.954 40.7422 147.102 40.7884 147.237 40.8239L147.975 41.0227C148.165 41.0724 148.375 41.1411 148.607 41.2287C148.842 41.3163 149.065 41.4358 149.278 41.5874C149.494 41.7365 149.671 41.9283 149.811 42.1626C149.951 42.397 150.021 42.6847 150.021 43.0256C150.021 43.4186 149.918 43.7737 149.712 44.0909C149.508 44.4081 149.21 44.6603 148.817 44.8473C148.426 45.0343 147.951 45.1278 147.393 45.1278C146.872 45.1278 146.421 45.0438 146.04 44.8757C145.661 44.7076 145.363 44.4732 145.145 44.1726C144.929 43.8719 144.808 43.5227 144.779 43.125H145.688C145.712 43.3996 145.804 43.6269 145.965 43.8068C146.129 43.9844 146.335 44.117 146.583 44.2045C146.834 44.2898 147.104 44.3324 147.393 44.3324C147.729 44.3324 148.031 44.2779 148.298 44.169C148.566 44.0578 148.778 43.9039 148.934 43.7074C149.09 43.5085 149.168 43.2765 149.168 43.0114C149.168 42.7699 149.101 42.5734 148.966 42.4219C148.831 42.2704 148.653 42.1473 148.433 42.0526C148.213 41.9579 147.975 41.875 147.719 41.804L146.825 41.5483C146.256 41.3849 145.807 41.1518 145.475 40.8487C145.144 40.5457 144.978 40.1491 144.978 39.6591C144.978 39.2519 145.088 38.8968 145.308 38.5938C145.531 38.2884 145.829 38.0516 146.203 37.8835C146.58 37.7131 147 37.6278 147.464 37.6278C147.933 37.6278 148.349 37.7119 148.714 37.88C149.078 38.0457 149.367 38.273 149.58 38.5618C149.796 38.8506 149.909 39.1785 149.921 39.5455H149.069ZM154.792 42.7699V39.5455H155.631V45H154.792V44.0767H154.736C154.608 44.3537 154.409 44.5893 154.139 44.7834C153.869 44.9751 153.528 45.071 153.116 45.071C152.775 45.071 152.472 44.9964 152.207 44.8473C151.942 44.6958 151.734 44.4685 151.582 44.1655C151.431 43.8601 151.355 43.4754 151.355 43.0114V39.5455H152.193V42.9545C152.193 43.3523 152.304 43.6695 152.527 43.9062C152.752 44.143 153.038 44.2614 153.386 44.2614C153.595 44.2614 153.806 44.2081 154.022 44.1016C154.24 43.995 154.422 43.8317 154.569 43.6115C154.718 43.3913 154.792 43.1108 154.792 42.7699ZM157.279 45V37.7273H158.117V40.4119H158.188C158.25 40.3172 158.335 40.1965 158.444 40.0497C158.555 39.9006 158.714 39.768 158.92 39.652C159.128 39.5336 159.41 39.4744 159.765 39.4744C160.224 39.4744 160.629 39.5893 160.979 39.8189C161.33 40.0485 161.603 40.3741 161.8 40.7955C161.996 41.2169 162.094 41.714 162.094 42.2869C162.094 42.8646 161.996 43.3653 161.8 43.7891C161.603 44.2105 161.331 44.5372 160.983 44.7692C160.635 44.9988 160.234 45.1136 159.779 45.1136C159.429 45.1136 159.148 45.0556 158.938 44.9396C158.727 44.8213 158.565 44.6875 158.451 44.5384C158.337 44.3868 158.25 44.2614 158.188 44.1619H158.089V45H157.279ZM158.103 42.2727C158.103 42.6847 158.163 43.0481 158.284 43.3629C158.405 43.6754 158.581 43.9205 158.813 44.098C159.045 44.2732 159.329 44.3608 159.665 44.3608C160.016 44.3608 160.308 44.2685 160.543 44.0838C160.779 43.8968 160.957 43.6458 161.075 43.331C161.196 43.0137 161.256 42.661 161.256 42.2727C161.256 41.8892 161.197 41.5436 161.079 41.2358C160.963 40.9257 160.786 40.6806 160.55 40.5007C160.315 40.3184 160.021 40.2273 159.665 40.2273C159.325 40.2273 159.038 40.3137 158.806 40.4865C158.574 40.657 158.399 40.8961 158.281 41.2038C158.162 41.5092 158.103 41.8655 158.103 42.2727ZM167.467 39.5455C167.425 39.1856 167.252 38.9062 166.949 38.7074C166.646 38.5085 166.274 38.4091 165.834 38.4091C165.512 38.4091 165.23 38.4612 164.989 38.5653C164.75 38.6695 164.563 38.8127 164.428 38.995C164.295 39.1773 164.229 39.3845 164.229 39.6165C164.229 39.8106 164.275 39.9775 164.367 40.1172C164.462 40.2545 164.583 40.3693 164.729 40.4616C164.876 40.5516 165.03 40.6262 165.191 40.6854C165.352 40.7422 165.5 40.7884 165.635 40.8239L166.374 41.0227C166.563 41.0724 166.774 41.1411 167.006 41.2287C167.24 41.3163 167.464 41.4358 167.677 41.5874C167.892 41.7365 168.07 41.9283 168.21 42.1626C168.349 42.397 168.419 42.6847 168.419 43.0256C168.419 43.4186 168.316 43.7737 168.11 44.0909C167.906 44.4081 167.608 44.6603 167.215 44.8473C166.825 45.0343 166.35 45.1278 165.791 45.1278C165.27 45.1278 164.819 45.0438 164.438 44.8757C164.059 44.7076 163.761 44.4732 163.543 44.1726C163.328 43.8719 163.206 43.5227 163.178 43.125H164.087C164.11 43.3996 164.203 43.6269 164.364 43.8068C164.527 43.9844 164.733 44.117 164.982 44.2045C165.232 44.2898 165.502 44.3324 165.791 44.3324C166.127 44.3324 166.429 44.2779 166.697 44.169C166.964 44.0578 167.176 43.9039 167.332 43.7074C167.489 43.5085 167.567 43.2765 167.567 43.0114C167.567 42.7699 167.499 42.5734 167.364 42.4219C167.229 42.2704 167.052 42.1473 166.832 42.0526C166.612 41.9579 166.374 41.875 166.118 41.804L165.223 41.5483C164.655 41.3849 164.205 41.1518 163.874 40.8487C163.542 40.5457 163.376 40.1491 163.376 39.6591C163.376 39.2519 163.487 38.8968 163.707 38.5938C163.929 38.2884 164.228 38.0516 164.602 37.8835C164.978 37.7131 165.398 37.6278 165.862 37.6278C166.331 37.6278 166.748 37.7119 167.112 37.88C167.477 38.0457 167.766 38.273 167.979 38.5618C168.194 38.8506 168.308 39.1785 168.32 39.5455H167.467ZM173.475 47.0455V44.1619H173.404C173.342 44.2614 173.255 44.3868 173.141 44.5384C173.028 44.6875 172.865 44.8213 172.655 44.9396C172.444 45.0556 172.163 45.1136 171.813 45.1136C171.358 45.1136 170.957 44.9988 170.609 44.7692C170.261 44.5372 169.989 44.2105 169.792 43.7891C169.596 43.3653 169.498 42.8646 169.498 42.2869C169.498 41.714 169.596 41.2169 169.792 40.7955C169.989 40.3741 170.262 40.0485 170.613 39.8189C170.963 39.5893 171.368 39.4744 171.827 39.4744C172.182 39.4744 172.463 39.5336 172.669 39.652C172.877 39.768 173.036 39.9006 173.145 40.0497C173.256 40.1965 173.342 40.3172 173.404 40.4119H173.503V39.5455H174.313V47.0455H173.475ZM171.927 44.3608C172.263 44.3608 172.547 44.2732 172.779 44.098C173.011 43.9205 173.187 43.6754 173.308 43.3629C173.429 43.0481 173.489 42.6847 173.489 42.2727C173.489 41.8655 173.43 41.5092 173.312 41.2038C173.193 40.8961 173.018 40.657 172.786 40.4865C172.554 40.3137 172.268 40.2273 171.927 40.2273C171.572 40.2273 171.276 40.3184 171.039 40.5007C170.805 40.6806 170.628 40.9257 170.51 41.2358C170.394 41.5436 170.336 41.8892 170.336 42.2727C170.336 42.661 170.395 43.0137 170.513 43.331C170.634 43.6458 170.812 43.8968 171.046 44.0838C171.283 44.2685 171.576 44.3608 171.927 44.3608ZM179.285 42.7699V39.5455H180.123V45H179.285V44.0767H179.228C179.1 44.3537 178.901 44.5893 178.631 44.7834C178.361 44.9751 178.02 45.071 177.608 45.071C177.268 45.071 176.965 44.9964 176.699 44.8473C176.434 44.6958 176.226 44.4685 176.074 44.1655C175.923 43.8601 175.847 43.4754 175.847 43.0114V39.5455H176.685V42.9545C176.685 43.3523 176.796 43.6695 177.019 43.9062C177.244 44.143 177.53 44.2614 177.878 44.2614C178.087 44.2614 178.299 44.2081 178.514 44.1016C178.732 43.995 178.914 43.8317 179.061 43.6115C179.21 43.3913 179.285 43.1108 179.285 42.7699ZM183.263 45.1278C182.917 45.1278 182.603 45.0627 182.322 44.9325C182.04 44.8 181.816 44.6094 181.651 44.3608C181.485 44.1098 181.402 43.8068 181.402 43.4517C181.402 43.1392 181.464 42.8859 181.587 42.6918C181.71 42.4953 181.874 42.3414 182.08 42.2301C182.286 42.1188 182.513 42.036 182.762 41.9815C183.013 41.9247 183.265 41.8797 183.518 41.8466C183.85 41.804 184.119 41.772 184.325 41.7507C184.533 41.727 184.684 41.688 184.779 41.6335C184.876 41.5791 184.925 41.4844 184.925 41.3494V41.321C184.925 40.9706 184.829 40.6984 184.637 40.5043C184.448 40.3101 184.16 40.2131 183.774 40.2131C183.374 40.2131 183.06 40.3007 182.833 40.4759C182.606 40.651 182.446 40.8381 182.354 41.0369L181.558 40.7528C181.7 40.4214 181.89 40.1634 182.126 39.9787C182.366 39.7917 182.626 39.6615 182.908 39.5881C183.192 39.5123 183.471 39.4744 183.746 39.4744C183.921 39.4744 184.122 39.4957 184.349 39.5384C184.579 39.5786 184.8 39.6626 185.013 39.7905C185.229 39.9183 185.408 40.1113 185.55 40.3693C185.692 40.6274 185.763 40.973 185.763 41.4062V45H184.925V44.2614H184.882C184.825 44.3797 184.731 44.5064 184.598 44.6413C184.465 44.7763 184.289 44.8911 184.069 44.9858C183.849 45.0805 183.58 45.1278 183.263 45.1278ZM183.391 44.375C183.722 44.375 184.001 44.3099 184.229 44.1797C184.458 44.0495 184.631 43.8814 184.747 43.6754C184.866 43.4695 184.925 43.2528 184.925 43.0256V42.2585C184.889 42.3011 184.811 42.3402 184.69 42.3757C184.572 42.4089 184.435 42.4384 184.278 42.4645C184.125 42.4882 183.974 42.5095 183.827 42.5284C183.683 42.545 183.566 42.5592 183.476 42.571C183.258 42.5994 183.054 42.6456 182.865 42.7095C182.678 42.7711 182.527 42.8646 182.411 42.9901C182.297 43.1132 182.24 43.2812 182.24 43.4943C182.24 43.7855 182.348 44.0057 182.563 44.1548C182.781 44.3016 183.057 44.375 183.391 44.375ZM187.292 45V39.5455H188.102V40.3693H188.159C188.258 40.0994 188.438 39.8804 188.699 39.7124C188.959 39.5443 189.253 39.4602 189.579 39.4602C189.641 39.4602 189.718 39.4614 189.81 39.4638C189.903 39.4661 189.972 39.4697 190.02 39.4744V40.3267C189.991 40.3196 189.926 40.3089 189.824 40.2947C189.725 40.2782 189.62 40.2699 189.508 40.2699C189.243 40.2699 189.006 40.3255 188.798 40.4368C188.592 40.5457 188.429 40.6972 188.308 40.8913C188.19 41.0831 188.131 41.3021 188.131 41.5483V45H187.292ZM193.134 45.1136C192.608 45.1136 192.155 44.9976 191.774 44.7656C191.395 44.5312 191.103 44.2045 190.897 43.7855C190.693 43.3641 190.591 42.8741 190.591 42.3153C190.591 41.7566 190.693 41.2642 190.897 40.8381C191.103 40.4096 191.389 40.0758 191.756 39.8366C192.126 39.5952 192.556 39.4744 193.049 39.4744C193.333 39.4744 193.613 39.5218 193.89 39.6165C194.167 39.7112 194.42 39.8651 194.647 40.0781C194.874 40.2888 195.055 40.5682 195.19 40.9162C195.325 41.2642 195.393 41.6927 195.393 42.2017V42.5568H191.188V41.8324H194.54C194.54 41.5246 194.479 41.25 194.356 41.0085C194.235 40.767 194.062 40.5765 193.837 40.4368C193.615 40.2971 193.352 40.2273 193.049 40.2273C192.715 40.2273 192.426 40.3101 192.182 40.4759C191.941 40.6392 191.755 40.8523 191.625 41.1151C191.495 41.3778 191.43 41.6596 191.43 41.9602V42.4432C191.43 42.8551 191.501 43.2043 191.643 43.4908C191.787 43.7749 191.987 43.9915 192.243 44.1406C192.498 44.2874 192.796 44.3608 193.134 44.3608C193.354 44.3608 193.553 44.33 193.731 44.2685C193.911 44.2045 194.066 44.1098 194.196 43.9844C194.326 43.8565 194.427 43.6979 194.498 43.5085L195.307 43.7358C195.222 44.0104 195.079 44.2519 194.878 44.4602C194.676 44.6662 194.428 44.8272 194.132 44.9432C193.836 45.0568 193.503 45.1136 193.134 45.1136Z"
          fill="#9DA9BB"/>
    <defs>
        <clipPath id="clip0_6006_42858">
            <rect width="112.211" height="24" fill="white" transform="translate(0 19)"/>
        </clipPath>
    </defs>
</svg>
