<svg width="239" height="64" viewBox="0 0 239 64" fill="none" xmlns="http://www.w3.org/2000/svg">
    <path d="M7.83632 23.3316V25.9222C8.18955 25.1101 8.78356 24.4261 9.53799 23.9628C10.2924 23.4995 11.1709 23.2792 12.0545 23.3316H14.3866V26.6084H11.4715C8.8823 26.6084 7.88776 27.8265 7.88776 30.8117V35.5467H13.3749V38.6176H0V35.5467H3.8067V26.4369H0V23.3316H7.83632Z"
          fill="url(#paint0_linear_10551_51038)"/>
    <path d="M25.378 38.995C21.6227 38.995 18.0733 36.8334 18.0733 30.9832C18.0733 25.133 21.6227 23.0057 25.378 23.0057C29.1333 23.0057 32.6656 25.133 32.6656 30.9832C32.6656 36.8334 29.099 38.995 25.378 38.995ZM25.378 26.008C23.4232 26.008 22.1715 27.4662 22.1715 30.9832C22.1715 34.5002 23.4232 35.9756 25.378 35.9756C27.3328 35.9756 28.5845 34.5002 28.5845 30.9832C28.5845 27.4662 27.3328 26.008 25.378 26.008Z"
          fill="url(#paint1_linear_10551_51038)"/>
    <path d="M50.4473 28.8559H46.5892C46.3491 27.226 45.5947 26.008 43.7771 26.008C41.9594 26.008 40.8106 27.5692 40.8106 31.0004C40.8106 34.4316 41.9423 35.9756 43.7599 35.9756C45.0117 35.9756 46.2806 35.358 46.6578 33.0248H50.5845C50.4155 34.7064 49.6119 36.2603 48.3374 37.3697C47.063 38.479 45.4136 39.0603 43.7256 38.995C39.2673 38.995 36.7467 35.5639 36.7467 31.0004C36.7467 26.4369 39.3359 23.0057 43.8113 23.0057C45.4566 22.9421 47.0633 23.5141 48.2986 24.6031C49.5339 25.6922 50.3033 27.2149 50.4473 28.8559Z"
          fill="url(#paint2_linear_10551_51038)"/>
    <path d="M61.9314 38.9955C58.1933 38.9955 54.6438 36.8338 54.6438 30.9837C54.6438 25.1335 58.1933 23.0061 61.9314 23.0061C65.6696 23.0061 69.2362 25.1335 69.2362 30.9837C69.2362 36.8338 65.6524 38.9955 61.9314 38.9955ZM61.9314 26.0084C59.9767 26.0084 58.7249 27.4667 58.7249 30.9837C58.7249 34.5006 59.9767 35.9761 61.9314 35.9761C63.8862 35.9761 65.1551 34.5006 65.1551 30.9837C65.1551 27.4667 63.9034 26.0084 61.9314 26.0084Z"
          fill="url(#paint3_linear_10551_51038)"/>
    <path d="M87.0008 28.8563H83.1427C82.9197 27.2265 82.1481 26.0084 80.3305 26.0084C78.5129 26.0084 77.3812 27.5696 77.3812 31.018C77.3812 34.4663 78.5643 35.9761 80.2791 35.9761C81.5308 35.9761 82.8169 35.3584 83.1769 33.0252H87.138C86.9651 34.7053 86.1603 36.2567 84.8867 37.3653C83.6132 38.4739 81.966 39.0566 80.2791 38.9955C75.8208 38.9955 73.3001 35.5643 73.3001 31.018C73.3001 26.4716 75.8722 23.0061 80.3648 23.0061C82.0122 22.934 83.6235 23.503 84.8608 24.5937C86.098 25.6844 86.865 27.2121 87.0008 28.8563Z"
          fill="url(#paint4_linear_10551_51038)"/>
    <path d="M98.6095 38.9955C94.8714 38.9955 91.3219 36.8338 91.3219 30.9837C91.3219 25.1335 94.8714 23.0061 98.6095 23.0061C102.348 23.0061 106 25.1335 106 30.9837C106 36.8338 102.33 38.9955 98.6095 38.9955ZM98.6095 26.0084C96.6547 26.0084 95.403 27.4667 95.403 30.9837C95.403 34.5006 96.6547 35.9761 98.6095 35.9761C100.564 35.9761 101.833 34.5006 101.833 30.9837C101.833 27.4667 100.581 26.0084 98.6095 26.0084Z"
          fill="url(#paint5_linear_10551_51038)"/>
    <path d="M122 25V37" stroke="#E0E4EB"/>
    <path d="M146.896 24.224H149.264V28.768C148.656 29.2267 147.952 29.5787 147.152 29.824C146.352 30.0693 145.547 30.192 144.736 30.192C143.573 30.192 142.528 29.9467 141.6 29.456C140.672 28.9547 139.941 28.2667 139.408 27.392C138.885 26.5067 138.624 25.5093 138.624 24.4C138.624 23.2907 138.885 22.2987 139.408 21.424C139.941 20.5387 140.677 19.8507 141.616 19.36C142.555 18.8587 143.611 18.608 144.784 18.608C145.765 18.608 146.656 18.7733 147.456 19.104C148.256 19.4347 148.928 19.9147 149.472 20.544L147.808 22.08C147.008 21.2373 146.043 20.816 144.912 20.816C144.197 20.816 143.563 20.9653 143.008 21.264C142.453 21.5627 142.021 21.984 141.712 22.528C141.403 23.072 141.248 23.696 141.248 24.4C141.248 25.0933 141.403 25.712 141.712 26.256C142.021 26.8 142.448 27.2267 142.992 27.536C143.547 27.8347 144.176 27.984 144.88 27.984C145.627 27.984 146.299 27.824 146.896 27.504V24.224ZM155.592 30.128C154.685 30.128 153.869 29.9413 153.144 29.568C152.429 29.184 151.869 28.656 151.464 27.984C151.058 27.312 150.856 26.5493 150.856 25.696C150.856 24.8427 151.058 24.08 151.464 23.408C151.869 22.736 152.429 22.2133 153.144 21.84C153.869 21.456 154.685 21.264 155.592 21.264C156.498 21.264 157.309 21.456 158.024 21.84C158.738 22.2133 159.298 22.736 159.704 23.408C160.109 24.08 160.312 24.8427 160.312 25.696C160.312 26.5493 160.109 27.312 159.704 27.984C159.298 28.656 158.738 29.184 158.024 29.568C157.309 29.9413 156.498 30.128 155.592 30.128ZM155.592 28.08C156.232 28.08 156.754 27.8667 157.16 27.44C157.576 27.0027 157.784 26.4213 157.784 25.696C157.784 24.9707 157.576 24.3947 157.16 23.968C156.754 23.5307 156.232 23.312 155.592 23.312C154.952 23.312 154.424 23.5307 154.008 23.968C153.592 24.3947 153.384 24.9707 153.384 25.696C153.384 26.4213 153.592 27.0027 154.008 27.44C154.424 27.8667 154.952 28.08 155.592 28.08ZM170.29 21.392L166.658 30H164.082L160.466 21.392H163.042L165.426 27.248L167.89 21.392H170.29ZM179.506 25.728C179.506 25.76 179.49 25.984 179.458 26.4H172.946C173.063 26.9333 173.341 27.3547 173.778 27.664C174.215 27.9733 174.759 28.128 175.41 28.128C175.858 28.128 176.253 28.064 176.594 27.936C176.946 27.7973 177.271 27.584 177.57 27.296L178.898 28.736C178.087 29.664 176.903 30.128 175.346 30.128C174.375 30.128 173.517 29.9413 172.77 29.568C172.023 29.184 171.447 28.656 171.042 27.984C170.637 27.312 170.434 26.5493 170.434 25.696C170.434 24.8533 170.631 24.096 171.026 23.424C171.431 22.7413 171.981 22.2133 172.674 21.84C173.378 21.456 174.162 21.264 175.026 21.264C175.869 21.264 176.631 21.4453 177.314 21.808C177.997 22.1707 178.53 22.6933 178.914 23.376C179.309 24.048 179.506 24.832 179.506 25.728ZM175.042 23.152C174.477 23.152 174.002 23.312 173.618 23.632C173.234 23.952 172.999 24.3893 172.914 24.944H177.154C177.069 24.4 176.834 23.968 176.45 23.648C176.066 23.3173 175.597 23.152 175.042 23.152ZM183.552 22.528C183.85 22.112 184.25 21.7973 184.752 21.584C185.264 21.3707 185.85 21.264 186.512 21.264V23.568C186.234 23.5467 186.048 23.536 185.952 23.536C185.237 23.536 184.677 23.7387 184.272 24.144C183.866 24.5387 183.664 25.136 183.664 25.936V30H181.168V21.392H183.552V22.528ZM193.228 21.264C194.294 21.264 195.153 21.584 195.804 22.224C196.465 22.864 196.796 23.8133 196.796 25.072V30H194.3V25.456C194.3 24.7733 194.15 24.2667 193.852 23.936C193.553 23.5947 193.121 23.424 192.556 23.424C191.926 23.424 191.425 23.6213 191.052 24.016C190.678 24.4 190.492 24.976 190.492 25.744V30H187.996V21.392H190.38V22.4C190.71 22.0373 191.121 21.76 191.612 21.568C192.102 21.3653 192.641 21.264 193.228 21.264ZM202.53 21.264C203.864 21.264 204.888 21.584 205.602 22.224C206.317 22.8533 206.674 23.808 206.674 25.088V30H204.338V28.928C203.869 29.728 202.994 30.128 201.714 30.128C201.053 30.128 200.477 30.016 199.986 29.792C199.506 29.568 199.138 29.2587 198.882 28.864C198.626 28.4693 198.498 28.0213 198.498 27.52C198.498 26.72 198.797 26.0907 199.394 25.632C200.002 25.1733 200.936 24.944 202.194 24.944H204.178C204.178 24.4 204.013 23.984 203.682 23.696C203.352 23.3973 202.856 23.248 202.194 23.248C201.736 23.248 201.282 23.3227 200.834 23.472C200.397 23.6107 200.024 23.8027 199.714 24.048L198.818 22.304C199.288 21.9733 199.848 21.7173 200.498 21.536C201.16 21.3547 201.837 21.264 202.53 21.264ZM202.338 28.448C202.765 28.448 203.144 28.352 203.474 28.16C203.805 27.9573 204.04 27.664 204.178 27.28V26.4H202.466C201.442 26.4 200.93 26.736 200.93 27.408C200.93 27.728 201.053 27.984 201.298 28.176C201.554 28.3573 201.901 28.448 202.338 28.448ZM214.165 21.264C215.232 21.264 216.091 21.584 216.741 22.224C217.403 22.864 217.733 23.8133 217.733 25.072V30H215.237V25.456C215.237 24.7733 215.088 24.2667 214.789 23.936C214.491 23.5947 214.059 23.424 213.493 23.424C212.864 23.424 212.363 23.6213 211.989 24.016C211.616 24.4 211.429 24.976 211.429 25.744V30H208.933V21.392H211.317V22.4C211.648 22.0373 212.059 21.76 212.549 21.568C213.04 21.3653 213.579 21.264 214.165 21.264ZM224.25 30.128C223.332 30.128 222.506 29.9413 221.77 29.568C221.044 29.184 220.474 28.656 220.058 27.984C219.652 27.312 219.45 26.5493 219.45 25.696C219.45 24.8427 219.652 24.08 220.058 23.408C220.474 22.736 221.044 22.2133 221.77 21.84C222.506 21.456 223.332 21.264 224.25 21.264C225.156 21.264 225.946 21.456 226.618 21.84C227.3 22.2133 227.796 22.752 228.106 23.456L226.17 24.496C225.722 23.7067 225.076 23.312 224.234 23.312C223.583 23.312 223.044 23.5253 222.618 23.952C222.191 24.3787 221.978 24.96 221.978 25.696C221.978 26.432 222.191 27.0133 222.618 27.44C223.044 27.8667 223.583 28.08 224.234 28.08C225.087 28.08 225.732 27.6853 226.17 26.896L228.106 27.952C227.796 28.6347 227.3 29.168 226.618 29.552C225.946 29.936 225.156 30.128 224.25 30.128ZM237.865 25.728C237.865 25.76 237.849 25.984 237.817 26.4H231.305C231.423 26.9333 231.7 27.3547 232.137 27.664C232.575 27.9733 233.119 28.128 233.769 28.128C234.217 28.128 234.612 28.064 234.953 27.936C235.305 27.7973 235.631 27.584 235.929 27.296L237.257 28.736C236.447 29.664 235.263 30.128 233.705 30.128C232.735 30.128 231.876 29.9413 231.129 29.568C230.383 29.184 229.807 28.656 229.401 27.984C228.996 27.312 228.793 26.5493 228.793 25.696C228.793 24.8533 228.991 24.096 229.385 23.424C229.791 22.7413 230.34 22.2133 231.033 21.84C231.737 21.456 232.521 21.264 233.385 21.264C234.228 21.264 234.991 21.4453 235.673 21.808C236.356 22.1707 236.889 22.6933 237.273 23.376C237.668 24.048 237.865 24.832 237.865 25.728ZM233.401 23.152C232.836 23.152 232.361 23.312 231.977 23.632C231.593 23.952 231.359 24.3893 231.273 24.944H235.513C235.428 24.4 235.193 23.968 234.809 23.648C234.425 23.3173 233.956 23.152 233.401 23.152Z"
          fill="#1E2134"/>
    <path d="M142.858 39.5455C142.815 39.1856 142.643 38.9062 142.339 38.7074C142.036 38.5085 141.665 38.4091 141.224 38.4091C140.902 38.4091 140.621 38.4612 140.379 38.5653C140.14 38.6695 139.953 38.8127 139.818 38.995C139.686 39.1773 139.619 39.3845 139.619 39.6165C139.619 39.8106 139.665 39.9775 139.758 40.1172C139.853 40.2545 139.973 40.3693 140.12 40.4616C140.267 40.5516 140.421 40.6262 140.582 40.6854C140.743 40.7422 140.891 40.7884 141.026 40.8239L141.764 41.0227C141.954 41.0724 142.164 41.1411 142.396 41.2287C142.631 41.3163 142.854 41.4358 143.067 41.5874C143.283 41.7365 143.46 41.9283 143.6 42.1626C143.74 42.397 143.81 42.6847 143.81 43.0256C143.81 43.4186 143.707 43.7737 143.501 44.0909C143.297 44.4081 142.999 44.6603 142.606 44.8473C142.215 45.0343 141.741 45.1278 141.182 45.1278C140.661 45.1278 140.21 45.0438 139.829 44.8757C139.45 44.7076 139.152 44.4732 138.934 44.1726C138.719 43.8719 138.597 43.5227 138.568 43.125H139.477C139.501 43.3996 139.593 43.6269 139.754 43.8068C139.918 43.9844 140.124 44.117 140.372 44.2045C140.623 44.2898 140.893 44.3324 141.182 44.3324C141.518 44.3324 141.82 44.2779 142.087 44.169C142.355 44.0578 142.567 43.9039 142.723 43.7074C142.879 43.5085 142.957 43.2765 142.957 43.0114C142.957 42.7699 142.89 42.5734 142.755 42.4219C142.62 42.2704 142.442 42.1473 142.222 42.0526C142.002 41.9579 141.764 41.875 141.509 41.804L140.614 41.5483C140.045 41.3849 139.596 41.1518 139.264 40.8487C138.933 40.5457 138.767 40.1491 138.767 39.6591C138.767 39.2519 138.877 38.8968 139.097 38.5938C139.32 38.2884 139.618 38.0516 139.992 37.8835C140.369 37.7131 140.789 37.6278 141.253 37.6278C141.722 37.6278 142.138 37.7119 142.503 37.88C142.867 38.0457 143.156 38.273 143.369 38.5618C143.585 38.8506 143.698 39.1785 143.71 39.5455H142.858ZM148.581 42.7699V39.5455H149.42V45H148.581V44.0767H148.525C148.397 44.3537 148.198 44.5893 147.928 44.7834C147.658 44.9751 147.317 45.071 146.905 45.071C146.564 45.071 146.261 44.9964 145.996 44.8473C145.731 44.6958 145.523 44.4685 145.371 44.1655C145.22 43.8601 145.144 43.4754 145.144 43.0114V39.5455H145.982V42.9545C145.982 43.3523 146.093 43.6695 146.316 43.9062C146.541 44.143 146.827 44.2614 147.175 44.2614C147.384 44.2614 147.595 44.2081 147.811 44.1016C148.029 43.995 148.211 43.8317 148.358 43.6115C148.507 43.3913 148.581 43.1108 148.581 42.7699ZM151.068 45V37.7273H151.906V40.4119H151.977C152.039 40.3172 152.124 40.1965 152.233 40.0497C152.344 39.9006 152.503 39.768 152.709 39.652C152.917 39.5336 153.199 39.4744 153.554 39.4744C154.013 39.4744 154.418 39.5893 154.768 39.8189C155.119 40.0485 155.392 40.3741 155.589 40.7955C155.785 41.2169 155.884 41.714 155.884 42.2869C155.884 42.8646 155.785 43.3653 155.589 43.7891C155.392 44.2105 155.12 44.5372 154.772 44.7692C154.424 44.9988 154.023 45.1136 153.568 45.1136C153.218 45.1136 152.937 45.0556 152.727 44.9396C152.516 44.8213 152.354 44.6875 152.24 44.5384C152.126 44.3868 152.039 44.2614 151.977 44.1619H151.878V45H151.068ZM151.892 42.2727C151.892 42.6847 151.952 43.0481 152.073 43.3629C152.194 43.6754 152.37 43.9205 152.602 44.098C152.834 44.2732 153.118 44.3608 153.455 44.3608C153.805 44.3608 154.097 44.2685 154.332 44.0838C154.568 43.8968 154.746 43.6458 154.864 43.331C154.985 43.0137 155.045 42.661 155.045 42.2727C155.045 41.8892 154.986 41.5436 154.868 41.2358C154.752 40.9257 154.576 40.6806 154.339 40.5007C154.104 40.3184 153.81 40.2273 153.455 40.2273C153.114 40.2273 152.827 40.3137 152.595 40.4865C152.363 40.657 152.188 40.8961 152.07 41.2038C151.951 41.5092 151.892 41.8655 151.892 42.2727ZM161.256 39.5455C161.214 39.1856 161.041 38.9062 160.738 38.7074C160.435 38.5085 160.063 38.4091 159.623 38.4091C159.301 38.4091 159.019 38.4612 158.778 38.5653C158.539 38.6695 158.352 38.8127 158.217 38.995C158.084 39.1773 158.018 39.3845 158.018 39.6165C158.018 39.8106 158.064 39.9775 158.156 40.1172C158.251 40.2545 158.372 40.3693 158.518 40.4616C158.665 40.5516 158.819 40.6262 158.98 40.6854C159.141 40.7422 159.289 40.7884 159.424 40.8239L160.163 41.0227C160.352 41.0724 160.563 41.1411 160.795 41.2287C161.029 41.3163 161.253 41.4358 161.466 41.5874C161.681 41.7365 161.859 41.9283 161.999 42.1626C162.138 42.397 162.208 42.6847 162.208 43.0256C162.208 43.4186 162.105 43.7737 161.899 44.0909C161.696 44.4081 161.397 44.6603 161.004 44.8473C160.614 45.0343 160.139 45.1278 159.58 45.1278C159.059 45.1278 158.608 45.0438 158.227 44.8757C157.848 44.7076 157.55 44.4732 157.332 44.1726C157.117 43.8719 156.995 43.5227 156.967 43.125H157.876C157.899 43.3996 157.992 43.6269 158.153 43.8068C158.316 43.9844 158.522 44.117 158.771 44.2045C159.022 44.2898 159.291 44.3324 159.58 44.3324C159.916 44.3324 160.218 44.2779 160.486 44.169C160.753 44.0578 160.965 43.9039 161.121 43.7074C161.278 43.5085 161.356 43.2765 161.356 43.0114C161.356 42.7699 161.288 42.5734 161.153 42.4219C161.018 42.2704 160.841 42.1473 160.621 42.0526C160.401 41.9579 160.163 41.875 159.907 41.804L159.012 41.5483C158.444 41.3849 157.994 41.1518 157.663 40.8487C157.331 40.5457 157.165 40.1491 157.165 39.6591C157.165 39.2519 157.276 38.8968 157.496 38.5938C157.718 38.2884 158.017 38.0516 158.391 37.8835C158.767 37.7131 159.187 37.6278 159.651 37.6278C160.12 37.6278 160.537 37.7119 160.901 37.88C161.266 38.0457 161.555 38.273 161.768 38.5618C161.983 38.8506 162.097 39.1785 162.109 39.5455H161.256ZM167.264 47.0455V44.1619H167.193C167.131 44.2614 167.044 44.3868 166.93 44.5384C166.817 44.6875 166.654 44.8213 166.444 44.9396C166.233 45.0556 165.952 45.1136 165.602 45.1136C165.148 45.1136 164.746 44.9988 164.398 44.7692C164.05 44.5372 163.778 44.2105 163.581 43.7891C163.385 43.3653 163.287 42.8646 163.287 42.2869C163.287 41.714 163.385 41.2169 163.581 40.7955C163.778 40.3741 164.051 40.0485 164.402 39.8189C164.752 39.5893 165.157 39.4744 165.616 39.4744C165.971 39.4744 166.252 39.5336 166.458 39.652C166.666 39.768 166.825 39.9006 166.934 40.0497C167.045 40.1965 167.131 40.3172 167.193 40.4119H167.292V39.5455H168.102V47.0455H167.264ZM165.716 44.3608C166.052 44.3608 166.336 44.2732 166.568 44.098C166.8 43.9205 166.976 43.6754 167.097 43.3629C167.218 43.0481 167.278 42.6847 167.278 42.2727C167.278 41.8655 167.219 41.5092 167.101 41.2038C166.982 40.8961 166.807 40.657 166.575 40.4865C166.343 40.3137 166.057 40.2273 165.716 40.2273C165.361 40.2273 165.065 40.3184 164.828 40.5007C164.594 40.6806 164.417 40.9257 164.299 41.2358C164.183 41.5436 164.125 41.8892 164.125 42.2727C164.125 42.661 164.184 43.0137 164.302 43.331C164.423 43.6458 164.601 43.8968 164.835 44.0838C165.072 44.2685 165.365 44.3608 165.716 44.3608ZM173.074 42.7699V39.5455H173.912V45H173.074V44.0767H173.017C172.889 44.3537 172.69 44.5893 172.42 44.7834C172.15 44.9751 171.809 45.071 171.398 45.071C171.057 45.071 170.754 44.9964 170.488 44.8473C170.223 44.6958 170.015 44.4685 169.863 44.1655C169.712 43.8601 169.636 43.4754 169.636 43.0114V39.5455H170.474V42.9545C170.474 43.3523 170.586 43.6695 170.808 43.9062C171.033 44.143 171.319 44.2614 171.667 44.2614C171.876 44.2614 172.088 44.2081 172.303 44.1016C172.521 43.995 172.703 43.8317 172.85 43.6115C172.999 43.3913 173.074 43.1108 173.074 42.7699ZM177.052 45.1278C176.706 45.1278 176.393 45.0627 176.111 44.9325C175.829 44.8 175.605 44.6094 175.44 44.3608C175.274 44.1098 175.191 43.8068 175.191 43.4517C175.191 43.1392 175.253 42.8859 175.376 42.6918C175.499 42.4953 175.663 42.3414 175.869 42.2301C176.075 42.1188 176.303 42.036 176.551 41.9815C176.802 41.9247 177.054 41.8797 177.308 41.8466C177.639 41.804 177.908 41.772 178.114 41.7507C178.322 41.727 178.473 41.688 178.568 41.6335C178.665 41.5791 178.714 41.4844 178.714 41.3494V41.321C178.714 40.9706 178.618 40.6984 178.426 40.5043C178.237 40.3101 177.949 40.2131 177.563 40.2131C177.163 40.2131 176.849 40.3007 176.622 40.4759C176.395 40.651 176.235 40.8381 176.143 41.0369L175.347 40.7528C175.489 40.4214 175.679 40.1634 175.915 39.9787C176.155 39.7917 176.415 39.6615 176.697 39.5881C176.981 39.5123 177.26 39.4744 177.535 39.4744C177.71 39.4744 177.911 39.4957 178.138 39.5384C178.368 39.5786 178.589 39.6626 178.803 39.7905C179.018 39.9183 179.197 40.1113 179.339 40.3693C179.481 40.6274 179.552 40.973 179.552 41.4062V45H178.714V44.2614H178.671C178.614 44.3797 178.52 44.5064 178.387 44.6413C178.254 44.7763 178.078 44.8911 177.858 44.9858C177.638 45.0805 177.369 45.1278 177.052 45.1278ZM177.18 44.375C177.511 44.375 177.79 44.3099 178.018 44.1797C178.247 44.0495 178.42 43.8814 178.536 43.6754C178.655 43.4695 178.714 43.2528 178.714 43.0256V42.2585C178.678 42.3011 178.6 42.3402 178.479 42.3757C178.361 42.4089 178.224 42.4384 178.067 42.4645C177.914 42.4882 177.763 42.5095 177.616 42.5284C177.472 42.545 177.355 42.5592 177.265 42.571C177.047 42.5994 176.844 42.6456 176.654 42.7095C176.467 42.7711 176.316 42.8646 176.2 42.9901C176.086 43.1132 176.029 43.2812 176.029 43.4943C176.029 43.7855 176.137 44.0057 176.352 44.1548C176.57 44.3016 176.846 44.375 177.18 44.375ZM181.081 45V39.5455H181.891V40.3693H181.948C182.047 40.0994 182.227 39.8804 182.488 39.7124C182.748 39.5443 183.042 39.4602 183.368 39.4602C183.43 39.4602 183.507 39.4614 183.599 39.4638C183.692 39.4661 183.761 39.4697 183.809 39.4744V40.3267C183.78 40.3196 183.715 40.3089 183.613 40.2947C183.514 40.2782 183.409 40.2699 183.297 40.2699C183.032 40.2699 182.796 40.3255 182.587 40.4368C182.381 40.5457 182.218 40.6972 182.097 40.8913C181.979 41.0831 181.92 41.3021 181.92 41.5483V45H181.081ZM186.923 45.1136C186.398 45.1136 185.944 44.9976 185.563 44.7656C185.184 44.5312 184.892 44.2045 184.686 43.7855C184.482 43.3641 184.381 42.8741 184.381 42.3153C184.381 41.7566 184.482 41.2642 184.686 40.8381C184.892 40.4096 185.178 40.0758 185.545 39.8366C185.915 39.5952 186.345 39.4744 186.838 39.4744C187.122 39.4744 187.403 39.5218 187.68 39.6165C187.956 39.7112 188.209 39.8651 188.436 40.0781C188.663 40.2888 188.844 40.5682 188.979 40.9162C189.114 41.2642 189.182 41.6927 189.182 42.2017V42.5568H184.977V41.8324H188.329C188.329 41.5246 188.268 41.25 188.145 41.0085C188.024 40.767 187.851 40.5765 187.626 40.4368C187.404 40.2971 187.141 40.2273 186.838 40.2273C186.504 40.2273 186.215 40.3101 185.971 40.4759C185.73 40.6392 185.544 40.8523 185.414 41.1151C185.284 41.3778 185.219 41.6596 185.219 41.9602V42.4432C185.219 42.8551 185.29 43.2043 185.432 43.4908C185.576 43.7749 185.776 43.9915 186.032 44.1406C186.287 44.2874 186.585 44.3608 186.923 44.3608C187.143 44.3608 187.342 44.33 187.52 44.2685C187.7 44.2045 187.855 44.1098 187.985 43.9844C188.115 43.8565 188.216 43.6979 188.287 43.5085L189.096 43.7358C189.011 44.0104 188.868 44.2519 188.667 44.4602C188.465 44.6662 188.217 44.8272 187.921 44.9432C187.625 45.0568 187.292 45.1136 186.923 45.1136Z"
          fill="#9DA9BB"/>
    <defs>
        <linearGradient id="paint0_linear_10551_51038" x1="1.4767e-06" y1="23.3718" x2="105.473" y2="38.6132"
                        gradientUnits="userSpaceOnUse">
            <stop stop-color="#E40079"/>
            <stop offset="1" stop-color="#278DFA"/>
        </linearGradient>
        <linearGradient id="paint1_linear_10551_51038" x1="1.4767e-06" y1="23.3718" x2="105.473" y2="38.6132"
                        gradientUnits="userSpaceOnUse">
            <stop stop-color="#E40079"/>
            <stop offset="1" stop-color="#278DFA"/>
        </linearGradient>
        <linearGradient id="paint2_linear_10551_51038" x1="1.4767e-06" y1="23.3718" x2="105.473" y2="38.6132"
                        gradientUnits="userSpaceOnUse">
            <stop stop-color="#E40079"/>
            <stop offset="1" stop-color="#278DFA"/>
        </linearGradient>
        <linearGradient id="paint3_linear_10551_51038" x1="1.4767e-06" y1="23.3718" x2="105.473" y2="38.6132"
                        gradientUnits="userSpaceOnUse">
            <stop stop-color="#E40079"/>
            <stop offset="1" stop-color="#278DFA"/>
        </linearGradient>
        <linearGradient id="paint4_linear_10551_51038" x1="1.4767e-06" y1="23.3718" x2="105.473" y2="38.6132"
                        gradientUnits="userSpaceOnUse">
            <stop stop-color="#E40079"/>
            <stop offset="1" stop-color="#278DFA"/>
        </linearGradient>
        <linearGradient id="paint5_linear_10551_51038" x1="1.4767e-06" y1="23.3718" x2="105.473" y2="38.6132"
                        gradientUnits="userSpaceOnUse">
            <stop stop-color="#E40079"/>
            <stop offset="1" stop-color="#278DFA"/>
        </linearGradient>
    </defs>
</svg>
