<svg width="257" height="64" viewBox="0 0 257 64" fill="none" xmlns="http://www.w3.org/2000/svg">
<g clip-path="url(#clip0_7032_48157)">
<path d="M73.78 31.5571H75.516V32.3619H73.78V31.5571ZM106.082 31.6809L107.384 31.1238C108.004 32.3619 108.562 33.6 109.058 34.7762L107.694 35.2714C107.322 34.2809 106.764 33.0428 106.082 31.6809ZM114.514 31.1238C114.452 32.919 114.204 34.4047 113.77 35.519C113.336 36.6333 112.592 37.4381 111.662 38.0571C110.732 38.6143 109.43 39.0476 107.818 39.2333L107.57 37.9333C108.624 37.8095 109.492 37.5619 110.174 37.3143C110.856 37.0047 111.414 36.6333 111.848 36.0762C112.282 35.519 112.654 34.9 112.84 34.0952C113.026 33.2904 113.15 32.3 113.212 31.1238H114.514ZM115.754 33.8476H124V34.0952C124 35.7666 123.442 37.0666 122.388 37.9333C121.334 38.8 119.66 39.2952 117.428 39.419L117.242 38.1809C118.792 38.119 119.97 37.8095 120.838 37.3143C121.706 36.819 122.264 36.0762 122.45 35.0857H115.692L115.754 33.8476ZM116.498 32.3619V31.1238H123.38V32.3619H116.498ZM6.758 42.2666C8.556 43.2571 10.664 43.8143 12.896 43.8143C15.128 43.8143 17.174 43.2571 19.034 42.2666L12.896 33.1666L6.758 42.2666Z" fill="#E3232C"/>
<path d="M5.022 31.0001V28.8953H11.842V26.7286H5.022V24.6239H20.77V26.7286H13.95V28.8953H20.77V31.0001H13.95L20.77 41.1525C23.808 38.8001 25.73 35.1477 25.73 31.0001C25.73 23.881 19.964 18.1858 12.896 18.1858C5.766 18.1858 0 23.881 0 31.0001C0 35.1477 1.922 38.8001 4.96 41.1525L11.78 31.0001H5.022Z" fill="#E3232C"/>
<path d="M31.868 34.5287H34.72C34.72 35.8906 35.712 37.3144 38.502 37.3144C41.044 37.3144 42.222 36.1382 42.222 34.6525C42.222 33.4144 41.168 32.6715 39.06 32.4858L37.51 32.362C34.41 32.1144 32.488 30.3811 32.488 27.6572C32.488 24.562 34.844 22.5811 38.378 22.5811C41.974 22.5811 44.33 24.6239 44.33 27.7811H41.478C41.478 26.4192 40.486 25.1192 38.378 25.1192C36.27 25.1192 35.278 26.2953 35.278 27.6572C35.278 28.7096 36.084 29.6382 37.758 29.762L39.308 29.8858C42.78 30.1953 45.074 31.8049 45.074 34.6525C45.074 37.7477 42.47 39.8525 38.502 39.8525C34.224 39.8525 31.868 37.6239 31.868 34.5287ZM47.678 31.4334V30.9382C47.678 26.9763 50.53 22.5811 56.296 22.5811C62 22.5811 64.914 26.9763 64.914 30.9382V31.4334C64.914 35.0858 62.186 39.8525 56.296 39.8525C50.344 39.8525 47.678 35.0858 47.678 31.4334ZM61.938 31.1858C61.938 27.843 59.768 25.243 56.296 25.243C52.824 25.243 50.592 27.843 50.592 31.1858C50.592 34.343 52.762 37.1287 56.296 37.1287C59.768 37.1287 61.938 34.4049 61.938 31.1858ZM78.988 39.4192L74.958 33.8477H71.796V39.4192H68.882V22.9525H74.71C78.554 22.9525 80.972 24.6239 80.972 28.2144V28.5858C80.972 31.062 79.794 32.6715 77.81 33.3525L82.274 39.4192H78.988ZM71.858 31.4334H75.206C77.066 31.4334 78.244 30.1953 78.244 28.462C78.244 26.6668 77.066 25.4906 75.206 25.4906H71.858V31.4334ZM95.542 34.9001H88.226L86.676 39.4192H83.762L89.466 23.0763H94.24L100.068 39.4192H97.092L95.542 34.9001ZM94.674 32.4239L92.256 25.4906H91.45L89.094 32.4239H94.674Z" fill="#E3232C"/>
</g>
<path d="M140 25V37" stroke="#363A4D"/>
<path d="M164.896 24.224H167.264V28.768C166.656 29.2267 165.952 29.5787 165.152 29.824C164.352 30.0693 163.547 30.192 162.736 30.192C161.573 30.192 160.528 29.9467 159.6 29.456C158.672 28.9547 157.941 28.2667 157.408 27.392C156.885 26.5067 156.624 25.5093 156.624 24.4C156.624 23.2907 156.885 22.2987 157.408 21.424C157.941 20.5387 158.677 19.8507 159.616 19.36C160.555 18.8587 161.611 18.608 162.784 18.608C163.765 18.608 164.656 18.7733 165.456 19.104C166.256 19.4347 166.928 19.9147 167.472 20.544L165.808 22.08C165.008 21.2373 164.043 20.816 162.912 20.816C162.197 20.816 161.563 20.9653 161.008 21.264C160.453 21.5627 160.021 21.984 159.712 22.528C159.403 23.072 159.248 23.696 159.248 24.4C159.248 25.0933 159.403 25.712 159.712 26.256C160.021 26.8 160.448 27.2267 160.992 27.536C161.547 27.8347 162.176 27.984 162.88 27.984C163.627 27.984 164.299 27.824 164.896 27.504V24.224ZM173.592 30.128C172.685 30.128 171.869 29.9413 171.144 29.568C170.429 29.184 169.869 28.656 169.464 27.984C169.058 27.312 168.856 26.5493 168.856 25.696C168.856 24.8427 169.058 24.08 169.464 23.408C169.869 22.736 170.429 22.2133 171.144 21.84C171.869 21.456 172.685 21.264 173.592 21.264C174.498 21.264 175.309 21.456 176.024 21.84C176.738 22.2133 177.298 22.736 177.704 23.408C178.109 24.08 178.312 24.8427 178.312 25.696C178.312 26.5493 178.109 27.312 177.704 27.984C177.298 28.656 176.738 29.184 176.024 29.568C175.309 29.9413 174.498 30.128 173.592 30.128ZM173.592 28.08C174.232 28.08 174.754 27.8667 175.16 27.44C175.576 27.0027 175.784 26.4213 175.784 25.696C175.784 24.9707 175.576 24.3947 175.16 23.968C174.754 23.5307 174.232 23.312 173.592 23.312C172.952 23.312 172.424 23.5307 172.008 23.968C171.592 24.3947 171.384 24.9707 171.384 25.696C171.384 26.4213 171.592 27.0027 172.008 27.44C172.424 27.8667 172.952 28.08 173.592 28.08ZM188.29 21.392L184.658 30H182.082L178.466 21.392H181.042L183.426 27.248L185.89 21.392H188.29ZM197.506 25.728C197.506 25.76 197.49 25.984 197.458 26.4H190.946C191.063 26.9333 191.341 27.3547 191.778 27.664C192.215 27.9733 192.759 28.128 193.41 28.128C193.858 28.128 194.253 28.064 194.594 27.936C194.946 27.7973 195.271 27.584 195.57 27.296L196.898 28.736C196.087 29.664 194.903 30.128 193.346 30.128C192.375 30.128 191.517 29.9413 190.77 29.568C190.023 29.184 189.447 28.656 189.042 27.984C188.637 27.312 188.434 26.5493 188.434 25.696C188.434 24.8533 188.631 24.096 189.026 23.424C189.431 22.7413 189.981 22.2133 190.674 21.84C191.378 21.456 192.162 21.264 193.026 21.264C193.869 21.264 194.631 21.4453 195.314 21.808C195.997 22.1707 196.53 22.6933 196.914 23.376C197.309 24.048 197.506 24.832 197.506 25.728ZM193.042 23.152C192.477 23.152 192.002 23.312 191.618 23.632C191.234 23.952 190.999 24.3893 190.914 24.944H195.154C195.069 24.4 194.834 23.968 194.45 23.648C194.066 23.3173 193.597 23.152 193.042 23.152ZM201.552 22.528C201.85 22.112 202.25 21.7973 202.752 21.584C203.264 21.3707 203.85 21.264 204.512 21.264V23.568C204.234 23.5467 204.048 23.536 203.952 23.536C203.237 23.536 202.677 23.7387 202.272 24.144C201.866 24.5387 201.664 25.136 201.664 25.936V30H199.168V21.392H201.552V22.528ZM211.228 21.264C212.294 21.264 213.153 21.584 213.804 22.224C214.465 22.864 214.796 23.8133 214.796 25.072V30H212.3V25.456C212.3 24.7733 212.15 24.2667 211.852 23.936C211.553 23.5947 211.121 23.424 210.556 23.424C209.926 23.424 209.425 23.6213 209.052 24.016C208.678 24.4 208.492 24.976 208.492 25.744V30H205.996V21.392H208.38V22.4C208.71 22.0373 209.121 21.76 209.612 21.568C210.102 21.3653 210.641 21.264 211.228 21.264ZM220.53 21.264C221.864 21.264 222.888 21.584 223.602 22.224C224.317 22.8533 224.674 23.808 224.674 25.088V30H222.338V28.928C221.869 29.728 220.994 30.128 219.714 30.128C219.053 30.128 218.477 30.016 217.986 29.792C217.506 29.568 217.138 29.2587 216.882 28.864C216.626 28.4693 216.498 28.0213 216.498 27.52C216.498 26.72 216.797 26.0907 217.394 25.632C218.002 25.1733 218.936 24.944 220.194 24.944H222.178C222.178 24.4 222.013 23.984 221.682 23.696C221.352 23.3973 220.856 23.248 220.194 23.248C219.736 23.248 219.282 23.3227 218.834 23.472C218.397 23.6107 218.024 23.8027 217.714 24.048L216.818 22.304C217.288 21.9733 217.848 21.7173 218.498 21.536C219.16 21.3547 219.837 21.264 220.53 21.264ZM220.338 28.448C220.765 28.448 221.144 28.352 221.474 28.16C221.805 27.9573 222.04 27.664 222.178 27.28V26.4H220.466C219.442 26.4 218.93 26.736 218.93 27.408C218.93 27.728 219.053 27.984 219.298 28.176C219.554 28.3573 219.901 28.448 220.338 28.448ZM232.165 21.264C233.232 21.264 234.091 21.584 234.741 22.224C235.403 22.864 235.733 23.8133 235.733 25.072V30H233.237V25.456C233.237 24.7733 233.088 24.2667 232.789 23.936C232.491 23.5947 232.059 23.424 231.493 23.424C230.864 23.424 230.363 23.6213 229.989 24.016C229.616 24.4 229.429 24.976 229.429 25.744V30H226.933V21.392H229.317V22.4C229.648 22.0373 230.059 21.76 230.549 21.568C231.04 21.3653 231.579 21.264 232.165 21.264ZM242.25 30.128C241.332 30.128 240.506 29.9413 239.77 29.568C239.044 29.184 238.474 28.656 238.058 27.984C237.652 27.312 237.45 26.5493 237.45 25.696C237.45 24.8427 237.652 24.08 238.058 23.408C238.474 22.736 239.044 22.2133 239.77 21.84C240.506 21.456 241.332 21.264 242.25 21.264C243.156 21.264 243.946 21.456 244.618 21.84C245.3 22.2133 245.796 22.752 246.106 23.456L244.17 24.496C243.722 23.7067 243.076 23.312 242.234 23.312C241.583 23.312 241.044 23.5253 240.618 23.952C240.191 24.3787 239.978 24.96 239.978 25.696C239.978 26.432 240.191 27.0133 240.618 27.44C241.044 27.8667 241.583 28.08 242.234 28.08C243.087 28.08 243.732 27.6853 244.17 26.896L246.106 27.952C245.796 28.6347 245.3 29.168 244.618 29.552C243.946 29.936 243.156 30.128 242.25 30.128ZM255.865 25.728C255.865 25.76 255.849 25.984 255.817 26.4H249.305C249.423 26.9333 249.7 27.3547 250.137 27.664C250.575 27.9733 251.119 28.128 251.769 28.128C252.217 28.128 252.612 28.064 252.953 27.936C253.305 27.7973 253.631 27.584 253.929 27.296L255.257 28.736C254.447 29.664 253.263 30.128 251.705 30.128C250.735 30.128 249.876 29.9413 249.129 29.568C248.383 29.184 247.807 28.656 247.401 27.984C246.996 27.312 246.793 26.5493 246.793 25.696C246.793 24.8533 246.991 24.096 247.385 23.424C247.791 22.7413 248.34 22.2133 249.033 21.84C249.737 21.456 250.521 21.264 251.385 21.264C252.228 21.264 252.991 21.4453 253.673 21.808C254.356 22.1707 254.889 22.6933 255.273 23.376C255.668 24.048 255.865 24.832 255.865 25.728ZM251.401 23.152C250.836 23.152 250.361 23.312 249.977 23.632C249.593 23.952 249.359 24.3893 249.273 24.944H253.513C253.428 24.4 253.193 23.968 252.809 23.648C252.425 23.3173 251.956 23.152 251.401 23.152Z" fill="white"/>
<path d="M160.858 39.5455C160.815 39.1856 160.643 38.9062 160.339 38.7074C160.036 38.5085 159.665 38.4091 159.224 38.4091C158.902 38.4091 158.621 38.4612 158.379 38.5653C158.14 38.6695 157.953 38.8127 157.818 38.995C157.686 39.1773 157.619 39.3845 157.619 39.6165C157.619 39.8106 157.665 39.9775 157.758 40.1172C157.853 40.2545 157.973 40.3693 158.12 40.4616C158.267 40.5516 158.421 40.6262 158.582 40.6854C158.743 40.7422 158.891 40.7884 159.026 40.8239L159.764 41.0227C159.954 41.0724 160.164 41.1411 160.396 41.2287C160.631 41.3163 160.854 41.4358 161.067 41.5874C161.283 41.7365 161.46 41.9283 161.6 42.1626C161.74 42.397 161.81 42.6847 161.81 43.0256C161.81 43.4186 161.707 43.7737 161.501 44.0909C161.297 44.4081 160.999 44.6603 160.606 44.8473C160.215 45.0343 159.741 45.1278 159.182 45.1278C158.661 45.1278 158.21 45.0438 157.829 44.8757C157.45 44.7076 157.152 44.4732 156.934 44.1726C156.719 43.8719 156.597 43.5227 156.568 43.125H157.477C157.501 43.3996 157.593 43.6269 157.754 43.8068C157.918 43.9844 158.124 44.117 158.372 44.2045C158.623 44.2898 158.893 44.3324 159.182 44.3324C159.518 44.3324 159.82 44.2779 160.087 44.169C160.355 44.0578 160.567 43.9039 160.723 43.7074C160.879 43.5085 160.957 43.2765 160.957 43.0114C160.957 42.7699 160.89 42.5734 160.755 42.4219C160.62 42.2704 160.442 42.1473 160.222 42.0526C160.002 41.9579 159.764 41.875 159.509 41.804L158.614 41.5483C158.045 41.3849 157.596 41.1518 157.264 40.8487C156.933 40.5457 156.767 40.1491 156.767 39.6591C156.767 39.2519 156.877 38.8968 157.097 38.5938C157.32 38.2884 157.618 38.0516 157.992 37.8835C158.369 37.7131 158.789 37.6278 159.253 37.6278C159.722 37.6278 160.138 37.7119 160.503 37.88C160.867 38.0457 161.156 38.273 161.369 38.5618C161.585 38.8506 161.698 39.1785 161.71 39.5455H160.858ZM166.581 42.7699V39.5455H167.42V45H166.581V44.0767H166.525C166.397 44.3537 166.198 44.5893 165.928 44.7834C165.658 44.9751 165.317 45.071 164.905 45.071C164.564 45.071 164.261 44.9964 163.996 44.8473C163.731 44.6958 163.523 44.4685 163.371 44.1655C163.22 43.8601 163.144 43.4754 163.144 43.0114V39.5455H163.982V42.9545C163.982 43.3523 164.093 43.6695 164.316 43.9062C164.541 44.143 164.827 44.2614 165.175 44.2614C165.384 44.2614 165.595 44.2081 165.811 44.1016C166.029 43.995 166.211 43.8317 166.358 43.6115C166.507 43.3913 166.581 43.1108 166.581 42.7699ZM169.068 45V37.7273H169.906V40.4119H169.977C170.039 40.3172 170.124 40.1965 170.233 40.0497C170.344 39.9006 170.503 39.768 170.709 39.652C170.917 39.5336 171.199 39.4744 171.554 39.4744C172.013 39.4744 172.418 39.5893 172.768 39.8189C173.119 40.0485 173.392 40.3741 173.589 40.7955C173.785 41.2169 173.884 41.714 173.884 42.2869C173.884 42.8646 173.785 43.3653 173.589 43.7891C173.392 44.2105 173.12 44.5372 172.772 44.7692C172.424 44.9988 172.023 45.1136 171.568 45.1136C171.218 45.1136 170.937 45.0556 170.727 44.9396C170.516 44.8213 170.354 44.6875 170.24 44.5384C170.126 44.3868 170.039 44.2614 169.977 44.1619H169.878V45H169.068ZM169.892 42.2727C169.892 42.6847 169.952 43.0481 170.073 43.3629C170.194 43.6754 170.37 43.9205 170.602 44.098C170.834 44.2732 171.118 44.3608 171.455 44.3608C171.805 44.3608 172.097 44.2685 172.332 44.0838C172.568 43.8968 172.746 43.6458 172.864 43.331C172.985 43.0137 173.045 42.661 173.045 42.2727C173.045 41.8892 172.986 41.5436 172.868 41.2358C172.752 40.9257 172.576 40.6806 172.339 40.5007C172.104 40.3184 171.81 40.2273 171.455 40.2273C171.114 40.2273 170.827 40.3137 170.595 40.4865C170.363 40.657 170.188 40.8961 170.07 41.2038C169.951 41.5092 169.892 41.8655 169.892 42.2727ZM179.256 39.5455C179.214 39.1856 179.041 38.9062 178.738 38.7074C178.435 38.5085 178.063 38.4091 177.623 38.4091C177.301 38.4091 177.019 38.4612 176.778 38.5653C176.539 38.6695 176.352 38.8127 176.217 38.995C176.084 39.1773 176.018 39.3845 176.018 39.6165C176.018 39.8106 176.064 39.9775 176.156 40.1172C176.251 40.2545 176.372 40.3693 176.518 40.4616C176.665 40.5516 176.819 40.6262 176.98 40.6854C177.141 40.7422 177.289 40.7884 177.424 40.8239L178.163 41.0227C178.352 41.0724 178.563 41.1411 178.795 41.2287C179.029 41.3163 179.253 41.4358 179.466 41.5874C179.681 41.7365 179.859 41.9283 179.999 42.1626C180.138 42.397 180.208 42.6847 180.208 43.0256C180.208 43.4186 180.105 43.7737 179.899 44.0909C179.696 44.4081 179.397 44.6603 179.004 44.8473C178.614 45.0343 178.139 45.1278 177.58 45.1278C177.059 45.1278 176.608 45.0438 176.227 44.8757C175.848 44.7076 175.55 44.4732 175.332 44.1726C175.117 43.8719 174.995 43.5227 174.967 43.125H175.876C175.899 43.3996 175.992 43.6269 176.153 43.8068C176.316 43.9844 176.522 44.117 176.771 44.2045C177.022 44.2898 177.291 44.3324 177.58 44.3324C177.916 44.3324 178.218 44.2779 178.486 44.169C178.753 44.0578 178.965 43.9039 179.121 43.7074C179.278 43.5085 179.356 43.2765 179.356 43.0114C179.356 42.7699 179.288 42.5734 179.153 42.4219C179.018 42.2704 178.841 42.1473 178.621 42.0526C178.401 41.9579 178.163 41.875 177.907 41.804L177.012 41.5483C176.444 41.3849 175.994 41.1518 175.663 40.8487C175.331 40.5457 175.165 40.1491 175.165 39.6591C175.165 39.2519 175.276 38.8968 175.496 38.5938C175.718 38.2884 176.017 38.0516 176.391 37.8835C176.767 37.7131 177.187 37.6278 177.651 37.6278C178.12 37.6278 178.537 37.7119 178.901 37.88C179.266 38.0457 179.555 38.273 179.768 38.5618C179.983 38.8506 180.097 39.1785 180.109 39.5455H179.256ZM185.264 47.0455V44.1619H185.193C185.131 44.2614 185.044 44.3868 184.93 44.5384C184.817 44.6875 184.654 44.8213 184.444 44.9396C184.233 45.0556 183.952 45.1136 183.602 45.1136C183.148 45.1136 182.746 44.9988 182.398 44.7692C182.05 44.5372 181.778 44.2105 181.581 43.7891C181.385 43.3653 181.287 42.8646 181.287 42.2869C181.287 41.714 181.385 41.2169 181.581 40.7955C181.778 40.3741 182.051 40.0485 182.402 39.8189C182.752 39.5893 183.157 39.4744 183.616 39.4744C183.971 39.4744 184.252 39.5336 184.458 39.652C184.666 39.768 184.825 39.9006 184.934 40.0497C185.045 40.1965 185.131 40.3172 185.193 40.4119H185.292V39.5455H186.102V47.0455H185.264ZM183.716 44.3608C184.052 44.3608 184.336 44.2732 184.568 44.098C184.8 43.9205 184.976 43.6754 185.097 43.3629C185.218 43.0481 185.278 42.6847 185.278 42.2727C185.278 41.8655 185.219 41.5092 185.101 41.2038C184.982 40.8961 184.807 40.657 184.575 40.4865C184.343 40.3137 184.057 40.2273 183.716 40.2273C183.361 40.2273 183.065 40.3184 182.828 40.5007C182.594 40.6806 182.417 40.9257 182.299 41.2358C182.183 41.5436 182.125 41.8892 182.125 42.2727C182.125 42.661 182.184 43.0137 182.302 43.331C182.423 43.6458 182.601 43.8968 182.835 44.0838C183.072 44.2685 183.365 44.3608 183.716 44.3608ZM191.074 42.7699V39.5455H191.912V45H191.074V44.0767H191.017C190.889 44.3537 190.69 44.5893 190.42 44.7834C190.15 44.9751 189.809 45.071 189.398 45.071C189.057 45.071 188.754 44.9964 188.488 44.8473C188.223 44.6958 188.015 44.4685 187.863 44.1655C187.712 43.8601 187.636 43.4754 187.636 43.0114V39.5455H188.474V42.9545C188.474 43.3523 188.586 43.6695 188.808 43.9062C189.033 44.143 189.319 44.2614 189.667 44.2614C189.876 44.2614 190.088 44.2081 190.303 44.1016C190.521 43.995 190.703 43.8317 190.85 43.6115C190.999 43.3913 191.074 43.1108 191.074 42.7699ZM195.052 45.1278C194.706 45.1278 194.393 45.0627 194.111 44.9325C193.829 44.8 193.605 44.6094 193.44 44.3608C193.274 44.1098 193.191 43.8068 193.191 43.4517C193.191 43.1392 193.253 42.8859 193.376 42.6918C193.499 42.4953 193.663 42.3414 193.869 42.2301C194.075 42.1188 194.303 42.036 194.551 41.9815C194.802 41.9247 195.054 41.8797 195.308 41.8466C195.639 41.804 195.908 41.772 196.114 41.7507C196.322 41.727 196.473 41.688 196.568 41.6335C196.665 41.5791 196.714 41.4844 196.714 41.3494V41.321C196.714 40.9706 196.618 40.6984 196.426 40.5043C196.237 40.3101 195.949 40.2131 195.563 40.2131C195.163 40.2131 194.849 40.3007 194.622 40.4759C194.395 40.651 194.235 40.8381 194.143 41.0369L193.347 40.7528C193.489 40.4214 193.679 40.1634 193.915 39.9787C194.155 39.7917 194.415 39.6615 194.697 39.5881C194.981 39.5123 195.26 39.4744 195.535 39.4744C195.71 39.4744 195.911 39.4957 196.138 39.5384C196.368 39.5786 196.589 39.6626 196.803 39.7905C197.018 39.9183 197.197 40.1113 197.339 40.3693C197.481 40.6274 197.552 40.973 197.552 41.4062V45H196.714V44.2614H196.671C196.614 44.3797 196.52 44.5064 196.387 44.6413C196.254 44.7763 196.078 44.8911 195.858 44.9858C195.638 45.0805 195.369 45.1278 195.052 45.1278ZM195.18 44.375C195.511 44.375 195.79 44.3099 196.018 44.1797C196.247 44.0495 196.42 43.8814 196.536 43.6754C196.655 43.4695 196.714 43.2528 196.714 43.0256V42.2585C196.678 42.3011 196.6 42.3402 196.479 42.3757C196.361 42.4089 196.224 42.4384 196.067 42.4645C195.914 42.4882 195.763 42.5095 195.616 42.5284C195.472 42.545 195.355 42.5592 195.265 42.571C195.047 42.5994 194.844 42.6456 194.654 42.7095C194.467 42.7711 194.316 42.8646 194.2 42.9901C194.086 43.1132 194.029 43.2812 194.029 43.4943C194.029 43.7855 194.137 44.0057 194.352 44.1548C194.57 44.3016 194.846 44.375 195.18 44.375ZM199.081 45V39.5455H199.891V40.3693H199.948C200.047 40.0994 200.227 39.8804 200.488 39.7124C200.748 39.5443 201.042 39.4602 201.368 39.4602C201.43 39.4602 201.507 39.4614 201.599 39.4638C201.692 39.4661 201.761 39.4697 201.809 39.4744V40.3267C201.78 40.3196 201.715 40.3089 201.613 40.2947C201.514 40.2782 201.409 40.2699 201.297 40.2699C201.032 40.2699 200.796 40.3255 200.587 40.4368C200.381 40.5457 200.218 40.6972 200.097 40.8913C199.979 41.0831 199.92 41.3021 199.92 41.5483V45H199.081ZM204.923 45.1136C204.398 45.1136 203.944 44.9976 203.563 44.7656C203.184 44.5312 202.892 44.2045 202.686 43.7855C202.482 43.3641 202.381 42.8741 202.381 42.3153C202.381 41.7566 202.482 41.2642 202.686 40.8381C202.892 40.4096 203.178 40.0758 203.545 39.8366C203.915 39.5952 204.345 39.4744 204.838 39.4744C205.122 39.4744 205.403 39.5218 205.68 39.6165C205.956 39.7112 206.209 39.8651 206.436 40.0781C206.663 40.2888 206.844 40.5682 206.979 40.9162C207.114 41.2642 207.182 41.6927 207.182 42.2017V42.5568H202.977V41.8324H206.329C206.329 41.5246 206.268 41.25 206.145 41.0085C206.024 40.767 205.851 40.5765 205.626 40.4368C205.404 40.2971 205.141 40.2273 204.838 40.2273C204.504 40.2273 204.215 40.3101 203.971 40.4759C203.73 40.6392 203.544 40.8523 203.414 41.1151C203.284 41.3778 203.219 41.6596 203.219 41.9602V42.4432C203.219 42.8551 203.29 43.2043 203.432 43.4908C203.576 43.7749 203.776 43.9915 204.032 44.1406C204.287 44.2874 204.585 44.3608 204.923 44.3608C205.143 44.3608 205.342 44.33 205.52 44.2685C205.7 44.2045 205.855 44.1098 205.985 43.9844C206.115 43.8565 206.216 43.6979 206.287 43.5085L207.096 43.7358C207.011 44.0104 206.868 44.2519 206.667 44.4602C206.465 44.6662 206.217 44.8272 205.921 44.9432C205.625 45.0568 205.292 45.1136 204.923 45.1136Z" fill="white" fill-opacity="0.25"/>
<defs>
<clipPath id="clip0_7032_48157">
<rect width="124" height="26" fill="white" transform="translate(0 18)"/>
</clipPath>
</defs>
</svg>
