<svg width="236" height="64" viewBox="0 0 236 64" fill="none" xmlns="http://www.w3.org/2000/svg">
<g clip-path="url(#clip0_13417_74596)">
<path d="M31.25 51.5L8.75 51.5C4.19365 51.5 0.5 47.8063 0.500001 43.25L0.500003 20.75C0.500003 16.1937 4.19365 12.5 8.75 12.5L31.25 12.5C35.8064 12.5 39.5 16.1937 39.5 20.75L39.5 43.25C39.5 47.8063 35.8063 51.5 31.25 51.5Z" fill="url(#paint0_linear_13417_74596)" stroke="#272A3A"/>
<g clip-path="url(#clip1_13417_74596)">
<path fill-rule="evenodd" clip-rule="evenodd" d="M5.46875 36.4153V33.8507L20 25.6426L34.5313 33.8507V36.4153L20 45.4138L5.46875 36.4153ZM20 29.0786L30.8236 35.1924L20 41.8949L9.17644 35.1924L20 29.0786Z" fill="#1E2134"/>
<path fill-rule="evenodd" clip-rule="evenodd" d="M5.46875 29.1497V26.585L20 18.377L34.5313 26.585V29.1496L20 38.1481L5.46875 29.1497ZM9.17644 27.9267L20 21.813L30.8236 27.9267L20 34.6292L9.17644 27.9267Z" fill="#6848FF"/>
</g>
</g>
<path d="M58.26 39.24C57.1533 39.24 56.08 39.0933 55.04 38.8C54.0133 38.4933 53.1867 38.1 52.56 37.62L53.66 35.18C54.26 35.62 54.9733 35.9733 55.8 36.24C56.6267 36.5067 57.4533 36.64 58.28 36.64C59.2 36.64 59.88 36.5067 60.32 36.24C60.76 35.96 60.98 35.5933 60.98 35.14C60.98 34.8067 60.8467 34.5333 60.58 34.32C60.3267 34.0933 59.9933 33.9133 59.58 33.78C59.18 33.6467 58.6333 33.5 57.94 33.34C56.8733 33.0867 56 32.8333 55.32 32.58C54.64 32.3267 54.0533 31.92 53.56 31.36C53.08 30.8 52.84 30.0533 52.84 29.12C52.84 28.3067 53.06 27.5733 53.5 26.92C53.94 26.2533 54.6 25.7267 55.48 25.34C56.3733 24.9533 57.46 24.76 58.74 24.76C59.6333 24.76 60.5067 24.8667 61.36 25.08C62.2133 25.2933 62.96 25.6 63.6 26L62.6 28.46C61.3067 27.7267 60.0133 27.36 58.72 27.36C57.8133 27.36 57.14 27.5067 56.7 27.8C56.2733 28.0933 56.06 28.48 56.06 28.96C56.06 29.44 56.3067 29.8 56.8 30.04C57.3067 30.2667 58.0733 30.4933 59.1 30.72C60.1667 30.9733 61.04 31.2267 61.72 31.48C62.4 31.7333 62.98 32.1333 63.46 32.68C63.9533 33.2267 64.2 33.9667 64.2 34.9C64.2 35.7 63.9733 36.4333 63.52 37.1C63.08 37.7533 62.4133 38.2733 61.52 38.66C60.6267 39.0467 59.54 39.24 58.26 39.24ZM77.0339 28.24V39H74.0739V37.72C73.6606 38.1867 73.1672 38.5467 72.5939 38.8C72.0206 39.04 71.4006 39.16 70.7339 39.16C69.3206 39.16 68.2006 38.7533 67.3739 37.94C66.5472 37.1267 66.1339 35.92 66.1339 34.32V28.24H69.2539V33.86C69.2539 35.5933 69.9806 36.46 71.4339 36.46C72.1806 36.46 72.7806 36.22 73.2339 35.74C73.6872 35.2467 73.9139 34.52 73.9139 33.56V28.24H77.0339ZM86.2844 28.08C87.2844 28.08 88.191 28.3133 89.0044 28.78C89.831 29.2333 90.4777 29.88 90.9444 30.72C91.411 31.5467 91.6444 32.5133 91.6444 33.62C91.6444 34.7267 91.411 35.7 90.9444 36.54C90.4777 37.3667 89.831 38.0133 89.0044 38.48C88.191 38.9333 87.2844 39.16 86.2844 39.16C84.8044 39.16 83.6777 38.6933 82.9044 37.76V39H79.9244V24.16H83.0444V29.38C83.831 28.5133 84.911 28.08 86.2844 28.08ZM85.7444 36.6C86.5444 36.6 87.1977 36.3333 87.7044 35.8C88.2244 35.2533 88.4844 34.5267 88.4844 33.62C88.4844 32.7133 88.2244 31.9933 87.7044 31.46C87.1977 30.9133 86.5444 30.64 85.7444 30.64C84.9444 30.64 84.2844 30.9133 83.7644 31.46C83.2577 31.9933 83.0044 32.7133 83.0044 33.62C83.0044 34.5267 83.2577 35.2533 83.7644 35.8C84.2844 36.3333 84.9444 36.6 85.7444 36.6ZM98.553 39.24C97.4463 39.24 96.373 39.0933 95.333 38.8C94.3063 38.4933 93.4796 38.1 92.853 37.62L93.953 35.18C94.553 35.62 95.2663 35.9733 96.093 36.24C96.9196 36.5067 97.7463 36.64 98.573 36.64C99.493 36.64 100.173 36.5067 100.613 36.24C101.053 35.96 101.273 35.5933 101.273 35.14C101.273 34.8067 101.14 34.5333 100.873 34.32C100.62 34.0933 100.286 33.9133 99.873 33.78C99.473 33.6467 98.9263 33.5 98.233 33.34C97.1663 33.0867 96.293 32.8333 95.613 32.58C94.933 32.3267 94.3463 31.92 93.853 31.36C93.373 30.8 93.133 30.0533 93.133 29.12C93.133 28.3067 93.353 27.5733 93.793 26.92C94.233 26.2533 94.893 25.7267 95.773 25.34C96.6663 24.9533 97.753 24.76 99.033 24.76C99.9263 24.76 100.8 24.8667 101.653 25.08C102.506 25.2933 103.253 25.6 103.893 26L102.893 28.46C101.6 27.7267 100.306 27.36 99.013 27.36C98.1063 27.36 97.433 27.5067 96.993 27.8C96.5663 28.0933 96.353 28.48 96.353 28.96C96.353 29.44 96.5996 29.8 97.093 30.04C97.5996 30.2667 98.3663 30.4933 99.393 30.72C100.46 30.9733 101.333 31.2267 102.013 31.48C102.693 31.7333 103.273 32.1333 103.753 32.68C104.246 33.2267 104.493 33.9667 104.493 34.9C104.493 35.7 104.266 36.4333 103.813 37.1C103.373 37.7533 102.706 38.2733 101.813 38.66C100.92 39.0467 99.833 39.24 98.553 39.24ZM117.407 28.24V42.88H114.287V37.86C113.514 38.7267 112.44 39.16 111.067 39.16C110.054 39.16 109.134 38.9333 108.307 38.48C107.494 38.0267 106.854 37.38 106.387 36.54C105.92 35.7 105.687 34.7267 105.687 33.62C105.687 32.5133 105.92 31.54 106.387 30.7C106.854 29.86 107.494 29.2133 108.307 28.76C109.134 28.3067 110.054 28.08 111.067 28.08C112.534 28.08 113.654 28.5467 114.427 29.48V28.24H117.407ZM111.607 36.6C112.394 36.6 113.047 36.3333 113.567 35.8C114.087 35.2533 114.347 34.5267 114.347 33.62C114.347 32.7133 114.087 31.9933 113.567 31.46C113.047 30.9133 112.394 30.64 111.607 30.64C110.807 30.64 110.147 30.9133 109.627 31.46C109.107 31.9933 108.847 32.7133 108.847 33.62C108.847 34.5267 109.107 35.2533 109.627 35.8C110.147 36.3333 110.807 36.6 111.607 36.6ZM131.135 28.24V39H128.175V37.72C127.762 38.1867 127.269 38.5467 126.695 38.8C126.122 39.04 125.502 39.16 124.835 39.16C123.422 39.16 122.302 38.7533 121.475 37.94C120.649 37.1267 120.235 35.92 120.235 34.32V28.24H123.355V33.86C123.355 35.5933 124.082 36.46 125.535 36.46C126.282 36.46 126.882 36.22 127.335 35.74C127.789 35.2467 128.015 34.52 128.015 33.56V28.24H131.135ZM138.366 28.08C140.033 28.08 141.313 28.48 142.206 29.28C143.099 30.0667 143.546 31.26 143.546 32.86V39H140.626V37.66C140.039 38.66 138.946 39.16 137.346 39.16C136.519 39.16 135.799 39.02 135.186 38.74C134.586 38.46 134.126 38.0733 133.806 37.58C133.486 37.0867 133.326 36.5267 133.326 35.9C133.326 34.9 133.699 34.1133 134.446 33.54C135.206 32.9667 136.373 32.68 137.946 32.68H140.426C140.426 32 140.219 31.48 139.806 31.12C139.393 30.7467 138.773 30.56 137.946 30.56C137.373 30.56 136.806 30.6533 136.246 30.84C135.699 31.0133 135.233 31.2533 134.846 31.56L133.726 29.38C134.313 28.9667 135.013 28.6467 135.826 28.42C136.653 28.1933 137.499 28.08 138.366 28.08ZM138.126 37.06C138.659 37.06 139.133 36.94 139.546 36.7C139.959 36.4467 140.253 36.08 140.426 35.6V34.5H138.286C137.006 34.5 136.366 34.92 136.366 35.76C136.366 36.16 136.519 36.48 136.826 36.72C137.146 36.9467 137.579 37.06 138.126 37.06ZM149.35 29.66C149.723 29.14 150.223 28.7467 150.85 28.48C151.49 28.2133 152.223 28.08 153.05 28.08V30.96C152.703 30.9333 152.47 30.92 152.35 30.92C151.456 30.92 150.756 31.1733 150.25 31.68C149.743 32.1733 149.49 32.92 149.49 33.92V39H146.37V28.24H149.35V29.66ZM165.347 33.66C165.347 33.7 165.327 33.98 165.287 34.5H157.147C157.294 35.1667 157.641 35.6933 158.187 36.08C158.734 36.4667 159.414 36.66 160.227 36.66C160.787 36.66 161.281 36.58 161.707 36.42C162.147 36.2467 162.554 35.98 162.927 35.62L164.587 37.42C163.574 38.58 162.094 39.16 160.147 39.16C158.934 39.16 157.861 38.9267 156.927 38.46C155.994 37.98 155.274 37.32 154.767 36.48C154.261 35.64 154.007 34.6867 154.007 33.62C154.007 32.5667 154.254 31.62 154.747 30.78C155.254 29.9267 155.941 29.2667 156.807 28.8C157.687 28.32 158.667 28.08 159.747 28.08C160.801 28.08 161.754 28.3067 162.607 28.76C163.461 29.2133 164.127 29.8667 164.607 30.72C165.101 31.56 165.347 32.54 165.347 33.66ZM159.767 30.44C159.061 30.44 158.467 30.64 157.987 31.04C157.507 31.44 157.214 31.9867 157.107 32.68H162.407C162.301 32 162.007 31.46 161.527 31.06C161.047 30.6467 160.461 30.44 159.767 30.44Z" fill="white"/>
<defs>
<linearGradient id="paint0_linear_13417_74596" x1="20" y1="52" x2="20" y2="12" gradientUnits="userSpaceOnUse">
<stop stop-color="#F6F7FA"/>
<stop offset="1" stop-color="white"/>
</linearGradient>
<clipPath id="clip0_13417_74596">
<rect width="40" height="40" fill="white" transform="translate(0 12)"/>
</clipPath>
<clipPath id="clip1_13417_74596">
<rect width="29.0625" height="29.0625" fill="white" transform="translate(5.46875 17.4688)"/>
</clipPath>
</defs>
</svg>
