<svg width="240" height="64" viewBox="0 0 240 64" fill="none" xmlns="http://www.w3.org/2000/svg">
<path fill-rule="evenodd" clip-rule="evenodd" d="M100.986 20.7107C100.981 20.7164 100.857 20.7326 100.711 20.7468C100.352 20.7817 99.8165 20.8685 99.7527 20.9021C99.7365 20.9107 99.6825 20.9236 99.6329 20.9307C99.5832 20.9379 99.5343 20.95 99.5242 20.9577C99.514 20.9654 99.456 20.9818 99.3951 20.994C99.3343 21.0062 99.2758 21.0232 99.2652 21.0318C99.2545 21.0403 99.211 21.0528 99.1684 21.0596C99.1258 21.0663 99.091 21.078 99.091 21.0856C99.091 21.0931 99.064 21.1045 99.0311 21.111C98.9687 21.1232 98.7788 21.193 98.6024 21.2685C98.5822 21.2772 98.5117 21.307 98.4458 21.3347C98.2695 21.409 97.7369 21.6787 97.7084 21.7081C97.7033 21.7134 97.6784 21.7278 97.6531 21.7403C97.6277 21.7527 97.5738 21.7836 97.5332 21.8089C97.4927 21.8342 97.4471 21.8603 97.4318 21.8669C97.4166 21.8735 97.4 21.8837 97.395 21.8895C97.3899 21.8953 97.3484 21.9247 97.3028 21.9549C97.2572 21.985 97.2171 22.0159 97.2137 22.0234C97.2103 22.031 97.1994 22.0372 97.1894 22.0372C97.1733 22.0372 97.0698 22.1076 97.0147 22.1561C97.0033 22.1662 96.9754 22.1868 96.9527 22.2019C96.8728 22.2551 96.6738 22.4146 96.5674 22.5106C96.5409 22.5344 96.4828 22.5839 96.438 22.6204C96.3338 22.7057 96.065 22.9723 95.9543 23.1002C95.9072 23.1547 95.845 23.2256 95.8161 23.2577C95.7872 23.2898 95.7428 23.3424 95.7174 23.3746C95.6921 23.4067 95.6485 23.4598 95.6206 23.4925C95.5928 23.5251 95.5699 23.5611 95.5699 23.5723C95.5699 23.5836 95.5628 23.5928 95.5541 23.5928C95.5389 23.5928 95.4475 23.7171 95.3185 23.9131C95.2854 23.9634 95.2496 24.0145 95.239 24.0267C95.2284 24.0388 95.2197 24.0534 95.2197 24.0591C95.2197 24.0723 95.1228 24.2211 95.1061 24.2335C95.0992 24.2387 95.0879 24.2654 95.0809 24.293C95.0739 24.3206 95.0614 24.3431 95.053 24.3431C95.0446 24.3431 95.0272 24.372 95.0144 24.4072C95.0016 24.4424 94.9853 24.4713 94.9783 24.4713C94.9713 24.4713 94.9599 24.4938 94.9529 24.5214C94.946 24.549 94.934 24.5757 94.9263 24.5809C94.9085 24.5928 94.8141 24.7922 94.8141 24.8178C94.8141 24.8285 94.8062 24.8373 94.7965 24.8373C94.7868 24.8373 94.7735 24.8661 94.7668 24.9013C94.7602 24.9366 94.7482 24.9654 94.7403 24.9654C94.7324 24.9654 94.7203 24.9878 94.7134 25.0151C94.7065 25.0424 94.6848 25.0996 94.6653 25.1422C94.6458 25.1848 94.6298 25.2317 94.6298 25.2465C94.6298 25.2613 94.6235 25.2762 94.6158 25.2796C94.6081 25.2829 94.5774 25.3639 94.5477 25.4595C94.5179 25.5551 94.4876 25.6416 94.4804 25.6517C94.4732 25.6618 94.4615 25.7091 94.4543 25.7569C94.4471 25.8047 94.4356 25.8439 94.4286 25.8439C94.4216 25.8439 94.4048 25.9077 94.3912 25.9857C94.3776 26.0637 94.3602 26.1358 94.3527 26.1458C94.3451 26.1559 94.3329 26.2177 94.3256 26.2831C94.3183 26.3485 94.306 26.4103 94.2983 26.4203C94.2905 26.4304 94.2784 26.5004 94.2713 26.5759C94.2642 26.6514 94.2453 26.7955 94.2294 26.8962C94.2075 27.0347 94.2003 27.226 94.2 27.6831C94.1996 28.2879 94.2007 28.3049 94.2784 28.827C94.3186 29.0969 94.4384 29.6287 94.4825 29.7329C94.491 29.753 94.5209 29.8436 94.549 29.9342C94.5771 30.0248 94.6108 30.1195 94.624 30.1447C94.6372 30.1698 94.648 30.2043 94.6481 30.2214C94.6482 30.2384 94.6554 30.2567 94.6641 30.2621C94.6729 30.2674 94.6905 30.3091 94.7034 30.3547C94.7162 30.4002 94.7336 30.4375 94.742 30.4375C94.7503 30.4375 94.7626 30.4663 94.7693 30.5015C94.7759 30.5368 94.7887 30.5656 94.7977 30.5656C94.8068 30.5656 94.8141 30.5751 94.8141 30.5868C94.8141 30.6151 95.0817 31.143 95.1095 31.1695C95.1147 31.1746 95.1293 31.1993 95.1419 31.2244C95.1545 31.2496 95.1812 31.2949 95.2013 31.3251C95.2213 31.3553 95.248 31.4006 95.2606 31.4258C95.2732 31.4509 95.294 31.4781 95.3069 31.4862C95.3198 31.4942 95.3303 31.5089 95.3303 31.5189C95.3303 31.5347 95.3961 31.6378 95.4226 31.6637C95.4278 31.6687 95.456 31.7094 95.4852 31.7542C95.5395 31.8372 95.5576 31.8613 95.6074 31.9162C95.6625 31.977 95.7727 32.1184 95.7727 32.1283C95.7727 32.1453 95.8784 32.2563 96.2244 32.6031C96.5318 32.9111 96.6357 33.0074 96.8051 33.1408C96.8406 33.1687 96.8789 33.1999 96.8904 33.21C96.9018 33.2201 96.9299 33.2408 96.9529 33.2559C96.9758 33.271 97.0174 33.3019 97.0453 33.3245C97.0733 33.3472 97.1015 33.3657 97.1081 33.3657C97.1146 33.3657 97.13 33.3741 97.1423 33.3843C97.2252 33.4537 97.2547 33.4755 97.2659 33.4755C97.273 33.4755 97.2987 33.4918 97.323 33.5118C97.3936 33.5696 97.4017 33.5751 97.4503 33.5999C97.5011 33.6258 97.5341 33.6455 97.6438 33.7154C97.7056 33.7548 97.8602 33.8397 98.0955 33.9635C98.1208 33.9768 98.152 33.9878 98.1646 33.9878C98.1773 33.9879 98.1877 33.9962 98.1877 34.0062C98.1877 34.0163 98.198 34.0248 98.2107 34.0251C98.2234 34.0254 98.2752 34.0459 98.3259 34.0707C98.3766 34.0955 98.4285 34.1158 98.4411 34.1159C98.4538 34.116 98.4642 34.1234 98.4642 34.1323C98.4642 34.1413 98.4932 34.154 98.5287 34.1606C98.5642 34.1672 98.5932 34.1788 98.5932 34.1863C98.5932 34.1938 98.6244 34.2092 98.6624 34.2204C98.7637 34.2504 98.8933 34.297 98.9257 34.3152C98.9412 34.3239 98.9827 34.3371 99.0178 34.3446C99.053 34.3521 99.09 34.3644 99.1002 34.372C99.1103 34.3796 99.1642 34.3962 99.22 34.4089C99.2758 34.4216 99.3297 34.4381 99.3398 34.4456C99.35 34.453 99.3975 34.4648 99.4454 34.4717C99.4933 34.4786 99.5368 34.491 99.5419 34.4993C99.5471 34.5076 99.5986 34.5203 99.6564 34.5274C99.7142 34.5346 99.7806 34.5477 99.8039 34.5565C99.8946 34.5907 100.432 34.6727 100.75 34.7008C100.98 34.7212 101.967 34.721 102.179 34.7006C102.596 34.6604 102.734 34.6436 102.769 34.6285C102.789 34.6196 102.868 34.604 102.944 34.5939C103.122 34.5703 103.387 34.5183 103.425 34.4997C103.441 34.4917 103.495 34.4793 103.545 34.4721C103.594 34.465 103.643 34.4529 103.654 34.4453C103.664 34.4376 103.701 34.4258 103.736 34.4189C103.812 34.4044 104.042 34.3398 104.096 34.3183C104.116 34.3101 104.241 34.2689 104.372 34.2267C104.504 34.1845 104.638 34.1382 104.67 34.1239C104.702 34.1095 104.735 34.0975 104.744 34.0971C104.753 34.0968 104.793 34.0806 104.833 34.0612C104.874 34.0417 104.917 34.0255 104.929 34.0252C104.941 34.0248 104.974 34.0132 105.002 33.9993C105.031 33.9855 105.084 33.9613 105.119 33.9455C105.306 33.8629 105.358 33.8415 105.376 33.8415C105.387 33.8415 105.396 33.8333 105.396 33.8232C105.396 33.8132 105.406 33.8049 105.42 33.8049C105.446 33.8049 105.87 33.5982 105.906 33.5684C105.917 33.5584 105.949 33.5449 105.975 33.5383C106.001 33.5318 106.022 33.5208 106.022 33.5139C106.022 33.507 106.074 33.4744 106.138 33.4414C106.251 33.3824 106.306 33.3514 106.344 33.3245C106.355 33.317 106.442 33.2596 106.539 33.1969C106.635 33.1342 106.725 33.0724 106.738 33.0596C106.751 33.0468 106.774 33.0363 106.789 33.0363C106.803 33.0363 106.815 33.0279 106.815 33.0176C106.815 33.0073 106.836 32.9895 106.861 32.978L106.907 32.9572V30.3522V27.7472H105.764H104.621V29.6228V31.4985L104.552 31.5416C104.476 31.5892 104.429 31.6141 104.253 31.7009C103.984 31.8331 103.794 31.9173 103.672 31.9578C103.601 31.9814 103.522 32.0112 103.497 32.0242C103.472 32.0372 103.438 32.0479 103.423 32.048C103.408 32.0481 103.374 32.0594 103.348 32.073C103.321 32.0866 103.269 32.1036 103.23 32.1107C103.192 32.1179 103.147 32.1307 103.13 32.1393C103.103 32.1538 102.909 32.2031 102.695 32.2502C102.574 32.2767 102.311 32.3189 102.114 32.3431C101.922 32.3668 101 32.3537 100.967 32.3268C100.954 32.3166 100.875 32.3024 100.792 32.2952C100.708 32.288 100.639 32.2762 100.639 32.269C100.639 32.2618 100.576 32.2461 100.498 32.2341C100.421 32.2221 100.348 32.2049 100.337 32.1959C100.326 32.1869 100.277 32.1737 100.229 32.1666C100.181 32.1595 100.142 32.1473 100.142 32.1395C100.142 32.1317 100.113 32.1199 100.078 32.1134C100.043 32.1069 99.9911 32.0895 99.9628 32.0749C99.9345 32.0602 99.9011 32.0482 99.8885 32.0481C99.876 32.0481 99.7705 32.0027 99.654 31.9473C99.5376 31.892 99.4338 31.8467 99.4233 31.8467C99.4129 31.8467 99.4044 31.8385 99.4044 31.8284C99.4044 31.8183 99.3954 31.8101 99.3845 31.8101C99.3648 31.8101 99.1085 31.6675 99.091 31.6468C99.0768 31.63 98.9273 31.5356 98.9149 31.5356C98.9089 31.5356 98.8924 31.5253 98.8783 31.5127C98.8477 31.4855 98.8284 31.4705 98.7321 31.399C98.6919 31.3691 98.6454 31.3321 98.6287 31.3166C98.612 31.3011 98.5495 31.2476 98.4898 31.1977C98.3665 31.0946 98.1763 30.9079 98.0676 30.7833C98.0272 30.737 97.9734 30.6752 97.948 30.6461C97.9045 30.596 97.8641 30.5414 97.7027 30.3141C97.6653 30.2614 97.6346 30.2099 97.6346 30.1998C97.6346 30.1896 97.6273 30.1813 97.6184 30.1813C97.6095 30.1813 97.5919 30.1566 97.5793 30.1264C97.5667 30.0962 97.5491 30.0715 97.5402 30.0715C97.5313 30.0715 97.524 30.0597 97.524 30.0453C97.524 30.0309 97.5137 30.0082 97.501 29.9948C97.4883 29.9814 97.453 29.9212 97.4226 29.8608C97.3922 29.8005 97.3611 29.7484 97.3535 29.7451C97.3459 29.7417 97.3397 29.731 97.3397 29.7212C97.3397 29.7011 97.2794 29.5581 97.238 29.4798C97.223 29.4513 97.2106 29.4196 97.2106 29.4093C97.2106 29.3991 97.1984 29.3647 97.1834 29.333C97.1436 29.2487 97.0632 28.9962 97.0632 28.9556C97.0632 28.9364 97.0556 28.916 97.0465 28.9104C97.0373 28.9047 97.0239 28.8569 97.0167 28.8041C97.0096 28.7512 96.9974 28.6998 96.9897 28.6897C96.982 28.6796 96.9657 28.5891 96.9535 28.4884C96.9412 28.3877 96.9233 28.2692 96.9135 28.2249C96.9038 28.1806 96.8957 27.9494 96.8954 27.7111C96.8951 27.3655 96.9029 27.2225 96.9342 27.0046C96.9557 26.8544 96.9801 26.7188 96.9883 26.7033C96.9966 26.6878 97.0094 26.6301 97.0169 26.5752C97.0243 26.5202 97.0369 26.467 97.0448 26.4569C97.0527 26.4469 97.0689 26.3914 97.0808 26.3337C97.0928 26.276 97.1093 26.2246 97.1176 26.2195C97.1259 26.2145 97.1381 26.1817 97.1447 26.1468C97.1513 26.1119 97.1688 26.0603 97.1835 26.0322C97.1983 26.0041 97.2104 25.9736 97.2105 25.9644C97.2106 25.9552 97.2397 25.8869 97.2752 25.8127C97.3106 25.7385 97.3397 25.6698 97.3397 25.6601C97.3397 25.6505 97.3471 25.6425 97.3561 25.6425C97.3652 25.6425 97.3777 25.6223 97.3839 25.5975C97.3902 25.5727 97.4243 25.5033 97.4597 25.4434C97.4951 25.3834 97.524 25.3255 97.524 25.3146C97.524 25.3037 97.5308 25.2948 97.539 25.2948C97.5473 25.2948 97.568 25.268 97.585 25.2353C97.6187 25.1705 97.6569 25.1079 97.6716 25.0935C97.6766 25.0885 97.7057 25.0473 97.7361 25.002C97.8001 24.9065 97.8042 24.9011 97.8668 24.8281C97.8927 24.7979 97.9276 24.7534 97.9443 24.7291C98.0325 24.6006 98.5257 24.1167 98.5954 24.0901C98.6119 24.0838 98.7033 24.0092 98.7619 23.9542C98.7807 23.9366 98.8037 23.9222 98.8131 23.9222C98.8225 23.9222 98.8412 23.9119 98.8546 23.8993C98.8981 23.8585 99.0279 23.7758 99.0485 23.7758C99.0596 23.7758 99.0734 23.7634 99.0792 23.7483C99.085 23.7332 99.1025 23.7209 99.118 23.7209C99.1336 23.7209 99.1463 23.7143 99.1463 23.7063C99.1463 23.6982 99.1753 23.6812 99.2108 23.6685C99.2463 23.6557 99.2753 23.6385 99.2753 23.6302C99.2753 23.6219 99.298 23.6094 99.3258 23.6025C99.3536 23.5956 99.3806 23.5844 99.3857 23.5776C99.3998 23.5593 99.5983 23.4647 99.6228 23.4647C99.6345 23.4647 99.644 23.4564 99.644 23.4464C99.644 23.4363 99.6586 23.4281 99.6765 23.4281C99.6944 23.4281 99.74 23.4116 99.7779 23.3915C99.8157 23.3713 99.8571 23.3548 99.8698 23.3548C99.8825 23.3547 99.9151 23.3431 99.9423 23.329C99.9695 23.3149 100.019 23.2975 100.052 23.2902C100.086 23.2829 100.126 23.2701 100.141 23.2616C100.182 23.2391 100.372 23.1905 100.51 23.1672C100.576 23.1561 100.634 23.1411 100.639 23.1338C100.645 23.1265 100.723 23.1113 100.815 23.0999C100.906 23.0886 101.039 23.0718 101.11 23.0627C101.272 23.0417 101.949 23.0412 102.133 23.0619C102.448 23.0973 102.605 23.1201 102.64 23.1352C102.66 23.144 102.722 23.159 102.778 23.1685C102.9 23.1892 103.105 23.2406 103.156 23.2632C103.176 23.2722 103.222 23.2851 103.257 23.2919C103.293 23.2986 103.33 23.31 103.34 23.3172C103.35 23.3244 103.433 23.3541 103.524 23.3832C103.616 23.4123 103.695 23.4415 103.7 23.4479C103.705 23.4544 103.73 23.4657 103.755 23.4731C103.858 23.5028 104.425 23.7786 104.455 23.8139C104.461 23.8197 104.492 23.8361 104.525 23.8504C104.558 23.8646 104.584 23.8825 104.584 23.8901C104.584 23.8977 104.592 23.9039 104.602 23.9039C104.626 23.9039 104.891 24.0839 105.082 24.2298C105.261 24.3663 105.256 24.3629 105.404 24.4971C105.464 24.552 105.521 24.5928 105.529 24.5876C105.537 24.5824 105.597 24.5068 105.663 24.4195C105.728 24.3322 105.792 24.2487 105.805 24.2339C105.838 24.197 106.209 23.7154 106.244 23.6653C106.259 23.6431 106.28 23.6156 106.29 23.6043C106.301 23.5929 106.334 23.5507 106.364 23.5104C106.394 23.4702 106.429 23.4306 106.442 23.4226C106.454 23.4145 106.465 23.396 106.465 23.3814C106.465 23.3668 106.471 23.3549 106.479 23.3549C106.487 23.3549 106.527 23.3091 106.567 23.2531C106.607 23.1971 106.659 23.1291 106.682 23.1021C106.727 23.049 106.726 23.0513 106.806 22.9431C106.88 22.8448 106.883 22.8414 106.936 22.7784C107.035 22.6627 107.039 22.6724 106.804 22.4856C106.767 22.4554 106.716 22.4142 106.693 22.394C106.669 22.3739 106.592 22.3163 106.52 22.2659C106.449 22.2156 106.347 22.1436 106.295 22.1058C106.243 22.068 106.19 22.0372 106.178 22.0372C106.165 22.0372 106.151 22.0248 106.145 22.0097C106.139 21.9946 106.126 21.9823 106.116 21.9823C106.106 21.9823 106.041 21.9464 105.972 21.9026C105.839 21.8176 105.767 21.7771 105.686 21.7407C105.658 21.7282 105.635 21.7125 105.635 21.7057C105.635 21.6989 105.615 21.6883 105.59 21.682C105.564 21.6758 105.502 21.6462 105.451 21.6162C105.4 21.5863 105.337 21.5567 105.312 21.5505C105.287 21.5442 105.267 21.5317 105.267 21.5228C105.267 21.5138 105.257 21.5064 105.245 21.5064C105.233 21.5064 105.189 21.4908 105.148 21.4716C105.107 21.4525 105.044 21.4243 105.008 21.4089C104.973 21.3936 104.906 21.3645 104.86 21.3444C104.814 21.3243 104.754 21.3022 104.727 21.2953C104.699 21.2884 104.672 21.2754 104.666 21.2665C104.661 21.2575 104.643 21.2502 104.628 21.2502C104.612 21.2502 104.573 21.2382 104.541 21.2235C104.466 21.1889 104.2 21.1038 104.167 21.1038C104.153 21.1038 104.142 21.0963 104.142 21.0871C104.142 21.0779 104.107 21.0646 104.064 21.0576C104.021 21.0505 103.977 21.0382 103.967 21.0303C103.957 21.0223 103.895 21.0055 103.829 20.9931C103.763 20.9806 103.701 20.9643 103.69 20.9568C103.68 20.9494 103.635 20.9377 103.589 20.931C103.543 20.9242 103.489 20.9116 103.469 20.9029C103.424 20.8837 103.157 20.8329 102.944 20.8032C102.858 20.7912 102.775 20.776 102.759 20.7695C102.69 20.7396 102.216 20.7134 101.634 20.7071C101.283 20.7034 100.992 20.7049 100.986 20.7107ZM31.5095 22.0279V23.19L33.6526 23.1947L35.7956 23.1993L35.8002 28.8681L35.8049 34.537H37.1321H38.4593L38.464 28.8681L38.4686 23.1993L40.6116 23.1947L42.7547 23.19V22.0279V20.8659H37.1321H31.5095V22.0279ZM44.3655 25.2079C44.3709 27.9646 44.3808 29.6067 44.3926 29.7054C44.4359 30.0666 44.516 30.5343 44.5436 30.5869C44.5524 30.6036 44.5652 30.6594 44.5721 30.7108C44.5789 30.7623 44.5912 30.8084 44.5993 30.8134C44.6074 30.8184 44.6238 30.8697 44.6358 30.9274C44.6477 30.9851 44.6639 31.0405 44.6717 31.0506C44.6796 31.0606 44.6919 31.0962 44.6991 31.1296C44.7063 31.163 44.7238 31.2124 44.738 31.2394C44.7522 31.2664 44.7639 31.3024 44.7639 31.3194C44.764 31.3365 44.7714 31.3549 44.7804 31.3605C44.7894 31.366 44.8025 31.3929 44.8094 31.4204C44.8164 31.4478 44.838 31.5051 44.8576 31.5476C44.8771 31.5902 44.8931 31.6338 44.8931 31.6444C44.8931 31.655 44.9014 31.6637 44.9115 31.6637C44.9217 31.6637 44.93 31.6724 44.93 31.6831C44.93 31.7069 45.0258 31.907 45.0435 31.9201C45.0504 31.9252 45.0618 31.952 45.0687 31.9796C45.0757 32.0071 45.0878 32.0297 45.0956 32.0297C45.1034 32.0297 45.1209 32.0565 45.1344 32.0892C45.148 32.1219 45.1659 32.1569 45.1744 32.167C45.2042 32.2025 45.3107 32.3712 45.3225 32.4016C45.329 32.4185 45.3429 32.4323 45.3534 32.4323C45.3638 32.4323 45.3724 32.4448 45.3724 32.46C45.3724 32.4752 45.389 32.5017 45.4093 32.5189C45.4295 32.5362 45.4461 32.559 45.4461 32.5696C45.4461 32.5802 45.4606 32.6019 45.4784 32.6178C45.4961 32.6337 45.5267 32.669 45.5464 32.6962C45.6821 32.8845 46.109 33.3197 46.2787 33.4427C46.3742 33.512 46.4103 33.541 46.4386 33.5716C46.4549 33.5892 46.4788 33.6036 46.4918 33.6036C46.5047 33.6036 46.5153 33.6113 46.5153 33.6207C46.5153 33.6301 46.5309 33.6427 46.55 33.6487C46.5806 33.6583 46.6084 33.6778 46.6943 33.7497C46.7065 33.7599 46.72 33.7683 46.7242 33.7683C46.7284 33.7683 46.8134 33.8177 46.9132 33.8781C47.013 33.9385 47.1053 33.9879 47.1184 33.9879C47.1314 33.9879 47.1421 33.9953 47.1421 34.0043C47.1421 34.0132 47.1648 34.0262 47.1926 34.0332C47.2204 34.0401 47.2474 34.0513 47.2525 34.058C47.27 34.0808 47.4822 34.1773 47.7044 34.2635C47.7652 34.2871 47.8229 34.313 47.8325 34.321C47.8421 34.3291 47.8657 34.3357 47.885 34.3357C47.9043 34.3357 47.9462 34.347 47.9781 34.3609C48.0659 34.3991 48.2745 34.4617 48.3587 34.475C48.3997 34.4816 48.4378 34.4941 48.4432 34.5028C48.4487 34.5115 48.4717 34.5187 48.4943 34.5187C48.5169 34.5187 48.5848 34.5318 48.6453 34.5477C48.8378 34.5986 49.2423 34.6602 49.6492 34.7008C49.8642 34.7222 50.9024 34.7221 51.1424 34.7007C51.4819 34.6703 51.9536 34.5991 52.0869 34.5581C52.12 34.5479 52.1844 34.5339 52.2301 34.527C52.2757 34.5202 52.3213 34.5083 52.3315 34.5007C52.3416 34.4931 52.3831 34.4809 52.4236 34.4737C52.5107 34.4581 52.7128 34.3968 52.7951 34.3609C52.8271 34.347 52.8614 34.3357 52.8714 34.3357C52.8813 34.3357 52.9133 34.3234 52.9423 34.3083C52.9713 34.2933 53.0091 34.2809 53.0263 34.2809C53.0434 34.2808 53.0619 34.2737 53.0673 34.265C53.0727 34.2563 53.1147 34.2387 53.1605 34.226C53.2064 34.2132 53.244 34.1956 53.244 34.1869C53.244 34.1781 53.2531 34.171 53.2642 34.171C53.2754 34.171 53.3534 34.138 53.4375 34.0978C53.5217 34.0575 53.599 34.0245 53.6093 34.0245C53.6196 34.0245 53.6308 34.0182 53.6342 34.0105C53.6422 33.9922 53.8994 33.8415 53.9227 33.8415C53.9325 33.8415 53.9453 33.8292 53.9512 33.8141C53.957 33.799 53.9707 33.7866 53.9815 33.7866C53.9985 33.7866 54.1009 33.7229 54.1288 33.6951C54.1339 33.69 54.1754 33.6612 54.221 33.6311C54.2666 33.6009 54.3106 33.566 54.3187 33.5533C54.3268 33.5407 54.3416 33.5304 54.3516 33.5304C54.3616 33.5304 54.3941 33.5057 54.4238 33.4755C54.4535 33.4453 54.4852 33.4206 54.4942 33.4206C54.5162 33.4206 55.0874 32.8546 55.0874 32.8327C55.0874 32.8232 55.1123 32.7913 55.1427 32.7618C55.1732 32.7322 55.1981 32.7 55.1981 32.6901C55.1981 32.6802 55.2084 32.6655 55.2211 32.6574C55.2338 32.6494 55.2614 32.6181 55.2825 32.5879C55.3036 32.5577 55.3513 32.4898 55.3885 32.4371C55.4257 32.3843 55.4561 32.3329 55.4561 32.3227C55.4561 32.3125 55.4624 32.3042 55.47 32.3042C55.4776 32.3041 55.5084 32.2588 55.5384 32.2035C55.5685 32.1482 55.599 32.1029 55.6061 32.1029C55.6133 32.1029 55.6246 32.0783 55.6312 32.0482C55.6379 32.0181 55.6512 31.9887 55.6609 31.9828C55.6792 31.9715 55.8986 31.526 55.8986 31.4999C55.8986 31.4916 55.911 31.4613 55.9261 31.4324C55.9412 31.4036 55.9537 31.3661 55.9538 31.3491C55.9538 31.332 55.961 31.3137 55.9698 31.3084C55.9785 31.303 55.9967 31.2593 56.0102 31.2112C56.0237 31.1631 56.0456 31.1032 56.0587 31.078C56.0719 31.0529 56.0827 31.0177 56.0828 31C56.0829 30.9822 56.0911 30.9534 56.1012 30.9359C56.1203 30.9028 56.162 30.7442 56.2011 30.5564C56.2136 30.4961 56.2292 30.4343 56.2356 30.4192C56.2421 30.4041 56.2559 30.3341 56.2665 30.2636C56.277 30.1932 56.2935 30.0902 56.3032 30.0349C56.3642 29.6853 56.3669 29.4965 56.3725 25.1713L56.378 20.8659H55.0599H53.7417V25.0695C53.7417 27.694 53.735 29.3114 53.7239 29.3749C53.7141 29.4309 53.6982 29.5426 53.6887 29.6231C53.6621 29.848 53.5777 30.2254 53.5383 30.2954C53.5285 30.3129 53.5205 30.336 53.5205 30.3467C53.5205 30.3575 53.5045 30.4011 53.485 30.4437C53.4654 30.4863 53.4438 30.5435 53.4369 30.5708C53.43 30.5981 53.4169 30.6205 53.4079 30.6205C53.3988 30.6205 53.3915 30.6293 53.3915 30.64C53.3915 30.6596 53.3167 30.818 53.2754 30.8859C53.2326 30.9562 53.082 31.1791 53.0479 31.2225C52.9666 31.3261 52.6173 31.6639 52.5158 31.737C52.455 31.7808 52.4011 31.822 52.396 31.8284C52.3909 31.8349 52.3743 31.8456 52.3591 31.8522C52.3439 31.8588 52.2983 31.8849 52.2577 31.9101C52.1825 31.957 51.8878 32.1029 51.8684 32.1029C51.8625 32.1029 51.8316 32.1145 51.7996 32.1287C51.6089 32.2136 51.2324 32.3025 50.9028 32.3406C50.7239 32.3612 50.0882 32.3609 49.8981 32.3401C49.6673 32.3147 49.4565 32.2808 49.4464 32.2672C49.4414 32.2604 49.4035 32.2496 49.3623 32.2433C49.2746 32.2297 49.0751 32.1686 48.992 32.13C48.9601 32.1151 48.9206 32.1029 48.9044 32.1029C48.8882 32.1029 48.875 32.096 48.875 32.0875C48.875 32.079 48.8397 32.0617 48.7966 32.0489C48.7535 32.0361 48.7141 32.0204 48.7091 32.0139C48.704 32.0075 48.6585 31.9817 48.608 31.9565C48.5222 31.9137 48.2475 31.7365 48.1989 31.6925C48.187 31.6817 48.1379 31.6399 48.0899 31.5996C47.9731 31.5018 47.8881 31.4182 47.7824 31.2974C47.666 31.1644 47.6735 31.1741 47.5766 31.0301C47.53 30.9608 47.4856 30.8959 47.4781 30.8859C47.4484 30.8463 47.3077 30.5551 47.3079 30.5336C47.3079 30.521 47.2997 30.5107 47.2896 30.5107C47.2794 30.5107 47.2711 30.4963 47.271 30.4787C47.271 30.4611 47.2586 30.4231 47.2434 30.3943C47.2159 30.3419 47.1766 30.2158 47.1342 30.044C47.1218 29.9937 47.1066 29.9401 47.1004 29.925C47.0943 29.9099 47.0701 29.7864 47.0466 29.6505L47.0038 29.4035L46.9987 25.1347L46.9935 20.8659H45.6752H44.357L44.3655 25.2079ZM59.4933 27.7014V34.537H60.8114H62.1295V32.5238V30.5107L63.8808 30.5073C64.844 30.5054 65.6533 30.5033 65.6793 30.5027C65.7133 30.5019 65.7353 30.517 65.7577 30.5564C65.7748 30.5866 65.7931 30.6155 65.7983 30.6205C65.8036 30.6255 65.8182 30.6502 65.8307 30.6754C65.8433 30.7006 65.8744 30.7541 65.8999 30.7944C65.9254 30.8346 65.9517 30.8799 65.9583 30.895C65.965 30.9101 65.9753 30.9266 65.9813 30.9316C65.9874 30.9367 66.0027 30.9614 66.0153 30.9865C66.028 31.0117 66.0587 31.0652 66.0836 31.1055C66.1085 31.1457 66.1342 31.1931 66.1407 31.2107C66.1472 31.2283 66.1599 31.2427 66.1688 31.2427C66.1778 31.2427 66.1851 31.254 66.1851 31.2677C66.1851 31.2815 66.2012 31.313 66.2208 31.3378C66.2405 31.3626 66.262 31.4043 66.2686 31.4305C66.2752 31.4566 66.2923 31.4825 66.3066 31.4879C66.3209 31.4934 66.3326 31.5104 66.3326 31.5258C66.3326 31.5413 66.3392 31.5539 66.3473 31.5539C66.3554 31.5539 66.3726 31.5827 66.3854 31.6179C66.3982 31.6532 66.4158 31.682 66.4245 31.682C66.4332 31.682 66.4457 31.7067 66.4524 31.7369C66.4591 31.7671 66.4704 31.7918 66.4776 31.7918C66.4847 31.7918 66.5152 31.837 66.5452 31.8924C66.5753 31.9477 66.6055 31.993 66.6123 31.993C66.619 31.9931 66.6301 32.0178 66.6368 32.048C66.6434 32.0782 66.6545 32.1029 66.6613 32.103C66.6681 32.103 66.6982 32.1483 66.7283 32.2036C66.7584 32.259 66.7885 32.3042 66.7954 32.3042C66.8023 32.3042 66.8136 32.3268 66.8206 32.3544C66.8275 32.3819 66.8392 32.4087 66.8465 32.4138C66.8538 32.419 66.9004 32.4932 66.9501 32.5787C66.9999 32.6643 67.0461 32.7384 67.0528 32.7435C67.0595 32.7485 67.0714 32.7732 67.0792 32.7984C67.087 32.8235 67.0992 32.8482 67.1063 32.8533C67.1262 32.8674 67.2728 33.1226 67.2728 33.1432C67.2728 33.1532 67.2791 33.1641 67.2869 33.1674C67.3056 33.1755 67.4571 33.4309 67.4571 33.4543C67.4571 33.4643 67.4635 33.4752 67.4713 33.4786C67.4907 33.4869 67.6414 33.7425 67.6414 33.767C67.6414 33.7778 67.6487 33.7866 67.6576 33.7866C67.6666 33.7866 67.6847 33.8134 67.6981 33.8461C67.7114 33.8788 67.7276 33.9097 67.7342 33.9147C67.754 33.9301 67.8995 34.1852 67.8995 34.2047C67.8995 34.2146 67.9059 34.2256 67.9137 34.2289C67.9331 34.2372 68.0839 34.4928 68.0839 34.5173C68.0839 34.5312 68.5297 34.537 69.596 34.537H71.1081L71.0754 34.4798C71.0574 34.4483 71.0318 34.403 71.0186 34.3791C71.0054 34.3552 70.9867 34.3357 70.9771 34.3357C70.9675 34.3357 70.9597 34.3248 70.9597 34.3115C70.9597 34.2982 70.9265 34.2432 70.8859 34.1893C70.8454 34.1353 70.8122 34.084 70.8122 34.0754C70.8122 34.0667 70.8038 34.0497 70.7934 34.0375C70.7225 33.954 70.7016 33.9257 70.7016 33.9132C70.7016 33.9054 70.6911 33.8882 70.6783 33.8749C70.6655 33.8616 70.6179 33.793 70.5724 33.7226C70.527 33.6521 70.4835 33.5917 70.4759 33.5884C70.4682 33.585 70.4619 33.5712 70.4619 33.5576C70.4619 33.5441 70.4514 33.5221 70.4385 33.5088C70.4194 33.4892 70.3036 33.3192 70.1618 33.1027C70.1494 33.0838 70.129 33.0576 70.1163 33.0445C70.1036 33.0314 70.0933 33.0153 70.0933 33.0088C70.0933 33.0023 70.0492 32.9338 69.9954 32.8565C69.9417 32.7792 69.8921 32.7016 69.8854 32.684C69.8787 32.6664 69.8646 32.6519 69.8542 32.6519C69.8437 32.6519 69.8352 32.6402 69.8352 32.6258C69.8352 32.6114 69.8248 32.5888 69.8121 32.5755C69.7721 32.5335 69.6324 32.3222 69.6324 32.3037C69.6324 32.2939 69.6251 32.2859 69.6162 32.2859C69.6073 32.2859 69.5897 32.2612 69.5771 32.231C69.5645 32.2008 69.5469 32.1761 69.538 32.1761C69.5291 32.1761 69.5218 32.1635 69.5218 32.1481C69.5218 32.1327 69.5093 32.1153 69.4941 32.1095C69.4789 32.1037 69.4665 32.091 69.4665 32.0813C69.4665 32.0716 69.4208 31.9982 69.3651 31.9183C69.3093 31.8384 69.2637 31.7687 69.2637 31.7633C69.2637 31.7538 69.1895 31.6446 69.1711 31.6271C69.1658 31.622 69.1244 31.5603 69.0792 31.4898C69.0339 31.4194 68.9869 31.3514 68.9748 31.3387C68.9626 31.3261 68.9475 31.2993 68.9411 31.2792C68.9346 31.2592 68.9217 31.2427 68.9122 31.2427C68.9027 31.2427 68.895 31.2301 68.895 31.2147C68.895 31.1993 68.8826 31.1819 68.8674 31.1762C68.8521 31.1704 68.8397 31.1562 68.8397 31.1447C68.8397 31.1332 68.8065 31.0763 68.7659 31.0184C68.7254 30.9604 68.6922 30.9057 68.6922 30.8968C68.6922 30.8879 68.6798 30.8759 68.6646 30.8701C68.6494 30.8643 68.6369 30.8512 68.6369 30.8409C68.6369 30.8307 68.5913 30.7569 68.5355 30.677C68.4798 30.5971 68.4341 30.5264 68.4341 30.5199C68.4341 30.5134 68.4238 30.4966 68.4111 30.4826C68.3572 30.423 68.3404 30.3996 68.323 30.3602C68.3129 30.3373 68.2553 30.2485 68.1951 30.163L68.0857 30.0074L68.1401 29.991C68.17 29.982 68.1945 29.9676 68.1945 29.959C68.1945 29.9504 68.2039 29.9433 68.2154 29.9433C68.2432 29.9433 68.5465 29.7941 68.578 29.7649C68.5916 29.7523 68.6145 29.742 68.629 29.742C68.6435 29.742 68.6553 29.7343 68.6553 29.725C68.6553 29.7156 68.6735 29.7022 68.6958 29.6952C68.718 29.6882 68.776 29.6546 68.8246 29.6207C68.8733 29.5868 68.9214 29.559 68.9317 29.559C68.9419 29.559 68.9503 29.5522 68.9503 29.5438C68.9503 29.5354 68.9897 29.5031 69.0379 29.472C69.086 29.4409 69.1521 29.3922 69.1848 29.3637C69.2174 29.3353 69.2617 29.2983 69.2832 29.2816C69.3888 29.1997 69.7499 28.8319 69.8352 28.7194C69.8605 28.686 69.8999 28.6356 69.9227 28.6075C69.9456 28.5794 69.9642 28.5481 69.9642 28.538C69.9642 28.528 69.9767 28.515 69.9919 28.5092C70.0071 28.5034 70.0195 28.4868 70.0195 28.4722C70.0195 28.4576 70.0259 28.443 70.0338 28.4396C70.0542 28.4309 70.2776 28.051 70.2776 28.025C70.2776 28.0131 70.2859 28.0034 70.296 28.0034C70.3062 28.0034 70.3145 27.9947 70.3145 27.984C70.3145 27.9733 70.336 27.9177 70.3624 27.8604C70.4523 27.665 70.4619 27.641 70.4619 27.6133C70.4619 27.598 70.4682 27.5828 70.4758 27.5794C70.4928 27.5719 70.5651 27.3601 70.5824 27.2668C70.5894 27.229 70.6014 27.1981 70.6091 27.1981C70.6168 27.1981 70.6288 27.1555 70.6358 27.1035C70.6427 27.0514 70.6562 26.9944 70.6657 26.9768C70.6869 26.9374 70.735 26.6601 70.759 26.4386C70.7689 26.3481 70.7853 26.2362 70.7954 26.1902C70.8196 26.0809 70.8197 25.0946 70.7955 24.9855C70.7853 24.9392 70.769 24.8272 70.7593 24.7366C70.7409 24.565 70.6905 24.2808 70.6702 24.2333C70.6637 24.2182 70.6482 24.1647 70.6358 24.1144C70.5883 23.9215 70.4983 23.6607 70.4758 23.6507C70.4682 23.6474 70.4617 23.6309 70.4614 23.6141C70.4611 23.5974 70.4404 23.5425 70.4155 23.4921C70.3905 23.4418 70.37 23.3903 70.3699 23.3777C70.3699 23.3652 70.3624 23.3549 70.3533 23.3549C70.3443 23.3549 70.3312 23.3323 70.3242 23.3047C70.3173 23.2771 70.306 23.2504 70.2992 23.2452C70.2924 23.2401 70.2619 23.1886 70.2315 23.1307C70.2011 23.0729 70.17 23.0255 70.1624 23.0255C70.1548 23.0255 70.1486 23.0137 70.1486 22.9993C70.1486 22.9849 70.1382 22.9623 70.1255 22.949C70.1129 22.9357 70.0776 22.8877 70.0472 22.8424C70.0168 22.7971 69.9836 22.7506 69.9734 22.739C69.9633 22.7275 69.9301 22.6871 69.8997 22.6493C69.7481 22.4609 69.6058 22.313 69.4112 22.1417C69.2421 21.9929 69.243 21.9936 69.1715 21.9453C69.136 21.9213 69.1029 21.8971 69.0978 21.8916C69.0751 21.8668 68.8551 21.7261 68.8391 21.7261C68.8293 21.7261 68.8213 21.7188 68.8213 21.7099C68.8213 21.701 68.8068 21.6889 68.789 21.683C68.7713 21.6771 68.7111 21.6465 68.6553 21.6149C68.4659 21.5077 68.2696 21.4149 68.2324 21.4149C68.2217 21.4149 68.2129 21.4067 68.2129 21.3966C68.2129 21.3866 68.1984 21.3783 68.1807 21.3782C68.1629 21.3781 68.1264 21.3667 68.0995 21.3528C68.0726 21.3388 68.0187 21.3172 67.9797 21.3047C67.9407 21.2923 67.9005 21.2758 67.8903 21.2682C67.8802 21.2606 67.8431 21.2483 67.808 21.2408C67.7728 21.2334 67.7313 21.2205 67.7158 21.2121C67.6706 21.1879 67.3596 21.1038 67.3153 21.1038C67.2931 21.1038 67.2703 21.0964 67.2647 21.0873C67.259 21.0782 67.2028 21.0649 67.1399 21.0576C67.0769 21.0503 67.0126 21.0371 66.997 21.0281C66.9421 20.9967 66.2755 20.9153 65.8256 20.8852C65.6813 20.8755 64.2289 20.8674 62.5304 20.8669L59.4933 20.8659V27.7014ZM73.7064 27.7014V34.537H75.0245H76.3426V27.7014V20.8659H75.0245H73.7064V27.7014ZM79.7161 27.7014V34.537H81.0158H82.3154V29.8394V25.1418L82.39 25.2412C82.431 25.2958 82.4725 25.3433 82.4822 25.3467C82.4918 25.35 82.4998 25.3612 82.4998 25.3715C82.4998 25.3818 82.5184 25.4129 82.5413 25.4406C82.5641 25.4683 82.5952 25.5097 82.6104 25.5324C82.6256 25.5552 82.6463 25.5831 82.6565 25.5945C82.6666 25.6058 82.6995 25.648 82.7297 25.6883C82.7892 25.7679 82.7962 25.7769 82.8498 25.8415C82.8696 25.8653 82.8905 25.8995 82.8963 25.9175C82.902 25.9355 82.9189 25.9549 82.9337 25.9605C82.9485 25.9662 82.9606 25.9834 82.9606 25.9988C82.9606 26.0143 82.9678 26.0269 82.9766 26.0269C82.9854 26.0269 83.0157 26.0614 83.0438 26.1037C83.1045 26.1947 83.125 26.2206 83.168 26.261C83.1858 26.2776 83.2003 26.3005 83.2003 26.3118C83.2003 26.3231 83.2169 26.3472 83.2372 26.3654C83.2574 26.3836 83.274 26.4096 83.274 26.4232C83.274 26.4367 83.2809 26.4478 83.2892 26.4478C83.2976 26.4478 83.337 26.494 83.3768 26.5504C83.4166 26.6069 83.4637 26.6664 83.4814 26.6826C83.4992 26.6989 83.5137 26.7208 83.5137 26.7315C83.5137 26.7421 83.5282 26.7638 83.5459 26.7797C83.5637 26.7955 83.5948 26.832 83.6151 26.8607C83.6354 26.8894 83.6934 26.9683 83.7441 27.036C83.7948 27.1038 83.8487 27.1772 83.8639 27.1992C83.8792 27.2212 83.8999 27.2485 83.91 27.2599C83.9202 27.2712 83.9652 27.3299 84.0102 27.3903C84.0551 27.4507 84.0966 27.5042 84.1024 27.5093C84.1082 27.5143 84.1378 27.5555 84.1682 27.6008C84.1985 27.6461 84.2328 27.6914 84.2444 27.7014C84.2559 27.7115 84.2965 27.7646 84.3347 27.8195C84.4099 27.9277 84.4278 27.951 84.4769 28.0047C84.4946 28.0241 84.5092 28.047 84.5092 28.0555C84.5092 28.064 84.5257 28.0859 84.546 28.1041C84.5663 28.1223 84.5829 28.1483 84.5829 28.1618C84.5829 28.1753 84.5896 28.1864 84.5978 28.1864C84.606 28.1864 84.6535 28.242 84.7034 28.31C84.7533 28.3779 84.8005 28.4362 84.8083 28.4396C84.8161 28.443 84.8225 28.4546 84.8225 28.4655C84.8225 28.4764 84.8354 28.4984 84.8511 28.5143C84.8764 28.54 85.0997 28.8331 85.1728 28.9367C85.188 28.9583 85.2145 28.9939 85.2316 29.0158C85.406 29.2394 85.5231 29.399 85.5231 29.4134C85.5231 29.423 85.5304 29.4309 85.5393 29.4309C85.5482 29.4309 85.5935 29.4865 85.6399 29.5544C85.6864 29.6224 85.7454 29.7027 85.7712 29.7329C85.7969 29.7631 85.8764 29.866 85.9477 29.9617C86.0191 30.0573 86.0917 30.1535 86.109 30.1754C86.1264 30.1974 86.1531 30.2329 86.1683 30.2544C86.1835 30.2759 86.2374 30.3489 86.2881 30.4166C86.3388 30.4843 86.3969 30.5627 86.4171 30.5908C86.4374 30.6188 86.4665 30.6569 86.4817 30.6754C86.4969 30.6939 86.5259 30.7318 86.5462 30.7596C86.5665 30.7874 86.639 30.8831 86.7075 30.9723C86.7759 31.0615 86.8319 31.1383 86.8319 31.1429C86.8319 31.1475 86.8464 31.1671 86.8642 31.1865C86.9053 31.2315 86.9213 31.2526 86.9865 31.348C87.0158 31.3907 87.0469 31.4258 87.0556 31.4258C87.0644 31.4258 87.0716 31.4377 87.0716 31.4523C87.0716 31.4669 87.082 31.4854 87.0947 31.4935C87.1074 31.5015 87.1426 31.5452 87.173 31.5905C87.2033 31.6358 87.2328 31.6769 87.2384 31.682C87.244 31.687 87.2731 31.7241 87.303 31.7643C87.3329 31.8046 87.3656 31.8468 87.3757 31.8582C87.3859 31.8695 87.4066 31.8971 87.4218 31.9194C87.437 31.9417 87.4681 31.9818 87.4909 32.0085C87.5137 32.0353 87.5324 32.0675 87.5324 32.08C87.5324 32.0926 87.5395 32.1029 87.5482 32.1029C87.5569 32.1029 87.6001 32.1544 87.6443 32.2173C87.6885 32.2802 87.7332 32.3417 87.7438 32.3539C87.7543 32.3662 87.7752 32.3906 87.7904 32.4082C87.838 32.4638 87.9011 32.5614 87.9011 32.5795C87.9011 32.5892 87.908 32.597 87.9163 32.597C87.9247 32.597 87.9641 32.6432 88.0039 32.6997C88.0437 32.7562 88.0908 32.8156 88.1085 32.8319C88.1263 32.8481 88.1408 32.8701 88.1408 32.8807C88.1408 32.8913 88.1553 32.9136 88.173 32.9303C88.2161 32.9706 88.2366 32.9966 88.2973 33.0876C88.3254 33.1298 88.3557 33.1644 88.3644 33.1644C88.3732 33.1644 88.3804 33.177 88.3804 33.1924C88.3804 33.2078 88.3926 33.2251 88.4074 33.2307C88.4222 33.2363 88.439 33.2557 88.4448 33.2737C88.4506 33.2917 88.4715 33.3259 88.4912 33.3498C88.5448 33.4144 88.5519 33.4234 88.6114 33.503C88.6415 33.5432 88.6745 33.5854 88.6846 33.5968C88.6947 33.6082 88.7155 33.6361 88.7307 33.6588C88.7459 33.6816 88.777 33.7229 88.7998 33.7506C88.8226 33.7784 88.8413 33.8102 88.8413 33.8213C88.8413 33.8324 88.8484 33.8415 88.8571 33.8415C88.8657 33.8415 88.9088 33.893 88.9528 33.9559C88.9968 34.0188 89.0437 34.0769 89.0569 34.0849C89.0701 34.093 89.0809 34.1074 89.0809 34.117C89.0809 34.1265 89.0938 34.1488 89.1096 34.1664C89.1253 34.184 89.194 34.2725 89.2621 34.3631L89.3859 34.5278L90.6345 34.5325L91.883 34.5372V27.7014V20.8656L90.6064 20.8703L89.3298 20.875L89.3252 25.5648C89.322 28.7655 89.3145 30.2545 89.3016 30.2545C89.2911 30.2545 89.2774 30.2401 89.271 30.2224C89.2646 30.2048 89.2462 30.1767 89.2301 30.1599C89.214 30.1432 89.1682 30.0835 89.1284 30.0273C89.0886 29.971 89.0492 29.925 89.0409 29.925C89.0325 29.925 89.0256 29.914 89.0256 29.9004C89.0256 29.8869 89.0091 29.8609 88.9888 29.8427C88.9685 29.8245 88.9519 29.8003 88.9519 29.789C88.9519 29.7777 88.9374 29.7549 88.9196 29.7382C88.879 29.7002 88.8674 29.6853 88.7689 29.5453C88.7247 29.4824 88.6819 29.4309 88.674 29.4309C88.666 29.4309 88.6545 29.4154 88.6484 29.3965C88.6424 29.3775 88.6212 29.3426 88.6014 29.3187C88.5479 29.2541 88.5408 29.2451 88.4813 29.1655C88.4511 29.1253 88.4182 29.0831 88.4081 29.0717C88.3979 29.0603 88.3772 29.0328 88.362 29.0105C88.3468 28.9882 88.3157 28.9481 88.2929 28.9213C88.2701 28.8946 88.2514 28.8631 88.2514 28.8514C88.2514 28.8396 88.2435 28.8273 88.2338 28.8239C88.2182 28.8185 88.1281 28.7043 88.0486 28.5892C88.0334 28.5672 88.0044 28.5305 87.9841 28.5077C87.9638 28.4848 87.9348 28.4477 87.9196 28.4251C87.8495 28.3212 87.7503 28.195 87.7344 28.1895C87.7247 28.1861 87.7168 28.1749 87.7168 28.1647C87.7168 28.1544 87.6981 28.1233 87.6753 28.0955C87.6525 28.0678 87.6214 28.0267 87.6062 28.0043C87.591 27.9818 87.565 27.9475 87.5484 27.9281C87.5318 27.9087 87.4986 27.8642 87.4746 27.8293C87.4507 27.7943 87.4248 27.7657 87.4172 27.7656C87.4096 27.7655 87.4034 27.7529 87.4034 27.7375C87.4034 27.722 87.3917 27.705 87.3774 27.6996C87.3632 27.6941 87.3417 27.6661 87.3297 27.6374C87.3177 27.6086 87.2962 27.5806 87.2819 27.5752C87.2676 27.5698 87.2559 27.5527 87.2559 27.5373C87.2559 27.5219 87.2487 27.5093 87.2399 27.5093C87.2311 27.5093 87.2009 27.4747 87.1727 27.4325C87.1121 27.3415 87.0916 27.3155 87.0485 27.2751C87.0308 27.2585 87.0163 27.2389 87.0163 27.2315C87.0163 27.2173 86.7781 26.8981 86.7308 26.8489C86.7154 26.8329 86.7029 26.8121 86.7029 26.8026C86.7029 26.7931 86.6884 26.7725 86.6706 26.7567C86.6529 26.7409 86.6259 26.7094 86.6107 26.6868C86.5571 26.6068 86.4536 26.4719 86.4217 26.4404C86.404 26.4229 86.3895 26.4022 86.3895 26.3944C86.3895 26.3866 86.373 26.3604 86.353 26.3362C86.3329 26.312 86.3097 26.284 86.3015 26.2739C86.2932 26.2639 86.2499 26.2062 86.2051 26.1458C86.1153 26.0245 86.1146 26.0236 86.0487 25.9419C86.0232 25.9102 86.0024 25.8759 86.0024 25.8656C86.0024 25.8553 85.9944 25.8442 85.9848 25.8408C85.9686 25.8352 85.8666 25.7052 85.7996 25.6047C85.7844 25.5819 85.7574 25.5482 85.7397 25.5297C85.7219 25.5112 85.7074 25.4924 85.7074 25.4878C85.7074 25.4763 85.3952 25.0633 85.3049 24.9553C85.296 24.9447 85.2657 24.9014 85.2375 24.8592C85.2094 24.8169 85.1791 24.7824 85.1703 24.7824C85.1616 24.7824 85.1544 24.7733 85.1544 24.7621C85.1544 24.751 85.1357 24.7192 85.1129 24.6915C85.0901 24.6637 85.059 24.6224 85.0438 24.5997C85.0285 24.5769 85.0075 24.549 84.997 24.5376C84.9865 24.5263 84.9533 24.4841 84.9233 24.4438C84.8932 24.4035 84.8603 24.3613 84.8502 24.35C84.8401 24.3386 84.8193 24.3107 84.8041 24.2879C84.7889 24.2652 84.7578 24.2239 84.735 24.1961C84.7122 24.1684 84.6935 24.1411 84.6935 24.1355C84.6935 24.13 84.6721 24.1025 84.646 24.0745C84.6199 24.0465 84.5728 23.9843 84.5415 23.9363C84.5101 23.8883 84.4776 23.849 84.4692 23.849C84.4607 23.849 84.4538 23.8394 84.4538 23.8277C84.4538 23.8159 84.4413 23.7933 84.4259 23.7773C84.3985 23.7489 84.1581 23.4332 84.1036 23.354C84.0884 23.3319 84.0676 23.3045 84.0575 23.2931C84.0474 23.2818 84.0022 23.2231 83.9572 23.1627C83.9122 23.1023 83.8686 23.0502 83.8604 23.0468C83.8522 23.0434 83.8455 23.0305 83.8455 23.018C83.8455 23.0055 83.8248 22.9759 83.7994 22.9522C83.7741 22.9286 83.7533 22.8992 83.7533 22.887C83.7533 22.8747 83.7409 22.8599 83.7257 22.8541C83.7105 22.8483 83.698 22.8317 83.698 22.8171C83.698 22.8025 83.6918 22.7878 83.6842 22.7845C83.6766 22.7811 83.6457 22.7454 83.6156 22.7052C83.5418 22.6065 83.5282 22.5894 83.4906 22.5483C83.4729 22.5289 83.4584 22.5061 83.4584 22.4975C83.4584 22.489 83.4418 22.4672 83.4215 22.449C83.4012 22.4307 83.3846 22.4093 83.3846 22.4013C83.3846 22.3933 83.3633 22.3639 83.3371 22.3359C83.311 22.3079 83.264 22.2457 83.2326 22.1977C83.2013 22.1497 83.1688 22.1104 83.1603 22.1104C83.1519 22.1104 83.145 22.1008 83.145 22.089C83.145 22.0773 83.1324 22.0547 83.117 22.0387C83.0896 22.0103 82.8493 21.6946 82.7947 21.6153C82.7795 21.5932 82.7587 21.5659 82.7485 21.5545C82.7383 21.5432 82.6785 21.4639 82.6156 21.3783C82.5528 21.2928 82.4885 21.2097 82.4729 21.1938C82.4573 21.1778 82.4445 21.1552 82.4445 21.1434C82.4445 21.1317 82.4376 21.1221 82.4293 21.1221C82.4209 21.1221 82.3815 21.0762 82.3417 21.0201C82.3019 20.9641 82.2584 20.9064 82.245 20.892C82.2243 20.8699 82.03 20.8659 80.9684 20.8659H79.7161V27.7014ZM66.0376 23.2055C66.1846 23.2279 66.3181 23.2535 66.3342 23.2623C66.3503 23.2711 66.4105 23.2841 66.4679 23.2912C66.5253 23.2984 66.5722 23.3104 66.5722 23.318C66.5722 23.3255 66.6116 23.3404 66.6598 23.3511C66.7781 23.3773 66.9303 23.4313 66.9379 23.4497C66.9412 23.4579 66.9557 23.4647 66.9701 23.4647C66.9941 23.4647 67.1772 23.5529 67.1989 23.5749C67.204 23.5801 67.229 23.5949 67.2543 23.6078C67.368 23.6655 67.4018 23.6875 67.4018 23.7036C67.4018 23.7131 67.4113 23.7209 67.4228 23.7209C67.4779 23.7209 67.8192 24.0545 67.8887 24.1764C67.898 24.1926 67.9115 24.21 67.9186 24.215C67.9258 24.2201 67.9727 24.3024 68.0229 24.398C68.1148 24.573 68.2129 24.841 68.2129 24.9171C68.2129 24.9396 68.2209 24.966 68.2306 24.9756C68.2608 25.0056 68.2939 25.3636 68.2939 25.6608C68.294 25.9556 68.2589 26.3244 68.2297 26.3349C68.2205 26.3383 68.2129 26.364 68.2129 26.3921C68.2129 26.4454 68.1387 26.6898 68.0924 26.7891C68.0776 26.8208 68.0654 26.8559 68.0654 26.8669C68.0654 26.878 68.0581 26.887 68.049 26.887C68.04 26.887 68.0278 26.9055 68.0219 26.9282C68.0161 26.9509 67.982 27.0133 67.9462 27.0671C67.9104 27.1208 67.8811 27.1673 67.8811 27.1704C67.8811 27.201 67.51 27.5822 67.4801 27.5823C67.4675 27.5824 67.4571 27.5899 67.4571 27.599C67.4571 27.6081 67.4094 27.6472 67.3511 27.6859C67.234 27.7637 67.2165 27.7736 67.07 27.8464C67.0142 27.8742 66.9478 27.9075 66.9225 27.9206C66.8971 27.9336 66.8495 27.95 66.8167 27.9569C66.7839 27.9639 66.7523 27.9772 66.7465 27.9865C66.7407 27.9958 66.7191 28.0034 66.6984 28.0034C66.6777 28.0034 66.6346 28.0148 66.6027 28.0288C66.4719 28.086 66.112 28.1524 65.7519 28.1859C65.6606 28.1943 64.8083 28.2021 63.8577 28.203L62.1295 28.2047V25.678V23.1513L63.9499 23.158C65.7227 23.1645 65.7773 23.1658 66.0376 23.2055Z" fill="#1A1952"/>
<path d="M38.6409 37.3445H39.4281V41.5532H38.659L36.4789 38.6547V41.5532H35.6851V37.3445H36.4542L38.6409 40.2488V37.3445Z" fill="url(#paint0_linear_7032_48247)"/>
<path d="M41.0757 37.3447H44.1827V38.048H41.8876V39.0881H43.9469V39.7913H41.8876V40.8494H44.2559V41.5527H41.0757V37.3447Z" fill="url(#paint1_linear_7032_48247)"/>
<path d="M45.2124 37.3447H48.6703V38.0602H47.3498V41.5535H46.5321V38.0602H45.2124V37.3447Z" fill="url(#paint2_linear_7032_48247)"/>
<path d="M54.9936 37.3447H55.8351L54.3995 41.5535H53.558L52.5892 38.3604L51.6022 41.5535H50.7723L49.3433 37.3447H50.2151L51.2144 40.6822L52.2079 37.3447H53.0074L54.0067 40.6936L54.9936 37.3447Z" fill="url(#paint3_linear_7032_48247)"/>
<path d="M59.9692 37.573C60.3144 37.7615 60.5864 38.0201 60.7836 38.3489C60.9816 38.6776 61.0802 39.0423 61.0802 39.4429C61.0802 39.8434 60.9808 40.2097 60.7836 40.5401C60.5855 40.8705 60.3144 41.1324 59.9692 41.3249C59.6241 41.5175 59.2412 41.6137 58.8212 41.6137C58.4013 41.6137 58.0184 41.5175 57.6733 41.3249C57.3281 41.1324 57.0561 40.8713 56.8589 40.5401C56.6609 40.2097 56.5623 39.8434 56.5623 39.4429C56.5623 39.0423 56.6609 38.6768 56.8589 38.3489C57.057 38.0201 57.3281 37.7615 57.6733 37.573C58.0184 37.3846 58.4013 37.2908 58.8212 37.2908C59.2412 37.2908 59.6241 37.3846 59.9692 37.573ZM58.1129 38.2012C57.891 38.3277 57.7152 38.4998 57.5862 38.7184C57.4571 38.9371 57.3922 39.1785 57.3922 39.4429C57.3922 39.7072 57.458 39.9495 57.5894 40.1706C57.7209 40.3908 57.896 40.5654 58.1162 40.6935C58.3364 40.8216 58.5755 40.886 58.8336 40.886C59.0883 40.886 59.3242 40.8224 59.5419 40.6935C59.7597 40.5654 59.9322 40.3908 60.0596 40.1706C60.187 39.9503 60.2503 39.708 60.2503 39.4429C60.2503 39.1777 60.187 38.9371 60.0596 38.7184C59.9322 38.4998 59.7597 38.3277 59.5419 38.2012C59.3242 38.0748 59.0875 38.0119 58.8336 38.0119C58.5747 38.0119 58.3348 38.0748 58.1129 38.2012Z" fill="url(#paint4_linear_7032_48247)"/>
<path d="M65.0535 41.5536L64.3205 40.3086C64.2884 40.3127 64.2375 40.3143 64.1693 40.3143H63.2128V41.5527H62.4009V37.344H64.1693C64.7182 37.344 65.1422 37.4704 65.4414 37.7225C65.7405 37.9754 65.8892 38.3319 65.8892 38.7929C65.8892 39.1216 65.8177 39.4023 65.6739 39.6348C65.5309 39.8673 65.3214 40.0419 65.0469 40.1577L65.9796 41.5527H65.0535V41.5536ZM63.2119 39.6054H64.1685C64.475 39.6054 64.71 39.5393 64.8711 39.4072C65.0329 39.275 65.1135 39.0784 65.1135 38.8182C65.1135 38.562 65.0329 38.3695 64.8711 38.2406C64.7092 38.1125 64.475 38.048 64.1685 38.048H63.2119V39.6054Z" fill="url(#paint5_linear_7032_48247)"/>
<path d="M71.1704 41.5535H70.195L68.8621 39.7497L68.1957 40.4774V41.5535H67.3838V37.3447H68.1965V39.443L70.1104 37.3447H71.0677L69.4382 39.1248L71.1704 41.5535Z" fill="url(#paint6_linear_7032_48247)"/>
<path fill-rule="evenodd" clip-rule="evenodd" d="M9.80332 17.0553C7.66741 17.7877 5.80317 18.942 4.22832 20.5071C3.08537 21.6429 2.18452 22.8906 1.47461 24.3209C0.671847 25.9383 0.196367 27.6469 0.037564 29.4851C0.0016421 29.9007 -0.0123285 30.9884 0.0126261 31.4248C0.217522 35.0067 1.70139 38.2997 4.24554 40.8183C6.53144 43.0813 9.49907 44.5166 12.6903 44.9027C13.2431 44.9696 13.5574 44.9888 14.2451 44.9977C15.0965 45.0087 15.5972 44.9821 16.3406 44.8864C21.5361 44.2177 25.9902 40.7565 27.9141 35.893C28.0201 35.625 28.204 35.1158 28.204 35.0903C28.204 35.0852 28.1081 35.2248 27.9908 35.4005C26.1701 38.1297 23.3915 40.0911 20.2149 40.8897C18.1203 41.4162 15.8852 41.4228 13.7854 40.9086C10.9705 40.2193 8.46166 38.6241 6.63545 36.3624C4.38536 33.5758 3.38522 30.0201 3.84846 26.4541C4.13905 24.2172 5.01213 22.0956 6.3899 20.2785C6.79001 19.7507 7.07559 19.4239 7.56932 18.9287C8.23467 18.2614 8.88304 17.7306 9.66036 17.217C9.84204 17.097 9.98399 16.9993 9.97581 17C9.96763 17.0007 9.89001 17.0256 9.80332 17.0553ZM16.3406 17.3052C16.2995 17.3086 16.1689 17.3191 16.0502 17.3284C14.9027 17.419 13.6821 17.7227 12.6007 18.1869C11.0572 18.8495 9.65226 19.8948 8.55209 21.1993C6.43528 23.7092 5.57576 27.0595 6.22145 30.284C6.24866 30.4199 6.31159 30.6897 6.36132 30.8837C6.41103 31.0776 6.45171 31.2388 6.45171 31.2419C6.45171 31.2451 6.45815 31.2477 6.46601 31.2477C6.47388 31.2477 6.48543 31.1981 6.49168 31.1375C6.54466 30.6241 6.80185 29.6925 7.05701 29.0897C7.89511 27.11 9.4205 25.4626 11.335 24.4696C12.8277 23.6954 14.613 23.3413 16.0687 23.5308C17.7237 23.7462 19.0331 24.6732 19.681 26.0884C19.8662 26.4929 20.0048 26.9922 20.034 27.3601C20.0453 27.5017 20.0615 27.5578 20.0914 27.5578C20.1185 27.5578 20.8229 27.9018 21.1691 28.0841C22.0438 28.5447 23.0201 29.1265 23.136 29.2561L23.1683 29.2923L23.0521 29.2815C22.3394 29.2154 21.6128 29.2351 20.9703 29.3377C19.2062 29.6197 17.9544 30.4543 17.3025 31.783C17.0579 32.2816 16.9049 32.7886 16.8298 33.3498C16.7989 33.5807 16.7944 34.0869 16.8214 34.3033C16.9633 35.4447 17.5513 36.3983 18.504 37.0321C18.9535 37.3313 19.4632 37.5311 20.0407 37.6349C20.2603 37.6743 20.3202 37.6782 20.7292 37.679C21.2085 37.6799 21.3354 37.6673 21.733 37.5795C21.9752 37.5259 22.3967 37.3879 22.6539 37.2779C23.4388 36.9421 24.2228 36.3691 24.9371 35.6091C26.65 33.7867 27.6362 31.5955 27.8751 29.0815C27.9095 28.7195 27.9043 27.51 27.8669 27.1542C27.7176 25.7366 27.3568 24.4901 26.7441 23.2752C25.6979 21.201 23.9552 19.4753 21.8575 18.4361C20.6514 17.8387 19.3871 17.4795 17.9832 17.3353C17.7415 17.3105 16.5423 17.2885 16.3406 17.3052ZM16.9462 25.4549C16.8366 25.4908 16.7703 25.5313 16.6757 25.6202C16.5124 25.7735 16.4317 26.0057 16.4702 26.2113C16.4992 26.3662 16.5744 26.5026 16.6888 26.6077C16.8278 26.7355 16.9322 26.7737 17.1453 26.7745C17.3601 26.7754 17.4618 26.7375 17.6073 26.6023C17.7161 26.5013 17.7732 26.4073 17.8107 26.2674C17.8916 25.9655 17.7346 25.6395 17.4385 25.4948C17.3431 25.4481 17.3119 25.4415 17.1715 25.4376C17.0727 25.4348 16.9875 25.4414 16.9462 25.4549Z" fill="url(#paint7_linear_7032_48247)"/>
<path d="M123 25V37" stroke="#E0E4EB"/>
<path d="M147.896 24.224H150.264V28.768C149.656 29.2267 148.952 29.5787 148.152 29.824C147.352 30.0693 146.547 30.192 145.736 30.192C144.573 30.192 143.528 29.9467 142.6 29.456C141.672 28.9547 140.941 28.2667 140.408 27.392C139.885 26.5067 139.624 25.5093 139.624 24.4C139.624 23.2907 139.885 22.2987 140.408 21.424C140.941 20.5387 141.677 19.8507 142.616 19.36C143.555 18.8587 144.611 18.608 145.784 18.608C146.765 18.608 147.656 18.7733 148.456 19.104C149.256 19.4347 149.928 19.9147 150.472 20.544L148.808 22.08C148.008 21.2373 147.043 20.816 145.912 20.816C145.197 20.816 144.563 20.9653 144.008 21.264C143.453 21.5627 143.021 21.984 142.712 22.528C142.403 23.072 142.248 23.696 142.248 24.4C142.248 25.0933 142.403 25.712 142.712 26.256C143.021 26.8 143.448 27.2267 143.992 27.536C144.547 27.8347 145.176 27.984 145.88 27.984C146.627 27.984 147.299 27.824 147.896 27.504V24.224ZM156.592 30.128C155.685 30.128 154.869 29.9413 154.144 29.568C153.429 29.184 152.869 28.656 152.464 27.984C152.058 27.312 151.856 26.5493 151.856 25.696C151.856 24.8427 152.058 24.08 152.464 23.408C152.869 22.736 153.429 22.2133 154.144 21.84C154.869 21.456 155.685 21.264 156.592 21.264C157.498 21.264 158.309 21.456 159.024 21.84C159.738 22.2133 160.298 22.736 160.704 23.408C161.109 24.08 161.312 24.8427 161.312 25.696C161.312 26.5493 161.109 27.312 160.704 27.984C160.298 28.656 159.738 29.184 159.024 29.568C158.309 29.9413 157.498 30.128 156.592 30.128ZM156.592 28.08C157.232 28.08 157.754 27.8667 158.16 27.44C158.576 27.0027 158.784 26.4213 158.784 25.696C158.784 24.9707 158.576 24.3947 158.16 23.968C157.754 23.5307 157.232 23.312 156.592 23.312C155.952 23.312 155.424 23.5307 155.008 23.968C154.592 24.3947 154.384 24.9707 154.384 25.696C154.384 26.4213 154.592 27.0027 155.008 27.44C155.424 27.8667 155.952 28.08 156.592 28.08ZM171.29 21.392L167.658 30H165.082L161.466 21.392H164.042L166.426 27.248L168.89 21.392H171.29ZM180.506 25.728C180.506 25.76 180.49 25.984 180.458 26.4H173.946C174.063 26.9333 174.341 27.3547 174.778 27.664C175.215 27.9733 175.759 28.128 176.41 28.128C176.858 28.128 177.253 28.064 177.594 27.936C177.946 27.7973 178.271 27.584 178.57 27.296L179.898 28.736C179.087 29.664 177.903 30.128 176.346 30.128C175.375 30.128 174.517 29.9413 173.77 29.568C173.023 29.184 172.447 28.656 172.042 27.984C171.637 27.312 171.434 26.5493 171.434 25.696C171.434 24.8533 171.631 24.096 172.026 23.424C172.431 22.7413 172.981 22.2133 173.674 21.84C174.378 21.456 175.162 21.264 176.026 21.264C176.869 21.264 177.631 21.4453 178.314 21.808C178.997 22.1707 179.53 22.6933 179.914 23.376C180.309 24.048 180.506 24.832 180.506 25.728ZM176.042 23.152C175.477 23.152 175.002 23.312 174.618 23.632C174.234 23.952 173.999 24.3893 173.914 24.944H178.154C178.069 24.4 177.834 23.968 177.45 23.648C177.066 23.3173 176.597 23.152 176.042 23.152ZM184.552 22.528C184.85 22.112 185.25 21.7973 185.752 21.584C186.264 21.3707 186.85 21.264 187.512 21.264V23.568C187.234 23.5467 187.048 23.536 186.952 23.536C186.237 23.536 185.677 23.7387 185.272 24.144C184.866 24.5387 184.664 25.136 184.664 25.936V30H182.168V21.392H184.552V22.528ZM194.228 21.264C195.294 21.264 196.153 21.584 196.804 22.224C197.465 22.864 197.796 23.8133 197.796 25.072V30H195.3V25.456C195.3 24.7733 195.15 24.2667 194.852 23.936C194.553 23.5947 194.121 23.424 193.556 23.424C192.926 23.424 192.425 23.6213 192.052 24.016C191.678 24.4 191.492 24.976 191.492 25.744V30H188.996V21.392H191.38V22.4C191.71 22.0373 192.121 21.76 192.612 21.568C193.102 21.3653 193.641 21.264 194.228 21.264ZM203.53 21.264C204.864 21.264 205.888 21.584 206.602 22.224C207.317 22.8533 207.674 23.808 207.674 25.088V30H205.338V28.928C204.869 29.728 203.994 30.128 202.714 30.128C202.053 30.128 201.477 30.016 200.986 29.792C200.506 29.568 200.138 29.2587 199.882 28.864C199.626 28.4693 199.498 28.0213 199.498 27.52C199.498 26.72 199.797 26.0907 200.394 25.632C201.002 25.1733 201.936 24.944 203.194 24.944H205.178C205.178 24.4 205.013 23.984 204.682 23.696C204.352 23.3973 203.856 23.248 203.194 23.248C202.736 23.248 202.282 23.3227 201.834 23.472C201.397 23.6107 201.024 23.8027 200.714 24.048L199.818 22.304C200.288 21.9733 200.848 21.7173 201.498 21.536C202.16 21.3547 202.837 21.264 203.53 21.264ZM203.338 28.448C203.765 28.448 204.144 28.352 204.474 28.16C204.805 27.9573 205.04 27.664 205.178 27.28V26.4H203.466C202.442 26.4 201.93 26.736 201.93 27.408C201.93 27.728 202.053 27.984 202.298 28.176C202.554 28.3573 202.901 28.448 203.338 28.448ZM215.165 21.264C216.232 21.264 217.091 21.584 217.741 22.224C218.403 22.864 218.733 23.8133 218.733 25.072V30H216.237V25.456C216.237 24.7733 216.088 24.2667 215.789 23.936C215.491 23.5947 215.059 23.424 214.493 23.424C213.864 23.424 213.363 23.6213 212.989 24.016C212.616 24.4 212.429 24.976 212.429 25.744V30H209.933V21.392H212.317V22.4C212.648 22.0373 213.059 21.76 213.549 21.568C214.04 21.3653 214.579 21.264 215.165 21.264ZM225.25 30.128C224.332 30.128 223.506 29.9413 222.77 29.568C222.044 29.184 221.474 28.656 221.058 27.984C220.652 27.312 220.45 26.5493 220.45 25.696C220.45 24.8427 220.652 24.08 221.058 23.408C221.474 22.736 222.044 22.2133 222.77 21.84C223.506 21.456 224.332 21.264 225.25 21.264C226.156 21.264 226.946 21.456 227.618 21.84C228.3 22.2133 228.796 22.752 229.106 23.456L227.17 24.496C226.722 23.7067 226.076 23.312 225.234 23.312C224.583 23.312 224.044 23.5253 223.618 23.952C223.191 24.3787 222.978 24.96 222.978 25.696C222.978 26.432 223.191 27.0133 223.618 27.44C224.044 27.8667 224.583 28.08 225.234 28.08C226.087 28.08 226.732 27.6853 227.17 26.896L229.106 27.952C228.796 28.6347 228.3 29.168 227.618 29.552C226.946 29.936 226.156 30.128 225.25 30.128ZM238.865 25.728C238.865 25.76 238.849 25.984 238.817 26.4H232.305C232.423 26.9333 232.7 27.3547 233.137 27.664C233.575 27.9733 234.119 28.128 234.769 28.128C235.217 28.128 235.612 28.064 235.953 27.936C236.305 27.7973 236.631 27.584 236.929 27.296L238.257 28.736C237.447 29.664 236.263 30.128 234.705 30.128C233.735 30.128 232.876 29.9413 232.129 29.568C231.383 29.184 230.807 28.656 230.401 27.984C229.996 27.312 229.793 26.5493 229.793 25.696C229.793 24.8533 229.991 24.096 230.385 23.424C230.791 22.7413 231.34 22.2133 232.033 21.84C232.737 21.456 233.521 21.264 234.385 21.264C235.228 21.264 235.991 21.4453 236.673 21.808C237.356 22.1707 237.889 22.6933 238.273 23.376C238.668 24.048 238.865 24.832 238.865 25.728ZM234.401 23.152C233.836 23.152 233.361 23.312 232.977 23.632C232.593 23.952 232.359 24.3893 232.273 24.944H236.513C236.428 24.4 236.193 23.968 235.809 23.648C235.425 23.3173 234.956 23.152 234.401 23.152Z" fill="#1E2134"/>
<path d="M143.858 39.5455C143.815 39.1856 143.643 38.9062 143.339 38.7074C143.036 38.5085 142.665 38.4091 142.224 38.4091C141.902 38.4091 141.621 38.4612 141.379 38.5653C141.14 38.6695 140.953 38.8127 140.818 38.995C140.686 39.1773 140.619 39.3845 140.619 39.6165C140.619 39.8106 140.665 39.9775 140.758 40.1172C140.853 40.2545 140.973 40.3693 141.12 40.4616C141.267 40.5516 141.421 40.6262 141.582 40.6854C141.743 40.7422 141.891 40.7884 142.026 40.8239L142.764 41.0227C142.954 41.0724 143.164 41.1411 143.396 41.2287C143.631 41.3163 143.854 41.4358 144.067 41.5874C144.283 41.7365 144.46 41.9283 144.6 42.1626C144.74 42.397 144.81 42.6847 144.81 43.0256C144.81 43.4186 144.707 43.7737 144.501 44.0909C144.297 44.4081 143.999 44.6603 143.606 44.8473C143.215 45.0343 142.741 45.1278 142.182 45.1278C141.661 45.1278 141.21 45.0438 140.829 44.8757C140.45 44.7076 140.152 44.4732 139.934 44.1726C139.719 43.8719 139.597 43.5227 139.568 43.125H140.477C140.501 43.3996 140.593 43.6269 140.754 43.8068C140.918 43.9844 141.124 44.117 141.372 44.2045C141.623 44.2898 141.893 44.3324 142.182 44.3324C142.518 44.3324 142.82 44.2779 143.087 44.169C143.355 44.0578 143.567 43.9039 143.723 43.7074C143.879 43.5085 143.957 43.2765 143.957 43.0114C143.957 42.7699 143.89 42.5734 143.755 42.4219C143.62 42.2704 143.442 42.1473 143.222 42.0526C143.002 41.9579 142.764 41.875 142.509 41.804L141.614 41.5483C141.045 41.3849 140.596 41.1518 140.264 40.8487C139.933 40.5457 139.767 40.1491 139.767 39.6591C139.767 39.2519 139.877 38.8968 140.097 38.5938C140.32 38.2884 140.618 38.0516 140.992 37.8835C141.369 37.7131 141.789 37.6278 142.253 37.6278C142.722 37.6278 143.138 37.7119 143.503 37.88C143.867 38.0457 144.156 38.273 144.369 38.5618C144.585 38.8506 144.698 39.1785 144.71 39.5455H143.858ZM149.581 42.7699V39.5455H150.42V45H149.581V44.0767H149.525C149.397 44.3537 149.198 44.5893 148.928 44.7834C148.658 44.9751 148.317 45.071 147.905 45.071C147.564 45.071 147.261 44.9964 146.996 44.8473C146.731 44.6958 146.523 44.4685 146.371 44.1655C146.22 43.8601 146.144 43.4754 146.144 43.0114V39.5455H146.982V42.9545C146.982 43.3523 147.093 43.6695 147.316 43.9062C147.541 44.143 147.827 44.2614 148.175 44.2614C148.384 44.2614 148.595 44.2081 148.811 44.1016C149.029 43.995 149.211 43.8317 149.358 43.6115C149.507 43.3913 149.581 43.1108 149.581 42.7699ZM152.068 45V37.7273H152.906V40.4119H152.977C153.039 40.3172 153.124 40.1965 153.233 40.0497C153.344 39.9006 153.503 39.768 153.709 39.652C153.917 39.5336 154.199 39.4744 154.554 39.4744C155.013 39.4744 155.418 39.5893 155.768 39.8189C156.119 40.0485 156.392 40.3741 156.589 40.7955C156.785 41.2169 156.884 41.714 156.884 42.2869C156.884 42.8646 156.785 43.3653 156.589 43.7891C156.392 44.2105 156.12 44.5372 155.772 44.7692C155.424 44.9988 155.023 45.1136 154.568 45.1136C154.218 45.1136 153.937 45.0556 153.727 44.9396C153.516 44.8213 153.354 44.6875 153.24 44.5384C153.126 44.3868 153.039 44.2614 152.977 44.1619H152.878V45H152.068ZM152.892 42.2727C152.892 42.6847 152.952 43.0481 153.073 43.3629C153.194 43.6754 153.37 43.9205 153.602 44.098C153.834 44.2732 154.118 44.3608 154.455 44.3608C154.805 44.3608 155.097 44.2685 155.332 44.0838C155.568 43.8968 155.746 43.6458 155.864 43.331C155.985 43.0137 156.045 42.661 156.045 42.2727C156.045 41.8892 155.986 41.5436 155.868 41.2358C155.752 40.9257 155.576 40.6806 155.339 40.5007C155.104 40.3184 154.81 40.2273 154.455 40.2273C154.114 40.2273 153.827 40.3137 153.595 40.4865C153.363 40.657 153.188 40.8961 153.07 41.2038C152.951 41.5092 152.892 41.8655 152.892 42.2727ZM162.256 39.5455C162.214 39.1856 162.041 38.9062 161.738 38.7074C161.435 38.5085 161.063 38.4091 160.623 38.4091C160.301 38.4091 160.019 38.4612 159.778 38.5653C159.539 38.6695 159.352 38.8127 159.217 38.995C159.084 39.1773 159.018 39.3845 159.018 39.6165C159.018 39.8106 159.064 39.9775 159.156 40.1172C159.251 40.2545 159.372 40.3693 159.518 40.4616C159.665 40.5516 159.819 40.6262 159.98 40.6854C160.141 40.7422 160.289 40.7884 160.424 40.8239L161.163 41.0227C161.352 41.0724 161.563 41.1411 161.795 41.2287C162.029 41.3163 162.253 41.4358 162.466 41.5874C162.681 41.7365 162.859 41.9283 162.999 42.1626C163.138 42.397 163.208 42.6847 163.208 43.0256C163.208 43.4186 163.105 43.7737 162.899 44.0909C162.696 44.4081 162.397 44.6603 162.004 44.8473C161.614 45.0343 161.139 45.1278 160.58 45.1278C160.059 45.1278 159.608 45.0438 159.227 44.8757C158.848 44.7076 158.55 44.4732 158.332 44.1726C158.117 43.8719 157.995 43.5227 157.967 43.125H158.876C158.899 43.3996 158.992 43.6269 159.153 43.8068C159.316 43.9844 159.522 44.117 159.771 44.2045C160.022 44.2898 160.291 44.3324 160.58 44.3324C160.916 44.3324 161.218 44.2779 161.486 44.169C161.753 44.0578 161.965 43.9039 162.121 43.7074C162.278 43.5085 162.356 43.2765 162.356 43.0114C162.356 42.7699 162.288 42.5734 162.153 42.4219C162.018 42.2704 161.841 42.1473 161.621 42.0526C161.401 41.9579 161.163 41.875 160.907 41.804L160.012 41.5483C159.444 41.3849 158.994 41.1518 158.663 40.8487C158.331 40.5457 158.165 40.1491 158.165 39.6591C158.165 39.2519 158.276 38.8968 158.496 38.5938C158.718 38.2884 159.017 38.0516 159.391 37.8835C159.767 37.7131 160.187 37.6278 160.651 37.6278C161.12 37.6278 161.537 37.7119 161.901 37.88C162.266 38.0457 162.555 38.273 162.768 38.5618C162.983 38.8506 163.097 39.1785 163.109 39.5455H162.256ZM168.264 47.0455V44.1619H168.193C168.131 44.2614 168.044 44.3868 167.93 44.5384C167.817 44.6875 167.654 44.8213 167.444 44.9396C167.233 45.0556 166.952 45.1136 166.602 45.1136C166.148 45.1136 165.746 44.9988 165.398 44.7692C165.05 44.5372 164.778 44.2105 164.581 43.7891C164.385 43.3653 164.287 42.8646 164.287 42.2869C164.287 41.714 164.385 41.2169 164.581 40.7955C164.778 40.3741 165.051 40.0485 165.402 39.8189C165.752 39.5893 166.157 39.4744 166.616 39.4744C166.971 39.4744 167.252 39.5336 167.458 39.652C167.666 39.768 167.825 39.9006 167.934 40.0497C168.045 40.1965 168.131 40.3172 168.193 40.4119H168.292V39.5455H169.102V47.0455H168.264ZM166.716 44.3608C167.052 44.3608 167.336 44.2732 167.568 44.098C167.8 43.9205 167.976 43.6754 168.097 43.3629C168.218 43.0481 168.278 42.6847 168.278 42.2727C168.278 41.8655 168.219 41.5092 168.101 41.2038C167.982 40.8961 167.807 40.657 167.575 40.4865C167.343 40.3137 167.057 40.2273 166.716 40.2273C166.361 40.2273 166.065 40.3184 165.828 40.5007C165.594 40.6806 165.417 40.9257 165.299 41.2358C165.183 41.5436 165.125 41.8892 165.125 42.2727C165.125 42.661 165.184 43.0137 165.302 43.331C165.423 43.6458 165.601 43.8968 165.835 44.0838C166.072 44.2685 166.365 44.3608 166.716 44.3608ZM174.074 42.7699V39.5455H174.912V45H174.074V44.0767H174.017C173.889 44.3537 173.69 44.5893 173.42 44.7834C173.15 44.9751 172.809 45.071 172.398 45.071C172.057 45.071 171.754 44.9964 171.488 44.8473C171.223 44.6958 171.015 44.4685 170.863 44.1655C170.712 43.8601 170.636 43.4754 170.636 43.0114V39.5455H171.474V42.9545C171.474 43.3523 171.586 43.6695 171.808 43.9062C172.033 44.143 172.319 44.2614 172.667 44.2614C172.876 44.2614 173.088 44.2081 173.303 44.1016C173.521 43.995 173.703 43.8317 173.85 43.6115C173.999 43.3913 174.074 43.1108 174.074 42.7699ZM178.052 45.1278C177.706 45.1278 177.393 45.0627 177.111 44.9325C176.829 44.8 176.605 44.6094 176.44 44.3608C176.274 44.1098 176.191 43.8068 176.191 43.4517C176.191 43.1392 176.253 42.8859 176.376 42.6918C176.499 42.4953 176.663 42.3414 176.869 42.2301C177.075 42.1188 177.303 42.036 177.551 41.9815C177.802 41.9247 178.054 41.8797 178.308 41.8466C178.639 41.804 178.908 41.772 179.114 41.7507C179.322 41.727 179.473 41.688 179.568 41.6335C179.665 41.5791 179.714 41.4844 179.714 41.3494V41.321C179.714 40.9706 179.618 40.6984 179.426 40.5043C179.237 40.3101 178.949 40.2131 178.563 40.2131C178.163 40.2131 177.849 40.3007 177.622 40.4759C177.395 40.651 177.235 40.8381 177.143 41.0369L176.347 40.7528C176.489 40.4214 176.679 40.1634 176.915 39.9787C177.155 39.7917 177.415 39.6615 177.697 39.5881C177.981 39.5123 178.26 39.4744 178.535 39.4744C178.71 39.4744 178.911 39.4957 179.138 39.5384C179.368 39.5786 179.589 39.6626 179.803 39.7905C180.018 39.9183 180.197 40.1113 180.339 40.3693C180.481 40.6274 180.552 40.973 180.552 41.4062V45H179.714V44.2614H179.671C179.614 44.3797 179.52 44.5064 179.387 44.6413C179.254 44.7763 179.078 44.8911 178.858 44.9858C178.638 45.0805 178.369 45.1278 178.052 45.1278ZM178.18 44.375C178.511 44.375 178.79 44.3099 179.018 44.1797C179.247 44.0495 179.42 43.8814 179.536 43.6754C179.655 43.4695 179.714 43.2528 179.714 43.0256V42.2585C179.678 42.3011 179.6 42.3402 179.479 42.3757C179.361 42.4089 179.224 42.4384 179.067 42.4645C178.914 42.4882 178.763 42.5095 178.616 42.5284C178.472 42.545 178.355 42.5592 178.265 42.571C178.047 42.5994 177.844 42.6456 177.654 42.7095C177.467 42.7711 177.316 42.8646 177.2 42.9901C177.086 43.1132 177.029 43.2812 177.029 43.4943C177.029 43.7855 177.137 44.0057 177.352 44.1548C177.57 44.3016 177.846 44.375 178.18 44.375ZM182.081 45V39.5455H182.891V40.3693H182.948C183.047 40.0994 183.227 39.8804 183.488 39.7124C183.748 39.5443 184.042 39.4602 184.368 39.4602C184.43 39.4602 184.507 39.4614 184.599 39.4638C184.692 39.4661 184.761 39.4697 184.809 39.4744V40.3267C184.78 40.3196 184.715 40.3089 184.613 40.2947C184.514 40.2782 184.409 40.2699 184.297 40.2699C184.032 40.2699 183.796 40.3255 183.587 40.4368C183.381 40.5457 183.218 40.6972 183.097 40.8913C182.979 41.0831 182.92 41.3021 182.92 41.5483V45H182.081ZM187.923 45.1136C187.398 45.1136 186.944 44.9976 186.563 44.7656C186.184 44.5312 185.892 44.2045 185.686 43.7855C185.482 43.3641 185.381 42.8741 185.381 42.3153C185.381 41.7566 185.482 41.2642 185.686 40.8381C185.892 40.4096 186.178 40.0758 186.545 39.8366C186.915 39.5952 187.345 39.4744 187.838 39.4744C188.122 39.4744 188.403 39.5218 188.68 39.6165C188.956 39.7112 189.209 39.8651 189.436 40.0781C189.663 40.2888 189.844 40.5682 189.979 40.9162C190.114 41.2642 190.182 41.6927 190.182 42.2017V42.5568H185.977V41.8324H189.329C189.329 41.5246 189.268 41.25 189.145 41.0085C189.024 40.767 188.851 40.5765 188.626 40.4368C188.404 40.2971 188.141 40.2273 187.838 40.2273C187.504 40.2273 187.215 40.3101 186.971 40.4759C186.73 40.6392 186.544 40.8523 186.414 41.1151C186.284 41.3778 186.219 41.6596 186.219 41.9602V42.4432C186.219 42.8551 186.29 43.2043 186.432 43.4908C186.576 43.7749 186.776 43.9915 187.032 44.1406C187.287 44.2874 187.585 44.3608 187.923 44.3608C188.143 44.3608 188.342 44.33 188.52 44.2685C188.7 44.2045 188.855 44.1098 188.985 43.9844C189.115 43.8565 189.216 43.6979 189.287 43.5085L190.096 43.7358C190.011 44.0104 189.868 44.2519 189.667 44.4602C189.465 44.6662 189.217 44.8272 188.921 44.9432C188.625 45.0568 188.292 45.1136 187.923 45.1136Z" fill="#9DA9BB"/>
<defs>
<linearGradient id="paint0_linear_7032_48247" x1="36.8357" y1="39.4491" x2="70.3103" y2="39.4491" gradientUnits="userSpaceOnUse">
<stop stop-color="#00AEEF"/>
<stop offset="0.1024" stop-color="#169CE2"/>
<stop offset="0.4145" stop-color="#546ABD"/>
<stop offset="0.6789" stop-color="#8246A3"/>
<stop offset="0.8822" stop-color="#9E2F92"/>
<stop offset="1" stop-color="#A8278C"/>
</linearGradient>
<linearGradient id="paint1_linear_7032_48247" x1="36.8357" y1="39.4493" x2="70.3102" y2="39.4493" gradientUnits="userSpaceOnUse">
<stop stop-color="#00AEEF"/>
<stop offset="0.1024" stop-color="#169CE2"/>
<stop offset="0.4145" stop-color="#546ABD"/>
<stop offset="0.6789" stop-color="#8246A3"/>
<stop offset="0.8822" stop-color="#9E2F92"/>
<stop offset="1" stop-color="#A8278C"/>
</linearGradient>
<linearGradient id="paint2_linear_7032_48247" x1="36.8357" y1="39.4493" x2="70.3103" y2="39.4493" gradientUnits="userSpaceOnUse">
<stop stop-color="#00AEEF"/>
<stop offset="0.1024" stop-color="#169CE2"/>
<stop offset="0.4145" stop-color="#546ABD"/>
<stop offset="0.6789" stop-color="#8246A3"/>
<stop offset="0.8822" stop-color="#9E2F92"/>
<stop offset="1" stop-color="#A8278C"/>
</linearGradient>
<linearGradient id="paint3_linear_7032_48247" x1="36.8356" y1="39.4493" x2="70.3102" y2="39.4493" gradientUnits="userSpaceOnUse">
<stop stop-color="#00AEEF"/>
<stop offset="0.1024" stop-color="#169CE2"/>
<stop offset="0.4145" stop-color="#546ABD"/>
<stop offset="0.6789" stop-color="#8246A3"/>
<stop offset="0.8822" stop-color="#9E2F92"/>
<stop offset="1" stop-color="#A8278C"/>
</linearGradient>
<linearGradient id="paint4_linear_7032_48247" x1="36.8355" y1="39.4522" x2="70.3101" y2="39.4522" gradientUnits="userSpaceOnUse">
<stop stop-color="#00AEEF"/>
<stop offset="0.1024" stop-color="#169CE2"/>
<stop offset="0.4145" stop-color="#546ABD"/>
<stop offset="0.6789" stop-color="#8246A3"/>
<stop offset="0.8822" stop-color="#9E2F92"/>
<stop offset="1" stop-color="#A8278C"/>
</linearGradient>
<linearGradient id="paint5_linear_7032_48247" x1="36.8356" y1="39.4494" x2="70.3102" y2="39.4494" gradientUnits="userSpaceOnUse">
<stop stop-color="#00AEEF"/>
<stop offset="0.1024" stop-color="#169CE2"/>
<stop offset="0.4145" stop-color="#546ABD"/>
<stop offset="0.6789" stop-color="#8246A3"/>
<stop offset="0.8822" stop-color="#9E2F92"/>
<stop offset="1" stop-color="#A8278C"/>
</linearGradient>
<linearGradient id="paint6_linear_7032_48247" x1="36.8355" y1="39.4493" x2="70.31" y2="39.4493" gradientUnits="userSpaceOnUse">
<stop stop-color="#00AEEF"/>
<stop offset="0.1024" stop-color="#169CE2"/>
<stop offset="0.4145" stop-color="#546ABD"/>
<stop offset="0.6789" stop-color="#8246A3"/>
<stop offset="0.8822" stop-color="#9E2F92"/>
<stop offset="1" stop-color="#A8278C"/>
</linearGradient>
<linearGradient id="paint7_linear_7032_48247" x1="0" y1="17" x2="28.0358" y2="45.239" gradientUnits="userSpaceOnUse">
<stop stop-color="#00D2D3"/>
<stop offset="1" stop-color="#C70CBA"/>
</linearGradient>
</defs>
</svg>
