<svg width="161" height="64" viewBox="0 0 161 64" fill="none" xmlns="http://www.w3.org/2000/svg">
    <path d="M6.8 25.05C8.44156 25.05 9.775 23.7165 9.775 22.075C9.775 20.4334 8.44156 19.1 6.8 19.1C5.15844 19.1 3.825 20.4334 3.825 22.075C3.825 23.7165 5.15844 25.05 6.8 25.05Z"
          fill="white"/>
    <path fill-rule="evenodd" clip-rule="evenodd"
          d="M8.5 33.55C8.5 31.2762 9.49344 29.2309 11.0713 27.8337V27.8284C10.1044 27.1484 8.925 26.75 7.65 26.75H5.95C2.66156 26.75 0 29.4115 0 32.7C0 35.0747 1.39188 37.12 3.4 38.0762V39.5C3.4 40.4403 4.15969 41.2 5.1 41.2H8.5C9.44031 41.2 10.2 40.4403 10.2 39.5V38.3578C9.1375 37.0456 8.5 35.3722 8.5 33.55ZM2.55 32.7C2.55 31.8394 2.86875 31.0478 3.4 30.4528V34.9472C2.86875 34.3522 2.55 33.5606 2.55 32.7Z"
          fill="white"/>
    <path d="M25.372 34.9506C26.3265 34.2047 27.528 33.7602 28.8333 33.7602C29.4505 33.7602 30.0444 33.8596 30.6 34.0432V30.4581C31.1313 31.0531 31.45 31.8447 31.45 32.7053C31.45 33.2536 31.3206 33.7717 31.0893 34.2308C31.889 34.5812 32.5916 35.1123 33.1454 35.7724C33.6876 34.876 34 33.8249 34 32.7C34 29.4115 31.3384 26.75 28.05 26.75H26.35C25.075 26.75 23.8956 27.1484 22.9288 27.8284C24.5066 29.2309 25.5 31.2762 25.5 33.55C25.5 34.0284 25.4561 34.4966 25.372 34.9506Z"
          fill="white"/>
    <path d="M27.2 25.05C28.8416 25.05 30.175 23.7165 30.175 22.075C30.175 20.4334 28.8416 19.1 27.2 19.1C25.5584 19.1 24.225 20.4334 24.225 22.075C24.225 23.7165 25.5584 25.05 27.2 25.05Z"
          fill="white"/>
    <path d="M13.6 22.5C13.6 24.3753 15.1247 25.9 17 25.9C18.8753 25.9 20.4 24.3753 20.4 22.5C20.4 20.6247 18.8753 19.1 17 19.1C15.1247 19.1 13.6 20.6247 13.6 22.5Z"
          fill="white"/>
    <path fill-rule="evenodd" clip-rule="evenodd"
          d="M20.4 38.9262C22.4081 37.97 23.8 35.9247 23.8 33.55C23.8 30.2615 21.1384 27.6 17.85 27.6H16.15C12.8616 27.6 10.2 30.2615 10.2 33.55C10.2 35.9247 11.5919 37.97 13.6 38.9262V41.2C13.6 42.1403 14.3597 42.9 15.3 42.9H18.7C19.6403 42.9 20.4 42.1403 20.4 41.2V38.9262ZM13.6 35.7972C13.0688 35.1969 12.75 34.4106 12.75 33.55C12.75 32.6894 13.0688 31.9031 13.6 31.3028V35.7972ZM20.4 35.8025V31.3081C20.9313 31.9031 21.25 32.6947 21.25 33.5553C21.25 34.4159 20.9313 35.2022 20.4 35.8025Z"
          fill="white"/>
    <path d="M28.8323 43.8166C31.2789 43.8166 33.2623 41.8332 33.2623 39.3866C33.2623 36.94 31.2789 34.9567 28.8323 34.9567C26.3857 34.9567 24.4023 36.94 24.4023 39.3866C24.4023 41.8332 26.3857 43.8166 28.8323 43.8166Z"
          fill="#E6007A"/>
    <path d="M28.8323 43.8166C31.2789 43.8166 33.2623 41.8332 33.2623 39.3866C33.2623 36.94 31.2789 34.9567 28.8323 34.9567C26.3857 34.9567 24.4023 36.94 24.4023 39.3866C24.4023 41.8332 26.3857 43.8166 28.8323 43.8166Z"
          fill="url(#paint0_linear_12890_62686)"/>
    <path fill-rule="evenodd" clip-rule="evenodd"
          d="M24.4138 39.6984C24.4166 39.739 24.4199 39.7794 24.4239 39.8197C24.4283 39.8654 24.4334 39.9108 24.4392 39.956C24.4952 40.3927 24.6149 40.8096 24.7885 41.1969C24.78 41.1507 24.7706 41.1053 24.761 41.061C24.7412 40.9672 24.7116 40.8566 24.6794 40.736C24.614 40.4915 24.5378 40.2063 24.5107 39.939C24.5558 39.9287 24.601 39.9191 24.6464 39.9102C25.5243 40.7114 26.3909 41.525 27.2462 42.3507C27.1356 42.6931 27.0186 43.0334 26.8954 43.3716C26.9373 43.392 26.9797 43.4118 27.0224 43.431C27.1402 43.1092 27.2524 42.7854 27.3589 42.4597C27.5249 42.6203 27.6903 42.7813 27.8554 42.9428C28.1512 43.2324 28.4456 43.5233 28.7386 43.8157C28.77 43.8163 28.8014 43.8166 28.8329 43.8166C28.8695 43.8166 28.9061 43.8162 28.9425 43.8153C28.4352 43.3087 27.9237 42.8062 27.4081 42.3079C27.5786 41.7772 27.7341 41.2417 27.8743 40.7025C28.1823 41.5609 28.7409 42.2948 29.6733 42.6011C30.3453 42.8222 31.076 42.8079 31.7707 42.7025C31.8269 42.6526 31.8819 42.6013 31.9355 42.5487C31.6183 42.5995 31.3002 42.6295 30.9853 42.6367C30.2477 42.6533 29.4747 42.5086 28.8932 42.0245C28.4387 41.6472 28.1463 41.1203 27.9642 40.5615C27.9768 40.5667 27.9894 40.5719 28.002 40.5769C28.6142 40.8214 29.2359 40.7478 29.7631 40.3467C30.0948 40.0942 30.3362 39.7859 30.5315 39.4485C30.9618 39.4514 31.3922 39.4459 31.8223 39.432C31.671 39.8003 31.5321 40.2014 31.7299 40.5484C31.8173 40.7 31.943 40.828 32.0651 40.9524C32.0884 40.976 32.1115 40.9996 32.1341 41.0231C32.3114 41.2074 32.4887 41.3898 32.6727 41.567C32.6401 41.6319 32.607 41.6966 32.5735 41.7611C32.6117 41.7009 32.6486 41.6398 32.684 41.5778C32.7086 41.5346 32.7325 41.491 32.7557 41.4469C32.7691 41.4213 32.7823 41.3956 32.7953 41.3698C32.8491 41.2624 32.8987 41.1526 32.9439 41.0405C32.9721 40.9705 32.9985 40.8996 33.0232 40.8279C32.9971 40.8865 32.9707 40.9449 32.9439 41.0032C32.9451 40.4543 32.987 39.907 33.0819 39.3673C33.1422 39.363 33.2025 39.3586 33.2628 39.354C33.2624 39.3074 33.2614 39.2609 33.2596 39.2146C33.2091 39.2184 33.1585 39.2221 33.108 39.2257C33.1392 39.0643 33.1753 38.9037 33.2166 38.744C33.2003 38.6319 33.1798 38.5212 33.1553 38.412C33.074 38.683 33.0076 38.958 32.9549 39.2362C32.6488 39.2564 32.3424 39.2724 32.0358 39.2841C32.3029 38.5355 32.5424 37.7681 32.5498 36.9754C32.5032 36.9037 32.4546 36.8335 32.404 36.7647C32.4112 36.9097 32.4102 37.0546 32.4013 37.1977C32.3611 37.8289 32.1885 38.4436 31.9804 39.0368C31.9524 39.1176 31.9178 39.2023 31.8815 39.2896C31.4577 39.3037 31.0336 39.3097 30.6096 39.3075C30.7778 38.9911 30.9123 38.6532 31.0471 38.3145C31.2476 37.8106 31.4488 37.305 31.763 36.8655C31.7948 36.821 31.8277 36.7782 31.8617 36.7369C32.0263 36.725 32.1909 36.7127 32.3555 36.7C32.3209 36.6547 32.2854 36.6101 32.2491 36.5662C32.1653 36.5726 32.0814 36.5789 31.9975 36.585C32.0451 36.536 32.0943 36.4893 32.1449 36.4446C32.1157 36.4118 32.0861 36.3794 32.056 36.3475C32.0489 36.354 32.0419 36.3606 32.0349 36.3672C31.9575 36.4399 31.8853 36.5172 31.8178 36.5981C30.8746 36.6656 29.9298 36.7189 28.9844 36.7535C28.9804 36.6062 28.9616 36.4626 28.9239 36.3268C28.8788 36.1662 28.8004 36.0377 28.6987 35.9386C28.728 35.6119 28.752 35.2847 28.7705 34.9572C28.7222 34.9578 28.6741 34.9593 28.6263 34.9615C28.6098 35.252 28.589 35.5422 28.5639 35.832C28.4648 35.7689 28.3526 35.7254 28.2331 35.7C28.238 35.6874 28.2429 35.6749 28.2478 35.6624C28.3418 35.4243 28.4479 35.192 28.5646 34.9647C28.5094 34.968 28.4545 34.9723 28.3998 34.9776C28.2866 35.2065 28.1842 35.4405 28.0929 35.6786C28.0053 35.6702 27.9152 35.6706 27.8247 35.679C27.3158 35.7269 26.8304 35.9459 26.3628 36.1568C26.3173 36.1773 26.2721 36.1978 26.227 36.218C26.192 36.1057 26.1583 35.993 26.1256 35.88C26.0841 35.9121 26.0431 35.9449 26.0028 35.9785C26.0322 36.0782 26.0624 36.1777 26.0936 36.277C25.8612 36.3784 25.6295 36.4823 25.3987 36.5881C25.3469 36.6516 25.2969 36.7165 25.2487 36.7828C25.2347 36.802 25.2208 36.8214 25.2071 36.8408C25.1884 36.8674 25.17 36.8942 25.1519 36.9211C25.5405 36.9311 25.9292 36.9369 26.3179 36.9388C26.4251 37.2323 26.5422 37.5229 26.6711 37.81C26.8105 38.1232 26.9642 38.4293 27.1344 38.7259C27.2235 38.8829 27.328 39.0497 27.4855 39.1367C26.9144 39.0746 26.3451 38.9987 25.7741 38.9226C25.7036 38.9132 25.633 38.9038 25.5624 38.8944C25.2149 38.8493 24.8319 38.8517 24.5743 39.1294C24.4886 39.2206 24.4347 39.3285 24.4033 39.4438C24.4035 39.4607 24.4038 39.4777 24.4042 39.4946C24.4059 39.5629 24.4091 39.6308 24.4138 39.6984ZM24.5007 39.7774C24.5008 39.7853 24.501 39.7933 24.5013 39.8013C24.5081 39.7997 24.515 39.7982 24.5218 39.7966C24.5148 39.7902 24.5077 39.7838 24.5007 39.7774ZM24.6969 39.7609C24.6346 39.7041 24.5722 39.6472 24.5098 39.5905C24.5488 39.2811 24.7159 39.0462 25.1416 39.0131C25.3349 38.9971 25.5316 39.03 25.7232 39.062C25.7588 39.068 25.7943 39.0739 25.8295 39.0795C26.0895 39.1199 26.3496 39.1555 26.6096 39.1887C26.9319 39.23 27.255 39.2662 27.5791 39.2973C27.6083 39.6298 27.6626 39.9669 27.7482 40.2936C27.6937 40.268 27.6396 40.2422 27.5856 40.2164C27.2321 40.0479 26.8844 39.8822 26.4938 39.7914C25.9106 39.6573 25.2937 39.6509 24.6969 39.7609ZM24.8258 39.8788C25.6588 40.6414 26.482 41.4148 27.2949 42.1986C27.4749 41.6312 27.6375 41.0585 27.7827 40.4814C27.6872 40.4369 27.5929 40.3899 27.4985 40.3429C27.3273 40.2576 27.1562 40.1723 26.9784 40.1023C26.6663 39.9789 26.3378 39.8982 26.0068 39.8579C25.6151 39.8106 25.2166 39.8185 24.8258 39.8788ZM27.8571 40.179C27.9242 39.8998 27.9873 39.6195 28.0462 39.3385C27.9349 39.3295 27.8237 39.3199 27.7125 39.3098C27.7414 39.6032 27.7892 39.8939 27.8571 40.179ZM27.8822 39.1774C27.9467 39.1836 28.0113 39.1896 28.0758 39.1954C28.0845 39.153 28.0931 39.1106 28.1015 39.0682C28.0338 39.1178 27.9608 39.1558 27.8822 39.1774ZM28.2822 38.897C28.2623 39.0007 28.2417 39.1043 28.2206 39.2078C28.3697 39.2203 28.519 39.2314 28.6686 39.2409C29.2728 39.2793 29.8783 39.3013 30.4839 39.3067C30.6791 38.9571 30.8301 38.5752 30.979 38.1987C31.0539 38.0092 31.1282 37.821 31.2074 37.6391C31.3432 37.3285 31.5 37.0222 31.7005 36.7483C31.2408 36.7806 30.781 36.8096 30.321 36.8346C29.8757 36.8587 29.4299 36.879 28.9839 36.8952C28.9689 37.3347 28.8361 37.7945 28.6875 38.1683C28.6017 38.383 28.4688 38.6778 28.2822 38.897ZM28.8298 36.9006C28.8233 37.0709 28.7996 37.2412 28.7702 37.3947C28.7135 37.6913 28.6237 37.9832 28.5008 38.2585C28.4561 38.3592 28.4043 38.4708 28.3419 38.578C28.4423 38.0241 28.5269 37.4672 28.5956 36.9082C28.6737 36.9058 28.7517 36.9033 28.8298 36.9006ZM28.8309 36.7589C28.8255 36.5343 28.7839 36.3179 28.679 36.1493C28.6591 36.3551 28.637 36.5607 28.6128 36.7661C28.6855 36.7638 28.7582 36.7614 28.8309 36.7589ZM28.4674 36.7705C28.4981 36.5126 28.5254 36.2543 28.5492 35.9957C28.4566 35.915 28.3367 35.8574 28.1833 35.832C28.0696 36.141 27.9734 36.4598 27.8964 36.7847C28.0867 36.7808 28.2771 36.776 28.4674 36.7705ZM27.755 36.7875C27.8303 36.459 27.9259 36.135 28.0409 35.818C27.5455 35.7971 27.05 36.0171 26.5947 36.2194C26.5173 36.2538 26.441 36.2876 26.3661 36.3197C26.3347 36.3332 26.3033 36.3468 26.2719 36.3604C26.319 36.5071 26.3682 36.653 26.4198 36.7982C26.8648 36.7995 27.3099 36.7958 27.755 36.7875ZM26.4708 36.9393C26.8885 36.9403 27.3062 36.9369 27.7238 36.9295C27.5797 37.6131 27.5229 38.3152 27.5593 39.0154C27.387 38.9229 27.2719 38.6974 27.1791 38.5155C27.1628 38.4835 27.1472 38.4529 27.132 38.4246C26.9784 38.1351 26.8365 37.8361 26.7065 37.5347C26.6227 37.3381 26.5444 37.1395 26.4708 36.9393ZM27.6923 39.0563C27.6484 38.3462 27.7117 37.624 27.864 36.9268C28.0594 36.9229 28.2548 36.9181 28.4501 36.9125C28.3699 37.5603 28.2681 38.2052 28.1451 38.8461C28.0556 38.9387 27.9509 39.0107 27.827 39.0439C27.7791 39.0567 27.7342 39.0603 27.6923 39.0563ZM26.2671 36.7975C26.2227 36.6717 26.1799 36.5453 26.1388 36.4184C25.867 36.5376 25.5969 36.6598 25.3279 36.7846C25.6409 36.7915 25.954 36.7958 26.2671 36.7975ZM30.4017 39.4474C29.676 39.4396 28.9504 39.4079 28.2265 39.3524C28.2148 39.3516 28.2031 39.3507 28.1913 39.3498C28.1442 39.5751 28.0945 39.7999 28.0422 40.024C28.0136 40.1456 27.9843 40.2669 27.9542 40.3882C28.4989 40.6262 29.0452 40.6591 29.5645 40.3301C29.9253 40.1017 30.1895 39.7941 30.4017 39.4474ZM31.9846 39.4264C31.957 39.5029 31.9292 39.5792 31.9014 39.6554C31.8915 39.6826 31.8816 39.7097 31.8717 39.7369C31.7985 39.9386 31.7299 40.1521 31.8032 40.3657C31.8505 40.5057 31.9474 40.6149 32.0443 40.7217C32.2027 40.8949 32.3682 41.0634 32.5336 41.2295C32.6017 41.2974 32.6705 41.365 32.74 41.4318C32.7582 41.3949 32.7762 41.358 32.7941 41.3209C32.78 40.6652 32.8198 40.0137 32.9294 39.3777C32.6147 39.3985 32.2998 39.4147 31.9846 39.4264Z"
          fill="#E6007A"/>
    <path d="M27.258 41.068H28.3264L28.667 39.8328C28.714 39.6625 28.9535 39.6626 29.0003 39.833L29.3397 41.068H30.4061L31.2238 37.9095H30.2226L29.9669 39.163C29.9298 39.345 29.6737 39.3501 29.6296 39.1696L29.3214 37.9095H28.3447L28.0445 39.1775C28.0016 39.3585 27.745 39.355 27.707 39.1728L27.6169 38.7406C27.5158 38.2563 27.0922 37.9095 26.6014 37.9095H26.4424L27.258 41.068Z"
          fill="white"/>
    <path d="M55.36 38.24C53.9333 38.24 52.64 37.9333 51.48 37.32C50.3333 36.6933 49.4267 35.8333 48.76 34.74C48.1067 33.6333 47.78 32.3867 47.78 31C47.78 29.6133 48.1067 28.3733 48.76 27.28C49.4267 26.1733 50.3333 25.3133 51.48 24.7C52.64 24.0733 53.94 23.76 55.38 23.76C56.5933 23.76 57.6867 23.9733 58.66 24.4C59.6467 24.8267 60.4733 25.44 61.14 26.24L59.06 28.16C58.1133 27.0667 56.94 26.52 55.54 26.52C54.6733 26.52 53.9 26.7133 53.22 27.1C52.54 27.4733 52.0067 28 51.62 28.68C51.2467 29.36 51.06 30.1333 51.06 31C51.06 31.8667 51.2467 32.64 51.62 33.32C52.0067 34 52.54 34.5333 53.22 34.92C53.9 35.2933 54.6733 35.48 55.54 35.48C56.94 35.48 58.1133 34.9267 59.06 33.82L61.14 35.74C60.4733 36.5533 59.6467 37.1733 58.66 37.6C57.6733 38.0267 56.5733 38.24 55.36 38.24ZM67.8569 38.16C66.7235 38.16 65.7035 37.9267 64.7969 37.46C63.9035 36.98 63.2035 36.32 62.6969 35.48C62.1902 34.64 61.9369 33.6867 61.9369 32.62C61.9369 31.5533 62.1902 30.6 62.6969 29.76C63.2035 28.92 63.9035 28.2667 64.7969 27.8C65.7035 27.32 66.7235 27.08 67.8569 27.08C68.9902 27.08 70.0035 27.32 70.8969 27.8C71.7902 28.2667 72.4902 28.92 72.9969 29.76C73.5035 30.6 73.7569 31.5533 73.7569 32.62C73.7569 33.6867 73.5035 34.64 72.9969 35.48C72.4902 36.32 71.7902 36.98 70.8969 37.46C70.0035 37.9267 68.9902 38.16 67.8569 38.16ZM67.8569 35.6C68.6569 35.6 69.3102 35.3333 69.8169 34.8C70.3369 34.2533 70.5969 33.5267 70.5969 32.62C70.5969 31.7133 70.3369 30.9933 69.8169 30.46C69.3102 29.9133 68.6569 29.64 67.8569 29.64C67.0569 29.64 66.3969 29.9133 65.8769 30.46C65.3569 30.9933 65.0969 31.7133 65.0969 32.62C65.0969 33.5267 65.3569 34.2533 65.8769 34.8C66.3969 35.3333 67.0569 35.6 67.8569 35.6ZM75.8423 23.16H78.9623V38H75.8423V23.16ZM81.858 23.16H84.978V38H81.858V23.16ZM98.4136 32.66C98.4136 32.7 98.3936 32.98 98.3536 33.5H90.2136C90.3603 34.1667 90.7069 34.6933 91.2536 35.08C91.8003 35.4667 92.4803 35.66 93.2936 35.66C93.8536 35.66 94.3469 35.58 94.7736 35.42C95.2136 35.2467 95.6203 34.98 95.9936 34.62L97.6536 36.42C96.6403 37.58 95.1603 38.16 93.2136 38.16C92.0003 38.16 90.9269 37.9267 89.9936 37.46C89.0603 36.98 88.3403 36.32 87.8336 35.48C87.3269 34.64 87.0736 33.6867 87.0736 32.62C87.0736 31.5667 87.3203 30.62 87.8136 29.78C88.3203 28.9267 89.0069 28.2667 89.8736 27.8C90.7536 27.32 91.7336 27.08 92.8136 27.08C93.8669 27.08 94.8203 27.3067 95.6736 27.76C96.5269 28.2133 97.1936 28.8667 97.6736 29.72C98.1669 30.56 98.4136 31.54 98.4136 32.66ZM92.8336 29.44C92.1269 29.44 91.5336 29.64 91.0536 30.04C90.5736 30.44 90.2803 30.9867 90.1736 31.68H95.4736C95.3669 31 95.0736 30.46 94.5936 30.06C94.1136 29.6467 93.5269 29.44 92.8336 29.44ZM105.691 38.16C104.544 38.16 103.511 37.9267 102.591 37.46C101.684 36.98 100.971 36.32 100.451 35.48C99.9441 34.64 99.6908 33.6867 99.6908 32.62C99.6908 31.5533 99.9441 30.6 100.451 29.76C100.971 28.92 101.684 28.2667 102.591 27.8C103.511 27.32 104.544 27.08 105.691 27.08C106.824 27.08 107.811 27.32 108.651 27.8C109.504 28.2667 110.124 28.94 110.511 29.82L108.091 31.12C107.531 30.1333 106.724 29.64 105.671 29.64C104.857 29.64 104.184 29.9067 103.651 30.44C103.117 30.9733 102.851 31.7 102.851 32.62C102.851 33.54 103.117 34.2667 103.651 34.8C104.184 35.3333 104.857 35.6 105.671 35.6C106.737 35.6 107.544 35.1067 108.091 34.12L110.511 35.44C110.124 36.2933 109.504 36.96 108.651 37.44C107.811 37.92 106.824 38.16 105.691 38.16ZM119.403 37.48C119.097 37.7067 118.717 37.88 118.263 38C117.823 38.1067 117.357 38.16 116.863 38.16C115.583 38.16 114.59 37.8333 113.883 37.18C113.19 36.5267 112.843 35.5667 112.843 34.3V29.88H111.183V27.48H112.843V24.86H115.963V27.48H118.643V29.88H115.963V34.26C115.963 34.7133 116.077 35.0667 116.303 35.32C116.543 35.56 116.877 35.68 117.303 35.68C117.797 35.68 118.217 35.5467 118.563 35.28L119.403 37.48ZM121.155 27.24H124.275V38H121.155V27.24ZM122.715 25.74C122.142 25.74 121.675 25.5733 121.315 25.24C120.955 24.9067 120.775 24.4933 120.775 24C120.775 23.5067 120.955 23.0933 121.315 22.76C121.675 22.4267 122.142 22.26 122.715 22.26C123.288 22.26 123.755 22.42 124.115 22.74C124.475 23.06 124.655 23.46 124.655 23.94C124.655 24.46 124.475 24.8933 124.115 25.24C123.755 25.5733 123.288 25.74 122.715 25.74ZM137.85 27.24L133.31 38H130.09L125.57 27.24H128.79L131.77 34.56L134.85 27.24H137.85ZM149.371 32.66C149.371 32.7 149.351 32.98 149.311 33.5H141.171C141.317 34.1667 141.664 34.6933 142.211 35.08C142.757 35.4667 143.437 35.66 144.251 35.66C144.811 35.66 145.304 35.58 145.731 35.42C146.171 35.2467 146.577 34.98 146.951 34.62L148.611 36.42C147.597 37.58 146.117 38.16 144.171 38.16C142.957 38.16 141.884 37.9267 140.951 37.46C140.017 36.98 139.297 36.32 138.791 35.48C138.284 34.64 138.031 33.6867 138.031 32.62C138.031 31.5667 138.277 30.62 138.771 29.78C139.277 28.9267 139.964 28.2667 140.831 27.8C141.711 27.32 142.691 27.08 143.771 27.08C144.824 27.08 145.777 27.3067 146.631 27.76C147.484 28.2133 148.151 28.8667 148.631 29.72C149.124 30.56 149.371 31.54 149.371 32.66ZM143.791 29.44C143.084 29.44 142.491 29.64 142.011 30.04C141.531 30.44 141.237 30.9867 141.131 31.68H146.431C146.324 31 146.031 30.46 145.551 30.06C145.071 29.6467 144.484 29.44 143.791 29.44ZM155.068 38.16C154.174 38.16 153.301 38.0533 152.448 37.84C151.594 37.6133 150.914 37.3333 150.408 37L151.448 34.76C151.928 35.0667 152.508 35.32 153.188 35.52C153.868 35.7067 154.534 35.8 155.188 35.8C156.508 35.8 157.168 35.4733 157.168 34.82C157.168 34.5133 156.988 34.2933 156.628 34.16C156.268 34.0267 155.714 33.9133 154.968 33.82C154.088 33.6867 153.361 33.5333 152.788 33.36C152.214 33.1867 151.714 32.88 151.288 32.44C150.874 32 150.668 31.3733 150.668 30.56C150.668 29.88 150.861 29.28 151.248 28.76C151.648 28.2267 152.221 27.8133 152.968 27.52C153.728 27.2267 154.621 27.08 155.648 27.08C156.408 27.08 157.161 27.1667 157.908 27.34C158.668 27.5 159.294 27.7267 159.788 28.02L158.748 30.24C157.801 29.7067 156.768 29.44 155.648 29.44C154.981 29.44 154.481 29.5333 154.148 29.72C153.814 29.9067 153.648 30.1467 153.648 30.44C153.648 30.7733 153.828 31.0067 154.188 31.14C154.548 31.2733 155.121 31.4 155.908 31.52C156.788 31.6667 157.508 31.8267 158.068 32C158.628 32.16 159.114 32.46 159.528 32.9C159.941 33.34 160.148 33.9533 160.148 34.74C160.148 35.4067 159.948 36 159.548 36.52C159.148 37.04 158.561 37.4467 157.788 37.74C157.028 38.02 156.121 38.16 155.068 38.16Z"
          fill="white"/>
    <defs>
        <linearGradient id="paint0_linear_12890_62686" x1="24.6129" y1="39.1335" x2="38.9843" y2="39.1443"
                        gradientUnits="userSpaceOnUse">
            <stop stop-color="#F79420" stop-opacity="0.92"/>
            <stop offset="1" stop-color="#C4C4C4" stop-opacity="0"/>
        </linearGradient>
    </defs>
</svg>
