<svg width="236" height="64" viewBox="0 0 236 64" fill="none" xmlns="http://www.w3.org/2000/svg">
<g clip-path="url(#clip0_13417_74879)">
<path d="M31.25 51.5L8.75 51.5C4.19365 51.5 0.5 47.8063 0.500001 43.25L0.500003 20.75C0.500003 16.1937 4.19365 12.5 8.75 12.5L31.25 12.5C35.8064 12.5 39.5 16.1937 39.5 20.75L39.5 43.25C39.5 47.8063 35.8063 51.5 31.25 51.5Z" fill="url(#paint0_linear_13417_74879)" stroke="#272A3A"/>
<path d="M11 26.75C12.4484 26.75 13.625 25.5734 13.625 24.125C13.625 22.6766 12.4484 21.5 11 21.5C9.55156 21.5 8.375 22.6766 8.375 24.125C8.375 25.5734 9.55156 26.75 11 26.75Z" fill="#1C1C26"/>
<path fill-rule="evenodd" clip-rule="evenodd" d="M12.5 34.25C12.5 32.2438 13.3766 30.4391 14.7687 29.2063V29.2016C13.9156 28.6016 12.875 28.25 11.75 28.25H10.25C7.34844 28.25 5 30.5984 5 33.5C5 35.5953 6.22812 37.4 8 38.2438V39.5C8 40.3297 8.67031 41 9.5 41H12.5C13.3297 41 14 40.3297 14 39.5V38.4922C13.0625 37.3344 12.5 35.8578 12.5 34.25ZM7.25 33.5C7.25 32.7406 7.53125 32.0422 8 31.5172V35.4828C7.53125 34.9578 7.25 34.2594 7.25 33.5Z" fill="#1C1C26"/>
<path d="M27.3871 35.4859C28.2293 34.8277 29.2894 34.4355 30.4412 34.4355C30.9857 34.4355 31.5098 34.5232 32 34.6852V31.5219C32.4687 32.0469 32.75 32.7453 32.75 33.5047C32.75 33.9885 32.6358 34.4456 32.4318 34.8507C33.1374 35.1599 33.7573 35.6285 34.2459 36.2109C34.7244 35.42 35 34.4926 35 33.5C35 30.5984 32.6516 28.25 29.75 28.25H28.25C27.125 28.25 26.0844 28.6016 25.2313 29.2016C26.6234 30.4391 27.5 32.2438 27.5 34.25C27.5 34.6721 27.4612 35.0852 27.3871 35.4859Z" fill="#1C1C26"/>
<path d="M29 26.75C30.4484 26.75 31.625 25.5734 31.625 24.125C31.625 22.6766 30.4484 21.5 29 21.5C27.5516 21.5 26.375 22.6766 26.375 24.125C26.375 25.5734 27.5516 26.75 29 26.75Z" fill="#1C1C26"/>
<path d="M17 24.5C17 26.1547 18.3453 27.5 20 27.5C21.6547 27.5 23 26.1547 23 24.5C23 22.8453 21.6547 21.5 20 21.5C18.3453 21.5 17 22.8453 17 24.5Z" fill="#1C1C26"/>
<path fill-rule="evenodd" clip-rule="evenodd" d="M23 38.9938C24.7719 38.15 26 36.3453 26 34.25C26 31.3484 23.6516 29 20.75 29H19.25C16.3484 29 14 31.3484 14 34.25C14 36.3453 15.2281 38.15 17 38.9938V41C17 41.8297 17.6703 42.5 18.5 42.5H21.5C22.3297 42.5 23 41.8297 23 41V38.9938ZM17 36.2328C16.5312 35.7031 16.25 35.0094 16.25 34.25C16.25 33.4906 16.5312 32.7969 17 32.2672V36.2328ZM23 36.2375V32.2719C23.4687 32.7969 23.75 33.4953 23.75 34.2547C23.75 35.0141 23.4687 35.7078 23 36.2375Z" fill="#1C1C26"/>
<path d="M30.44 43.3088C32.5988 43.3088 34.3488 41.5588 34.3488 39.4C34.3488 37.2412 32.5988 35.4912 30.44 35.4912C28.2813 35.4912 26.5312 37.2412 26.5312 39.4C26.5312 41.5588 28.2813 43.3088 30.44 43.3088Z" fill="#E6007A"/>
<path d="M30.44 43.3088C32.5988 43.3088 34.3488 41.5588 34.3488 39.4C34.3488 37.2412 32.5988 35.4912 30.44 35.4912C28.2813 35.4912 26.5312 37.2412 26.5312 39.4C26.5312 41.5588 28.2813 43.3088 30.44 43.3088Z" fill="url(#paint1_linear_13417_74879)"/>
<path fill-rule="evenodd" clip-rule="evenodd" d="M26.5424 39.6756C26.5449 39.7114 26.5479 39.7471 26.5513 39.7827C26.5552 39.823 26.5597 39.863 26.5649 39.903C26.6143 40.2883 26.7199 40.6561 26.8731 40.9978C26.8656 40.9571 26.8573 40.917 26.8488 40.878C26.8314 40.7952 26.8053 40.6975 26.7768 40.5912C26.7191 40.3754 26.6518 40.1238 26.6279 39.888C26.6677 39.8789 26.7076 39.8704 26.7477 39.8625C27.5223 40.5695 28.287 41.2873 29.0416 42.0159C28.944 42.318 28.8408 42.6183 28.7321 42.9167C28.7691 42.9347 28.8065 42.9522 28.8441 42.9691C28.9481 42.6852 29.0471 42.3994 29.1411 42.1121C29.2875 42.2538 29.4335 42.3959 29.5792 42.5384C29.8401 42.7939 30.0999 43.0506 30.3585 43.3085C30.3861 43.3091 30.4139 43.3094 30.4417 43.3094C30.474 43.3094 30.5062 43.309 30.5383 43.3082C30.0908 42.8612 29.6395 42.4178 29.1845 41.9781C29.3349 41.5099 29.4721 41.0374 29.5958 40.5616C29.8676 41.319 30.3605 41.9666 31.1832 42.2369C31.7761 42.432 32.4209 42.4193 33.0338 42.3263C33.0834 42.2823 33.1319 42.2371 33.1793 42.1906C32.8993 42.2355 32.6187 42.2619 32.3408 42.2683C31.69 42.2829 31.0079 42.1552 30.4948 41.728C30.0938 41.3952 29.8358 40.9303 29.6752 40.4372C29.6863 40.4418 29.6974 40.4463 29.7085 40.4508C30.2487 40.6665 30.7973 40.6015 31.2624 40.2477C31.5551 40.0249 31.7681 39.7528 31.9404 39.4551C32.3201 39.4577 32.6999 39.4529 33.0793 39.4406C32.9458 39.7656 32.8233 40.1194 32.9978 40.4257C33.0749 40.5594 33.1859 40.6724 33.2936 40.7821C33.3141 40.803 33.3345 40.8237 33.3545 40.8445C33.5109 41.0071 33.6674 41.1681 33.8297 41.3244C33.8009 41.3816 33.7717 41.4387 33.7422 41.4956C33.7759 41.4426 33.8084 41.3887 33.8397 41.3339C33.8614 41.2958 33.8825 41.2573 33.9029 41.2184C33.9148 41.1959 33.9265 41.1732 33.9379 41.1504C33.9854 41.0557 34.0292 40.9587 34.069 40.8598C34.0939 40.7981 34.1172 40.7355 34.1389 40.6723C34.1159 40.7239 34.0926 40.7755 34.069 40.8269C34.0701 40.3426 34.1071 39.8597 34.1907 39.3835C34.244 39.3797 34.2972 39.3758 34.3504 39.3718C34.3501 39.3306 34.3491 39.2896 34.3476 39.2488C34.303 39.2522 34.2584 39.2554 34.2138 39.2586C34.2414 39.1162 34.2732 38.9744 34.3096 38.8335C34.2953 38.7346 34.2772 38.6369 34.2556 38.5406C34.1838 38.7797 34.1252 39.0223 34.0787 39.2678C33.8086 39.2857 33.5382 39.2997 33.2677 39.31C33.5034 38.6495 33.7148 37.9724 33.7213 37.273C33.6801 37.2098 33.6372 37.1478 33.5926 37.0871C33.599 37.215 33.5981 37.3429 33.5902 37.4692C33.5547 38.0261 33.4025 38.5684 33.2189 39.0919C33.1941 39.1632 33.1636 39.2379 33.1316 39.3149C32.7576 39.3274 32.3835 39.3327 32.0093 39.3308C32.1578 39.0515 32.2764 38.7534 32.3953 38.4546C32.5723 38.0099 32.7498 37.5638 33.027 37.176C33.0551 37.1368 33.0842 37.099 33.1141 37.0625C33.2594 37.0521 33.4046 37.0412 33.5498 37.03C33.5193 36.99 33.488 36.9507 33.456 36.9119C33.382 36.9176 33.308 36.9231 33.2339 36.9286C33.2759 36.8853 33.3193 36.844 33.364 36.8046C33.3382 36.7757 33.3121 36.7471 33.2855 36.719C33.2793 36.7247 33.2731 36.7305 33.2669 36.7363C33.1986 36.8005 33.135 36.8687 33.0754 36.9401C32.2432 36.9997 31.4095 37.0467 30.5754 37.0772C30.5718 36.9472 30.5552 36.8205 30.522 36.7007C30.4822 36.559 30.4129 36.4456 30.3233 36.3582C30.3491 36.0699 30.3702 35.7812 30.3866 35.4922C30.344 35.4928 30.3016 35.494 30.2593 35.496C30.2448 35.7523 30.2264 36.0084 30.2043 36.2641C30.1169 36.2084 30.0179 36.1701 29.9124 36.1476C29.9167 36.1366 29.9211 36.1255 29.9254 36.1144C30.0083 35.9044 30.102 35.6994 30.2049 35.4989C30.1562 35.5018 30.1077 35.5056 30.0596 35.5102C29.9597 35.7122 29.8693 35.9187 29.7887 36.1288C29.7114 36.1214 29.6319 36.1217 29.552 36.1291C29.1031 36.1713 28.6748 36.3646 28.2621 36.5507C28.222 36.5688 28.1821 36.5868 28.1423 36.6047C28.1115 36.5056 28.0817 36.4062 28.0529 36.3065C28.0162 36.3348 27.9801 36.3638 27.9445 36.3933C27.9704 36.4814 27.9971 36.5692 28.0246 36.6567C27.8195 36.7462 27.6151 36.8379 27.4115 36.9313C27.3658 36.9873 27.3217 37.0445 27.2791 37.103C27.2667 37.12 27.2545 37.1371 27.2424 37.1542C27.226 37.1777 27.2097 37.2013 27.1937 37.2251C27.5366 37.2339 27.8795 37.239 28.2225 37.2407C28.3171 37.4997 28.4205 37.7561 28.5342 38.0094C28.6572 38.2858 28.7928 38.5559 28.943 38.8176C29.0216 38.9561 29.1138 39.1033 29.2528 39.18C28.7488 39.1253 28.2465 39.0583 27.7427 38.9911C27.6805 38.9828 27.6182 38.9745 27.5559 38.9663C27.2493 38.9265 26.9114 38.9286 26.684 39.1735C26.6085 39.2541 26.5609 39.3492 26.5332 39.451C26.5334 39.4659 26.5337 39.4809 26.534 39.4958C26.5355 39.5561 26.5383 39.616 26.5424 39.6756ZM26.6191 39.7453C26.6192 39.7523 26.6194 39.7594 26.6196 39.7664C26.6257 39.7651 26.6317 39.7637 26.6378 39.7623C26.6316 39.7567 26.6253 39.751 26.6191 39.7453ZM26.7922 39.7308C26.7373 39.6806 26.6822 39.6305 26.6272 39.5804C26.6615 39.3074 26.809 39.1002 27.1846 39.0709C27.3552 39.0568 27.5288 39.0859 27.6978 39.1142C27.7292 39.1194 27.7605 39.1247 27.7916 39.1296C28.021 39.1652 28.2505 39.1966 28.4799 39.2259C28.7643 39.2624 29.0494 39.2943 29.3353 39.3217C29.3611 39.6151 29.4091 39.9126 29.4845 40.2008C29.4365 40.1782 29.3887 40.1555 29.3411 40.1327C29.0292 39.9841 28.7224 39.8378 28.3777 39.7577C27.8631 39.6394 27.3189 39.6337 26.7922 39.7308ZM26.906 39.8348C27.641 40.5077 28.3673 41.1901 29.0846 41.8817C29.2434 41.3811 29.3869 40.8757 29.515 40.3665C29.4307 40.3273 29.3475 40.2858 29.2643 40.2443C29.1132 40.169 28.9622 40.0938 28.8053 40.032C28.53 39.9231 28.2401 39.852 27.948 39.8164C27.6025 39.7746 27.2508 39.7817 26.906 39.8348ZM29.5806 40.0997C29.6399 39.8533 29.6955 39.6061 29.7475 39.358C29.6493 39.3501 29.5511 39.3417 29.4531 39.3327C29.4786 39.5917 29.5207 39.8481 29.5806 40.0997ZM29.6028 39.216C29.6597 39.2214 29.7167 39.2267 29.7737 39.2318C29.7813 39.1944 29.7889 39.157 29.7963 39.1196C29.7366 39.1634 29.6721 39.1968 29.6028 39.216ZM29.9558 38.9685C29.9382 39.06 29.92 39.1515 29.9014 39.2428C30.0329 39.2538 30.1647 39.2635 30.2967 39.272C30.8298 39.3059 31.364 39.3252 31.8984 39.33C32.0707 39.0216 32.2039 38.6846 32.3352 38.3524C32.4013 38.1851 32.467 38.0191 32.5368 37.8586C32.6566 37.5846 32.795 37.3143 32.9719 37.0726C32.5663 37.1011 32.1606 37.1267 31.7547 37.1488C31.3617 37.17 30.9684 37.1879 30.5749 37.2022C30.5617 37.59 30.4445 37.9957 30.3134 38.3255C30.2377 38.515 30.1204 38.7751 29.9558 38.9685ZM30.4389 37.207C30.4332 37.3573 30.4123 37.5076 30.3864 37.6429C30.3363 37.9047 30.2571 38.1622 30.1486 38.4051C30.1092 38.494 30.0635 38.5925 30.0084 38.687C30.097 38.1983 30.1717 37.7069 30.2323 37.2137C30.3012 37.2116 30.37 37.2094 30.4389 37.207ZM30.4399 37.082C30.4351 36.8838 30.3984 36.6928 30.3059 36.5441C30.2883 36.7257 30.2688 36.9071 30.2474 37.0883C30.3116 37.0863 30.3757 37.0842 30.4399 37.082ZM30.1192 37.0922C30.1462 36.8646 30.1703 36.6367 30.1914 36.4085C30.1096 36.3374 30.0039 36.2865 29.8685 36.2641C29.7682 36.5367 29.6832 36.8181 29.6153 37.1048C29.7833 37.1013 29.9512 37.0971 30.1192 37.0922ZM29.4906 37.1072C29.557 36.8173 29.6413 36.5315 29.7429 36.2517C29.3057 36.2333 28.8685 36.4275 28.4668 36.6059C28.3985 36.6362 28.3312 36.6661 28.2651 36.6944C28.2374 36.7064 28.2097 36.7183 28.182 36.7303C28.2235 36.8597 28.2669 36.9885 28.3124 37.1166C28.7051 37.1178 29.0979 37.1145 29.4906 37.1072ZM28.3574 37.2412C28.726 37.242 29.0945 37.239 29.463 37.2325C29.3359 37.8357 29.2857 38.4551 29.3179 39.073C29.1659 38.9914 29.0643 38.7924 28.9825 38.6319C28.968 38.6037 28.9542 38.5767 28.9409 38.5517C28.8053 38.2962 28.6802 38.0324 28.5654 37.7665C28.4915 37.593 28.4224 37.4178 28.3574 37.2412ZM29.4352 39.1091C29.3965 38.4825 29.4524 37.8453 29.5868 37.2301C29.7592 37.2267 29.9316 37.2225 30.1039 37.2175C30.0331 37.789 29.9433 38.3581 29.8347 38.9236C29.7558 39.0053 29.6634 39.0689 29.5541 39.0982C29.5118 39.1095 29.4722 39.1126 29.4352 39.1091ZM28.1777 37.116C28.1385 37.005 28.1008 36.8935 28.0645 36.7816C27.8247 36.8867 27.5864 36.9946 27.349 37.1046C27.6252 37.1107 27.9015 37.1145 28.1777 37.116ZM31.8259 39.4541C31.1855 39.4473 30.5454 39.4194 29.9066 39.3704C29.8963 39.3696 29.8859 39.3688 29.8756 39.368C29.834 39.5668 29.7901 39.7652 29.7439 39.9629C29.7187 40.0702 29.6929 40.1773 29.6663 40.2843C30.147 40.4943 30.629 40.5233 31.0872 40.233C31.4056 40.0315 31.6387 39.76 31.8259 39.4541ZM33.2226 39.4356C33.1982 39.5032 33.1737 39.5705 33.1492 39.6377C33.1404 39.6617 33.1317 39.6856 33.123 39.7096C33.0583 39.8875 32.9978 40.076 33.0625 40.2644C33.1042 40.388 33.1897 40.4843 33.2752 40.5785C33.415 40.7314 33.561 40.88 33.707 41.0266C33.7671 41.0866 33.8277 41.1462 33.8891 41.2052C33.9051 41.1726 33.9211 41.14 33.9369 41.1073C33.9244 40.5287 33.9595 39.9538 34.0562 39.3927C33.7786 39.411 33.5007 39.4253 33.2226 39.4356Z" fill="#E6007A"/>
<path d="M29.0507 40.8829H29.9934L30.294 39.7933C30.3354 39.643 30.5467 39.6431 30.588 39.7934L30.8876 40.8829H31.8285L32.5499 38.0967H31.6665L31.4409 39.2024C31.4082 39.363 31.1823 39.3674 31.1433 39.2082L30.8714 38.0967H30.0096L29.7447 39.2151C29.7068 39.3748 29.4804 39.3717 29.4469 39.2111L29.3674 38.8298C29.2782 38.4025 28.9044 38.0967 28.4714 38.0967H28.3311L29.0507 40.8829Z" fill="white"/>
</g>
<path d="M60.36 31.24C58.9333 31.24 57.64 30.9333 56.48 30.32C55.3333 29.6933 54.4267 28.8333 53.76 27.74C53.1067 26.6333 52.78 25.3867 52.78 24C52.78 22.6133 53.1067 21.3733 53.76 20.28C54.4267 19.1733 55.3333 18.3133 56.48 17.7C57.64 17.0733 58.94 16.76 60.38 16.76C61.5933 16.76 62.6867 16.9733 63.66 17.4C64.6467 17.8267 65.4733 18.44 66.14 19.24L64.06 21.16C63.1133 20.0667 61.94 19.52 60.54 19.52C59.6733 19.52 58.9 19.7133 58.22 20.1C57.54 20.4733 57.0067 21 56.62 21.68C56.2467 22.36 56.06 23.1333 56.06 24C56.06 24.8667 56.2467 25.64 56.62 26.32C57.0067 27 57.54 27.5333 58.22 27.92C58.9 28.2933 59.6733 28.48 60.54 28.48C61.94 28.48 63.1133 27.9267 64.06 26.82L66.14 28.74C65.4733 29.5533 64.6467 30.1733 63.66 30.6C62.6733 31.0267 61.5733 31.24 60.36 31.24ZM72.8569 31.16C71.7235 31.16 70.7035 30.9267 69.7969 30.46C68.9035 29.98 68.2035 29.32 67.6969 28.48C67.1902 27.64 66.9369 26.6867 66.9369 25.62C66.9369 24.5533 67.1902 23.6 67.6969 22.76C68.2035 21.92 68.9035 21.2667 69.7969 20.8C70.7035 20.32 71.7235 20.08 72.8569 20.08C73.9902 20.08 75.0035 20.32 75.8969 20.8C76.7902 21.2667 77.4902 21.92 77.9969 22.76C78.5035 23.6 78.7569 24.5533 78.7569 25.62C78.7569 26.6867 78.5035 27.64 77.9969 28.48C77.4902 29.32 76.7902 29.98 75.8969 30.46C75.0035 30.9267 73.9902 31.16 72.8569 31.16ZM72.8569 28.6C73.6569 28.6 74.3102 28.3333 74.8169 27.8C75.3369 27.2533 75.5969 26.5267 75.5969 25.62C75.5969 24.7133 75.3369 23.9933 74.8169 23.46C74.3102 22.9133 73.6569 22.64 72.8569 22.64C72.0569 22.64 71.3969 22.9133 70.8769 23.46C70.3569 23.9933 70.0969 24.7133 70.0969 25.62C70.0969 26.5267 70.3569 27.2533 70.8769 27.8C71.3969 28.3333 72.0569 28.6 72.8569 28.6ZM80.8423 16.16H83.9623V31H80.8423V16.16ZM86.858 16.16H89.978V31H86.858V16.16ZM103.414 25.66C103.414 25.7 103.394 25.98 103.354 26.5H95.2136C95.3603 27.1667 95.7069 27.6933 96.2536 28.08C96.8003 28.4667 97.4803 28.66 98.2936 28.66C98.8536 28.66 99.3469 28.58 99.7736 28.42C100.214 28.2467 100.62 27.98 100.994 27.62L102.654 29.42C101.64 30.58 100.16 31.16 98.2136 31.16C97.0003 31.16 95.9269 30.9267 94.9936 30.46C94.0603 29.98 93.3403 29.32 92.8336 28.48C92.3269 27.64 92.0736 26.6867 92.0736 25.62C92.0736 24.5667 92.3203 23.62 92.8136 22.78C93.3203 21.9267 94.0069 21.2667 94.8736 20.8C95.7536 20.32 96.7336 20.08 97.8136 20.08C98.8669 20.08 99.8203 20.3067 100.674 20.76C101.527 21.2133 102.194 21.8667 102.674 22.72C103.167 23.56 103.414 24.54 103.414 25.66ZM97.8336 22.44C97.1269 22.44 96.5336 22.64 96.0536 23.04C95.5736 23.44 95.2803 23.9867 95.1736 24.68H100.474C100.367 24 100.074 23.46 99.5936 23.06C99.1136 22.6467 98.5269 22.44 97.8336 22.44ZM110.691 31.16C109.544 31.16 108.511 30.9267 107.591 30.46C106.684 29.98 105.971 29.32 105.451 28.48C104.944 27.64 104.691 26.6867 104.691 25.62C104.691 24.5533 104.944 23.6 105.451 22.76C105.971 21.92 106.684 21.2667 107.591 20.8C108.511 20.32 109.544 20.08 110.691 20.08C111.824 20.08 112.811 20.32 113.651 20.8C114.504 21.2667 115.124 21.94 115.511 22.82L113.091 24.12C112.531 23.1333 111.724 22.64 110.671 22.64C109.857 22.64 109.184 22.9067 108.651 23.44C108.117 23.9733 107.851 24.7 107.851 25.62C107.851 26.54 108.117 27.2667 108.651 27.8C109.184 28.3333 109.857 28.6 110.671 28.6C111.737 28.6 112.544 28.1067 113.091 27.12L115.511 28.44C115.124 29.2933 114.504 29.96 113.651 30.44C112.811 30.92 111.824 31.16 110.691 31.16ZM124.403 30.48C124.097 30.7067 123.717 30.88 123.263 31C122.823 31.1067 122.357 31.16 121.863 31.16C120.583 31.16 119.59 30.8333 118.883 30.18C118.19 29.5267 117.843 28.5667 117.843 27.3V22.88H116.183V20.48H117.843V17.86H120.963V20.48H123.643V22.88H120.963V27.26C120.963 27.7133 121.077 28.0667 121.303 28.32C121.543 28.56 121.877 28.68 122.303 28.68C122.797 28.68 123.217 28.5467 123.563 28.28L124.403 30.48ZM126.155 20.24H129.275V31H126.155V20.24ZM127.715 18.74C127.142 18.74 126.675 18.5733 126.315 18.24C125.955 17.9067 125.775 17.4933 125.775 17C125.775 16.5067 125.955 16.0933 126.315 15.76C126.675 15.4267 127.142 15.26 127.715 15.26C128.288 15.26 128.755 15.42 129.115 15.74C129.475 16.06 129.655 16.46 129.655 16.94C129.655 17.46 129.475 17.8933 129.115 18.24C128.755 18.5733 128.288 18.74 127.715 18.74ZM142.85 20.24L138.31 31H135.09L130.57 20.24H133.79L136.77 27.56L139.85 20.24H142.85ZM154.371 25.66C154.371 25.7 154.351 25.98 154.311 26.5H146.171C146.317 27.1667 146.664 27.6933 147.211 28.08C147.757 28.4667 148.437 28.66 149.251 28.66C149.811 28.66 150.304 28.58 150.731 28.42C151.171 28.2467 151.577 27.98 151.951 27.62L153.611 29.42C152.597 30.58 151.117 31.16 149.171 31.16C147.957 31.16 146.884 30.9267 145.951 30.46C145.017 29.98 144.297 29.32 143.791 28.48C143.284 27.64 143.031 26.6867 143.031 25.62C143.031 24.5667 143.277 23.62 143.771 22.78C144.277 21.9267 144.964 21.2667 145.831 20.8C146.711 20.32 147.691 20.08 148.771 20.08C149.824 20.08 150.777 20.3067 151.631 20.76C152.484 21.2133 153.151 21.8667 153.631 22.72C154.124 23.56 154.371 24.54 154.371 25.66ZM148.791 22.44C148.084 22.44 147.491 22.64 147.011 23.04C146.531 23.44 146.237 23.9867 146.131 24.68H151.431C151.324 24 151.031 23.46 150.551 23.06C150.071 22.6467 149.484 22.44 148.791 22.44ZM160.068 31.16C159.174 31.16 158.301 31.0533 157.448 30.84C156.594 30.6133 155.914 30.3333 155.408 30L156.448 27.76C156.928 28.0667 157.508 28.32 158.188 28.52C158.868 28.7067 159.534 28.8 160.188 28.8C161.508 28.8 162.168 28.4733 162.168 27.82C162.168 27.5133 161.988 27.2933 161.628 27.16C161.268 27.0267 160.714 26.9133 159.968 26.82C159.088 26.6867 158.361 26.5333 157.788 26.36C157.214 26.1867 156.714 25.88 156.288 25.44C155.874 25 155.668 24.3733 155.668 23.56C155.668 22.88 155.861 22.28 156.248 21.76C156.648 21.2267 157.221 20.8133 157.968 20.52C158.728 20.2267 159.621 20.08 160.648 20.08C161.408 20.08 162.161 20.1667 162.908 20.34C163.668 20.5 164.294 20.7267 164.788 21.02L163.748 23.24C162.801 22.7067 161.768 22.44 160.648 22.44C159.981 22.44 159.481 22.5333 159.148 22.72C158.814 22.9067 158.648 23.1467 158.648 23.44C158.648 23.7733 158.828 24.0067 159.188 24.14C159.548 24.2733 160.121 24.4 160.908 24.52C161.788 24.6667 162.508 24.8267 163.068 25C163.628 25.16 164.114 25.46 164.528 25.9C164.941 26.34 165.148 26.9533 165.148 27.74C165.148 28.4067 164.948 29 164.548 29.52C164.148 30.04 163.561 30.4467 162.788 30.74C162.028 31.02 161.121 31.16 160.068 31.16Z" fill="white"/>
<path d="M58.8651 42.0298C58.7827 41.7713 58.6719 41.5398 58.5327 41.3352C58.3963 41.1278 58.233 40.9517 58.0426 40.8068C57.8523 40.6591 57.6349 40.5469 57.3906 40.4702C57.1491 40.3935 56.8835 40.3551 56.5938 40.3551C56.1023 40.3551 55.6591 40.4815 55.2642 40.7344C54.8693 40.9872 54.5568 41.358 54.3267 41.8466C54.0994 42.3324 53.9858 42.9276 53.9858 43.6321C53.9858 44.3395 54.1009 44.9375 54.331 45.4261C54.5611 45.9148 54.8764 46.2855 55.277 46.5384C55.6776 46.7912 56.1335 46.9176 56.6449 46.9176C57.1193 46.9176 57.5327 46.821 57.8849 46.6278C58.2401 46.4347 58.5142 46.1619 58.7074 45.8097C58.9034 45.4545 59.0014 45.0369 59.0014 44.5568L59.3423 44.6207H56.8452V43.5341H60.2756V44.527C60.2756 45.2599 60.1193 45.8963 59.8068 46.4361C59.4972 46.973 59.0682 47.3878 58.5199 47.6804C57.9744 47.973 57.3494 48.1193 56.6449 48.1193C55.8551 48.1193 55.1619 47.9375 54.5653 47.5739C53.9716 47.2102 53.5085 46.6946 53.1761 46.027C52.8438 45.3565 52.6776 44.5611 52.6776 43.6406C52.6776 42.9446 52.7741 42.3196 52.9673 41.7656C53.1605 41.2116 53.4318 40.7415 53.7812 40.3551C54.1335 39.9659 54.5469 39.669 55.0213 39.4645C55.4986 39.2571 56.0199 39.1534 56.5852 39.1534C57.0568 39.1534 57.4957 39.223 57.902 39.3622C58.3111 39.5014 58.6747 39.6989 58.9929 39.9545C59.3139 40.2102 59.5795 40.5142 59.7898 40.8665C60 41.2159 60.142 41.6037 60.2159 42.0298H58.8651ZM64.6019 48.1321C63.9883 48.1321 63.4528 47.9915 62.9954 47.7102C62.538 47.429 62.1829 47.0355 61.93 46.5298C61.6772 46.0241 61.5508 45.4332 61.5508 44.7571C61.5508 44.0781 61.6772 43.4844 61.93 42.9759C62.1829 42.4673 62.538 42.0724 62.9954 41.7912C63.4528 41.5099 63.9883 41.3693 64.6019 41.3693C65.2156 41.3693 65.7511 41.5099 66.2085 41.7912C66.6658 42.0724 67.021 42.4673 67.2738 42.9759C67.5266 43.4844 67.6531 44.0781 67.6531 44.7571C67.6531 45.4332 67.5266 46.0241 67.2738 46.5298C67.021 47.0355 66.6658 47.429 66.2085 47.7102C65.7511 47.9915 65.2156 48.1321 64.6019 48.1321ZM64.6062 47.0625C65.0039 47.0625 65.3335 46.9574 65.5948 46.7472C65.8562 46.5369 66.0494 46.2571 66.1744 45.9077C66.3022 45.5582 66.3661 45.1733 66.3661 44.7528C66.3661 44.3352 66.3022 43.9517 66.1744 43.6023C66.0494 43.25 65.8562 42.9673 65.5948 42.7543C65.3335 42.5412 65.0039 42.4347 64.6062 42.4347C64.2056 42.4347 63.8732 42.5412 63.609 42.7543C63.3477 42.9673 63.1531 43.25 63.0252 43.6023C62.9002 43.9517 62.8377 44.3352 62.8377 44.7528C62.8377 45.1733 62.9002 45.5582 63.0252 45.9077C63.1531 46.2571 63.3477 46.5369 63.609 46.7472C63.8732 46.9574 64.2056 47.0625 64.6062 47.0625ZM74.4521 41.4545L72.0785 48H70.7148L68.337 41.4545H69.7049L71.3626 46.4915H71.4308L73.0842 41.4545H74.4521ZM78.2479 48.1321C77.603 48.1321 77.0476 47.9943 76.5817 47.7188C76.1186 47.4403 75.7607 47.0497 75.5078 46.5469C75.2578 46.0412 75.1328 45.4489 75.1328 44.7699C75.1328 44.0994 75.2578 43.5085 75.5078 42.9972C75.7607 42.4858 76.1129 42.0866 76.5646 41.7997C77.0192 41.5128 77.5504 41.3693 78.1584 41.3693C78.5277 41.3693 78.8857 41.4304 79.2322 41.5526C79.5788 41.6747 79.8899 41.8665 80.1655 42.1278C80.4411 42.3892 80.6584 42.7287 80.8175 43.1463C80.9766 43.5611 81.0561 44.0653 81.0561 44.6591V45.1108H75.853V44.1562H79.8075C79.8075 43.821 79.7393 43.5241 79.603 43.2656C79.4666 43.0043 79.2749 42.7983 79.0277 42.6477C78.7834 42.4972 78.4964 42.4219 78.1669 42.4219C77.8089 42.4219 77.4964 42.5099 77.2294 42.6861C76.9652 42.8594 76.7607 43.0866 76.6158 43.3679C76.4737 43.6463 76.4027 43.9489 76.4027 44.2756V45.0213C76.4027 45.4588 76.4794 45.831 76.6328 46.1378C76.7891 46.4446 77.0064 46.679 77.2848 46.8409C77.5632 47 77.8885 47.0795 78.2607 47.0795C78.5021 47.0795 78.7223 47.0455 78.9212 46.9773C79.12 46.9062 79.2919 46.8011 79.4368 46.6619C79.5817 46.5227 79.6925 46.3509 79.7692 46.1463L80.9751 46.3636C80.8786 46.7187 80.7053 47.0298 80.4553 47.2969C80.2081 47.5611 79.897 47.767 79.522 47.9148C79.1499 48.0597 78.7251 48.1321 78.2479 48.1321ZM82.4698 48V41.4545H83.7013V42.4943H83.7695C83.8888 42.142 84.0991 41.8651 84.4002 41.6634C84.7042 41.4588 85.0479 41.3565 85.4315 41.3565C85.511 41.3565 85.6048 41.3594 85.7127 41.3651C85.8235 41.3707 85.9102 41.3778 85.9727 41.3864V42.6051C85.9215 42.5909 85.8306 42.5753 85.6999 42.5582C85.5692 42.5384 85.4386 42.5284 85.3079 42.5284C85.0067 42.5284 84.7383 42.5923 84.5025 42.7202C84.2695 42.8452 84.0849 43.0199 83.9485 43.2443C83.8121 43.4659 83.744 43.7187 83.744 44.0028V48H82.4698ZM88.3494 44.1136V48H87.0753V41.4545H88.2983V42.5199H88.3793C88.5298 42.1733 88.7656 41.8949 89.0866 41.6847C89.4105 41.4744 89.8182 41.3693 90.3097 41.3693C90.7557 41.3693 91.1463 41.4631 91.4815 41.6506C91.8168 41.8352 92.0767 42.1108 92.2614 42.4773C92.446 42.8437 92.5384 43.2969 92.5384 43.8366V48H91.2642V43.9901C91.2642 43.5156 91.1406 43.1449 90.8935 42.8778C90.6463 42.608 90.3068 42.473 89.875 42.473C89.5795 42.473 89.3168 42.5369 89.0866 42.6648C88.8594 42.7926 88.679 42.9801 88.5455 43.2273C88.4148 43.4716 88.3494 43.767 88.3494 44.1136ZM96.152 48.1449C95.7372 48.1449 95.3622 48.0682 95.027 47.9148C94.6918 47.7585 94.4261 47.5327 94.2301 47.2372C94.0369 46.9418 93.9403 46.5795 93.9403 46.1506C93.9403 45.7812 94.0114 45.4773 94.1534 45.2386C94.2955 45 94.4872 44.8111 94.7287 44.6719C94.9702 44.5327 95.2401 44.4276 95.5384 44.3565C95.8366 44.2855 96.1406 44.2315 96.4503 44.1946C96.8423 44.1491 97.1605 44.1122 97.4048 44.0838C97.6491 44.0526 97.8267 44.0028 97.9375 43.9347C98.0483 43.8665 98.1037 43.7557 98.1037 43.6023V43.5724C98.1037 43.2003 97.9986 42.9119 97.7884 42.7074C97.581 42.5028 97.2713 42.4006 96.8594 42.4006C96.4304 42.4006 96.0923 42.4957 95.8452 42.6861C95.6009 42.8736 95.4318 43.0824 95.3381 43.3125L94.1406 43.0398C94.2827 42.642 94.4901 42.321 94.7628 42.0767C95.0384 41.8295 95.3551 41.6506 95.7131 41.5398C96.071 41.4261 96.4474 41.3693 96.8423 41.3693C97.1037 41.3693 97.3807 41.4006 97.6733 41.4631C97.9688 41.5227 98.2443 41.6335 98.5 41.7955C98.7585 41.9574 98.9702 42.1889 99.1349 42.4901C99.2997 42.7884 99.3821 43.1761 99.3821 43.6534V48H98.1378V47.1051H98.0866C98.0043 47.2699 97.8807 47.4318 97.7159 47.5909C97.5511 47.75 97.3395 47.8821 97.081 47.9872C96.8224 48.0923 96.5128 48.1449 96.152 48.1449ZM96.429 47.1222C96.7813 47.1222 97.0824 47.0526 97.3324 46.9134C97.5852 46.7741 97.777 46.5923 97.9077 46.3679C98.0412 46.1406 98.108 45.8977 98.108 45.6392V44.7955C98.0625 44.8409 97.9744 44.8835 97.8438 44.9233C97.7159 44.9602 97.5696 44.9929 97.4048 45.0213C97.2401 45.0469 97.0795 45.071 96.9233 45.0938C96.767 45.1136 96.6364 45.1307 96.5312 45.1449C96.2841 45.1761 96.0582 45.2287 95.8537 45.3026C95.652 45.3764 95.4901 45.483 95.3679 45.6222C95.2486 45.7585 95.1889 45.9403 95.1889 46.1676C95.1889 46.483 95.3054 46.7216 95.5384 46.8835C95.7713 47.0426 96.0682 47.1222 96.429 47.1222ZM102.353 44.1136V48H101.079V41.4545H102.302V42.5199H102.383C102.534 42.1733 102.77 41.8949 103.091 41.6847C103.414 41.4744 103.822 41.3693 104.314 41.3693C104.76 41.3693 105.15 41.4631 105.485 41.6506C105.821 41.8352 106.081 42.1108 106.265 42.4773C106.45 42.8437 106.542 43.2969 106.542 43.8366V48H105.268V43.9901C105.268 43.5156 105.145 43.1449 104.897 42.8778C104.65 42.608 104.311 42.473 103.879 42.473C103.583 42.473 103.321 42.5369 103.091 42.6648C102.863 42.7926 102.683 42.9801 102.549 43.2273C102.419 43.4716 102.353 43.767 102.353 44.1136ZM111.008 48.1321C110.375 48.1321 109.829 47.9886 109.372 47.7017C108.917 47.4119 108.568 47.0128 108.324 46.5043C108.079 45.9957 107.957 45.4134 107.957 44.7571C107.957 44.0923 108.082 43.5057 108.332 42.9972C108.582 42.4858 108.934 42.0866 109.389 41.7997C109.843 41.5128 110.379 41.3693 110.995 41.3693C111.493 41.3693 111.936 41.4616 112.325 41.6463C112.714 41.8281 113.028 42.0838 113.267 42.4134C113.508 42.7429 113.652 43.1278 113.697 43.5682H112.457C112.389 43.2614 112.233 42.9972 111.988 42.7756C111.747 42.554 111.423 42.4432 111.017 42.4432C110.662 42.4432 110.35 42.5369 110.083 42.7244C109.819 42.9091 109.613 43.1733 109.466 43.517C109.318 43.858 109.244 44.2614 109.244 44.7273C109.244 45.2045 109.316 45.6165 109.461 45.9631C109.606 46.3097 109.811 46.5781 110.075 46.7685C110.342 46.9588 110.656 47.054 111.017 47.054C111.258 47.054 111.477 47.0099 111.673 46.9219C111.872 46.831 112.038 46.7017 112.172 46.5341C112.308 46.3665 112.403 46.1648 112.457 45.929H113.697C113.652 46.3523 113.514 46.7301 113.284 47.0625C113.054 47.3949 112.745 47.6562 112.359 47.8466C111.975 48.0369 111.525 48.1321 111.008 48.1321ZM117.881 48.1321C117.236 48.1321 116.68 47.9943 116.214 47.7188C115.751 47.4403 115.393 47.0497 115.141 46.5469C114.891 46.0412 114.766 45.4489 114.766 44.7699C114.766 44.0994 114.891 43.5085 115.141 42.9972C115.393 42.4858 115.746 42.0866 116.197 41.7997C116.652 41.5128 117.183 41.3693 117.791 41.3693C118.161 41.3693 118.518 41.4304 118.865 41.5526C119.212 41.6747 119.523 41.8665 119.798 42.1278C120.074 42.3892 120.291 42.7287 120.45 43.1463C120.609 43.5611 120.689 44.0653 120.689 44.6591V45.1108H115.486V44.1562H119.44C119.44 43.821 119.372 43.5241 119.236 43.2656C119.099 43.0043 118.908 42.7983 118.661 42.6477C118.416 42.4972 118.129 42.4219 117.8 42.4219C117.442 42.4219 117.129 42.5099 116.862 42.6861C116.598 42.8594 116.393 43.0866 116.249 43.3679C116.107 43.6463 116.036 43.9489 116.036 44.2756V45.0213C116.036 45.4588 116.112 45.831 116.266 46.1378C116.422 46.4446 116.639 46.679 116.918 46.8409C117.196 47 117.521 47.0795 117.893 47.0795C118.135 47.0795 118.355 47.0455 118.554 46.9773C118.753 46.9062 118.925 46.8011 119.07 46.6619C119.214 46.5227 119.325 46.3509 119.402 46.1463L120.608 46.3636C120.511 46.7187 120.338 47.0298 120.088 47.2969C119.841 47.5611 119.53 47.767 119.155 47.9148C118.783 48.0597 118.358 48.1321 117.881 48.1321ZM125.381 48V39.2727H126.655V42.5156H126.732C126.805 42.3793 126.912 42.2216 127.051 42.0426C127.19 41.8636 127.384 41.7074 127.631 41.5739C127.878 41.4375 128.205 41.3693 128.611 41.3693C129.139 41.3693 129.611 41.5028 130.026 41.7699C130.44 42.0369 130.766 42.4219 131.001 42.9247C131.24 43.4276 131.359 44.0327 131.359 44.7401C131.359 45.4474 131.241 46.054 131.006 46.5597C130.77 47.0625 130.446 47.4503 130.034 47.723C129.622 47.9929 129.152 48.1278 128.624 48.1278C128.226 48.1278 127.901 48.0611 127.648 47.9276C127.398 47.794 127.202 47.6378 127.06 47.4588C126.918 47.2798 126.808 47.1207 126.732 46.9815H126.625V48H125.381ZM126.629 44.7273C126.629 45.1875 126.696 45.5909 126.83 45.9375C126.963 46.2841 127.156 46.5554 127.409 46.7514C127.662 46.9446 127.972 47.0412 128.338 47.0412C128.719 47.0412 129.037 46.9403 129.293 46.7386C129.548 46.5341 129.741 46.2571 129.872 45.9077C130.006 45.5582 130.072 45.1648 130.072 44.7273C130.072 44.2955 130.007 43.9077 129.876 43.5639C129.749 43.2202 129.555 42.9489 129.297 42.75C129.041 42.5511 128.722 42.4517 128.338 42.4517C127.969 42.4517 127.656 42.5469 127.401 42.7372C127.148 42.9276 126.956 43.1932 126.825 43.5341C126.695 43.875 126.629 44.2727 126.629 44.7273ZM133.373 50.4545C133.183 50.4545 133.009 50.4389 132.853 50.4077C132.697 50.3793 132.58 50.348 132.504 50.3139L132.81 49.2699C133.043 49.3324 133.251 49.3594 133.433 49.3509C133.614 49.3423 133.775 49.2741 133.914 49.1463C134.056 49.0185 134.181 48.8097 134.289 48.5199L134.447 48.0852L132.052 41.4545H133.415L135.073 46.5341H135.141L136.799 41.4545H138.167L135.469 48.8736C135.344 49.2145 135.185 49.5028 134.992 49.7386C134.799 49.9773 134.569 50.1563 134.302 50.2756C134.035 50.3949 133.725 50.4545 133.373 50.4545ZM147.402 41.5653C147.357 41.1619 147.169 40.8494 146.84 40.6278C146.51 40.4034 146.096 40.2912 145.596 40.2912C145.238 40.2912 144.928 40.348 144.667 40.4616C144.405 40.5724 144.202 40.7259 144.057 40.9219C143.915 41.1151 143.844 41.3352 143.844 41.5824C143.844 41.7898 143.892 41.9687 143.989 42.1193C144.088 42.2699 144.218 42.3963 144.377 42.4986C144.539 42.598 144.712 42.6818 144.897 42.75C145.081 42.8153 145.259 42.8693 145.429 42.9119L146.282 43.1335C146.56 43.2017 146.846 43.294 147.138 43.4105C147.431 43.527 147.702 43.6804 147.952 43.8707C148.202 44.0611 148.404 44.2969 148.557 44.5781C148.713 44.8594 148.792 45.196 148.792 45.5881C148.792 46.0824 148.664 46.5213 148.408 46.9048C148.155 47.2884 147.787 47.5909 147.304 47.8125C146.824 48.0341 146.243 48.1449 145.561 48.1449C144.908 48.1449 144.343 48.0412 143.865 47.8338C143.388 47.6264 143.015 47.3324 142.745 46.9517C142.475 46.5682 142.326 46.1136 142.297 45.5881H143.618C143.644 45.9034 143.746 46.1662 143.925 46.3764C144.107 46.5838 144.338 46.7386 144.62 46.8409C144.904 46.9403 145.215 46.9901 145.553 46.9901C145.925 46.9901 146.256 46.9318 146.546 46.8153C146.838 46.696 147.069 46.5312 147.236 46.321C147.404 46.108 147.488 45.8594 147.488 45.5753C147.488 45.3168 147.414 45.1051 147.266 44.9403C147.121 44.7756 146.924 44.6392 146.674 44.5312C146.426 44.4233 146.147 44.3281 145.834 44.2457L144.803 43.9645C144.104 43.7741 143.55 43.4943 143.141 43.125C142.735 42.7557 142.532 42.267 142.532 41.6591C142.532 41.1562 142.668 40.7173 142.941 40.3423C143.213 39.9673 143.583 39.6761 144.049 39.4688C144.515 39.2585 145.04 39.1534 145.625 39.1534C146.216 39.1534 146.738 39.2571 147.189 39.4645C147.644 39.6719 148.002 39.9574 148.263 40.321C148.525 40.6818 148.661 41.0966 148.672 41.5653H147.402ZM154.409 45.2855V41.4545H155.688V48H154.435V46.8665H154.366C154.216 47.2159 153.974 47.5071 153.642 47.7401C153.313 47.9702 152.902 48.0852 152.411 48.0852C151.99 48.0852 151.618 47.9929 151.294 47.8082C150.973 47.6207 150.72 47.3438 150.536 46.9773C150.354 46.6108 150.263 46.1577 150.263 45.6179V41.4545H151.537V45.4645C151.537 45.9105 151.661 46.2656 151.908 46.5298C152.155 46.794 152.476 46.9261 152.871 46.9261C153.109 46.9261 153.347 46.8665 153.582 46.7472C153.821 46.6278 154.018 46.4474 154.175 46.206C154.334 45.9645 154.412 45.6577 154.409 45.2855ZM157.502 48V39.2727H158.776V42.5156H158.853C158.926 42.3793 159.033 42.2216 159.172 42.0426C159.311 41.8636 159.505 41.7074 159.752 41.5739C159.999 41.4375 160.326 41.3693 160.732 41.3693C161.26 41.3693 161.732 41.5028 162.147 41.7699C162.561 42.0369 162.887 42.4219 163.123 42.9247C163.361 43.4276 163.48 44.0327 163.48 44.7401C163.48 45.4474 163.363 46.054 163.127 46.5597C162.891 47.0625 162.567 47.4503 162.155 47.723C161.743 47.9929 161.273 48.1278 160.745 48.1278C160.347 48.1278 160.022 48.0611 159.769 47.9276C159.519 47.794 159.323 47.6378 159.181 47.4588C159.039 47.2798 158.929 47.1207 158.853 46.9815H158.746V48H157.502ZM158.75 44.7273C158.75 45.1875 158.817 45.5909 158.951 45.9375C159.084 46.2841 159.277 46.5554 159.53 46.7514C159.783 46.9446 160.093 47.0412 160.459 47.0412C160.84 47.0412 161.158 46.9403 161.414 46.7386C161.669 46.5341 161.863 46.2571 161.993 45.9077C162.127 45.5582 162.194 45.1648 162.194 44.7273C162.194 44.2955 162.128 43.9077 161.998 43.5639C161.87 43.2202 161.676 42.9489 161.418 42.75C161.162 42.5511 160.843 42.4517 160.459 42.4517C160.09 42.4517 159.777 42.5469 159.522 42.7372C159.269 42.9276 159.077 43.1932 158.946 43.5341C158.816 43.875 158.75 44.2727 158.75 44.7273ZM169.773 41.5653C169.728 41.1619 169.54 40.8494 169.211 40.6278C168.881 40.4034 168.467 40.2912 167.967 40.2912C167.609 40.2912 167.299 40.348 167.038 40.4616C166.776 40.5724 166.573 40.7259 166.428 40.9219C166.286 41.1151 166.215 41.3352 166.215 41.5824C166.215 41.7898 166.263 41.9687 166.36 42.1193C166.46 42.2699 166.589 42.3963 166.748 42.4986C166.91 42.598 167.083 42.6818 167.268 42.75C167.452 42.8153 167.63 42.8693 167.8 42.9119L168.653 43.1335C168.931 43.2017 169.217 43.294 169.509 43.4105C169.802 43.527 170.073 43.6804 170.323 43.8707C170.573 44.0611 170.775 44.2969 170.928 44.5781C171.085 44.8594 171.163 45.196 171.163 45.5881C171.163 46.0824 171.035 46.5213 170.779 46.9048C170.526 47.2884 170.158 47.5909 169.675 47.8125C169.195 48.0341 168.614 48.1449 167.933 48.1449C167.279 48.1449 166.714 48.0412 166.237 47.8338C165.759 47.6264 165.386 47.3324 165.116 46.9517C164.846 46.5682 164.697 46.1136 164.668 45.5881H165.989C166.015 45.9034 166.117 46.1662 166.296 46.3764C166.478 46.5838 166.71 46.7386 166.991 46.8409C167.275 46.9403 167.586 46.9901 167.924 46.9901C168.296 46.9901 168.627 46.9318 168.917 46.8153C169.21 46.696 169.44 46.5312 169.607 46.321C169.775 46.108 169.859 45.8594 169.859 45.5753C169.859 45.3168 169.785 45.1051 169.637 44.9403C169.492 44.7756 169.295 44.6392 169.045 44.5312C168.798 44.4233 168.518 44.3281 168.205 44.2457L167.174 43.9645C166.475 43.7741 165.921 43.4943 165.512 43.125C165.106 42.7557 164.903 42.267 164.903 41.6591C164.903 41.1562 165.039 40.7173 165.312 40.3423C165.585 39.9673 165.954 39.6761 166.42 39.4688C166.886 39.2585 167.411 39.1534 167.996 39.1534C168.587 39.1534 169.109 39.2571 169.56 39.4645C170.015 39.6719 170.373 39.9574 170.634 40.321C170.896 40.6818 171.032 41.0966 171.043 41.5653H169.773ZM177.053 50.4545V46.9815H176.976C176.9 47.1207 176.789 47.2798 176.644 47.4588C176.502 47.6378 176.306 47.794 176.056 47.9276C175.806 48.0611 175.482 48.1278 175.084 48.1278C174.556 48.1278 174.084 47.9929 173.669 47.723C173.257 47.4503 172.934 47.0625 172.698 46.5597C172.465 46.054 172.348 45.4474 172.348 44.7401C172.348 44.0327 172.466 43.4276 172.702 42.9247C172.941 42.4219 173.267 42.0369 173.682 41.7699C174.097 41.5028 174.567 41.3693 175.093 41.3693C175.499 41.3693 175.826 41.4375 176.073 41.5739C176.323 41.7074 176.516 41.8636 176.652 42.0426C176.792 42.2216 176.9 42.3793 176.976 42.5156H177.083V41.4545H178.327V50.4545H177.053ZM175.365 47.0412C175.732 47.0412 176.042 46.9446 176.294 46.7514C176.55 46.5554 176.743 46.2841 176.874 45.9375C177.007 45.5909 177.074 45.1875 177.074 44.7273C177.074 44.2727 177.009 43.875 176.878 43.5341C176.748 43.1932 176.556 42.9276 176.303 42.7372C176.05 42.5469 175.738 42.4517 175.365 42.4517C174.982 42.4517 174.662 42.5511 174.407 42.75C174.151 42.9489 173.958 43.2202 173.827 43.5639C173.699 43.9077 173.635 44.2955 173.635 44.7273C173.635 45.1648 173.701 45.5582 173.831 45.9077C173.962 46.2571 174.155 46.5341 174.411 46.7386C174.669 46.9403 174.988 47.0412 175.365 47.0412ZM184.186 45.2855V41.4545H185.465V48H184.212V46.8665H184.144C183.993 47.2159 183.752 47.5071 183.419 47.7401C183.09 47.9702 182.679 48.0852 182.188 48.0852C181.767 48.0852 181.395 47.9929 181.071 47.8082C180.75 47.6207 180.498 47.3438 180.313 46.9773C180.131 46.6108 180.04 46.1577 180.04 45.6179V41.4545H181.314V45.4645C181.314 45.9105 181.438 46.2656 181.685 46.5298C181.932 46.794 182.253 46.9261 182.648 46.9261C182.887 46.9261 183.124 46.8665 183.36 46.7472C183.598 46.6278 183.796 46.4474 183.952 46.206C184.111 45.9645 184.189 45.6577 184.186 45.2855ZM189.082 48.1449C188.667 48.1449 188.292 48.0682 187.957 47.9148C187.621 47.7585 187.356 47.5327 187.16 47.2372C186.967 46.9418 186.87 46.5795 186.87 46.1506C186.87 45.7812 186.941 45.4773 187.083 45.2386C187.225 45 187.417 44.8111 187.658 44.6719C187.9 44.5327 188.17 44.4276 188.468 44.3565C188.766 44.2855 189.07 44.2315 189.38 44.1946C189.772 44.1491 190.09 44.1122 190.335 44.0838C190.579 44.0526 190.756 44.0028 190.867 43.9347C190.978 43.8665 191.033 43.7557 191.033 43.6023V43.5724C191.033 43.2003 190.928 42.9119 190.718 42.7074C190.511 42.5028 190.201 42.4006 189.789 42.4006C189.36 42.4006 189.022 42.4957 188.775 42.6861C188.531 42.8736 188.362 43.0824 188.268 43.3125L187.07 43.0398C187.212 42.642 187.42 42.321 187.692 42.0767C187.968 41.8295 188.285 41.6506 188.643 41.5398C189.001 41.4261 189.377 41.3693 189.772 41.3693C190.033 41.3693 190.31 41.4006 190.603 41.4631C190.898 41.5227 191.174 41.6335 191.43 41.7955C191.688 41.9574 191.9 42.1889 192.065 42.4901C192.229 42.7884 192.312 43.1761 192.312 43.6534V48H191.067V47.1051H191.016C190.934 47.2699 190.81 47.4318 190.646 47.5909C190.481 47.75 190.269 47.8821 190.011 47.9872C189.752 48.0923 189.442 48.1449 189.082 48.1449ZM189.359 47.1222C189.711 47.1222 190.012 47.0526 190.262 46.9134C190.515 46.7741 190.707 46.5923 190.837 46.3679C190.971 46.1406 191.038 45.8977 191.038 45.6392V44.7955C190.992 44.8409 190.904 44.8835 190.773 44.9233C190.646 44.9602 190.499 44.9929 190.335 45.0213C190.17 45.0469 190.009 45.071 189.853 45.0938C189.697 45.1136 189.566 45.1307 189.461 45.1449C189.214 45.1761 188.988 45.2287 188.783 45.3026C188.582 45.3764 188.42 45.483 188.298 45.6222C188.178 45.7585 188.119 45.9403 188.119 46.1676C188.119 46.483 188.235 46.7216 188.468 46.8835C188.701 47.0426 188.998 47.1222 189.359 47.1222ZM194.009 48V41.4545H195.24V42.4943H195.309C195.428 42.142 195.638 41.8651 195.939 41.6634C196.243 41.4588 196.587 41.3565 196.971 41.3565C197.05 41.3565 197.144 41.3594 197.252 41.3651C197.363 41.3707 197.449 41.3778 197.512 41.3864V42.6051C197.461 42.5909 197.37 42.5753 197.239 42.5582C197.108 42.5384 196.978 42.5284 196.847 42.5284C196.546 42.5284 196.277 42.5923 196.042 42.7202C195.809 42.8452 195.624 43.0199 195.488 43.2443C195.351 43.4659 195.283 43.7187 195.283 44.0028V48H194.009ZM201.201 48.1321C200.556 48.1321 200.001 47.9943 199.535 47.7188C199.072 47.4403 198.714 47.0497 198.461 46.5469C198.211 46.0412 198.086 45.4489 198.086 44.7699C198.086 44.0994 198.211 43.5085 198.461 42.9972C198.714 42.4858 199.066 42.0866 199.518 41.7997C199.972 41.5128 200.504 41.3693 201.112 41.3693C201.481 41.3693 201.839 41.4304 202.185 41.5526C202.532 41.6747 202.843 41.8665 203.119 42.1278C203.394 42.3892 203.612 42.7287 203.771 43.1463C203.93 43.5611 204.009 44.0653 204.009 44.6591V45.1108H198.806V44.1562H202.761C202.761 43.821 202.692 43.5241 202.556 43.2656C202.42 43.0043 202.228 42.7983 201.981 42.6477C201.737 42.4972 201.45 42.4219 201.12 42.4219C200.762 42.4219 200.45 42.5099 200.183 42.6861C199.918 42.8594 199.714 43.0866 199.569 43.3679C199.427 43.6463 199.356 43.9489 199.356 44.2756V45.0213C199.356 45.4588 199.433 45.831 199.586 46.1378C199.742 46.4446 199.96 46.679 200.238 46.8409C200.516 47 200.842 47.0795 201.214 47.0795C201.455 47.0795 201.675 47.0455 201.874 46.9773C202.073 46.9062 202.245 46.8011 202.39 46.6619C202.535 46.5227 202.646 46.3509 202.722 46.1463L203.928 46.3636C203.832 46.7187 203.658 47.0298 203.408 47.2969C203.161 47.5611 202.85 47.767 202.475 47.9148C202.103 48.0597 201.678 48.1321 201.201 48.1321Z" fill="white" fill-opacity="0.2"/>
<defs>
<linearGradient id="paint0_linear_13417_74879" x1="20" y1="52" x2="20" y2="12" gradientUnits="userSpaceOnUse">
<stop stop-color="#F6F7FA"/>
<stop offset="1" stop-color="white"/>
</linearGradient>
<linearGradient id="paint1_linear_13417_74879" x1="26.717" y1="39.1766" x2="39.3977" y2="39.1862" gradientUnits="userSpaceOnUse">
<stop stop-color="#F79420" stop-opacity="0.92"/>
<stop offset="1" stop-color="#C4C4C4" stop-opacity="0"/>
</linearGradient>
<clipPath id="clip0_13417_74879">
<rect width="40" height="40" fill="white" transform="translate(0 12)"/>
</clipPath>
</defs>
</svg>
