<svg width="236" height="64" viewBox="0 0 236 64" fill="none" xmlns="http://www.w3.org/2000/svg">
<g clip-path="url(#clip0_13417_71057)">
<path d="M31.25 51.5L8.75 51.5C4.19365 51.5 0.5 47.8063 0.500001 43.25L0.500003 20.75C0.500003 16.1937 4.19365 12.5 8.75 12.5L31.25 12.5C35.8064 12.5 39.5 16.1937 39.5 20.75L39.5 43.25C39.5 47.8063 35.8063 51.5 31.25 51.5Z" fill="url(#paint0_linear_13417_71057)" stroke="#EBEEF4"/>
<path d="M11 26.75C12.4484 26.75 13.625 25.5734 13.625 24.125C13.625 22.6766 12.4484 21.5 11 21.5C9.55156 21.5 8.375 22.6766 8.375 24.125C8.375 25.5734 9.55156 26.75 11 26.75Z" fill="#1C1C26"/>
<path fill-rule="evenodd" clip-rule="evenodd" d="M12.5 34.25C12.5 32.2438 13.3766 30.4391 14.7687 29.2063V29.2016C13.9156 28.6016 12.875 28.25 11.75 28.25H10.25C7.34844 28.25 5 30.5984 5 33.5C5 35.5953 6.22812 37.4 8 38.2438V39.5C8 40.3297 8.67031 41 9.5 41H12.5C13.3297 41 14 40.3297 14 39.5V38.4922C13.0625 37.3344 12.5 35.8578 12.5 34.25ZM7.25 33.5C7.25 32.7406 7.53125 32.0422 8 31.5172V35.4828C7.53125 34.9578 7.25 34.2594 7.25 33.5Z" fill="#1C1C26"/>
<path d="M27.3871 35.4859C28.2293 34.8277 29.2894 34.4355 30.4412 34.4355C30.9857 34.4355 31.5098 34.5232 32 34.6852V31.5219C32.4687 32.0469 32.75 32.7453 32.75 33.5047C32.75 33.9885 32.6358 34.4456 32.4318 34.8507C33.1374 35.1599 33.7573 35.6285 34.2459 36.2109C34.7244 35.42 35 34.4926 35 33.5C35 30.5984 32.6516 28.25 29.75 28.25H28.25C27.125 28.25 26.0844 28.6016 25.2313 29.2016C26.6234 30.4391 27.5 32.2438 27.5 34.25C27.5 34.6721 27.4612 35.0852 27.3871 35.4859Z" fill="#1C1C26"/>
<path d="M29 26.75C30.4484 26.75 31.625 25.5734 31.625 24.125C31.625 22.6766 30.4484 21.5 29 21.5C27.5516 21.5 26.375 22.6766 26.375 24.125C26.375 25.5734 27.5516 26.75 29 26.75Z" fill="#1C1C26"/>
<path d="M17 24.5C17 26.1547 18.3453 27.5 20 27.5C21.6547 27.5 23 26.1547 23 24.5C23 22.8453 21.6547 21.5 20 21.5C18.3453 21.5 17 22.8453 17 24.5Z" fill="#1C1C26"/>
<path fill-rule="evenodd" clip-rule="evenodd" d="M23 38.9938C24.7719 38.15 26 36.3453 26 34.25C26 31.3484 23.6516 29 20.75 29H19.25C16.3484 29 14 31.3484 14 34.25C14 36.3453 15.2281 38.15 17 38.9938V41C17 41.8297 17.6703 42.5 18.5 42.5H21.5C22.3297 42.5 23 41.8297 23 41V38.9938ZM17 36.2328C16.5312 35.7031 16.25 35.0094 16.25 34.25C16.25 33.4906 16.5312 32.7969 17 32.2672V36.2328ZM23 36.2375V32.2719C23.4687 32.7969 23.75 33.4953 23.75 34.2547C23.75 35.0141 23.4687 35.7078 23 36.2375Z" fill="#1C1C26"/>
<path d="M30.44 43.3088C32.5988 43.3088 34.3488 41.5588 34.3488 39.4C34.3488 37.2412 32.5988 35.4912 30.44 35.4912C28.2813 35.4912 26.5312 37.2412 26.5312 39.4C26.5312 41.5588 28.2813 43.3088 30.44 43.3088Z" fill="#E6007A"/>
<path d="M30.44 43.3088C32.5988 43.3088 34.3488 41.5588 34.3488 39.4C34.3488 37.2412 32.5988 35.4912 30.44 35.4912C28.2813 35.4912 26.5312 37.2412 26.5312 39.4C26.5312 41.5588 28.2813 43.3088 30.44 43.3088Z" fill="url(#paint1_linear_13417_71057)"/>
<path fill-rule="evenodd" clip-rule="evenodd" d="M26.5414 39.6756C26.5439 39.7114 26.5469 39.7471 26.5503 39.7827C26.5543 39.823 26.5588 39.863 26.5639 39.903C26.6133 40.2883 26.7189 40.6561 26.8721 40.9978C26.8646 40.9571 26.8563 40.917 26.8478 40.878C26.8304 40.7952 26.8043 40.6975 26.7758 40.5912C26.7181 40.3754 26.6509 40.1238 26.6269 39.888C26.6667 39.8789 26.7067 39.8704 26.7467 39.8625C27.5213 40.5695 28.286 41.2873 29.0407 42.0159C28.943 42.318 28.8398 42.6183 28.7311 42.9167C28.7681 42.9347 28.8055 42.9522 28.8432 42.9691C28.9471 42.6852 29.0461 42.3994 29.1401 42.1121C29.2865 42.2538 29.4325 42.3959 29.5782 42.5384C29.8391 42.7939 30.0989 43.0506 30.3575 43.3085C30.3852 43.3091 30.4129 43.3094 30.4407 43.3094C30.473 43.3094 30.5052 43.309 30.5374 43.3082C30.0898 42.8612 29.6385 42.4178 29.1835 41.9781C29.334 41.5099 29.4711 41.0374 29.5948 40.5616C29.8666 41.319 30.3595 41.9666 31.1822 42.2369C31.7752 42.432 32.4199 42.4193 33.0328 42.3263C33.0825 42.2823 33.131 42.2371 33.1783 42.1906C32.8984 42.2355 32.6177 42.2619 32.3398 42.2683C31.6891 42.2829 31.007 42.1552 30.4939 41.728C30.0928 41.3952 29.8348 40.9303 29.6742 40.4372C29.6853 40.4418 29.6964 40.4463 29.7075 40.4508C30.2477 40.6665 30.7963 40.6015 31.2615 40.2477C31.5542 40.0249 31.7672 39.7528 31.9394 39.4551C32.3191 39.4577 32.6989 39.4529 33.0784 39.4406C32.9448 39.7656 32.8223 40.1194 32.9969 40.4257C33.0739 40.5594 33.1849 40.6724 33.2927 40.7821C33.3132 40.803 33.3335 40.8237 33.3535 40.8445C33.51 41.0071 33.6664 41.1681 33.8288 41.3244C33.7999 41.3816 33.7707 41.4387 33.7412 41.4956C33.775 41.4426 33.8075 41.3887 33.8387 41.3339C33.8604 41.2958 33.8815 41.2573 33.902 41.2184C33.9138 41.1959 33.9255 41.1732 33.9369 41.1504C33.9844 41.0557 34.0282 40.9587 34.068 40.8598C34.0929 40.7981 34.1162 40.7355 34.138 40.6723C34.1149 40.7239 34.0916 40.7755 34.068 40.8269C34.0691 40.3426 34.1061 39.8597 34.1898 39.3835C34.243 39.3797 34.2962 39.3758 34.3494 39.3718C34.3491 39.3306 34.3482 39.2896 34.3466 39.2488C34.302 39.2522 34.2574 39.2554 34.2128 39.2586C34.2404 39.1162 34.2722 38.9744 34.3087 38.8335C34.2943 38.7346 34.2762 38.6369 34.2546 38.5406C34.1828 38.7797 34.1243 39.0223 34.0778 39.2678C33.8076 39.2857 33.5373 39.2997 33.2668 39.31C33.5024 38.6495 33.7138 37.9724 33.7203 37.273C33.6792 37.2098 33.6363 37.1478 33.5916 37.0871C33.598 37.215 33.5971 37.3429 33.5892 37.4692C33.5538 38.0261 33.4015 38.5684 33.2179 39.0919C33.1932 39.1632 33.1627 39.2379 33.1306 39.3149C32.7567 39.3274 32.3825 39.3327 32.0084 39.3308C32.1568 39.0515 32.2754 38.7534 32.3943 38.4546C32.5713 38.0099 32.7488 37.5638 33.0261 37.176C33.0541 37.1368 33.0832 37.099 33.1132 37.0625C33.2584 37.0521 33.4036 37.0412 33.5489 37.03C33.5183 36.99 33.487 36.9507 33.455 36.9119C33.381 36.9176 33.307 36.9231 33.233 36.9286C33.2749 36.8853 33.3183 36.844 33.363 36.8046C33.3373 36.7757 33.3111 36.7471 33.2846 36.719C33.2783 36.7247 33.2721 36.7305 33.2659 36.7363C33.1976 36.8005 33.134 36.8687 33.0744 36.9401C32.2422 36.9997 31.4085 37.0467 30.5744 37.0772C30.5709 36.9472 30.5542 36.8205 30.521 36.7007C30.4812 36.559 30.412 36.4456 30.3223 36.3582C30.3481 36.0699 30.3693 35.7812 30.3856 35.4922C30.343 35.4928 30.3006 35.494 30.2583 35.496C30.2438 35.7523 30.2254 36.0084 30.2033 36.2641C30.1159 36.2084 30.0169 36.1701 29.9115 36.1476C29.9158 36.1366 29.9201 36.1255 29.9244 36.1144C30.0073 35.9044 30.101 35.6994 30.2039 35.4989C30.1552 35.5018 30.1068 35.5056 30.0586 35.5102C29.9587 35.7122 29.8683 35.9187 29.7878 36.1288C29.7105 36.1214 29.6309 36.1217 29.5511 36.1291C29.1021 36.1713 28.6738 36.3646 28.2612 36.5507C28.2211 36.5688 28.1811 36.5868 28.1413 36.6047C28.1105 36.5056 28.0807 36.4062 28.0519 36.3065C28.0153 36.3348 27.9791 36.3638 27.9435 36.3933C27.9695 36.4814 27.9961 36.5692 28.0237 36.6567C27.8185 36.7462 27.6142 36.8379 27.4105 36.9313C27.3648 36.9873 27.3207 37.0445 27.2781 37.103C27.2658 37.12 27.2535 37.1371 27.2415 37.1542C27.225 37.1777 27.2087 37.2013 27.1928 37.2251C27.5356 37.2339 27.8786 37.239 28.2216 37.2407C28.3162 37.4997 28.4195 37.7561 28.5332 38.0094C28.6562 38.2858 28.7918 38.5559 28.942 38.8176C29.0206 38.9561 29.1128 39.1033 29.2518 39.18C28.7479 39.1253 28.2456 39.0583 27.7417 38.9911C27.6795 38.9828 27.6172 38.9745 27.5549 38.9663C27.2483 38.9265 26.9104 38.9286 26.6831 39.1735C26.6075 39.2541 26.5599 39.3492 26.5322 39.451C26.5324 39.4659 26.5327 39.4809 26.533 39.4958C26.5345 39.5561 26.5373 39.616 26.5414 39.6756ZM26.6181 39.7453C26.6183 39.7523 26.6184 39.7594 26.6187 39.7664C26.6247 39.7651 26.6308 39.7637 26.6368 39.7623C26.6306 39.7567 26.6244 39.751 26.6181 39.7453ZM26.7912 39.7308C26.7363 39.6806 26.6813 39.6305 26.6262 39.5804C26.6606 39.3074 26.808 39.1002 27.1837 39.0709C27.3542 39.0568 27.5278 39.0859 27.6968 39.1142C27.7283 39.1194 27.7595 39.1247 27.7906 39.1296C28.0201 39.1652 28.2495 39.1966 28.4789 39.2259C28.7633 39.2624 29.0485 39.2943 29.3343 39.3217C29.3601 39.6151 29.4081 39.9126 29.4836 40.2008C29.4355 40.1782 29.3877 40.1555 29.3401 40.1327C29.0282 39.9841 28.7214 39.8378 28.3767 39.7577C27.8622 39.6394 27.3179 39.6337 26.7912 39.7308ZM26.905 39.8348C27.64 40.5077 28.3663 41.1901 29.0836 41.8817C29.2424 41.3811 29.386 40.8757 29.5141 40.3665C29.4298 40.3273 29.3465 40.2858 29.2633 40.2443C29.1122 40.169 28.9612 40.0938 28.8043 40.032C28.529 39.9231 28.2391 39.852 27.9471 39.8164C27.6015 39.7746 27.2498 39.7817 26.905 39.8348ZM29.5797 40.0997C29.6389 39.8533 29.6945 39.6061 29.7465 39.358C29.6483 39.3501 29.5502 39.3417 29.4521 39.3327C29.4776 39.5917 29.5198 39.8481 29.5797 40.0997ZM29.6018 39.216C29.6588 39.2214 29.7157 39.2267 29.7727 39.2318C29.7803 39.1944 29.7879 39.157 29.7954 39.1196C29.7356 39.1634 29.6712 39.1968 29.6018 39.216ZM29.9548 38.9685C29.9372 39.06 29.9191 39.1515 29.9004 39.2428C30.032 39.2538 30.1637 39.2635 30.2957 39.272C30.8289 39.3059 31.363 39.3252 31.8974 39.33C32.0697 39.0216 32.2029 38.6846 32.3343 38.3524C32.4004 38.1851 32.466 38.0191 32.5359 37.8586C32.6556 37.5846 32.794 37.3143 32.9709 37.0726C32.5653 37.1011 32.1596 37.1267 31.7537 37.1488C31.3608 37.17 30.9674 37.1879 30.5739 37.2022C30.5607 37.59 30.4435 37.9957 30.3124 38.3255C30.2367 38.515 30.1194 38.7751 29.9548 38.9685ZM30.4379 37.207C30.4322 37.3573 30.4113 37.5076 30.3854 37.6429C30.3353 37.9047 30.2561 38.1622 30.1476 38.4051C30.1082 38.494 30.0625 38.5925 30.0074 38.687C30.096 38.1983 30.1707 37.7069 30.2313 37.2137C30.3002 37.2116 30.3691 37.2094 30.4379 37.207ZM30.4389 37.082C30.4341 36.8838 30.3974 36.6928 30.3049 36.5441C30.2873 36.7257 30.2678 36.9071 30.2464 37.0883C30.3106 37.0863 30.3747 37.0842 30.4389 37.082ZM30.1182 37.0922C30.1453 36.8646 30.1693 36.6367 30.1904 36.4085C30.1087 36.3374 30.0029 36.2865 29.8675 36.2641C29.7672 36.5367 29.6823 36.8181 29.6143 37.1048C29.7823 37.1013 29.9502 37.0971 30.1182 37.0922ZM29.4896 37.1072C29.5561 36.8173 29.6404 36.5315 29.7419 36.2517C29.3048 36.2333 28.8676 36.4275 28.4658 36.6059C28.3975 36.6362 28.3302 36.6661 28.2641 36.6944C28.2364 36.7064 28.2087 36.7183 28.181 36.7303C28.2226 36.8597 28.266 36.9885 28.3114 37.1166C28.7041 37.1178 29.0969 37.1145 29.4896 37.1072ZM28.3565 37.2412C28.725 37.242 29.0936 37.239 29.462 37.2325C29.3349 37.8357 29.2848 38.4551 29.3169 39.073C29.1649 38.9914 29.0633 38.7924 28.9815 38.6319C28.9671 38.6037 28.9533 38.5767 28.9399 38.5517C28.8043 38.2962 28.6792 38.0324 28.5645 37.7665C28.4905 37.593 28.4214 37.4178 28.3565 37.2412ZM29.4342 39.1091C29.3955 38.4825 29.4514 37.8453 29.5858 37.2301C29.7582 37.2267 29.9306 37.2225 30.103 37.2175C30.0321 37.789 29.9423 38.3581 29.8338 38.9236C29.7548 39.0053 29.6625 39.0689 29.5532 39.0982C29.5108 39.1095 29.4713 39.1126 29.4342 39.1091ZM28.1768 37.116C28.1375 37.005 28.0998 36.8935 28.0635 36.7816C27.8237 36.8867 27.5854 36.9946 27.3481 37.1046C27.6242 37.1107 27.9005 37.1145 28.1768 37.116ZM31.8249 39.4541C31.1846 39.4473 30.5444 39.4194 29.9057 39.3704C29.8953 39.3696 29.8849 39.3688 29.8746 39.368C29.833 39.5668 29.7892 39.7652 29.743 39.9629C29.7178 40.0702 29.6919 40.1773 29.6653 40.2843C30.146 40.4943 30.628 40.5233 31.0862 40.233C31.4046 40.0315 31.6377 39.76 31.8249 39.4541ZM33.2216 39.4356C33.1972 39.5032 33.1727 39.5705 33.1482 39.6377C33.1395 39.6617 33.1307 39.6856 33.122 39.7096C33.0574 39.8875 32.9969 40.076 33.0615 40.2644C33.1033 40.388 33.1887 40.4843 33.2743 40.5785C33.414 40.7314 33.56 40.88 33.706 41.0266C33.7661 41.0866 33.8268 41.1462 33.8881 41.2052C33.9042 41.1726 33.9201 41.14 33.9359 41.1073C33.9234 40.5287 33.9585 39.9538 34.0552 39.3927C33.7776 39.411 33.4997 39.4253 33.2216 39.4356Z" fill="#E6007A"/>
<path d="M29.0507 40.8829H29.9934L30.294 39.7933C30.3354 39.643 30.5467 39.6431 30.588 39.7934L30.8876 40.8829H31.8285L32.5499 38.0967H31.6665L31.4409 39.2024C31.4082 39.363 31.1823 39.3674 31.1433 39.2082L30.8714 38.0967H30.0096L29.7447 39.2151C29.7068 39.3748 29.4804 39.3717 29.4469 39.2111L29.3674 38.8298C29.2782 38.4025 28.9044 38.0967 28.4714 38.0967H28.3311L29.0507 40.8829Z" fill="white"/>
</g>
<path d="M60.36 31.24C58.9333 31.24 57.64 30.9333 56.48 30.32C55.3333 29.6933 54.4267 28.8333 53.76 27.74C53.1067 26.6333 52.78 25.3867 52.78 24C52.78 22.6133 53.1067 21.3733 53.76 20.28C54.4267 19.1733 55.3333 18.3133 56.48 17.7C57.64 17.0733 58.94 16.76 60.38 16.76C61.5933 16.76 62.6867 16.9733 63.66 17.4C64.6467 17.8267 65.4733 18.44 66.14 19.24L64.06 21.16C63.1133 20.0667 61.94 19.52 60.54 19.52C59.6733 19.52 58.9 19.7133 58.22 20.1C57.54 20.4733 57.0067 21 56.62 21.68C56.2467 22.36 56.06 23.1333 56.06 24C56.06 24.8667 56.2467 25.64 56.62 26.32C57.0067 27 57.54 27.5333 58.22 27.92C58.9 28.2933 59.6733 28.48 60.54 28.48C61.94 28.48 63.1133 27.9267 64.06 26.82L66.14 28.74C65.4733 29.5533 64.6467 30.1733 63.66 30.6C62.6733 31.0267 61.5733 31.24 60.36 31.24ZM72.8569 31.16C71.7235 31.16 70.7035 30.9267 69.7969 30.46C68.9035 29.98 68.2035 29.32 67.6969 28.48C67.1902 27.64 66.9369 26.6867 66.9369 25.62C66.9369 24.5533 67.1902 23.6 67.6969 22.76C68.2035 21.92 68.9035 21.2667 69.7969 20.8C70.7035 20.32 71.7235 20.08 72.8569 20.08C73.9902 20.08 75.0035 20.32 75.8969 20.8C76.7902 21.2667 77.4902 21.92 77.9969 22.76C78.5035 23.6 78.7569 24.5533 78.7569 25.62C78.7569 26.6867 78.5035 27.64 77.9969 28.48C77.4902 29.32 76.7902 29.98 75.8969 30.46C75.0035 30.9267 73.9902 31.16 72.8569 31.16ZM72.8569 28.6C73.6569 28.6 74.3102 28.3333 74.8169 27.8C75.3369 27.2533 75.5969 26.5267 75.5969 25.62C75.5969 24.7133 75.3369 23.9933 74.8169 23.46C74.3102 22.9133 73.6569 22.64 72.8569 22.64C72.0569 22.64 71.3969 22.9133 70.8769 23.46C70.3569 23.9933 70.0969 24.7133 70.0969 25.62C70.0969 26.5267 70.3569 27.2533 70.8769 27.8C71.3969 28.3333 72.0569 28.6 72.8569 28.6ZM80.8423 16.16H83.9623V31H80.8423V16.16ZM86.858 16.16H89.978V31H86.858V16.16ZM103.414 25.66C103.414 25.7 103.394 25.98 103.354 26.5H95.2136C95.3603 27.1667 95.7069 27.6933 96.2536 28.08C96.8003 28.4667 97.4803 28.66 98.2936 28.66C98.8536 28.66 99.3469 28.58 99.7736 28.42C100.214 28.2467 100.62 27.98 100.994 27.62L102.654 29.42C101.64 30.58 100.16 31.16 98.2136 31.16C97.0003 31.16 95.9269 30.9267 94.9936 30.46C94.0603 29.98 93.3403 29.32 92.8336 28.48C92.3269 27.64 92.0736 26.6867 92.0736 25.62C92.0736 24.5667 92.3203 23.62 92.8136 22.78C93.3203 21.9267 94.0069 21.2667 94.8736 20.8C95.7536 20.32 96.7336 20.08 97.8136 20.08C98.8669 20.08 99.8203 20.3067 100.674 20.76C101.527 21.2133 102.194 21.8667 102.674 22.72C103.167 23.56 103.414 24.54 103.414 25.66ZM97.8336 22.44C97.1269 22.44 96.5336 22.64 96.0536 23.04C95.5736 23.44 95.2803 23.9867 95.1736 24.68H100.474C100.367 24 100.074 23.46 99.5936 23.06C99.1136 22.6467 98.5269 22.44 97.8336 22.44ZM110.691 31.16C109.544 31.16 108.511 30.9267 107.591 30.46C106.684 29.98 105.971 29.32 105.451 28.48C104.944 27.64 104.691 26.6867 104.691 25.62C104.691 24.5533 104.944 23.6 105.451 22.76C105.971 21.92 106.684 21.2667 107.591 20.8C108.511 20.32 109.544 20.08 110.691 20.08C111.824 20.08 112.811 20.32 113.651 20.8C114.504 21.2667 115.124 21.94 115.511 22.82L113.091 24.12C112.531 23.1333 111.724 22.64 110.671 22.64C109.857 22.64 109.184 22.9067 108.651 23.44C108.117 23.9733 107.851 24.7 107.851 25.62C107.851 26.54 108.117 27.2667 108.651 27.8C109.184 28.3333 109.857 28.6 110.671 28.6C111.737 28.6 112.544 28.1067 113.091 27.12L115.511 28.44C115.124 29.2933 114.504 29.96 113.651 30.44C112.811 30.92 111.824 31.16 110.691 31.16ZM124.403 30.48C124.097 30.7067 123.717 30.88 123.263 31C122.823 31.1067 122.357 31.16 121.863 31.16C120.583 31.16 119.59 30.8333 118.883 30.18C118.19 29.5267 117.843 28.5667 117.843 27.3V22.88H116.183V20.48H117.843V17.86H120.963V20.48H123.643V22.88H120.963V27.26C120.963 27.7133 121.077 28.0667 121.303 28.32C121.543 28.56 121.877 28.68 122.303 28.68C122.797 28.68 123.217 28.5467 123.563 28.28L124.403 30.48ZM126.155 20.24H129.275V31H126.155V20.24ZM127.715 18.74C127.142 18.74 126.675 18.5733 126.315 18.24C125.955 17.9067 125.775 17.4933 125.775 17C125.775 16.5067 125.955 16.0933 126.315 15.76C126.675 15.4267 127.142 15.26 127.715 15.26C128.288 15.26 128.755 15.42 129.115 15.74C129.475 16.06 129.655 16.46 129.655 16.94C129.655 17.46 129.475 17.8933 129.115 18.24C128.755 18.5733 128.288 18.74 127.715 18.74ZM142.85 20.24L138.31 31H135.09L130.57 20.24H133.79L136.77 27.56L139.85 20.24H142.85ZM154.371 25.66C154.371 25.7 154.351 25.98 154.311 26.5H146.171C146.317 27.1667 146.664 27.6933 147.211 28.08C147.757 28.4667 148.437 28.66 149.251 28.66C149.811 28.66 150.304 28.58 150.731 28.42C151.171 28.2467 151.577 27.98 151.951 27.62L153.611 29.42C152.597 30.58 151.117 31.16 149.171 31.16C147.957 31.16 146.884 30.9267 145.951 30.46C145.017 29.98 144.297 29.32 143.791 28.48C143.284 27.64 143.031 26.6867 143.031 25.62C143.031 24.5667 143.277 23.62 143.771 22.78C144.277 21.9267 144.964 21.2667 145.831 20.8C146.711 20.32 147.691 20.08 148.771 20.08C149.824 20.08 150.777 20.3067 151.631 20.76C152.484 21.2133 153.151 21.8667 153.631 22.72C154.124 23.56 154.371 24.54 154.371 25.66ZM148.791 22.44C148.084 22.44 147.491 22.64 147.011 23.04C146.531 23.44 146.237 23.9867 146.131 24.68H151.431C151.324 24 151.031 23.46 150.551 23.06C150.071 22.6467 149.484 22.44 148.791 22.44ZM160.068 31.16C159.174 31.16 158.301 31.0533 157.448 30.84C156.594 30.6133 155.914 30.3333 155.408 30L156.448 27.76C156.928 28.0667 157.508 28.32 158.188 28.52C158.868 28.7067 159.534 28.8 160.188 28.8C161.508 28.8 162.168 28.4733 162.168 27.82C162.168 27.5133 161.988 27.2933 161.628 27.16C161.268 27.0267 160.714 26.9133 159.968 26.82C159.088 26.6867 158.361 26.5333 157.788 26.36C157.214 26.1867 156.714 25.88 156.288 25.44C155.874 25 155.668 24.3733 155.668 23.56C155.668 22.88 155.861 22.28 156.248 21.76C156.648 21.2267 157.221 20.8133 157.968 20.52C158.728 20.2267 159.621 20.08 160.648 20.08C161.408 20.08 162.161 20.1667 162.908 20.34C163.668 20.5 164.294 20.7267 164.788 21.02L163.748 23.24C162.801 22.7067 161.768 22.44 160.648 22.44C159.981 22.44 159.481 22.5333 159.148 22.72C158.814 22.9067 158.648 23.1467 158.648 23.44C158.648 23.7733 158.828 24.0067 159.188 24.14C159.548 24.2733 160.121 24.4 160.908 24.52C161.788 24.6667 162.508 24.8267 163.068 25C163.628 25.16 164.114 25.46 164.528 25.9C164.941 26.34 165.148 26.9533 165.148 27.74C165.148 28.4067 164.948 29 164.548 29.52C164.148 30.04 163.561 30.4467 162.788 30.74C162.028 31.02 161.121 31.16 160.068 31.16Z" fill="#1E2134"/>
<path d="M59.0227 42C58.929 41.7131 58.8054 41.456 58.652 41.2287C58.5014 40.9986 58.321 40.8026 58.1108 40.6406C57.9034 40.4787 57.6676 40.3551 57.4034 40.2699C57.1392 40.1847 56.8494 40.142 56.5341 40.142C56.017 40.142 55.5469 40.2756 55.1236 40.5426C54.7003 40.8097 54.3636 41.2031 54.1136 41.723C53.8636 42.2429 53.7386 42.8807 53.7386 43.6364C53.7386 44.392 53.8651 45.0298 54.1179 45.5497C54.3707 46.0696 54.7131 46.4631 55.1449 46.7301C55.5767 46.9972 56.0625 47.1307 56.6023 47.1307C57.1023 47.1307 57.5426 47.0241 57.9233 46.8111C58.3068 46.5952 58.6051 46.2912 58.8182 45.8991C59.0341 45.5043 59.142 45.0398 59.142 44.5057L59.4659 44.5739H56.8409V43.6364H60.1648V44.5739C60.1648 45.2926 60.0114 45.9176 59.7045 46.4489C59.4006 46.9801 58.9801 47.392 58.4432 47.6847C57.9091 47.9744 57.2955 48.1193 56.6023 48.1193C55.8295 48.1193 55.1506 47.9375 54.5653 47.5739C53.983 47.2102 53.5284 46.6932 53.2017 46.0227C52.8778 45.3523 52.7159 44.5568 52.7159 43.6364C52.7159 42.946 52.8082 42.3253 52.9929 41.7741C53.1804 41.2202 53.4446 40.7486 53.7855 40.3594C54.1264 39.9702 54.5298 39.6719 54.9957 39.4645C55.4616 39.2571 55.9744 39.1534 56.5341 39.1534C56.9943 39.1534 57.4233 39.223 57.821 39.3622C58.2216 39.4986 58.5781 39.6932 58.8906 39.946C59.206 40.196 59.4688 40.4957 59.679 40.8452C59.8892 41.1918 60.0341 41.5767 60.1136 42H59.0227ZM64.4975 48.1364C63.9066 48.1364 63.3881 47.9957 62.9421 47.7145C62.4989 47.4332 62.1523 47.0398 61.9023 46.5341C61.6552 46.0284 61.5316 45.4375 61.5316 44.7614C61.5316 44.0795 61.6552 43.4844 61.9023 42.9759C62.1523 42.4673 62.4989 42.0724 62.9421 41.7912C63.3881 41.5099 63.9066 41.3693 64.4975 41.3693C65.0884 41.3693 65.6055 41.5099 66.0487 41.7912C66.4947 42.0724 66.8413 42.4673 67.0884 42.9759C67.3384 43.4844 67.4634 44.0795 67.4634 44.7614C67.4634 45.4375 67.3384 46.0284 67.0884 46.5341C66.8413 47.0398 66.4947 47.4332 66.0487 47.7145C65.6055 47.9957 65.0884 48.1364 64.4975 48.1364ZM64.4975 47.233C64.9464 47.233 65.3157 47.1179 65.6055 46.8878C65.8952 46.6577 66.1097 46.3551 66.2489 45.9801C66.3881 45.6051 66.4577 45.1989 66.4577 44.7614C66.4577 44.3239 66.3881 43.9162 66.2489 43.5384C66.1097 43.1605 65.8952 42.8551 65.6055 42.6222C65.3157 42.3892 64.9464 42.2727 64.4975 42.2727C64.0487 42.2727 63.6793 42.3892 63.3896 42.6222C63.0998 42.8551 62.8853 43.1605 62.7461 43.5384C62.6069 43.9162 62.5373 44.3239 62.5373 44.7614C62.5373 45.1989 62.6069 45.6051 62.7461 45.9801C62.8853 46.3551 63.0998 46.6577 63.3896 46.8878C63.6793 47.1179 64.0487 47.233 64.4975 47.233ZM74.1165 41.4545L71.696 48H70.6733L68.2528 41.4545H69.3438L71.1506 46.6705H71.2188L73.0256 41.4545H74.1165ZM77.9538 48.1364C77.3232 48.1364 76.7791 47.9972 76.3217 47.7188C75.8672 47.4375 75.5163 47.0455 75.2692 46.5426C75.0249 46.0369 74.9027 45.4489 74.9027 44.7784C74.9027 44.108 75.0249 43.517 75.2692 43.0057C75.5163 42.4915 75.8601 42.0909 76.3004 41.804C76.7436 41.5142 77.2607 41.3693 77.8516 41.3693C78.1925 41.3693 78.5291 41.4261 78.8615 41.5398C79.1939 41.6534 79.4964 41.8381 79.7692 42.0938C80.0419 42.3466 80.2592 42.6818 80.4212 43.0994C80.5831 43.517 80.6641 44.0312 80.6641 44.642V45.0682H75.6186V44.1989H79.6413C79.6413 43.8295 79.5675 43.5 79.4197 43.2102C79.2749 42.9205 79.0675 42.6918 78.7976 42.5241C78.5305 42.3565 78.2152 42.2727 77.8516 42.2727C77.451 42.2727 77.1044 42.3722 76.8118 42.571C76.522 42.767 76.299 43.0227 76.1428 43.3381C75.9865 43.6534 75.9084 43.9915 75.9084 44.3523V44.9318C75.9084 45.4261 75.9936 45.8452 76.1641 46.1889C76.3374 46.5298 76.5774 46.7898 76.8842 46.9688C77.1911 47.1449 77.5476 47.233 77.9538 47.233C78.218 47.233 78.4567 47.196 78.6697 47.1222C78.8857 47.0455 79.0717 46.9318 79.228 46.7812C79.3842 46.6278 79.505 46.4375 79.5902 46.2102L80.5618 46.483C80.4595 46.8125 80.2876 47.1023 80.0462 47.3523C79.8047 47.5994 79.5064 47.7926 79.1513 47.9318C78.7962 48.0682 78.397 48.1364 77.9538 48.1364ZM82.1939 48V41.4545H83.1655V42.4432H83.2337C83.353 42.1193 83.5689 41.8565 83.8814 41.6548C84.1939 41.4531 84.5462 41.3523 84.9382 41.3523C85.0121 41.3523 85.1044 41.3537 85.2152 41.3565C85.326 41.3594 85.4098 41.3636 85.4666 41.3693V42.392C85.4325 42.3835 85.3544 42.3707 85.2322 42.3537C85.1129 42.3338 84.9865 42.3239 84.853 42.3239C84.5348 42.3239 84.2507 42.3906 84.0007 42.5241C83.7536 42.6548 83.5575 42.8366 83.4126 43.0696C83.2706 43.2997 83.1996 43.5625 83.1996 43.858V48H82.1939ZM87.6644 44.0625V48H86.6587V41.4545H87.6303V42.4773H87.7156C87.869 42.1449 88.1019 41.8778 88.4144 41.6761C88.7269 41.4716 89.1303 41.3693 89.6246 41.3693C90.0678 41.3693 90.4556 41.4602 90.788 41.642C91.1204 41.821 91.3789 42.0938 91.5636 42.4602C91.7482 42.8239 91.8406 43.2841 91.8406 43.8409V48H90.8349V43.9091C90.8349 43.3949 90.7013 42.9943 90.4343 42.7074C90.1673 42.4176 89.8008 42.2727 89.3349 42.2727C89.0138 42.2727 88.7269 42.3423 88.4741 42.4815C88.2241 42.6207 88.0266 42.8239 87.8817 43.0909C87.7369 43.358 87.6644 43.6818 87.6644 44.0625ZM95.6044 48.1534C95.1896 48.1534 94.8132 48.0753 94.4751 47.919C94.1371 47.7599 93.8686 47.5312 93.6697 47.233C93.4709 46.9318 93.3714 46.5682 93.3714 46.142C93.3714 45.767 93.4453 45.4631 93.593 45.2301C93.7408 44.9943 93.9382 44.8097 94.1854 44.6761C94.4325 44.5426 94.7053 44.4432 95.0036 44.3778C95.3047 44.3097 95.6072 44.2557 95.9112 44.2159C96.3089 44.1648 96.6314 44.1264 96.8786 44.1009C97.1286 44.0724 97.3104 44.0256 97.424 43.9602C97.5405 43.8949 97.5987 43.7812 97.5987 43.6193V43.5852C97.5987 43.1648 97.4837 42.8381 97.2536 42.6051C97.0263 42.3722 96.6811 42.2557 96.218 42.2557C95.7379 42.2557 95.3615 42.3608 95.0888 42.571C94.8161 42.7812 94.6243 43.0057 94.5135 43.2443L93.5589 42.9034C93.7294 42.5057 93.9567 42.196 94.2408 41.9744C94.5277 41.75 94.8402 41.5937 95.1783 41.5057C95.5192 41.4148 95.8544 41.3693 96.1839 41.3693C96.3942 41.3693 96.6357 41.3949 96.9084 41.446C97.1839 41.4943 97.4496 41.5952 97.7053 41.7486C97.9638 41.902 98.1783 42.1335 98.3487 42.4432C98.5192 42.7528 98.6044 43.1676 98.6044 43.6875V48H97.5987V47.1136H97.5476C97.4794 47.2557 97.3658 47.4077 97.2067 47.5696C97.0476 47.7315 96.8359 47.8693 96.5717 47.983C96.3075 48.0966 95.9851 48.1534 95.6044 48.1534ZM95.7578 47.25C96.1555 47.25 96.4908 47.1719 96.7635 47.0156C97.0391 46.8594 97.2464 46.6577 97.3857 46.4105C97.5277 46.1634 97.5987 45.9034 97.5987 45.6307V44.7102C97.5561 44.7614 97.4624 44.8082 97.3175 44.8509C97.1754 44.8906 97.0107 44.9261 96.8232 44.9574C96.6385 44.9858 96.4581 45.0114 96.282 45.0341C96.1087 45.054 95.968 45.071 95.8601 45.0852C95.5987 45.1193 95.3544 45.1747 95.1271 45.2514C94.9027 45.3253 94.7209 45.4375 94.5817 45.5881C94.4453 45.7358 94.3771 45.9375 94.3771 46.1932C94.3771 46.5426 94.5064 46.8068 94.7649 46.9858C95.0263 47.1619 95.3572 47.25 95.7578 47.25ZM101.446 44.0625V48H100.44V41.4545H101.412V42.4773H101.497C101.65 42.1449 101.883 41.8778 102.196 41.6761C102.508 41.4716 102.912 41.3693 103.406 41.3693C103.849 41.3693 104.237 41.4602 104.569 41.642C104.902 41.821 105.16 42.0938 105.345 42.4602C105.529 42.8239 105.622 43.2841 105.622 43.8409V48H104.616V43.9091C104.616 43.3949 104.483 42.9943 104.216 42.7074C103.949 42.4176 103.582 42.2727 103.116 42.2727C102.795 42.2727 102.508 42.3423 102.255 42.4815C102.005 42.6207 101.808 42.8239 101.663 43.0909C101.518 43.358 101.446 43.6818 101.446 44.0625ZM110.119 48.1364C109.505 48.1364 108.977 47.9915 108.533 47.7017C108.09 47.4119 107.749 47.0128 107.511 46.5043C107.272 45.9957 107.153 45.4148 107.153 44.7614C107.153 44.0966 107.275 43.5099 107.519 43.0014C107.766 42.4901 108.11 42.0909 108.55 41.804C108.994 41.5142 109.511 41.3693 110.102 41.3693C110.562 41.3693 110.977 41.4545 111.346 41.625C111.715 41.7955 112.018 42.0341 112.254 42.3409C112.489 42.6477 112.636 43.0057 112.692 43.4148H111.687C111.61 43.1165 111.44 42.8523 111.175 42.6222C110.914 42.3892 110.562 42.2727 110.119 42.2727C109.727 42.2727 109.383 42.375 109.087 42.5795C108.795 42.7812 108.566 43.0668 108.401 43.4361C108.239 43.8026 108.158 44.233 108.158 44.7273C108.158 45.233 108.238 45.6733 108.397 46.0483C108.559 46.4233 108.786 46.7145 109.079 46.9219C109.374 47.1293 109.721 47.233 110.119 47.233C110.38 47.233 110.617 47.1875 110.83 47.0966C111.043 47.0057 111.224 46.875 111.371 46.7045C111.519 46.5341 111.624 46.3295 111.687 46.0909H112.692C112.636 46.4773 112.495 46.8253 112.271 47.1349C112.049 47.4418 111.755 47.6861 111.388 47.8679C111.025 48.0469 110.602 48.1364 110.119 48.1364ZM116.907 48.1364C116.276 48.1364 115.732 47.9972 115.275 47.7188C114.82 47.4375 114.469 47.0455 114.222 46.5426C113.978 46.0369 113.856 45.4489 113.856 44.7784C113.856 44.108 113.978 43.517 114.222 43.0057C114.469 42.4915 114.813 42.0909 115.254 41.804C115.697 41.5142 116.214 41.3693 116.805 41.3693C117.146 41.3693 117.482 41.4261 117.815 41.5398C118.147 41.6534 118.45 41.8381 118.722 42.0938C118.995 42.3466 119.212 42.6818 119.374 43.0994C119.536 43.517 119.617 44.0312 119.617 44.642V45.0682H114.572V44.1989H118.594C118.594 43.8295 118.521 43.5 118.373 43.2102C118.228 42.9205 118.021 42.6918 117.751 42.5241C117.484 42.3565 117.168 42.2727 116.805 42.2727C116.404 42.2727 116.058 42.3722 115.765 42.571C115.475 42.767 115.252 43.0227 115.096 43.3381C114.94 43.6534 114.862 43.9915 114.862 44.3523V44.9318C114.862 45.4261 114.947 45.8452 115.117 46.1889C115.29 46.5298 115.531 46.7898 115.837 46.9688C116.144 47.1449 116.501 47.233 116.907 47.233C117.171 47.233 117.41 47.196 117.623 47.1222C117.839 47.0455 118.025 46.9318 118.181 46.7812C118.337 46.6278 118.458 46.4375 118.543 46.2102L119.515 46.483C119.413 46.8125 119.241 47.1023 118.999 47.3523C118.758 47.5994 118.46 47.7926 118.104 47.9318C117.749 48.0682 117.35 48.1364 116.907 48.1364ZM124.658 48V39.2727H125.664V42.4943H125.749C125.823 42.3807 125.925 42.2358 126.056 42.0597C126.19 41.8807 126.38 41.7216 126.627 41.5824C126.877 41.4403 127.215 41.3693 127.641 41.3693C128.192 41.3693 128.678 41.5071 129.099 41.7827C129.519 42.0582 129.847 42.4489 130.083 42.9545C130.319 43.4602 130.437 44.0568 130.437 44.7443C130.437 45.4375 130.319 46.0384 130.083 46.5469C129.847 47.0526 129.521 47.4446 129.103 47.723C128.685 47.9986 128.204 48.1364 127.658 48.1364C127.238 48.1364 126.901 48.0668 126.648 47.9276C126.396 47.7855 126.201 47.625 126.065 47.446C125.928 47.2642 125.823 47.1136 125.749 46.9943H125.63V48H124.658ZM125.647 44.7273C125.647 45.2216 125.719 45.6577 125.864 46.0355C126.009 46.4105 126.221 46.7045 126.499 46.9176C126.778 47.1278 127.119 47.233 127.522 47.233C127.942 47.233 128.293 47.1222 128.575 46.9006C128.859 46.6761 129.072 46.375 129.214 45.9972C129.359 45.6165 129.431 45.1932 129.431 44.7273C129.431 44.267 129.36 43.8523 129.218 43.483C129.079 43.1108 128.867 42.8168 128.583 42.6009C128.302 42.3821 127.948 42.2727 127.522 42.2727C127.113 42.2727 126.769 42.3764 126.491 42.5838C126.212 42.7884 126.002 43.0753 125.86 43.4446C125.718 43.8111 125.647 44.2386 125.647 44.7273ZM132.388 50.4545C132.218 50.4545 132.066 50.4403 131.933 50.4119C131.799 50.3864 131.707 50.3608 131.656 50.3352L131.911 49.4489C132.156 49.5114 132.371 49.5341 132.559 49.517C132.746 49.5 132.913 49.4162 133.058 49.2656C133.205 49.1179 133.34 48.8778 133.462 48.5455L133.65 48.0341L131.229 41.4545H132.32L134.127 46.6705H134.195L136.002 41.4545H137.093L134.315 48.9545C134.19 49.2926 134.035 49.5724 133.85 49.794C133.665 50.0185 133.451 50.1847 133.207 50.2926C132.965 50.4006 132.692 50.4545 132.388 50.4545ZM146.705 41.4545C146.653 41.0227 146.446 40.6875 146.082 40.4489C145.719 40.2102 145.273 40.0909 144.744 40.0909C144.358 40.0909 144.02 40.1534 143.73 40.2784C143.443 40.4034 143.219 40.5753 143.057 40.794C142.898 41.0128 142.818 41.2614 142.818 41.5398C142.818 41.7727 142.874 41.973 142.984 42.1406C143.098 42.3054 143.243 42.4432 143.419 42.554C143.595 42.6619 143.78 42.7514 143.973 42.8224C144.166 42.8906 144.344 42.946 144.506 42.9886L145.392 43.2273C145.619 43.2869 145.872 43.3693 146.151 43.4744C146.432 43.5795 146.7 43.723 146.956 43.9048C147.214 44.0838 147.428 44.3139 147.595 44.5952C147.763 44.8764 147.847 45.2216 147.847 45.6307C147.847 46.1023 147.723 46.5284 147.476 46.9091C147.232 47.2898 146.874 47.5923 146.402 47.8168C145.933 48.0412 145.364 48.1534 144.693 48.1534C144.068 48.1534 143.527 48.0526 143.07 47.8509C142.615 47.6491 142.257 47.3679 141.996 47.0071C141.737 46.6463 141.591 46.2273 141.557 45.75H142.648C142.676 46.0795 142.787 46.3523 142.98 46.5682C143.176 46.7812 143.423 46.9403 143.722 47.0455C144.023 47.1477 144.347 47.1989 144.693 47.1989C145.097 47.1989 145.459 47.1335 145.78 47.0028C146.101 46.8693 146.355 46.6847 146.543 46.4489C146.73 46.2102 146.824 45.9318 146.824 45.6136C146.824 45.3239 146.743 45.0881 146.581 44.9062C146.419 44.7244 146.206 44.5767 145.942 44.4631C145.678 44.3494 145.392 44.25 145.085 44.1648L144.011 43.858C143.33 43.6619 142.79 43.3821 142.392 43.0185C141.994 42.6548 141.795 42.179 141.795 41.5909C141.795 41.1023 141.928 40.6761 142.192 40.3125C142.459 39.946 142.817 39.6619 143.266 39.4602C143.717 39.2557 144.222 39.1534 144.778 39.1534C145.341 39.1534 145.841 39.2543 146.278 39.456C146.716 39.6548 147.063 39.9276 147.318 40.2741C147.577 40.6207 147.713 41.0142 147.727 41.4545H146.705ZM153.573 45.3239V41.4545H154.578V48H153.573V46.892H153.505C153.351 47.2244 153.113 47.5071 152.789 47.7401C152.465 47.9702 152.056 48.0852 151.561 48.0852C151.152 48.0852 150.789 47.9957 150.471 47.8168C150.152 47.6349 149.902 47.3622 149.721 46.9986C149.539 46.6321 149.448 46.1705 149.448 45.6136V41.4545H150.453V45.5455C150.453 46.0227 150.587 46.4034 150.854 46.6875C151.124 46.9716 151.468 47.1136 151.885 47.1136C152.135 47.1136 152.39 47.0497 152.648 46.9219C152.909 46.794 153.128 46.598 153.304 46.3338C153.483 46.0696 153.573 45.733 153.573 45.3239ZM156.557 48V39.2727H157.562V42.4943H157.648C157.722 42.3807 157.824 42.2358 157.955 42.0597C158.088 41.8807 158.278 41.7216 158.526 41.5824C158.776 41.4403 159.114 41.3693 159.54 41.3693C160.091 41.3693 160.577 41.5071 160.997 41.7827C161.418 42.0582 161.746 42.4489 161.982 42.9545C162.217 43.4602 162.335 44.0568 162.335 44.7443C162.335 45.4375 162.217 46.0384 161.982 46.5469C161.746 47.0526 161.419 47.4446 161.001 47.723C160.584 47.9986 160.102 48.1364 159.557 48.1364C159.136 48.1364 158.8 48.0668 158.547 47.9276C158.294 47.7855 158.099 47.625 157.963 47.446C157.827 47.2642 157.722 47.1136 157.648 46.9943H157.528V48H156.557ZM157.545 44.7273C157.545 45.2216 157.618 45.6577 157.763 46.0355C157.908 46.4105 158.119 46.7045 158.398 46.9176C158.676 47.1278 159.017 47.233 159.42 47.233C159.841 47.233 160.192 47.1222 160.473 46.9006C160.757 46.6761 160.97 46.375 161.112 45.9972C161.257 45.6165 161.33 45.1932 161.33 44.7273C161.33 44.267 161.259 43.8523 161.116 43.483C160.977 43.1108 160.766 42.8168 160.482 42.6009C160.2 42.3821 159.847 42.2727 159.42 42.2727C159.011 42.2727 158.668 42.3764 158.389 42.5838C158.111 42.7884 157.901 43.0753 157.759 43.4446C157.616 43.8111 157.545 44.2386 157.545 44.7273ZM168.783 41.4545C168.732 41.0227 168.524 40.6875 168.161 40.4489C167.797 40.2102 167.351 40.0909 166.822 40.0909C166.436 40.0909 166.098 40.1534 165.808 40.2784C165.521 40.4034 165.297 40.5753 165.135 40.794C164.976 41.0128 164.896 41.2614 164.896 41.5398C164.896 41.7727 164.952 41.973 165.062 42.1406C165.176 42.3054 165.321 42.4432 165.497 42.554C165.673 42.6619 165.858 42.7514 166.051 42.8224C166.244 42.8906 166.422 42.946 166.584 42.9886L167.47 43.2273C167.697 43.2869 167.95 43.3693 168.229 43.4744C168.51 43.5795 168.778 43.723 169.034 43.9048C169.293 44.0838 169.506 44.3139 169.673 44.5952C169.841 44.8764 169.925 45.2216 169.925 45.6307C169.925 46.1023 169.801 46.5284 169.554 46.9091C169.31 47.2898 168.952 47.5923 168.48 47.8168C168.011 48.0412 167.442 48.1534 166.771 48.1534C166.146 48.1534 165.605 48.0526 165.148 47.8509C164.693 47.6491 164.335 47.3679 164.074 47.0071C163.815 46.6463 163.669 46.2273 163.635 45.75H164.726C164.754 46.0795 164.865 46.3523 165.058 46.5682C165.254 46.7812 165.501 46.9403 165.8 47.0455C166.101 47.1477 166.425 47.1989 166.771 47.1989C167.175 47.1989 167.537 47.1335 167.858 47.0028C168.179 46.8693 168.433 46.6847 168.621 46.4489C168.808 46.2102 168.902 45.9318 168.902 45.6136C168.902 45.3239 168.821 45.0881 168.659 44.9062C168.497 44.7244 168.284 44.5767 168.02 44.4631C167.756 44.3494 167.47 44.25 167.163 44.1648L166.089 43.858C165.408 43.6619 164.868 43.3821 164.47 43.0185C164.072 42.6548 163.874 42.179 163.874 41.5909C163.874 41.1023 164.006 40.6761 164.27 40.3125C164.537 39.946 164.895 39.6619 165.344 39.4602C165.795 39.2557 166.3 39.1534 166.857 39.1534C167.419 39.1534 167.919 39.2543 168.357 39.456C168.794 39.6548 169.141 39.9276 169.396 40.2741C169.655 40.6207 169.791 41.0142 169.805 41.4545H168.783ZM175.992 50.4545V46.9943H175.907C175.833 47.1136 175.728 47.2642 175.591 47.446C175.455 47.625 175.26 47.7855 175.007 47.9276C174.755 48.0668 174.418 48.1364 173.998 48.1364C173.452 48.1364 172.971 47.9986 172.553 47.723C172.135 47.4446 171.809 47.0526 171.573 46.5469C171.337 46.0384 171.219 45.4375 171.219 44.7443C171.219 44.0568 171.337 43.4602 171.573 42.9545C171.809 42.4489 172.137 42.0582 172.557 41.7827C172.978 41.5071 173.463 41.3693 174.015 41.3693C174.441 41.3693 174.777 41.4403 175.025 41.5824C175.275 41.7216 175.465 41.8807 175.596 42.0597C175.729 42.2358 175.833 42.3807 175.907 42.4943H176.026V41.4545H176.998V50.4545H175.992ZM174.134 47.233C174.537 47.233 174.878 47.1278 175.157 46.9176C175.435 46.7045 175.647 46.4105 175.792 46.0355C175.936 45.6577 176.009 45.2216 176.009 44.7273C176.009 44.2386 175.938 43.8111 175.796 43.4446C175.654 43.0753 175.444 42.7884 175.165 42.5838C174.887 42.3764 174.543 42.2727 174.134 42.2727C173.708 42.2727 173.353 42.3821 173.069 42.6009C172.787 42.8168 172.576 43.1108 172.434 43.483C172.294 43.8523 172.225 44.267 172.225 44.7273C172.225 45.1932 172.296 45.6165 172.438 45.9972C172.583 46.375 172.796 46.6761 173.077 46.9006C173.361 47.1222 173.713 47.233 174.134 47.233ZM182.963 45.3239V41.4545H183.969V48H182.963V46.892H182.895C182.742 47.2244 182.503 47.5071 182.179 47.7401C181.855 47.9702 181.446 48.0852 180.952 48.0852C180.543 48.0852 180.179 47.9957 179.861 47.8168C179.543 47.6349 179.293 47.3622 179.111 46.9986C178.929 46.6321 178.838 46.1705 178.838 45.6136V41.4545H179.844V45.5455C179.844 46.0227 179.978 46.4034 180.245 46.6875C180.515 46.9716 180.858 47.1136 181.276 47.1136C181.526 47.1136 181.78 47.0497 182.039 46.9219C182.3 46.794 182.519 46.598 182.695 46.3338C182.874 46.0696 182.963 45.733 182.963 45.3239ZM187.737 48.1534C187.322 48.1534 186.946 48.0753 186.608 47.919C186.27 47.7599 186.001 47.5312 185.803 47.233C185.604 46.9318 185.504 46.5682 185.504 46.142C185.504 45.767 185.578 45.4631 185.726 45.2301C185.874 44.9943 186.071 44.8097 186.318 44.6761C186.565 44.5426 186.838 44.4432 187.136 44.3778C187.438 44.3097 187.74 44.2557 188.044 44.2159C188.442 44.1648 188.764 44.1264 189.011 44.1009C189.261 44.0724 189.443 44.0256 189.557 43.9602C189.673 43.8949 189.732 43.7812 189.732 43.6193V43.5852C189.732 43.1648 189.616 42.8381 189.386 42.6051C189.159 42.3722 188.814 42.2557 188.351 42.2557C187.871 42.2557 187.494 42.3608 187.222 42.571C186.949 42.7812 186.757 43.0057 186.646 43.2443L185.692 42.9034C185.862 42.5057 186.089 42.196 186.374 41.9744C186.661 41.75 186.973 41.5937 187.311 41.5057C187.652 41.4148 187.987 41.3693 188.317 41.3693C188.527 41.3693 188.768 41.3949 189.041 41.446C189.317 41.4943 189.582 41.5952 189.838 41.7486C190.097 41.902 190.311 42.1335 190.482 42.4432C190.652 42.7528 190.737 43.1676 190.737 43.6875V48H189.732V47.1136H189.68C189.612 47.2557 189.499 47.4077 189.339 47.5696C189.18 47.7315 188.969 47.8693 188.705 47.983C188.44 48.0966 188.118 48.1534 187.737 48.1534ZM187.891 47.25C188.288 47.25 188.624 47.1719 188.896 47.0156C189.172 46.8594 189.379 46.6577 189.518 46.4105C189.661 46.1634 189.732 45.9034 189.732 45.6307V44.7102C189.689 44.7614 189.595 44.8082 189.45 44.8509C189.308 44.8906 189.143 44.9261 188.956 44.9574C188.771 44.9858 188.591 45.0114 188.415 45.0341C188.241 45.054 188.101 45.071 187.993 45.0852C187.732 45.1193 187.487 45.1747 187.26 45.2514C187.036 45.3253 186.854 45.4375 186.714 45.5881C186.578 45.7358 186.51 45.9375 186.51 46.1932C186.51 46.5426 186.639 46.8068 186.898 46.9858C187.159 47.1619 187.49 47.25 187.891 47.25ZM192.573 48V41.4545H193.544V42.4432H193.613C193.732 42.1193 193.948 41.8565 194.26 41.6548C194.573 41.4531 194.925 41.3523 195.317 41.3523C195.391 41.3523 195.483 41.3537 195.594 41.3565C195.705 41.3594 195.789 41.3636 195.846 41.3693V42.392C195.811 42.3835 195.733 42.3707 195.611 42.3537C195.492 42.3338 195.365 42.3239 195.232 42.3239C194.914 42.3239 194.63 42.3906 194.38 42.5241C194.132 42.6548 193.936 42.8366 193.792 43.0696C193.65 43.2997 193.578 43.5625 193.578 43.858V48H192.573ZM199.583 48.1364C198.952 48.1364 198.408 47.9972 197.951 47.7188C197.496 47.4375 197.145 47.0455 196.898 46.5426C196.654 46.0369 196.532 45.4489 196.532 44.7784C196.532 44.108 196.654 43.517 196.898 43.0057C197.145 42.4915 197.489 42.0909 197.929 41.804C198.373 41.5142 198.89 41.3693 199.48 41.3693C199.821 41.3693 200.158 41.4261 200.49 41.5398C200.823 41.6534 201.125 41.8381 201.398 42.0938C201.671 42.3466 201.888 42.6818 202.05 43.0994C202.212 43.517 202.293 44.0312 202.293 44.642V45.0682H197.248V44.1989H201.27C201.27 43.8295 201.196 43.5 201.049 43.2102C200.904 42.9205 200.696 42.6918 200.426 42.5241C200.159 42.3565 199.844 42.2727 199.48 42.2727C199.08 42.2727 198.733 42.3722 198.441 42.571C198.151 42.767 197.928 43.0227 197.772 43.3381C197.615 43.6534 197.537 43.9915 197.537 44.3523V44.9318C197.537 45.4261 197.623 45.8452 197.793 46.1889C197.966 46.5298 198.206 46.7898 198.513 46.9688C198.82 47.1449 199.176 47.233 199.583 47.233C199.847 47.233 200.086 47.196 200.299 47.1222C200.515 47.0455 200.701 46.9318 200.857 46.7812C201.013 46.6278 201.134 46.4375 201.219 46.2102L202.191 46.483C202.088 46.8125 201.917 47.1023 201.675 47.3523C201.434 47.5994 201.135 47.7926 200.78 47.9318C200.425 48.0682 200.026 48.1364 199.583 48.1364Z" fill="#9DA9BB"/>
<defs>
<linearGradient id="paint0_linear_13417_71057" x1="20" y1="52" x2="20" y2="12" gradientUnits="userSpaceOnUse">
<stop stop-color="#F6F7FA"/>
<stop offset="1" stop-color="white"/>
</linearGradient>
<linearGradient id="paint1_linear_13417_71057" x1="26.717" y1="39.1766" x2="39.3977" y2="39.1862" gradientUnits="userSpaceOnUse">
<stop stop-color="#F79420" stop-opacity="0.92"/>
<stop offset="1" stop-color="#C4C4C4" stop-opacity="0"/>
</linearGradient>
<clipPath id="clip0_13417_71057">
<rect width="40" height="40" fill="white" transform="translate(0 12)"/>
</clipPath>
</defs>
</svg>
