<svg width="248" height="64" viewBox="0 0 248 64" fill="none" xmlns="http://www.w3.org/2000/svg">
    <path fill-rule="evenodd" clip-rule="evenodd"
          d="M62.6366 26.992L62.6527 28.1635H64.4403H66.2278L66.2439 26.992L66.26 25.8206H64.4403H62.6205L62.6366 26.992ZM95.1098 26.992L95.1259 28.1635H96.9134H98.7009L98.7171 26.992L98.7332 25.8206H96.9134H95.0937L95.1098 26.992ZM41.7686 27.5847V28.8288H44.1222C45.4166 28.8288 46.4757 28.8421 46.4757 28.8583C46.4757 28.8746 46.3868 29.0112 46.2782 29.162C46.1695 29.3128 45.896 29.6966 45.6704 30.0147C45.4448 30.3329 44.6839 31.4003 43.9794 32.3866C43.275 33.373 42.4358 34.5502 42.1144 35.0027L41.5303 35.8255V36.637V37.4485H46.2672H51.0041V36.2054V34.9622L48.5067 34.9471L46.0093 34.932L46.6849 33.9775C47.0564 33.4525 47.758 32.4646 48.2438 31.7822C49.3225 30.267 49.7996 29.5927 50.4488 28.6657L50.9479 27.9529L50.9313 27.1615L50.9147 26.3701L46.3417 26.3553L41.7686 26.3405V27.5847ZM69.9086 27.1966L68.2864 27.5779L68.2701 28.4203L68.2536 29.2627L67.7025 29.2793L67.1513 29.2959V30.4775V31.6591L67.7025 31.6757L68.2536 31.6924L68.2889 33.5726C68.3267 35.5876 68.3483 35.7497 68.6519 36.3028C68.9884 36.9157 69.5797 37.3367 70.3727 37.5278C71.167 37.7193 72.8278 37.6266 73.5367 37.3511L73.7651 37.2624V36.1912V35.1201L73.5715 35.1602C72.805 35.319 72.2047 35.2925 71.9193 35.0871C71.6583 34.8994 71.6271 34.6922 71.6234 33.1257L71.6201 31.6665L72.5288 31.6505L73.4374 31.6346L73.497 30.4643L73.5566 29.2941L72.6032 29.2784L71.6499 29.2627L71.6338 28.0333C71.625 27.3572 71.5982 26.8066 71.5742 26.8097C71.5503 26.8128 70.8008 26.9869 69.9086 27.1966ZM111.141 27.1975L109.518 27.5773L109.502 28.42L109.486 29.2627L108.934 29.2793L108.383 29.2959V30.4797V31.6635H108.949H109.515V33.3361C109.515 35.6155 109.631 36.143 110.277 36.8C110.647 37.1757 110.999 37.3656 111.602 37.5137C112.035 37.62 112.217 37.6317 113.056 37.6072C113.833 37.5844 114.104 37.5531 114.491 37.4415L114.967 37.3039L114.984 36.2126L115 35.1213L114.835 35.1629C114.224 35.3167 113.482 35.2922 113.193 35.1089C112.904 34.9249 112.884 34.8061 112.864 33.1821L112.845 31.6635H113.764H114.684L114.723 30.8391C114.744 30.3857 114.778 29.8527 114.797 29.6546L114.832 29.2945L113.857 29.2786L112.882 29.2627L112.866 28.0333C112.857 27.3572 112.83 26.8071 112.806 26.8108C112.782 26.8146 112.033 26.9886 111.141 27.1975ZM55.3239 29.1556C55.2256 29.1703 54.9173 29.2483 54.6387 29.329C53.1388 29.7635 52.2269 30.7717 51.9254 32.3288C51.7866 33.0458 51.8296 34.1875 52.0169 34.7585C52.448 36.0724 53.2826 36.8805 54.6685 37.3258C55.4726 37.5842 56.0237 37.6413 57.3691 37.6054C58.6034 37.5725 59.2632 37.474 59.9566 37.2191L60.2992 37.0931V36.1138C60.2992 35.5752 60.2924 35.1349 60.2843 35.1353C60.2761 35.1357 60.0951 35.1892 59.8821 35.2542C59.029 35.5146 57.4555 35.6202 56.5454 35.4782C56.0675 35.4035 55.5667 35.1879 55.304 34.9434C55.1065 34.7597 54.9366 34.5016 54.9366 34.3854C54.9366 34.3438 55.8575 34.3246 57.8562 34.3246H60.7758V33.3738C60.7758 32.0121 60.623 31.4016 60.0946 30.6531C59.6579 30.0346 58.9117 29.554 57.9754 29.2882C57.608 29.1839 57.3485 29.1585 56.5156 29.1452C55.9585 29.1364 55.4222 29.1411 55.3239 29.1556ZM77.6977 29.1547C76.3623 29.3212 75.2941 29.924 74.8821 30.7436C74.4942 31.5151 74.46 32.6486 74.8027 33.3753C74.9734 33.7375 75.2934 34.0911 75.6465 34.3077C75.7914 34.3965 75.91 34.4862 75.91 34.507C75.9101 34.5277 75.8364 34.5704 75.7463 34.6018C75.4852 34.6928 75.0911 34.9991 74.9287 35.2373C74.7099 35.5584 74.6292 36.0187 74.7186 36.4366C74.7798 36.7231 74.8374 36.8195 75.099 37.0735C75.6547 37.613 76.3307 37.7378 78.6981 37.7378C80.193 37.7378 80.3889 37.7601 80.4594 37.9387C80.6185 38.3412 79.7482 38.531 78.0254 38.4696C76.789 38.4256 75.4532 38.2454 74.9419 38.0538C74.845 38.0175 74.8376 38.088 74.8376 39.0577V40.1007L75.0313 40.1616C75.6409 40.3533 77.2687 40.5142 78.6033 40.5145C80.6589 40.5149 82.047 40.1587 82.7861 39.441C83.8176 38.4395 83.493 36.5715 82.1828 35.9697C81.6185 35.7105 81.1903 35.6573 79.6604 35.6562C78.1148 35.6551 78.0291 35.6379 78.0649 35.337C78.0792 35.217 78.1445 35.1353 78.2935 35.0506C78.483 34.9428 78.6078 34.9314 79.6639 34.9252C80.5489 34.92 80.9099 34.8954 81.1785 34.8221C82.454 34.4742 83.1172 33.6159 83.126 32.3012C83.1283 31.9603 83.0978 31.7765 83.0053 31.5734C82.9372 31.424 82.8814 31.292 82.8814 31.2801C82.8814 31.2682 83.1186 31.2585 83.4085 31.2585H83.9357L83.9746 30.5552C83.996 30.1684 84.0135 29.7259 84.0135 29.5718V29.2916L82.3899 29.2902C81.4839 29.2895 80.6609 29.2627 80.5279 29.2297C80.2796 29.1681 78.0615 29.1093 77.6977 29.1547ZM88.0508 29.1779C86.7421 29.3917 85.6732 30.1183 85.1547 31.1462C84.8071 31.8355 84.7205 32.2034 84.6853 33.1402C84.647 34.1562 84.7425 34.6578 85.1162 35.4042C85.6837 36.5379 86.7583 37.2493 88.341 37.5389C88.772 37.6178 89.1007 37.6299 90.1209 37.6045C91.4401 37.5717 92.0799 37.4792 92.7873 37.2191L93.1299 37.0931V36.1138C93.1299 35.5752 93.1232 35.1349 93.115 35.1353C93.1067 35.1357 92.9258 35.1892 92.7128 35.2542C91.8597 35.5146 90.2862 35.6202 89.3761 35.4782C88.8982 35.4035 88.3974 35.1879 88.1346 34.9434C87.9372 34.7597 87.7673 34.5016 87.7673 34.3854C87.7673 34.3438 88.6882 34.3246 90.6869 34.3246H93.6065V33.3966C93.6065 32.2684 93.5121 31.7526 93.1869 31.1039C92.674 30.0807 91.6334 29.3943 90.2698 29.1798C89.8274 29.1102 88.4718 29.109 88.0508 29.1779ZM102.693 29.1786C101.773 29.3168 101.085 29.6113 100.614 30.0686C100.145 30.5242 100.015 30.8769 100.013 31.6924C100.012 32.2638 100.029 32.3628 100.173 32.6626C100.555 33.4561 101.304 33.8796 103.415 34.4959C103.747 34.5927 104.089 34.7259 104.175 34.7918C104.376 34.9458 104.38 35.1589 104.183 35.2844C104.055 35.3657 103.889 35.3752 103.006 35.3522C101.947 35.3246 101.297 35.2216 100.53 34.9597C100.346 34.8968 100.174 34.8453 100.148 34.8453C100.122 34.8453 100.101 35.3649 100.101 36V37.1548L100.408 37.2433C100.873 37.3773 101.502 37.4952 102.148 37.5691C102.915 37.6569 104.873 37.605 105.434 37.4819C105.999 37.3581 106.794 36.9703 107.107 36.6656C107.639 36.15 107.869 35.3913 107.739 34.5825C107.548 33.3885 107.002 32.974 104.778 32.3338C103.895 32.0794 103.617 31.9757 103.512 31.8612C103.408 31.7479 103.391 31.6899 103.437 31.6068C103.535 31.4299 103.871 31.3651 104.704 31.3631C105.535 31.361 106.258 31.4609 106.856 31.6608L107.192 31.7729V30.6249V29.4768L106.76 29.3866C106.522 29.3371 106.167 29.2668 105.97 29.2304C105.511 29.1455 103.161 29.1083 102.693 29.1786ZM61.9436 29.5085C61.8845 29.8813 61.7366 31.1015 61.7176 31.3742L61.6994 31.6346L62.3101 31.651L62.9209 31.6675V34.558V37.4485H64.5892H66.2576V33.3701V29.2916H64.1178H61.978L61.9436 29.5085ZM94.4144 29.4218C94.3536 29.6986 94.1541 31.5766 94.181 31.6189C94.1966 31.6434 94.4759 31.6635 94.8017 31.6635H95.394V34.556V37.4485H97.0624H98.7307V33.3701V29.2916H96.5869H94.443L94.4144 29.4218ZM79.365 30.9153C80.0661 31.0257 80.3654 31.4198 80.3048 32.1527C80.2669 32.6108 80.1265 32.8577 79.8129 33.0173C79.6148 33.1181 79.4688 33.1387 78.9489 33.1387C78.4222 33.1387 78.2807 33.1183 78.0538 33.0097C77.6609 32.8217 77.5487 32.6062 77.5487 32.0395C77.5487 31.3299 77.7975 31.0212 78.4561 30.9136C78.8622 30.8473 78.9341 30.8474 79.365 30.9153ZM57.32 31.3392C57.4675 31.4099 57.6467 31.5522 57.7182 31.6554C57.8503 31.8455 57.9613 32.413 57.8888 32.5268C57.8623 32.5685 57.3678 32.5891 56.3929 32.5891H54.9366V32.3558C54.9366 31.9383 55.1866 31.5206 55.5446 31.3397C55.9724 31.1236 56.8703 31.1233 57.32 31.3392ZM89.9617 31.2596C90.3163 31.3489 90.556 31.5775 90.6602 31.9253C90.7121 32.0987 90.746 32.3125 90.7357 32.4004L90.7167 32.5602L89.261 32.5757C88.4603 32.5842 87.7857 32.5712 87.7618 32.5467C87.6851 32.4682 87.8178 31.886 87.9576 31.6879C88.2835 31.2261 89.1201 31.0473 89.9617 31.2596Z"
          fill="white"/>
    <path d="M32 31.9603H0.0283696C0.10513 33.2559 0.336176 34.5099 0.703407 35.7044L14.4626 35.7042L15.3236 34.5202H31.6395C31.8262 33.6895 31.9482 32.8344 32 31.9603Z"
          fill="white"/>
    <path d="M30.5956 37.6244H1.43272C2.05302 38.9852 2.85854 40.2439 3.8171 41.3685L10.3438 41.3683L11.2047 40.1843H29.1289C29.6928 39.382 30.1848 38.5256 30.5956 37.6244Z"
          fill="white"/>
    <path d="M26.2705 43.2885H5.75782C8.53604 45.6057 12.1121 47 16.0142 47C19.9162 47 23.4923 45.6057 26.2705 43.2885Z"
          fill="white"/>
    <path d="M0.0283308 30.0403C0.105038 28.7448 0.33603 27.4908 0.703206 26.2963H31.3251C31.5793 27.123 31.7682 27.9783 31.8858 28.8562H19.4424L18.5814 30.0402L0.0283308 30.0403Z"
          fill="white"/>
    <path d="M22.7002 24.3761L23.5612 23.1921H29.9954C29.484 22.28 28.8859 21.4231 28.212 20.6325H3.81629C2.85794 21.757 2.05259 23.0156 1.43242 24.3763L22.7002 24.3761Z"
          fill="white"/>
    <path d="M5.75668 18.7125H26.2717C23.4933 16.3947 19.9167 15 16.0142 15C12.1116 15 8.53506 16.3947 5.75668 18.7125Z"
          fill="white"/>
    <path d="M0.000148678 30.9303C4.95926e-05 30.9535 0 30.9768 0 31C0 31.0232 4.95926e-05 31.0465 0.000148678 31.0697V30.9303Z"
          fill="white"/>
    <path d="M131 25V37" stroke="white" stroke-opacity="0.2"/>
    <path d="M155.896 24.224H158.264V28.768C157.656 29.2267 156.952 29.5787 156.152 29.824C155.352 30.0693 154.547 30.192 153.736 30.192C152.573 30.192 151.528 29.9467 150.6 29.456C149.672 28.9547 148.941 28.2667 148.408 27.392C147.885 26.5067 147.624 25.5093 147.624 24.4C147.624 23.2907 147.885 22.2987 148.408 21.424C148.941 20.5387 149.677 19.8507 150.616 19.36C151.555 18.8587 152.611 18.608 153.784 18.608C154.765 18.608 155.656 18.7733 156.456 19.104C157.256 19.4347 157.928 19.9147 158.472 20.544L156.808 22.08C156.008 21.2373 155.043 20.816 153.912 20.816C153.197 20.816 152.563 20.9653 152.008 21.264C151.453 21.5627 151.021 21.984 150.712 22.528C150.403 23.072 150.248 23.696 150.248 24.4C150.248 25.0933 150.403 25.712 150.712 26.256C151.021 26.8 151.448 27.2267 151.992 27.536C152.547 27.8347 153.176 27.984 153.88 27.984C154.627 27.984 155.299 27.824 155.896 27.504V24.224ZM164.592 30.128C163.685 30.128 162.869 29.9413 162.144 29.568C161.429 29.184 160.869 28.656 160.464 27.984C160.058 27.312 159.856 26.5493 159.856 25.696C159.856 24.8427 160.058 24.08 160.464 23.408C160.869 22.736 161.429 22.2133 162.144 21.84C162.869 21.456 163.685 21.264 164.592 21.264C165.498 21.264 166.309 21.456 167.024 21.84C167.738 22.2133 168.298 22.736 168.704 23.408C169.109 24.08 169.312 24.8427 169.312 25.696C169.312 26.5493 169.109 27.312 168.704 27.984C168.298 28.656 167.738 29.184 167.024 29.568C166.309 29.9413 165.498 30.128 164.592 30.128ZM164.592 28.08C165.232 28.08 165.754 27.8667 166.16 27.44C166.576 27.0027 166.784 26.4213 166.784 25.696C166.784 24.9707 166.576 24.3947 166.16 23.968C165.754 23.5307 165.232 23.312 164.592 23.312C163.952 23.312 163.424 23.5307 163.008 23.968C162.592 24.3947 162.384 24.9707 162.384 25.696C162.384 26.4213 162.592 27.0027 163.008 27.44C163.424 27.8667 163.952 28.08 164.592 28.08ZM179.29 21.392L175.658 30H173.082L169.466 21.392H172.042L174.426 27.248L176.89 21.392H179.29ZM188.506 25.728C188.506 25.76 188.49 25.984 188.458 26.4H181.946C182.063 26.9333 182.341 27.3547 182.778 27.664C183.215 27.9733 183.759 28.128 184.41 28.128C184.858 28.128 185.253 28.064 185.594 27.936C185.946 27.7973 186.271 27.584 186.57 27.296L187.898 28.736C187.087 29.664 185.903 30.128 184.346 30.128C183.375 30.128 182.517 29.9413 181.77 29.568C181.023 29.184 180.447 28.656 180.042 27.984C179.637 27.312 179.434 26.5493 179.434 25.696C179.434 24.8533 179.631 24.096 180.026 23.424C180.431 22.7413 180.981 22.2133 181.674 21.84C182.378 21.456 183.162 21.264 184.026 21.264C184.869 21.264 185.631 21.4453 186.314 21.808C186.997 22.1707 187.53 22.6933 187.914 23.376C188.309 24.048 188.506 24.832 188.506 25.728ZM184.042 23.152C183.477 23.152 183.002 23.312 182.618 23.632C182.234 23.952 181.999 24.3893 181.914 24.944H186.154C186.069 24.4 185.834 23.968 185.45 23.648C185.066 23.3173 184.597 23.152 184.042 23.152ZM192.552 22.528C192.85 22.112 193.25 21.7973 193.752 21.584C194.264 21.3707 194.85 21.264 195.512 21.264V23.568C195.234 23.5467 195.048 23.536 194.952 23.536C194.237 23.536 193.677 23.7387 193.272 24.144C192.866 24.5387 192.664 25.136 192.664 25.936V30H190.168V21.392H192.552V22.528ZM202.228 21.264C203.294 21.264 204.153 21.584 204.804 22.224C205.465 22.864 205.796 23.8133 205.796 25.072V30H203.3V25.456C203.3 24.7733 203.15 24.2667 202.852 23.936C202.553 23.5947 202.121 23.424 201.556 23.424C200.926 23.424 200.425 23.6213 200.052 24.016C199.678 24.4 199.492 24.976 199.492 25.744V30H196.996V21.392H199.38V22.4C199.71 22.0373 200.121 21.76 200.612 21.568C201.102 21.3653 201.641 21.264 202.228 21.264ZM211.53 21.264C212.864 21.264 213.888 21.584 214.602 22.224C215.317 22.8533 215.674 23.808 215.674 25.088V30H213.338V28.928C212.869 29.728 211.994 30.128 210.714 30.128C210.053 30.128 209.477 30.016 208.986 29.792C208.506 29.568 208.138 29.2587 207.882 28.864C207.626 28.4693 207.498 28.0213 207.498 27.52C207.498 26.72 207.797 26.0907 208.394 25.632C209.002 25.1733 209.936 24.944 211.194 24.944H213.178C213.178 24.4 213.013 23.984 212.682 23.696C212.352 23.3973 211.856 23.248 211.194 23.248C210.736 23.248 210.282 23.3227 209.834 23.472C209.397 23.6107 209.024 23.8027 208.714 24.048L207.818 22.304C208.288 21.9733 208.848 21.7173 209.498 21.536C210.16 21.3547 210.837 21.264 211.53 21.264ZM211.338 28.448C211.765 28.448 212.144 28.352 212.474 28.16C212.805 27.9573 213.04 27.664 213.178 27.28V26.4H211.466C210.442 26.4 209.93 26.736 209.93 27.408C209.93 27.728 210.053 27.984 210.298 28.176C210.554 28.3573 210.901 28.448 211.338 28.448ZM223.165 21.264C224.232 21.264 225.091 21.584 225.741 22.224C226.403 22.864 226.733 23.8133 226.733 25.072V30H224.237V25.456C224.237 24.7733 224.088 24.2667 223.789 23.936C223.491 23.5947 223.059 23.424 222.493 23.424C221.864 23.424 221.363 23.6213 220.989 24.016C220.616 24.4 220.429 24.976 220.429 25.744V30H217.933V21.392H220.317V22.4C220.648 22.0373 221.059 21.76 221.549 21.568C222.04 21.3653 222.579 21.264 223.165 21.264ZM233.25 30.128C232.332 30.128 231.506 29.9413 230.77 29.568C230.044 29.184 229.474 28.656 229.058 27.984C228.652 27.312 228.45 26.5493 228.45 25.696C228.45 24.8427 228.652 24.08 229.058 23.408C229.474 22.736 230.044 22.2133 230.77 21.84C231.506 21.456 232.332 21.264 233.25 21.264C234.156 21.264 234.946 21.456 235.618 21.84C236.3 22.2133 236.796 22.752 237.106 23.456L235.17 24.496C234.722 23.7067 234.076 23.312 233.234 23.312C232.583 23.312 232.044 23.5253 231.618 23.952C231.191 24.3787 230.978 24.96 230.978 25.696C230.978 26.432 231.191 27.0133 231.618 27.44C232.044 27.8667 232.583 28.08 233.234 28.08C234.087 28.08 234.732 27.6853 235.17 26.896L237.106 27.952C236.796 28.6347 236.3 29.168 235.618 29.552C234.946 29.936 234.156 30.128 233.25 30.128ZM246.865 25.728C246.865 25.76 246.849 25.984 246.817 26.4H240.305C240.423 26.9333 240.7 27.3547 241.137 27.664C241.575 27.9733 242.119 28.128 242.769 28.128C243.217 28.128 243.612 28.064 243.953 27.936C244.305 27.7973 244.631 27.584 244.929 27.296L246.257 28.736C245.447 29.664 244.263 30.128 242.705 30.128C241.735 30.128 240.876 29.9413 240.129 29.568C239.383 29.184 238.807 28.656 238.401 27.984C237.996 27.312 237.793 26.5493 237.793 25.696C237.793 24.8533 237.991 24.096 238.385 23.424C238.791 22.7413 239.34 22.2133 240.033 21.84C240.737 21.456 241.521 21.264 242.385 21.264C243.228 21.264 243.991 21.4453 244.673 21.808C245.356 22.1707 245.889 22.6933 246.273 23.376C246.668 24.048 246.865 24.832 246.865 25.728ZM242.401 23.152C241.836 23.152 241.361 23.312 240.977 23.632C240.593 23.952 240.359 24.3893 240.273 24.944H244.513C244.428 24.4 244.193 23.968 243.809 23.648C243.425 23.3173 242.956 23.152 242.401 23.152Z"
          fill="white"/>
    <path d="M151.858 39.5455C151.815 39.1856 151.643 38.9062 151.339 38.7074C151.036 38.5085 150.665 38.4091 150.224 38.4091C149.902 38.4091 149.621 38.4612 149.379 38.5653C149.14 38.6695 148.953 38.8127 148.818 38.995C148.686 39.1773 148.619 39.3845 148.619 39.6165C148.619 39.8106 148.665 39.9775 148.758 40.1172C148.853 40.2545 148.973 40.3693 149.12 40.4616C149.267 40.5516 149.421 40.6262 149.582 40.6854C149.743 40.7422 149.891 40.7884 150.026 40.8239L150.764 41.0227C150.954 41.0724 151.164 41.1411 151.396 41.2287C151.631 41.3163 151.854 41.4358 152.067 41.5874C152.283 41.7365 152.46 41.9283 152.6 42.1626C152.74 42.397 152.81 42.6847 152.81 43.0256C152.81 43.4186 152.707 43.7737 152.501 44.0909C152.297 44.4081 151.999 44.6603 151.606 44.8473C151.215 45.0343 150.741 45.1278 150.182 45.1278C149.661 45.1278 149.21 45.0438 148.829 44.8757C148.45 44.7076 148.152 44.4732 147.934 44.1726C147.719 43.8719 147.597 43.5227 147.568 43.125H148.477C148.501 43.3996 148.593 43.6269 148.754 43.8068C148.918 43.9844 149.124 44.117 149.372 44.2045C149.623 44.2898 149.893 44.3324 150.182 44.3324C150.518 44.3324 150.82 44.2779 151.087 44.169C151.355 44.0578 151.567 43.9039 151.723 43.7074C151.879 43.5085 151.957 43.2765 151.957 43.0114C151.957 42.7699 151.89 42.5734 151.755 42.4219C151.62 42.2704 151.442 42.1473 151.222 42.0526C151.002 41.9579 150.764 41.875 150.509 41.804L149.614 41.5483C149.045 41.3849 148.596 41.1518 148.264 40.8487C147.933 40.5457 147.767 40.1491 147.767 39.6591C147.767 39.2519 147.877 38.8968 148.097 38.5938C148.32 38.2884 148.618 38.0516 148.992 37.8835C149.369 37.7131 149.789 37.6278 150.253 37.6278C150.722 37.6278 151.138 37.7119 151.503 37.88C151.867 38.0457 152.156 38.273 152.369 38.5618C152.585 38.8506 152.698 39.1785 152.71 39.5455H151.858ZM157.581 42.7699V39.5455H158.42V45H157.581V44.0767H157.525C157.397 44.3537 157.198 44.5893 156.928 44.7834C156.658 44.9751 156.317 45.071 155.905 45.071C155.564 45.071 155.261 44.9964 154.996 44.8473C154.731 44.6958 154.523 44.4685 154.371 44.1655C154.22 43.8601 154.144 43.4754 154.144 43.0114V39.5455H154.982V42.9545C154.982 43.3523 155.093 43.6695 155.316 43.9062C155.541 44.143 155.827 44.2614 156.175 44.2614C156.384 44.2614 156.595 44.2081 156.811 44.1016C157.029 43.995 157.211 43.8317 157.358 43.6115C157.507 43.3913 157.581 43.1108 157.581 42.7699ZM160.068 45V37.7273H160.906V40.4119H160.977C161.039 40.3172 161.124 40.1965 161.233 40.0497C161.344 39.9006 161.503 39.768 161.709 39.652C161.917 39.5336 162.199 39.4744 162.554 39.4744C163.013 39.4744 163.418 39.5893 163.768 39.8189C164.119 40.0485 164.392 40.3741 164.589 40.7955C164.785 41.2169 164.884 41.714 164.884 42.2869C164.884 42.8646 164.785 43.3653 164.589 43.7891C164.392 44.2105 164.12 44.5372 163.772 44.7692C163.424 44.9988 163.023 45.1136 162.568 45.1136C162.218 45.1136 161.937 45.0556 161.727 44.9396C161.516 44.8213 161.354 44.6875 161.24 44.5384C161.126 44.3868 161.039 44.2614 160.977 44.1619H160.878V45H160.068ZM160.892 42.2727C160.892 42.6847 160.952 43.0481 161.073 43.3629C161.194 43.6754 161.37 43.9205 161.602 44.098C161.834 44.2732 162.118 44.3608 162.455 44.3608C162.805 44.3608 163.097 44.2685 163.332 44.0838C163.568 43.8968 163.746 43.6458 163.864 43.331C163.985 43.0137 164.045 42.661 164.045 42.2727C164.045 41.8892 163.986 41.5436 163.868 41.2358C163.752 40.9257 163.576 40.6806 163.339 40.5007C163.104 40.3184 162.81 40.2273 162.455 40.2273C162.114 40.2273 161.827 40.3137 161.595 40.4865C161.363 40.657 161.188 40.8961 161.07 41.2038C160.951 41.5092 160.892 41.8655 160.892 42.2727ZM170.256 39.5455C170.214 39.1856 170.041 38.9062 169.738 38.7074C169.435 38.5085 169.063 38.4091 168.623 38.4091C168.301 38.4091 168.019 38.4612 167.778 38.5653C167.539 38.6695 167.352 38.8127 167.217 38.995C167.084 39.1773 167.018 39.3845 167.018 39.6165C167.018 39.8106 167.064 39.9775 167.156 40.1172C167.251 40.2545 167.372 40.3693 167.518 40.4616C167.665 40.5516 167.819 40.6262 167.98 40.6854C168.141 40.7422 168.289 40.7884 168.424 40.8239L169.163 41.0227C169.352 41.0724 169.563 41.1411 169.795 41.2287C170.029 41.3163 170.253 41.4358 170.466 41.5874C170.681 41.7365 170.859 41.9283 170.999 42.1626C171.138 42.397 171.208 42.6847 171.208 43.0256C171.208 43.4186 171.105 43.7737 170.899 44.0909C170.696 44.4081 170.397 44.6603 170.004 44.8473C169.614 45.0343 169.139 45.1278 168.58 45.1278C168.059 45.1278 167.608 45.0438 167.227 44.8757C166.848 44.7076 166.55 44.4732 166.332 44.1726C166.117 43.8719 165.995 43.5227 165.967 43.125H166.876C166.899 43.3996 166.992 43.6269 167.153 43.8068C167.316 43.9844 167.522 44.117 167.771 44.2045C168.022 44.2898 168.291 44.3324 168.58 44.3324C168.916 44.3324 169.218 44.2779 169.486 44.169C169.753 44.0578 169.965 43.9039 170.121 43.7074C170.278 43.5085 170.356 43.2765 170.356 43.0114C170.356 42.7699 170.288 42.5734 170.153 42.4219C170.018 42.2704 169.841 42.1473 169.621 42.0526C169.401 41.9579 169.163 41.875 168.907 41.804L168.012 41.5483C167.444 41.3849 166.994 41.1518 166.663 40.8487C166.331 40.5457 166.165 40.1491 166.165 39.6591C166.165 39.2519 166.276 38.8968 166.496 38.5938C166.718 38.2884 167.017 38.0516 167.391 37.8835C167.767 37.7131 168.187 37.6278 168.651 37.6278C169.12 37.6278 169.537 37.7119 169.901 37.88C170.266 38.0457 170.555 38.273 170.768 38.5618C170.983 38.8506 171.097 39.1785 171.109 39.5455H170.256ZM176.264 47.0455V44.1619H176.193C176.131 44.2614 176.044 44.3868 175.93 44.5384C175.817 44.6875 175.654 44.8213 175.444 44.9396C175.233 45.0556 174.952 45.1136 174.602 45.1136C174.148 45.1136 173.746 44.9988 173.398 44.7692C173.05 44.5372 172.778 44.2105 172.581 43.7891C172.385 43.3653 172.287 42.8646 172.287 42.2869C172.287 41.714 172.385 41.2169 172.581 40.7955C172.778 40.3741 173.051 40.0485 173.402 39.8189C173.752 39.5893 174.157 39.4744 174.616 39.4744C174.971 39.4744 175.252 39.5336 175.458 39.652C175.666 39.768 175.825 39.9006 175.934 40.0497C176.045 40.1965 176.131 40.3172 176.193 40.4119H176.292V39.5455H177.102V47.0455H176.264ZM174.716 44.3608C175.052 44.3608 175.336 44.2732 175.568 44.098C175.8 43.9205 175.976 43.6754 176.097 43.3629C176.218 43.0481 176.278 42.6847 176.278 42.2727C176.278 41.8655 176.219 41.5092 176.101 41.2038C175.982 40.8961 175.807 40.657 175.575 40.4865C175.343 40.3137 175.057 40.2273 174.716 40.2273C174.361 40.2273 174.065 40.3184 173.828 40.5007C173.594 40.6806 173.417 40.9257 173.299 41.2358C173.183 41.5436 173.125 41.8892 173.125 42.2727C173.125 42.661 173.184 43.0137 173.302 43.331C173.423 43.6458 173.601 43.8968 173.835 44.0838C174.072 44.2685 174.365 44.3608 174.716 44.3608ZM182.074 42.7699V39.5455H182.912V45H182.074V44.0767H182.017C181.889 44.3537 181.69 44.5893 181.42 44.7834C181.15 44.9751 180.809 45.071 180.398 45.071C180.057 45.071 179.754 44.9964 179.488 44.8473C179.223 44.6958 179.015 44.4685 178.863 44.1655C178.712 43.8601 178.636 43.4754 178.636 43.0114V39.5455H179.474V42.9545C179.474 43.3523 179.586 43.6695 179.808 43.9062C180.033 44.143 180.319 44.2614 180.667 44.2614C180.876 44.2614 181.088 44.2081 181.303 44.1016C181.521 43.995 181.703 43.8317 181.85 43.6115C181.999 43.3913 182.074 43.1108 182.074 42.7699ZM186.052 45.1278C185.706 45.1278 185.393 45.0627 185.111 44.9325C184.829 44.8 184.605 44.6094 184.44 44.3608C184.274 44.1098 184.191 43.8068 184.191 43.4517C184.191 43.1392 184.253 42.8859 184.376 42.6918C184.499 42.4953 184.663 42.3414 184.869 42.2301C185.075 42.1188 185.303 42.036 185.551 41.9815C185.802 41.9247 186.054 41.8797 186.308 41.8466C186.639 41.804 186.908 41.772 187.114 41.7507C187.322 41.727 187.473 41.688 187.568 41.6335C187.665 41.5791 187.714 41.4844 187.714 41.3494V41.321C187.714 40.9706 187.618 40.6984 187.426 40.5043C187.237 40.3101 186.949 40.2131 186.563 40.2131C186.163 40.2131 185.849 40.3007 185.622 40.4759C185.395 40.651 185.235 40.8381 185.143 41.0369L184.347 40.7528C184.489 40.4214 184.679 40.1634 184.915 39.9787C185.155 39.7917 185.415 39.6615 185.697 39.5881C185.981 39.5123 186.26 39.4744 186.535 39.4744C186.71 39.4744 186.911 39.4957 187.138 39.5384C187.368 39.5786 187.589 39.6626 187.803 39.7905C188.018 39.9183 188.197 40.1113 188.339 40.3693C188.481 40.6274 188.552 40.973 188.552 41.4062V45H187.714V44.2614H187.671C187.614 44.3797 187.52 44.5064 187.387 44.6413C187.254 44.7763 187.078 44.8911 186.858 44.9858C186.638 45.0805 186.369 45.1278 186.052 45.1278ZM186.18 44.375C186.511 44.375 186.79 44.3099 187.018 44.1797C187.247 44.0495 187.42 43.8814 187.536 43.6754C187.655 43.4695 187.714 43.2528 187.714 43.0256V42.2585C187.678 42.3011 187.6 42.3402 187.479 42.3757C187.361 42.4089 187.224 42.4384 187.067 42.4645C186.914 42.4882 186.763 42.5095 186.616 42.5284C186.472 42.545 186.355 42.5592 186.265 42.571C186.047 42.5994 185.844 42.6456 185.654 42.7095C185.467 42.7711 185.316 42.8646 185.2 42.9901C185.086 43.1132 185.029 43.2812 185.029 43.4943C185.029 43.7855 185.137 44.0057 185.352 44.1548C185.57 44.3016 185.846 44.375 186.18 44.375ZM190.081 45V39.5455H190.891V40.3693H190.948C191.047 40.0994 191.227 39.8804 191.488 39.7124C191.748 39.5443 192.042 39.4602 192.368 39.4602C192.43 39.4602 192.507 39.4614 192.599 39.4638C192.692 39.4661 192.761 39.4697 192.809 39.4744V40.3267C192.78 40.3196 192.715 40.3089 192.613 40.2947C192.514 40.2782 192.409 40.2699 192.297 40.2699C192.032 40.2699 191.796 40.3255 191.587 40.4368C191.381 40.5457 191.218 40.6972 191.097 40.8913C190.979 41.0831 190.92 41.3021 190.92 41.5483V45H190.081ZM195.923 45.1136C195.398 45.1136 194.944 44.9976 194.563 44.7656C194.184 44.5312 193.892 44.2045 193.686 43.7855C193.482 43.3641 193.381 42.8741 193.381 42.3153C193.381 41.7566 193.482 41.2642 193.686 40.8381C193.892 40.4096 194.178 40.0758 194.545 39.8366C194.915 39.5952 195.345 39.4744 195.838 39.4744C196.122 39.4744 196.403 39.5218 196.68 39.6165C196.956 39.7112 197.209 39.8651 197.436 40.0781C197.663 40.2888 197.844 40.5682 197.979 40.9162C198.114 41.2642 198.182 41.6927 198.182 42.2017V42.5568H193.977V41.8324H197.329C197.329 41.5246 197.268 41.25 197.145 41.0085C197.024 40.767 196.851 40.5765 196.626 40.4368C196.404 40.2971 196.141 40.2273 195.838 40.2273C195.504 40.2273 195.215 40.3101 194.971 40.4759C194.73 40.6392 194.544 40.8523 194.414 41.1151C194.284 41.3778 194.219 41.6596 194.219 41.9602V42.4432C194.219 42.8551 194.29 43.2043 194.432 43.4908C194.576 43.7749 194.776 43.9915 195.032 44.1406C195.287 44.2874 195.585 44.3608 195.923 44.3608C196.143 44.3608 196.342 44.33 196.52 44.2685C196.7 44.2045 196.855 44.1098 196.985 43.9844C197.115 43.8565 197.216 43.6979 197.287 43.5085L198.096 43.7358C198.011 44.0104 197.868 44.2519 197.667 44.4602C197.465 44.6662 197.217 44.8272 196.921 44.9432C196.625 45.0568 196.292 45.1136 195.923 45.1136Z"
          fill="white" fill-opacity="0.4"/>
</svg>
