<svg width="32" height="32" viewBox="0 0 32 32" fill="none" xmlns="http://www.w3.org/2000/svg">
<path d="M28.2511 2.78857L17.6328 10.675L19.5964 6.0221L28.2511 2.78857Z" fill="#E2761B"/>
<path d="M3.73828 2.78857L14.2712 10.7497L12.4037 6.0221L3.73828 2.78857Z" fill="#E4761B"/>
<path d="M24.4307 21.0688L21.6027 25.4016L27.6535 27.0663L29.393 21.1649L24.4307 21.0688Z" fill="#E4761B"/>
<path d="M2.61768 21.1649L4.34649 27.0663L10.3973 25.4016L7.56934 21.0688L2.61768 21.1649Z" fill="#E4761B"/>
<path d="M10.0559 13.7484L8.36975 16.299L14.3779 16.5657L14.1645 10.1094L10.0559 13.7484Z" fill="#E4761B"/>
<path d="M21.9335 13.7484L17.7715 10.0347L17.6328 16.5657L23.6303 16.2989L21.9335 13.7484Z" fill="#E4761B"/>
<path d="M10.3973 25.402L14.0044 23.6412L10.8882 21.208L10.3973 25.402Z" fill="#E4761B"/>
<path d="M17.985 23.6412L21.6027 25.402L21.1011 21.208L17.985 23.6412Z" fill="#E4761B"/>
<path d="M21.6027 25.4019L17.985 23.6411L18.2731 25.9996L18.2411 26.992L21.6027 25.4019Z" fill="#D7C1B3"/>
<path d="M10.3973 25.4019L13.7589 26.992L13.7376 25.9996L14.0044 23.6411L10.3973 25.4019Z" fill="#D7C1B3"/>
<path d="M13.8123 19.6498L10.8029 18.7641L12.9265 17.793L13.8123 19.6498Z" fill="#233447"/>
<path d="M18.177 19.6498L19.0628 17.793L21.1971 18.7641L18.177 19.6498Z" fill="#233447"/>
<path d="M10.3973 25.4016L10.9096 21.0688L7.56934 21.1649L10.3973 25.4016Z" fill="#CD6116"/>
<path d="M21.0905 21.0688L21.6027 25.4016L24.4307 21.1649L21.0905 21.0688Z" fill="#CD6116"/>
<path d="M23.6303 16.2988L17.6328 16.5656L18.1877 19.6497L19.0735 17.7929L21.2078 18.764L23.6303 16.2988Z" fill="#CD6116"/>
<path d="M10.8029 18.764L12.9372 17.7929L13.8123 19.6497L14.3779 16.5656L8.36975 16.2988L10.8029 18.764Z" fill="#CD6116"/>
<path d="M8.36975 16.2988L10.8883 21.2078L10.8029 18.764L8.36975 16.2988Z" fill="#E4751F"/>
<path d="M21.2078 18.764L21.1011 21.2078L23.6303 16.2988L21.2078 18.764Z" fill="#E4751F"/>
<path d="M14.3779 16.5654L13.8123 19.6495L14.5166 23.2886L14.6767 18.497L14.3779 16.5654Z" fill="#E4751F"/>
<path d="M17.6327 16.5654L17.3446 18.4863L17.4727 23.2886L18.1877 19.6495L17.6327 16.5654Z" fill="#E4751F"/>
<path d="M18.1877 19.6499L17.4727 23.289L17.9849 23.6411L21.101 21.208L21.2077 18.7642L18.1877 19.6499Z" fill="#F6851B"/>
<path d="M10.8029 18.7642L10.8882 21.208L14.0044 23.6411L14.5166 23.289L13.8123 19.6499L10.8029 18.7642Z" fill="#F6851B"/>
<path d="M18.241 26.9919L18.273 25.9995L18.0063 25.7647H13.983L13.7376 25.9995L13.7589 26.9919L10.3973 25.4019L11.5712 26.3623L13.951 28.0164H18.0383L20.4287 26.3623L21.6026 25.4019L18.241 26.9919Z" fill="#C0AD9E"/>
<path d="M17.9849 23.6407L17.4726 23.2886H14.5166L14.0043 23.6407L13.7375 25.9992L13.983 25.7644H18.0062L18.273 25.9992L17.9849 23.6407Z" fill="#161616"/>
<path d="M28.6994 11.1872L29.6065 6.83314L28.2512 2.78857L17.985 10.4082L21.9335 13.7484L27.5148 15.3812L28.7527 13.9405L28.2191 13.5563L29.0729 12.7773L28.4112 12.265L29.265 11.6141L28.6994 11.1872Z" fill="#763D16"/>
<path d="M2.39355 6.83314L3.30065 11.1872L2.72438 11.6141L3.57811 12.265L2.92714 12.7773L3.78087 13.5563L3.24729 13.9405L4.47453 15.3812L10.0558 13.7484L14.0044 10.4082L3.73819 2.78857L2.39355 6.83314Z" fill="#763D16"/>
<path d="M27.5148 15.3808L21.9335 13.748L23.6303 16.2986L21.1011 21.2076L24.4306 21.1649H29.393L27.5148 15.3808Z" fill="#F6851B"/>
<path d="M10.0558 13.748L4.47455 15.3808L2.61768 21.1649H7.56934L10.8882 21.2076L8.36972 16.2986L10.0558 13.748Z" fill="#F6851B"/>
<path d="M17.6328 16.5656L17.985 10.408L19.6071 6.02197H12.4037L14.0044 10.408L14.3779 16.5656L14.506 18.5078L14.5167 23.2888H17.4727L17.4941 18.5078L17.6328 16.5656Z" fill="#F6851B"/>
</svg>
