<svg width="32" height="32" viewBox="0 0 32 32" fill="none" xmlns="http://www.w3.org/2000/svg">
<g clip-path="url(#clip0_15782_80973)">
<path d="M10.0734 2.66504H21.9267C26.0178 2.66504 29.335 5.98233 29.335 10.0734V21.9267C29.335 26.0178 26.0178 29.335 21.9267 29.335H10.0734C5.98233 29.335 2.66504 26.0178 2.66504 21.9267V10.0734C2.66504 5.98233 5.98233 2.66504 10.0734 2.66504Z" fill="url(#paint0_linear_15782_80973)"/>
<mask id="mask0_15782_80973" style="mask-type:alpha" maskUnits="userSpaceOnUse" x="2" y="2" width="28" height="28">
<path d="M10.0734 2.66504H21.9267C26.0178 2.66504 29.335 5.98233 29.335 10.0734V21.9267C29.335 26.0178 26.0178 29.335 21.9267 29.335H10.0734C5.98233 29.335 2.66504 26.0178 2.66504 21.9267V10.0734C2.66504 5.98233 5.98233 2.66504 10.0734 2.66504Z" fill="#295CE9"/>
</mask>
<g mask="url(#mask0_15782_80973)">
<g filter="url(#filter0_f_15782_80973)">
<circle cx="2.08197" cy="33.002" r="24.4815" fill="url(#paint1_radial_15782_80973)"/>
</g>
</g>
<path d="M25.3016 15.9998V16.2468C23.787 16.4855 20.5274 17.0534 18.9222 17.6626C18.346 17.8848 17.8933 18.3293 17.6711 18.9055C17.0537 20.5024 16.4857 23.7786 16.247 25.3014H15.7531C15.5144 23.7786 14.9382 20.4942 14.3291 18.9055C14.1068 18.3376 13.6459 17.8848 13.0779 17.6626C11.4727 17.0452 8.21308 16.4855 6.69849 16.2468V15.7529C8.21308 15.5142 11.4727 14.9462 13.0779 14.3371C13.6541 14.1148 14.1068 13.6703 14.3291 13.0941C14.9464 11.4972 15.5144 8.22107 15.7531 6.69824H16.247C16.4857 8.22107 17.0619 11.5054 17.6711 13.0941C17.8933 13.6621 18.3543 14.1148 18.9222 14.3371C20.5274 14.9544 23.787 15.5142 25.3016 15.7529V15.9998Z" fill="white"/>
</g>
<defs>
<filter id="filter0_f_15782_80973" x="-26.3995" y="4.52051" width="56.963" height="56.9629" filterUnits="userSpaceOnUse" color-interpolation-filters="sRGB">
<feFlood flood-opacity="0" result="BackgroundImageFix"/>
<feBlend mode="normal" in="SourceGraphic" in2="BackgroundImageFix" result="shape"/>
<feGaussianBlur stdDeviation="2" result="effect1_foregroundBlur_15782_80973"/>
</filter>
<linearGradient id="paint0_linear_15782_80973" x1="29.3351" y1="2.66504" x2="2.66504" y2="29.335" gradientUnits="userSpaceOnUse">
<stop stop-color="#0D7FD4"/>
<stop offset="0.5625" stop-color="#395FEA"/>
</linearGradient>
<radialGradient id="paint1_radial_15782_80973" cx="0" cy="0" r="1" gradientUnits="userSpaceOnUse" gradientTransform="translate(2.08197 33.002) rotate(90) scale(24.4815)">
<stop offset="0.21875" stop-color="#E1E1F2"/>
<stop offset="0.473958" stop-color="#B6B7EA"/>
<stop offset="1" stop-color="#576CEB" stop-opacity="0.47"/>
</radialGradient>
<clipPath id="clip0_15782_80973">
<rect width="32" height="32" fill="white"/>
</clipPath>
</defs>
</svg>
