<svg width="32" height="32" viewBox="0 0 32 32" fill="none" xmlns="http://www.w3.org/2000/svg">
<g clip-path="url(#clip0_14193_76164)">
<circle cx="16" cy="16.0002" r="14.6667" fill="black"/>
<path d="M18.0361 21.6158C24.3292 18.7238 28.0583 13.3928 26.3654 9.70881C24.7171 6.1221 18.5375 5.41862 12.4049 8.05232C16.6294 7.11052 20.3474 7.9866 21.4714 10.478C22.9054 13.6568 19.5738 18.2611 14.03 20.7622C10.9052 22.1719 7.74459 22.6125 5.32446 22.1594C8.09643 23.9773 13.1214 23.8743 18.0361 21.6158Z" fill="#E30A7B"/>
<path d="M7.59272 24.609L7.69073 24.7611C7.69073 24.7611 12.3554 18.7388 13.8739 18.5628L13.3563 19.1853C13.4172 19.1461 14.2668 18.8439 14.2668 18.8439C14.4337 19.045 14.6467 19.2048 14.8904 19.3118C15.134 19.4188 15.4023 19.4703 15.6759 19.4626C16.6255 19.4452 16.7854 19.6651 16.7854 19.6651C16.7854 19.6651 16.5199 20.027 16.6301 20.1981C16.9012 19.8991 17.2106 19.6348 17.5496 19.4125C17.8637 19.2247 18.1982 19.0741 18.5455 18.9642C18.5455 18.9642 18.399 18.8139 17.8391 18.9863C17.2791 19.1587 16.5185 18.9833 16.1197 18.8709C15.8739 18.7931 15.6568 18.6533 15.4898 18.465C15.3228 18.2768 15.2114 18.0466 15.1667 17.7969C15.077 17.297 15.6306 16.3752 16.4296 15.0581C17.2092 13.6216 17.3211 12.6803 16.7456 10.8529C16.5901 10.359 16.5102 10.0521 16.3136 9.65631C15.9854 8.99548 15.7667 8.40916 14.9157 8.23927C14.2885 8.11408 13.5907 8.14558 12.3431 8.48548C12.6903 8.90809 13.066 9.31693 13.231 9.78549C13.4242 10.3343 13.4044 10.9574 13.3211 11.143C13.1668 11.4871 12.7373 11.9694 12.054 13.2879C11.3707 14.6063 8.82539 19.641 8.82539 19.641L9.88394 19.0759L6.46338 24.6042L6.91856 24.4393L6.534 25.3811C6.98532 25.2107 7.37202 25.0224 7.60011 24.6042L7.59272 24.609Z" fill="white"/>
</g>
<defs>
<clipPath id="clip0_14193_76164">
<rect width="32" height="32" fill="white"/>
</clipPath>
</defs>
</svg>
