<svg width="161" height="64" viewBox="0 0 161 64" fill="none" xmlns="http://www.w3.org/2000/svg">
<g clip-path="url(#clip0)">
<path d="M0.901882 34.6655L17 25.5724L25.9062 30.6031L33.0981 34.6655L17 44.6343L0.901882 34.6655Z" stroke="#1E2134" stroke-width="3.5"/>
<path d="M0.901886 26.1655L17 17.0724L33.0981 26.1655L17 36.1343L0.901886 26.1655Z" stroke="#6848FF" stroke-width="3.5"/>
</g>
<path d="M53.26 38.24C52.1533 38.24 51.08 38.0933 50.04 37.8C49.0133 37.4933 48.1867 37.1 47.56 36.62L48.66 34.18C49.26 34.62 49.9733 34.9733 50.8 35.24C51.6267 35.5067 52.4533 35.64 53.28 35.64C54.2 35.64 54.88 35.5067 55.32 35.24C55.76 34.96 55.98 34.5933 55.98 34.14C55.98 33.8067 55.8467 33.5333 55.58 33.32C55.3267 33.0933 54.9933 32.9133 54.58 32.78C54.18 32.6467 53.6333 32.5 52.94 32.34C51.8733 32.0867 51 31.8333 50.32 31.58C49.64 31.3267 49.0533 30.92 48.56 30.36C48.08 29.8 47.84 29.0533 47.84 28.12C47.84 27.3067 48.06 26.5733 48.5 25.92C48.94 25.2533 49.6 24.7267 50.48 24.34C51.3733 23.9533 52.46 23.76 53.74 23.76C54.6333 23.76 55.5067 23.8667 56.36 24.08C57.2133 24.2933 57.96 24.6 58.6 25L57.6 27.46C56.3067 26.7267 55.0133 26.36 53.72 26.36C52.8133 26.36 52.14 26.5067 51.7 26.8C51.2733 27.0933 51.06 27.48 51.06 27.96C51.06 28.44 51.3067 28.8 51.8 29.04C52.3067 29.2667 53.0733 29.4933 54.1 29.72C55.1667 29.9733 56.04 30.2267 56.72 30.48C57.4 30.7333 57.98 31.1333 58.46 31.68C58.9533 32.2267 59.2 32.9667 59.2 33.9C59.2 34.7 58.9733 35.4333 58.52 36.1C58.08 36.7533 57.4133 37.2733 56.52 37.66C55.6267 38.0467 54.54 38.24 53.26 38.24ZM72.0339 27.24V38H69.0739V36.72C68.6606 37.1867 68.1672 37.5467 67.5939 37.8C67.0206 38.04 66.4006 38.16 65.7339 38.16C64.3206 38.16 63.2006 37.7533 62.3739 36.94C61.5472 36.1267 61.1339 34.92 61.1339 33.32V27.24H64.2539V32.86C64.2539 34.5933 64.9806 35.46 66.4339 35.46C67.1806 35.46 67.7806 35.22 68.2339 34.74C68.6872 34.2467 68.9139 33.52 68.9139 32.56V27.24H72.0339ZM81.2844 27.08C82.2844 27.08 83.191 27.3133 84.0044 27.78C84.831 28.2333 85.4777 28.88 85.9444 29.72C86.411 30.5467 86.6444 31.5133 86.6444 32.62C86.6444 33.7267 86.411 34.7 85.9444 35.54C85.4777 36.3667 84.831 37.0133 84.0044 37.48C83.191 37.9333 82.2844 38.16 81.2844 38.16C79.8044 38.16 78.6777 37.6933 77.9044 36.76V38H74.9244V23.16H78.0444V28.38C78.831 27.5133 79.911 27.08 81.2844 27.08ZM80.7444 35.6C81.5444 35.6 82.1977 35.3333 82.7044 34.8C83.2244 34.2533 83.4844 33.5267 83.4844 32.62C83.4844 31.7133 83.2244 30.9933 82.7044 30.46C82.1977 29.9133 81.5444 29.64 80.7444 29.64C79.9444 29.64 79.2844 29.9133 78.7644 30.46C78.2577 30.9933 78.0044 31.7133 78.0044 32.62C78.0044 33.5267 78.2577 34.2533 78.7644 34.8C79.2844 35.3333 79.9444 35.6 80.7444 35.6ZM93.553 38.24C92.4463 38.24 91.373 38.0933 90.333 37.8C89.3063 37.4933 88.4796 37.1 87.853 36.62L88.953 34.18C89.553 34.62 90.2663 34.9733 91.093 35.24C91.9196 35.5067 92.7463 35.64 93.573 35.64C94.493 35.64 95.173 35.5067 95.613 35.24C96.053 34.96 96.273 34.5933 96.273 34.14C96.273 33.8067 96.1396 33.5333 95.873 33.32C95.6196 33.0933 95.2863 32.9133 94.873 32.78C94.473 32.6467 93.9263 32.5 93.233 32.34C92.1663 32.0867 91.293 31.8333 90.613 31.58C89.933 31.3267 89.3463 30.92 88.853 30.36C88.373 29.8 88.133 29.0533 88.133 28.12C88.133 27.3067 88.353 26.5733 88.793 25.92C89.233 25.2533 89.893 24.7267 90.773 24.34C91.6663 23.9533 92.753 23.76 94.033 23.76C94.9263 23.76 95.7996 23.8667 96.653 24.08C97.5063 24.2933 98.253 24.6 98.893 25L97.893 27.46C96.5996 26.7267 95.3063 26.36 94.013 26.36C93.1063 26.36 92.433 26.5067 91.993 26.8C91.5663 27.0933 91.353 27.48 91.353 27.96C91.353 28.44 91.5996 28.8 92.093 29.04C92.5996 29.2667 93.3663 29.4933 94.393 29.72C95.4596 29.9733 96.333 30.2267 97.013 30.48C97.693 30.7333 98.273 31.1333 98.753 31.68C99.2463 32.2267 99.493 32.9667 99.493 33.9C99.493 34.7 99.2663 35.4333 98.813 36.1C98.373 36.7533 97.7063 37.2733 96.813 37.66C95.9196 38.0467 94.833 38.24 93.553 38.24ZM112.407 27.24V41.88H109.287V36.86C108.514 37.7267 107.44 38.16 106.067 38.16C105.054 38.16 104.134 37.9333 103.307 37.48C102.494 37.0267 101.854 36.38 101.387 35.54C100.92 34.7 100.687 33.7267 100.687 32.62C100.687 31.5133 100.92 30.54 101.387 29.7C101.854 28.86 102.494 28.2133 103.307 27.76C104.134 27.3067 105.054 27.08 106.067 27.08C107.534 27.08 108.654 27.5467 109.427 28.48V27.24H112.407ZM106.607 35.6C107.394 35.6 108.047 35.3333 108.567 34.8C109.087 34.2533 109.347 33.5267 109.347 32.62C109.347 31.7133 109.087 30.9933 108.567 30.46C108.047 29.9133 107.394 29.64 106.607 29.64C105.807 29.64 105.147 29.9133 104.627 30.46C104.107 30.9933 103.847 31.7133 103.847 32.62C103.847 33.5267 104.107 34.2533 104.627 34.8C105.147 35.3333 105.807 35.6 106.607 35.6ZM126.135 27.24V38H123.175V36.72C122.762 37.1867 122.269 37.5467 121.695 37.8C121.122 38.04 120.502 38.16 119.835 38.16C118.422 38.16 117.302 37.7533 116.475 36.94C115.649 36.1267 115.235 34.92 115.235 33.32V27.24H118.355V32.86C118.355 34.5933 119.082 35.46 120.535 35.46C121.282 35.46 121.882 35.22 122.335 34.74C122.789 34.2467 123.015 33.52 123.015 32.56V27.24H126.135ZM133.366 27.08C135.033 27.08 136.313 27.48 137.206 28.28C138.099 29.0667 138.546 30.26 138.546 31.86V38H135.626V36.66C135.039 37.66 133.946 38.16 132.346 38.16C131.519 38.16 130.799 38.02 130.186 37.74C129.586 37.46 129.126 37.0733 128.806 36.58C128.486 36.0867 128.326 35.5267 128.326 34.9C128.326 33.9 128.699 33.1133 129.446 32.54C130.206 31.9667 131.373 31.68 132.946 31.68H135.426C135.426 31 135.219 30.48 134.806 30.12C134.393 29.7467 133.773 29.56 132.946 29.56C132.373 29.56 131.806 29.6533 131.246 29.84C130.699 30.0133 130.233 30.2533 129.846 30.56L128.726 28.38C129.313 27.9667 130.013 27.6467 130.826 27.42C131.653 27.1933 132.499 27.08 133.366 27.08ZM133.126 36.06C133.659 36.06 134.133 35.94 134.546 35.7C134.959 35.4467 135.253 35.08 135.426 34.6V33.5H133.286C132.006 33.5 131.366 33.92 131.366 34.76C131.366 35.16 131.519 35.48 131.826 35.72C132.146 35.9467 132.579 36.06 133.126 36.06ZM144.35 28.66C144.723 28.14 145.223 27.7467 145.85 27.48C146.49 27.2133 147.223 27.08 148.05 27.08V29.96C147.703 29.9333 147.47 29.92 147.35 29.92C146.456 29.92 145.756 30.1733 145.25 30.68C144.743 31.1733 144.49 31.92 144.49 32.92V38H141.37V27.24H144.35V28.66ZM160.347 32.66C160.347 32.7 160.327 32.98 160.287 33.5H152.147C152.294 34.1667 152.641 34.6933 153.187 35.08C153.734 35.4667 154.414 35.66 155.227 35.66C155.787 35.66 156.281 35.58 156.707 35.42C157.147 35.2467 157.554 34.98 157.927 34.62L159.587 36.42C158.574 37.58 157.094 38.16 155.147 38.16C153.934 38.16 152.861 37.9267 151.927 37.46C150.994 36.98 150.274 36.32 149.767 35.48C149.261 34.64 149.007 33.6867 149.007 32.62C149.007 31.5667 149.254 30.62 149.747 29.78C150.254 28.9267 150.941 28.2667 151.807 27.8C152.687 27.32 153.667 27.08 154.747 27.08C155.801 27.08 156.754 27.3067 157.607 27.76C158.461 28.2133 159.127 28.8667 159.607 29.72C160.101 30.56 160.347 31.54 160.347 32.66ZM154.767 29.44C154.061 29.44 153.467 29.64 152.987 30.04C152.507 30.44 152.214 30.9867 152.107 31.68H157.407C157.301 31 157.007 30.46 156.527 30.06C156.047 29.6467 155.461 29.44 154.767 29.44Z" fill="#1E2134"/>
<defs>
<clipPath id="clip0">
<rect width="34" height="34" fill="white" transform="translate(0 14)"/>
</clipPath>
</defs>
</svg>
