<svg width="118" height="20" viewBox="0 0 118 20" fill="none" xmlns="http://www.w3.org/2000/svg">
<path d="M22.8993 10L18.3772 7.5L23.8038 4.5L31.2653 8.625V11.375L23.8038 15.5L18.3772 12.5L22.8993 10Z" fill="#9DA9BB"/>
<path d="M12.9507 12.5L8.42854 10L12.9507 7.5L7.52412 4.5L0.0626221 8.625V11.375L7.52412 15.5L12.9507 12.5Z" fill="#9DA9BB"/>
<path d="M15.6639 15L20.1861 17.5L15.6639 20L11.1418 17.5L15.6639 15Z" fill="#9DA9BB"/>
<path d="M20.1861 2.5L15.6639 0L11.1418 2.5L15.6639 5L20.1861 2.5Z" fill="#9DA9BB"/>
<path d="M44.9277 14.12C44.0338 14.12 43.2276 13.936 42.5092 13.568C41.7907 13.192 41.2269 12.676 40.8175 12.02C40.4082 11.356 40.2035 10.616 40.2035 9.8C40.2035 8.984 40.4082 8.248 40.8175 7.592C41.2269 6.928 41.7907 6.412 42.5092 6.044C43.2276 5.668 44.0338 5.48 44.9277 5.48C45.8215 5.48 46.6277 5.668 47.3461 6.044C48.0646 6.412 48.6285 6.924 49.0378 7.58C49.4472 8.236 49.6518 8.976 49.6518 9.8C49.6518 10.624 49.4472 11.364 49.0378 12.02C48.6285 12.676 48.0646 13.192 47.3461 13.568C46.6277 13.936 45.8215 14.12 44.9277 14.12ZM44.9277 12.752C45.5124 12.752 46.0387 12.628 46.5066 12.38C46.9744 12.124 47.342 11.772 47.6093 11.324C47.8766 10.868 48.0103 10.36 48.0103 9.8C48.0103 9.24 47.8766 8.736 47.6093 8.288C47.342 7.832 46.9744 7.48 46.5066 7.232C46.0387 6.976 45.5124 6.848 44.9277 6.848C44.3429 6.848 43.8166 6.976 43.3488 7.232C42.8809 7.48 42.5134 7.832 42.246 8.288C41.9787 8.736 41.845 9.24 41.845 9.8C41.845 10.36 41.9787 10.868 42.246 11.324C42.5134 11.772 42.8809 12.124 43.3488 12.38C43.8166 12.628 44.3429 12.752 44.9277 12.752Z" fill="#9DA9BB"/>
<path d="M54.6867 7.52C55.3384 7.52 55.919 7.656 56.4286 7.928C56.9465 8.2 57.3517 8.584 57.6441 9.08C57.9364 9.576 58.0826 10.148 58.0826 10.796C58.0826 11.444 57.9364 12.02 57.6441 12.524C57.3517 13.02 56.9465 13.404 56.4286 13.676C55.919 13.948 55.3384 14.084 54.6867 14.084C53.7845 14.084 53.0703 13.796 52.544 13.22V16.328H50.9776V7.592H52.4688V8.432C52.7277 8.128 53.0452 7.9 53.4211 7.748C53.8054 7.596 54.2273 7.52 54.6867 7.52ZM54.5113 12.8C55.0877 12.8 55.5597 12.616 55.9273 12.248C56.3032 11.88 56.4912 11.396 56.4912 10.796C56.4912 10.196 56.3032 9.712 55.9273 9.344C55.5597 8.976 55.0877 8.792 54.5113 8.792C54.1354 8.792 53.7971 8.876 53.4963 9.044C53.1956 9.204 52.9575 9.436 52.782 9.74C52.6066 10.044 52.5189 10.396 52.5189 10.796C52.5189 11.196 52.6066 11.548 52.782 11.852C52.9575 12.156 53.1956 12.392 53.4963 12.56C53.7971 12.72 54.1354 12.8 54.5113 12.8Z" fill="#9DA9BB"/>
<path d="M65.6081 10.832C65.6081 10.936 65.5997 11.084 65.583 11.276H60.3325C60.4244 11.748 60.6625 12.124 61.0468 12.404C61.4394 12.676 61.924 12.812 62.5004 12.812C63.2355 12.812 63.8412 12.58 64.3174 12.116L65.157 13.04C64.8562 13.384 64.4761 13.644 64.0166 13.82C63.5572 13.996 63.0392 14.084 62.4628 14.084C61.7277 14.084 61.0802 13.944 60.5205 13.664C59.9608 13.384 59.5264 12.996 59.2173 12.5C58.9165 11.996 58.7662 11.428 58.7662 10.796C58.7662 10.172 58.9124 9.612 59.2048 9.116C59.5055 8.612 59.919 8.22 60.4453 7.94C60.9716 7.66 61.5648 7.52 62.2247 7.52C62.8763 7.52 63.4569 7.66 63.9665 7.94C64.4845 8.212 64.8855 8.6 65.1695 9.104C65.4619 9.6 65.6081 10.176 65.6081 10.832ZM62.2247 8.72C61.7235 8.72 61.2974 8.864 60.9466 9.152C60.604 9.432 60.3952 9.808 60.32 10.28H64.1169C64.0501 9.816 63.8454 9.44 63.5029 9.152C63.1604 8.864 62.7343 8.72 62.2247 8.72Z" fill="#9DA9BB"/>
<path d="M70.6589 7.52C71.5027 7.52 72.1794 7.756 72.689 8.228C73.1986 8.7 73.4533 9.4 73.4533 10.328V14H71.887V10.52C71.887 9.96 71.7491 9.54 71.4735 9.26C71.1978 8.972 70.8051 8.828 70.2955 8.828C69.7191 8.828 69.2638 8.996 68.9297 9.332C68.5955 9.66 68.4284 10.136 68.4284 10.76V14H66.8621V7.592H68.3532V8.42C68.6122 8.124 68.938 7.9 69.3307 7.748C69.7233 7.596 70.1661 7.52 70.6589 7.52Z" fill="#9DA9BB"/>
<path d="M78.0594 14.12C77.3827 14.12 76.7269 14.028 76.092 13.844C75.4655 13.66 74.9684 13.416 74.6008 13.112L75.1647 11.9C75.5239 12.172 75.9625 12.396 76.4805 12.572C77.0068 12.74 77.5331 12.824 78.0594 12.824C78.711 12.824 79.1955 12.724 79.513 12.524C79.8388 12.324 80.0017 12.06 80.0017 11.732C80.0017 11.492 79.9098 11.296 79.726 11.144C79.5505 10.984 79.325 10.86 79.0493 10.772C78.7736 10.684 78.3977 10.584 77.9215 10.472C77.2532 10.32 76.7102 10.168 76.2925 10.016C75.8832 9.864 75.5281 9.628 75.2274 9.308C74.935 8.98 74.7888 8.54 74.7888 7.988C74.7888 7.524 74.9183 7.104 75.1772 6.728C75.4446 6.344 75.8414 6.04 76.3677 5.816C76.9023 5.592 77.5539 5.48 78.3225 5.48C78.8572 5.48 79.3835 5.544 79.9014 5.672C80.4194 5.8 80.8663 5.984 81.2422 6.224L80.7285 7.436C80.3442 7.22 79.9432 7.056 79.5255 6.944C79.1078 6.832 78.7026 6.776 78.31 6.776C77.6667 6.776 77.1864 6.88 76.8689 7.088C76.5598 7.296 76.4053 7.572 76.4053 7.916C76.4053 8.156 76.493 8.352 76.6684 8.504C76.8522 8.656 77.0819 8.776 77.3576 8.864C77.6333 8.952 78.0092 9.052 78.4854 9.164C79.137 9.308 79.6717 9.46 80.0894 9.62C80.5071 9.772 80.8621 10.008 81.1545 10.328C81.4553 10.648 81.6056 11.08 81.6056 11.624C81.6056 12.088 81.472 12.508 81.2046 12.884C80.9457 13.26 80.5488 13.56 80.0142 13.784C79.4795 14.008 78.8279 14.12 78.0594 14.12Z" fill="#9DA9BB"/>
<path d="M89.3611 7.592V16.328H87.7948V13.22C87.2685 13.796 86.5542 14.084 85.652 14.084C85.0003 14.084 84.4156 13.948 83.8976 13.676C83.388 13.404 82.987 13.02 82.6946 12.524C82.4106 12.028 82.2686 11.452 82.2686 10.796C82.2686 10.148 82.4148 9.576 82.7072 9.08C82.9996 8.584 83.4006 8.2 83.9101 7.928C84.4197 7.656 85.0003 7.52 85.652 7.52C86.1114 7.52 86.5291 7.596 86.9051 7.748C87.2893 7.9 87.611 8.128 87.8699 8.432V7.592H89.3611ZM85.8274 12.8C86.4038 12.8 86.88 12.616 87.2559 12.248C87.6318 11.88 87.8198 11.396 87.8198 10.796C87.8198 10.196 87.6318 9.712 87.2559 9.344C86.88 8.976 86.4038 8.792 85.8274 8.792C85.251 8.792 84.7748 8.976 84.3989 9.344C84.0313 9.712 83.8475 10.196 83.8475 10.796C83.8475 11.396 84.0313 11.88 84.3989 12.248C84.7748 12.616 85.251 12.8 85.8274 12.8Z" fill="#9DA9BB"/>
<path d="M97.6384 7.592V14H96.1472V13.184C95.8966 13.472 95.5833 13.696 95.2074 13.856C94.8315 14.008 94.4263 14.084 93.9919 14.084C93.098 14.084 92.3921 13.848 91.8742 13.376C91.3646 12.896 91.1098 12.188 91.1098 11.252V7.592H92.6762V11.048C92.6762 11.624 92.8098 12.056 93.0771 12.344C93.3528 12.624 93.7413 12.764 94.2425 12.764C94.8022 12.764 95.245 12.6 95.5708 12.272C95.905 11.936 96.072 11.456 96.072 10.832V7.592H97.6384Z" fill="#9DA9BB"/>
<path d="M101.995 7.52C102.981 7.52 103.733 7.748 104.251 8.204C104.777 8.652 105.04 9.332 105.04 10.244V14H103.561V13.22C103.369 13.5 103.094 13.716 102.734 13.868C102.383 14.012 101.957 14.084 101.456 14.084C100.955 14.084 100.516 14.004 100.14 13.844C99.7645 13.676 99.4721 13.448 99.2632 13.16C99.0627 12.864 98.9625 12.532 98.9625 12.164C98.9625 11.588 99.1839 11.128 99.6266 10.784C100.078 10.432 100.784 10.256 101.744 10.256H103.474V10.16C103.474 9.712 103.332 9.368 103.048 9.128C102.772 8.888 102.358 8.768 101.807 8.768C101.431 8.768 101.059 8.824 100.692 8.936C100.333 9.048 100.028 9.204 99.777 9.404L99.163 8.312C99.5139 8.056 99.9357 7.86 100.429 7.724C100.921 7.588 101.444 7.52 101.995 7.52ZM101.782 12.992C102.175 12.992 102.521 12.908 102.822 12.74C103.131 12.564 103.348 12.316 103.474 11.996V11.252H101.857C100.955 11.252 100.504 11.536 100.504 12.104C100.504 12.376 100.617 12.592 100.842 12.752C101.068 12.912 101.381 12.992 101.782 12.992Z" fill="#9DA9BB"/>
<path d="M108.291 8.528C108.742 7.856 109.536 7.52 110.672 7.52V8.948C110.538 8.924 110.417 8.912 110.308 8.912C109.698 8.912 109.222 9.084 108.88 9.428C108.537 9.764 108.366 10.252 108.366 10.892V14H106.8V7.592H108.291V8.528Z" fill="#9DA9BB"/>
<path d="M117.979 10.832C117.979 10.936 117.971 11.084 117.954 11.276H112.704C112.796 11.748 113.034 12.124 113.418 12.404C113.811 12.676 114.295 12.812 114.872 12.812C115.607 12.812 116.212 12.58 116.689 12.116L117.528 13.04C117.227 13.384 116.847 13.644 116.388 13.82C115.928 13.996 115.41 14.084 114.834 14.084C114.099 14.084 113.451 13.944 112.892 13.664C112.332 13.384 111.898 12.996 111.588 12.5C111.288 11.996 111.137 11.428 111.137 10.796C111.137 10.172 111.284 9.612 111.576 9.116C111.877 8.612 112.29 8.22 112.816 7.94C113.343 7.66 113.936 7.52 114.596 7.52C115.247 7.52 115.828 7.66 116.338 7.94C116.856 8.212 117.257 8.6 117.541 9.104C117.833 9.6 117.979 10.176 117.979 10.832ZM114.596 8.72C114.095 8.72 113.669 8.864 113.318 9.152C112.975 9.432 112.766 9.808 112.691 10.28H116.488C116.421 9.816 116.217 9.44 115.874 9.152C115.531 8.864 115.105 8.72 114.596 8.72Z" fill="#9DA9BB"/>
</svg>
